<?xml version="1.0" encoding="utf-8"?>
<!-- Generator: Adobe Illustrator 26.0.1, SVG Export Plug-In . SVG Version: 6.00 Build 0)  -->
<svg version="1.1" id="Layer_1" xmlns="http://www.w3.org/2000/svg" xmlns:xlink="http://www.w3.org/1999/xlink" x="0px" y="0px"
	 viewBox="0 0 120 140" style="enable-background:new 0 0 120 140;" xml:space="preserve">
<style type="text/css">
	.st0{opacity:0.5;fill:#3488B7;}
	.st1{opacity:0.5;fill:#FFFFFF;}
	.st2{opacity:0.5;fill:#FBB03B;}
	.st3{opacity:0.2;}
	.st4{stroke:#000000;stroke-miterlimit:10;}
	.st5{fill:#9E005D;stroke:#ED1E79;stroke-miterlimit:10;}
	.st6{fill:#ED1E79;stroke:#ED1E79;stroke-miterlimit:10;}
	.st7{fill:#ED1E79;}
	.st8{fill:#9F8295;}
</style>
<g>
	<path class="st0" d="M0,5v130c0,2.8,2.2,5,5,5h110c2.8,0,5-2.2,5-5V5c0-2.8-2.2-5-5-5H5C2.3,0,0,2.2,0,5z"/>
	<path class="st1" d="M0.2,46.7c0-0.6,7.8-1.9,8.4-2c13.1-2.3,26.8-1.7,39.7,0.9c6.1,1.2,12.5,2.2,18.8,1.6c3.3-0.3,6.3-1.2,9.3-2.3
		c3-1.1,6.4-1.7,9.7-2.1c2.9-0.4,5.9-0.5,8.8-0.3c4.3,0.3,8,2.1,12.3,2.4c2.1,0.2,4.1,0.2,6.2,0c0.7-0.1,6.6-0.7,6.6-1.3
		c0,0,0.1,3.2,0.1,3.2c-4.9-0.7-10-1.1-14.9-1.3c-4.6-0.2-9.2-0.2-13.8,0.1c-5,0.3-9.7,1.3-14.6,2c-8.9,1.3-18,1.9-27,2
		c-5.3,0.1-10.5-0.7-15.7-1.2c-4.4-0.4-8.8-0.5-13.2-0.7c-4.1-0.1-8.3-0.2-12.4,0c-2.3,0.1-5.9,0.1-7.8,1.3
		c-0.2,0.1-0.4,0.3-0.5,0.4C0.2,49.4,0.2,46.7,0.2,46.7z"/>
	<path class="st1" d="M0.2,45.6c0-0.6,7.8-1.9,8.4-2c13.1-2.3,26.8-1.7,39.7,0.9c6.1,1.2,12.5,2.2,18.8,1.6c3.3-0.3,6.3-1.2,9.3-2.3
		c3-1.1,6.4-1.7,9.7-2.1c2.9-0.4,5.9-0.5,8.8-0.3c4.3,0.3,8,2.1,12.3,2.4c2.1,0.2,4.1,0.2,6.2,0c0.7-0.1,6.6-0.7,6.6-1.3
		c0,0,0.1,3.2,0.1,3.2c-4.9-0.7-10-1.1-14.9-1.3c-4.6-0.2-9.2-0.2-13.8,0.1c-5,0.3-9.7,1.3-14.6,2c-8.9,1.3-18,1.9-27,2
		c-5.3,0.1-10.5-0.7-15.7-1.2c-4.4-0.4-8.8-0.5-13.2-0.7c-4.1-0.1-8.3-0.2-12.4,0c-2.3,0.1-5.9,0.1-7.8,1.3
		c-0.2,0.1-0.4,0.3-0.5,0.4C0.2,48.3,0.2,45.6,0.2,45.6z"/>
	<path class="st1" d="M120.2,70.9c-1.8,0.4-3.5,0.9-5.1,1.5c-4.5,1.7-9,2.9-14,3.4c-9.6,0.9-19.2-0.6-28.4-2.4
		c-19.5-3.8-40-4.8-59.9-1.3c-0.9,0.2-12.8,2.1-12.7,3.1c0,0,0.1,4.1,0.1,4.1C0.4,79,0.7,78.8,1,78.6c2.9-1.8,8.2-1.8,11.7-2
		c6.2-0.3,12.5-0.2,18.7-0.1c6.6,0.2,13.3,0.4,19.9,1c7.9,0.7,15.7,1.9,23.7,1.8c13.6-0.1,27.3-1.1,40.7-3c1.5-0.2,3.1-0.5,4.6-0.7"
		/>
	<path class="st1" d="M120,69.4c-1.7,0.4-3.3,0.9-4.9,1.5c-4.5,1.7-9,2.9-14,3.4c-9.6,0.9-19.2-0.6-28.4-2.4
		c-19.5-3.8-40-4.8-59.9-1.3c-0.9,0.2-12.8,2.1-12.7,3.1c0,0,0.1,4.1,0.1,4.1c0.2-0.3,0.5-0.4,0.8-0.6c2.9-1.8,8.2-1.8,11.7-2
		c6.2-0.3,12.5-0.2,18.7-0.1c6.6,0.2,13.3,0.4,19.9,1C59.1,76.8,67,78,75,77.9c13.6-0.1,27.3-1.1,40.7-3c1.5-0.2,2.9-0.4,4.4-0.7"/>
	<path class="st1" d="M-0.2,11.1c4,0.5,8,1.2,12,2c9.2,1.8,18.8,3.3,28.4,2.4c5-0.5,9.5-1.7,14-3.4c4.5-1.7,9.7-2.5,14.6-3.2
		c4.4-0.6,8.9-0.8,13.3-0.5c6.5,0.5,12.1,3.1,18.6,3.6c3.1,0.2,6.2,0.3,9.4,0c1.1-0.1,9.9-1.1,9.9-2c0,0,0.1,4.8,0.1,4.8
		c-7.4-1.1-15-1.7-22.6-2c-6.9-0.3-13.9-0.3-20.8,0.1c-7.5,0.5-14.7,2-22,3.1c-13.4,1.9-27.1,2.9-40.7,3c-4.8,0-9.5-0.4-14.2-0.8"/>
	<path class="st1" d="M-0.2,10.3c4,0.5,8,1.2,12,2c9.2,1.8,18.8,3.3,28.4,2.4c5-0.5,9.5-1.7,14-3.4c4.5-1.7,9.7-2.5,14.6-3.2
		c4.4-0.6,8.9-0.8,13.3-0.5c6.5,0.5,12.1,3.1,18.6,3.6c3.1,0.2,6.2,0.3,9.4,0c1.1-0.1,9.9-1.1,9.9-2c0,0,0.1,4.8,0.1,4.8
		c-7.4-1.1-15-1.7-22.6-2c-6.9-0.3-13.9-0.3-20.8,0.1c-7.5,0.5-14.7,2-22,3.1c-13.4,1.9-27.1,2.9-40.7,3c-4.8,0-9.5-0.4-14.2-0.8"/>
	<circle class="st1" cx="14.3" cy="8" r="0.9"/>
	<circle class="st1" cx="16.1" cy="2.2" r="1"/>
	<circle class="st1" cx="22.8" cy="3.2" r="1.9"/>
	<circle class="st1" cx="47.2" cy="44.2" r="0.9"/>
	<circle class="st1" cx="43.1" cy="39.8" r="1"/>
	<circle class="st1" cx="47.3" cy="34.4" r="1.9"/>
	<circle class="st1" cx="87.9" cy="57.6" r="1.1"/>
	<circle class="st1" cx="92.7" cy="62.7" r="1.4"/>
	<circle class="st1" cx="87.1" cy="69.1" r="1.6"/>
	<circle class="st1" cx="41.1" cy="100" r="0.9"/>
	<circle class="st1" cx="37.1" cy="95.4" r="1"/>
	<circle class="st1" cx="41.4" cy="90.2" r="1.9"/>
	<circle class="st1" cx="93.7" cy="112.7" r="1.1"/>
	<circle class="st1" cx="91.3" cy="106.2" r="1.4"/>
	<circle class="st1" cx="98.9" cy="102.4" r="1.6"/>
	<path class="st2" d="M0,124.2c9.6-5.1,19.5-9.3,29.5-12.5c5.6-1.8,11.2-3.3,16.8-3.9c7.7-0.9,15.5,1.3,23.1,2.6
		c3.6,0.6,7.1,1.4,10.6,3c1.7,0.7,3.3,1.7,4.9,2.8c2.3,1.7,3.9,3.4,6.6,3.2c4.8-0.3,9.5-1.3,14.2-1.1c4.7,0.1,10,0.3,14.3,3.8v13
		c0,2.8-2.2,5-5,5H5c-2.8,0-5-2.2-5-5L0,124.2z"/>
</g>
<g>
	<g class="st3">
		<path class="st4" d="M31.1,90.4C31.1,90.4,31.1,90.4,31.1,90.4c0-0.6-0.1-1.1-0.2-1.7c-0.7-3.7,1.3-7.8,4.6-9.6
			c0.3-0.2,0.6-0.3,0.8-0.5c0.2-0.3,0.3-0.7,0.5-1c0.2-0.5,0.7-0.9,1.1-1.1c0.3-0.1,0.6-0.2,0.9-0.4c0.3-0.3,0.4-0.7,0.5-1.1
			c0.5-1.3,1.9-2,3.3-2c0.8,0,1.6,0.2,2.4,0.1c0.9-0.1,1.8-0.7,2.6-1.1c1.4-0.7,2.9-1.2,4.4-1.5c1.5-0.3,3.4-0.3,4.6,0.9
			c0.5,0.5,0.6,1,1.4,1.2c0.6,0.1,1.4,0,1.8,0.4c0.7,0.7-0.3,1.1-0.2,1.7c0.1,0.6,0.8,1.2,1.2,1.6c0.5,0.5,1,1.1,1.4,1.7
			c0.7,1.3,0.9,2.9,0.3,4.3c-0.1,0.2-0.3,0.5-0.3,0.7c-0.1,0.3,0,0.6,0,0.8c0.2,1.8,0.4,3.6-0.1,5.3c-0.3,0.9-0.9,1.7-1.6,2.2
			c-0.4,0.3-0.8,0.5-1.2,0.6c-0.3,0.1-1.1-0.1-1.2,0.3c-0.5,1.1-0.7,2.5-1.3,3.6c-0.6,1.2-1.5,2.4-2.7,3.1c-1.4,0.9-3.3,1-4.8,0.4
			c-0.2-0.1-0.5-0.2-0.7-0.2c-0.3,0-0.6,0.1-0.9,0.2c-1.4,0.5-2.8,1.1-4.3,1.2c-1.5,0-3.1-0.7-3.6-2.2c-1.6,0-3.3-0.1-4.9-0.6
			c-1.6-0.5-3.1-1.5-3.7-3c-0.4-0.8-0.5-1.8-0.3-2.7C30.9,91.5,31.1,91,31.1,90.4z"/>
		<path class="st4" d="M72.3,120.5c0,0,0.1,0,0.1,0c0.6,0.2,1.2,0.4,1.9,0.6c2.8,0.9,5.8,0,8.3-1.4c2.5-1.4,4.7-3.5,5.4-6.3
			c0.2-0.8,0.3-1.7,0.7-2.3c0.6-0.9,1.9-1.2,2.6-2c1-1.1,0.9-2.9,0.7-4.4c-0.2-1.6-0.5-3.4-1.6-4.6c-0.6-0.7-1.5-1.1-2.3-1.5
			c-2-1-4.3-2.1-6.5-1.4c-0.3,0.1-0.6,0.2-0.9,0.2c-0.3,0-0.6-0.1-0.9-0.2c-2.2-0.8-4.5-1.1-6.8-1.1c-0.8,0-1.7,0.1-2.4,0.5
			c-0.6,0.3-0.8,0.8-1.1,1.4c-0.3,0.7-0.3,0.8-1,1.3c-1.2,0.9-2.3,1.9-3.1,3.1c-1,1.5-1.4,3.5-0.6,5.2c0.1,0.3,0.3,0.6,0.4,1
			c0.1,0.3,0.1,0.7,0.1,1.1c-0.1,2.1-0.1,4.2,0.6,6.2c0.7,2,2.2,3.7,4.3,4.2C70.9,120.4,71.6,120.4,72.3,120.5z"/>
		<path class="st4" d="M42.8,115.3c0.9,1.2,2.1,2.4,2.4,3.9c0.3,1.1,0,2.3,0.2,3.5c0.4,2.8,3.7,4.7,6.3,3.7c0.3-0.1,0.6-0.3,1-0.3
			c0.5,0,1,0.2,1.5,0.5c1.5,0.8,3.1,1.5,4.8,1.9c1,0.3,2.1,0.4,3.1,0.2s2-1,2.2-2c0.2-1.1-0.3-2.5,0.5-3.3c0.7-0.6,1.8-0.3,2.8-0.4
			c0.6-0.1,1.1-0.4,1.6-0.6c1.3-0.8,2.7-1.6,3.5-2.9c0.8-1.3,1-3.1,0-4.3c-0.9-1-2.4-1.4-2.9-2.6c-0.3-0.8,0-1.7,0.1-2.6
			c0.2-2.1-0.7-4.4-2.5-5.6c-1-0.7-2.1-1.1-3.3-1.4c-1.1-0.4-2.2-0.7-3.3-1.1c-2.2-0.7-4.9-1.4-6.7,0.1c-1.1,0.9-0.9,2.8-1.9,3.8
			c-1.1,1.1-4.3,0.8-5.9,1.2c-3.8,1.1-6.6,4.3-3.8,8C42.6,115,42.7,115.2,42.8,115.3z"/>
		<path class="st4" d="M95.5,101.5C95.5,101.5,95.5,101.4,95.5,101.5c0.3-0.3,0.8-0.5,1.1-0.7c2.8-2.1,3.4-5.5,1.9-8.6
			c-0.3-0.6-0.6-1.1-0.9-1.6c-1.2-1.8-2.1-4.6-1-6.6c0.3-0.5,0.6-0.8,0.7-1.4c0.3-1.8-1.4-3.3-2.7-4.2c-1-0.7-2.2-1.3-3.3-1.8
			c-0.8-0.3-1.5-0.6-2.3-0.9c-2.2-0.8-4.3-1.9-6.6-2.6c-2.6-0.7-5.7,0-8.1,1.2c-1.2,0.6-2.5,1.4-3.2,2.6c-0.3,0.6-0.5,1.2-0.5,1.8
			c0,0.6,0.3,1.1,0.2,1.7c-0.1,0.6-0.6,1-0.8,1.5c-0.6,1.1-1.2,2.3-1.6,3.5c-0.8,2.2-0.7,4.9,2.2,5.3c-0.4,0.8-0.4,2.2-0.3,3.1
			c0.1,0.9,0.5,1.7,1.1,2.3c1.1,1.1,2.8,1,3.7,2.2c0.7,0.9,1.3,1.7,2.1,2.5c0.9,0.9,2.3,2,3.7,2c0.8,0,1.1-0.5,1.7-0.8
			c0.5-0.3,0.1-0.3,0.7,0.1c0.3,0.2,0.6,0.6,0.8,0.8c1.1,1.1,2.3,2.2,3.8,2.8c2.2,0.9,4.1,0.1,5.7-1.6
			C94.3,103.2,94.8,102.2,95.5,101.5z"/>
		<path class="st4" d="M77.2,106.3c0.4-0.1,0.9-0.2,1.2-0.1c2.8,0.8-0.4,4-2.4,2.4C74.9,107.6,76.1,106.6,77.2,106.3z"/>
		<path class="st4" d="M83.7,85.7c-0.6,0.2-1.1,0.8-1.4,1.6c-0.4,1.2-0.2,2.3,0.7,3.3c2.2,2.4,4.2,1.9,4.7-1.4
			c0.1-0.9,0-1.7-0.7-2.4C86,85.7,84.7,85.2,83.7,85.7z"/>
		<path class="st4" d="M47,84.7c-0.3-0.7-0.2-1.5,0.3-2.2c0.7-1,2.2-1,3.1-0.5c1,0.6,0.9,1.4,0.7,2.4c-0.2,1-0.8,1.8-1.9,1.8
			C48.1,86.1,47.3,85.5,47,84.7z"/>
		<path class="st4" d="M57.4,118.3c-0.8,0-1.6-0.4-2.3-1.3c-0.8-1.3,0.5-3.3,1.9-3.7c0.9-0.2,2,0.3,2.8,0.7
			C62.1,115.3,59.8,118.3,57.4,118.3z"/>
		<g>
			<path d="M46.5,80.9c0-0.2,0-0.4-0.1-0.6"/>
			<g>
				<path d="M46.9,80.9c0-0.1,0-0.3,0-0.4c0-0.1,0-0.2-0.1-0.3c0,0,0-0.1-0.1-0.1c0,0-0.1,0-0.1-0.1c-0.1,0-0.2,0-0.3,0
					c-0.1,0-0.2,0.1-0.2,0.1c0,0,0,0,0,0.1c0,0,0,0.1,0,0.1c0.1,0.1,0.1,0.2,0.1,0.4c0,0,0,0,0-0.1c0,0.1,0,0.2,0,0.3
					c0,0.1,0,0.1,0.1,0.2c0.1,0,0.2,0.1,0.2,0.1C46.7,81.2,46.8,81.1,46.9,80.9L46.9,80.9z"/>
			</g>
		</g>
		<g>
			<path d="M46.2,78.5c0-0.2,0-0.5,0-0.7"/>
			<g>
				<path d="M46.5,78.4c0-0.2,0-0.5,0-0.7c0,0-0.1-0.1-0.1-0.1c-0.1,0-0.2,0-0.3,0c-0.1,0-0.2,0.1-0.2,0.1c0,0-0.1,0.1-0.1,0.1
					c0,0.2,0,0.5,0,0.7c0,0,0.1,0.1,0.1,0.1c0.1,0,0.2,0,0.3,0c0.1,0,0.2-0.1,0.2-0.1C46.5,78.5,46.5,78.4,46.5,78.4L46.5,78.4z"/>
			</g>
		</g>
		<g>
			<path d="M46,76.2c0-0.3,0-0.5,0-0.8"/>
			<g>
				<path d="M46.4,76.1c0-0.3,0-0.5,0-0.8c0-0.1,0-0.1-0.1-0.2c-0.1,0-0.2-0.1-0.2-0.1c-0.1,0-0.2,0-0.3,0.1c-0.1,0-0.1,0.1-0.1,0.2
					c0,0.3,0,0.5,0,0.8c0,0.1,0,0.1,0.1,0.2c0.1,0,0.2,0.1,0.2,0.1c0.1,0,0.2,0,0.3-0.1C46.3,76.3,46.4,76.2,46.4,76.1L46.4,76.1z"
					/>
			</g>
		</g>
		<g>
			<path d="M50.9,80.4c0.1-0.3,0.3-0.6,0.5-0.8"/>
			<g>
				<path d="M51.3,80.3c0.1-0.2,0.1-0.4,0.3-0.5c0,0,0,0,0,0c0.1-0.1,0.2-0.2,0.3-0.3c0,0,0-0.1,0-0.1c0,0-0.1,0-0.2,0
					c-0.2,0-0.3,0.1-0.5,0.2c-0.3,0.2-0.5,0.5-0.6,0.8c0,0.1,0.2,0.1,0.3,0.1c0.1,0,0.2,0,0.3-0.1C51.2,80.4,51.3,80.4,51.3,80.3
					L51.3,80.3z"/>
			</g>
		</g>
		<g>
			<path d="M52.3,77.8c0.1-0.2,0.2-0.4,0.4-0.6"/>
			<g>
				<path d="M52.7,77.9c0.1-0.2,0.2-0.4,0.4-0.6c0-0.1,0-0.1,0-0.2c0-0.1-0.1-0.1-0.2-0.1c-0.1,0-0.2,0-0.3,0.1
					c-0.1,0-0.1,0.1-0.2,0.2c-0.1,0.2-0.2,0.4-0.4,0.6c0,0.1,0,0.1,0,0.2c0,0.1,0.1,0.1,0.2,0.1c0.1,0,0.2,0,0.3-0.1
					C52.6,78,52.6,77.9,52.7,77.9L52.7,77.9z"/>
			</g>
		</g>
		<g>
			<path d="M54.4,74.8c0.3-0.4,0.7-0.8,1-1.1"/>
			<g>
				<path d="M54.7,74.8c0.3-0.4,0.7-0.8,1-1.1c0,0,0-0.1,0-0.1c0,0-0.1-0.1-0.2,0c-0.2,0-0.4,0.1-0.5,0.2c-0.3,0.4-0.7,0.8-1,1.1
					c0,0,0,0.1,0,0.1c0,0,0.1,0.1,0.2,0C54.4,75,54.6,74.9,54.7,74.8L54.7,74.8z"/>
			</g>
		</g>
		<g>
			<path d="M44.5,82.9c-0.6-0.1-1.3-0.3-1.9-0.4"/>
			<g>
				<path d="M44.7,82.7c-0.6-0.1-1.3-0.3-1.9-0.4c-0.2,0-0.4,0-0.5,0.1c-0.1,0.1-0.1,0.2,0.1,0.2c0.6,0.1,1.3,0.3,1.9,0.4
					c0.2,0,0.4,0,0.5-0.1C44.9,82.9,44.8,82.8,44.7,82.7L44.7,82.7z"/>
			</g>
		</g>
		<g>
			<path d="M40.4,81.9c-0.5-0.1-0.9-0.2-1.3-0.5"/>
			<g>
				<path d="M40.6,81.7C40.6,81.7,40.5,81.7,40.6,81.7c-0.1,0-0.1,0-0.1,0c-0.1,0-0.1,0-0.2,0c-0.1,0-0.2-0.1-0.3-0.1c0,0,0,0,0,0
					c0,0,0,0,0,0c0,0-0.1,0-0.1,0c-0.1,0-0.1,0-0.2-0.1c-0.1,0-0.2-0.1-0.3-0.2c-0.1,0-0.2,0-0.2,0c-0.1,0-0.2,0-0.3,0.1
					c-0.1,0.1-0.2,0.2-0.1,0.3c0.5,0.3,1,0.4,1.5,0.5c0.1,0,0.2,0,0.3-0.1c0.1,0,0.2-0.1,0.2-0.1c0-0.1,0-0.1,0-0.2
					C40.7,81.7,40.6,81.7,40.6,81.7L40.6,81.7z"/>
			</g>
		</g>
		<g>
			<path d="M37.1,80.5c-0.3,0.1-0.7,0-1-0.2"/>
			<g>
				<path d="M37.1,80.2c0,0-0.1,0-0.1,0c0,0,0,0-0.1,0c0,0-0.1,0,0,0c-0.1,0-0.2,0-0.3,0c0,0,0.1,0,0.1,0c-0.1,0-0.2-0.1-0.3-0.1
					c0,0,0,0,0.1,0c0,0,0,0-0.1,0c-0.1,0-0.2-0.1-0.2-0.1c-0.1,0-0.2,0-0.3,0.1c-0.1,0-0.1,0.1-0.1,0.2c0,0.1,0,0.1,0.1,0.2
					c0.4,0.2,0.8,0.3,1.2,0.2c0.1,0,0.2,0,0.3-0.1c0.1,0,0.1-0.1,0.1-0.2C37.4,80.3,37.2,80.2,37.1,80.2L37.1,80.2z"/>
			</g>
		</g>
		<g>
			<path d="M38.3,98.2c0-0.4,0-0.7,0-1.1"/>
			<g>
				<path d="M38.7,98.1c0-0.4,0-0.7,0-1.1c0-0.1-0.1-0.1-0.1-0.1c-0.1,0-0.2,0-0.3,0c-0.1,0-0.2,0.1-0.2,0.1c0,0,0,0,0,0.1
					c0,0,0,0.1,0,0.1c0,0.4,0,0.7,0,1.1c0,0.1,0.1,0.1,0.1,0.1c0.1,0,0.2,0,0.3,0c0.1,0,0.2-0.1,0.2-0.1c0,0,0,0,0-0.1
					C38.7,98.2,38.7,98.1,38.7,98.1L38.7,98.1z"/>
			</g>
		</g>
		<g>
			<path d="M38,95.6c0-0.3,0-0.6,0-1"/>
			<g>
				<path d="M38.4,95.5c0-0.3,0-0.6,0-1c0,0-0.1-0.1-0.1-0.1c-0.1,0-0.2,0-0.3,0c-0.1,0-0.2,0.1-0.2,0.1c0,0-0.1,0.1-0.1,0.1
					c0,0.3,0,0.6,0,1c0,0,0.1,0.1,0.1,0.1c0.1,0,0.2,0,0.3,0c0.1,0,0.2-0.1,0.2-0.1C38.4,95.6,38.4,95.6,38.4,95.5L38.4,95.5z"/>
			</g>
		</g>
		<g>
			<path d="M37.9,93c0-0.5,0-1,0.1-1.4"/>
			<g>
				<path d="M38.2,93c0-0.4,0-0.9,0.1-1.4c0-0.2-0.2-0.2-0.3-0.2c-0.1,0-0.4,0.1-0.4,0.3c-0.1,0.5-0.1,1-0.1,1.5
					c0,0.1,0.1,0.1,0.1,0.1c0.1,0,0.2,0,0.3,0C38.1,93.2,38.2,93.1,38.2,93L38.2,93z"/>
			</g>
		</g>
		<g>
			<path d="M38,90.6c0-0.5,0-1,0.1-1.4"/>
			<g>
				<path d="M38.3,90.5c0-0.5,0-0.9,0-1.4c0-0.1-0.2-0.1-0.3-0.1c-0.1,0-0.2,0-0.3,0.1c0,0-0.1,0.1-0.1,0.1c-0.1,0.5-0.1,1-0.1,1.5
					c0,0,0.1,0.1,0.1,0.1c0.1,0,0.2,0,0.3,0c0.1,0,0.2-0.1,0.2-0.1C38.3,90.6,38.3,90.5,38.3,90.5L38.3,90.5z"/>
			</g>
		</g>
		<g>
			<path d="M58.8,112.4c0.2-0.8,0.5-1.6,0.8-2.3"/>
			<g>
				<path d="M59.2,112.4c0.2-0.8,0.5-1.6,0.8-2.3c0.1-0.1-0.2-0.2-0.3-0.1c-0.2,0-0.3,0.1-0.4,0.2c-0.3,0.7-0.6,1.5-0.8,2.3
					C58.4,112.7,59.1,112.6,59.2,112.4L59.2,112.4z"/>
			</g>
		</g>
		<g>
			<path d="M60.6,108.2c0.2-0.3,0.3-0.5,0.5-0.8"/>
			<g>
				<path d="M60.9,108.2c0.2-0.3,0.3-0.5,0.5-0.8c0,0,0-0.1,0-0.1c0,0-0.1-0.1-0.2-0.1c-0.1,0-0.2,0-0.3,0.1c-0.1,0-0.2,0.1-0.2,0.1
					c-0.2,0.3-0.3,0.5-0.5,0.8c0,0,0,0.1,0,0.1c0,0,0.1,0.1,0.2,0.1c0.1,0,0.2,0,0.3-0.1C60.8,108.3,60.9,108.2,60.9,108.2
					L60.9,108.2z"/>
			</g>
		</g>
		<g>
			<path d="M62.4,114.7c0.6-0.2,1.2-0.3,1.8-0.5"/>
			<g>
				<path d="M62.5,114.9c0.6-0.2,1.2-0.3,1.8-0.5c0.1,0,0.4-0.1,0.3-0.3c0-0.2-0.3-0.1-0.4-0.1c-0.6,0.2-1.2,0.3-1.8,0.5
					c-0.1,0-0.4,0.1-0.3,0.3C62.1,114.9,62.4,114.9,62.5,114.9L62.5,114.9z"/>
			</g>
		</g>
		<g>
			<path d="M66.1,113.6c0.5,0,1,0,1.5,0"/>
			<g>
				<path d="M65.9,113.8c0.5,0,1,0,1.5,0c0.2,0,0.4-0.1,0.5-0.2c0.1-0.1-0.1-0.2-0.2-0.2c-0.5,0-1,0-1.5,0c-0.2,0-0.4,0.1-0.5,0.2
					C65.6,113.8,65.8,113.8,65.9,113.8L65.9,113.8z"/>
			</g>
		</g>
		<g>
			<path d="M68.6,113.1c0.1,0,0.2,0,0.3,0"/>
			<g>
				<path d="M68.4,113.3c0.1,0,0.2,0,0.3,0c0.1,0,0.2,0,0.3,0c0,0,0.1,0,0.1,0c0,0,0.1,0,0.1-0.1c0,0,0,0,0.1,0c0,0,0,0,0-0.1
					c0,0,0,0,0,0c0,0-0.1,0-0.1,0c-0.1,0-0.2,0-0.3,0c-0.1,0-0.2,0-0.3,0c0,0-0.1,0-0.1,0c0,0-0.1,0-0.1,0.1c0,0,0,0-0.1,0
					c0,0,0,0,0,0.1c0,0,0,0,0,0C68.3,113.3,68.4,113.3,68.4,113.3L68.4,113.3z"/>
			</g>
		</g>
		<g>
			<path d="M60.6,117.7c0.5,0.2,0.9,0.5,1.2,0.8"/>
			<g>
				<path d="M60.3,117.8c0.1,0,0.2,0.1,0.3,0.1c0,0,0.1,0,0.1,0c0,0,0,0,0,0c0,0,0,0,0,0c0.1,0,0.1,0.1,0.2,0.1
					c0.2,0.1,0.4,0.3,0.5,0.5c0,0,0.1,0,0.2,0c0.1,0,0.2,0,0.3-0.1c0.1,0,0.3-0.1,0.2-0.3c-0.3-0.4-0.8-0.7-1.3-0.9
					c-0.2-0.1-0.4,0-0.5,0.1c-0.1,0-0.1,0.1-0.1,0.1C60.2,117.8,60.3,117.8,60.3,117.8L60.3,117.8z"/>
			</g>
		</g>
		<g>
			<path d="M62.7,119.8c0,0.3,0.2,0.6,0.4,0.8"/>
			<g>
				<path d="M62.3,119.9c0,0.3,0.2,0.6,0.5,0.8c0.1,0,0.1,0,0.2,0c0.1,0,0.2,0,0.3-0.1c0.1,0,0.2-0.1,0.2-0.1c0,0,0.1-0.1,0-0.1
					c-0.1-0.1-0.2-0.2-0.3-0.3c0,0,0,0,0,0c-0.1-0.2-0.2-0.3-0.2-0.5c0,0-0.1-0.1-0.1-0.1c-0.1,0-0.2,0-0.3,0
					c-0.1,0-0.2,0.1-0.2,0.1C62.4,119.8,62.3,119.9,62.3,119.9L62.3,119.9z"/>
			</g>
		</g>
		<g>
			<path d="M64,121.8c0.1,0.4,0.2,0.8,0.3,1.2"/>
			<g>
				<path d="M63.7,121.9c0.1,0.4,0.2,0.8,0.3,1.2c0,0,0.1,0.1,0.1,0.1c0.1,0,0.2,0,0.3,0c0.1,0,0.2-0.1,0.2-0.1c0,0,0.1-0.1,0.1-0.1
					c-0.1-0.4-0.2-0.8-0.3-1.2c0,0-0.1-0.1-0.1-0.1c-0.1,0-0.2,0-0.3,0c-0.1,0-0.2,0.1-0.2,0.1C63.7,121.8,63.7,121.8,63.7,121.9
					L63.7,121.9z"/>
			</g>
		</g>
		<g>
			<path d="M53.6,125.1c0-0.4,0.2-0.9,0.5-1.1"/>
			<g>
				<path d="M53.9,125c0-0.1,0-0.1,0-0.2c0,0,0,0,0,0c0-0.2,0.1-0.4,0.2-0.5c0.1-0.2,0.2-0.3,0.3-0.4c0,0,0-0.1,0-0.1
					c0,0-0.1,0-0.2,0c-0.2,0-0.3,0.1-0.5,0.2c-0.4,0.3-0.6,0.7-0.6,1.2c0,0,0.1,0.1,0.1,0.1c0.1,0,0.2,0,0.3,0
					c0.1,0,0.2-0.1,0.2-0.1C53.9,125,53.9,125,53.9,125L53.9,125z"/>
			</g>
		</g>
		<g>
			<path d="M54.9,122.7c0.2-0.3,0.3-0.7,0.5-1"/>
			<g>
				<path d="M55.2,122.7c0.2-0.3,0.3-0.7,0.5-1c0-0.1,0-0.1-0.1-0.1c-0.1,0-0.2,0-0.2,0c-0.2,0-0.3,0.1-0.4,0.2
					c-0.2,0.3-0.3,0.7-0.5,1c0,0.1,0,0.1,0.1,0.1c0.1,0,0.2,0,0.2,0C55,122.9,55.2,122.8,55.2,122.7L55.2,122.7z"/>
			</g>
		</g>
		<g>
			<path d="M56.5,119.8c0-0.3,0.1-0.6,0.3-0.8"/>
			<g>
				<path d="M56.9,119.7c0-0.1,0-0.2,0-0.3c0,0,0,0,0,0c0-0.2,0.1-0.4,0.3-0.5c0,0,0-0.1-0.1-0.1c-0.1,0-0.2,0-0.2,0
					c-0.1,0-0.2,0-0.3,0.1c-0.1,0-0.1,0.1-0.2,0.1c-0.2,0.2-0.3,0.5-0.3,0.8c0,0,0.1,0,0.1,0c0.1,0,0.2,0,0.3,0
					C56.6,119.9,56.7,119.9,56.9,119.7C56.8,119.8,56.9,119.8,56.9,119.7L56.9,119.7z"/>
			</g>
		</g>
		<g>
			<path d="M43.9,115.1c0.5,0.4,1.1,0.6,1.7,0.8"/>
			<g>
				<path d="M43.6,115.3c0.5,0.4,1.1,0.7,1.7,0.8c0.2,0,0.4,0,0.5-0.1c0.1,0,0.2-0.2,0.1-0.2c-0.6-0.2-1.1-0.4-1.6-0.8
					c-0.1-0.1-0.3,0-0.5,0C43.7,115,43.4,115.2,43.6,115.3L43.6,115.3z"/>
			</g>
		</g>
		<g>
			<path d="M47.4,116.9c0.5,0,1,0.1,1.5,0.1"/>
			<g>
				<path d="M47.3,117.1c0.5,0,1,0.1,1.5,0.1c0.1,0,0.2,0,0.3-0.1c0.1,0,0.2-0.1,0.2-0.2c0.1-0.2-0.1-0.3-0.2-0.3
					c-0.5,0-1-0.1-1.5-0.1c-0.1,0-0.2,0-0.3,0.1c-0.1,0-0.2,0.1-0.2,0.2C47,117,47.1,117.1,47.3,117.1L47.3,117.1z"/>
			</g>
		</g>
		<g>
			<path d="M51.1,117.4c0.4,0,0.9,0,1.3-0.1"/>
			<g>
				<path d="M51,117.7c0.5,0.1,1,0,1.5-0.1c0.1,0,0.2-0.1,0.2-0.1c0-0.1,0.1-0.1,0.1-0.2c-0.1-0.2-0.3-0.2-0.4-0.2c0,0-0.1,0-0.1,0
					c0,0-0.1,0-0.1,0c0.1,0,0,0,0,0c0,0-0.1,0-0.1,0c-0.1,0-0.2,0-0.3,0c-0.1,0-0.2,0-0.3,0c-0.1,0,0.1,0,0,0c0,0-0.1,0-0.1,0
					c-0.1,0-0.1,0-0.2,0c-0.1,0-0.2,0-0.3,0c-0.1,0-0.2,0.1-0.2,0.2C50.7,117.6,50.8,117.7,51,117.7L51,117.7z"/>
			</g>
		</g>
		<g>
			<path d="M54,117.3c0.1,0,0.2,0,0.3,0"/>
			<g>
				<path d="M53.9,117.5c0.1,0,0.2,0,0.3,0c0,0,0.1,0,0.1,0c0,0,0.1,0,0.1,0c0,0,0.1,0,0.1-0.1c0,0,0.1-0.1,0.1-0.1c0,0,0,0,0-0.1
					c0,0,0-0.1,0-0.1c0,0,0,0-0.1,0c0,0-0.1,0-0.2,0c-0.1,0-0.2,0-0.3,0c0,0-0.1,0-0.1,0c0,0-0.1,0-0.1,0c0,0-0.1,0-0.1,0.1
					c0,0-0.1,0.1-0.1,0.1c0,0,0,0,0,0.1c0,0,0,0.1,0,0.1c0,0,0,0,0.1,0C53.8,117.5,53.9,117.5,53.9,117.5L53.9,117.5z"/>
			</g>
		</g>
		<g>
			<path d="M55.6,113.7c-0.2-0.3-0.4-0.7-0.6-1"/>
			<g>
				<path d="M56,113.6c-0.2-0.3-0.4-0.7-0.6-1c0,0-0.1-0.1-0.2-0.1c-0.1,0-0.2,0-0.3,0.1c-0.1,0-0.2,0.1-0.2,0.1c0,0.1,0,0.1,0,0.1
					c0.2,0.3,0.4,0.7,0.6,1c0,0,0.1,0.1,0.2,0.1c0.1,0,0.2,0,0.3-0.1c0.1,0,0.2-0.1,0.2-0.1C56,113.7,56,113.6,56,113.6L56,113.6z"
					/>
			</g>
		</g>
		<g>
			<path d="M78.2,110c0.1,0.4,0.3,0.7,0.5,1"/>
			<g>
				<path d="M77.8,110.1c0.1,0.4,0.3,0.7,0.5,1c0,0,0.1,0.1,0.1,0.1c0.1,0,0.2,0,0.3,0c0.1,0,0.2-0.1,0.2-0.1c0,0,0.1-0.1,0.1-0.1
					c-0.2-0.3-0.4-0.7-0.5-1c0,0-0.1-0.1-0.1-0.1c-0.1,0-0.2,0-0.3,0c-0.1,0-0.2,0.1-0.2,0.1C77.9,110.1,77.8,110.1,77.8,110.1
					L77.8,110.1z"/>
			</g>
		</g>
		<g>
			<path d="M79.5,112.9c0.1,0.5,0.2,1,0.5,1.4"/>
			<g>
				<path d="M79.1,113c0.1,0.5,0.3,1,0.5,1.4c0,0.1,0.1,0.1,0.2,0.1c0.1,0,0.2,0,0.3-0.1c0.1-0.1,0.3-0.2,0.2-0.3
					c-0.2-0.4-0.4-0.9-0.5-1.3c0-0.1-0.1-0.1-0.1-0.1c-0.1,0-0.2,0-0.3,0C79.3,112.8,79.1,112.9,79.1,113L79.1,113z"/>
			</g>
		</g>
		<g>
			<path d="M80.5,116.2c0,0.7,0,1.4,0.1,2.1"/>
			<g>
				<path d="M80.1,116.2c0,0.7,0,1.4,0.1,2.1c0,0.2,0.3,0.2,0.4,0.2c0.2-0.1,0.3-0.2,0.3-0.4c-0.1-0.7-0.1-1.3-0.1-2
					C80.8,115.8,80.1,115.9,80.1,116.2L80.1,116.2z"/>
			</g>
		</g>
		<g>
			<path d="M80.9,119.4c0,0.1,0,0.2,0,0.4"/>
			<g>
				<path d="M80.6,119.5c0,0.1,0,0.2,0,0.4c0,0,0,0,0,0c0,0,0.1,0,0.1,0c0,0,0.1,0,0.1,0c0,0,0.1,0,0.1,0c0.1,0,0.2-0.1,0.2-0.1
					c0,0,0,0,0,0c0,0,0,0,0-0.1c0-0.1,0-0.2,0-0.4c0,0,0,0,0,0c0,0-0.1,0-0.1,0c0,0-0.1,0-0.1,0c0,0-0.1,0-0.1,0
					c-0.1,0-0.2,0.1-0.2,0.1C80.6,119.4,80.6,119.4,80.6,119.5C80.6,119.4,80.6,119.5,80.6,119.5L80.6,119.5z"/>
			</g>
		</g>
		<g>
			<path d="M80.8,107.2c0.9-0.1,1.8,0,2.7,0.3"/>
			<g>
				<path d="M80.7,107.4c0.9-0.1,1.7,0,2.6,0.3c0.2,0,0.4,0,0.5-0.1c0.1,0,0.2-0.2,0.1-0.2c-0.9-0.3-1.9-0.4-2.9-0.3
					c-0.2,0-0.4,0-0.5,0.2C80.4,107.4,80.6,107.4,80.7,107.4L80.7,107.4z"/>
			</g>
		</g>
		<g>
			<path d="M84.8,107.5c0.6,0,1.2,0.1,1.7,0.3"/>
			<g>
				<path d="M84.8,107.7C84.8,107.7,84.8,107.7,84.8,107.7C84.8,107.7,84.8,107.7,84.8,107.7c0.1,0,0.1,0,0.1,0c0.1,0,0.1,0,0.2,0
					c0.1,0,0.1,0,0.2,0c-0.1,0,0.1,0,0.1,0c0,0,0.1,0,0.1,0c0.3,0,0.5,0.1,0.7,0.2c0.2,0.1,0.4,0,0.5-0.1c0.1-0.1,0.2-0.2,0.1-0.3
					c-0.6-0.3-1.3-0.4-1.9-0.3c-0.1,0-0.4,0.1-0.4,0.2C84.5,107.7,84.7,107.7,84.8,107.7L84.8,107.7z"/>
			</g>
		</g>
		<g>
			<path d="M88,108.2c0.7,0,1.4,0.4,1.9,0.9"/>
			<g>
				<path d="M87.9,108.4C87.9,108.4,87.9,108.4,87.9,108.4C87.9,108.4,87.9,108.4,87.9,108.4c0.1,0,0.2,0,0.2,0c0.1,0,0.2,0,0.2,0
					c0.1,0,0.3,0.1,0.5,0.2c0.3,0.1,0.6,0.3,0.8,0.6c0.2,0.2,0.8-0.1,0.7-0.3c-0.6-0.6-1.3-0.9-2.1-0.9c-0.2,0-0.4,0.1-0.5,0.2
					C87.6,108.4,87.8,108.4,87.9,108.4L87.9,108.4z"/>
			</g>
		</g>
		<g>
			<path d="M80,105.5c0.5-0.5,1.1-0.9,1.7-1.2"/>
			<g>
				<path d="M80.3,105.5c0.1-0.1,0.3-0.2,0.4-0.3c0,0,0,0,0,0c0,0,0.1,0,0,0c0,0,0.1,0,0.1-0.1c0.1-0.1,0.1-0.1,0.2-0.2
					c0.3-0.2,0.6-0.4,0.9-0.6c0.1-0.1,0.2-0.2,0.1-0.3c-0.2-0.1-0.4,0-0.5,0.1c-0.6,0.4-1.2,0.8-1.7,1.3c0,0-0.1,0.1-0.1,0.2
					c0,0.1,0.1,0.1,0.1,0.1C79.9,105.7,80.1,105.7,80.3,105.5L80.3,105.5z"/>
			</g>
		</g>
		<g>
			<path d="M73.7,103c0.1,0.3,0.3,0.6,0.5,0.8"/>
			<g>
				<path d="M73.4,103.1c0.1,0.3,0.3,0.6,0.5,0.9c0.1,0.1,0.1,0.1,0.2,0.1c0.1,0,0.2,0,0.3-0.1c0.1,0,0.2-0.1,0.2-0.2
					c0-0.1,0-0.1,0-0.2c-0.1-0.1-0.2-0.3-0.3-0.5c0,0,0,0,0,0.1c-0.1-0.1-0.1-0.2-0.2-0.4c-0.1-0.2-0.3-0.2-0.4-0.1
					c-0.1,0-0.2,0.1-0.2,0.1C73.4,103,73.3,103.1,73.4,103.1L73.4,103.1z"/>
			</g>
		</g>
		<g>
			<path d="M75,105.2c0.2,0.3,0.3,0.6,0.5,0.9"/>
			<g>
				<path d="M74.7,105.3c0.2,0.3,0.3,0.6,0.5,0.9c0,0,0.1,0.1,0.1,0.1c0.1,0,0.2,0,0.3,0c0.1,0,0.2-0.1,0.2-0.1c0,0,0.1-0.1,0.1-0.1
					c-0.2-0.3-0.3-0.6-0.5-0.9c0,0-0.1-0.1-0.1-0.1c-0.1,0-0.2,0-0.3,0c-0.1,0-0.2,0.1-0.2,0.1C74.7,105.2,74.7,105.2,74.7,105.3
					L74.7,105.3z"/>
			</g>
		</g>
		<g>
			<path d="M71.5,108.5c1,0,2,0,3,0"/>
			<g>
				<path d="M71.3,108.8c1,0,2,0,3,0c0.2,0,0.4-0.1,0.5-0.2c0.1-0.1-0.1-0.2-0.2-0.2c-1,0-2,0-3,0c-0.2,0-0.4,0.1-0.5,0.2
					C71.1,108.7,71.2,108.8,71.3,108.8L71.3,108.8z"/>
			</g>
		</g>
		<g>
			<path d="M73,114.1c-0.1-0.7,0.2-1.4,0.8-1.8"/>
			<g>
				<path d="M73.4,114c0-0.3,0-0.6,0.2-0.9c0.1-0.1,0.1-0.3,0.2-0.4c0.1-0.1,0.2-0.2,0.3-0.3c0,0,0.1-0.1,0.1-0.1
					c0-0.1-0.1-0.1-0.1-0.1c-0.2,0-0.4,0-0.5,0.1c-0.6,0.5-0.9,1.2-0.8,1.9c0,0.1,0.1,0.1,0.1,0.1c0.1,0,0.2,0,0.3,0
					C73.2,114.3,73.4,114.2,73.4,114L73.4,114z"/>
			</g>
		</g>
		<g>
			<path d="M74.3,111.5c0.5-0.5,0.9-1,1.4-1.5"/>
			<g>
				<path d="M74.6,111.5c0.5-0.5,0.9-1,1.4-1.5c0,0,0.1-0.1,0.1-0.2c0-0.1-0.1-0.1-0.1-0.1c-0.2,0-0.4,0-0.5,0.1
					c-0.5,0.5-0.9,1-1.4,1.5c0,0-0.1,0.1-0.1,0.2c0,0.1,0.1,0.1,0.1,0.1C74.2,111.7,74.5,111.7,74.6,111.5L74.6,111.5z"/>
			</g>
		</g>
		<g>
			<path d="M77,74.1c0.5,0.2,1,0.6,1.3,1"/>
			<g>
				<path d="M76.7,74.3c0.1,0.1,0.3,0.1,0.4,0.2c0.1,0,0.1,0.1,0.2,0.1c0,0,0,0,0,0c0,0,0,0,0,0c0,0,0.1,0,0.1,0.1
					c0.2,0.2,0.4,0.4,0.6,0.6c0,0.1,0.1,0.1,0.2,0.1c0.1,0,0.2,0,0.3-0.1c0.1,0,0.3-0.2,0.2-0.3c-0.3-0.5-0.8-0.8-1.4-1.1
					c-0.2-0.1-0.4,0-0.5,0.1c-0.1,0-0.1,0.1-0.1,0.2C76.6,74.2,76.7,74.3,76.7,74.3L76.7,74.3z"/>
			</g>
		</g>
		<g>
			<path d="M80.2,77.4c0.5,0.4,1,0.8,1.5,1.3"/>
			<g>
				<path d="M79.9,77.6c0.5,0.4,1,0.8,1.4,1.3c0.1,0.1,0.3,0.1,0.5,0c0.1,0,0.3-0.2,0.2-0.3c-0.5-0.5-1-1-1.5-1.4
					c-0.1,0-0.2,0-0.2,0c-0.1,0-0.2,0-0.3,0.1C79.8,77.4,79.8,77.5,79.9,77.6L79.9,77.6z"/>
			</g>
		</g>
		<g>
			<path d="M82.9,81.2c0.2,0.6,0.5,1.2,0.8,1.8"/>
			<g>
				<path d="M82.6,81.3c0.2,0.6,0.5,1.2,0.8,1.8c0.1,0.2,0.8-0.1,0.7-0.2c-0.3-0.6-0.6-1.1-0.8-1.8c0-0.1-0.3-0.1-0.4,0
					c-0.1,0-0.2,0.1-0.2,0.1C82.6,81.2,82.6,81.2,82.6,81.3L82.6,81.3z"/>
			</g>
		</g>
		<g>
			<path d="M84.1,84.3c0.1,0.4,0.2,0.7,0.3,1.1"/>
			<g>
				<path d="M83.7,84.4c0.1,0.4,0.2,0.7,0.3,1.1c0,0.1,0.1,0.1,0.1,0.1c0.1,0,0.2,0,0.3,0c0.1,0,0.2-0.1,0.2-0.1
					c0,0,0.1-0.1,0.1-0.1c-0.1-0.4-0.2-0.7-0.3-1.1c0-0.1-0.1-0.1-0.1-0.1c-0.1,0-0.2,0-0.3,0c-0.1,0-0.2,0.1-0.2,0.1
					C83.8,84.3,83.7,84.3,83.7,84.4L83.7,84.4z"/>
			</g>
		</g>
		<g>
			<path d="M88.2,85.8c0.2-0.4,0.4-0.8,0.5-1.3"/>
			<g>
				<path d="M88.5,85.9c0.2-0.4,0.4-0.9,0.5-1.4c0-0.1,0-0.1-0.1-0.1c-0.1,0-0.2,0-0.2,0c-0.2,0-0.4,0.1-0.4,0.3
					c-0.1,0.2-0.1,0.4-0.2,0.6c0,0,0,0.1,0,0.1c0,0,0,0,0,0c0,0.1,0,0.1-0.1,0.2c0,0.1-0.1,0.2-0.1,0.3c0,0.1,0,0.1,0,0.2
					c0,0.1,0.1,0.1,0.2,0.1c0.1,0,0.2,0,0.3-0.1C88.4,86,88.5,85.9,88.5,85.9L88.5,85.9z"/>
			</g>
		</g>
		<g>
			<path d="M89,83.2c0-0.7,0-1.4-0.1-2.1"/>
			<g>
				<path d="M89.3,83.2c0-0.7,0-1.4-0.1-2.1c0-0.2-0.3-0.2-0.4-0.1c-0.1,0-0.3,0.1-0.3,0.3c0.1,0.7,0.1,1.3,0.1,2
					c0,0.2,0.2,0.2,0.3,0.2C89.1,83.5,89.3,83.4,89.3,83.2L89.3,83.2z"/>
			</g>
		</g>
		<g>
			<path d="M88.7,79.3c0-0.5-0.2-0.9-0.6-1.2"/>
			<g>
				<path d="M89.1,79.3c0-0.5-0.3-1-0.7-1.4c-0.1-0.1-0.4-0.1-0.5,0c-0.1,0.1-0.2,0.3,0,0.4c0.1,0,0.1,0.1,0.2,0.1c0,0,0,0-0.1,0
					c0.1,0.1,0.2,0.3,0.3,0.4c0,0,0,0,0-0.1c0.1,0.2,0.1,0.3,0.1,0.5c0,0,0,0,0-0.1c0,0,0,0.1,0,0.1c0,0.2,0.2,0.3,0.3,0.2
					c0.1,0,0.2,0,0.3-0.1C89,79.4,89.1,79.4,89.1,79.3L89.1,79.3z"/>
			</g>
		</g>
		<g>
			<path d="M87.6,77.1c-0.3-0.4-0.6-0.9-1-1.3"/>
			<g>
				<path d="M87.9,77c-0.3-0.4-0.6-0.9-1-1.3c0,0-0.1-0.1-0.2-0.1c-0.1,0-0.2,0-0.3,0.1c-0.1,0-0.3,0.1-0.2,0.3
					c0.3,0.4,0.6,0.9,1,1.3c0,0,0.1,0.1,0.2,0.1c0.1,0,0.2,0,0.3-0.1C87.8,77.2,88,77.1,87.9,77L87.9,77z"/>
			</g>
		</g>
		<g>
			<path d="M89,89.7c0.6,0,1.2-0.2,1.7-0.5"/>
			<g>
				<path d="M88.9,89.9c0.7,0,1.4-0.2,2-0.6c0.1-0.1,0.2-0.3,0-0.4c-0.2-0.1-0.4,0-0.5,0c0,0,0,0,0,0c0,0,0,0-0.1,0c0,0-0.1,0-0.1,0
					c-0.1,0-0.1,0.1-0.2,0.1c0,0-0.1,0-0.1,0c0,0-0.1,0,0,0c-0.1,0-0.1,0-0.2,0.1c-0.1,0-0.1,0-0.2,0c0,0-0.1,0-0.1,0c0.1,0,0,0,0,0
					c-0.1,0-0.3,0-0.4,0c-0.1,0-0.4,0.1-0.4,0.3C88.6,89.9,88.8,89.9,88.9,89.9L88.9,89.9z"/>
			</g>
		</g>
		<g>
			<path d="M92.8,88.2c0.5-0.3,1-0.7,1.4-1.1"/>
			<g>
				<path d="M93,88.3c0.5-0.3,1-0.7,1.5-1.2c0,0,0.1-0.1,0.1-0.2c0-0.1-0.1-0.1-0.1-0.1c-0.2,0-0.4,0-0.5,0.1
					c-0.1,0.1-0.2,0.2-0.3,0.3c-0.1,0-0.1,0.1-0.2,0.1c0,0-0.1,0-0.1,0.1c0,0,0,0,0,0c0,0-0.1,0,0,0c-0.2,0.2-0.5,0.4-0.7,0.5
					c-0.1,0.1-0.2,0.2-0.1,0.3C92.7,88.4,92.9,88.4,93,88.3L93,88.3z"/>
			</g>
		</g>
		<g>
			<path d="M95,85.8c0.1-0.4,0.2-0.7,0.5-1"/>
			<g>
				<path d="M95.4,85.8c0-0.2,0.1-0.4,0.2-0.6c0,0,0,0,0,0.1c0.1-0.2,0.2-0.3,0.3-0.5c0,0,0-0.1,0-0.1c0,0-0.1-0.1-0.2-0.1
					c-0.2,0-0.4,0.1-0.5,0.2c-0.2,0.3-0.4,0.7-0.5,1.1c0,0.2,0.2,0.2,0.3,0.1c0.1,0,0.2,0,0.3-0.1C95.3,85.9,95.4,85.9,95.4,85.8
					L95.4,85.8z"/>
			</g>
		</g>
		<g>
			<path d="M86.9,93c0.7,0.6,1.5,1.1,2.3,1.3"/>
			<g>
				<path d="M86.6,93.2c0.7,0.6,1.5,1.1,2.4,1.4c0.2,0.1,0.4,0,0.5-0.1c0.1,0,0.2-0.2,0.1-0.3c-0.8-0.3-1.6-0.7-2.3-1.3
					c-0.1-0.1-0.3,0-0.5,0C86.7,92.9,86.5,93,86.6,93.2L86.6,93.2z"/>
			</g>
		</g>
		<g>
			<path d="M90.6,95.3c0.4,0.4,0.8,0.8,1.3,1.1"/>
			<g>
				<path d="M90.2,95.4c0.4,0.4,0.9,0.8,1.3,1.1c0.1,0,0.2,0,0.2,0c0.1,0,0.2,0,0.3-0.1c0.1-0.1,0.2-0.2,0.1-0.3
					c-0.1-0.1-0.2-0.1-0.3-0.2c0,0-0.1,0-0.1-0.1c0,0,0,0,0,0c-0.1,0,0,0,0,0c-0.1,0-0.1-0.1-0.2-0.1c-0.2-0.2-0.4-0.4-0.6-0.6
					c-0.1-0.1-0.3-0.1-0.5,0C90.3,95.1,90.1,95.3,90.2,95.4L90.2,95.4z"/>
			</g>
		</g>
		<g>
			<path d="M93.2,98.3c0.4,0.6,0.9,1.1,1.4,1.5"/>
			<g>
				<path d="M92.9,98.4c0.4,0.6,0.9,1.1,1.5,1.5c0.1,0,0.2,0,0.2,0c0.1,0,0.2,0,0.3-0.1c0.1,0,0.1-0.1,0.1-0.2c0-0.1,0-0.1-0.1-0.1
					c0,0-0.1,0-0.1-0.1c0,0,0,0,0,0c0,0,0,0,0,0c-0.1-0.1-0.1-0.1-0.2-0.2c-0.1-0.1-0.3-0.2-0.4-0.4c-0.2-0.2-0.5-0.5-0.7-0.8
					c0-0.1-0.1-0.1-0.2-0.1c-0.1,0-0.2,0-0.3,0.1C93,98.2,92.8,98.3,92.9,98.4L92.9,98.4z"/>
			</g>
		</g>
		<g>
			<path d="M83.4,95.8c0-0.6,0.2-1.2,0.5-1.7"/>
			<g>
				<path d="M83.8,95.8c0-0.6,0.2-1.1,0.4-1.6c0-0.1,0-0.1,0-0.1c0,0-0.1-0.1-0.2-0.1c-0.1,0-0.2,0-0.3,0.1c-0.1,0-0.2,0.1-0.2,0.1
					c-0.3,0.5-0.5,1.1-0.5,1.7c0,0.2,0.2,0.2,0.3,0.1c0.1,0,0.2,0,0.3-0.1C83.7,95.9,83.8,95.9,83.8,95.8L83.8,95.8z"/>
			</g>
		</g>
		<g>
			<path d="M83.1,99.2c-0.1-0.6,0-1.2,0.2-1.7"/>
			<g>
				<path d="M83.5,99.1c0-0.6,0-1.1,0.2-1.7c0-0.1,0-0.1-0.1-0.1c-0.1,0-0.2,0-0.2,0c-0.1,0-0.4,0.1-0.4,0.2
					c-0.2,0.6-0.3,1.2-0.2,1.8c0,0.1,0.1,0.1,0.1,0.1c0.1,0,0.2,0,0.3,0C83.3,99.3,83.5,99.2,83.5,99.1L83.5,99.1z"/>
			</g>
		</g>
		<g>
			<path d="M84.3,92.9c0.1-0.2,0.2-0.4,0.3-0.6"/>
			<g>
				<path d="M84.6,93c0.1-0.2,0.2-0.4,0.3-0.6c0-0.1,0-0.1,0-0.2c0-0.1-0.1-0.1-0.2-0.1c-0.1,0-0.2,0-0.3,0.1
					c-0.1,0-0.1,0.1-0.2,0.2c-0.1,0.2-0.2,0.4-0.3,0.6c0,0.1,0,0.1,0,0.2c0,0.1,0.1,0.1,0.2,0.1c0.1,0,0.2,0,0.3-0.1
					C84.5,93.1,84.6,93.1,84.6,93L84.6,93z"/>
			</g>
		</g>
		<g>
			<path d="M74,82.3c0.5,0.1,0.9,0.3,1.3,0.5"/>
			<g>
				<path d="M73.8,82.5C73.8,82.5,73.8,82.5,73.8,82.5c0.1,0,0.2,0,0.2,0c0,0,0.1,0,0.1,0c0,0,0.1,0,0.1,0c0.1,0,0.2,0.1,0.3,0.1
					c0.2,0.1,0.4,0.2,0.6,0.3c0.1,0,0.2,0,0.2,0c0.1,0,0.2,0,0.3-0.1c0.1,0,0.1-0.1,0.1-0.1c0-0.1,0-0.1-0.1-0.1
					c-0.4-0.2-0.9-0.4-1.4-0.5c-0.1,0-0.2,0-0.3,0c-0.1,0-0.2,0.1-0.2,0.1c0,0-0.1,0.1-0.1,0.1C73.7,82.4,73.7,82.4,73.8,82.5
					L73.8,82.5z"/>
			</g>
		</g>
		<g>
			<path d="M76.6,83.6c0.7,0.2,1.3,0.5,1.9,1"/>
			<g>
				<path d="M76.4,83.8c0.6,0.2,1.3,0.5,1.8,0.9c0.1,0.1,0.4,0,0.5,0c0.1,0,0.3-0.2,0.2-0.3c-0.6-0.5-1.2-0.8-2-1
					c-0.2,0-0.4,0-0.5,0.1c0,0-0.1,0.1-0.1,0.1C76.3,83.8,76.4,83.8,76.4,83.8L76.4,83.8z"/>
			</g>
		</g>
		<g>
			<path d="M79.8,85.7c0.6,0.2,1.1,0.6,1.5,1.1"/>
			<g>
				<path d="M79.6,85.9C79.6,85.9,79.6,85.9,79.6,85.9C79.6,85.9,79.6,86,79.6,85.9c0.1,0,0.1,0.1,0.2,0.1c0.1,0,0.1,0.1,0.2,0.1
					c0.1,0.1,0.3,0.2,0.4,0.2c0.1,0,0.1,0.1,0.2,0.1c0,0,0,0,0,0c0,0,0,0,0,0c0,0,0.1,0,0.1,0.1c0.1,0.1,0.2,0.2,0.3,0.3
					c0.1,0.1,0.3,0.1,0.5,0c0.1-0.1,0.3-0.2,0.2-0.3c-0.4-0.5-1-0.9-1.6-1.1c-0.1,0-0.2,0-0.3,0c-0.1,0-0.2,0.1-0.2,0.1
					c0,0-0.1,0.1-0.1,0.2C79.5,85.9,79.5,85.9,79.6,85.9L79.6,85.9z"/>
			</g>
		</g>
		<g>
			<path d="M78,91.5c0.4,0,0.9-0.1,1.2-0.4"/>
			<g>
				<path d="M78,91.7c0.5,0,1-0.2,1.5-0.5c0.1,0,0.1-0.1,0.1-0.2c0-0.1,0-0.1-0.1-0.1c-0.2-0.1-0.4,0-0.5,0.1c0,0-0.1,0.1-0.1,0.1
					c0,0,0,0,0,0c0,0,0,0,0,0c0,0-0.1,0-0.1,0c0,0-0.1,0-0.1,0.1c0,0,0,0-0.1,0c0.1,0,0,0,0,0c0,0-0.1,0-0.1,0c0,0-0.1,0-0.1,0
					c-0.1,0,0.1,0,0,0c-0.1,0-0.2,0-0.3,0c-0.1,0-0.2,0-0.3,0.1c0,0-0.1,0.1-0.1,0.2C77.6,91.7,77.9,91.7,78,91.7L78,91.7z"/>
			</g>
		</g>
		<g>
			<path d="M80.8,90.9c0.5-0.2,1-0.4,1.5-0.8"/>
			<g>
				<path d="M81,91c0.6-0.2,1.1-0.5,1.6-0.8c0,0,0.1-0.1,0.1-0.1c0-0.1-0.1-0.1-0.1-0.1c-0.2,0-0.4,0-0.5,0.1
					c-0.1,0-0.1,0.1-0.2,0.1c0.1,0,0,0,0,0c0,0,0,0-0.1,0c-0.1,0.1-0.2,0.1-0.4,0.2c-0.1,0-0.1,0.1-0.2,0.1c0.1,0,0,0,0,0
					c0,0-0.1,0-0.1,0c-0.1,0.1-0.3,0.1-0.4,0.1c-0.1,0-0.3,0.1-0.2,0.3C80.6,91.1,80.9,91.1,81,91L81,91z"/>
			</g>
		</g>
		<path class="st4" d="M33.1,113.7c-0.5-0.7-1.1-1.4-2-1.7c-1-0.4-2.2,0-3.2-0.2c-1.2-0.2-2.2-1.1-2.7-2.2s-0.8-2.3-0.9-3.5
			c0-0.5-0.1-1,0.1-1.5c0.2-0.4,0.5-0.7,0.7-1.1c1-1.5,1.2-3.5,0.4-5.2c-0.9-1.8-2.1-3-1-5.1c0.8-1.5,2.3-2.5,3.7-3.5
			c0.8-0.5,1.6-1.1,2.4-1.6c0.6-0.4,1.3-0.9,2-1.1c0.9-0.3,1.8-0.4,2.7-0.1c1.2,0.3,2.4,1,3.4,0.4c0.5-0.3,0.8-0.7,1.2-1.1
			c1.6-1.6,4.3-2,6.3-0.9c1,0.5,1.7,1.4,2.2,2.3c0.6,1.1,0.2,2.2,0.5,3.3c0.2,0.5,3,1,3.6,1.3c1.1,0.5,2.2,1.3,2.8,2.5
			c0.6,1.1,0.7,2.5,0.2,3.7c-0.5,1.5,0.5,2.7,1,4.2c0.6,1.7,0.8,3.6,0.5,5.4c-0.4,2.6-2.3,5-4.9,5.6c-2.4,0.5-5-0.7-7.4,0
			c-2.3,0.6-3.9,2.8-6.2,3.3c-1.6,0.4-3.4-0.1-4.5-1.3C33.9,114.9,33.5,114.3,33.1,113.7z"/>
		<path class="st4" d="M38.1,99.7c-0.2,0.3-0.3,0.7-0.3,1.1c0.1,1.3,0.7,2.7,2.2,3.1c2.8,0.6,4.1-1.9,2.9-4.2
			C42,97.9,39,98.3,38.1,99.7z"/>
		<g>
			<path d="M42.5,97.6c0-0.6,0.1-1.1,0.4-1.6"/>
			<g>
				<path d="M42.8,97.5c0-0.6,0.1-1.1,0.4-1.6c0,0,0-0.1-0.1-0.1c-0.1,0-0.2,0-0.2,0c-0.2,0-0.3,0.1-0.4,0.2
					c-0.3,0.5-0.5,1.1-0.4,1.6c0,0,0.1,0.1,0.1,0.1c0.1,0,0.2,0,0.3,0C42.6,97.7,42.8,97.7,42.8,97.5L42.8,97.5z"/>
			</g>
		</g>
		<g>
			<path d="M43.4,94.5c0.1-0.4,0.2-0.9,0.5-1.2"/>
			<g>
				<path d="M43.8,94.5c0-0.1,0-0.2,0.1-0.3c0-0.1,0-0.1,0.1-0.2c0,0,0,0,0-0.1c0,0,0,0,0,0c0,0,0,0,0,0c0.1-0.2,0.2-0.4,0.3-0.6
					c0.1-0.1-0.1-0.3-0.2-0.3c-0.2,0-0.4,0.1-0.5,0.2c-0.2,0.4-0.4,0.8-0.5,1.3c0,0.2,0.2,0.2,0.3,0.2
					C43.5,94.8,43.7,94.7,43.8,94.5L43.8,94.5z"/>
			</g>
		</g>
		<g>
			<path d="M45.3,91.2c0.2-0.5,0.6-0.8,1-1"/>
			<g>
				<path d="M45.7,91.1c0-0.1,0.1-0.2,0.2-0.3c0,0,0,0,0-0.1c0,0,0,0,0,0c0,0,0,0,0,0c0,0,0.1-0.1,0.1-0.1c0,0,0.1-0.1,0.1-0.1
					c0,0,0,0,0.1-0.1c0,0,0,0,0,0c0,0,0,0,0,0c0,0,0,0,0,0c0,0,0.1-0.1,0.1-0.1c0,0,0.1,0,0,0c0,0,0,0,0,0c0,0,0.1,0,0.1,0
					c0,0,0.1-0.1,0.1-0.1c0,0,0-0.1-0.1-0.1c-0.2,0-0.4,0-0.5,0.1c-0.5,0.2-0.9,0.6-1.2,1.1c-0.1,0.1,0.2,0.1,0.3,0.1
					c0.1,0,0.2,0,0.3-0.1C45.6,91.2,45.7,91.2,45.7,91.1L45.7,91.1z"/>
			</g>
		</g>
		<g>
			<path d="M47.3,89.6c0.3-0.1,0.5-0.3,0.8-0.4"/>
			<g>
				<path d="M47.5,89.7c0.3-0.1,0.5-0.3,0.8-0.4c0,0,0.1-0.1,0.1-0.1c0-0.1,0-0.1-0.1-0.1c-0.2-0.1-0.4,0-0.5,0.1
					c-0.3,0.1-0.5,0.3-0.8,0.4c0,0-0.1,0.1-0.1,0.1c0,0.1,0,0.1,0.1,0.1C47.2,89.8,47.4,89.7,47.5,89.7L47.5,89.7z"/>
			</g>
		</g>
		<g>
			<path d="M36.9,101.6c-0.5-0.2-1.1-0.4-1.6-0.7"/>
			<g>
				<path d="M37.2,101.4c-0.5-0.2-1-0.4-1.5-0.6c-0.1-0.1-0.3,0-0.5,0c0,0-0.3,0.2-0.2,0.2c0.5,0.3,1.1,0.5,1.6,0.7
					c0.2,0.1,0.4,0,0.5-0.1C37.2,101.6,37.4,101.5,37.2,101.4L37.2,101.4z"/>
			</g>
		</g>
		<g>
			<path d="M33.9,100.6c-0.4,0-0.8-0.2-1.1-0.5"/>
			<g>
				<path d="M34.1,100.3c-0.1,0-0.1,0-0.2,0c-0.1,0-0.1,0-0.2,0c0.1,0,0.1,0,0,0c0,0,0,0,0,0c0,0,0,0-0.1,0c0,0-0.1,0-0.1,0
					s-0.1,0-0.1-0.1c0,0,0,0,0,0c0,0,0,0,0,0c0,0,0,0-0.1,0c-0.1-0.1-0.2-0.1-0.3-0.2c-0.1-0.1-0.2-0.1-0.2-0.1
					c-0.1,0-0.2,0-0.3,0.1c-0.1,0.1-0.2,0.3,0,0.4c0.4,0.3,0.8,0.5,1.3,0.5c0.1,0,0.2,0,0.3,0c0.1,0,0.2-0.1,0.2-0.2
					c0-0.1,0-0.2,0-0.2C34.2,100.3,34.1,100.3,34.1,100.3L34.1,100.3z"/>
			</g>
		</g>
		<g>
			<path d="M30.9,99.4c-0.5,0-1,0-1.4-0.1"/>
			<g>
				<path d="M31.1,99.3c-0.1,0-0.1,0-0.2,0c0,0,0,0,0,0c0,0,0,0,0,0c0,0-0.1,0-0.1,0c-0.1,0-0.2,0-0.3,0c-0.1,0-0.2,0-0.3,0
					c-0.1,0-0.2,0-0.4-0.1c-0.2,0-0.4,0-0.5,0.1c-0.1,0-0.3,0.1-0.1,0.2c0.5,0.1,1,0.1,1.6,0.1c0.1,0,0.2,0,0.3-0.1
					c0.1,0,0.2-0.1,0.2-0.1C31.4,99.3,31.1,99.3,31.1,99.3L31.1,99.3z"/>
			</g>
		</g>
		<g>
			<path d="M28.2,99.6c-0.3,0-0.6,0-0.9,0.2"/>
			<g>
				<path d="M28.3,99.3c-0.2,0-0.4,0-0.6,0c-0.2,0-0.4,0.1-0.6,0.2c-0.1,0-0.1,0.1-0.1,0.2c0,0.1,0,0.1,0.1,0.2c0.1,0,0.2,0.1,0.2,0
					c0.1,0,0.2,0,0.3-0.1c-0.1,0.1,0,0,0,0c0,0,0.1,0,0.1,0c0,0,0,0-0.1,0c0,0,0,0,0,0c0,0,0,0,0,0c0,0,0.1,0,0.1,0c0.1,0-0.1,0,0,0
					c0,0,0,0,0.1,0c0,0,0.1,0,0.1,0c0,0,0,0,0,0c0,0,0,0-0.1,0c0,0,0,0,0.1,0c0,0,0.1,0,0.1,0c0.1,0,0.2,0,0.3-0.1
					c0.1,0,0.2-0.1,0.2-0.2c0-0.1,0-0.1,0-0.2C28.5,99.4,28.4,99.3,28.3,99.3L28.3,99.3z"/>
			</g>
		</g>
		<g>
			<path d="M34.9,89.2c0.1,0.4,0.3,0.8,0.4,1.3"/>
			<g>
				<path d="M34.6,89.3c0.1,0.4,0.3,0.8,0.4,1.3c0,0.1,0.2,0.1,0.3,0.1c0.1,0,0.1,0,0.2-0.1c0,0,0.1-0.1,0.1-0.1
					c-0.1-0.4-0.3-0.8-0.4-1.3c0-0.1-0.2-0.1-0.3-0.1c-0.1,0-0.1,0-0.2,0.1C34.6,89.2,34.6,89.2,34.6,89.3L34.6,89.3z"/>
			</g>
		</g>
		<g>
			<path d="M35.9,92.2c0.1,0.4,0.3,0.8,0.6,1"/>
			<g>
				<path d="M35.6,92.3c0.1,0.4,0.3,0.8,0.6,1.1c0,0,0.1,0,0.2,0c0.1,0,0.2,0,0.2-0.1c0,0,0.3-0.1,0.2-0.2c0,0-0.1-0.1-0.1-0.1
					c0,0,0,0,0,0c-0.2-0.3-0.4-0.6-0.5-0.9c0,0-0.1,0-0.1,0c-0.1,0-0.2,0-0.2,0C35.8,92.1,35.8,92.1,35.6,92.3
					C35.7,92.2,35.6,92.2,35.6,92.3L35.6,92.3z"/>
			</g>
		</g>
		<g>
			<path d="M37.1,94.9c0.3,0.3,0.7,0.7,1,1"/>
			<g>
				<path d="M36.8,95c0.3,0.3,0.7,0.7,1,1c0,0,0.1,0,0.2,0c0.1,0,0.2,0,0.2,0c0.1,0,0.3-0.1,0.2-0.2c-0.3-0.3-0.7-0.7-1-1
					c0,0-0.1,0-0.2,0c-0.1,0-0.2,0-0.2,0C36.9,94.8,36.7,94.9,36.8,95L36.8,95z"/>
			</g>
		</g>
		<g>
			<path d="M38.9,97.3c0.1,0.1,0.2,0.1,0.3,0.2"/>
			<g>
				<path d="M38.7,97.4c0.1,0.1,0.2,0.1,0.3,0.2c0,0,0.1,0,0.1,0c0,0,0.1,0,0.1,0c0,0,0.1,0,0.1,0c0,0,0.1,0,0.1-0.1c0,0,0,0,0.1,0
					c0,0,0-0.1,0.1-0.1c0,0,0,0,0,0c0,0,0-0.1-0.1-0.1c-0.1-0.1-0.2-0.1-0.3-0.2c0,0-0.1,0-0.1,0c0,0-0.1,0-0.1,0c0,0-0.1,0-0.1,0
					c0,0-0.1,0-0.1,0.1c0,0,0,0-0.1,0c0,0,0,0.1-0.1,0.1C38.6,97.3,38.6,97.3,38.7,97.4C38.6,97.4,38.7,97.4,38.7,97.4L38.7,97.4z"
					/>
			</g>
		</g>
		<g>
			<path d="M33.8,111.4c0.3-0.2,0.6-0.5,0.9-0.7"/>
			<g>
				<path d="M34.1,111.4c0.3-0.2,0.6-0.5,0.9-0.7c0,0,0.1-0.1,0.1-0.1c0-0.1-0.1-0.1-0.1-0.1c-0.2,0-0.4,0-0.5,0.1
					c-0.3,0.2-0.6,0.5-0.9,0.7c0,0-0.1,0.1-0.1,0.1c0,0.1,0.1,0.1,0.1,0.1C33.7,111.6,34,111.5,34.1,111.4L34.1,111.4z"/>
			</g>
		</g>
		<g>
			<path d="M35.8,109.2c0.3-0.3,0.5-0.5,0.8-0.8"/>
			<g>
				<path d="M36.1,109.3c0.3-0.3,0.5-0.5,0.8-0.8c0-0.1,0.1-0.1,0.1-0.2c0-0.1-0.1-0.1-0.2-0.2c-0.1,0-0.2,0-0.3,0
					c-0.1,0-0.2,0.1-0.2,0.1c-0.3,0.3-0.5,0.5-0.8,0.8c0,0.1-0.1,0.1-0.1,0.2c0,0.1,0.1,0.1,0.2,0.2c0.1,0,0.2,0,0.3,0
					C36,109.4,36,109.4,36.1,109.3L36.1,109.3z"/>
			</g>
		</g>
		<g>
			<path d="M38.1,106.8c0.2-0.4,0.4-0.7,0.6-1.1"/>
			<g>
				<path d="M38.5,106.9c0.2-0.4,0.4-0.7,0.6-1.1c0-0.1,0-0.2,0-0.2c0-0.1-0.1-0.1-0.2-0.1c-0.2,0-0.4,0.1-0.5,0.2
					c-0.2,0.4-0.4,0.7-0.6,1.1c0,0.1,0,0.2,0,0.2c0,0.1,0.1,0.1,0.2,0.1C38.2,107.1,38.4,107.1,38.5,106.9L38.5,106.9z"/>
			</g>
		</g>
		<g>
			<path d="M39.4,104.7c0.1-0.1,0.2-0.3,0.3-0.4"/>
			<g>
				<path d="M39.7,104.7c0.1-0.1,0.2-0.3,0.3-0.4c0,0,0,0,0-0.1c0,0,0,0-0.1,0c0,0-0.1,0-0.1,0c0,0-0.1,0-0.1,0
					c-0.1,0-0.2,0-0.3,0.1c-0.1,0-0.1,0.1-0.1,0.1c-0.1,0.1-0.2,0.3-0.3,0.4c0,0,0,0,0,0.1c0,0,0,0,0.1,0c0,0,0.1,0,0.1,0
					c0,0,0.1,0,0.1,0c0.1,0,0.2,0,0.3-0.1C39.6,104.7,39.7,104.7,39.7,104.7L39.7,104.7z"/>
			</g>
		</g>
		<g>
			<path d="M44.7,101.6c0.4-0.2,0.8-0.3,1.2-0.2"/>
			<g>
				<path d="M44.9,101.7c0,0,0.1,0,0.1-0.1c0,0,0,0,0.1,0c0,0,0,0,0,0c-0.1,0-0.1,0,0,0c0,0,0.1,0,0.1,0c0,0,0.1,0,0.1,0
					c0,0,0,0-0.1,0c0,0,0,0,0,0c0,0,0.1,0,0.1,0c0,0,0.1,0,0.1,0c-0.1,0-0.1,0,0,0c0,0,0,0,0,0c0.1,0,0.1,0,0.2,0c0,0,0,0,0.1,0
					c0,0,0,0,0,0c0,0-0.1,0,0,0c0.1,0,0.2,0,0.3,0c0.1,0,0.2-0.1,0.2-0.1c0,0,0.1-0.1,0.1-0.2c0-0.1-0.1-0.1-0.1-0.1
					c-0.5-0.1-1.1,0-1.6,0.3c-0.1,0-0.2,0.1-0.2,0.1c0,0,0,0.1,0,0.1C44.5,101.8,44.8,101.8,44.9,101.7L44.9,101.7z"/>
			</g>
		</g>
		<g>
			<path d="M47.4,101.2c0.4,0.1,0.7,0.1,1.1,0.2"/>
			<g>
				<path d="M47.2,101.3c0.4,0.1,0.7,0.1,1.1,0.2c0.1,0,0.2,0,0.3,0c0.1,0,0.2-0.1,0.2-0.1c0,0,0.1-0.1,0.1-0.1
					c0-0.1-0.1-0.1-0.1-0.1c-0.4-0.1-0.7-0.1-1.1-0.2c-0.1,0-0.2,0-0.3,0c-0.1,0-0.2,0.1-0.2,0.1c0,0-0.1,0.1-0.1,0.1
					C47.1,101.3,47.1,101.3,47.2,101.3L47.2,101.3z"/>
			</g>
		</g>
		<g>
			<path d="M50.7,101.6c0.4,0.1,0.7,0.1,1.1,0.2"/>
			<g>
				<path d="M50.4,101.7c0.4,0.1,0.7,0.1,1.1,0.2c0.1,0,0.2,0,0.3,0c0.1,0,0.2-0.1,0.2-0.1c0,0,0.1-0.1,0.1-0.1
					c0-0.1-0.1-0.1-0.1-0.1c-0.4-0.1-0.7-0.1-1.1-0.2c-0.1,0-0.2,0-0.3,0c-0.1,0-0.2,0.1-0.2,0.1c0,0-0.1,0.1-0.1,0.1
					C50.3,101.7,50.4,101.7,50.4,101.7L50.4,101.7z"/>
			</g>
		</g>
		<g>
			<path d="M48.9,112.4c-0.1-0.3-0.2-0.7-0.4-0.9"/>
			<g>
				<path d="M49.3,112.3c-0.1-0.4-0.2-0.7-0.4-1c0,0-0.1,0-0.2,0c-0.1,0-0.2,0-0.3,0.1c-0.1,0-0.2,0.1-0.2,0.1c0,0,0,0.1,0,0.1
					c0,0,0.1,0.1,0.1,0.1c0,0,0,0,0,0c0.2,0.2,0.3,0.5,0.3,0.8c0,0.1,0.1,0.1,0.1,0.1c0.1,0,0.2,0,0.3,0c0.1,0,0.2-0.1,0.2-0.1
					C49.2,112.4,49.3,112.4,49.3,112.3L49.3,112.3z"/>
			</g>
		</g>
		<g>
			<path d="M47.6,110.1c-0.3-0.4-0.6-0.8-0.8-1.2"/>
			<g>
				<path d="M47.9,110c-0.3-0.4-0.6-0.8-0.8-1.2c0-0.1-0.1-0.1-0.2-0.1c-0.1,0-0.2,0-0.3,0.1c-0.1,0.1-0.3,0.2-0.2,0.3
					c0.3,0.4,0.6,0.8,0.8,1.2c0,0.1,0.1,0.1,0.2,0.1c0.1,0,0.2,0,0.3-0.1C47.9,110.2,48,110.1,47.9,110L47.9,110z"/>
			</g>
		</g>
		<g>
			<path d="M45.5,107.3c-0.2-0.4-0.5-0.8-0.8-1.2"/>
			<g>
				<path d="M45.9,107.2c-0.2-0.5-0.5-0.9-0.8-1.3c-0.1-0.1-0.3-0.1-0.5,0c-0.1,0.1-0.3,0.2-0.2,0.3c0.3,0.3,0.5,0.6,0.7,1
					c0,0,0,0,0-0.1c0,0.1,0.1,0.2,0.1,0.2c0.1,0.2,0.3,0.2,0.4,0.1c0.1,0,0.2-0.1,0.2-0.1C45.8,107.3,45.9,107.3,45.9,107.2
					L45.9,107.2z"/>
			</g>
		</g>
		<g>
			<path d="M43.7,105c-0.2-0.3-0.4-0.5-0.5-0.8"/>
			<g>
				<path d="M44.1,104.9c-0.2-0.3-0.4-0.5-0.5-0.8c0-0.1-0.1-0.1-0.2-0.1c-0.1,0-0.2,0-0.3,0.1c-0.1,0.1-0.3,0.2-0.2,0.4
					c0.2,0.3,0.4,0.5,0.5,0.8c0,0.1,0.1,0.1,0.2,0.1c0.1,0,0.2,0,0.3-0.1C44,105.2,44.2,105,44.1,104.9L44.1,104.9z"/>
			</g>
		</g>
		<g>
			<path d="M53.5,102.3c0.5,0,1,0.1,1.4,0.4"/>
			<g>
				<path d="M53.4,102.5c0.1,0,0.1,0,0.2,0c0,0,0,0,0.1,0c0,0,0.1,0,0,0c0.1,0,0.2,0,0.3,0.1c0,0,0.1,0,0.1,0c0,0,0,0,0,0
					c0,0,0,0,0,0c0.1,0,0.1,0,0.2,0.1c0.1,0.1,0.2,0.1,0.3,0.2c0.1,0,0.2,0,0.2,0c0.1,0,0.2,0,0.3-0.1c0.1-0.1,0.2-0.2,0.1-0.3
					c-0.4-0.3-1-0.4-1.5-0.4c-0.1,0-0.2,0-0.3,0.1c-0.1,0-0.2,0.1-0.2,0.1C53.1,102.4,53.2,102.5,53.4,102.5L53.4,102.5z"/>
			</g>
		</g>
		<path class="st4" d="M49.3,88.4c0.1-0.3,0.1-0.5,0.2-0.8c0.2-1.4,0.5-2.7,1-4c1.8-4.2,5.5-5.2,9.5-3.4c1.8,0.8,4,0.8,5.8-0.1
			c1.7-0.8,2.8-1.8,4.8-0.9c1.9,0.9,1.7,2.8,1.4,4.5c-0.4,2.2-0.3,3.4,0.7,5.4c1.6,3.4,6.9,5.6,5.8,9.9c-1.1,4.2-6.4,0.7-8.7,1.5
			c-1.4,0.5-2.5,1.6-3.5,2.5c-1.5,1.2-3,1.8-4.8,2.4c-0.8,0.2-2.2,0.7-3,0.1c-2.1-1.6-0.2-5.5-3.7-6.3c-0.5-0.1-1-0.1-1.5-0.2
			c-1.8-0.3-3.6-2.1-4.5-3.6C47.5,93.1,48.7,90.8,49.3,88.4z"/>
		<path class="st4" d="M62.9,94.5c1.1,0,2.3-1,2.9-2c1.7-2.9-2.6-3.5-4.3-2.3c-1.4,0.9-0.9,3,0.3,3.9C62.1,94.4,62.5,94.5,62.9,94.5
			z"/>
		<g>
			<path d="M64.1,95c0.2,0.2,0.4,0.5,0.7,0.7"/>
			<g>
				<path d="M63.8,95.2c0.2,0.2,0.4,0.5,0.7,0.7c0.1,0.1,0.1,0.1,0.2,0.1c0.1,0,0.2,0,0.3,0c0.1,0,0.2-0.1,0.2-0.2
					c0-0.1,0-0.2,0-0.2c-0.2-0.2-0.4-0.5-0.7-0.7c-0.1-0.1-0.1-0.1-0.2-0.1c-0.1,0-0.2,0-0.3,0c-0.1,0-0.2,0.1-0.2,0.2
					C63.7,95,63.7,95.1,63.8,95.2L63.8,95.2z"/>
			</g>
		</g>
		<g>
			<path d="M65.4,97.4c0,0.4,0.1,0.8,0.3,1.2"/>
			<g>
				<path d="M65,97.5c0,0.4,0.1,0.8,0.3,1.2c0.1,0.2,0.3,0.2,0.4,0.1c0.1,0,0.2-0.1,0.2-0.1c0,0,0.1-0.1,0.1-0.2
					c-0.2-0.4-0.3-0.8-0.3-1.2c0-0.1-0.1-0.1-0.1-0.1c-0.1,0-0.2,0-0.3,0c-0.1,0-0.2,0.1-0.2,0.1C65.1,97.4,65,97.4,65,97.5L65,97.5
					z"/>
			</g>
		</g>
		<g>
			<path d="M65.9,99.8c0,0.5,0,1,0,1.5"/>
			<g>
				<path d="M65.5,99.8c0,0.5,0,1,0,1.5c0,0.1,0,0.1,0.1,0.1c0.1,0,0.2,0,0.2,0c0.1,0,0.2,0,0.3-0.1c0,0,0.1-0.1,0.1-0.2
					c0-0.5,0-1,0-1.5c0-0.1,0-0.1-0.1-0.1c-0.1,0-0.2,0-0.2,0c-0.1,0-0.2,0-0.3,0.1C65.6,99.7,65.5,99.7,65.5,99.8L65.5,99.8z"/>
			</g>
		</g>
		<g>
			<path d="M67.1,91.1c0.5,0,0.9,0,1.4,0"/>
			<g>
				<path d="M67,91.3c0.5,0,0.9,0,1.4,0c0.1,0,0.2,0,0.3-0.1c0.1,0,0.2-0.1,0.2-0.1c0.1-0.1-0.1-0.2-0.2-0.2c-0.5,0-0.9,0-1.4,0
					c-0.1,0-0.2,0-0.3,0.1c-0.1,0-0.2,0.1-0.2,0.1C66.7,91.2,66.8,91.3,67,91.3L67,91.3z"/>
			</g>
		</g>
		<g>
			<path d="M64.3,88.4c-0.1-0.8,0-1.6,0.3-2.3"/>
			<g>
				<path d="M64.7,88.3c-0.1-0.7,0-1.5,0.3-2.2c0.1-0.4-0.6-0.4-0.7-0.1c-0.3,0.8-0.4,1.6-0.3,2.5c0,0.1,0.1,0.1,0.2,0.1
					c0.1,0,0.2,0,0.3,0C64.5,88.6,64.7,88.4,64.7,88.3L64.7,88.3z"/>
			</g>
		</g>
		<g>
			<path d="M64.9,84.6c0.2-0.4,0.5-0.8,0.8-1.2"/>
			<g>
				<path d="M65.3,84.5c0.2-0.4,0.4-0.8,0.8-1.2c0,0,0.1-0.1,0-0.1c0,0-0.1,0-0.2,0c-0.1,0-0.2,0-0.3,0.1c-0.1,0-0.2,0.1-0.2,0.1
					c-0.3,0.4-0.6,0.8-0.8,1.2c0,0.1,0.2,0.1,0.3,0.1c0.1,0,0.2,0,0.3-0.1C65.2,84.6,65.2,84.6,65.3,84.5L65.3,84.5z"/>
			</g>
		</g>
		<g>
			<path d="M66.6,81.2c0.3-0.5,0.7-1,1.1-1.4"/>
			<g>
				<path d="M67,81.1c0.3-0.5,0.6-0.9,1-1.3c0.1-0.1-0.1-0.1-0.2-0.1c-0.2,0-0.4,0.1-0.5,0.2c-0.4,0.4-0.8,0.9-1.1,1.4
					c0,0,0,0.1,0.1,0.1c0.1,0,0.2,0,0.2,0c0.1,0,0.2,0,0.3-0.1C66.9,81.2,66.9,81.1,67,81.1L67,81.1z"/>
			</g>
		</g>
		<g>
			<path d="M58.2,80.7c0,0.7,0,1.4,0,2.1"/>
			<g>
				<path d="M57.9,80.7c0,0.7,0,1.4,0,2.1c0,0.2,0.2,0.2,0.3,0.2c0.1,0,0.4-0.1,0.4-0.3c0-0.7,0-1.4,0-2.1c0-0.2-0.2-0.2-0.3-0.2
					C58.1,80.5,57.9,80.5,57.9,80.7L57.9,80.7z"/>
			</g>
		</g>
		<g>
			<path d="M58.2,84.4c0,0.4,0.1,0.8,0.4,1.1"/>
			<g>
				<path d="M57.9,84.4c0,0.4,0.1,0.8,0.4,1.2c0,0,0.1,0.1,0.2,0.1c0.1,0,0.2,0,0.3-0.1c0.1,0,0.3-0.1,0.2-0.3
					c-0.1-0.1-0.1-0.1-0.1-0.2c0,0,0,0,0,0c-0.2-0.3-0.2-0.6-0.2-0.9c0,0,0,0,0,0c0,0,0,0,0,0c0-0.1,0-0.1-0.1-0.1
					c-0.1,0-0.2,0-0.2,0c-0.1,0-0.2,0-0.3,0.1C58,84.3,57.9,84.4,57.9,84.4L57.9,84.4z"/>
			</g>
		</g>
		<g>
			<path d="M58.7,87.8c0,0.8,0.5,1.6,1.1,2"/>
			<g>
				<path d="M58.3,87.8c0,0.9,0.5,1.7,1.2,2.2c0.1,0.1,0.4,0.1,0.5,0c0.1-0.1,0.2-0.3,0-0.4c-0.6-0.4-1-1.1-1.1-1.9
					c0-0.2-0.2-0.2-0.3-0.2C58.6,87.5,58.3,87.6,58.3,87.8L58.3,87.8z"/>
			</g>
		</g>
		<g>
			<path d="M51,90.8c0.6,0.1,1.1,0.3,1.6,0.7"/>
			<g>
				<path d="M50.8,91c0.1,0,0.1,0,0.2,0c0,0,0.1,0,0.1,0c0,0,0,0,0.1,0c0,0,0,0,0,0c0.1,0,0.3,0.1,0.4,0.1c0.3,0.1,0.5,0.2,0.7,0.4
					c0.1,0.1,0.3,0,0.5,0c0.1,0,0.3-0.2,0.2-0.3c-0.5-0.4-1.1-0.6-1.7-0.7c-0.2,0-0.4,0-0.5,0.1c0,0-0.1,0.1-0.1,0.1
					C50.7,91,50.7,91,50.8,91L50.8,91z"/>
			</g>
		</g>
		<g>
			<path d="M55.3,92.4c0.2,0,0.5,0,0.7,0"/>
			<g>
				<path d="M55.1,92.6c0.2,0,0.5,0,0.7,0c0.1,0,0.2,0,0.3-0.1c0.1,0,0.2-0.1,0.2-0.1c0,0,0-0.1,0-0.2c-0.1,0-0.1-0.1-0.2-0.1
					c-0.2,0-0.5,0-0.7,0c-0.1,0-0.2,0-0.3,0.1c-0.1,0-0.2,0.1-0.2,0.1c0,0,0,0.1,0,0.2C55,92.6,55.1,92.6,55.1,92.6L55.1,92.6z"/>
			</g>
		</g>
		<g>
			<path d="M58.8,92.7c0.4,0.1,0.9,0,1.3-0.1"/>
			<g>
				<path d="M58.7,93c0.5,0.1,1,0,1.5-0.1c0.1,0,0.2-0.1,0.2-0.1c0,0,0.1-0.1,0.1-0.2c-0.1-0.2-0.3-0.1-0.4-0.1c-0.1,0-0.1,0-0.2,0
					c0,0-0.1,0-0.1,0c0.1,0,0.1,0,0,0c0,0,0,0,0,0c-0.1,0-0.2,0-0.3,0c0,0-0.1,0-0.1,0c0.1,0,0.1,0,0,0c0,0,0,0,0,0
					c-0.1,0-0.1,0-0.2,0c-0.1,0-0.2,0-0.3,0c-0.1,0-0.2,0-0.3,0.1c-0.1,0-0.2,0.1-0.2,0.2c0,0.1,0,0.1,0,0.2
					C58.6,92.9,58.6,93,58.7,93L58.7,93z"/>
			</g>
		</g>
		<g>
			<path d="M69.7,90.9c0.5-0.2,1-0.4,1.5-0.6"/>
			<g>
				<path d="M69.8,91c0.5-0.2,1-0.4,1.5-0.6c0,0,0.3-0.1,0.2-0.2c0,0-0.1,0-0.2,0c-0.1,0-0.2,0-0.3,0.1c-0.5,0.2-1,0.4-1.5,0.6
					c0,0-0.3,0.1-0.2,0.2c0,0,0.1,0,0.2,0C69.6,91,69.7,91,69.8,91L69.8,91z"/>
			</g>
		</g>
	</g>
	<g>
		<path class="st5" d="M31.6,88.2C31.6,88.2,31.6,88.2,31.6,88.2c0-0.6-0.1-1.1-0.2-1.7c-0.7-3.7,1.3-7.8,4.6-9.6
			c0.3-0.2,0.6-0.3,0.8-0.5c0.2-0.3,0.3-0.7,0.5-1c0.2-0.5,0.7-0.9,1.1-1.1c0.3-0.1,0.6-0.2,0.9-0.4c0.3-0.3,0.4-0.7,0.5-1.1
			c0.5-1.3,1.9-2,3.3-2c0.8,0,1.6,0.2,2.4,0.1c0.9-0.1,1.8-0.7,2.6-1.1c1.4-0.7,2.9-1.2,4.4-1.5c1.5-0.3,3.4-0.3,4.6,0.9
			c0.5,0.5,0.6,1,1.4,1.2c0.6,0.1,1.4,0,1.8,0.4c0.7,0.7-0.3,1.1-0.2,1.7c0.1,0.6,0.8,1.2,1.2,1.6c0.5,0.5,1,1.1,1.4,1.7
			c0.7,1.3,0.9,2.9,0.3,4.3c-0.1,0.2-0.3,0.5-0.3,0.7c-0.1,0.3,0,0.6,0,0.8c0.2,1.8,0.4,3.6-0.1,5.3c-0.3,0.9-0.9,1.7-1.6,2.2
			c-0.4,0.3-0.8,0.5-1.2,0.6c-0.3,0.1-1.1-0.1-1.2,0.3c-0.5,1.1-0.7,2.5-1.3,3.6c-0.6,1.2-1.5,2.4-2.7,3.1c-1.4,0.9-3.3,1-4.8,0.4
			c-0.2-0.1-0.5-0.2-0.7-0.2c-0.3,0-0.6,0.1-0.9,0.2c-1.4,0.5-2.8,1.1-4.3,1.2c-1.5,0-3.1-0.7-3.6-2.2c-1.6,0-3.3-0.1-4.9-0.6
			c-1.6-0.5-3.1-1.5-3.7-3c-0.4-0.8-0.5-1.8-0.3-2.7C31.4,89.3,31.6,88.8,31.6,88.2z"/>
		<path class="st5" d="M72.7,118.3c0,0,0.1,0,0.1,0c0.6,0.2,1.2,0.4,1.9,0.6c2.8,0.9,5.8,0,8.3-1.4c2.5-1.4,4.7-3.5,5.4-6.3
			c0.2-0.8,0.3-1.7,0.7-2.3c0.6-0.9,1.9-1.2,2.6-2c1-1.1,0.9-2.9,0.7-4.4c-0.2-1.6-0.5-3.4-1.6-4.6c-0.6-0.7-1.5-1.1-2.3-1.5
			c-2-1-4.3-2.1-6.5-1.4c-0.3,0.1-0.6,0.2-0.9,0.2c-0.3,0-0.6-0.1-0.9-0.2c-2.2-0.8-4.5-1.1-6.8-1.1c-0.8,0-1.7,0.1-2.4,0.5
			c-0.6,0.3-0.8,0.8-1.1,1.4c-0.3,0.7-0.3,0.8-1,1.3c-1.2,0.9-2.3,1.9-3.1,3.1c-1,1.5-1.4,3.5-0.6,5.2c0.1,0.3,0.3,0.6,0.4,1
			c0.1,0.3,0.1,0.7,0.1,1.1c-0.1,2.1-0.1,4.2,0.6,6.2s2.2,3.7,4.3,4.2C71.3,118.2,72.1,118.2,72.7,118.3z"/>
		<path class="st5" d="M43.3,113.1c0.9,1.2,2.1,2.4,2.4,3.9c0.3,1.1,0,2.3,0.2,3.5c0.4,2.8,3.7,4.7,6.3,3.7c0.3-0.1,0.6-0.3,1-0.3
			c0.5,0,1,0.2,1.5,0.5c1.5,0.8,3.1,1.5,4.8,1.9c1,0.3,2.1,0.4,3.1,0.2c1-0.2,2-1,2.2-2c0.2-1.1-0.3-2.5,0.5-3.3
			c0.7-0.6,1.8-0.3,2.8-0.4c0.6-0.1,1.1-0.4,1.6-0.6c1.3-0.8,2.7-1.6,3.5-2.9c0.8-1.3,1-3.1,0-4.3c-0.9-1-2.4-1.4-2.9-2.6
			c-0.3-0.8,0-1.7,0.1-2.6c0.2-2.1-0.7-4.4-2.5-5.6c-1-0.7-2.1-1.1-3.3-1.4c-1.1-0.4-2.2-0.7-3.3-1.1c-2.2-0.7-4.9-1.4-6.7,0.1
			c-1.1,0.9-0.9,2.8-1.9,3.8c-1.1,1.1-4.3,0.8-5.9,1.2c-3.8,1.1-6.6,4.3-3.8,8C43.1,112.8,43.2,113,43.3,113.1z"/>
		<path class="st5" d="M96,99.3C96,99.3,96,99.2,96,99.3c0.3-0.3,0.8-0.5,1.1-0.7c2.8-2.1,3.4-5.5,1.9-8.6c-0.3-0.6-0.6-1.1-0.9-1.6
			c-1.2-1.8-2.1-4.6-1-6.6c0.3-0.5,0.6-0.8,0.7-1.4c0.3-1.8-1.4-3.3-2.7-4.2c-1-0.7-2.2-1.3-3.3-1.8c-0.8-0.3-1.5-0.6-2.3-0.9
			c-2.2-0.8-4.3-1.9-6.6-2.6c-2.6-0.7-5.7,0-8.1,1.2c-1.2,0.6-2.5,1.4-3.2,2.6c-0.3,0.6-0.5,1.2-0.5,1.8c0,0.6,0.3,1.1,0.2,1.7
			c-0.1,0.6-0.6,1-0.8,1.5c-0.6,1.1-1.2,2.3-1.6,3.5c-0.8,2.2-0.7,4.9,2.2,5.3c-0.4,0.8-0.4,2.2-0.3,3.1c0.1,0.9,0.5,1.7,1.1,2.3
			c1.1,1.1,2.8,1,3.7,2.2c0.7,0.9,1.3,1.7,2.1,2.5c0.9,0.9,2.3,2,3.7,2c0.8,0,1.1-0.5,1.7-0.8c0.5-0.3,0.1-0.3,0.7,0.1
			c0.3,0.2,0.6,0.6,0.8,0.8c1.1,1.1,2.3,2.2,3.8,2.8c2.2,0.9,4.1,0.1,5.7-1.6C94.8,101,95.3,100,96,99.3z"/>
		<path class="st6" d="M77.7,104.1c0.4-0.1,0.9-0.2,1.2-0.1c2.8,0.8-0.4,4-2.4,2.4C75.4,105.4,76.5,104.4,77.7,104.1z"/>
		<path class="st6" d="M84.2,83.5c-0.6,0.2-1.1,0.8-1.4,1.6c-0.4,1.2-0.2,2.3,0.7,3.3c2.2,2.4,4.2,1.9,4.7-1.4
			c0.1-0.9,0-1.7-0.7-2.4C86.5,83.4,85.2,83,84.2,83.5z"/>
		<path class="st6" d="M47.5,82.5c-0.3-0.7-0.2-1.5,0.3-2.2c0.7-1,2.2-1,3.1-0.5c1,0.6,0.9,1.4,0.7,2.4c-0.2,1-0.8,1.8-1.9,1.8
			C48.6,83.9,47.8,83.3,47.5,82.5z"/>
		<path class="st6" d="M57.9,116.1c-0.8,0-1.6-0.4-2.3-1.3c-0.8-1.3,0.5-3.3,1.9-3.7c0.9-0.2,2,0.3,2.8,0.7
			C62.6,113.1,60.3,116.1,57.9,116.1z"/>
		<g>
			<g>
				<path class="st7" d="M47.4,78.7c0-0.1,0-0.3,0-0.4c0-0.1,0-0.2-0.1-0.3c0,0,0-0.1-0.1-0.1c0,0-0.1,0-0.1-0.1c-0.1,0-0.2,0-0.3,0
					c-0.1,0-0.2,0.1-0.2,0.1c0,0,0,0,0,0.1c0,0,0,0.1,0,0.1c0.1,0.1,0.1,0.2,0.1,0.4c0,0,0,0,0-0.1c0,0.1,0,0.2,0,0.3
					c0,0.1,0,0.1,0.1,0.2c0.1,0,0.2,0.1,0.2,0.1C47.1,79,47.3,78.9,47.4,78.7L47.4,78.7z"/>
			</g>
		</g>
		<g>
			<g>
				<path class="st7" d="M47,76.2c0-0.2,0-0.5,0-0.7c0,0-0.1-0.1-0.1-0.1c-0.1,0-0.2,0-0.3,0c-0.1,0-0.2,0.1-0.2,0.1
					c0,0-0.1,0.1-0.1,0.1c0,0.2,0,0.5,0,0.7c0,0,0.1,0.1,0.1,0.1c0.1,0,0.2,0,0.3,0c0.1,0,0.2-0.1,0.2-0.1C47,76.2,47,76.2,47,76.2
					L47,76.2z"/>
			</g>
		</g>
		<g>
			<g>
				<path class="st7" d="M46.8,73.9c0-0.3,0-0.5,0-0.8c0-0.1,0-0.1-0.1-0.2c-0.1,0-0.2-0.1-0.2-0.1c-0.1,0-0.2,0-0.3,0.1
					c-0.1,0-0.1,0.1-0.1,0.2c0,0.3,0,0.5,0,0.8c0,0.1,0,0.1,0.1,0.2c0.1,0,0.2,0.1,0.2,0.1c0.1,0,0.2,0,0.3-0.1
					C46.8,74.1,46.8,74,46.8,73.9L46.8,73.9z"/>
			</g>
		</g>
		<g>
			<g>
				<path class="st7" d="M51.8,78.1c0.1-0.2,0.1-0.4,0.3-0.5c0,0,0,0,0,0c0.1-0.1,0.2-0.2,0.3-0.3c0,0,0-0.1,0-0.1c0,0-0.1,0-0.2,0
					c-0.2,0-0.3,0.1-0.5,0.2c-0.3,0.2-0.5,0.5-0.6,0.8c0,0.1,0.2,0.1,0.3,0.1c0.1,0,0.2,0,0.3-0.1C51.7,78.2,51.8,78.2,51.8,78.1
					L51.8,78.1z"/>
			</g>
		</g>
		<g>
			<g>
				<path class="st7" d="M53.2,75.6c0.1-0.2,0.2-0.4,0.4-0.6c0-0.1,0-0.1,0-0.2c0-0.1-0.1-0.1-0.2-0.1c-0.1,0-0.2,0-0.3,0.1
					c-0.1,0-0.1,0.1-0.2,0.2c-0.1,0.2-0.2,0.4-0.4,0.6c0,0.1,0,0.1,0,0.2c0,0.1,0.1,0.1,0.2,0.1c0.1,0,0.2,0,0.3-0.1
					C53,75.8,53.1,75.7,53.2,75.6L53.2,75.6z"/>
			</g>
		</g>
		<g>
			<g>
				<path class="st7" d="M55.2,72.6c0.3-0.4,0.7-0.8,1-1.1c0,0,0-0.1,0-0.1c0,0-0.1-0.1-0.2,0c-0.2,0-0.4,0.1-0.5,0.2
					c-0.3,0.4-0.7,0.8-1,1.1c0,0,0,0.1,0,0.1c0,0,0.1,0.1,0.2,0C54.9,72.8,55.1,72.7,55.2,72.6L55.2,72.6z"/>
			</g>
		</g>
		<g>
			<g>
				<path class="st7" d="M45.2,80.5c-0.6-0.1-1.3-0.3-1.9-0.4c-0.2,0-0.4,0-0.5,0.1c-0.1,0.1-0.1,0.2,0.1,0.2
					c0.6,0.1,1.3,0.3,1.9,0.4c0.2,0,0.4,0,0.5-0.1C45.4,80.7,45.3,80.6,45.2,80.5L45.2,80.5z"/>
			</g>
		</g>
		<g>
			<g>
				<path class="st7" d="M41,79.5C41.1,79.5,41,79.5,41,79.5c-0.1,0-0.1,0-0.1,0c-0.1,0-0.1,0-0.2,0c-0.1,0-0.2-0.1-0.3-0.1
					c0,0,0,0,0,0c0,0,0,0,0,0c0,0-0.1,0-0.1,0c-0.1,0-0.1,0-0.2-0.1c-0.1,0-0.2-0.1-0.3-0.2c-0.1,0-0.2,0-0.2,0
					c-0.1,0-0.2,0-0.3,0.1c-0.1,0.1-0.2,0.2-0.1,0.3c0.5,0.3,1,0.4,1.5,0.5c0.1,0,0.2,0,0.3-0.1c0.1,0,0.2-0.1,0.2-0.1
					c0-0.1,0-0.1,0-0.2C41.2,79.5,41.1,79.5,41,79.5L41,79.5z"/>
			</g>
		</g>
		<g>
			<g>
				<path class="st7" d="M37.6,78c0,0-0.1,0-0.1,0c0,0,0,0-0.1,0c0,0-0.1,0,0,0c-0.1,0-0.2,0-0.3,0c0,0,0.1,0,0.1,0
					c-0.1,0-0.2-0.1-0.3-0.1c0,0,0,0,0.1,0c0,0,0,0-0.1,0c-0.1,0-0.2-0.1-0.2-0.1c-0.1,0-0.2,0-0.3,0.1c-0.1,0-0.1,0.1-0.1,0.2
					c0,0.1,0,0.1,0.1,0.2c0.4,0.2,0.8,0.3,1.2,0.2c0.1,0,0.2,0,0.3-0.1c0.1,0,0.1-0.1,0.1-0.2C37.9,78.1,37.7,78,37.6,78L37.6,78z"
					/>
			</g>
		</g>
		<g>
			<g>
				<path class="st8" d="M39.1,95.9c0-0.4,0-0.7,0-1.1c0-0.1-0.1-0.1-0.1-0.1c-0.1,0-0.2,0-0.3,0c-0.1,0-0.2,0.1-0.2,0.1
					c0,0,0,0,0,0.1c0,0,0,0.1,0,0.1c0,0.4,0,0.7,0,1.1c0,0.1,0.1,0.1,0.1,0.1c0.1,0,0.2,0,0.3,0c0.1,0,0.2-0.1,0.2-0.1
					c0,0,0,0,0-0.1C39.1,95.9,39.2,95.9,39.1,95.9L39.1,95.9z"/>
			</g>
		</g>
		<g>
			<g>
				<path class="st8" d="M38.9,93.3c0-0.3,0-0.6,0-1c0,0-0.1-0.1-0.1-0.1c-0.1,0-0.2,0-0.3,0c-0.1,0-0.2,0.1-0.2,0.1
					c0,0-0.1,0.1-0.1,0.1c0,0.3,0,0.6,0,1c0,0,0.1,0.1,0.1,0.1c0.1,0,0.2,0,0.3,0c0.1,0,0.2-0.1,0.2-0.1
					C38.8,93.4,38.9,93.4,38.9,93.3L38.9,93.3z"/>
			</g>
		</g>
		<g>
			<g>
				<path class="st8" d="M38.7,90.7c0-0.4,0-0.9,0.1-1.4c0-0.2-0.2-0.2-0.3-0.2c-0.1,0-0.4,0.1-0.4,0.3c-0.1,0.5-0.1,1-0.1,1.5
					c0,0.1,0.1,0.1,0.1,0.1c0.1,0,0.2,0,0.3,0C38.6,91,38.7,90.9,38.7,90.7L38.7,90.7z"/>
			</g>
		</g>
		<g>
			<g>
				<path class="st8" d="M38.8,88.3c0-0.5,0-0.9,0-1.4c0-0.1-0.2-0.1-0.3-0.1c-0.1,0-0.2,0-0.3,0.1c0,0-0.1,0.1-0.1,0.1
					c-0.1,0.5-0.1,1-0.1,1.5c0,0,0.1,0.1,0.1,0.1c0.1,0,0.2,0,0.3,0c0.1,0,0.2-0.1,0.2-0.1C38.8,88.4,38.8,88.3,38.8,88.3L38.8,88.3
					z"/>
			</g>
		</g>
		<g>
			<g>
				<path class="st7" d="M59.7,110.2c0.2-0.8,0.5-1.6,0.8-2.3c0.1-0.1-0.2-0.2-0.3-0.1c-0.2,0-0.3,0.1-0.4,0.2
					c-0.3,0.7-0.6,1.5-0.8,2.3C58.9,110.5,59.6,110.4,59.7,110.2L59.7,110.2z"/>
			</g>
		</g>
		<g>
			<g>
				<path class="st7" d="M61.4,106c0.2-0.3,0.3-0.5,0.5-0.8c0,0,0-0.1,0-0.1c0,0-0.1-0.1-0.2-0.1c-0.1,0-0.2,0-0.3,0.1
					c-0.1,0-0.2,0.1-0.2,0.1c-0.2,0.3-0.3,0.5-0.5,0.8c0,0,0,0.1,0,0.1c0,0,0.1,0.1,0.2,0.1c0.1,0,0.2,0,0.3-0.1
					C61.3,106.1,61.4,106,61.4,106L61.4,106z"/>
			</g>
		</g>
		<g>
			<g>
				<path class="st7" d="M63,112.7c0.6-0.2,1.2-0.3,1.8-0.5c0.1,0,0.4-0.1,0.3-0.3c0-0.2-0.3-0.1-0.4-0.1c-0.6,0.2-1.2,0.3-1.8,0.5
					c-0.1,0-0.4,0.1-0.3,0.3C62.6,112.7,62.9,112.7,63,112.7L63,112.7z"/>
			</g>
		</g>
		<g>
			<g>
				<path class="st7" d="M66.4,111.6c0.5,0,1,0,1.5,0c0.2,0,0.4-0.1,0.5-0.2c0.1-0.1-0.1-0.2-0.2-0.2c-0.5,0-1,0-1.5,0
					c-0.2,0-0.4,0.1-0.5,0.2C66.1,111.6,66.3,111.6,66.4,111.6L66.4,111.6z"/>
			</g>
		</g>
		<g>
			<g>
				<path class="st7" d="M68.9,111.1c0.1,0,0.2,0,0.3,0c0.1,0,0.2,0,0.3,0c0,0,0.1,0,0.1,0c0,0,0.1,0,0.1-0.1c0,0,0,0,0.1,0
					c0,0,0,0,0-0.1c0,0,0,0,0,0c0,0-0.1,0-0.1,0c-0.1,0-0.2,0-0.3,0c-0.1,0-0.2,0-0.3,0c0,0-0.1,0-0.1,0c0,0-0.1,0-0.1,0.1
					c0,0,0,0-0.1,0c0,0,0,0,0,0.1c0,0,0,0,0,0C68.8,111.1,68.8,111.1,68.9,111.1L68.9,111.1z"/>
			</g>
		</g>
		<g>
			<g>
				<path class="st7" d="M60.8,115.6c0.1,0,0.2,0.1,0.3,0.1c0,0,0.1,0,0.1,0c0,0,0,0,0,0c0,0,0,0,0,0c0.1,0,0.1,0.1,0.2,0.1
					c0.2,0.1,0.4,0.3,0.5,0.5c0,0,0.1,0,0.2,0c0.1,0,0.2,0,0.3-0.1c0.1,0,0.3-0.1,0.2-0.3c-0.3-0.4-0.8-0.7-1.3-0.9
					c-0.2-0.1-0.4,0-0.5,0.1c-0.1,0-0.1,0.1-0.1,0.1C60.7,115.6,60.7,115.6,60.8,115.6L60.8,115.6z"/>
			</g>
		</g>
		<g>
			<g>
				<path class="st7" d="M62.8,117.7c0,0.3,0.2,0.6,0.5,0.8c0.1,0,0.1,0,0.2,0c0.1,0,0.2,0,0.3-0.1c0.1,0,0.2-0.1,0.2-0.1
					c0,0,0.1-0.1,0-0.1c-0.1-0.1-0.2-0.2-0.3-0.3c0,0,0,0,0,0c-0.1-0.2-0.2-0.3-0.2-0.5c0,0-0.1-0.1-0.1-0.1c-0.1,0-0.2,0-0.3,0
					c-0.1,0-0.2,0.1-0.2,0.1C62.9,117.6,62.8,117.7,62.8,117.7L62.8,117.7z"/>
			</g>
		</g>
		<g>
			<g>
				<path class="st7" d="M64.2,119.7c0.1,0.4,0.2,0.8,0.3,1.2c0,0,0.1,0.1,0.1,0.1c0.1,0,0.2,0,0.3,0c0.1,0,0.2-0.1,0.2-0.1
					c0,0,0.1-0.1,0.1-0.1c-0.1-0.4-0.2-0.8-0.3-1.2c0,0-0.1-0.1-0.1-0.1c-0.1,0-0.2,0-0.3,0c-0.1,0-0.2,0.1-0.2,0.1
					C64.2,119.6,64.1,119.6,64.2,119.7L64.2,119.7z"/>
			</g>
		</g>
		<g>
			<g>
				<path class="st7" d="M54.4,122.7c0-0.1,0-0.1,0-0.2c0,0,0,0,0,0c0-0.2,0.1-0.4,0.2-0.5c0.1-0.2,0.2-0.3,0.3-0.4c0,0,0-0.1,0-0.1
					c0,0-0.1,0-0.2,0c-0.2,0-0.3,0.1-0.5,0.2c-0.4,0.3-0.6,0.7-0.6,1.2c0,0,0.1,0.1,0.1,0.1c0.1,0,0.2,0,0.3,0
					c0.1,0,0.2-0.1,0.2-0.1C54.4,122.8,54.4,122.8,54.4,122.7L54.4,122.7z"/>
			</g>
		</g>
		<g>
			<g>
				<path class="st7" d="M55.7,120.5c0.2-0.3,0.3-0.7,0.5-1c0-0.1,0-0.1-0.1-0.1c-0.1,0-0.2,0-0.2,0c-0.2,0-0.3,0.1-0.4,0.2
					c-0.2,0.3-0.3,0.7-0.5,1c0,0.1,0,0.1,0.1,0.1c0.1,0,0.2,0,0.2,0C55.5,120.7,55.6,120.6,55.7,120.5L55.7,120.5z"/>
			</g>
		</g>
		<g>
			<g>
				<path class="st7" d="M57.4,117.5c0-0.1,0-0.2,0-0.3c0,0,0,0,0,0c0-0.2,0.1-0.4,0.3-0.5c0,0,0-0.1-0.1-0.1c-0.1,0-0.2,0-0.2,0
					c-0.1,0-0.2,0-0.3,0.1c-0.1,0-0.1,0.1-0.2,0.1c-0.2,0.2-0.3,0.5-0.3,0.8c0,0,0.1,0,0.1,0c0.1,0,0.2,0,0.3,0
					C57.1,117.7,57.2,117.7,57.4,117.5C57.3,117.6,57.4,117.6,57.4,117.5L57.4,117.5z"/>
			</g>
		</g>
		<g>
			<g>
				<path class="st7" d="M44,113.1c0.5,0.4,1.1,0.7,1.7,0.8c0.2,0,0.4,0,0.5-0.1c0.1,0,0.2-0.2,0.1-0.2c-0.6-0.2-1.1-0.4-1.6-0.8
					c-0.1-0.1-0.3,0-0.5,0C44.2,112.8,43.9,113,44,113.1L44,113.1z"/>
			</g>
		</g>
		<g>
			<g>
				<path class="st7" d="M47.8,114.9c0.5,0,1,0.1,1.5,0.1c0.1,0,0.2,0,0.3-0.1c0.1,0,0.2-0.1,0.2-0.2c0.1-0.2-0.1-0.3-0.2-0.3
					c-0.5,0-1-0.1-1.5-0.1c-0.1,0-0.2,0-0.3,0.1c-0.1,0-0.2,0.1-0.2,0.2C47.5,114.8,47.6,114.9,47.8,114.9L47.8,114.9z"/>
			</g>
		</g>
		<g>
			<g>
				<path class="st7" d="M51.5,115.5c0.5,0.1,1,0,1.5-0.1c0.1,0,0.2-0.1,0.2-0.1c0-0.1,0.1-0.1,0.1-0.2c-0.1-0.2-0.3-0.2-0.4-0.2
					c0,0-0.1,0-0.1,0c0,0-0.1,0-0.1,0c0.1,0,0,0,0,0c0,0-0.1,0-0.1,0c-0.1,0-0.2,0-0.3,0c-0.1,0-0.2,0-0.3,0c-0.1,0,0.1,0,0,0
					c0,0-0.1,0-0.1,0c-0.1,0-0.1,0-0.2,0c-0.1,0-0.2,0-0.3,0c-0.1,0-0.2,0.1-0.2,0.2C51.2,115.4,51.3,115.5,51.5,115.5L51.5,115.5z"
					/>
			</g>
		</g>
		<g>
			<g>
				<path class="st7" d="M54.4,115.3c0.1,0,0.2,0,0.3,0c0,0,0.1,0,0.1,0c0,0,0.1,0,0.1,0c0,0,0.1,0,0.1-0.1c0,0,0.1-0.1,0.1-0.1
					c0,0,0,0,0-0.1c0,0,0-0.1,0-0.1c0,0,0,0-0.1,0c0,0-0.1,0-0.2,0c-0.1,0-0.2,0-0.3,0c0,0-0.1,0-0.1,0c0,0-0.1,0-0.1,0
					c0,0-0.1,0-0.1,0.1c0,0-0.1,0.1-0.1,0.1c0,0,0,0,0,0.1c0,0,0,0.1,0,0.1c0,0,0,0,0.1,0C54.3,115.3,54.3,115.3,54.4,115.3
					L54.4,115.3z"/>
			</g>
		</g>
		<g>
			<g>
				<path class="st7" d="M56.5,111.4c-0.2-0.3-0.4-0.7-0.6-1c0,0-0.1-0.1-0.2-0.1c-0.1,0-0.2,0-0.3,0.1c-0.1,0-0.2,0.1-0.2,0.1
					c0,0.1,0,0.1,0,0.1c0.2,0.3,0.4,0.7,0.6,1c0,0,0.1,0.1,0.2,0.1c0.1,0,0.2,0,0.3-0.1c0.1,0,0.2-0.1,0.2-0.1
					C56.5,111.5,56.5,111.4,56.5,111.4L56.5,111.4z"/>
			</g>
		</g>
		<g>
			<g>
				<path class="st7" d="M78.3,107.9c0.1,0.4,0.3,0.7,0.5,1c0,0,0.1,0.1,0.1,0.1c0.1,0,0.2,0,0.3,0c0.1,0,0.2-0.1,0.2-0.1
					c0,0,0.1-0.1,0.1-0.1c-0.2-0.3-0.4-0.7-0.5-1c0,0-0.1-0.1-0.1-0.1c-0.1,0-0.2,0-0.3,0c-0.1,0-0.2,0.1-0.2,0.1
					C78.4,107.8,78.3,107.9,78.3,107.9L78.3,107.9z"/>
			</g>
		</g>
		<g>
			<g>
				<path class="st7" d="M79.6,110.8c0.1,0.5,0.3,1,0.5,1.4c0,0.1,0.1,0.1,0.2,0.1c0.1,0,0.2,0,0.3-0.1c0.1-0.1,0.3-0.2,0.2-0.3
					c-0.2-0.4-0.4-0.9-0.5-1.3c0-0.1-0.1-0.1-0.1-0.1c-0.1,0-0.2,0-0.3,0C79.8,110.6,79.6,110.7,79.6,110.8L79.6,110.8z"/>
			</g>
		</g>
		<g>
			<g>
				<path class="st7" d="M80.6,114c0,0.7,0,1.4,0.1,2.1c0,0.2,0.3,0.2,0.4,0.2c0.2-0.1,0.3-0.2,0.3-0.4c-0.1-0.7-0.1-1.3-0.1-2
					C81.3,113.6,80.6,113.7,80.6,114L80.6,114z"/>
			</g>
		</g>
		<g>
			<g>
				<path class="st7" d="M81,117.3c0,0.1,0,0.2,0,0.4c0,0,0,0,0,0c0,0,0.1,0,0.1,0c0,0,0.1,0,0.1,0c0,0,0.1,0,0.1,0
					c0.1,0,0.2-0.1,0.2-0.1c0,0,0,0,0,0c0,0,0,0,0-0.1c0-0.1,0-0.2,0-0.4c0,0,0,0,0,0c0,0-0.1,0-0.1,0c0,0-0.1,0-0.1,0
					c0,0-0.1,0-0.1,0c-0.1,0-0.2,0.1-0.2,0.1C81.1,117.2,81.1,117.2,81,117.3C81.1,117.2,81,117.2,81,117.3L81,117.3z"/>
			</g>
		</g>
		<g>
			<g>
				<path class="st7" d="M81.2,105.2c0.9-0.1,1.7,0,2.6,0.3c0.2,0,0.4,0,0.5-0.1c0.1,0,0.2-0.2,0.1-0.2c-0.9-0.3-1.9-0.4-2.9-0.3
					c-0.2,0-0.4,0-0.5,0.2C80.9,105.2,81.1,105.2,81.2,105.2L81.2,105.2z"/>
			</g>
		</g>
		<g>
			<g>
				<path class="st7" d="M85.3,105.5C85.3,105.5,85.3,105.5,85.3,105.5C85.3,105.5,85.3,105.5,85.3,105.5c0.1,0,0.1,0,0.1,0
					c0.1,0,0.1,0,0.2,0c0.1,0,0.1,0,0.2,0c-0.1,0,0.1,0,0.1,0c0,0,0.1,0,0.1,0c0.3,0,0.5,0.1,0.7,0.2c0.2,0.1,0.4,0,0.5-0.1
					c0.1-0.1,0.2-0.2,0.1-0.3c-0.6-0.3-1.3-0.4-1.9-0.3c-0.1,0-0.4,0.1-0.4,0.2C84.9,105.5,85.2,105.5,85.3,105.5L85.3,105.5z"/>
			</g>
		</g>
		<g>
			<g>
				<path class="st7" d="M88.3,106.2C88.4,106.2,88.4,106.2,88.3,106.2C88.4,106.2,88.4,106.2,88.3,106.2c0.1,0,0.2,0,0.2,0
					c0.1,0,0.2,0,0.2,0c0.1,0,0.3,0.1,0.5,0.2c0.3,0.1,0.6,0.3,0.8,0.6c0.2,0.2,0.8-0.1,0.7-0.3c-0.6-0.6-1.3-0.9-2.1-0.9
					c-0.2,0-0.4,0.1-0.5,0.2C88.1,106.2,88.2,106.2,88.3,106.2L88.3,106.2z"/>
			</g>
		</g>
		<g>
			<g>
				<path class="st7" d="M80.8,103.3c0.1-0.1,0.3-0.2,0.4-0.3c0,0,0,0,0,0c0,0,0.1,0,0,0c0,0,0.1,0,0.1-0.1c0.1-0.1,0.1-0.1,0.2-0.2
					c0.3-0.2,0.6-0.4,0.9-0.6c0.1-0.1,0.2-0.2,0.1-0.3c-0.2-0.1-0.4,0-0.5,0.1c-0.6,0.4-1.2,0.8-1.7,1.3c0,0-0.1,0.1-0.1,0.2
					c0,0.1,0.1,0.1,0.1,0.1C80.4,103.5,80.6,103.4,80.8,103.3L80.8,103.3z"/>
			</g>
		</g>
		<g>
			<g>
				<path class="st7" d="M73.8,100.9c0.1,0.3,0.3,0.6,0.5,0.9c0.1,0.1,0.1,0.1,0.2,0.1c0.1,0,0.2,0,0.3-0.1c0.1,0,0.2-0.1,0.2-0.2
					c0-0.1,0-0.1,0-0.2c-0.1-0.1-0.2-0.3-0.3-0.5c0,0,0,0,0,0.1c-0.1-0.1-0.1-0.2-0.2-0.4c-0.1-0.2-0.3-0.2-0.4-0.1
					c-0.1,0-0.2,0.1-0.2,0.1C73.9,100.8,73.8,100.9,73.8,100.9L73.8,100.9z"/>
			</g>
		</g>
		<g>
			<g>
				<path class="st7" d="M75.2,103.1c0.2,0.3,0.3,0.6,0.5,0.9c0,0,0.1,0.1,0.1,0.1c0.1,0,0.2,0,0.3,0c0.1,0,0.2-0.1,0.2-0.1
					c0,0,0.1-0.1,0.1-0.1c-0.2-0.3-0.3-0.6-0.5-0.9c0,0-0.1-0.1-0.1-0.1c-0.1,0-0.2,0-0.3,0c-0.1,0-0.2,0.1-0.2,0.1
					C75.2,103,75.1,103,75.2,103.1L75.2,103.1z"/>
			</g>
		</g>
		<g>
			<g>
				<path class="st7" d="M71.8,106.5c1,0,2,0,3,0c0.2,0,0.4-0.1,0.5-0.2c0.1-0.1-0.1-0.2-0.2-0.2c-1,0-2,0-3,0
					c-0.2,0-0.4,0.1-0.5,0.2C71.5,106.5,71.7,106.5,71.8,106.5L71.8,106.5z"/>
			</g>
		</g>
		<g>
			<g>
				<path class="st7" d="M73.9,111.8c0-0.3,0-0.6,0.2-0.9c0.1-0.1,0.1-0.3,0.2-0.4c0.1-0.1,0.2-0.2,0.3-0.3c0,0,0.1-0.1,0.1-0.1
					c0-0.1-0.1-0.1-0.1-0.1c-0.2,0-0.4,0-0.5,0.1c-0.6,0.5-0.9,1.2-0.8,1.9c0,0.1,0.1,0.1,0.1,0.1c0.1,0,0.2,0,0.3,0
					C73.7,112.1,73.9,112,73.9,111.8L73.9,111.8z"/>
			</g>
		</g>
		<g>
			<g>
				<path class="st7" d="M75.1,109.3c0.5-0.5,0.9-1,1.4-1.5c0,0,0.1-0.1,0.1-0.2c0-0.1-0.1-0.1-0.1-0.1c-0.2,0-0.4,0-0.5,0.1
					c-0.5,0.5-0.9,1-1.4,1.5c0,0-0.1,0.1-0.1,0.2c0,0.1,0.1,0.1,0.1,0.1C74.7,109.5,75,109.5,75.1,109.3L75.1,109.3z"/>
			</g>
		</g>
		<g>
			<g>
				<path class="st7" d="M77.2,72.1c0.1,0.1,0.3,0.1,0.4,0.2c0.1,0,0.1,0.1,0.2,0.1c0,0,0,0,0,0c0,0,0,0,0,0c0,0,0.1,0,0.1,0.1
					c0.2,0.2,0.4,0.4,0.6,0.6c0,0.1,0.1,0.1,0.2,0.1c0.1,0,0.2,0,0.3-0.1c0.1,0,0.3-0.2,0.2-0.3c-0.3-0.5-0.8-0.8-1.4-1.1
					c-0.2-0.1-0.4,0-0.5,0.1c-0.1,0-0.1,0.1-0.1,0.2C77.1,72,77.1,72.1,77.2,72.1L77.2,72.1z"/>
			</g>
		</g>
		<g>
			<g>
				<path class="st7" d="M80.4,75.4c0.5,0.4,1,0.8,1.4,1.3c0.1,0.1,0.3,0.1,0.5,0c0.1,0,0.3-0.2,0.2-0.3c-0.5-0.5-1-1-1.5-1.4
					c-0.1,0-0.2,0-0.2,0c-0.1,0-0.2,0-0.3,0.1C80.3,75.2,80.2,75.3,80.4,75.4L80.4,75.4z"/>
			</g>
		</g>
		<g>
			<g>
				<path class="st7" d="M83.1,79.1c0.2,0.6,0.5,1.2,0.8,1.8c0.1,0.2,0.8-0.1,0.7-0.2c-0.3-0.6-0.6-1.1-0.8-1.8c0-0.1-0.3-0.1-0.4,0
					c-0.1,0-0.2,0.1-0.2,0.1C83.1,79,83.1,79,83.1,79.1L83.1,79.1z"/>
			</g>
		</g>
		<g>
			<g>
				<path class="st7" d="M84.2,82.1c0.1,0.4,0.2,0.7,0.3,1.1c0,0.1,0.1,0.1,0.1,0.1c0.1,0,0.2,0,0.3,0c0.1,0,0.2-0.1,0.2-0.1
					c0,0,0.1-0.1,0.1-0.1c-0.1-0.4-0.2-0.7-0.3-1.1c0-0.1-0.1-0.1-0.1-0.1c-0.1,0-0.2,0-0.3,0c-0.1,0-0.2,0.1-0.2,0.1
					C84.3,82,84.2,82.1,84.2,82.1L84.2,82.1z"/>
			</g>
		</g>
		<g>
			<g>
				<path class="st7" d="M89,83.6c0.2-0.4,0.4-0.9,0.5-1.4c0-0.1,0-0.1-0.1-0.1c-0.1,0-0.2,0-0.2,0c-0.2,0-0.4,0.1-0.4,0.3
					c-0.1,0.2-0.1,0.4-0.2,0.6c0,0,0,0.1,0,0.1c0,0,0,0,0,0c0,0.1,0,0.1-0.1,0.2c0,0.1-0.1,0.2-0.1,0.3c0,0.1,0,0.1,0,0.2
					c0,0.1,0.1,0.1,0.2,0.1c0.1,0,0.2,0,0.3-0.1C88.9,83.8,89,83.7,89,83.6L89,83.6z"/>
			</g>
		</g>
		<g>
			<g>
				<path class="st7" d="M89.8,81c0-0.7,0-1.4-0.1-2.1c0-0.2-0.3-0.2-0.4-0.1c-0.1,0-0.3,0.1-0.3,0.3c0.1,0.7,0.1,1.3,0.1,2
					c0,0.2,0.2,0.2,0.3,0.2C89.5,81.2,89.8,81.2,89.8,81L89.8,81z"/>
			</g>
		</g>
		<g>
			<g>
				<path class="st7" d="M89.5,77.1c0-0.5-0.3-1-0.7-1.4c-0.1-0.1-0.4-0.1-0.5,0c-0.1,0.1-0.2,0.3,0,0.4c0.1,0,0.1,0.1,0.2,0.1
					c0,0,0,0-0.1,0c0.1,0.1,0.2,0.3,0.3,0.4c0,0,0,0,0-0.1c0.1,0.2,0.1,0.3,0.1,0.5c0,0,0,0,0-0.1c0,0,0,0.1,0,0.1
					c0,0.2,0.2,0.3,0.3,0.2c0.1,0,0.2,0,0.3-0.1C89.5,77.2,89.5,77.1,89.5,77.1L89.5,77.1z"/>
			</g>
		</g>
		<g>
			<g>
				<path class="st7" d="M88.4,74.8c-0.3-0.4-0.6-0.9-1-1.3c0,0-0.1-0.1-0.2-0.1c-0.1,0-0.2,0-0.3,0.1c-0.1,0-0.3,0.1-0.2,0.3
					c0.3,0.4,0.6,0.9,1,1.3c0,0,0.1,0.1,0.2,0.1c0.1,0,0.2,0,0.3-0.1C88.3,75,88.5,74.9,88.4,74.8L88.4,74.8z"/>
			</g>
		</g>
		<g>
			<g>
				<path class="st7" d="M89.4,87.7c0.7,0,1.4-0.2,2-0.6c0.1-0.1,0.2-0.3,0-0.4c-0.2-0.1-0.4,0-0.5,0c0,0,0,0,0,0c0,0,0,0-0.1,0
					c0,0-0.1,0-0.1,0c-0.1,0-0.1,0.1-0.2,0.1c0,0-0.1,0-0.1,0c0,0-0.1,0,0,0c-0.1,0-0.1,0-0.2,0.1c-0.1,0-0.1,0-0.2,0
					c0,0-0.1,0-0.1,0c0.1,0,0,0,0,0c-0.1,0-0.3,0-0.4,0c-0.1,0-0.4,0.1-0.4,0.3C89.1,87.7,89.3,87.7,89.4,87.7L89.4,87.7z"/>
			</g>
		</g>
		<g>
			<g>
				<path class="st7" d="M93.5,86.1c0.5-0.3,1-0.7,1.5-1.2c0,0,0.1-0.1,0.1-0.2c0-0.1-0.1-0.1-0.1-0.1c-0.2,0-0.4,0-0.5,0.1
					c-0.1,0.1-0.2,0.2-0.3,0.3c-0.1,0-0.1,0.1-0.2,0.1c0,0-0.1,0-0.1,0.1c0,0,0,0,0,0c0,0-0.1,0,0,0c-0.2,0.2-0.5,0.4-0.7,0.5
					c-0.1,0.1-0.2,0.2-0.1,0.3C93.1,86.2,93.4,86.2,93.5,86.1L93.5,86.1z"/>
			</g>
		</g>
		<g>
			<g>
				<path class="st7" d="M95.9,83.6c0-0.2,0.1-0.4,0.2-0.6c0,0,0,0,0,0.1c0.1-0.2,0.2-0.3,0.3-0.5c0,0,0-0.1,0-0.1
					c0,0-0.1-0.1-0.2-0.1c-0.2,0-0.4,0.1-0.5,0.2c-0.2,0.3-0.4,0.7-0.5,1.1c0,0.2,0.2,0.2,0.3,0.1c0.1,0,0.2,0,0.3-0.1
					C95.8,83.7,95.9,83.7,95.9,83.6L95.9,83.6z"/>
			</g>
		</g>
		<g>
			<g>
				<path class="st7" d="M87.1,90.9c0.7,0.6,1.5,1.1,2.4,1.4c0.2,0.1,0.4,0,0.5-0.1c0.1,0,0.2-0.2,0.1-0.3c-0.8-0.3-1.6-0.7-2.3-1.3
					c-0.1-0.1-0.3,0-0.5,0C87.2,90.7,86.9,90.8,87.1,90.9L87.1,90.9z"/>
			</g>
		</g>
		<g>
			<g>
				<path class="st7" d="M90.7,93.2c0.4,0.4,0.9,0.8,1.3,1.1c0.1,0,0.2,0,0.2,0c0.1,0,0.2,0,0.3-0.1c0.1-0.1,0.2-0.2,0.1-0.3
					c-0.1-0.1-0.2-0.1-0.3-0.2c0,0-0.1,0-0.1-0.1c0,0,0,0,0,0c-0.1,0,0,0,0,0c-0.1,0-0.1-0.1-0.2-0.1c-0.2-0.2-0.4-0.4-0.6-0.6
					c-0.1-0.1-0.3-0.1-0.5,0C90.8,92.9,90.6,93.1,90.7,93.2L90.7,93.2z"/>
			</g>
		</g>
		<g>
			<g>
				<path class="st7" d="M93.4,96.2c0.4,0.6,0.9,1.1,1.5,1.5c0.1,0,0.2,0,0.2,0c0.1,0,0.2,0,0.3-0.1c0.1,0,0.1-0.1,0.1-0.2
					c0-0.1,0-0.1-0.1-0.1c0,0-0.1,0-0.1-0.1c0,0,0,0,0,0c0,0,0,0,0,0c-0.1-0.1-0.1-0.1-0.2-0.2c-0.1-0.1-0.3-0.2-0.4-0.4
					c-0.2-0.2-0.5-0.5-0.7-0.8c0-0.1-0.1-0.1-0.2-0.1c-0.1,0-0.2,0-0.3,0.1C93.4,96,93.3,96.1,93.4,96.2L93.4,96.2z"/>
			</g>
		</g>
		<g>
			<g>
				<path class="st7" d="M84.3,93.6c0-0.6,0.2-1.1,0.4-1.6c0-0.1,0-0.1,0-0.1c0,0-0.1-0.1-0.2-0.1c-0.1,0-0.2,0-0.3,0.1
					c-0.1,0-0.2,0.1-0.2,0.1c-0.3,0.5-0.5,1.1-0.5,1.7c0,0.2,0.2,0.2,0.3,0.1c0.1,0,0.2,0,0.3-0.1C84.2,93.7,84.3,93.7,84.3,93.6
					L84.3,93.6z"/>
			</g>
		</g>
		<g>
			<g>
				<path class="st7" d="M83.9,96.9c0-0.6,0-1.1,0.2-1.7c0-0.1,0-0.1-0.1-0.1c-0.1,0-0.2,0-0.2,0c-0.1,0-0.4,0.1-0.4,0.2
					c-0.2,0.6-0.3,1.2-0.2,1.8c0,0.1,0.1,0.1,0.1,0.1c0.1,0,0.2,0,0.3,0C83.7,97.1,84,97,83.9,96.9L83.9,96.9z"/>
			</g>
		</g>
		<g>
			<g>
				<path class="st7" d="M85.1,90.8c0.1-0.2,0.2-0.4,0.3-0.6c0-0.1,0-0.1,0-0.2c0-0.1-0.1-0.1-0.2-0.1c-0.1,0-0.2,0-0.3,0.1
					c-0.1,0-0.1,0.1-0.2,0.2c-0.1,0.2-0.2,0.4-0.3,0.6c0,0.1,0,0.1,0,0.2c0,0.1,0.1,0.1,0.2,0.1c0.1,0,0.2,0,0.3-0.1
					C85,90.9,85.1,90.8,85.1,90.8L85.1,90.8z"/>
			</g>
		</g>
		<g>
			<g>
				<path class="st7" d="M74.3,80.2C74.3,80.3,74.3,80.3,74.3,80.2c0.1,0,0.2,0,0.2,0c0,0,0.1,0,0.1,0c0,0,0.1,0,0.1,0
					c0.1,0,0.2,0.1,0.3,0.1c0.2,0.1,0.4,0.2,0.6,0.3c0.1,0,0.2,0,0.2,0c0.1,0,0.2,0,0.3-0.1c0.1,0,0.1-0.1,0.1-0.1
					c0-0.1,0-0.1-0.1-0.1c-0.4-0.2-0.9-0.4-1.4-0.5c-0.1,0-0.2,0-0.3,0c-0.1,0-0.2,0.1-0.2,0.1c0,0-0.1,0.1-0.1,0.1
					C74.1,80.2,74.2,80.2,74.3,80.2L74.3,80.2z"/>
			</g>
		</g>
		<g>
			<g>
				<path class="st7" d="M76.9,81.6c0.6,0.2,1.3,0.5,1.8,0.9c0.1,0.1,0.4,0,0.5,0c0.1,0,0.3-0.2,0.2-0.3c-0.6-0.5-1.2-0.8-2-1
					c-0.2,0-0.4,0-0.5,0.1c0,0-0.1,0.1-0.1,0.1C76.8,81.6,76.8,81.6,76.9,81.6L76.9,81.6z"/>
			</g>
		</g>
		<g>
			<g>
				<path class="st7" d="M80.1,83.7C80.1,83.7,80.1,83.7,80.1,83.7C80.1,83.7,80.1,83.7,80.1,83.7c0.1,0,0.1,0.1,0.2,0.1
					c0.1,0,0.1,0.1,0.2,0.1c0.1,0.1,0.3,0.2,0.4,0.2c0.1,0,0.1,0.1,0.2,0.1c0,0,0,0,0,0c0,0,0,0,0,0c0,0,0.1,0,0.1,0.1
					c0.1,0.1,0.2,0.2,0.3,0.3c0.1,0.1,0.3,0.1,0.5,0c0.1-0.1,0.3-0.2,0.2-0.3c-0.4-0.5-1-0.9-1.6-1.1c-0.1,0-0.2,0-0.3,0
					c-0.1,0-0.2,0.1-0.2,0.1c0,0-0.1,0.1-0.1,0.2C80,83.7,80,83.7,80.1,83.7L80.1,83.7z"/>
			</g>
		</g>
		<g>
			<g>
				<path class="st7" d="M78.5,89.5c0.5,0,1-0.2,1.5-0.5c0.1,0,0.1-0.1,0.1-0.2c0-0.1,0-0.1-0.1-0.1c-0.2-0.1-0.4,0-0.5,0.1
					c0,0-0.1,0.1-0.1,0.1c0,0,0,0,0,0c0,0,0,0,0,0c0,0-0.1,0-0.1,0c0,0-0.1,0-0.1,0.1c0,0,0,0-0.1,0c0.1,0,0,0,0,0c0,0-0.1,0-0.1,0
					c0,0-0.1,0-0.1,0c-0.1,0,0.1,0,0,0c-0.1,0-0.2,0-0.3,0c-0.1,0-0.2,0-0.3,0.1c0,0-0.1,0.1-0.1,0.2C78.1,89.5,78.3,89.5,78.5,89.5
					L78.5,89.5z"/>
			</g>
		</g>
		<g>
			<g>
				<path class="st7" d="M81.5,88.8c0.6-0.2,1.1-0.5,1.6-0.8c0,0,0.1-0.1,0.1-0.1c0-0.1-0.1-0.1-0.1-0.1c-0.2,0-0.4,0-0.5,0.1
					c-0.1,0-0.1,0.1-0.2,0.1c0.1,0,0,0,0,0c0,0,0,0-0.1,0c-0.1,0.1-0.2,0.1-0.4,0.2c-0.1,0-0.1,0.1-0.2,0.1c0.1,0,0,0,0,0
					c0,0-0.1,0-0.1,0c-0.1,0.1-0.3,0.1-0.4,0.1c-0.1,0-0.3,0.1-0.2,0.3C81.1,88.9,81.3,88.9,81.5,88.8L81.5,88.8z"/>
			</g>
		</g>
		<path class="st5" d="M33.6,111.5c-0.5-0.7-1.1-1.4-2-1.7c-1-0.4-2.2,0-3.2-0.2c-1.2-0.2-2.2-1.1-2.7-2.2c-0.6-1.1-0.8-2.3-0.9-3.5
			c0-0.5-0.1-1,0.1-1.5c0.2-0.4,0.5-0.7,0.7-1.1c1-1.5,1.2-3.5,0.4-5.2c-0.9-1.8-2.1-3-1-5.1c0.8-1.5,2.3-2.5,3.7-3.5
			c0.8-0.5,1.6-1.1,2.4-1.6c0.6-0.4,1.3-0.9,2-1.1c0.9-0.3,1.8-0.4,2.7-0.1c1.2,0.3,2.4,1,3.4,0.4c0.5-0.3,0.8-0.7,1.2-1.1
			c1.6-1.6,4.3-2,6.3-0.9c1,0.5,1.7,1.4,2.2,2.3c0.6,1.1,0.2,2.2,0.5,3.3c0.2,0.5,3,1,3.6,1.3c1.1,0.5,2.2,1.3,2.8,2.5
			c0.6,1.1,0.7,2.5,0.2,3.7c-0.5,1.5,0.5,2.7,1,4.2c0.6,1.7,0.8,3.6,0.5,5.4c-0.4,2.6-2.3,5-4.9,5.6c-2.4,0.5-5-0.7-7.4,0
			c-2.3,0.6-3.9,2.8-6.2,3.3c-1.6,0.4-3.4-0.1-4.5-1.3C34.4,112.7,34,112.1,33.6,111.5z"/>
		<path class="st6" d="M38.5,97.5c-0.2,0.3-0.3,0.7-0.3,1.1c0.1,1.3,0.7,2.7,2.2,3.1c2.8,0.6,4.1-1.9,2.9-4.2
			C42.5,95.7,39.5,96.1,38.5,97.5z"/>
		<g>
			<g>
				<path class="st7" d="M43.3,95.3c0-0.6,0.1-1.1,0.4-1.6c0,0,0-0.1-0.1-0.1c-0.1,0-0.2,0-0.2,0c-0.2,0-0.3,0.1-0.4,0.2
					c-0.3,0.5-0.5,1.1-0.4,1.6c0,0,0.1,0.1,0.1,0.1c0.1,0,0.2,0,0.3,0C43.1,95.5,43.3,95.5,43.3,95.3L43.3,95.3z"/>
			</g>
		</g>
		<g>
			<g>
				<path class="st7" d="M44.3,92.3c0-0.1,0-0.2,0.1-0.3c0-0.1,0-0.1,0.1-0.2c0,0,0,0,0-0.1c0,0,0,0,0,0c0,0,0,0,0,0
					c0.1-0.2,0.2-0.4,0.3-0.6c0.1-0.1-0.1-0.3-0.2-0.3c-0.2,0-0.4,0.1-0.5,0.2c-0.2,0.4-0.4,0.8-0.5,1.3c0,0.2,0.2,0.2,0.3,0.2
					C44,92.6,44.2,92.5,44.3,92.3L44.3,92.3z"/>
			</g>
		</g>
		<g>
			<g>
				<path class="st7" d="M46.2,88.9c0-0.1,0.1-0.2,0.2-0.3c0,0,0,0,0-0.1c0,0,0,0,0,0c0,0,0,0,0,0c0,0,0.1-0.1,0.1-0.1
					c0,0,0.1-0.1,0.1-0.1c0,0,0,0,0.1-0.1c0,0,0,0,0,0c0,0,0,0,0,0c0,0,0,0,0,0c0,0,0.1-0.1,0.1-0.1c0,0,0.1,0,0,0c0,0,0,0,0,0
					c0,0,0.1,0,0.1,0c0,0,0.1-0.1,0.1-0.1c0,0,0-0.1-0.1-0.1c-0.2,0-0.4,0-0.5,0.1c-0.5,0.2-0.9,0.6-1.2,1.1
					c-0.1,0.1,0.2,0.1,0.3,0.1c0.1,0,0.2,0,0.3-0.1C46.1,89,46.2,89,46.2,88.9L46.2,88.9z"/>
			</g>
		</g>
		<g>
			<g>
				<path class="st7" d="M48,87.5c0.3-0.1,0.5-0.3,0.8-0.4c0,0,0.1-0.1,0.1-0.1c0-0.1,0-0.1-0.1-0.1c-0.2-0.1-0.4,0-0.5,0.1
					c-0.3,0.1-0.5,0.3-0.8,0.4c0,0-0.1,0.1-0.1,0.1c0,0.1,0,0.1,0.1,0.1C47.7,87.6,47.9,87.5,48,87.5L48,87.5z"/>
			</g>
		</g>
		<g>
			<g>
				<path class="st7" d="M37.7,99.2c-0.5-0.2-1-0.4-1.5-0.6c-0.1-0.1-0.3,0-0.5,0c0,0-0.3,0.2-0.2,0.2c0.5,0.3,1.1,0.5,1.6,0.7
					c0.2,0.1,0.4,0,0.5-0.1C37.7,99.4,37.9,99.3,37.7,99.2L37.7,99.2z"/>
			</g>
		</g>
		<g>
			<g>
				<path class="st7" d="M34.5,98.1c-0.1,0-0.1,0-0.2,0c-0.1,0-0.1,0-0.2,0c0.1,0,0.1,0,0,0c0,0,0,0,0,0c0,0,0,0-0.1,0
					c0,0-0.1,0-0.1,0c0,0-0.1,0-0.1-0.1c0,0,0,0,0,0c0,0,0,0,0,0c0,0,0,0-0.1,0c-0.1-0.1-0.2-0.1-0.3-0.2c-0.1-0.1-0.2-0.1-0.2-0.1
					c-0.1,0-0.2,0-0.3,0.1c-0.1,0.1-0.2,0.3,0,0.4c0.4,0.3,0.8,0.5,1.3,0.5c0.1,0,0.2,0,0.3,0c0.1,0,0.2-0.1,0.2-0.2
					c0-0.1,0-0.2,0-0.2C34.7,98.1,34.6,98.1,34.5,98.1L34.5,98.1z"/>
			</g>
		</g>
		<g>
			<g>
				<path class="st7" d="M31.6,97.1c-0.1,0-0.1,0-0.2,0c0,0,0,0,0,0c0,0,0,0,0,0c0,0-0.1,0-0.1,0c-0.1,0-0.2,0-0.3,0
					c-0.1,0-0.2,0-0.3,0c-0.1,0-0.2,0-0.4-0.1c-0.2,0-0.4,0-0.5,0.1c-0.1,0-0.3,0.1-0.1,0.2c0.5,0.1,1,0.1,1.6,0.1
					c0.1,0,0.2,0,0.3-0.1c0.1,0,0.2-0.1,0.2-0.1C31.9,97,31.6,97,31.6,97.1L31.6,97.1z"/>
			</g>
		</g>
		<g>
			<g>
				<path class="st7" d="M28.8,97.1c-0.2,0-0.4,0-0.6,0c-0.2,0-0.4,0.1-0.6,0.2c-0.1,0-0.1,0.1-0.1,0.2c0,0.1,0,0.1,0.1,0.2
					c0.1,0,0.2,0.1,0.2,0c0.1,0,0.2,0,0.3-0.1c-0.1,0.1,0,0,0,0c0,0,0.1,0,0.1,0c0,0,0,0-0.1,0c0,0,0,0,0,0c0,0,0,0,0,0
					c0,0,0.1,0,0.1,0c0.1,0-0.1,0,0,0c0,0,0,0,0.1,0c0,0,0.1,0,0.1,0c0,0,0,0,0,0c0,0,0,0-0.1,0c0,0,0,0,0.1,0c0,0,0.1,0,0.1,0
					c0.1,0,0.2,0,0.3-0.1c0.1,0,0.2-0.1,0.2-0.2c0-0.1,0-0.1,0-0.2C29,97.2,28.9,97.1,28.8,97.1L28.8,97.1z"/>
			</g>
		</g>
		<g>
			<g>
				<path class="st7" d="M35.1,87.1c0.1,0.4,0.3,0.8,0.4,1.3c0,0.1,0.2,0.1,0.3,0.1c0.1,0,0.1,0,0.2-0.1c0,0,0.1-0.1,0.1-0.1
					c-0.1-0.4-0.3-0.8-0.4-1.3c0-0.1-0.2-0.1-0.3-0.1c-0.1,0-0.1,0-0.2,0.1C35.1,87,35,87,35.1,87.1L35.1,87.1z"/>
			</g>
		</g>
		<g>
			<g>
				<path class="st7" d="M36.1,90.1c0.1,0.4,0.3,0.8,0.6,1.1c0,0,0.1,0,0.2,0c0.1,0,0.2,0,0.2-0.1c0,0,0.3-0.1,0.2-0.2
					c0,0-0.1-0.1-0.1-0.1c0,0,0,0,0,0c-0.2-0.3-0.4-0.6-0.5-0.9c0,0-0.1,0-0.1,0c-0.1,0-0.2,0-0.2,0C36.3,89.9,36.2,89.9,36.1,90.1
					C36.2,90,36.1,90,36.1,90.1L36.1,90.1z"/>
			</g>
		</g>
		<g>
			<g>
				<path class="st7" d="M37.3,92.8c0.3,0.3,0.7,0.7,1,1c0,0,0.1,0,0.2,0c0.1,0,0.2,0,0.2,0c0.1,0,0.3-0.1,0.2-0.2
					c-0.3-0.3-0.7-0.7-1-1c0,0-0.1,0-0.2,0c-0.1,0-0.2,0-0.2,0C37.4,92.6,37.2,92.7,37.3,92.8L37.3,92.8z"/>
			</g>
		</g>
		<g>
			<g>
				<path class="st7" d="M39.2,95.2c0.1,0.1,0.2,0.1,0.3,0.2c0,0,0.1,0,0.1,0c0,0,0.1,0,0.1,0c0,0,0.1,0,0.1,0c0,0,0.1,0,0.1-0.1
					c0,0,0,0,0.1,0c0,0,0-0.1,0.1-0.1c0,0,0,0,0,0c0,0,0-0.1-0.1-0.1c-0.1-0.1-0.2-0.1-0.3-0.2c0,0-0.1,0-0.1,0c0,0-0.1,0-0.1,0
					c0,0-0.1,0-0.1,0c0,0-0.1,0-0.1,0.1c0,0,0,0-0.1,0c0,0,0,0.1-0.1,0.1C39.1,95.1,39.1,95.1,39.2,95.2
					C39.1,95.2,39.1,95.2,39.2,95.2L39.2,95.2z"/>
			</g>
		</g>
		<g>
			<g>
				<path class="st7" d="M34.6,109.2c0.3-0.2,0.6-0.5,0.9-0.7c0,0,0.1-0.1,0.1-0.1c0-0.1-0.1-0.1-0.1-0.1c-0.2,0-0.4,0-0.5,0.1
					c-0.3,0.2-0.6,0.5-0.9,0.7c0,0-0.1,0.1-0.1,0.1c0,0.1,0.1,0.1,0.1,0.1C34.2,109.4,34.4,109.3,34.6,109.2L34.6,109.2z"/>
			</g>
		</g>
		<g>
			<g>
				<path class="st7" d="M36.6,107.1c0.3-0.3,0.5-0.5,0.8-0.8c0-0.1,0.1-0.1,0.1-0.2c0-0.1-0.1-0.1-0.2-0.2c-0.1,0-0.2,0-0.3,0
					c-0.1,0-0.2,0.1-0.2,0.1c-0.3,0.3-0.5,0.5-0.8,0.8c0,0.1-0.1,0.1-0.1,0.2c0,0.1,0.1,0.1,0.2,0.2c0.1,0,0.2,0,0.3,0
					C36.5,107.2,36.5,107.2,36.6,107.1L36.6,107.1z"/>
			</g>
		</g>
		<g>
			<g>
				<path class="st7" d="M39,104.7c0.2-0.4,0.4-0.7,0.6-1.1c0-0.1,0-0.2,0-0.2c0-0.1-0.1-0.1-0.2-0.1c-0.2,0-0.4,0.1-0.5,0.2
					c-0.2,0.4-0.4,0.7-0.6,1.1c0,0.1,0,0.2,0,0.2c0,0.1,0.1,0.1,0.2,0.1C38.7,104.9,38.9,104.8,39,104.7L39,104.7z"/>
			</g>
		</g>
		<g>
			<g>
				<path class="st7" d="M40.2,102.4c0.1-0.1,0.2-0.3,0.3-0.4c0,0,0,0,0-0.1c0,0,0,0-0.1,0c0,0-0.1,0-0.1,0c0,0-0.1,0-0.1,0
					c-0.1,0-0.2,0-0.3,0.1c-0.1,0-0.1,0.1-0.1,0.1c-0.1,0.1-0.2,0.3-0.3,0.4c0,0,0,0,0,0.1c0,0,0,0,0.1,0c0,0,0.1,0,0.1,0
					c0,0,0.1,0,0.1,0c0.1,0,0.2,0,0.3-0.1C40.1,102.5,40.2,102.5,40.2,102.4L40.2,102.4z"/>
			</g>
		</g>
		<g>
			<g>
				<path class="st7" d="M45.4,99.5c0,0,0.1,0,0.1-0.1c0,0,0,0,0.1,0c0,0,0,0,0,0c-0.1,0-0.1,0,0,0c0,0,0.1,0,0.1,0c0,0,0.1,0,0.1,0
					c0,0,0,0-0.1,0c0,0,0,0,0,0c0,0,0.1,0,0.1,0c0,0,0.1,0,0.1,0c-0.1,0-0.1,0,0,0c0,0,0,0,0,0c0.1,0,0.1,0,0.2,0c0,0,0,0,0.1,0
					c0,0,0,0,0,0c0,0-0.1,0,0,0c0.1,0,0.2,0,0.3,0c0.1,0,0.2-0.1,0.2-0.1c0,0,0.1-0.1,0.1-0.2c0-0.1-0.1-0.1-0.1-0.1
					c-0.5-0.1-1.1,0-1.6,0.3c-0.1,0-0.2,0.1-0.2,0.1c0,0,0,0.1,0,0.1C45,99.6,45.2,99.6,45.4,99.5L45.4,99.5z"/>
			</g>
		</g>
		<g>
			<g>
				<path class="st7" d="M47.7,99.1c0.4,0.1,0.7,0.1,1.1,0.2c0.1,0,0.2,0,0.3,0c0.1,0,0.2-0.1,0.2-0.1c0,0,0.1-0.1,0.1-0.1
					c0-0.1-0.1-0.1-0.1-0.1c-0.4-0.1-0.7-0.1-1.1-0.2c-0.1,0-0.2,0-0.3,0c-0.1,0-0.2,0.1-0.2,0.1c0,0-0.1,0.1-0.1,0.1
					C47.5,99.1,47.6,99.1,47.7,99.1L47.7,99.1z"/>
			</g>
		</g>
		<g>
			<g>
				<path class="st7" d="M50.9,99.5c0.4,0.1,0.7,0.1,1.1,0.2c0.1,0,0.2,0,0.3,0c0.1,0,0.2-0.1,0.2-0.1c0,0,0.1-0.1,0.1-0.1
					c0-0.1-0.1-0.1-0.1-0.1c-0.4-0.1-0.7-0.1-1.1-0.2c-0.1,0-0.2,0-0.3,0c-0.1,0-0.2,0.1-0.2,0.1c0,0-0.1,0.1-0.1,0.1
					C50.8,99.5,50.9,99.5,50.9,99.5L50.9,99.5z"/>
			</g>
		</g>
		<g>
			<g>
				<path class="st7" d="M49.7,110.1c-0.1-0.4-0.2-0.7-0.4-1c0,0-0.1,0-0.2,0c-0.1,0-0.2,0-0.3,0.1c-0.1,0-0.2,0.1-0.2,0.1
					c0,0,0,0.1,0,0.1c0,0,0.1,0.1,0.1,0.1c0,0,0,0,0,0c0.2,0.2,0.3,0.5,0.3,0.8c0,0.1,0.1,0.1,0.1,0.1c0.1,0,0.2,0,0.3,0
					c0.1,0,0.2-0.1,0.2-0.1C49.7,110.2,49.7,110.2,49.7,110.1L49.7,110.1z"/>
			</g>
		</g>
		<g>
			<g>
				<path class="st7" d="M48.4,107.8c-0.3-0.4-0.6-0.8-0.8-1.2c0-0.1-0.1-0.1-0.2-0.1c-0.1,0-0.2,0-0.3,0.1
					c-0.1,0.1-0.3,0.2-0.2,0.3c0.3,0.4,0.6,0.8,0.8,1.2c0,0.1,0.1,0.1,0.2,0.1c0.1,0,0.2,0,0.3-0.1C48.3,108,48.5,107.9,48.4,107.8
					L48.4,107.8z"/>
			</g>
		</g>
		<g>
			<g>
				<path class="st7" d="M46.3,105c-0.2-0.5-0.5-0.9-0.8-1.3c-0.1-0.1-0.3-0.1-0.5,0c-0.1,0.1-0.3,0.2-0.2,0.3
					c0.3,0.3,0.5,0.6,0.7,1c0,0,0,0,0-0.1c0,0.1,0.1,0.2,0.1,0.2c0.1,0.2,0.3,0.2,0.4,0.1c0.1,0,0.2-0.1,0.2-0.1
					C46.3,105.1,46.4,105.1,46.3,105L46.3,105z"/>
			</g>
		</g>
		<g>
			<g>
				<path class="st7" d="M44.6,102.7c-0.2-0.3-0.4-0.5-0.5-0.8c0-0.1-0.1-0.1-0.2-0.1c-0.1,0-0.2,0-0.3,0.1
					c-0.1,0.1-0.3,0.2-0.2,0.4c0.2,0.3,0.4,0.5,0.5,0.8c0,0.1,0.1,0.1,0.2,0.1c0.1,0,0.2,0,0.3-0.1C44.5,103,44.7,102.8,44.6,102.7
					L44.6,102.7z"/>
			</g>
		</g>
		<g>
			<g>
				<path class="st7" d="M53.8,100.3c0.1,0,0.1,0,0.2,0c0,0,0,0,0.1,0c0,0,0.1,0,0,0c0.1,0,0.2,0,0.3,0.1c0,0,0.1,0,0.1,0
					c0,0,0,0,0,0c0,0,0,0,0,0c0.1,0,0.1,0,0.2,0.1c0.1,0.1,0.2,0.1,0.3,0.2c0.1,0,0.2,0,0.2,0c0.1,0,0.2,0,0.3-0.1
					c0.1-0.1,0.2-0.2,0.1-0.3c-0.4-0.3-1-0.4-1.5-0.4c-0.1,0-0.2,0-0.3,0.1c-0.1,0-0.2,0.1-0.2,0.1
					C53.6,100.2,53.7,100.3,53.8,100.3L53.8,100.3z"/>
			</g>
		</g>
		<path class="st5" d="M49.8,86.2c0.1-0.3,0.1-0.5,0.2-0.8c0.2-1.4,0.5-2.7,1-4c1.8-4.2,5.5-5.2,9.5-3.4c1.8,0.8,4,0.8,5.8-0.1
			c1.7-0.8,2.8-1.8,4.8-0.9c1.9,0.9,1.7,2.8,1.4,4.5C72,83.7,72.2,85,73.1,87c1.6,3.4,6.9,5.6,5.8,9.9c-1.1,4.2-6.4,0.7-8.7,1.5
			c-1.4,0.5-2.5,1.6-3.5,2.5c-1.5,1.2-3,1.8-4.8,2.4c-0.8,0.2-2.2,0.7-3,0.1c-2.1-1.6-0.2-5.5-3.7-6.3c-0.5-0.1-1-0.1-1.5-0.2
			c-1.8-0.3-3.6-2.1-4.5-3.6C48,90.9,49.2,88.6,49.8,86.2z"/>
		<path class="st6" d="M63.4,92.3c1.1,0,2.3-1,2.9-2c1.7-2.9-2.6-3.5-4.3-2.3c-1.4,0.9-0.9,3,0.3,3.9C62.6,92.2,63,92.3,63.4,92.3z"
			/>
		<g>
			<g>
				<path class="st7" d="M64.3,92.9c0.2,0.2,0.4,0.5,0.7,0.7c0.1,0.1,0.1,0.1,0.2,0.1c0.1,0,0.2,0,0.3,0c0.1,0,0.2-0.1,0.2-0.2
					c0-0.1,0-0.2,0-0.2c-0.2-0.2-0.4-0.5-0.7-0.7c-0.1-0.1-0.1-0.1-0.2-0.1c-0.1,0-0.2,0-0.3,0c-0.1,0-0.2,0.1-0.2,0.2
					C64.2,92.8,64.2,92.9,64.3,92.9L64.3,92.9z"/>
			</g>
		</g>
		<g>
			<g>
				<path class="st7" d="M65.5,95.3c0,0.4,0.1,0.8,0.3,1.2c0.1,0.2,0.3,0.2,0.4,0.1c0.1,0,0.2-0.1,0.2-0.1c0,0,0.1-0.1,0.1-0.2
					c-0.2-0.4-0.3-0.8-0.3-1.2c0-0.1-0.1-0.1-0.1-0.1c-0.1,0-0.2,0-0.3,0c-0.1,0-0.2,0.1-0.2,0.1C65.5,95.2,65.5,95.2,65.5,95.3
					L65.5,95.3z"/>
			</g>
		</g>
		<g>
			<g>
				<path class="st7" d="M66,97.6c0,0.5,0,1,0,1.5c0,0.1,0,0.1,0.1,0.1c0.1,0,0.2,0,0.2,0c0.1,0,0.2,0,0.3-0.1c0,0,0.1-0.1,0.1-0.2
					c0-0.5,0-1,0-1.5c0-0.1,0-0.1-0.1-0.1c-0.1,0-0.2,0-0.2,0c-0.1,0-0.2,0-0.3,0.1C66.1,97.5,66,97.5,66,97.6L66,97.6z"/>
			</g>
		</g>
		<g>
			<g>
				<path class="st7" d="M67.4,89.1c0.5,0,0.9,0,1.4,0c0.1,0,0.2,0,0.3-0.1c0.1,0,0.2-0.1,0.2-0.1c0.1-0.1-0.1-0.2-0.2-0.2
					c-0.5,0-0.9,0-1.4,0c-0.1,0-0.2,0-0.3,0.1c-0.1,0-0.2,0.1-0.2,0.1C67.2,89,67.3,89.1,67.4,89.1L67.4,89.1z"/>
			</g>
		</g>
		<g>
			<g>
				<path class="st7" d="M65.1,86.1c-0.1-0.7,0-1.5,0.3-2.2c0.1-0.4-0.6-0.4-0.7-0.1c-0.3,0.8-0.4,1.6-0.3,2.5
					c0,0.1,0.1,0.1,0.2,0.1c0.1,0,0.2,0,0.3,0C65,86.3,65.2,86.2,65.1,86.1L65.1,86.1z"/>
			</g>
		</g>
		<g>
			<g>
				<path class="st7" d="M65.7,82.3c0.2-0.4,0.4-0.8,0.8-1.2c0,0,0.1-0.1,0-0.1c0,0-0.1,0-0.2,0c-0.1,0-0.2,0-0.3,0.1
					c-0.1,0-0.2,0.1-0.2,0.1c-0.3,0.4-0.6,0.8-0.8,1.2c0,0.1,0.2,0.1,0.3,0.1c0.1,0,0.2,0,0.3-0.1C65.6,82.4,65.7,82.4,65.7,82.3
					L65.7,82.3z"/>
			</g>
		</g>
		<g>
			<g>
				<path class="st7" d="M67.4,78.9c0.3-0.5,0.6-0.9,1-1.3c0.1-0.1-0.1-0.1-0.2-0.1c-0.2,0-0.4,0.1-0.5,0.2C67.4,78,67,78.5,66.7,79
					c0,0,0,0.1,0.1,0.1c0.1,0,0.2,0,0.2,0c0.1,0,0.2,0,0.3-0.1C67.3,79,67.4,78.9,67.4,78.9L67.4,78.9z"/>
			</g>
		</g>
		<g>
			<g>
				<path class="st7" d="M58.3,78.5c0,0.7,0,1.4,0,2.1c0,0.2,0.2,0.2,0.3,0.2c0.1,0,0.4-0.1,0.4-0.3c0-0.7,0-1.4,0-2.1
					c0-0.2-0.2-0.2-0.3-0.2C58.6,78.3,58.3,78.3,58.3,78.5L58.3,78.5z"/>
			</g>
		</g>
		<g>
			<g>
				<path class="st7" d="M58.3,82.2c0,0.4,0.1,0.8,0.4,1.2c0,0,0.1,0.1,0.2,0.1c0.1,0,0.2,0,0.3-0.1c0.1,0,0.3-0.1,0.2-0.3
					c-0.1-0.1-0.1-0.1-0.1-0.2c0,0,0,0,0,0c-0.2-0.3-0.2-0.6-0.2-0.9c0,0,0,0,0,0c0,0,0,0,0,0c0-0.1,0-0.1-0.1-0.1
					c-0.1,0-0.2,0-0.2,0c-0.1,0-0.2,0-0.3,0.1C58.4,82.1,58.3,82.2,58.3,82.2L58.3,82.2z"/>
			</g>
		</g>
		<g>
			<g>
				<path class="st7" d="M58.8,85.6c0,0.9,0.5,1.7,1.2,2.2c0.1,0.1,0.4,0.1,0.5,0c0.1-0.1,0.2-0.3,0-0.4c-0.6-0.4-1-1.1-1.1-1.9
					c0-0.2-0.2-0.2-0.3-0.2C59.1,85.3,58.8,85.4,58.8,85.6L58.8,85.6z"/>
			</g>
		</g>
		<g>
			<g>
				<path class="st7" d="M51.3,88.8c0.1,0,0.1,0,0.2,0c0,0,0.1,0,0.1,0c0,0,0,0,0.1,0c0,0,0,0,0,0c0.1,0,0.3,0.1,0.4,0.1
					c0.3,0.1,0.5,0.2,0.7,0.4c0.1,0.1,0.3,0,0.5,0c0.1,0,0.3-0.2,0.2-0.3c-0.5-0.4-1.1-0.6-1.7-0.7c-0.2,0-0.4,0-0.5,0.1
					c0,0-0.1,0.1-0.1,0.1C51.1,88.8,51.2,88.8,51.3,88.8L51.3,88.8z"/>
			</g>
		</g>
		<g>
			<g>
				<path class="st7" d="M55.6,90.4c0.2,0,0.5,0,0.7,0c0.1,0,0.2,0,0.3-0.1c0.1,0,0.2-0.1,0.2-0.1c0,0,0-0.1,0-0.2
					c-0.1,0-0.1-0.1-0.2-0.1c-0.2,0-0.5,0-0.7,0c-0.1,0-0.2,0-0.3,0.1c-0.1,0-0.2,0.1-0.2,0.1c0,0,0,0.1,0,0.2
					C55.5,90.4,55.6,90.4,55.6,90.4L55.6,90.4z"/>
			</g>
		</g>
		<g>
			<g>
				<path class="st7" d="M59.2,90.8c0.5,0.1,1,0,1.5-0.1c0.1,0,0.2-0.1,0.2-0.1c0,0,0.1-0.1,0.1-0.2c-0.1-0.2-0.3-0.1-0.4-0.1
					c-0.1,0-0.1,0-0.2,0c0,0-0.1,0-0.1,0c0.1,0,0.1,0,0,0c0,0,0,0,0,0c-0.1,0-0.2,0-0.3,0c0,0-0.1,0-0.1,0c0.1,0,0.1,0,0,0
					c0,0,0,0,0,0c-0.1,0-0.1,0-0.2,0c-0.1,0-0.2,0-0.3,0c-0.1,0-0.2,0-0.3,0.1c-0.1,0-0.2,0.1-0.2,0.2c0,0.1,0,0.1,0,0.2
					C59,90.7,59.1,90.8,59.2,90.8L59.2,90.8z"/>
			</g>
		</g>
		<g>
			<g>
				<path class="st7" d="M70.3,88.8c0.5-0.2,1-0.4,1.5-0.6c0,0,0.3-0.1,0.2-0.2c0,0-0.1,0-0.2,0c-0.1,0-0.2,0-0.3,0.1
					c-0.5,0.2-1,0.4-1.5,0.6c0,0-0.3,0.1-0.2,0.2c0,0,0.1,0,0.2,0C70.1,88.8,70.2,88.8,70.3,88.8L70.3,88.8z"/>
			</g>
		</g>
	</g>
</g>
</svg>
