<?xml version="1.0" encoding="utf-8"?>
<!-- Generator: Adobe Illustrator 26.0.1, SVG Export Plug-In . SVG Version: 6.00 Build 0)  -->
<svg version="1.1" id="Layer_1" xmlns="http://www.w3.org/2000/svg" xmlns:xlink="http://www.w3.org/1999/xlink" x="0px" y="0px"
	 viewBox="0 0 120 140" style="enable-background:new 0 0 120 140;" xml:space="preserve">
<style type="text/css">
	.st0{opacity:0.5;fill:#3488B7;}
	.st1{opacity:0.5;fill:#FFFFFF;}
	.st2{opacity:0.5;fill:#FBB03B;}
	.st3{fill:#CCCCCC;stroke:#CCCCCC;stroke-miterlimit:10;}
	.st4{fill:#CCCCCC;}
	.st5{fill:#FFFFFF;stroke:#FFFFFF;stroke-width:0.9174;stroke-miterlimit:10;}
	.st6{fill:#FFFFFF;}
</style>
<g>
	<path class="st0" d="M0,5v130c0,2.8,2.2,5,5,5h110c2.8,0,5-2.2,5-5V5c0-2.8-2.2-5-5-5H5C2.3,0,0,2.2,0,5z"/>
	<path class="st1" d="M0.2,46.7c0-0.6,7.8-1.9,8.4-2c13.1-2.3,26.8-1.7,39.7,0.9c6.1,1.2,12.5,2.2,18.8,1.6c3.3-0.3,6.3-1.2,9.3-2.3
		c3-1.1,6.4-1.7,9.7-2.1c2.9-0.4,5.9-0.5,8.8-0.3c4.3,0.3,8,2.1,12.3,2.4c2.1,0.2,4.1,0.2,6.2,0c0.7-0.1,6.6-0.7,6.6-1.3
		c0,0,0.1,3.2,0.1,3.2c-4.9-0.7-10-1.1-14.9-1.3c-4.6-0.2-9.2-0.2-13.8,0.1c-5,0.3-9.7,1.3-14.6,2c-8.9,1.3-18,1.9-27,2
		c-5.3,0.1-10.5-0.7-15.7-1.2c-4.4-0.4-8.8-0.5-13.2-0.7c-4.1-0.1-8.3-0.2-12.4,0c-2.3,0.1-5.9,0.1-7.8,1.3
		c-0.2,0.1-0.4,0.3-0.5,0.4C0.2,49.4,0.2,46.7,0.2,46.7z"/>
	<path class="st1" d="M0.2,45.6c0-0.6,7.8-1.9,8.4-2c13.1-2.3,26.8-1.7,39.7,0.9c6.1,1.2,12.5,2.2,18.8,1.6c3.3-0.3,6.3-1.2,9.3-2.3
		c3-1.1,6.4-1.7,9.7-2.1c2.9-0.4,5.9-0.5,8.8-0.3c4.3,0.3,8,2.1,12.3,2.4c2.1,0.2,4.1,0.2,6.2,0c0.7-0.1,6.6-0.7,6.6-1.3
		c0,0,0.1,3.2,0.1,3.2c-4.9-0.7-10-1.1-14.9-1.3c-4.6-0.2-9.2-0.2-13.8,0.1c-5,0.3-9.7,1.3-14.6,2c-8.9,1.3-18,1.9-27,2
		c-5.3,0.1-10.5-0.7-15.7-1.2c-4.4-0.4-8.8-0.5-13.2-0.7c-4.1-0.1-8.3-0.2-12.4,0c-2.3,0.1-5.9,0.1-7.8,1.3
		c-0.2,0.1-0.4,0.3-0.5,0.4C0.2,48.3,0.2,45.6,0.2,45.6z"/>
	<path class="st1" d="M120.2,70.9c-1.8,0.4-3.5,0.9-5.1,1.5c-4.5,1.7-9,2.9-14,3.4c-9.6,0.9-19.2-0.6-28.4-2.4
		c-19.5-3.8-40-4.8-59.9-1.3c-0.9,0.2-12.8,2.1-12.7,3.1c0,0,0.1,4.1,0.1,4.1C0.4,79,0.7,78.8,1,78.6c2.9-1.8,8.2-1.8,11.7-2
		c6.2-0.3,12.5-0.2,18.7-0.1c6.6,0.2,13.3,0.4,19.9,1c7.9,0.7,15.7,1.9,23.7,1.8c13.6-0.1,27.3-1.1,40.7-3c1.5-0.2,3.1-0.5,4.6-0.7"
		/>
	<path class="st1" d="M120,69.4c-1.7,0.4-3.3,0.9-4.9,1.5c-4.5,1.7-9,2.9-14,3.4c-9.6,0.9-19.2-0.6-28.4-2.4
		c-19.5-3.8-40-4.8-59.9-1.3c-0.9,0.2-12.8,2.1-12.7,3.1c0,0,0.1,4.1,0.1,4.1c0.2-0.3,0.5-0.4,0.8-0.6c2.9-1.8,8.2-1.8,11.7-2
		c6.2-0.3,12.5-0.2,18.7-0.1c6.6,0.2,13.3,0.4,19.9,1C59.1,76.8,67,78,75,77.9c13.6-0.1,27.3-1.1,40.7-3c1.5-0.2,2.9-0.4,4.4-0.7"/>
	<path class="st1" d="M-0.2,11.1c4,0.5,8,1.2,12,2c9.2,1.8,18.8,3.3,28.4,2.4c5-0.5,9.5-1.7,14-3.4c4.5-1.7,9.7-2.5,14.6-3.2
		c4.4-0.6,8.9-0.8,13.3-0.5c6.5,0.5,12.1,3.1,18.6,3.6c3.1,0.2,6.2,0.3,9.4,0c1.1-0.1,9.9-1.1,9.9-2c0,0,0.1,4.8,0.1,4.8
		c-7.4-1.1-15-1.7-22.6-2c-6.9-0.3-13.9-0.3-20.8,0.1c-7.5,0.5-14.7,2-22,3.1c-13.4,1.9-27.1,2.9-40.7,3c-4.8,0-9.5-0.4-14.2-0.8"/>
	<path class="st1" d="M-0.2,10.3c4,0.5,8,1.2,12,2c9.2,1.8,18.8,3.3,28.4,2.4c5-0.5,9.5-1.7,14-3.4c4.5-1.7,9.7-2.5,14.6-3.2
		c4.4-0.6,8.9-0.8,13.3-0.5c6.5,0.5,12.1,3.1,18.6,3.6c3.1,0.2,6.2,0.3,9.4,0c1.1-0.1,9.9-1.1,9.9-2c0,0,0.1,4.8,0.1,4.8
		c-7.4-1.1-15-1.7-22.6-2c-6.9-0.3-13.9-0.3-20.8,0.1c-7.5,0.5-14.7,2-22,3.1c-13.4,1.9-27.1,2.9-40.7,3c-4.8,0-9.5-0.4-14.2-0.8"/>
	<circle class="st1" cx="14.3" cy="8" r="0.9"/>
	<circle class="st1" cx="16.1" cy="2.2" r="1"/>
	<circle class="st1" cx="22.8" cy="3.2" r="1.9"/>
	<circle class="st1" cx="47.2" cy="44.2" r="0.9"/>
	<circle class="st1" cx="43.1" cy="39.8" r="1"/>
	<circle class="st1" cx="47.3" cy="34.4" r="1.9"/>
	<circle class="st1" cx="87.9" cy="57.6" r="1.1"/>
	<circle class="st1" cx="92.7" cy="62.7" r="1.4"/>
	<circle class="st1" cx="87.1" cy="69.1" r="1.6"/>
	<circle class="st1" cx="41.1" cy="100" r="0.9"/>
	<circle class="st1" cx="37.1" cy="95.4" r="1"/>
	<circle class="st1" cx="41.4" cy="90.2" r="1.9"/>
	<circle class="st1" cx="93.7" cy="112.7" r="1.1"/>
	<circle class="st1" cx="91.3" cy="106.2" r="1.4"/>
	<circle class="st1" cx="98.9" cy="102.4" r="1.6"/>
	<path class="st2" d="M0,124.2c9.6-5.1,19.5-9.3,29.5-12.5c5.6-1.8,11.2-3.3,16.8-3.9c7.7-0.9,15.5,1.3,23.1,2.6
		c3.6,0.6,7.1,1.4,10.6,3c1.7,0.7,3.3,1.7,4.9,2.8c2.3,1.7,3.9,3.4,6.6,3.2c4.8-0.3,9.5-1.3,14.2-1.1c4.7,0.1,10,0.3,14.3,3.8v13
		c0,2.8-2.2,5-5,5H5c-2.8,0-5-2.2-5-5L0,124.2z"/>
</g>
<g>
	<path class="st3" d="M55.4,113.2c0,0-3.4,3-5.7-0.9c0,0-2.8-1.8-3.6-3.5c0,0-1.8-3.1-2.4-3.5c0,0-1.4-3.1,1.7-1c0,0,1,1.3,1.5,1.4
		c0,0,1.2-1.7,2.5-1.7c0,0,1-5.1,2.1-5c0,0,2-2.7,3.9,3.1c0,0,0.6,1,2.7-0.5c0,0,3.1-4.2,4.3-3.9c0,0,2.5-1.2,0,2.7
		c0,0,0.2,1.4-2.2,3.1l-2.1,1.8c0,0,0.4,0.9-0.1,1.8c0,0,0.3,1.8,1.6,1.3c0,0,2.9-1.8,4.5-2l2.4-1.6c0,0,5.2-0.5,0,2.6
		c0,0-4.1,1.9-5.8,2.8C60.9,110.3,57.8,112.6,55.4,113.2z"/>
	<g>
		<path class="st4" d="M43.2,103.5c-1.2-2.1-3.1-4.3-4.6-6.4c-0.5-0.6-0.1-1.7-0.3-2.3c-0.3-0.5-1.1-1.1-1.6-1.6
			c-1-0.7-1.9-1.8-2.6-2.9c-0.9-0.9-1.9-1.6-2.6-2.7c-1.6-1.8-3.8-3.5-5.1-5.7c-0.2-0.3-0.9-1.2-1.1-1.6c-0.6-0.8-2-0.5-2.7-1.5
			c-0.6-0.8-0.8-1.6-1.4-2c-0.6-0.5-1.7-0.6-2.1-1.4c-0.9-1.5-1-3.1-1.3-4.8c0.5,1.5,0.9,3.2,1.7,4.5c0.4,0.6,1.3,0.6,2.1,1.2
			c0.8,0.6,1.1,1.5,1.6,2.1c0.4,0.6,2.2,0.5,2.8,1.5c0.2,0.3,0.9,1.2,1.1,1.6c1.4,2.2,3.3,3.6,5.1,5.5c0.6,0.7,1.1,1.3,1.7,1.7
			c1.4,1,2,2.7,3.5,3.7c0.7,0.6,1.4,1.1,1.9,2c0.2,0.6,0.1,1.1,0.1,1.5c0,0.4,0,0.5,0.2,0.8c0,0,1.5,2.1,1.5,2.1
			c1,1.4,2.1,2.7,2.9,4.3c0.1,0.2,0,0.6-0.2,0.7C43.7,103.8,43.4,103.7,43.2,103.5L43.2,103.5z"/>
	</g>
	<g>
		<path class="st4" d="M40.7,99.9c-0.8,0-1.7-0.1-2.3,0.2c-1.3,0.9-2.7,2.5-4.5,2.5c0,0-2.5,0.3-2.5,0.3l2.5-0.6
			c2.5-0.2,3.1-3.2,5.5-3.3c0.6,0,1.7-0.4,1.8,0.4C41.3,99.6,41,99.9,40.7,99.9L40.7,99.9z"/>
	</g>
	<g>
		<path class="st4" d="M36.6,101.2c-1.5-0.2-3.8,0-5-1.3c-1.7-1.5-2.9-3.7-3.3-5.9c-0.2-0.4-0.8-0.6-1.3-0.9
			c0.6,0.1,1.2,0.2,1.6,0.7c0.4,0.5,0.4,1.1,0.6,1.6c0.9,1.7,2.3,3.9,4.2,4.5c1,0.2,2.1,0.2,3.3,0.3c0.3,0,0.5,0.3,0.5,0.5
			C37.2,101,36.9,101.3,36.6,101.2L36.6,101.2z"/>
	</g>
	<g>
		<path class="st4" d="M29.8,97.6c-1.2-0.9-2.7-1.5-4.2-1.8c0,0-1.8-0.7-1.8-0.7c0.8,0.2,2.1,0.6,3,0.7c1.2,0.2,2.2,0.8,3.3,1.4
			c0.1,0.1,0.2,0.2,0.1,0.4C30.1,97.7,30,97.7,29.8,97.6L29.8,97.6z"/>
	</g>
	<g>
		<path class="st4" d="M38.6,96.4c-1.2-0.2-2.8-0.2-3.9-0.9c-1.5-0.9-1.8-2-3.1-2.5c-0.5-0.3-0.7-0.4-1.2-0.7
			c-0.1-0.1-0.4-0.5-0.5-0.6c-0.4-0.5-0.9-0.9-1.4-1.3c-0.6-0.4-1.6-0.8-2.1-1.6c0,0-0.3-0.4-0.3-0.4c-0.3-0.6-1.9-2.7-2.4-3.4
			c0,0,0,0,0,0l0,0l-0.5-1c-0.5-1.1-1.3-1.6-2.1-2.5c-0.8-1.4-1.9-2-3.2-2.9c0.7,0.4,1.3,0.7,2,1c0.7,0.3,1.1,1.1,1.6,1.6
			c0.7,0.8,1.8,1.5,2.3,2.5l0.6,0.9l0,0l2,2.5c0,0,0,0,0,0c0.2,0.3,0.6,1,0.8,1.2c0.4,0.6,1.1,0.8,1.9,1.3c0.8,0.5,1.5,1.5,2.1,1.9
			c0.9,0.5,1.9,0.9,2.6,1.7c0.2,0.2,0.8,0.8,1,1c1.3,0.8,2.6,0.7,4.1,1C39.5,95.6,39.2,96.6,38.6,96.4L38.6,96.4z"/>
	</g>
	<g>
		<path class="st4" d="M29.5,91.7c-0.8,0-2.1,0.1-2.8-0.1c-0.5-0.1-0.6,0-1,0.4c-1.9,2-4.4,1.3-6.8,0.7c1.7,0.2,3.8,0.8,5.3-0.3
			c0.6-0.4,1-1,1.6-1.4c0.8-0.3,1.5,0,2.2-0.2c0,0,1.4-0.1,1.4-0.1C30.2,90.7,30.2,91.7,29.5,91.7L29.5,91.7z"/>
	</g>
	<g>
		<path class="st4" d="M28.6,91.2c-1.1-0.5-2.4-1.1-3.6-1.4c-0.4-0.2-1.2,0.1-2-0.3c-1.2-0.8-2-1.6-3.3-2.2
			c-1.1-0.7-2.2-1.4-3.6-1.2c-0.7,0-1.3,0.1-2,0.3c0.6-0.2,1.3-0.3,2-0.4c1.4-0.3,2.6,0.3,3.8,1c1.2,0.5,2.3,1.4,3.4,2
			c0.4,0.2,1-0.1,1.9,0.1c1.4,0.4,2.5,0.8,3.8,1.4C29.7,90.5,29.2,91.5,28.6,91.2L28.6,91.2z"/>
	</g>
	<g>
		<path class="st4" d="M20.7,87.8l-2.4-3.6c-0.5-1.1-1.1-2.7-1.5-3.9c0.5,1.1,1.3,2.8,1.8,3.7c0,0,2.6,3.5,2.6,3.5
			C21.3,87.8,20.9,88.1,20.7,87.8L20.7,87.8z"/>
	</g>
	<g>
		<path class="st4" d="M41.7,100.5c0-0.6,0-3,0.1-3.6c0.2-0.7,0.8-1.3,1.1-1.9c0.5-0.9-0.1-1.7-0.2-2.6c0-0.9,0.5-1.9,0.7-2.8
			c0,0-0.3,1.4-0.3,1.4c-0.1,0.5-0.2,0.9-0.1,1.4c0.2,0.9,0.9,1.9,0.4,2.9c-0.3,0.7-0.7,1.2-0.8,1.8c0,0.4,0.1,3,0.1,3.4
			C42.7,101.2,41.7,101.2,41.7,100.5L41.7,100.5z"/>
	</g>
	<g>
		<path class="st4" d="M38,93.8c0-1.1,0.5-2.4,0.2-3.4c-0.3-0.6-0.4-1.1-0.9-1.4c-1-0.7-2.2-1.3-2.8-2.4c-0.3-0.5-0.7-1-0.8-1.7
			c-0.1-0.6,0-1.2,0.1-1.8l0.1-1.8l0.1,1.8c0,0.6,0,1.2,0.1,1.8c0.3,1,1.1,2.1,2.1,2.7c0.8,0.5,1.8,0.8,2.3,1.6
			c0.2,0.3,0.3,0.6,0.4,0.8c0.6,1.3,0.1,2.5,0.1,3.8C39,94.5,38,94.5,38,93.8L38,93.8z"/>
	</g>
	<g>
		<path class="st4" d="M37.8,89.3c-0.1-0.4-0.4-0.9-0.3-1.4c0.2-0.9,0.9-1.6,1-2.6c0,0,0.2-1.4,0.2-1.4c0,0,0.7-2.1,0.7-2.1
			c0,0-0.6,2.2-0.6,2.2c0,0-0.1,1.4-0.1,1.4c0,0.9-0.6,1.9-0.8,2.6c0,0.4,0.2,0.8,0.4,1.2C38.5,89.6,37.9,89.8,37.8,89.3L37.8,89.3z
			"/>
	</g>
	<g>
		<path class="st4" d="M30.6,86.4c0.1-1.5,0.4-2.9,0.2-4.3c-0.1-0.4-0.3-0.7-0.7-1c-0.4-0.3-0.8-0.5-1.2-0.9c-0.6-0.7-1.9-1.1-2-2.2
			c-0.1-0.5-0.1-1-0.3-1.3c-0.2-0.6-0.9-1-1.3-1.5c-0.5-0.5-0.6-1.2-0.8-1.8c0.2,0.6,0.4,1.3,0.9,1.7c0.5,0.6,1.1,0.8,1.4,1.5
			c0,0,0-0.1,0-0.1c0.5,0.7,0.1,1.5,0.6,2c1,0.7,1.8,1.5,3,2.1c1.9,1.2,1.1,3.9,1.3,5.7C31.6,87.1,30.5,87.1,30.6,86.4L30.6,86.4z"
			/>
	</g>
	<g>
		<path class="st4" d="M30.6,81.6c0-0.8,0.4-1.4,0-2.1c-0.3-0.7-0.7-1.4-0.9-2.1c-0.2-0.6,0.4-0.9,0.7-1.3c-0.3,0.4-0.8,0.8-0.5,1.3
			c0.4,0.8,1.4,1.8,1.4,2.8c0,0.5-0.1,1.1,0,1.5c0,0.2-0.1,0.3-0.3,0.3C30.8,82,30.6,81.8,30.6,81.6L30.6,81.6z"/>
	</g>
	<g>
		<path class="st4" d="M30.5,92.1c0.3-0.7,0.6-1.2,0.8-1.8c0-0.1,0-0.2,0.1-0.1c-0.3-0.4-0.9-0.9-0.9-1.4c0,0-0.1-1.4-0.1-1.4
			l0.4,1.3c0.2,0.6,0.8,0.7,1.2,1.2c0.2,0.3,0.1,0.4,0.1,0.6c-0.1,0.8-0.5,1.4-0.6,2.1C31.3,93,30.3,92.7,30.5,92.1L30.5,92.1z"/>
	</g>
	<g>
		<path class="st4" d="M51.9,98.3c-0.4-2.2-0.5-4.5-1.2-6.7c-0.4-1.1-0.8-2.2-1-3.3c-0.4-1.7-0.5-3.5-0.7-5.2c0-0.6-0.3-1-0.8-1.4
			c-1.2-1.1-1.7-2.9-2.5-4.2c-0.2-0.4-0.8-0.8-1.1-1.1c-2.6-2.3-5.4-4.2-7.8-6.9c-1.5-1.8-3-3.1-5-4.3c-1.6-1-3.9-2.7-5.9-2.8
			c-1.6-0.5-3.7-0.5-5-1.7c-2.7-2.5,0.4,0,1.8,0c0.9,0,2.5,0.2,3.4,0.4c2.4,0.2,4.5,1.6,6.5,2.8c2,1.1,3.9,2.8,5.3,4.6
			c2.2,2.5,5,4.6,7.6,6.8c0.4,0.4,1,0.9,1.3,1.4c0.9,1.6,1.2,3.1,2.6,4.3c0.9,0.9,0.9,2.5,1,3.6c0.1,1.1,0.2,2.2,0.5,3.3
			c0.2,1.1,0.6,2.1,1,3.2c0.7,2.2,0.8,4.6,1.1,6.8C53,98.7,52,98.9,51.9,98.3L51.9,98.3z"/>
	</g>
	<g>
		<path class="st4" d="M50.1,87.9c0,0,1.6-1.3,1.5-1.2c0.3-0.3,0.9-0.6,1.1-1c0-0.1,0-0.5,0-0.8c0-0.5,0.1-2,0.1-2.5
			c0-0.6,0.3-1.1,0.7-1.6c-0.4,1.1-0.2,2.2-0.1,3.3c0,0.6,0.1,1.1,0.1,1.8c-0.2,0.8-0.8,1-1.2,1.5c0,0-1.5,1.3-1.5,1.3
			C50.3,89.1,49.6,88.3,50.1,87.9L50.1,87.9z"/>
	</g>
	<g>
		<path class="st4" d="M50.8,92.1c-0.7-0.7-2-1.2-2.4-2.2c-0.4-1.3-0.5-2.9-1.9-3.6c-0.3-0.2-0.8-0.2-1.1-0.5l-0.9-0.9l1,0.8
			c0.3,0.2,0.8,0.2,1.2,0.4c0.8,0.3,1.5,1,1.8,1.8c0.2,0.4,0.6,1.4,0.7,1.7c0.6,0.8,1.6,1,2.4,1.8c0.2,0.2,0.2,0.5,0.1,0.7
			C51.3,92.3,51,92.3,50.8,92.1L50.8,92.1z"/>
	</g>
	<g>
		<path class="st4" d="M49.2,82.4c0.1-0.6,0.2-1.1,0.3-1.6c0.2-0.6,0-0.9,0.2-1.5c0.3-0.9,0.4-1.5,0.8-2.3c0.6-0.7,1-1.3,1.9-1.7
			c0.3-0.1,0.8-0.4,1.2-0.5c0.5-0.1,1.6,0.2,1.7-0.1c0.7-1,1.4-2.1,2.1-3.1c-0.4,1.2-1,2.3-1.6,3.4c-0.5,0.8-1.6,0.2-2.3,0.6
			c0,0-0.7,0.4-0.7,0.4c-0.5,0.2-1.1,1.1-1.4,1.5c-0.2,0.6-0.4,1.6-0.6,2.1c0,0.4,0,1.2-0.1,1.5c-0.1,0.4-0.2,1.1-0.3,1.6
			C50.1,83.1,49.2,83,49.2,82.4L49.2,82.4z"/>
	</g>
	<g>
		<path class="st4" d="M50.5,77l0.1-1.7c0.1-0.5,0-1.4,0.6-1.6c0,0,0.4-0.2,0.4-0.2c0.5-0.2,0.9-0.6,1.3-0.8
			c0.2-0.2,0.5-1.2,0.6-1.5c0.6-1.6,0.9-3.4,0.8-5c-0.3-0.5-0.6-1-0.9-1.5c0.4,0.5,0.8,0.9,1.2,1.4c0.2,0.3,0.1,0.7,0.1,1
			c0.1,1.8-0.1,3.7-0.7,5.4c-0.1,0.4-0.4,1.1-0.9,1.3c-0.4,0.2-0.8,0.6-1.2,0.7c0,0-0.4,0.1-0.4,0.1c0,0,0.1-0.1,0.1-0.1
			c0,0,0,0.1-0.1,0.1c-0.2,0.9-0.1,1.7-0.4,2.6c-0.1,0.2-0.3,0.3-0.5,0.2C50.5,77.5,50.4,77.2,50.5,77L50.5,77z"/>
	</g>
	<g>
		<path class="st4" d="M50.6,74.9c0.3-1.5,0.4-3.4,0.4-4.9c-0.1-0.4-0.7-0.7-1.1-1.2c-0.4-0.6-0.4-1.2-0.4-1.8
			c0.1-0.6,0.1-1.1-0.2-1.6c-0.6-1-1.3-1.9-2.1-2.8c1.1,1.3,3,2.6,2.7,4.4c0,0.5,0.1,1.1,0.4,1.5c0.3,0.4,0.9,0.5,1.3,1.3
			c0.2,0.4,0.2,0.7,0.2,1c0,0.9,0,1.8-0.1,2.6c0,0.6,0,1.1-0.2,1.9c-0.1,0.3-0.3,0.4-0.6,0.4C50.7,75.5,50.5,75.2,50.6,74.9
			L50.6,74.9z"/>
	</g>
	<g>
		<path class="st4" d="M49.4,85.3c-1-0.7-2.6-1.2-3.6-2c-0.5-0.4-0.9-0.8-1.3-1.3c-0.1-0.1-0.2-0.2-0.4-0.2c-0.4,0-0.8,0-1.2,0
			c-0.5-0.1-1.2-0.7-1.6-0.9c0,0-2-1.5-2-1.5c0,0,2.2,1.4,2.1,1.4c0,0,1.1,0.5,1.1,0.5c0.5,0.4,1.1,0.1,1.7,0.1c0.7,0,1.1,0.7,1.6,1
			c0.6,0.5,1.3,0.8,2,1.1c0.7,0.3,1.5,0.5,2.3,1c0.2,0.2,0.3,0.5,0.1,0.7C50,85.5,49.6,85.5,49.4,85.3L49.4,85.3z"/>
	</g>
	<g>
		<path class="st4" d="M46.3,83.2c0,0-1.3-2.4-1.2-2.3c-0.5-0.7-1.1-1.5-1.1-2.3c0,0-0.1-0.9-0.1-0.9l0.2,0.8
			c0.2,0.9,0.8,1.5,1.4,2.1c0,0,1.3,2.2,1.3,2.2C47,83.2,46.5,83.5,46.3,83.2L46.3,83.2z"/>
	</g>
	<g>
		<path class="st4" d="M43.6,75.6c-0.3,0.3-0.5,0.9-1.1,1.2c-1.5,0.8-3.2,0.5-4.7-0.1c1.4,0.3,3.1,0.3,4.2-0.5
			c0.3-0.3,0.4-0.7,0.7-1.2C43.1,74.3,44.1,75,43.6,75.6L43.6,75.6z"/>
	</g>
	<g>
		<path class="st4" d="M44.7,75c0.8-1,1.7-1.2,1.1-2.6c-0.1-0.2-0.1-0.5-0.1-0.7c0.1-1.8-0.1-3.6,0.2-5.4c0.2-1.6,0.7-3.1,1.1-4.6
			c-0.1-0.7-0.7-1.4-0.9-2.1c-0.3-0.8-0.4-1.5-0.6-2.3c0.5,1.1,0.8,2.2,1.5,3.2c0.2,0.4,0.5,0.7,0.5,1.2c0,0.9-0.4,1.5-0.5,2.4
			c-0.6,2.5-0.5,5-0.3,7.6c0,0.7,0.4,1,0.3,1.8c-0.2,1-1,1.5-1.5,2.1C45.1,76.1,44.3,75.5,44.7,75L44.7,75z"/>
	</g>
	<g>
		<path class="st4" d="M46.1,73.2c0.4-0.5,0.8-0.7,1.2-1.1c0.6-0.7,0.4-1.1,0.5-1.9c0,0,0-1.3,0-1.3c-0.3-0.4-0.4-1.8-0.8-2.4
			c-0.2-0.3-0.6-0.7-0.8-1c-0.3-0.4-0.6-0.7-0.8-1.1c0.7,0.6,1.4,1.2,2,1.9c0.6,0.9,0.8,1.7,1,2.7c0,0,0,1.3,0,1.3
			c0,0.6,0.2,1.6-0.3,2.1c-0.2,0.4-0.6,0.7-0.9,1c-0.2,0.2-0.3,0.3-0.4,0.4C46.5,74.1,45.8,73.6,46.1,73.2L46.1,73.2z"/>
	</g>
	<g>
		<path class="st4" d="M41.5,72.6c0.4-1,1-2.6,1.7-3.4c0.8-0.8,0.1-1.6,0-2.5c-0.1-0.5,0-1.1,0.2-1.6c0.1-0.5,0.5-1,0.3-1.2
			c-0.2-0.4-0.6-0.8-0.8-1.3c-0.4-0.9-0.5-2-0.6-3c0.4,0.9,0.5,2,1,2.8c0.3,0.6,1,1,1.1,1.7c0,0.4-0.2,0.8-0.3,1.2
			c-0.5,1.3,0.6,2.4,0.4,3.8c-0.3,0.7-0.9,1.4-1.1,2c0,0-0.8,2.1-0.8,2.1C42.2,73.6,41.3,73.2,41.5,72.6L41.5,72.6z"/>
	</g>
	<g>
		<path class="st4" d="M37.3,68.8c0-1.6-0.1-3.3,0.8-4.7c0.9-1.8,2.2-3.2,2.7-5.1c0,0,0.5-1.4,0.5-1.4c0.7-1.4,0.8-2.7,0.9-4.2
			c0.1,0.5,0.1,1,0.2,1.5c0.1,1.5-0.7,2.9-1,4.3c-0.3,0.9-0.7,1.9-1.2,2.7c-0.8,1.5-1.8,2.9-1.9,4.6c0,0.8,0,1.5,0,2.3
			c0,0.3-0.2,0.5-0.5,0.5C37.5,69.3,37.3,69.1,37.3,68.8L37.3,68.8z"/>
	</g>
	<g>
		<path class="st4" d="M39,62.6c-0.3-1.5-0.5-3.2-0.8-4.7c-0.2-0.4-0.5-0.9-0.8-1.4c0.4,0.4,0.8,0.7,1.1,1.2
			c0.3,0.5,0.3,1.1,0.4,1.6c0.2,1,0.5,2.1,0.7,3.1c0,0.2-0.1,0.4-0.3,0.4C39.2,62.9,39,62.7,39,62.6L39,62.6z"/>
	</g>
	<g>
		<path class="st4" d="M40.8,73.8l-1.2,1.1l-0.1,0.1c0,0-1.2,0.6-1.2,0.6c-0.7,0.4-1.8,0.3-2.3,1c-0.2,0.4-0.2,0.8-0.4,1.3
			c0.1-0.4,0-0.9,0.2-1.3c0.2-0.5,0.7-0.7,1.1-0.9c0.8-0.3,1.6-0.9,2.2-1.3c-0.3,0.3,1.1-1.2,1-1.2C40.6,72.5,41.4,73.3,40.8,73.8
			L40.8,73.8z"/>
	</g>
	<g>
		<path class="st4" d="M38.9,71.8c-1,0.2-2,0.6-3.1,0.7c-1.2,0.1-2.1-0.6-3.1-1c-1.8-1.3-3.1-2.7-5-3.8c1,0.4,1.9,0.8,2.8,1.5
			c0.8,0.6,1.5,1.4,2.4,1.9c0.9,0.3,1.9,0.9,2.8,0.7c1-0.2,1.9-0.6,2.9-0.9c0.3-0.1,0.5,0.1,0.6,0.3C39.3,71.4,39.1,71.7,38.9,71.8
			L38.9,71.8z"/>
	</g>
	<g>
		<path class="st4" d="M34.2,72.3c-1.6,0.5-3.3,1.4-4.9,1.7c-0.4,0-0.8-0.2-1-0.4c-0.3-0.2-0.5-0.5-0.8-0.3
			c-0.3,0.1-0.6,0.4-0.8,0.6c0.4-0.3,0.8-0.9,1.3-0.8c0.4,0.2,0.9,0.6,1.3,0.5c1.5-0.5,3.2-1.5,4.6-2.1
			C34.4,71.4,34.7,72.1,34.2,72.3L34.2,72.3z"/>
	</g>
	<g>
		<path class="st4" d="M32.4,64.3c0.1-1.8-0.2-3.8,1.1-5.4c0.3-0.3,0.6-0.6,0.4-0.7c-0.6-1.2-0.7-2.7-0.6-4c0.3-1,0.5-2,0.8-3
			c0.3-0.7,0.7-1.3,1.1-2c-0.5,1.6-1,3.6-1.3,4.9c0,0.7,0,1.9,0.2,2.5c0.1,0.6,0.6,1,0.6,1.7c-0.1,0.4-0.4,0.8-0.6,1
			c-0.5,0.5-0.6,1.4-0.7,2.2c-0.1,0.8,0,1.7,0,2.6c0,0.3-0.2,0.5-0.5,0.5C32.6,64.8,32.4,64.5,32.4,64.3L32.4,64.3z"/>
	</g>
	<g>
		<path class="st4" d="M32.4,64.5c-0.9-1.5-2.2-3-3-4.7c-0.2-0.4,0-1.2-0.1-1.5c-0.2-0.4-1.1-1.5-1.1-1.9c-0.1-0.7,0.1-1.5,0.1-2.2
			c-0.2-0.8-0.5-1.7-0.7-2.5c0.4,0.8,0.7,1.6,1,2.4c0.2,0.7-0.1,1.9,0.2,2.5c0.3,0.5,0.8,1,1.1,1.5c0.2,0.6,0,1,0.2,1.5
			c0.9,1.6,2,2.9,3.1,4.5C33.7,64.6,32.8,65.1,32.4,64.5L32.4,64.5z"/>
	</g>
	<g>
		<path class="st4" d="M62.9,97.4c0.4-1.5,1.3-2.7,1.6-4.1c0.1-2.4-0.1-5,0.1-7.5c0.3-4,1.5-7.9,1.6-11.9c0,0,0,0.2,0,0.2
			c-0.4-0.7-0.8-1.4-1.1-2.1c-0.3-1.2-0.2-2.4-1-3.3c-2.6-1.8-3.7-4.7-5-7.3c-1.2-2.3-1.3-5-1.2-7.5c0.1,2.5,0.4,5.1,1.6,7.3
			c1.2,2.1,2.4,4.6,4.2,6.1c0.8,0.5,1.5,1.2,1.8,2.1c0.3,0.9,0.3,1.8,0.4,2.6c0.4,0.7,0.7,1.3,1,2c0.4,5.1-1.5,10-1.3,15
			c0,1.1,0,3.5-0.1,4.6c-0.3,1.5-1.3,2.9-1.8,4.2C63.7,98.3,62.7,98,62.9,97.4L62.9,97.4z"/>
	</g>
	<g>
		<path class="st4" d="M54.4,69l1.2-3.8c0.8-1.6,1.7-3.3,1.6-5.1c0.3,1.8-0.6,3.8-1.2,5.3c0,0-1,3.9-1,3.9
			C54.9,69.7,54.2,69.5,54.4,69L54.4,69z"/>
	</g>
	<g>
		<path class="st4" d="M64.2,94.2L63,91.8l0,0c0,0-0.5-2.1-0.5-2.1c-0.3-0.8-1-2-1.6-2.8c-0.2-0.4-0.9-1.6-1.1-2
			c-0.3-0.7-0.3-1.5-0.8-2.1c-0.3-0.4-0.7-0.7-1.1-1.1c0.4,0.3,0.8,0.6,1.1,1c0.7,0.8,0.6,1.9,1.4,2.7c0.8,1.4,2,2.6,2.7,4.1
			c0,0,0,0,0,0l0.7,2c-0.2-0.4,1.3,2.3,1.3,2.2C65.4,94.3,64.5,94.8,64.2,94.2L64.2,94.2z"/>
	</g>
	<g>
		<path class="st4" d="M65,89.6c1.1-1.3,2.6-2.5,3.7-3.5c0.6-0.6,1.3-1.5,1.9-2.1c0,0,0.9-1,0.9-1c0.6-0.7,1.2-1,1.5-2
			c0.2-0.8,0.8-1.6,1.6-1.6c0.4,0,0.8-0.1,1.2-0.1c-0.4,0.1-0.8,0.2-1.1,0.3c-1.3,0.2-1.4,1.6-1.6,2.6c-0.2,0.4-0.6,0.8-0.9,1.1
			c-0.9,1.1-1.9,2.3-2.8,3.3c-1.2,1.2-2.6,2.2-3.6,3.5C65.3,90.8,64.5,90.1,65,89.6L65,89.6z"/>
	</g>
	<g>
		<path class="st4" d="M64.9,84.8c0.6-1.4,1.6-2.5,2.4-3.6c0.8-1.1,1.5-2.9,3.1-3.1c0.8-0.1,1.5,0.1,2.1,0c0.7-0.2,1.4-0.3,1.9-0.7
			c0.2-0.2,0.4-0.5,0.6-0.8c0.6-0.9,1.7-1.4,2.7-1.8c0,0-1.6,1.4-1.6,1.4c-0.6,0.4-0.7,1.1-1.3,1.7c-0.7,0.5-1.4,0.6-2.1,0.9
			c-0.8,0.2-1.5,0-2.1,0.2c-1.3,0.3-1.8,1.8-2.4,2.9c-0.8,1.3-1.8,2.3-2.3,3.5C65.5,85.8,64.6,85.4,64.9,84.8L64.9,84.8z"/>
	</g>
	<g>
		<path class="st4" d="M69.7,78.3c0.2-0.4,0.7-1.3,0.9-1.7c0.3-0.6,1.1-1,1.5-1.4c0.4-0.3,0.8-1,1.1-1.5c0.7-0.9,1.6-1.4,2.3-2.3
			c0,0,0.9-1,0.9-1l-0.1,0.1c0,0,2-3.3,1.8-3c0.7-1.6,1.6-3.7,2-5.4c0-0.2,0.1-0.5,0.2-0.8c0.3-0.6,1.1-0.6,1.6-0.5
			c0.5,0.1,0.7,0.1,1-0.1c1.4-1.5,2.2-3.6,3-5.5c0.7-1.6,1.2-3.1,1.3-5c0.4,1.8,0,3.5-0.6,5.2c-0.6,1.7-1.4,3.2-2.2,4.8
			c-0.4,0.6-0.9,1.3-1.7,1.4c-0.5,0.1-1.3-0.2-1.5,0.1c-0.4,2.1-1.3,4.1-2.2,6.1c0,0-1.8,3.1-1.8,3.1c0,0,0,0.1-0.1,0.1l-0.9,1
			c-0.6,0.8-1.7,1.4-2.3,2.2c-0.4,0.5-0.7,1.1-1.3,1.6c-0.5,0.5-1.1,0.6-1.4,1.1c-0.2,0.4-0.7,1.3-0.9,1.7
			C70.2,79.1,69.5,78.8,69.7,78.3L69.7,78.3z"/>
	</g>
	<g>
		<path class="st4" d="M76.2,70.6l2.5-1l-0.2,0.1c0.3-0.3,0.7-0.7,1-1c0.4-0.3,0.6-0.8,0.8-1.2c0.5-0.9,1.2-1.7,2.1-2.2
			c-0.7,0.8-1.3,1.4-1.6,2.4c-0.3,1-1,1.7-1.7,2.5c-0.1,0.1-0.1,0.1-0.2,0.1c0,0-2.5,0.9-2.5,0.9C76.1,71.4,75.8,70.8,76.2,70.6
			L76.2,70.6z"/>
	</g>
	<g>
		<path class="st4" d="M75.9,70.9c0-1.4-0.5-3.3,0.5-4.6c0,0,0.9-1.4,0.8-1.2c0,0,1.3-2.7,1.3-2.7c1.3-2.6,0.4-5.9,0.3-8.6
			c0.7,2.8,1.5,6.1,0.2,8.9c0,0-1.2,2.7-1.2,2.7c0,0,0,0,0,0c-0.2,0.4-1,1.4-1.1,1.8c-0.3,1.2,0,2.3,0,3.6c0,0.2-0.2,0.4-0.4,0.4
			C76.1,71.3,75.9,71.1,75.9,70.9L75.9,70.9z"/>
	</g>
	<g>
		<path class="st4" d="M65.8,78.9c0.4-0.7,2.4-3.8,2.8-4.3c0.5-0.8,1.5-1.4,1.5-2.3c-0.2-1.4,0.7-2.7,1.2-4c0.5-1.2,0.5-2.6,0.8-4
			c0.2-1,0.5-2,0.8-3c-0.3,1.7-0.5,3.3-0.6,5.1c0,1.7-1.1,3.2-1.4,4.9c0,0.7,0.2,1.5-0.2,2.2c-0.6,1-1.2,1.5-1.8,2.5
			c0,0-2.1,3.5-2.1,3.5C66.3,79.9,65.5,79.4,65.8,78.9L65.8,78.9z"/>
	</g>
	<g>
		<path class="st4" d="M73.1,73.5c0-0.7-0.4-1.7-0.3-2.5c0.1-0.9,0.8-1.6,1.2-2.4c0.2-0.5,0.5-1,0.6-1.5c0.4-1,0.1-2.1,0.4-3.3
			c0.4-1.1,0.9-2.1,1.3-3.1c-0.3,1.1-0.7,2.1-1,3.2C75,65,75.3,66.1,75,67.3c-0.2,1.4-1.1,2.5-1.4,3.8c0,0.9,0.4,1.5,0.5,2.4
			c0,0.3-0.2,0.5-0.5,0.5C73.3,74.1,73.1,73.8,73.1,73.5L73.1,73.5z"/>
	</g>
	<g>
		<path class="st4" d="M66.2,72.8l1.9-1.9L68,71.1c0.3-1.1,0.6-2.3,0.8-3.4c0,0,1.3-2.3,1.3-2.3l-1,2.4c-0.1,1-0.3,2.4-0.4,3.5
			c0,0-0.1,0.1-0.1,0.1L67,73.5C66.5,74,65.7,73.3,66.2,72.8L66.2,72.8z"/>
	</g>
	<g>
		<path class="st4" d="M64.9,69.7c0.8-2.1,1.8-3.8,3.3-5.4c0.5-0.4,1.1-0.9,1.5-1.3c0.1-0.1,0.1-0.5,0.1-0.8c0-1.7,0.3-3.4,0.1-5.1
			c0,0-0.4-2-0.4-2c0.4,1.3,0.8,2.7,0.8,4c0,1,0.1,2.6,0.1,3.6c0.1,0.6-0.6,1.1-1,1.4c-0.8,0.6-1.4,1.4-1.8,2.3
			c-0.6,1.2-1.5,2.4-1.8,3.6C65.6,70.6,64.7,70.3,64.9,69.7L64.9,69.7z"/>
	</g>
	<g>
		<path class="st4" d="M64,68.1l0.6-2.9c0.2-0.5,0.5-0.9,0.6-1.3c0-0.1,0-0.1,0,0c-0.2-0.6-0.5-1.1-0.4-1.8c0.2-0.9,0.8-2.5,1-3.3
			c0,0,0.6-2.2,0.6-2.2c0-0.5,0.1-1.4,0.1-2.1c0.1,0.7,0.1,1.4,0.1,2.1c-0.2,1.4-0.6,3.2-0.9,4.5c-0.1,0.4-0.2,0.8-0.3,1.1
			c-0.1,0.5,0.3,1,0.5,1.5c0.1,0.7-0.4,1.3-0.6,1.9c0,0,0-0.1,0-0.1l-0.5,2.9C64.8,69,63.8,68.8,64,68.1L64,68.1z"/>
	</g>
	<g>
		<path class="st4" d="M66.2,74.2c-1.5,0-3.5-0.3-4.2-1.8c-0.4-0.7-0.5-1.5-0.9-2c-0.4-0.6-1.2-0.8-1.8-1.2c0.7,0.3,1.4,0.4,2,1.1
			c0.5,0.6,0.7,1.4,1.1,1.9c0.9,1.3,2.4,1.1,3.8,1.1C66.9,73.2,66.9,74.2,66.2,74.2L66.2,74.2z"/>
	</g>
	<g>
		<path class="st4" d="M65.7,78.5l-2.2-2l0.1,0l-1.9-1.1c0,0-1.9-1.5-1.9-1.5c0,0,2.1,1.2,2.1,1.2c-0.1,0,2,0.8,2,0.8c0,0,0,0,0,0
			l2.4,1.8C66.9,78.1,66.2,79,65.7,78.5L65.7,78.5z"/>
	</g>
	<g>
		<path class="st4" d="M64.3,87.6c-0.5-0.5-1.8-1.1-1.5-2.1c0.2-0.5,0.4-0.8,0.3-1c0-0.3-0.2-0.7-0.3-1c-0.3-0.8-0.8-1.1-1.5-1.6
			c-0.7-0.5-0.9-1.3-1.3-2c0.5,0.6,0.9,1.4,1.5,1.7c1.2,0.5,1.9,1.6,2.3,2.8c0.1,0.6-0.2,1-0.2,1.3c0,0.1,0,0.2,0,0.2
			c0.4,0.4,0.8,0.5,1.3,1.1C65.5,87.4,64.7,88.2,64.3,87.6L64.3,87.6z"/>
	</g>
	<g>
		<path class="st4" d="M62.9,83.5l-0.1-1.7c0-0.4,0.1-1.2-0.2-1.5c-0.3-0.4-0.9-0.6-1.3-1.1c-0.4-0.5-0.6-1-0.9-1.5
			c0,0-1.1-1.5-1.1-1.5c0,0,1.2,1.4,1.2,1.4c0.3,0.5,0.6,1,1,1.4c0.6,0.5,1.8,0.9,1.7,2c0,0,0.1,0.9,0.1,0.9l0.1,1.7
			C63.5,84,62.9,84,62.9,83.5L62.9,83.5z"/>
	</g>
	<g>
		<path class="st4" d="M64.9,81.7c-0.4-1.6-1.5-3.2-2.5-4.6c0,0,0,0,0,0l0,0l-0.3-0.9l0.5,0.8l0,0c1.3,1.3,2.6,2.6,3.3,4.4
			C66.1,82,65,82.4,64.9,81.7L64.9,81.7z"/>
	</g>
	<g>
		<path class="st4" d="M68.5,105.1c0.4-1.4,1.1-2.6,2.1-3.6c0.6-0.5,1.1-1.1,1.6-1.7c0.6-0.6,1-0.8,1.1-1.6c0.1-0.6,0.1-1.2,0.4-1.8
			c0.4-0.5,1.1-1.5,1.4-2c0,0,0-0.1,0.1-0.1c0,0,2-2.1,2-2.1c0.6-0.7,1.6-2.5,2.8-3.2c0.4-0.3,1.6-1.1,2.1-1.3c0,0-0.1,0.1-0.1,0.1
			c0.6-0.6,1.2-1.4,1.8-2c0.9-1,3.3-1.8,4-2.2c0,0,2.6-1.7,2.6-1.7l0.1,0l0.1,0l3.5-1.4c1.1-0.2,2.3-0.6,3.5-0.6
			c0.9,0,2.2,0.2,3-0.1c0,0,2-0.8,2-0.8l0,0c1-0.3,2.3-0.5,3.3-0.8c0.7-0.5,1.2-1.7,2.1-2.5c0.4-0.3,0.8-0.4,1.3-0.5
			c0,0,1.1-0.4,1.1-0.4l0,0l0,0l1.6-0.3c0.6-0.1,1.1-0.1,1.5-0.3c1.5-0.7,3.1-1.7,4.7-2.1c-1.1,0.7-2,1.2-3,2
			c-0.4,0.3-0.8,0.6-1.4,0.9c-0.6,0.3-1.2,0.3-1.6,0.5l-1.5,0.4l0.1,0l-1.1,0.4c-0.3,0.1-0.8,0.3-0.9,0.4c-0.4,0.4-0.9,1.1-1.3,1.7
			c-0.4,0.9-1.5,1.3-2.3,1.4c-0.6,0.1-1.7,0.5-2.1,0.6c0,0-2.1,0.8-2.1,0.8c-1.5,0.6-3,0.1-4.5,0.3c-0.7,0.1-1.4,0.3-2.1,0.4l0.1,0
			l-3.5,1.4l0.1-0.1L88.6,85c0,0-0.1,0-0.1,0c-1.1,0.6-2.8,1.1-3.7,1.9c-0.7,0.6-1.2,1.4-1.9,2c-0.7,0.5-2,1.2-2.6,1.8
			c-0.7,0.7-1.3,1.6-2,2.5c0,0-2,2.1-2,2.1l0.1-0.1l-0.9,1.3c-0.4,0.5-0.5,0.5-0.6,1.1c-0.1,0.5-0.2,1.2-0.5,1.7
			c-0.4,0.6-0.9,0.9-1.2,1.3c-0.6,0.5-1.1,1.1-1.7,1.6c-0.9,0.8-1.6,2-2,3.1C69.3,106,68.3,105.7,68.5,105.1L68.5,105.1z"/>
	</g>
	<g>
		<path class="st4" d="M70.7,101.3c0-0.1-0.3-2.7-0.3-2.7c0.1-3.8-0.2-7.8,1.4-11.3c-0.9,3.7-0.5,7.5-0.4,11.3
			c0-0.3,0.3,2.7,0.3,2.6C71.8,101.8,70.8,102,70.7,101.3L70.7,101.3z"/>
	</g>
	<g>
		<path class="st4" d="M70.7,95.6l1.7-3c0,0,0,0.1,0,0.1c0.3-1,0.6-2.1,1-3.2c0.4-1.1,1.3-1.8,2-2.7c1.2-1.8,1.7-4,2.4-6
			c-0.5,2.1-0.9,4.3-2,6.3c-0.6,1-1.4,1.7-1.7,2.7c-0.3,1-0.5,2.1-0.8,3.1c0,0,0,0.1,0,0.1c0,0-1.8,3-1.8,3
			C71.2,96.4,70.5,96,70.7,95.6L70.7,95.6z"/>
	</g>
	<g>
		<path class="st4" d="M74.4,95.4c0-1-0.3-2.5,0.4-3.4c0,0,0.7-0.8,0.7-0.8c0.1-0.3,0.7-1.1,0.9-1.6c0.2-0.6,0.2-1.2,0.2-1.8
			c0,0.6,0.2,1.3,0,1.9c-0.2,0.7-0.5,1.3-0.7,1.8c0,0-0.6,0.9-0.6,0.9c-0.5,0.9-0.1,1.9,0,2.9c0,0.3-0.2,0.5-0.4,0.6
			C74.7,95.9,74.4,95.7,74.4,95.4L74.4,95.4z"/>
	</g>
	<g>
		<path class="st4" d="M81,88.4c0-1.5-0.2-3.3,0.3-4.7c0.2-1.5,1.7-3.8,3-5.2c1-1.1,2.5-1.9,3-3.3c0,0,0.7-1.4,0.7-1.4
			c0.6-0.9,1.3-1.7,1.8-2.6c0.2-0.4,0.2-0.9,0.4-1.5c0.1-0.5,0.4-1.8,0.5-2.3c0-1.8-0.5-3.6-0.8-5.4c-0.1-2.2,0-4.7,0.4-6.8
			c-0.1,1.4-0.1,3-0.1,4.4c0,0,0.1,2.4,0.1,2.4c0.3,1.4,1,3.9,1,5.5c-0.1,0.5-0.4,1.8-0.5,2.3c-0.1,0.5-0.1,1-0.4,1.6
			c-0.4,1-1.3,2-1.7,2.7c0,0-0.6,1.4-0.6,1.4c-0.6,1.5-2.1,2.5-3.2,3.6c-0.7,0.9-1.9,2.2-2.3,3.5c-0.9,1.8-0.6,3.9-0.5,5.8
			C82,89.1,81,89.1,81,88.4L81,88.4z"/>
	</g>
	<g>
		<path class="st4" d="M90.5,65.8c0.3-0.8,0.8-2.2,1.1-2.7c0,0,0.1-1.8,0.1-1.8c0-0.6,0-1.2,0.2-1.8c0.1,0.6,0.1,1.2,0.2,1.8
			l0.1,1.8l0,0c-0.3,1-0.7,1.9-1,2.9C90.9,66.3,90.4,66.2,90.5,65.8L90.5,65.8z"/>
	</g>
	<g>
		<path class="st4" d="M86.6,76.6c0.7-0.3,1.6-0.7,2.3-0.9c1.1-1,2.9-2.5,4.1-3.4c0.6-0.6,0.7-1.6,1.2-2.3c-0.2,0.9-0.2,1.8-0.8,2.6
			c-1.2,1.1-2.8,2.5-4,3.6c-0.2,0.2-1,0.4-1.4,0.5c-0.4,0.1-0.8,0.3-1.3,0.4c-0.2,0-0.3-0.1-0.3-0.2C86.4,76.8,86.5,76.6,86.6,76.6
			L86.6,76.6z"/>
	</g>
	<g>
		<path class="st4" d="M82.2,81c0-0.9-1-1.8-0.8-2.8c0.4-0.8,0.4-1.4,0.8-2.2c0,0,0,0.2,0,0.2c0.2-0.8,1-1.1,1.2-1.9
			c0.6-1.3,0.7-2.7,0.7-4c-0.1-0.7-0.5-1.3-0.7-2c0.7,0.9,1.3,1.9,1.2,3c0.1,1.1-0.1,2.3-0.5,3.3c-0.2,0.7-1.1,1.4-1.1,1.6
			c0,0,0,0.2,0,0.2c-0.3,0.5-0.4,1.2-0.6,1.8c-0.1,0.2-0.1,0.2-0.1,0.4c0.1,0.8,0.8,1.5,0.9,2.5c0,0.2-0.1,0.4-0.4,0.4
			C82.3,81.4,82.2,81.2,82.2,81L82.2,81z"/>
	</g>
	<g>
		<path class="st4" d="M86.2,84.3c0.5-0.6,0.6-1.4,1.3-2c0.7-0.4,1.6-0.6,2.3-0.9c0.4-0.2,1.5-0.6,1.9-1.1c0.5-0.6,1.3-1.1,1.5-1.7
			c0.1-0.3,0.3-0.7,0.4-1.1c0.4-1.2,1.5-1.9,2.4-2.8c-0.4,0.7-0.9,1.4-1.3,2c-0.6,0.6-0.5,1.4-0.8,2.2c-0.3,0.8-1,1.3-1.6,2
			c-0.6,0.6-1.5,0.9-2.2,1.3c-0.5,0.2-1.7,0.7-2,0.8c-0.5,0.5-0.6,1.3-1.2,1.9C86.5,85.5,85.7,84.8,86.2,84.3L86.2,84.3z"/>
	</g>
	<g>
		<path class="st4" d="M73.7,98c0.7-0.4,1.4-0.2,2-0.6c0.6-0.4,1.3-0.7,2-0.9c1.5-0.3,2.8,0,4.3-0.1c1.3,0,2.8-0.5,4.2-0.4
			c0.7-0.1,1.3,0.3,1.8-0.2c0,0,0.6-0.4,0.6-0.4c1.1-0.8,2.4-1.6,3.4-2.4c0.7-0.6,1.4-1.2,2.2-1.8c-1.2,1.4-2.6,2.7-4.1,3.8
			c0,0-1.1,0.8-1.1,0.8c-0.4,0.3-0.8,0.7-1.3,0.8c-2-0.2-3.6,0.4-5.6,0.6c-1.3,0.1-2.8-0.1-4,0.2c-0.8,0.2-1.5,0.7-2.2,1
			c-0.3,0.1-0.8,0.2-1.1,0.2c-0.2,0-0.5,0.1-0.5,0.1C73.7,99.3,73,98.4,73.7,98L73.7,98z"/>
	</g>
	<g>
		<path class="st4" d="M88.8,96C88.7,96,88.8,96,88.8,96c0.2,0.1,0.7,0.1,0.9,0.1c0.6,0.1,1.3,0,1.7,0.4c0.4-0.2,0.9-0.7,1.4-0.9
			c0.8-0.2,1.5,0.2,2.3-0.3c2.2-1.4,4.6-2.7,7.1-3.6c-1.6,1-3.2,1.9-4.8,2.8c0.1-0.1-2,1.3-2,1.3c-0.7,0.6-1.9,0.3-2.4,0.4
			c-0.5,0.1-1,0.9-1.6,0.9c-0.2,0-0.4-0.2-0.4-0.2c-0.6-0.1-1.7-0.1-2.4-0.3c-0.1,0-0.1,0-0.3-0.2C88,96.1,88.6,95.7,88.8,96
			L88.8,96z"/>
	</g>
	<g>
		<path class="st4" d="M76,94.4c2.5-0.3,4.7-1,7.2-1.2c0.9,0,1.8,0.2,2.6,0c0.8-0.2,1.8-0.5,2.4-1c0.5-0.3,1-0.7,1.5-1
			c-0.4,0.5-0.8,0.9-1.3,1.3c-0.7,0.6-1.7,0.9-2.5,1.2c-0.9,0.3-1.9,0.1-2.8,0.2c-2.3,0.3-4.7,1.1-7,1.4c-0.3,0.1-0.5-0.1-0.6-0.4
			C75.5,94.7,75.7,94.4,76,94.4L76,94.4z"/>
	</g>
	<g>
		<path class="st4" d="M79.4,90.5c1.4-0.2,4.3-0.7,5.6-0.9c1.6-0.1,3.1,0,4.7-0.2c1.6,0,2.7-1.5,4.4-1.2c-1.3,0.2-2.2,1-3.4,1.6
			c-2.5,0.6-5,0.3-7.5,1c0,0-3.7,0.7-3.7,0.7C79,91.6,78.8,90.6,79.4,90.5L79.4,90.5z"/>
	</g>
	<g>
		<path class="st4" d="M89.3,83.6c2,0.3,2.8,0.5,4.5,0.9c2.2,0.2,4.3-0.1,6.5-1.1c-1.3,1.4-3.2,1.6-4.9,1.9
			c-1.6,0.2-3.1-0.3-4.7-0.5c0,0-1.5-0.2-1.5-0.2l0,0C88.5,84.5,88.6,83.5,89.3,83.6L89.3,83.6z"/>
	</g>
	<g>
		<path class="st4" d="M96.9,80.3c0.1-0.8,0.6-1.3,0.8-2c0.1-0.2,0-0.3,0.1-0.5c0-0.3,0.2-0.6,0.3-0.8c0.3-0.4,0.4-0.9,0.8-1.2
			c0.4-0.3,0.9-0.4,1.3-0.6c0.3-0.1,0.5-0.1,0.6-0.2c0,0,0,0.1,0,0l0-0.3c0.2-3.9,0.5-3.9,0.6,0c0,0.2,0.1,0.4,0,0.6
			c-0.2,0.5-1.1,0.6-1.5,0.9c-0.4,0.2-0.5,0.3-0.7,0.7c-0.1,0.3-0.4,0.7-0.4,1.1c0,0.5-0.2,1-0.4,1.4c-0.1,0.2-0.4,0.8-0.4,1
			C98,81.1,96.8,81.1,96.9,80.3L96.9,80.3z"/>
	</g>
	<g>
		<path class="st4" d="M97.8,80c0.2-0.4,0.4-0.4,0.7-0.6c0.2-0.1,0.9-0.5,1-0.6c-0.1,0.2,0,0.1,0,0c0.1-0.5,0.4-1.1,0.9-1.2
			c1-0.4,2-0.7,2.8-1.5c0.4-0.4,0.8-0.6,1-1c0.2-0.6,0.5-1.6,0.7-2.2c0,0,0-0.1,0-0.1l1-1.6c0,0,0-0.1,0.1-0.1c0,0,1.7-1.7,1.7-1.7
			l0,0l0,0l1.2-0.9c0.8-0.6,1.6-1.5,2.6-1.7c0,0,1.5-0.3,1.5-0.3c-0.2,0.1,1.1-0.5,1.1-0.4c0.9-0.3,1.2-0.7,1.7-1.5c0,0,0.8-1,0.8-1
			c0.5-0.7,1-1.6,1.6-2.4c-0.4,0.9-0.8,1.7-1.3,2.6c-0.4,0.7-0.9,1.5-1.4,2.1c-0.4,0.4-0.8,0.5-1.1,0.7l-1.1,0.5c0,0,0,0-0.1,0
			c-0.8,0.3-2.1,0.4-2.7,1c-0.6,0.5-1.6,1.4-2.3,2c0.2-0.2-1.9,2-1.6,1.6c0,0-1,1.6-1,1.6l0-0.1c-0.2,0.6-0.5,1.6-0.7,2.2
			c-0.2,0.6-0.9,1-1.3,1.4c-0.8,0.8-2,1.2-3,1.6c-0.2,0.1-0.2,0.2-0.3,0.5c-0.1,0.7-0.8,0.9-1.5,1.3c0,0-0.3,0.2-0.3,0.2
			c0,0-0.1,0.1-0.1,0.1c0,0,0,0.1,0-0.1C98.5,81,97.6,80.7,97.8,80L97.8,80z"/>
	</g>
	<g>
		<path class="st4" d="M104.5,74.9c0.5-0.3,0.8-0.3,1.2-0.5c0.3-0.3,0.8-0.8,1.3-0.8c0.6,0,1,0,1.5-0.1c1-0.3,2.7-1.1,3.7-1.6
			c0.7-0.4,2-0.8,2.5-1.7c0,0,0.7-0.9,0.7-0.9c0.9-1.2,2.1-2.1,3.2-3c-0.9,1.1-1.9,2.1-2.7,3.4c0,0-0.6,0.9-0.6,0.9
			c-0.6,1-1.9,1.5-2.8,2.1c-1.5,0.6-3.2,1.8-5,1.9c-0.4,0-0.5,0-0.7,0.1c-0.1,0.1-0.4,0.4-0.5,0.5c-0.4,0.3-0.9,0.4-1.2,0.5
			C104.7,76.1,104,75.3,104.5,74.9L104.5,74.9z"/>
	</g>
	<g>
		<path class="st4" d="M105.2,72.3c-0.6-1.1-1.7-2.2-1.4-3.6c-0.1-0.9,0.6-1.5,1.1-2.1c-0.1,0.2,0.9-1.5,0.9-1.4
			c0.5-0.7,1.1-1.1,1-2c0,0,0.1-0.8,0.1-0.8l0.1,0.8c0.2,0.8-0.4,1.7-0.8,2.2c0,0-0.7,1.5-0.7,1.5c-0.2,0.4-0.6,0.9-0.7,1.2
			c-0.1,0.9,0,1.7,0.6,2.4c0.2,0.5,1.4,1.4,0.7,2C105.7,72.7,105.3,72.6,105.2,72.3L105.2,72.3z"/>
	</g>
	<g>
		<path class="st4" d="M111.8,67.2c0.2-0.9,0.8-1.7,1-2.6c0.2-0.9,0.1-1.8-0.1-2.7c0.6,1.3,0.8,2.9,0.2,4.2
			c-0.1,0.5-0.4,0.9-0.7,1.3C112.1,67.6,111.7,67.4,111.8,67.2L111.8,67.2z"/>
	</g>
</g>
<g>
	<path class="st5" d="M51.3,113.1c0,0,2.6,3.3,5.3,0.1c0,0,2.8-1.2,3.9-2.5c0,0,2.2-2.5,2.7-2.7c0,0,1.8-2.5-1.3-1.1
		c0,0-1.2,1-1.6,1c0,0-0.8-1.8-2-2c0,0-0.1-4.7-1-4.8c0,0-1.4-2.8-4,2.2c0,0-0.7,0.8-2.4-0.9c0,0-2.1-4.3-3.2-4.3
		c0,0-2.1-1.5-0.5,2.4c0,0-0.4,1.2,1.4,3.1l1.6,2c0,0-0.5,0.7-0.2,1.7c0,0-0.6,1.6-1.6,0.9c0,0-2.3-2.1-3.7-2.6l-1.9-1.8
		c0,0-4.6-1.4-0.4,2.4c0,0,3.4,2.4,4.7,3.5C46.9,109.5,49.3,112.1,51.3,113.1z"/>
	<g>
		<path class="st6" d="M63.2,105.8c1.5-1.8,3.4-3.3,5.1-4.9c0.3-0.3,0.3-0.3,0.3-0.7c0-0.3,0-0.8,0.3-1.3c0.7-0.8,1.3-1,2.1-1.5
			c1.5-0.7,2.3-2,3.8-2.7c0.6-0.3,1.2-0.8,1.8-1.3c2-1.4,3.9-2.4,5.6-4.1c0.3-0.3,1-1,1.3-1.2c0.7-0.8,2.3-0.3,2.8-0.8
			c0.5-0.4,0.9-1.2,1.8-1.6c0.8-0.4,1.6-0.2,2.1-0.7c0.5-0.5,0.9-1.2,1.3-1.8c0.3-0.5,0.7-1.3,1-1.9c-0.5,1.5-0.9,2.9-2,4.1
			c-0.6,0.6-1.5,0.6-2.2,0.9c-0.6,0.3-0.9,1-1.6,1.6c-0.8,0.8-1.9,0.3-2.7,0.9c-1,0.9-1.9,2-3,2.8c-1.2,1-2.7,1.7-3.8,2.6
			c-0.6,0.5-1.2,1.1-2,1.4c-0.7,0.3-1.1,0.8-1.7,1.3c-0.9,0.8-2,1.3-3,1.9c-0.3,0.2-0.7,0.5-0.7,0.6c-0.2,0.4-0.1,1.5-0.6,2
			c0,0-0.3,0.2-0.3,0.2c-1.6,1.5-3.6,3.1-5,4.7C63.6,106.9,62.9,106.3,63.2,105.8L63.2,105.8z"/>
	</g>
	<g>
		<path class="st6" d="M67,102.7c0.8,0.2,1.6,0.3,2.4,0.9c1,1.3,1.5,2.7,3.2,3.3c0,0,2.2,0.9,2.2,0.9c-0.8-0.3-2.6-0.7-3.4-1.2
			c-1-0.6-1.7-1.8-2.5-2.5c-0.5-0.4-1.4-0.4-2-0.5c-0.2,0-0.4-0.3-0.4-0.5C66.5,102.8,66.8,102.6,67,102.7L67,102.7z"/>
	</g>
	<g>
		<path class="st6" d="M70.4,104.5c1.6,0.1,2.9,0.7,4.3-0.1c1.3-0.7,2.4-1.8,3.3-2.9c0.3-0.4,0.4-0.9,0.8-1.3
			c0.5-0.4,1.1-0.3,1.6-0.4c-0.5,0.2-1,0.3-1.3,0.6c-0.8,1.9-2.2,3.7-4,4.7c-1.3,0.9-3.3,0.4-4.7,0.3
			C69.7,105.4,69.7,104.5,70.4,104.5L70.4,104.5z"/>
	</g>
	<g>
		<path class="st6" d="M76.9,102.9c1.4-0.5,2.8-0.7,4.3-0.7c0,0,1.8-0.2,1.8-0.2l-1.8,0.3c-0.7,0.1-1.4,0.1-2.1,0.3
			c-0.7,0.2-1.4,0.4-2,0.7C76.8,103.5,76.6,103,76.9,102.9L76.9,102.9z"/>
	</g>
	<g>
		<path class="st6" d="M69.3,99.9c1.4-0.1,2.6,0.3,3.8-0.2c0.2-0.1,0.9-0.6,1.1-0.8c0.8-0.6,1.7-0.8,2.7-1.1c0.1,0,0.4-0.2,0.6-0.4
			c0.5-0.4,1-0.7,1.6-1c1-0.4,1.6-0.4,2.2-1.2c0,0,0.6-0.7,0.6-0.7l0,0l0,0c0,0,2.4-2.1,2.2-1.9c0,0,0.7-0.7,0.7-0.7
			c0.9-1.1,2.3-1.5,3.3-2.5c0.8-0.7,1.9-0.7,2.9-1.1c-1.3,0.6-2.4,0.9-3.4,2.1c-0.8,0.7-1.7,1.1-2.3,1.9c0,0-0.6,0.8-0.6,0.8
			c0,0,0,0,0,0c0,0-2.2,2-2.2,2l0,0c-0.4,0.4-0.9,1.1-1.3,1.4c-1.2,0.6-2.2,0.7-3.2,1.7c-0.1,0.1-0.5,0.3-0.6,0.4
			c-0.4,0.2-0.7,0.2-1.2,0.4c-1.2,0.2-1.7,1.1-3.2,1.7c-1.1,0.4-2.6,0.1-3.7,0.1C68.7,100.8,68.7,99.9,69.3,99.9L69.3,99.9z"/>
	</g>
	<g>
		<path class="st6" d="M78.6,97.2c0.8,0.2,1.7,0.5,2.5,0.6c0.5,0,1,0.5,1.2,0.9c1.1,2.1,3.4,2.1,5.5,2.2c-2.2,0.2-4.6,0.3-6-1.8
			c-0.3-0.4-0.4-0.5-0.8-0.5c-0.7,0-1.8-0.3-2.6-0.4C77.7,98,78,97.1,78.6,97.2L78.6,97.2z"/>
	</g>
	<g>
		<path class="st6" d="M79,96.9c1.3-0.3,2.4-0.5,3.7-0.6c0.8,0,1.3,0.4,1.7,0.2c1.1-0.4,2.3-1,3.4-1.2c1.2-0.4,2.4-0.7,3.6-0.2
			c0.6,0.2,1.1,0.4,1.7,0.7c-1.1-0.4-2.3-0.9-3.5-0.7c-1.8,0.5-3.4,1.2-5.1,2c-0.8,0.2-1.4-0.2-1.9-0.1c-1.1,0.1-2.4,0.4-3.5,0.7
			C78.7,98,78.4,97,79,96.9L79,96.9z"/>
	</g>
	<g>
		<path class="st6" d="M86.6,95.8l2.9-2.7c0.6-0.8,1.6-2.1,2.3-3c-0.6,1-1.4,2.3-2.1,3.2c0,0-2.8,2.9-2.8,2.9
			C86.7,96.3,86.4,96,86.6,95.8L86.6,95.8z"/>
	</g>
	<g>
		<path class="st6" d="M65,103.8c0.1-0.4,0.6-2.7,0.7-3.1c0-0.6-0.3-1.1-0.4-1.8c-0.3-1,0.5-1.8,0.9-2.5c0.2-0.7,0.1-1.8,0.1-2.5
			c0,0,0.2,1.3,0.2,1.3c0,0.4,0.1,0.9,0,1.3c-0.2,0.8-0.9,1.4-0.6,2.3c0.3,0.8,0.9,1.8,0.6,2.6c0,0-0.4,2.6-0.4,2.6
			C65.8,104.6,64.9,104.4,65,103.8L65,103.8z"/>
	</g>
	<g>
		<path class="st6" d="M69.4,98.4c0.2-1.1,0-2.3,0.7-3.4c0.3-0.4,0.8-1,1.3-1.2c1.6-0.5,3-1,3.9-2.6c0.2-0.5,0.2-1.1,0.4-1.6
			l0.4-1.6l-0.2,1.6c-0.1,0.5-0.1,1.1-0.3,1.7c-0.8,1.8-2.3,2.5-3.9,3.1c-0.5,0.2-0.6,0.6-1,1.1c-0.5,0.8-0.3,2.1-0.4,3.1
			C70.3,99.2,69.3,99,69.4,98.4L69.4,98.4z"/>
	</g>
	<g>
		<path class="st6" d="M70.8,94.3c0.2-0.4,0.5-0.7,0.6-1c0.1-0.3-0.1-0.8-0.2-1.2c-0.2-0.7,0-1.9,0.1-2.6c0,0-0.1-2.1-0.1-2.1
			c0,0,0.3,2,0.3,2.1c0,0-0.1,1.3-0.1,1.3c-0.1,0.9,0.4,1.6,0.4,2.5c-0.1,0.5-0.4,0.9-0.5,1.2c-0.1,0.1-0.2,0.2-0.4,0.1
			C70.8,94.6,70.7,94.4,70.8,94.3L70.8,94.3z"/>
	</g>
	<g>
		<path class="st6" d="M77.4,93c0.4-1.5,0.3-3.4,1.4-4.6c0.5-0.4,1.3-0.5,1.9-0.8c0.4-0.3,0.8-0.4,1.2-0.6c0.4-0.2,0.8-0.3,0.9-0.8
			c0.2-0.4,0.2-0.9,0.6-1.3l0,0.1c0.2-0.4,0.5-0.4,0.8-0.6c0.9-0.4,1.5-1.1,1.9-1.9c-0.4,0.9-1,1.6-1.8,2.1
			c-0.3,0.2-0.6,0.4-0.7,0.6c-0.4,0.4-0.3,1.4-0.9,1.8c-1,0.5-2,1.2-3,1.6c-0.8,0.3-1,1.2-1.1,2c-0.2,0.9-0.1,1.7-0.3,2.7
			c0,0.3-0.3,0.4-0.5,0.4C77.5,93.6,77.3,93.3,77.4,93L77.4,93z"/>
	</g>
	<g>
		<path class="st6" d="M78.5,88.7c0.1-0.6,0.1-1.5,0.6-2.1c0,0,0.4-0.5,0.4-0.5c0.3-0.4,0.7-0.7,0.9-1c0.3-0.4-0.1-0.8-0.3-1.2
			c0.2,0.4,0.7,0.8,0.4,1.3c-0.2,0.4-0.6,0.7-0.8,1.1c-0.2,0.3-0.6,0.8-0.6,1.1c-0.1,0.4,0,0.9-0.1,1.4c0,0.2-0.2,0.3-0.3,0.3
			C78.6,89.1,78.5,88.9,78.5,88.7L78.5,88.7z"/>
	</g>
	<g>
		<path class="st6" d="M76.5,98.3c0-0.6-0.2-1.2-0.2-1.9c0-0.1,0-0.2,0.2-0.5c0.5-0.4,1.1-0.4,1.3-0.8c0,0,0.6-1.1,0.6-1.1L78,95.2
			c-0.1,0.5-0.8,0.8-1.1,1.1c0.1-0.1,0,0,0,0.1c0.1,0.6,0.3,1.1,0.4,1.8C77.5,98.9,76.5,99,76.5,98.3L76.5,98.3z"/>
	</g>
	<g>
		<path class="st6" d="M56.2,99.9c0.7-2,1.2-4.1,2.2-6c1.3-2.3,2.2-4.7,2.8-7.2c0.2-0.9,1-1.6,1.7-2c0.6-0.5,1-1.1,1.4-1.6
			c0.4-0.6,1-1.5,1.7-1.9c1.1-0.7,2.3-1.3,3.4-2c2.9-1.5,5.2-3.4,7.9-5.2c2.9-1.4,6-3,9.3-2.8c0.9,0,2.3,0.1,3.1,0.2
			c1,0.1,2-0.4,3-0.6c-0.4,0.3-0.9,0.6-1.3,0.9c-0.4,0.3-1.1,0.5-1.6,0.6l-3.2,0.1c-1.1,0-1.9,0-2.9,0.4c-1.7,0.7-4.2,1.5-5.7,2.4
			c-3.4,2.5-7,4.7-10.7,6.6c0,0-0.7,0.4-0.7,0.4c-1,0.6-1.5,2-2.4,2.9c-0.6,0.8-1.7,1-2,2c0,0-0.5,1.5-0.5,1.5
			c-0.7,3.1-2.8,5.7-3.8,8.7c-0.3,1-0.7,2-1,3c-0.1,0.2-0.4,0.4-0.6,0.3C56.2,100.4,56.1,100.1,56.2,99.9L56.2,99.9z"/>
	</g>
	<g>
		<path class="st6" d="M59.7,91.8l-1.1-1.4l0,0c-0.3-0.5-0.8-0.8-0.8-1.5c0.2-1.1,0.5-2,0.7-3.1c0.2-0.5,0.1-1,0.1-1.5
			c0.2,0.5,0.4,1,0.3,1.6c-0.1,0.5-0.3,1.8-0.3,2.3c0,0.2-0.1,0.6-0.1,0.7c0.1,0.4,0.6,0.7,0.8,1.1c-0.1-0.1,1.2,1.4,1.1,1.3
			C60.8,91.6,60.1,92.2,59.7,91.8L59.7,91.8z"/>
	</g>
	<g>
		<path class="st6" d="M58.6,94.1c0.8-0.5,1.8-0.6,2.4-1.2c0.2-0.3,0.7-1.1,0.9-1.4c0.4-0.7,1.2-1.2,2-1.3c0.4-0.1,0.8,0,1.1-0.2
			l1-0.5l-1,0.6c-0.4,0.2-0.8,0.2-1.1,0.3c-1.4,0.3-1.8,1.8-2.4,2.9c-0.6,0.8-1.8,1-2.5,1.6C58.6,95.2,58.1,94.4,58.6,94.1
			L58.6,94.1z"/>
	</g>
	<g>
		<path class="st6" d="M61.3,86.1c0-0.9,0-1.8,0.2-2.7c-0.1-0.5-0.1-1.4-0.2-2c-0.3-0.5-0.7-1.3-1-1.6c0,0-0.6-0.4-0.6-0.4
			c-0.4-0.4-1.1-0.2-1.6-0.5c-0.1-0.1-0.3-0.3-0.3-0.4c-0.4-1.1-0.7-2.2-0.9-3.3c0.5,1.1,0.9,2.1,1.3,3.2c0,0.3,0.6,0.2,1.1,0.3
			c0.2,0,0.6,0.1,0.8,0.3c0,0,0.6,0.4,0.6,0.4c0.7,0.6,0.9,1.1,1.4,1.9c0.1,0.3,0.1,0.6,0.2,0.8c0,0.6,0.3,1.6,0.1,2.2
			c-0.1,0.7,0,1.4,0,2.1C62.1,87,61.2,86.8,61.3,86.1L61.3,86.1z"/>
	</g>
	<g>
		<path class="st6" d="M61.3,81.4c-0.1-1,0.2-1.7,0.1-2.6c0,0,0.1,0.1,0,0.1L61,78.7c-0.4-0.2-0.7-0.6-1-0.9c-0.4-0.3-0.6-1-0.6-1.3
			c-0.3-1.6-0.2-3.4,0.2-5c0.1-0.3,0.1-0.6,0.3-0.8c0.4-0.4,0.9-0.7,1.3-1c-0.3,0.4-0.8,0.8-1.1,1.2c-0.4,1.7-0.3,3.7,0.1,5.5
			c0.1,0.5,0,0.6,0.3,0.8c0.3,0.3,0.4,0.6,0.8,0.8c0,0,0.4,0.2,0.4,0.2c0.5,0.3,0.3,1.1,0.3,1.6c0,0-0.2,1.5-0.2,1.5l0,0.1
			C61.9,81.8,61.3,81.8,61.3,81.4L61.3,81.4z"/>
	</g>
	<g>
		<path class="st6" d="M61.3,79.5c0-1.5,0.3-2.7,0.5-4.1c0-0.3,0.1-0.6,0.3-0.9c0.5-0.6,1.1-0.6,1.4-0.9c0.6-0.5,0.6-1.4,0.8-2.1
			c0.7-1.2,2-1.9,3-2.7c-0.8,0.7-1.6,1.4-2.3,2.2c-0.8,0.8-0.2,2.1-1.1,3c-0.5,0.4-1.1,0.6-1.2,0.9c-0.2,1-0.5,3.5-0.5,4.6
			C62.3,80,61.3,80.1,61.3,79.5L61.3,79.5z"/>
	</g>
	<g>
		<path class="st6" d="M61.1,88.1c1.5-0.6,2.8-0.4,4.2-1.2c0.5-0.2,1-0.8,1.6-0.7c0.5,0.1,1,0.4,1.5,0.2c0,0,1.1-0.3,1-0.3
			c0,0,2.2-0.9,2.2-0.9l-2.1,1.1c-0.4,0.1-1.2,0.5-1.6,0.6c-0.4,0-0.7-0.2-1.1-0.2c-0.5,0-0.8,0.5-1.3,0.7c-0.6,0.4-1.4,0.7-2.1,0.9
			c-0.7,0.2-1.5,0.3-2,0.6C60.9,89.2,60.5,88.4,61.1,88.1L61.1,88.1z"/>
	</g>
	<g>
		<path class="st6" d="M64.3,87.2c0,0,1.6-1.8,1.6-1.8c0.7-0.5,1.3-0.9,1.6-1.7c0,0,0.4-0.7,0.4-0.7l-0.3,0.7
			c-0.2,0.8-0.9,1.5-1.4,1.9c0,0-1.5,1.9-1.5,1.9C64.5,87.8,64,87.5,64.3,87.2L64.3,87.2z"/>
	</g>
	<g>
		<path class="st6" d="M69.3,80.8c0.3,1.1,0.4,1.5,1.5,1.9c0.8,0.3,1.8,0.6,2.7,0.5c-0.9,0.2-1.9,0.2-2.9,0c-0.5-0.1-1-0.3-1.4-0.7
			c-0.4-0.4-0.5-1-0.8-1.3C68.1,80.6,69,80.1,69.3,80.8L69.3,80.8z"/>
	</g>
	<g>
		<path class="st6" d="M66.7,80.8c-0.3-0.7-1-1.2-1-2.2c0-0.5,0.3-0.9,0.5-1.2c0.1-0.2,0.2-0.7,0.2-0.9c0.7-2.5,1-4.9,0.8-7.4
			c-0.2-0.8,0-1.6,0.6-2.2c0.8-0.8,1.3-1.7,1.9-2.6c-0.3,0.7-0.5,1.3-1,2c-0.3,0.6-1,1.1-1.2,1.7c-0.1,0.6,0.2,1.5,0.2,2.1
			c0.2,2.4-0.3,4.8-0.7,7.1c0,0.5-0.6,1.1-0.6,1.4c0,0.2,0.1,0.5,0.3,0.7c0.2,0.3,0.4,0.6,0.6,0.9C67.8,81,67,81.4,66.7,80.8
			L66.7,80.8z"/>
	</g>
	<g>
		<path class="st6" d="M65.8,78.9c-0.4-0.7-1.1-1.3-1.1-2.2c0.1-0.8,0.4-1.6,0.5-2.4c0.3-0.8,0.7-1.6,1.3-2.3
			c0.7-0.5,1.4-0.9,2.2-1.3c-0.3,0.3-0.6,0.6-0.9,0.8c-0.3,0.3-0.7,0.6-0.9,0.8c-0.4,0.5-0.8,1.8-1.1,2.1c0,0-0.2,1.2-0.2,1.2
			c-0.1,0.8-0.3,1.2,0.1,1.8c0.3,0.4,0.6,0.7,0.9,1.2C66.8,79.1,66,79.4,65.8,78.9L65.8,78.9z"/>
	</g>
	<g>
		<path class="st6" d="M69.9,79.1c-0.2-0.9-0.4-2.4-0.8-3.2c-0.6-1,0.1-2,0.6-2.9c0.3-0.7,0.1-1.5,0.1-2.3c0.1-0.4,0.5-0.7,0.8-0.9
			c0.5-0.5,0.9-1,1.2-1.6c0.2-0.4,0.5-0.8,0.7-1.2c-0.3,0.9-0.5,1.8-1.1,2.6c-0.3,0.4-0.7,0.7-1,1c-0.2,0.1,0,0.7,0,1.2
			c0.1,0.5,0,1-0.1,1.5c-0.2,0.5-0.4,0.9-0.6,1.3c-0.2,0.4-0.1,0.6,0.1,1c0.2,0.5,0.3,0.9,0.5,1.4l0,0l0,0l0.4,2
			C70.9,79.5,70,79.6,69.9,79.1L69.9,79.1z"/>
	</g>
	<g>
		<path class="st6" d="M74.4,75.9c0.3-1.3,0.7-2.8,0.3-4c-0.4-1.7-1.3-3.4-1.4-5.2c-0.1-1.3-0.6-2.7-0.2-4c0.1-0.4,0.2-0.9,0.4-1.3
			c0,0.9-0.2,1.8-0.1,2.6c0.1,0.8,0.3,1.8,0.4,2.6c0.2,2.2,1.5,4,1.8,6.1c0.2,1.1-0.2,2.2-0.4,3.3c0,0.2-0.3,0.4-0.5,0.4
			C74.5,76.4,74.3,76.2,74.4,75.9L74.4,75.9z"/>
	</g>
	<g>
		<path class="st6" d="M74.2,70c0.6-1.4,1-2.8,1.8-4.1c0.4-0.4,0.8-0.6,1.2-0.9c-0.7,0.8-1.2,1.4-1.4,2.4c-0.3,0.9-0.7,1.8-1,2.8
			c-0.1,0.2-0.2,0.2-0.4,0.2C74.2,70.3,74.1,70.1,74.2,70L74.2,70z"/>
	</g>
	<g>
		<path class="st6" d="M72,79.5l0.7,1.3l-0.1-0.1c0.5,0.5,1.2,1.2,1.8,1.6c0.3,0.2,0.7,0.5,0.8,1c0,0.4-0.1,0.8-0.1,1.2
			c0-0.4,0-0.8-0.1-1.2c-0.3-0.7-1.3-0.8-1.9-1.3c0,0-1-0.7-1-0.7c0,0,0-0.1,0-0.1L71.2,80C70.8,79.5,71.6,78.9,72,79.5L72,79.5z"/>
	</g>
	<g>
		<path class="st6" d="M73.7,77.7c0.9,0.5,1.7,1,2.5,1.3c0.7,0.3,1.7,0,2.6-0.2c0.9-0.2,1.6-0.8,2.5-1.3c0.9-0.4,1.8-0.6,2.8-0.8
			c-0.9,0.4-1.8,0.7-2.6,1.2c-1.6,1-3.5,2.2-5.5,1.8c-1-0.3-1.8-0.8-2.7-1.2c-0.2-0.1-0.3-0.4-0.2-0.6
			C73.2,77.7,73.5,77.6,73.7,77.7L73.7,77.7z"/>
	</g>
	<g>
		<path class="st6" d="M77.9,79.2c1.2,0.8,2.5,2,3.8,2.7c0.5,0.2,1.3-0.6,1.8-0.1c0.2,0.2,0.4,0.5,0.6,0.7c-0.2-0.2-0.4-0.5-0.7-0.7
			c-0.2-0.2-0.5,0-0.8,0.1c-1.1,0.7-2.5-0.6-3.5-1.2c0,0-1.6-1-1.6-1C77,79.6,77.5,78.9,77.9,79.2L77.9,79.2z"/>
	</g>
	<g>
		<path class="st6" d="M79.6,72.7c0.3-1.4,0.8-3.2,0.2-4.5c-0.3-0.4-0.6-1.1-0.2-1.5c0.8-0.9,1.1-2.1,1.3-3.2c0-0.5-0.1-2-0.1-2.6
			c-0.1-0.7-0.2-1.3-0.3-2c0.3,0.6,0.5,1.3,0.7,2c0.1,0.9,0.2,1.9,0.3,2.8c-0.1,0.7-0.2,1.8-0.6,2.5c-0.2,0.4-0.4,0.8-0.6,1.1
			c-0.1,0,0,0.4,0.3,0.7c0.9,1.7,0.3,3.4,0,5.1C80.4,73.5,79.5,73.3,79.6,72.7L79.6,72.7z"/>
	</g>
	<g>
		<path class="st6" d="M79.7,72.5c1.2-1.3,2.6-2.2,3.6-3.6c0.2-0.5,0.2-1.2,0.7-1.5c0.2-0.2,0.7-0.6,0.9-0.8
			c0.3-0.2,0.3-0.9,0.4-1.4c0.2-1.1,1-1.9,1.6-2.8c-0.4,1-1.1,1.8-1.2,2.9c-0.1,0.5,0,1.2-0.4,1.7c0,0-1.1,1.1-1.1,1.1
			c-0.1,0.2-0.1,0.8-0.2,1.1c-0.3,0.7-0.8,1.2-1.3,1.7c-0.8,0.8-1.6,1.5-2.3,2.3C79.9,73.6,79.3,72.9,79.7,72.5L79.7,72.5z"/>
	</g>
	<g>
		<path class="st6" d="M46.4,97.6c-0.1-1.3-0.9-2.7-0.9-4.1c0.3-2.3,0.9-4.6,1.1-6.8c0.4-3.6,0-7.5,1-11.1c0.4-0.6,0.8-1.1,1.3-1.6
			c0.4-1.1,0.6-2.5,1.7-3.2c1.8-0.8,3.1-2,4.4-3.5c1-1.2,2.1-2.3,2.7-3.7c0.7-1.4,1.1-2.9,1.5-4.4c-0.2,1.5-0.5,3.1-1.2,4.5
			c-0.6,1.5-1.6,2.7-2.6,3.9c-1.1,1.5-2.5,3.1-4.4,3.8c-0.9,0.7-1,1.8-1.5,2.8c-0.4,0.6-0.9,1.2-1.4,1.7l0.1-0.2
			c-0.5,3.7-0.1,7.3-0.5,11c-0.2,1.9-0.6,3.7-1,5.5c-0.2,0.9-0.3,1.6-0.1,2.5c0.2,0.9,0.5,1.8,0.6,2.8c0,0.3-0.2,0.5-0.4,0.5
			C46.6,98.1,46.4,97.9,46.4,97.6L46.4,97.6z"/>
	</g>
	<g>
		<path class="st6" d="M59.2,73.5L59,69.8c-0.3-1.5-0.8-3.4-0.2-4.9c-0.4,1.6,0.2,3.3,0.6,4.9c0,0,0.5,3.6,0.5,3.7
			C59.9,73.8,59.2,73.9,59.2,73.5L59.2,73.5z"/>
	</g>
	<g>
		<path class="st6" d="M45.9,93.9l1.6-1.9l0,0.1l1-1.7c0.6-0.8,1.5-1.6,2.2-2.2c0.5-0.6,1.5-1.3,1.8-2c0.3-0.9,1.2-1.4,2-1.8
			c-0.4,0.3-0.8,0.5-1.1,0.8c-0.7,0.6-0.8,1.7-1.5,2.3c-0.9,1.1-2.1,2.2-2.9,3.3c0.1-0.2-0.8,1.8-0.8,1.7c0,0,0,0,0,0l0,0l-1.5,1.9
			C46.3,94.9,45.6,94.4,45.9,93.9L45.9,93.9z"/>
	</g>
	<g>
		<path class="st6" d="M46,90.6c-0.7-1.3-1.7-2.5-2.6-3.8c-0.6-1.1-1.3-2.4-2-3.5c-0.2-0.4-0.5-0.8-0.6-1.2c0-1,0.1-2.3-1-2.6
			c-0.3-0.1-0.7-0.3-1-0.4c0.7,0.2,1.5,0.2,1.9,0.9c0.4,0.6,0.3,1.4,0.5,2.1c1.1,1.4,1.9,2.9,2.8,4.4c0.8,1,2,2.4,2.7,3.7
			c0.1,0.2,0,0.5-0.2,0.6C46.4,90.9,46.1,90.8,46,90.6L46,90.6z"/>
	</g>
	<g>
		<path class="st6" d="M46.8,86c-0.2-1.1-1-2.3-1.4-3.5c-0.4-1-0.6-2.6-1.7-3c-0.5-0.2-1.2-0.2-1.9-0.5c-0.6-0.3-1.2-0.5-1.7-1.1
			c-0.4-0.6-0.4-1.2-0.9-1.7c0,0-1.2-1.5-1.2-1.5c0.5,0.4,1,0.8,1.5,1.3c0.5,0.4,0.7,1.2,1,1.6c0.3,0.4,1,0.6,1.6,0.9
			c0.5,0.2,1.2,0.2,1.9,0.4c1.4,0.4,1.8,2.2,2.3,3.3c0.5,1.1,1.2,2.2,1.5,3.6c0.1,0.2-0.1,0.5-0.3,0.6C47.1,86.4,46.8,86.2,46.8,86
			L46.8,86z"/>
	</g>
	<g>
		<path class="st6" d="M43.7,79.4c-0.1-0.4-0.4-1.3-0.5-1.7c-0.2-0.6-0.6-0.7-1-1.3c-0.4-0.6-0.6-1.1-0.9-1.6
			c-0.8-1.1-1.7-2.3-2.4-3.5c0,0-1.1-3.1-1.1-3.1c-0.4-2-0.9-3.9-0.9-5.9c-0.1-0.3-0.9-0.2-1.3-0.4c-0.3-0.1-0.5-0.3-0.6-0.4
			c-1.1-1.7-1.5-3.8-1.8-5.8c-0.1-1.2-0.4-2.5,0-3.6c0.1-0.4,0.2-0.8,0.3-1.2c0,0.8-0.2,1.6-0.1,2.4c0.5,2.6,0.9,5.5,2.2,7.8
			c0.3,0.4,1,0.2,1.5,0.4c0.8,0.3,0.7,1.2,0.8,1.9c0,0,0.1,1.2,0.1,1.2c0.1,0.6,0.6,3,0.7,3.4c0,0,1.1,3.1,1.1,3.1
			c0.4,0.7,1.3,2,2,2.8c0.4,0.6,0.7,1.5,1.1,2.1c0.2,0.3,0.5,0.5,0.8,0.9c0.4,0.5,0.6,1.7,0.8,2.4C44.6,79.6,43.8,79.9,43.7,79.4
			L43.7,79.4z"/>
	</g>
	<g>
		<path class="st6" d="M39.5,71.6l-2.1-1.2l-0.1,0c-0.2-0.4-0.5-0.9-0.7-1.3c-0.5-0.8-0.4-1.8-0.8-2.6c-0.2-0.4-0.5-0.8-0.7-1.2
			c0.3,0.3,0.7,0.6,0.9,1c0.5,0.8,0.6,1.8,1.1,2.5c0.3,0.4,0.5,0.7,0.7,1.1l-0.1-0.1l2.1,1.3C40.2,71.3,39.9,71.8,39.5,71.6
			L39.5,71.6z"/>
	</g>
	<g>
		<path class="st6" d="M39.3,71.3c0.2-1.3,1-2.6,0.4-3.8c0,0-0.5-1.3-0.5-1.3c0,0,0,0,0,0l-0.6-2.6c-0.7-2.7,0.6-5.5,1.7-8
			c-0.6,2.5-1.9,5.3-1.2,7.8c0,0,0.7,2.6,0.7,2.6c0.1,0.2,0.7,1.6,0.8,1.9c0.2,1.2-0.4,2.4-0.6,3.5C40,71.9,39.2,71.8,39.3,71.3
			L39.3,71.3z"/>
	</g>
	<g>
		<path class="st6" d="M47,80.7c-0.3-0.7-1.4-3.8-1.6-4.4c-0.2-0.6-0.7-1.1-0.9-1.7c-0.3-1,0.4-1.9,0.1-2.8
			c-0.9-2.8-0.1-5.6-0.1-8.5c0.3,2.2-0.1,4.4,0.2,6.5c0.1,1,0.6,1.9,0.5,2.8c-0.2,0.9-0.4,1.6,0.3,2.5c0.3,0.4,0.7,1.2,0.9,1.7
			c0,0,1.4,3.5,1.4,3.5C48.1,80.9,47.2,81.2,47,80.7L47,80.7z"/>
	</g>
	<g>
		<path class="st6" d="M41.3,74.1c0.2-1,0.9-1.5,0.9-2.4c-0.2-1.1-0.6-2.2-0.7-3.4c-0.1-1.1,0.5-2.1,0.5-3.1c-0.1-1-0.3-2-0.4-3
			c0.2,1,0.5,2,0.6,3c0.1,1.1-0.4,2.1-0.2,3c0.1,0.5,0.2,1,0.3,1.5c0.2,0.7,0.7,1.5,0.6,2.3c-0.1,0.8-0.6,1.6-0.7,2.2
			C42.1,74.9,41.1,74.7,41.3,74.1L41.3,74.1z"/>
	</g>
	<g>
		<path class="st6" d="M47.7,75.3l-1.1-2.2l0-0.1c0.1-1,0.2-2.3,0.2-3.2c0,0-0.5-2.4-0.5-2.4l0.8,2.3c0,1.1,0.1,2.2,0.2,3.2l0-0.2
			l1.4,2.1C48.8,75.4,48,75.9,47.7,75.3L47.7,75.3z"/>
	</g>
	<g>
		<path class="st6" d="M49.3,72.3c-0.2-1.6-0.9-3.6-1.7-5.1c-0.4-0.6-0.8-0.9-1.1-1.6c-0.2-0.4,0-0.7,0-1.1l0.2-0.9
			c0.3-1.8,0.7-3.7,1.8-5.3c0,0-0.7,1.7-0.7,1.7c-0.4,1.5-0.4,3.1-0.8,4.6c0,0.3-0.1,0.6,0,0.7c0.3,0.4,0.8,0.9,1.2,1.4
			c1,1.7,1.7,3.4,2.1,5.4C50.3,72.8,49.4,72.9,49.3,72.3L49.3,72.3z"/>
	</g>
	<g>
		<path class="st6" d="M50.4,71l0-2.7l0,0.1c-0.1-0.4-0.2-0.9-0.3-1.3c-0.1-0.6,0.8-1.2,0.8-1.7c0-0.6-0.1-2.4-0.2-3.1
			c0,0,0-2.1,0-2.1c0.1-0.6,0.3-1.3,0.5-1.9c-0.1,0.6-0.2,1.4-0.2,1.9c0,0,0.2,2.1,0.2,2.1c0.1,0.8,0.3,2.4,0.4,3.2
			c0,0.7-0.4,1.1-0.7,1.6c0-0.1,0,0,0,0c0.1,0.4,0.3,0.8,0.3,1.3c0,0,0,2.7,0,2.7C51.3,71.6,50.4,71.6,50.4,71L50.4,71z"/>
	</g>
	<g>
		<path class="st6" d="M48.4,75.2c1.2,0.3,2.5,0.6,3.6-0.3c0.5-0.4,0.8-1.1,1.3-1.5c0.6-0.5,1.3-0.5,2-0.6c-0.6,0.2-1.4,0.3-1.8,0.8
			c-0.8,1.1-1.4,2.7-3.1,2.7c-0.7,0-1.4,0-2.1-0.1c-0.3,0-0.4-0.3-0.4-0.5C47.9,75.3,48.2,75.1,48.4,75.2L48.4,75.2z"/>
	</g>
	<g>
		<path class="st6" d="M47.6,79.2l2.5-1.2l0,0c0,0,1.9-0.4,2-0.4c-0.1,0,2.1-0.7,2.1-0.7c0,0-2,1-2,1c0,0-2.1,0.8-1.8,0.7
			c0,0-2.4,1.4-2.4,1.4C47.5,80.3,47,79.5,47.6,79.2L47.6,79.2z"/>
	</g>
	<g>
		<path class="st6" d="M47.2,87.7c0.6-0.4,1.1-0.4,1.4-0.8c0.1-0.3-0.2-0.7,0-1.3c0.5-1.1,1.4-1.9,2.6-2.2c0.7-0.2,1.1-0.8,1.7-1.3
			c-0.2,0.3-0.4,0.6-0.6,0.9c-0.4,0.6-1.2,0.9-1.8,1.2c-0.5,0.3-0.9,1.1-1.1,1.6c-0.1,0.4,0.4,1.3-0.1,1.7c-0.4,0.4-1.1,0.6-1.4,0.9
			C47.2,88.9,46.6,88.1,47.2,87.7L47.2,87.7z"/>
	</g>
	<g>
		<path class="st6" d="M49.1,85l0.4-1.5c0.2-0.5,0.2-1.2,0.6-1.6c0.5-0.4,1.1-0.4,1.5-0.7c0.4-0.3,0.8-0.7,1.1-1l1.3-1.1l-1.2,1.2
			c-0.3,0.4-0.6,0.8-1.1,1.2c-0.6,0.5-1.5,0.4-1.6,1.3c-0.1,0.5-0.4,1.8-0.5,2.3C49.6,85.4,49,85.3,49.1,85L49.1,85z"/>
	</g>
	<g>
		<path class="st6" d="M47.4,82.6c0.9-1.5,2.3-2.5,3.7-3.4c-0.1,0.1,0.6-0.7,0.6-0.7c0,0-0.4,0.8-0.4,0.8c-1.1,1.1-2.4,2.3-3,3.7
			C47.9,83.6,47.1,83.2,47.4,82.6L47.4,82.6z"/>
	</g>
	<g>
		<path class="st6" d="M40,103.5c-0.2-0.9-0.6-2.2-1.2-3c-0.8-1.1-1.5-1.8-2.1-3.1c-0.2-0.5-0.1-1.1-0.1-1.6c0-0.5-0.1-0.5-0.4-1.1
			l-0.6-1.3c0.3,0.4-1.5-2.3-1.4-2.2c-0.8-1.4-1.2-2.7-2.3-3.6c0,0-1.1-1-1.1-1c-0.7-0.9-1-1.9-1.8-2.7c-0.7-0.5-1.9-1.4-2.6-1.9
			c0,0-2.1-1.9-2.1-1.9l0.1,0.1c0.1,0.1-3.4-2.1-2.8-1.8c-1-0.4-1.8-0.8-2.7-1c-1.1-0.2-2.1-0.2-3.1-0.8c0,0-1.7-1.1-1.7-1.1
			C13.1,75,11.9,74.6,11,74c-0.8-0.7-1.1-2.1-1.7-2.9c0-0.1-0.4-0.3-0.7-0.5l-0.9-0.6l0,0c-0.8-0.4-1.9-0.8-2.7-1.3
			c-0.5-0.4-0.7-0.7-1.1-1.1c-0.7-0.9-1.5-1.5-2.3-2.3c0.6,0.3,1.1,0.6,1.6,0.9c1.2,0.8,2,1.9,3.5,2.2c0,0,1.3,0.6,1.3,0.6l0,0l0,0
			c0.3,0.2,1.1,0.6,1.4,0.8c1.1,0.6,1.3,2,1.9,2.9c0.1,0.1,0.1,0.1,0.2,0.2c0.9,0.4,2,0.8,2.8,1.3c0,0,0,0,0,0c0,0,1.7,1,1.7,1
			c0.7,0.4,1.9,0.5,2.7,0.6c1.1,0.2,2.1,0.7,3,1.1c0,0,0.1,0,0.1,0l3,1.8l0.1,0l0.1,0c-0.1-0.1,2.4,2.2,2,1.9c0.8,0.6,1.9,1.3,2.7,2
			c0.9,0.8,1.3,1.9,1.9,2.8c0,0-0.1-0.1-0.1-0.1l1.1,1c1.2,0.9,2.1,2.9,2.5,3.9c0,0,1.4,2.3,1.4,2.3l0,0c0.2,0.5,0.7,1.5,1,2.1
			c0.2,0.6,0.1,1.1,0.1,1.7c0,0.7,0.3,0.9,0.7,1.6c0.4,0.7,1.2,1.8,1.6,2.5c0.4,1,0.8,1.8,0.9,3c0,0.3-0.2,0.5-0.4,0.5
			C40.2,104,40,103.8,40,103.5L40,103.5z"/>
	</g>
	<g>
		<path class="st6" d="M38.7,99.5l0.8-2.4l0,0c0.7-3.4,1.7-6.7,1.5-10.3c0.8,3.5-0.1,7-0.7,10.5c0,0-0.7,2.4-0.7,2.4
			C39.4,100.3,38.5,100,38.7,99.5L38.7,99.5z"/>
	</g>
	<g>
		<path class="st6" d="M39.8,94.8l-1.1-3c0,0,0-0.1,0-0.1c-0.1-1,0-2-0.2-3c-0.1-0.9-0.7-1.7-1.1-2.7c-0.6-1.9-0.6-4-0.8-6
			c0.3,1.9,0.4,4,1.1,5.8c0.4,0.9,1.1,1.7,1.3,2.8c0.2,0.9,0.3,2.5,0.3,2.9c0,0,1,3,1,3C40.7,95,40,95.2,39.8,94.8L39.8,94.8z"/>
	</g>
	<g>
		<path class="st6" d="M36.4,93.5c0.2-0.9,0.8-1.7,0.5-2.6c0,0-0.3-0.9-0.3-0.9l0,0c-0.3-1.2-0.4-2.2,0.1-3.5
			c-0.3,1.3-0.1,2.2,0.4,3.3c0,0,0,0,0,0c0.2,0.4,0.6,1,0.7,1.5c0.1,0.9-0.2,1.8-0.4,2.6c-0.1,0.2-0.3,0.4-0.5,0.3
			C36.4,94.1,36.3,93.8,36.4,93.5L36.4,93.5z"/>
	</g>
	<g>
		<path class="st6" d="M31.6,86.2c0.2-1.2,0.8-2.9,0.7-4.1c0.1-1.6-0.9-3.6-1.6-4.8c-0.5-0.7-1.2-1.6-1.7-2.3
			c-0.5-0.7-0.7-2.2-0.9-2.8c-0.6-1.3-1.4-2.8-1.2-4.3c0-0.5,0-1.7,0-2.2c0.2-1.5,1.2-3.5,1.8-4.8c0.5-1.9,0.9-4.1,1.2-6.1
			c0.1,2-0.3,4.3-0.8,6.2c-0.6,1.5-1.4,3.1-1.7,4.7c0,0.4,0.1,1.7,0.1,2.2c0,0.5,0,1,0.1,1.4c0.2,0.9,0.8,1.7,1.1,2.7
			c0,0,0.3,1.4,0.3,1.4c0.3,1.3,1.5,2.4,2.2,3.5c1.4,2.3,2.2,4.9,1.7,7.4c0,0-0.4,2.1-0.4,2.1C32.4,87,31.5,86.8,31.6,86.2
			L31.6,86.2z"/>
	</g>
	<g>
		<path class="st6" d="M27.3,64.5c-0.1-0.9-0.3-1.9-0.4-2.8c0,0,0.4-1.6,0.4-1.6c0.1-0.5,0.2-1.1,0.4-1.6c0,0.6-0.1,1.1-0.2,1.7
			l-0.3,1.6c0.2,0.5,0.4,1.8,0.5,2.6C27.8,64.7,27.3,64.8,27.3,64.5L27.3,64.5z"/>
	</g>
	<g>
		<path class="st6" d="M29.2,75.2c-0.5-0.3-1.1-0.6-1.6-0.9c-0.2-0.1-0.5-0.2-0.6-0.4c-0.9-1.2-2.1-2.7-2.9-3.9
			c-0.2-0.4-0.3-0.9-0.3-1.3c-0.1-1.3,0-1.4,0.3,0c0.2,1.3,1.2,1.9,2,2.9c0,0,1.5,1.9,1.5,1.9c0.6,0.4,1.4,0.8,1.9,1.2
			C29.7,74.9,29.5,75.3,29.2,75.2L29.2,75.2z"/>
	</g>
	<g>
		<path class="st6" d="M32.1,79.4c0.2-0.9,1.1-1.4,1.2-2.3c-0.2-0.7-0.2-1.5-0.3-2.1c0-0.2-0.7-1-0.7-1.7c-0.3-1.3-0.1-2.7,0.3-4
			c0.3-0.6,0.8-1,1.3-1.5c-0.3,0.6-0.8,1.1-1,1.7c-0.3,1.2-0.4,2.5-0.1,3.8c0.1,0.5,0.3,0.9,0.6,1.3c0.1,0.2,0.2,0.3,0.2,0.7l0-0.2
			c0.2,0.7,0.2,1.2,0.3,1.8c0.3,0.6-0.3,1.4-0.6,1.9c-0.2,0.3-0.5,0.6-0.5,0.9C32.6,79.9,32,79.8,32.1,79.4L32.1,79.4z"/>
	</g>
	<g>
		<path class="st6" d="M27.7,82.3c-0.4-0.7-0.4-1.4-0.7-2c-0.3-0.2-1.3-0.8-1.7-1.1c-0.6-0.5-1.3-0.9-1.7-1.6
			c-0.4-0.7-0.9-1.2-1.1-2c-0.1-0.4-0.1-0.8-0.1-1.1c-0.1-1-0.9-1.9-1.1-3c0.6,0.9,1.5,1.8,1.7,2.9c0,1.2,0.6,1.8,1.3,2.8
			c0.2,0.3,0.4,0.4,0.7,0.6c0.3,0.2,0.8,0.6,0.9,0.6c0.6,0.4,1.4,0.7,1.9,1.2c0.5,0.7,0.5,1.5,0.9,2.1
			C28.9,82.3,28.1,82.8,27.7,82.3L27.7,82.3z"/>
	</g>
	<g>
		<path class="st6" d="M36.8,96.9c-0.3-0.2-1-0.4-1.4-0.6c-0.6-0.4-1.2-1-1.8-1.3c-1.1-0.5-2.5-0.5-3.6-0.8
			c-1.8-0.5-3.1-1.3-4.9-1.5c-0.5-0.1-0.7-0.6-1.1-0.9c-0.8-0.9-1.8-1.9-2.5-2.9c-0.5-0.7-0.9-1.4-1.4-2.2c0.6,0.7,1.1,1.3,1.6,2
			c1,1.1,2.1,2.2,3.1,3.2c0.1,0.2,0.2,0.2,0.4,0.3c1.6,0.1,3.4,0.9,4.9,1.3c2,0.4,4,0.4,5.5,2c0.5,0.4,1.2,0.4,1.7,0.8
			C38,96.7,37.3,97.5,36.8,96.9L36.8,96.9z"/>
	</g>
	<g>
		<path class="st6" d="M24.6,92.4c-0.3,0.2-0.5,0.1-0.8,0.1c-0.5,0-1.1-0.1-1.6-0.1c-0.1,0-0.2,0-0.1,0c-0.1,0.1-0.2,0.2-0.4,0.1
			c-0.2,0-0.3-0.2-0.4-0.2c-0.3-0.3-0.6-0.7-0.9-0.9c-0.5-0.2-1.5-0.1-2.1-0.7c-1.6-1.7-3.7-3.2-5.4-4.8c2.1,1.2,4.1,2.8,5.8,4.4
			c0.6,0.6,1.3,0.4,2,0.6c0.5,0.3,0.8,0.8,1.1,1c0.1-0.1,0.4-0.1,0.5-0.1c0.7,0,1.3,0.2,2,0.1c0,0,0.1,0,0,0
			C24.4,91.6,24.9,92.1,24.6,92.4L24.6,92.4z"/>
	</g>
	<g>
		<path class="st6" d="M35.7,93.5c-2.6-0.8-4.9-2.5-7.7-2.8c-1-0.3-2.2-1-2.9-1.8c-0.3-0.4-0.6-0.9-0.9-1.4c0.4,0.4,0.8,0.8,1.2,1.1
			c0.5,0.5,1.3,0.9,2,1.3c0.7,0.3,1.5,0.2,2.4,0.4c1.1,0.2,2.2,0.8,3.2,1.2c1,0.4,2.1,0.8,3.1,1.1c0.2,0.1,0.4,0.3,0.3,0.6
			C36.2,93.4,35.9,93.6,35.7,93.5L35.7,93.5z"/>
	</g>
	<g>
		<path class="st6" d="M33.2,89.4c-1.1-0.4-3.8-1.5-4.8-1.9c-1.3-0.4-2.8-0.7-4.1-1.2c-1.5-0.3-2.3-1.9-3.7-2.3
			c1.6,0,2.4,1.6,3.8,1.8c1.4,0.4,2.8,0.6,4.2,1c1.2,0.4,3.7,1.4,4.9,1.8C34.1,88.7,33.8,89.6,33.2,89.4L33.2,89.4z"/>
	</g>
	<g>
		<path class="st6" d="M25.8,81.5c-1.4-0.1-2.8-0.1-4.3-0.1c-2-0.4-4.3-1-5.6-2.8c0.7,0.3,1.3,0.9,2,1.2c0.6,0.3,1.7,0.5,2.2,0.7
			c1.4,0.4,2.8,0,4.2,0.1c0,0,1.4,0,1.4,0C26.5,80.6,26.4,81.6,25.8,81.5L25.8,81.5z"/>
	</g>
	<g>
		<path class="st6" d="M18.6,76.2c0-0.7-0.6-1.5-0.4-2.3c0-0.3-0.2-0.7-0.2-1c-0.1-0.4-0.2-0.5-0.5-0.7c-0.3-0.3-0.6-0.4-1-0.7
			c-0.3-0.2-0.2-0.6-0.1-0.8c0.2-1,0.5-2,0.8-2.9c0,1-0.1,2-0.3,3l0,0.3c0,0.1,0,0,0,0c0.4,0.3,1.1,0.6,1.5,1
			c0.3,0.4,0.4,0.8,0.5,1.2c0.1,0.2,0.1,0.5,0.1,0.7c0,0.2-0.1,0.3,0,0.5c0.1,0.7,0.5,1.2,0.4,1.9C19.5,77.1,18.4,76.9,18.6,76.2
			L18.6,76.2z"/>
	</g>
	<g>
		<path class="st6" d="M17.9,76.1C17.9,76.3,17.9,76.2,17.9,76.1c-0.4-0.4-0.8-0.6-1.2-1.1c-0.2-0.4-0.1-0.4-0.2-0.8
			c-0.1-0.3-0.4-0.3-0.6-0.5c-1.2-0.7-2-1.5-2.7-2.7c-0.2-0.4-0.2-0.9-0.2-1.3c0,0-0.2-1.2-0.2-1.2c0.1,0.4-0.6-1.7-0.6-1.6
			c0.2,0.4-1.2-1.9-1.2-1.8c0.1,0.1-0.9-1.1-0.9-1c-0.6-0.7-1-1.5-1.8-1.8c0,0-1.3-0.6-1.3-0.6l0,0l0,0c-0.6-0.4-1.4-0.8-1.9-1.5
			c-0.3-0.7-0.6-1.5-0.9-2.1c-0.3-0.8-0.5-1.7-0.7-2.5c0.6,1.5,1.3,3,2,4.4c0.3,0.4,1.3,0.9,1.8,1.2c0.5,0.3,2,0.7,2.5,1.4
			c0.5,0.7,1.3,1.5,1.8,2.2c0,0,1.3,1.8,1.3,1.8c0,0,0,0.1,0,0.1c0,0,0.7,1.6,0.7,1.6l0,0l0,0.1l0.2,1.2c0.1,0.3,0,0.7,0.2,1.1
			c0.3,0.5,0.9,1.3,1.4,1.7c0.6,0.6,1.8,0.8,2,1.8c0,0.2,0,0.3,0.1,0.5c0,0,0,0.1,0,0c0.1,0.1,0.6,0.6,0.8,0.7
			c0.2,0.2,0.4,0.3,0.6,0.7C18.9,76.5,18,76.7,17.9,76.1L17.9,76.1z"/>
	</g>
	<g>
		<path class="st6" d="M12.9,70.7c0,0-0.6-0.3-0.7-0.4c-0.2-0.1-0.5-0.6-0.7-0.8c-0.3-0.3-1.2-0.3-1.6-0.5c-1.7-1.1-3.3-2.2-4.7-3.6
			c-0.5-0.4-0.7-1.3-1-1.9c-0.5-1.3-1.2-2.3-1.8-3.5c0.9,1,1.8,2,2.4,3.3c0.3,0.5,0.5,1.3,1,1.6c0.8,0.8,2.1,1.6,3.1,2.3
			c0.8,0.5,1.4,1.1,2.3,1.2c0.3,0,0.9,0.2,1.1,0.5c0.2,0.2,0.3,0.4,0.5,0.6c0,0,0,0,0.1,0.1l0.4,0.2c0.2,0.1,0.3,0.1,0.5,0.4
			C14,70.6,13.2,71.2,12.9,70.7L12.9,70.7z"/>
	</g>
	<g>
		<path class="st6" d="M12.7,67.2c0.6-0.6,1.4-1.2,1.7-1.9c0.1-0.3,0.3-0.9,0.2-1.2c0-0.3-0.3-0.8-0.5-1.2c0,0-0.4-1.5-0.4-1.5
			c-0.1-0.3-0.4-0.9-0.5-1.4c0-0.5,0.2-1,0.3-1.4c0,0-0.1,0.7-0.1,0.7c-0.2,0.8,0.2,1.3,0.6,2c0,0,0.5,1.5,0.5,1.5
			c-0.1-0.2,0.3,0.6,0.3,0.6c0.5,0.6,0.3,1.5,0.1,2.2c-0.4,1-1.2,1.5-1.8,2.2C13.1,68.2,12.3,67.6,12.7,67.2L12.7,67.2z"/>
	</g>
	<g>
		<path class="st6" d="M8,62c-0.8-1.6-0.6-3.6,0.5-5c-0.4,0.8-0.6,1.6-0.6,2.4c0,0.8,0.4,1.6,0.5,2.5C8.4,62.2,8.1,62.3,8,62L8,62z"
			/>
	</g>
</g>
</svg>
