<?xml version="1.0" encoding="utf-8"?>
<!-- Generator: Adobe Illustrator 26.0.1, SVG Export Plug-In . SVG Version: 6.00 Build 0)  -->
<svg version="1.1" id="Layer_1" xmlns="http://www.w3.org/2000/svg" xmlns:xlink="http://www.w3.org/1999/xlink" x="0px" y="0px"
	 viewBox="0 0 120 140" style="enable-background:new 0 0 120 140;" xml:space="preserve">
<style type="text/css">
	.st0{opacity:0.5;fill:#3488B7;}
	.st1{opacity:0.5;fill:#FFFFFF;}
	.st2{opacity:0.5;fill:#FBB03B;}
	.st3{fill:#33726F;stroke:#2A5E5A;stroke-width:0.4065;stroke-miterlimit:10;}
	.st4{fill:#41827D;stroke:#2A5E5A;stroke-width:0.4065;stroke-miterlimit:10;}
	.st5{fill:#41827D;}
</style>
<g>
	<path class="st0" d="M0,5v130c0,2.8,2.2,5,5,5h110c2.8,0,5-2.2,5-5V5c0-2.8-2.2-5-5-5H5C2.3,0,0,2.2,0,5z"/>
	<path class="st1" d="M0.2,46.7c0-0.6,7.8-1.9,8.4-2c13.1-2.3,26.8-1.7,39.7,0.9c6.1,1.2,12.5,2.2,18.8,1.6c3.3-0.3,6.3-1.2,9.3-2.3
		c3-1.1,6.4-1.7,9.7-2.1c2.9-0.4,5.9-0.5,8.8-0.3c4.3,0.3,8,2.1,12.3,2.4c2.1,0.2,4.1,0.2,6.2,0c0.7-0.1,6.6-0.7,6.6-1.3
		c0,0,0.1,3.2,0.1,3.2c-4.9-0.7-10-1.1-14.9-1.3c-4.6-0.2-9.2-0.2-13.8,0.1c-5,0.3-9.7,1.3-14.6,2c-8.9,1.3-18,1.9-27,2
		c-5.3,0.1-10.5-0.7-15.7-1.2c-4.4-0.4-8.8-0.5-13.2-0.7c-4.1-0.1-8.3-0.2-12.4,0c-2.3,0.1-5.9,0.1-7.8,1.3
		c-0.2,0.1-0.4,0.3-0.5,0.4C0.2,49.4,0.2,46.7,0.2,46.7z"/>
	<path class="st1" d="M0.2,45.6c0-0.6,7.8-1.9,8.4-2c13.1-2.3,26.8-1.7,39.7,0.9c6.1,1.2,12.5,2.2,18.8,1.6c3.3-0.3,6.3-1.2,9.3-2.3
		c3-1.1,6.4-1.7,9.7-2.1c2.9-0.4,5.9-0.5,8.8-0.3c4.3,0.3,8,2.1,12.3,2.4c2.1,0.2,4.1,0.2,6.2,0c0.7-0.1,6.6-0.7,6.6-1.3
		c0,0,0.1,3.2,0.1,3.2c-4.9-0.7-10-1.1-14.9-1.3c-4.6-0.2-9.2-0.2-13.8,0.1c-5,0.3-9.7,1.3-14.6,2c-8.9,1.3-18,1.9-27,2
		c-5.3,0.1-10.5-0.7-15.7-1.2c-4.4-0.4-8.8-0.5-13.2-0.7c-4.1-0.1-8.3-0.2-12.4,0c-2.3,0.1-5.9,0.1-7.8,1.3
		c-0.2,0.1-0.4,0.3-0.5,0.4C0.2,48.3,0.2,45.6,0.2,45.6z"/>
	<path class="st1" d="M120.2,70.9c-1.8,0.4-3.5,0.9-5.1,1.5c-4.5,1.7-9,2.9-14,3.4c-9.6,0.9-19.2-0.6-28.4-2.4
		c-19.5-3.8-40-4.8-59.9-1.3c-0.9,0.2-12.8,2.1-12.7,3.1c0,0,0.1,4.1,0.1,4.1C0.4,79,0.7,78.8,1,78.6c2.9-1.8,8.2-1.8,11.7-2
		c6.2-0.3,12.5-0.2,18.7-0.1c6.6,0.2,13.3,0.4,19.9,1c7.9,0.7,15.7,1.9,23.7,1.8c13.6-0.1,27.3-1.1,40.7-3c1.5-0.2,3.1-0.5,4.6-0.7"
		/>
	<path class="st1" d="M120,69.4c-1.7,0.4-3.3,0.9-4.9,1.5c-4.5,1.7-9,2.9-14,3.4c-9.6,0.9-19.2-0.6-28.4-2.4
		c-19.5-3.8-40-4.8-59.9-1.3c-0.9,0.2-12.8,2.1-12.7,3.1c0,0,0.1,4.1,0.1,4.1c0.2-0.3,0.5-0.4,0.8-0.6c2.9-1.8,8.2-1.8,11.7-2
		c6.2-0.3,12.5-0.2,18.7-0.1c6.6,0.2,13.3,0.4,19.9,1C59.1,76.8,67,78,75,77.9c13.6-0.1,27.3-1.1,40.7-3c1.5-0.2,2.9-0.4,4.4-0.7"/>
	<path class="st1" d="M-0.2,11.1c4,0.5,8,1.2,12,2c9.2,1.8,18.8,3.3,28.4,2.4c5-0.5,9.5-1.7,14-3.4c4.5-1.7,9.7-2.5,14.6-3.2
		c4.4-0.6,8.9-0.8,13.3-0.5c6.5,0.5,12.1,3.1,18.6,3.6c3.1,0.2,6.2,0.3,9.4,0c1.1-0.1,9.9-1.1,9.9-2c0,0,0.1,4.8,0.1,4.8
		c-7.4-1.1-15-1.7-22.6-2c-6.9-0.3-13.9-0.3-20.8,0.1c-7.5,0.5-14.7,2-22,3.1c-13.4,1.9-27.1,2.9-40.7,3c-4.8,0-9.5-0.4-14.2-0.8"/>
	<path class="st1" d="M-0.2,10.3c4,0.5,8,1.2,12,2c9.2,1.8,18.8,3.3,28.4,2.4c5-0.5,9.5-1.7,14-3.4c4.5-1.7,9.7-2.5,14.6-3.2
		c4.4-0.6,8.9-0.8,13.3-0.5c6.5,0.5,12.1,3.1,18.6,3.6c3.1,0.2,6.2,0.3,9.4,0c1.1-0.1,9.9-1.1,9.9-2c0,0,0.1,4.8,0.1,4.8
		c-7.4-1.1-15-1.7-22.6-2c-6.9-0.3-13.9-0.3-20.8,0.1c-7.5,0.5-14.7,2-22,3.1c-13.4,1.9-27.1,2.9-40.7,3c-4.8,0-9.5-0.4-14.2-0.8"/>
	<circle class="st1" cx="14.3" cy="8" r="0.9"/>
	<circle class="st1" cx="16.1" cy="2.2" r="1"/>
	<circle class="st1" cx="22.8" cy="3.2" r="1.9"/>
	<circle class="st1" cx="47.2" cy="44.2" r="0.9"/>
	<circle class="st1" cx="43.1" cy="39.8" r="1"/>
	<circle class="st1" cx="47.3" cy="34.4" r="1.9"/>
	<circle class="st1" cx="87.9" cy="57.6" r="1.1"/>
	<circle class="st1" cx="92.7" cy="62.7" r="1.4"/>
	<circle class="st1" cx="87.1" cy="69.1" r="1.6"/>
	<circle class="st1" cx="41.1" cy="100" r="0.9"/>
	<circle class="st1" cx="37.1" cy="95.4" r="1"/>
	<circle class="st1" cx="41.4" cy="90.2" r="1.9"/>
	<circle class="st1" cx="93.7" cy="112.7" r="1.1"/>
	<circle class="st1" cx="91.3" cy="106.2" r="1.4"/>
	<circle class="st1" cx="98.9" cy="102.4" r="1.6"/>
	<path class="st2" d="M0,124.2c9.6-5.1,19.5-9.3,29.5-12.5c5.6-1.8,11.2-3.3,16.8-3.9c7.7-0.9,15.5,1.3,23.1,2.6
		c3.6,0.6,7.1,1.4,10.6,3c1.7,0.7,3.3,1.7,4.9,2.8c2.3,1.7,3.9,3.4,6.6,3.2c4.8-0.3,9.5-1.3,14.2-1.1c4.7,0.1,10,0.3,14.3,3.8v13
		c0,2.8-2.2,5-5,5H5c-2.8,0-5-2.2-5-5L0,124.2z"/>
</g>
<g>
	<path class="st3" d="M68.2,67.8c-2.1-0.9-5.5-1.7-7-1.8c-3.5-0.2-7.1,0.2-10,2.3c-0.9,0.7-1.8,1.5-2.1,2.6
		c-0.4,1.2-0.5,2.7,0.2,3.6c2.4,3,7.6,5.5,9.3,9.2c-3.6,1-13,3.2-15.1,6.2c0.6-0.8-4.7-7.8-5.4-8.5c-3.2-2.9-7.5-0.5-11.3-2.5
		c-0.6-0.3-1.2-0.8-1.5-1.4c-0.4-1,0.3-2.1,1-2.9c2.5-2.7,6.3-3.8,8.9-6.4c0.5-0.5,1-1.3,0.6-2c-0.2-0.4-0.8-0.6-1.2-0.8
		c-1.7-0.6-3.5-1.1-5.2-1.7c-1.2-0.4-2.6-0.9-3.2-2c-2.1-3.6,8.1-6.7,10.5-5.3c0.7,0.4,2.7,1.2,3.2,1.8c2.3,2.4,8.5,1.6,8.8-3.1
		c0.1-1.1-0.4-1.6,0.3-2.5c0.9-1.2,3.3-2.3,4.7-2.7c3.1-1,6.3-1.7,9.5-2.2c2.3-0.3,5.1-0.3,6.4,1.6c0.4,0.5,0.6,1.2,0.9,1.7
		c0.9,1.3,2.5,2,4.1,2.2s3.2-0.1,4.8-0.1c2.5-0.1,5.1,0,7.5,0.6c1.7,0.4,2.7,0.5,3.2,2c0.4,1.1,0.1,2.5,0.2,3.1
		c0.3,2.7,2.7,3.7,4.8,5.2c2.1,1.5,3.6,4.7,2.3,7c-0.7,1.3-2,2.4-3.5,2.3c-1.5-0.1-3.6-0.7-5-1c-2.2-0.5-4.3-0.4-6.8-0.6
		c-1.2-0.1-1.2,1-1.6,2.1c-0.2,0.7-0.9,1.7-1.4,2.2c-1.6,1.4-3.5,1.4-6.1,1.7c-3.9,0.5-5-1.7-4.8-3.8c0.1-1.4,0.8-1.9,1.2-3.8
		C69.4,69.3,69,68.2,68.2,67.8z"/>
	<path class="st3" d="M44,89.8c0-0.1-0.1-0.3-0.2-0.4c-0.2,0-1-1.6-1.1-1.8c-0.4-0.7-0.8-1.3-1.2-2c-0.8-1.2-1.6-3.1-2.6-4.2
		c-0.4,0.7-0.6,1.5-1.1,2.3c-0.8,1.4-2.2,2.3-3.5,3.4c-0.2,0.2-0.5,0.4-0.7,0.7c-0.2,0.3-0.4,0.6-0.5,1c-0.2,0.7-0.4,1.5-0.4,2.2
		c0,0.6,0.1,1.2,0.4,1.7c0.3,0.5,0.9,0.7,1.5,0.8c0.6,0.1,1.2,0,1.7-0.1c2.2-0.4,4.3-1,6.2-2c0.5-0.3,1.1-0.7,1.4-1.2
		C44,90.1,44,90,44,89.8C44,89.8,44,89.8,44,89.8z"/>
	<path class="st3" d="M68.3,115.1c0.6-0.2,4-5.7,4.4-6.2c0.9-1.2,1.8-2.4,2.9-3.5c1-1,2.1-2,3.3-2.7c1.7-1,3.3-1.5,4.8-3
		c1.4-1.5,2.6-3.4,3.3-5.4c0.5-1.3,0.9-2.7,0.8-4.1c-0.2-4-0.9-10.3,4.2-11.9c0,0,6.8-2.1,6.9-6.5c0,0-3.2,3.3-10.7,1.5
		c-1.4-0.3-4.4,0-5.8,0.5c-2,0.8-1.5,3.8-3.6,4.2c-2.1,0.4-4.3,0.2-6.5,0.3c-2.6,0.1-4.7,0.4-7.3,0.2c-2.5-0.1-5-0.3-7.5-0.8
		c-0.8-0.2-7.3-1.1-7.5-2c0,0,1.4,6.5,3.5,7.6c0.5,0.3,2.5,0.4,3.1,0.4c2.4-0.2,3.7-0.5,6.1,0.7c2.2,1.1,3.5,3.8,6,3.6
		c0.7-0.1,1.3-0.1,2.1,0c0.8,0.2-1.5,0.8-0.7,0.8c1-0.1-0.8,1.3-0.4,0.8c0.2-0.3-0.2,1,0.1,0.9c1.1-0.3-0.4-0.1,0.9,0.7
		c0.8,0.5-0.8,0.5,0,1c0.9,0.5,1.1-0.2,0.7,0.9c-0.8,1.9,2.6,2,0.3,1.8c-2-0.2,1.5-0.6,0.3,1.1c-1.4,1.9-1.5,4.4-1.8,6.5
		c-0.2,1.6-0.7,2.9-1.3,4.3c-0.2,0.4-4.1,9.4-3.6,9.2C65.2,116.1,68.3,115.1,68.3,115.1z"/>
	<path class="st3" d="M68.8,68.2c-1.8-1.4-8-1.7-9.5-1.8c-3.3-0.1-7.4,0.8-7.7,4.5c-0.5,7.6,15.4,7.9,19,6.7
		c-4.6-2.5-1.9-5.7-1.5-7.5c0.1-0.4,0.2-0.9,0.1-1.3C69.2,68.6,69.1,68.4,68.8,68.2z"/>
	<path class="st3" d="M23.9,79.3c0,0,5.2,9.5,6.9,9.3c0,0,3.7-3.5,4.6-4.6c0,0,2.6-2.7-2.8-2.4C32.7,81.5,26.3,81.3,23.9,79.3z"/>
	<path class="st3" d="M41.5,103.6c-2.1-0.6-5.1-3.1-7-4c-1.4-0.7-2.6-4.4-4-7.1c0,0,0.4,1.2,0.6,1.6c0.4,0.9,1.5,1.3,2.4,1.4
		c5.6,0.5,8.4-2.4,13.8-5.1c4.3-2.2,9.5-5.6,14.8-4.1c3.2,0.9,6.3,0.9,9.8-0.4c2.6-0.9,6.3-1.8,8.4,0.9c0,0,4.9,5.3-4.4,11.1
		c-1.8,1.1-3.4,2.5-4.7,4.1c-3.2,4.1-3.8,9.8-6.2,13.8c0,0-5.5,0.2-7.3,0.9c1-0.4-1.4-6.5-1.7-7c-1-1.9-2.6-3.6-4.5-4.6
		c-3-1.6-5.8-1.2-9.1-1.6C42,103.7,41.7,103.7,41.5,103.6z"/>
	<path class="st3" d="M29.1,70.8c0,0-4.7-8-4.5-9.4c0,0,3.7,3.4,4.8,3.9c0,0,6.1,1.6,1.6,4.5L29.1,70.8z"/>
	<path class="st4" d="M69.1,68.4c-1.6-1.7-8-2.6-12.1-2.1c-1.9,0.2-4,1-4.9,2.7c-0.9,1.7-0.4,3.9,0.9,5.3c1.3,1.4,3.1,2.2,4.9,2.8
		c5.2,1.5,10.8,1.1,16.2,0.5c1.2-0.1,2.4-0.3,3.5-0.8c1.1-0.5,2.1-1.3,2.4-2.5c0.5-1.7,0.4-2.9,2.5-2.8c3.3,0.1,6.6,0.6,9.8,1.4
		c0.8,0.2,1.7,0.4,2.5,0.3c2.1-0.3,3.4-2.7,3.1-4.7c-0.3-2.1-1.9-3.8-3.7-4.9c-1.8-1.1-4.3-2.4-4-4.5c0.1-0.7,0.4-1.3,0.5-1.9
		c0.1-1.2-0.6-2.3-1.7-2.9c-1-0.6-2.2-0.8-3.4-0.8c-2.9-0.2-5.9,0.4-8.8,0.2c-1.5-0.1-3.1-0.3-4.4-1c-1.8-0.9-1.8-1.8-2.3-3.5
		c-0.4-1.2-1.9-1.4-3.2-1.4c-5.4,0-10.9,1.1-15.9,3.2c-0.8,0.3-1.7,0.8-2,1.6c-0.2,0.5-0.1,1-0.2,1.5c-0.1,1.8-1.1,3.6-2.6,4.5
		c-1.5,1-3.6,1.1-5.2,0.3c-1.4-0.7-2.4-2-3.8-2.6c-2.5-1.2-5.5,0-7.9,1.5c-1.5,0.9-3,2.7-2,4.1c0.6,0.8,1.7,1,2.7,1.2
		c1.8,0.3,3.6,0.9,5.2,1.8c0.7,0.4,1.4,0.9,1.5,1.6c0.2,1-0.6,1.8-1.4,2.4c-2.9,2.1-6.7,3.1-9,6c-0.4,0.5-0.8,1.2-0.8,1.9
		c0,1,0.8,1.7,1.6,2.2c2.6,1.6,6,1,9,0.8c1.1-0.1,2.5,0.2,2.6,1.3c0.2,1.4-0.9,2.6-1.8,3.5c-1.2,1.1-2.6,1.9-3.4,3.3
		c-0.4,0.8-0.6,1.6-0.8,2.5c-0.1,0.6,0.1,2.5,0.6,3c0.4,0.4,1,0.4,1.5,0.4c5.9-0.3,10.1-5.6,15.4-8.2c2.9-1.4,6.3-2,9.5-1.7
		c2.2,0.2,4.4,0.9,6.7,1c1.8,0.1,3.7-0.1,5.5-0.6c1.4-0.4,3.4-0.7,4.9-0.5c1.2,0.2,2.3,1.1,2.5,2.1c-1.5-0.9-3.9-1.4-5.4-0.8
		c-2.9,1.2-6.1,2.2-9.3,1.7c-1.2-0.2-2.4-0.6-3.6-0.8c-4.7-0.8-9.4,1.3-13.5,3.7s-8.3,5.2-13,5.6c-0.9,0.1-1.8,0.1-2.5-0.4
		c-0.5-0.3-0.8-0.8-1.1-1.4c-1-2.2-0.6-5,1-6.8c1.2-1.3,3-2.2,3.8-3.7c0.1-0.2,0.2-0.5,0.2-0.7c0-0.9-1.3-1.1-2.2-1.1
		c-2.5,0.1-5.1-0.3-7.5-1C24.8,80,23.3,79.3,23,78c-0.3-1,0.2-2.1,0.8-2.9c1.9-2.7,5.3-3.7,7.9-5.6c0.5-0.4,1.1-0.9,1.2-1.5
		c0.1-0.8-0.4-1.6-1.1-1.9c-2.3-1.2-5.2-0.7-6.7-3.4c-0.8-1.5-0.3-3.4,0.7-4.8c1-1.3,2.6-2.2,4.1-2.9c2-0.9,4.4-1.7,6.5-0.9
		c2.2,0.8,3.8,3.1,6.1,3.1c1.8,0,3.3-1.4,3.9-3.1c0.3-0.8,0.4-1.6,0.8-2.3c1.8-2.7,6.2-4.3,9.1-5.3c4-1.4,8.3-1.9,12.5-1.6
		c1.1,0.1,2.3,0.3,3.2,0.9c0.9,0.6,1.6,1.7,1.4,2.8c-0.1,0.6-0.5,1.2-0.5,1.8c0.1,1.4,2,1.8,3.4,1.7c2.9-0.1,5.8-0.3,8.7-0.4
		c2.6-0.1,5.8,0.1,7,2.4c1,1.9,0.5,4.4,1.6,6.3c0.7,1.2,1.8,1.5,2.8,2.3c1.8,1.7,3.4,5.4,2.9,7.9c-0.5,2.4-3.2,3.7-5.6,3.8
		c-2.4,0.1-4.8-0.8-7.3-0.8c-1.6,0-3.3,0.4-4.5,1.3c-0.9,0.7-1.2,1.9-1.9,2.7c-1,1.3-2.3,1.4-3.9,1.6C69.7,79.8,63.3,80,57.1,79
		c-3-0.5-6.2-1.5-7.6-4.1c-1.5-2.7-0.3-6.4,2.1-8.3c2.5-1.9,5.8-2.3,8.9-1.7S69.4,68.1,69.1,68.4z"/>
	<g>
		<g>
			<path class="st5" d="M44,85.5c0.1,0,0.3,0,0.4,0c0.1,0,0.2,0,0.2-0.1c0.1,0,0.1-0.1,0.2-0.1c0.1,0,0.1-0.1,0.1-0.2
				c0-0.1,0.1-0.1,0.1-0.2c0,0,0-0.1,0-0.1c0-0.1-0.1-0.1-0.1-0.2c0,0-0.1,0-0.1-0.1c-0.1,0-0.2,0-0.3,0c-0.1,0-0.3,0-0.4,0
				c-0.1,0-0.2,0-0.2,0.1c-0.1,0-0.1,0.1-0.2,0.1c-0.1,0-0.1,0.1-0.1,0.2c0,0.1-0.1,0.1-0.1,0.2c0,0,0,0.1,0,0.1
				c0,0.1,0.1,0.1,0.1,0.2c0,0,0.1,0,0.1,0.1C43.8,85.5,43.9,85.5,44,85.5L44,85.5z"/>
		</g>
	</g>
	<g>
		<g>
			<path class="st5" d="M32.7,76.2c0.1,0,0.2,0,0.3,0c0.1,0,0.2,0,0.2,0c0.1,0,0.2,0,0.2-0.1c0.1,0,0.1-0.1,0.2-0.1
				c0.1,0,0.1-0.1,0.1-0.1c0,0,0-0.1,0-0.1c0-0.1,0-0.1,0-0.1c0,0-0.1,0-0.1,0c-0.1,0-0.2,0-0.2,0c-0.1,0-0.2,0-0.3,0
				c-0.1,0-0.2,0-0.2,0c-0.1,0-0.2,0-0.2,0.1c-0.1,0-0.1,0.1-0.2,0.1c-0.1,0-0.1,0.1-0.1,0.1c0,0,0,0.1,0,0.1c0,0.1,0,0.1,0,0.1
				c0,0,0.1,0,0.1,0C32.5,76.2,32.6,76.2,32.7,76.2L32.7,76.2z"/>
		</g>
	</g>
	<g>
		<g>
			<path class="st5" d="M38.9,76.4c0.4,0,1.3-0.6,0.5-0.6C39,75.8,38.1,76.4,38.9,76.4L38.9,76.4z"/>
		</g>
	</g>
	<g>
		<g>
			<path class="st5" d="M45.9,78.2c0.3,0,1.3-0.5,0.8-0.5C46.4,77.7,45.3,78.2,45.9,78.2L45.9,78.2z"/>
		</g>
	</g>
	<g>
		<g>
			<path class="st5" d="M43.5,81.2c0.5,0,1.2-0.7,0.4-0.7C43.5,80.5,42.7,81.2,43.5,81.2L43.5,81.2z"/>
		</g>
	</g>
	<g>
		<g>
			<path class="st5" d="M37.1,71.1c0.7,0,0.9-0.9,0.1-0.9C36.5,70.2,36.3,71.1,37.1,71.1L37.1,71.1z"/>
		</g>
	</g>
	<g>
		<g>
			<path class="st5" d="M34.7,62.2c0.7,0,0.9-0.9,0.1-0.9C34.1,61.3,33.9,62.2,34.7,62.2L34.7,62.2z"/>
		</g>
	</g>
	<g>
		<g>
			<path class="st5" d="M29.9,61.6c0.4,0,1.3-0.6,0.5-0.6C29.9,60.9,29.1,61.6,29.9,61.6L29.9,61.6z"/>
		</g>
	</g>
	<g>
		<g>
			<path class="st5" d="M45.8,61.3c0.4,0,1.3-0.5,0.5-0.5C45.9,60.7,45,61.3,45.8,61.3L45.8,61.3z"/>
		</g>
	</g>
	<g>
		<g>
			<path class="st5" d="M39.7,63.3c0.2,0,1.3-0.4,0.8-0.4C40.2,62.9,39.1,63.3,39.7,63.3L39.7,63.3z"/>
		</g>
	</g>
	<g>
		<g>
			<path class="st5" d="M43.4,70.5c0.7,0,0.9-0.9,0.1-0.9C42.9,69.7,42.6,70.5,43.4,70.5L43.4,70.5z"/>
		</g>
	</g>
	<g>
		<g>
			<path class="st5" d="M43.5,62.8c0.4,0,1.3-0.6,0.5-0.6C43.6,62.1,42.7,62.8,43.5,62.8L43.5,62.8z"/>
		</g>
	</g>
	<g>
		<g>
			<path class="st5" d="M45.6,68.2c0.7,0,0.9-0.9,0.1-0.9C45,67.3,44.8,68.2,45.6,68.2L45.6,68.2z"/>
		</g>
	</g>
	<g>
		<g>
			<path class="st5" d="M48.2,64.1c0.4,0,1.3-0.7,0.5-0.7C48.2,63.4,47.4,64.1,48.2,64.1L48.2,64.1z"/>
		</g>
	</g>
	<g>
		<g>
			<path class="st5" d="M52.2,56.1c0.4,0,1.3-0.6,0.5-0.6C52.3,55.5,51.5,56.1,52.2,56.1L52.2,56.1z"/>
		</g>
	</g>
	<g>
		<g>
			<path class="st5" d="M56.2,53.4c0.5,0,1.2-0.7,0.4-0.7C56.2,52.7,55.4,53.4,56.2,53.4L56.2,53.4z"/>
		</g>
	</g>
	<g>
		<g>
			<path class="st5" d="M55.4,63.9c0.5,0,1.2-0.7,0.5-0.7C55.4,63.2,54.6,63.9,55.4,63.9L55.4,63.9z"/>
		</g>
	</g>
	<g>
		<g>
			<path class="st5" d="M50.9,62.2c0.4,0,1.3-0.6,0.5-0.6C51,61.6,50.1,62.2,50.9,62.2L50.9,62.2z"/>
		</g>
	</g>
	<g>
		<g>
			<path class="st5" d="M54.6,60.5c0.4,0,1.3-0.6,0.5-0.6C54.7,59.9,53.8,60.5,54.6,60.5L54.6,60.5z"/>
		</g>
	</g>
	<g>
		<g>
			<path class="st5" d="M55.2,57.2c0.4,0,1.3-0.6,0.5-0.6C55.2,56.6,54.4,57.2,55.2,57.2L55.2,57.2z"/>
		</g>
	</g>
	<g>
		<g>
			<path class="st5" d="M61.8,52.6c0.5,0,1.2-0.8,0.4-0.8C61.7,51.9,61,52.6,61.8,52.6L61.8,52.6z"/>
		</g>
	</g>
	<g>
		<g>
			<path class="st5" d="M61.2,57.6c0.4,0,1.3-0.7,0.5-0.7C61.3,57,60.5,57.6,61.2,57.6L61.2,57.6z"/>
		</g>
	</g>
	<g>
		<g>
			<path class="st5" d="M60.3,61.2c0.5,0,1.2-0.8,0.4-0.8C60.3,60.5,59.5,61.2,60.3,61.2L60.3,61.2z"/>
		</g>
	</g>
	<g>
		<g>
			<path class="st5" d="M69.8,73.6c0.7,0,0.9-0.9,0.1-0.9C69.2,72.7,69,73.6,69.8,73.6L69.8,73.6z"/>
		</g>
	</g>
	<g>
		<g>
			<path class="st5" d="M71.1,75.2c0.2,0,1.3-0.5,0.8-0.5C71.7,74.8,70.6,75.2,71.1,75.2L71.1,75.2z"/>
		</g>
	</g>
	<g>
		<g>
			<path class="st5" d="M77.5,74.6c0.5,0,1.2-0.7,0.4-0.7C77.5,73.8,76.7,74.6,77.5,74.6L77.5,74.6z"/>
		</g>
	</g>
	<g>
		<g>
			<path class="st5" d="M73.1,70.5c0.7,0,0.9-0.8,0.1-0.8C72.5,69.7,72.3,70.5,73.1,70.5L73.1,70.5z"/>
		</g>
	</g>
	<g>
		<g>
			<path class="st5" d="M74.2,73.4c0.7,0,0.9-0.8,0.1-0.8C73.7,72.6,73.4,73.4,74.2,73.4L74.2,73.4z"/>
		</g>
	</g>
	<g>
		<g>
			<path class="st5" d="M81.6,70.1c0.2,0,1.3-0.5,0.8-0.5C82.1,69.6,81,70.1,81.6,70.1L81.6,70.1z"/>
		</g>
	</g>
	<g>
		<g>
			<path class="st5" d="M88.8,71.7c0.5,0,1.2-0.7,0.4-0.7C88.7,70.9,88,71.7,88.8,71.7L88.8,71.7z"/>
		</g>
	</g>
	<g>
		<g>
			<path class="st5" d="M77,68.2c0.4,0,1.3-0.6,0.5-0.6C77,67.6,76.2,68.2,77,68.2L77,68.2z"/>
		</g>
	</g>
	<g>
		<g>
			<path class="st5" d="M72.4,67.4c0.7,0,0.9-0.9,0.1-0.9C71.8,66.5,71.6,67.4,72.4,67.4L72.4,67.4z"/>
		</g>
	</g>
	<g>
		<g>
			<path class="st5" d="M67.7,64.4c0.3,0,1.3-0.5,0.5-0.5C67.9,63.9,66.9,64.4,67.7,64.4L67.7,64.4z"/>
		</g>
	</g>
	<g>
		<g>
			<path class="st5" d="M71.3,60.2c0.4,0,1.3-0.5,0.5-0.5C71.4,59.7,70.5,60.2,71.3,60.2L71.3,60.2z"/>
		</g>
	</g>
	<g>
		<g>
			<path class="st5" d="M72.7,63.7c0.4,0,1.3-0.6,0.5-0.6C72.8,63.1,72,63.7,72.7,63.7L72.7,63.7z"/>
		</g>
	</g>
	<g>
		<g>
			<path class="st5" d="M79.7,63.2c0.3,0,1.3-0.5,0.8-0.5C80.2,62.7,79.2,63.2,79.7,63.2L79.7,63.2z"/>
		</g>
	</g>
	<g>
		<g>
			<path class="st5" d="M80.4,66.3c0.4,0,1.3-0.6,0.5-0.6C80.5,65.7,79.6,66.3,80.4,66.3L80.4,66.3z"/>
		</g>
	</g>
	<g>
		<g>
			<path class="st5" d="M88.6,68.2c0.4,0,1.3-0.6,0.5-0.6C88.7,67.6,87.8,68.2,88.6,68.2L88.6,68.2z"/>
		</g>
	</g>
	<g>
		<g>
			<path class="st5" d="M84.6,66.6c0.7,0,0.9-0.9,0.1-0.9C84,65.7,83.8,66.6,84.6,66.6L84.6,66.6z"/>
		</g>
	</g>
	<g>
		<g>
			<path class="st5" d="M92.6,67.9c0.5,0,1.2-0.8,0.4-0.8C92.5,67.1,91.8,67.9,92.6,67.9L92.6,67.9z"/>
		</g>
	</g>
	<g>
		<g>
			<path class="st5" d="M93.2,70.8c0.3,0,1.3-0.5,0.5-0.5C93.4,70.3,92.4,70.8,93.2,70.8L93.2,70.8z"/>
		</g>
	</g>
	<g>
		<g>
			<path class="st5" d="M89.6,63c0.7,0,0.9-0.9,0.1-0.9C89,62.1,88.8,63,89.6,63L89.6,63z"/>
		</g>
	</g>
	<g>
		<g>
			<path class="st5" d="M85.7,62.2c0.2,0,1.3-0.5,0.8-0.5C86.2,61.7,85.1,62.2,85.7,62.2L85.7,62.2z"/>
		</g>
	</g>
	<g>
		<g>
			<path class="st5" d="M87.7,57.9c0.4,0,1.3-0.6,0.5-0.6C87.7,57.2,86.9,57.9,87.7,57.9L87.7,57.9z"/>
		</g>
	</g>
	<g>
		<g>
			<path class="st5" d="M84.8,55.6c0.7,0,0.9-0.8,0.1-0.8C84.3,54.8,84,55.6,84.8,55.6L84.8,55.6z"/>
		</g>
	</g>
	<g>
		<g>
			<path class="st5" d="M84.2,58.4c0.7,0,0.9-0.8,0.1-0.8C83.6,57.5,83.4,58.4,84.2,58.4L84.2,58.4z"/>
		</g>
	</g>
	<g>
		<g>
			<path class="st5" d="M80.4,55.3c0.5,0,1.2-0.8,0.4-0.8C80.3,54.5,79.6,55.3,80.4,55.3L80.4,55.3z"/>
		</g>
	</g>
	<g>
		<g>
			<path class="st5" d="M79.9,59.4c0.5,0,1.2-0.7,0.5-0.7C79.9,58.7,79.1,59.4,79.9,59.4L79.9,59.4z"/>
		</g>
	</g>
	<g>
		<g>
			<path class="st5" d="M76.2,62c0.4,0,1.3-0.5,0.5-0.5C76.3,61.5,75.4,62,76.2,62L76.2,62z"/>
		</g>
	</g>
	<g>
		<g>
			<path class="st5" d="M74.8,56c0.7,0,0.9-0.9,0.1-0.9C74.2,55.1,74,56,74.8,56L74.8,56z"/>
		</g>
	</g>
	<g>
		<g>
			<path class="st5" d="M71.3,55.3c0.2,0,1.3-0.5,0.8-0.5C71.8,54.8,70.7,55.3,71.3,55.3L71.3,55.3z"/>
		</g>
	</g>
	<g>
		<g>
			<path class="st5" d="M64.7,58.2c0.7,0,0.9-0.8,0.1-0.8C64.2,57.4,63.9,58.2,64.7,58.2L64.7,58.2z"/>
		</g>
	</g>
	<g>
		<g>
			<path class="st5" d="M65.9,60.9c0.5,0,1.2-0.8,0.4-0.8C65.8,60.1,65.1,60.9,65.9,60.9L65.9,60.9z"/>
		</g>
	</g>
	<g>
		<g>
			<path class="st5" d="M68.4,54.9c0.7,0,0.9-0.8,0.1-0.8C67.9,54.1,67.6,54.9,68.4,54.9L68.4,54.9z"/>
		</g>
	</g>
	<g>
		<g>
			<path class="st5" d="M66.9,51.6c0.5,0,1.2-0.7,0.4-0.7C66.9,50.8,66.1,51.6,66.9,51.6L66.9,51.6z"/>
		</g>
	</g>
	<g>
		<g>
			<path class="st5" d="M30.7,74.1c0.4,0,1.3-0.5,0.5-0.5C30.8,73.6,29.9,74.1,30.7,74.1L30.7,74.1z"/>
		</g>
	</g>
	<g>
		<g>
			<path class="st5" d="M36.1,74.1c0.4,0,1.3-0.6,0.5-0.6C36.2,73.5,35.3,74.1,36.1,74.1L36.1,74.1z"/>
		</g>
	</g>
	<g>
		<g>
			<path class="st5" d="M29.4,77.4c0.4,0,1.3-0.6,0.5-0.6C29.4,76.8,28.6,77.4,29.4,77.4L29.4,77.4z"/>
		</g>
	</g>
	<g>
		<g>
			<path class="st5" d="M45.2,74.1c0.7,0,0.9-0.8,0.1-0.8C44.6,73.3,44.4,74.1,45.2,74.1L45.2,74.1z"/>
		</g>
	</g>
	<g>
		<g>
			<path class="st5" d="M47.3,79c0.4,0,1.3-0.6,0.5-0.6C47.4,78.4,46.6,79,47.3,79L47.3,79z"/>
		</g>
	</g>
	<g>
		<g>
			<path class="st5" d="M49.8,84.3c0.7,0,0.9-0.9,0.1-0.9C49.2,83.4,49,84.3,49.8,84.3L49.8,84.3z"/>
		</g>
	</g>
	<g>
		<g>
			<path class="st5" d="M50.1,80.4c0.3,0,1.3-0.5,0.5-0.5C50.3,79.9,49.3,80.4,50.1,80.4L50.1,80.4z"/>
		</g>
	</g>
	<g>
		<g>
			<path class="st5" d="M54.7,70.5c0.3,0,1.3-0.5,0.8-0.5C55.3,70,54.2,70.5,54.7,70.5L54.7,70.5z"/>
		</g>
	</g>
	<g>
		<g>
			<path class="st5" d="M54.9,74.2c0.5,0,1.2-0.8,0.4-0.8C54.8,73.4,54.1,74.2,54.9,74.2L54.9,74.2z"/>
		</g>
	</g>
	<g>
		<g>
			<path class="st5" d="M57.7,74.8c0.4,0,1.3-0.6,0.5-0.6C57.7,74.2,56.9,74.8,57.7,74.8L57.7,74.8z"/>
		</g>
	</g>
	<g>
		<g>
			<path class="st5" d="M57.5,71.4c0.3,0,1.3-0.5,0.8-0.5C58,70.9,56.9,71.4,57.5,71.4L57.5,71.4z"/>
		</g>
	</g>
	<g>
		<g>
			<path class="st5" d="M62.2,74.8c0.7,0,0.9-0.9,0.1-0.9C61.6,73.9,61.4,74.8,62.2,74.8L62.2,74.8z"/>
		</g>
	</g>
	<g>
		<g>
			<path class="st5" d="M60.4,76.5c0.4,0,1.3-0.6,0.5-0.6C60.5,75.9,59.7,76.5,60.4,76.5L60.4,76.5z"/>
		</g>
	</g>
	<g>
		<g>
			<path class="st5" d="M66.3,77c0.4,0,1.3-0.6,0.5-0.6C66.3,76.4,65.5,77,66.3,77L66.3,77z"/>
		</g>
	</g>
	<g>
		<g>
			<path class="st5" d="M66.4,72.5c0.7,0,0.9-0.9,0.1-0.9C65.9,71.7,65.6,72.5,66.4,72.5L66.4,72.5z"/>
		</g>
	</g>
	<g>
		<g>
			<path class="st5" d="M59.4,69.9c0.7,0,0.9-0.8,0.1-0.8C58.9,69,58.6,69.9,59.4,69.9L59.4,69.9z"/>
		</g>
	</g>
	<g>
		<g>
			<path class="st5" d="M65.6,69.9c0.4,0,1.3-0.6,0.5-0.6C65.7,69.3,64.8,69.9,65.6,69.9L65.6,69.9z"/>
		</g>
	</g>
	<g>
		<g>
			<path class="st5" d="M53.7,81.3c0.4,0,1.3-0.6,0.5-0.6C53.8,80.7,52.9,81.3,53.7,81.3L53.7,81.3z"/>
		</g>
	</g>
	<g>
		<g>
			<path class="st5" d="M53.7,82.7c0.4,0,1.3-0.6,0.5-0.6C53.8,82.1,52.9,82.7,53.7,82.7L53.7,82.7z"/>
		</g>
	</g>
	<g>
		<g>
			<path class="st5" d="M61.8,82.5c0.7,0,0.9-0.9,0.1-0.9C61.2,81.6,61,82.5,61.8,82.5L61.8,82.5z"/>
		</g>
	</g>
	<g>
		<g>
			<path class="st5" d="M57.8,81.6c0.4,0,1.3-0.5,0.5-0.5C57.9,81.1,57,81.6,57.8,81.6L57.8,81.6z"/>
		</g>
	</g>
	<g>
		<g>
			<path class="st5" d="M57.5,82.7c0.3,0,1.3-0.5,0.8-0.5C58,82.2,56.9,82.7,57.5,82.7L57.5,82.7z"/>
		</g>
	</g>
	<g>
		<g>
			<path class="st5" d="M65.5,84.2c0.2,0,1.3-0.5,0.8-0.5C66,83.8,64.9,84.2,65.5,84.2L65.5,84.2z"/>
		</g>
	</g>
	<g>
		<g>
			<path class="st5" d="M65.6,82.6c0.5,0,1.2-0.7,0.4-0.7C65.6,81.9,64.8,82.6,65.6,82.6L65.6,82.6z"/>
		</g>
	</g>
	<g>
		<g>
			<path class="st5" d="M69.4,81c0.4,0,1.3-0.6,0.5-0.6C69.5,80.4,68.6,81,69.4,81L69.4,81z"/>
		</g>
	</g>
	<g>
		<g>
			<path class="st5" d="M66.4,81c0.4,0,1.3-0.5,0.5-0.5C66.5,80.4,65.6,81,66.4,81L66.4,81z"/>
		</g>
	</g>
	<g>
		<g>
			<path class="st5" d="M69.9,83.2c0.7,0,0.9-0.8,0.1-0.8C69.3,82.4,69.1,83.2,69.9,83.2L69.9,83.2z"/>
		</g>
	</g>
	<g>
		<g>
			<path class="st5" d="M74,83.1c0.7,0,0.9-0.9,0.1-0.9C73.4,82.3,73.2,83.1,74,83.1L74,83.1z"/>
		</g>
	</g>
	<g>
		<g>
			<path class="st5" d="M72.5,81.5c0.5,0,1.2-0.8,0.4-0.8C72.4,80.7,71.7,81.5,72.5,81.5L72.5,81.5z"/>
		</g>
	</g>
	<g>
		<g>
			<path class="st5" d="M76.8,80.8c0.3,0,1.3-0.5,0.8-0.5C77.3,80.3,76.3,80.8,76.8,80.8L76.8,80.8z"/>
		</g>
	</g>
	<g>
		<g>
			<path class="st5" d="M77,82.4c0.5,0,1.2-0.7,0.5-0.7C77,81.7,76.2,82.4,77,82.4L77,82.4z"/>
		</g>
	</g>
	<g>
		<g>
			<path class="st5" d="M80.4,79.5c0.2,0,1.3-0.5,0.8-0.5C80.9,79,79.8,79.5,80.4,79.5L80.4,79.5z"/>
		</g>
	</g>
	<g>
		<g>
			<path class="st5" d="M79.9,81.4c0.4,0,1.3-0.6,0.5-0.6C80,80.8,79.1,81.4,79.9,81.4L79.9,81.4z"/>
		</g>
	</g>
	<g>
		<g>
			<path class="st5" d="M79.7,83.3c0.2,0,1.3-0.5,0.8-0.5C80.3,82.8,79.2,83.3,79.7,83.3L79.7,83.3z"/>
		</g>
	</g>
	<g>
		<g>
			<path class="st5" d="M81.5,85.8c0.2,0,1.3-0.5,0.8-0.5C82,85.4,80.9,85.8,81.5,85.8L81.5,85.8z"/>
		</g>
	</g>
	<g>
		<g>
			<path class="st5" d="M81.6,77.5c0.2,0,1.3-0.4,0.8-0.4C82.1,77,81,77.5,81.6,77.5L81.6,77.5z"/>
		</g>
	</g>
	<g>
		<g>
			<path class="st5" d="M83.7,76.4c0.3,0,1.3-0.5,0.8-0.5C84.2,76,83.1,76.4,83.7,76.4L83.7,76.4z"/>
		</g>
	</g>
	<g>
		<g>
			<path class="st5" d="M84,82.6c0.7,0,0.9-0.8,0.1-0.8C83.5,81.7,83.2,82.6,84,82.6L84,82.6z"/>
		</g>
	</g>
	<g>
		<g>
			<path class="st5" d="M83.5,80.3c0.7,0,0.9-0.9,0.1-0.9C82.9,79.5,82.7,80.3,83.5,80.3L83.5,80.3z"/>
		</g>
	</g>
	<g>
		<g>
			<path class="st5" d="M86.5,75.9c0.5,0,1.2-0.7,0.4-0.7C86.5,75.2,85.7,75.9,86.5,75.9L86.5,75.9z"/>
		</g>
	</g>
	<g>
		<g>
			<path class="st5" d="M91.5,76.1c0.4,0,1.3-0.6,0.5-0.6C91.6,75.5,90.7,76.1,91.5,76.1L91.5,76.1z"/>
		</g>
	</g>
	<g>
		<g>
			<path class="st5" d="M89,77.9c0.4,0,1.3-0.7,0.5-0.7C89,77.2,88.2,77.9,89,77.9L89,77.9z"/>
		</g>
	</g>
	<g>
		<g>
			<path class="st5" d="M85.6,78.8c0.5,0,1.2-0.8,0.4-0.8C85.5,78.1,84.8,78.8,85.6,78.8L85.6,78.8z"/>
		</g>
	</g>
	<g>
		<g>
			<path class="st5" d="M85.4,82.8c0.2,0,1.3-0.5,0.8-0.5C86,82.3,84.9,82.8,85.4,82.8L85.4,82.8z"/>
		</g>
	</g>
	<g>
		<g>
			<path class="st5" d="M94.7,76c0.4,0,1.3-0.7,0.5-0.7C94.7,75.3,93.9,76,94.7,76L94.7,76z"/>
		</g>
	</g>
	<g>
		<g>
			<path class="st5" d="M82.4,89.3c0.3,0,1.3-0.5,0.8-0.5C82.9,88.8,81.8,89.3,82.4,89.3L82.4,89.3z"/>
		</g>
	</g>
	<g>
		<g>
			<path class="st5" d="M84.8,87.2c0.5,0,1.2-0.8,0.4-0.8C84.7,86.4,84,87.2,84.8,87.2L84.8,87.2z"/>
		</g>
	</g>
	<g>
		<g>
			<path class="st5" d="M84.4,91c0.5,0,1.2-0.8,0.4-0.8C84.3,90.2,83.6,91,84.4,91L84.4,91z"/>
		</g>
	</g>
	<g>
		<g>
			<path class="st5" d="M82.7,95.1c0.7,0,0.9-0.8,0.1-0.8C82.2,94.3,81.9,95.1,82.7,95.1L82.7,95.1z"/>
		</g>
	</g>
	<g>
		<g>
			<path class="st5" d="M84.8,95.2c0.5,0,1.2-0.8,0.4-0.8C84.7,94.4,84,95.2,84.8,95.2L84.8,95.2z"/>
		</g>
	</g>
	<g>
		<g>
			<path class="st5" d="M79.4,97.7c0.4,0,1.3-0.7,0.5-0.7C79.4,97,78.6,97.7,79.4,97.7L79.4,97.7z"/>
		</g>
	</g>
	<g>
		<g>
			<path class="st5" d="M80.6,99.2c0.5,0,1.2-0.7,0.4-0.7C80.5,98.5,79.8,99.2,80.6,99.2L80.6,99.2z"/>
		</g>
	</g>
	<g>
		<g>
			<path class="st5" d="M67.1,114.7c0.7,0,0.9-0.9,0.1-0.9C66.5,113.8,66.3,114.7,67.1,114.7L67.1,114.7z"/>
		</g>
	</g>
	<g>
		<g>
			<path class="st5" d="M68.4,112.6c0.5,0,1.2-0.8,0.4-0.8C68.3,111.8,67.6,112.6,68.4,112.6L68.4,112.6z"/>
		</g>
	</g>
	<g>
		<g>
			<path class="st5" d="M69.7,108c0.4,0,1.3-0.7,0.5-0.7C69.7,107.3,68.9,108,69.7,108L69.7,108z"/>
		</g>
	</g>
	<g>
		<g>
			<path class="st5" d="M70.7,109.7c0.7,0,0.9-0.9,0.1-0.9C70.1,108.8,69.9,109.7,70.7,109.7L70.7,109.7z"/>
		</g>
	</g>
	<g>
		<g>
			<path class="st5" d="M73.4,105.8c0.2,0,1.3-0.4,0.8-0.4C73.9,105.3,72.8,105.8,73.4,105.8L73.4,105.8z"/>
		</g>
	</g>
	<g>
		<g>
			<path class="st5" d="M71.4,104.9c0.3,0,1.3-0.5,0.8-0.5C71.9,104.4,70.8,104.9,71.4,104.9L71.4,104.9z"/>
		</g>
	</g>
	<g>
		<g>
			<path class="st5" d="M74.3,100.6c0.2,0,1.3-0.4,0.8-0.4C74.9,100.2,73.8,100.6,74.3,100.6L74.3,100.6z"/>
		</g>
	</g>
	<g>
		<g>
			<path class="st5" d="M74.1,102.9c0.3,0,1.3-0.5,0.8-0.5C74.5,102.4,73.5,102.9,74.1,102.9L74.1,102.9z"/>
		</g>
	</g>
	<g>
		<g>
			<path class="st5" d="M78.2,101.2c0.3,0,1.3-0.5,0.8-0.5C78.6,100.7,77.6,101.2,78.2,101.2L78.2,101.2z"/>
		</g>
	</g>
	<g>
		<g>
			<path class="st5" d="M77.4,99.2c0.4,0,1.3-0.6,0.5-0.6C77.5,98.6,76.6,99.2,77.4,99.2L77.4,99.2z"/>
		</g>
	</g>
	<g>
		<g>
			<path class="st5" d="M35.1,97.7c0.4,0,1.3-0.6,0.5-0.6C35.1,97.1,34.3,97.7,35.1,97.7L35.1,97.7z"/>
		</g>
	</g>
	<g>
		<g>
			<path class="st5" d="M37.2,99c0.4,0,1.3-0.6,0.5-0.6C37.2,98.4,36.4,99,37.2,99L37.2,99z"/>
		</g>
	</g>
	<g>
		<g>
			<path class="st5" d="M39.4,99.8c0.4,0,1.3-0.6,0.5-0.6C39.5,99.2,38.6,99.8,39.4,99.8L39.4,99.8z"/>
		</g>
	</g>
	<g>
		<g>
			<path class="st5" d="M45.3,99.3c0.5,0,1.2-0.8,0.4-0.8C45.2,98.6,44.5,99.3,45.3,99.3L45.3,99.3z"/>
		</g>
	</g>
	<g>
		<g>
			<path class="st5" d="M41.7,96c0.5,0,1.2-0.7,0.4-0.7C41.7,95.3,40.9,96,41.7,96L41.7,96z"/>
		</g>
	</g>
	<g>
		<g>
			<path class="st5" d="M41.9,98.2c0.4,0,1.3-0.6,0.5-0.6C42,97.6,41.1,98.2,41.9,98.2L41.9,98.2z"/>
		</g>
	</g>
	<g>
		<g>
			<path class="st5" d="M41.8,100.4c0.3,0,1.3-0.5,0.8-0.5C42.3,99.9,41.2,100.4,41.8,100.4L41.8,100.4z"/>
		</g>
	</g>
	<g>
		<g>
			<path class="st5" d="M48.3,102.8c0.4,0,1.3-0.5,0.5-0.5C48.4,102.3,47.5,102.8,48.3,102.8L48.3,102.8z"/>
		</g>
	</g>
	<g>
		<g>
			<path class="st5" d="M50.2,97.7c0.7,0,0.9-0.9,0.1-0.9C49.6,96.8,49.4,97.7,50.2,97.7L50.2,97.7z"/>
		</g>
	</g>
	<g>
		<g>
			<path class="st5" d="M47,100.9c0.7,0,0.9-0.9,0.1-0.9C46.4,99.9,46.2,100.9,47,100.9L47,100.9z"/>
		</g>
	</g>
	<g>
		<g>
			<path class="st5" d="M44.7,101.6c0.5,0,1.2-0.8,0.4-0.8C44.7,100.8,43.9,101.6,44.7,101.6L44.7,101.6z"/>
		</g>
	</g>
	<g>
		<g>
			<path class="st5" d="M51.6,102.6c0.5,0,1.2-0.8,0.4-0.8C51.5,101.9,50.8,102.6,51.6,102.6L51.6,102.6z"/>
		</g>
	</g>
	<g>
		<g>
			<path class="st5" d="M52.8,98.2c0.7,0,0.9-0.9,0.1-0.9C52.2,97.3,52,98.2,52.8,98.2L52.8,98.2z"/>
		</g>
	</g>
	<g>
		<g>
			<path class="st5" d="M51.2,100.6c0.5,0,1.2-0.7,0.5-0.7C51.2,99.9,50.4,100.6,51.2,100.6L51.2,100.6z"/>
		</g>
	</g>
	<g>
		<g>
			<path class="st5" d="M52,103.3c0.5,0,1.2-0.8,0.4-0.8C51.9,102.5,51.2,103.3,52,103.3L52,103.3z"/>
		</g>
	</g>
	<g>
		<g>
			<path class="st5" d="M53.7,105.1c0.3,0,1.3-0.5,0.8-0.5C54.2,104.6,53.1,105.1,53.7,105.1L53.7,105.1z"/>
		</g>
	</g>
	<g>
		<g>
			<path class="st5" d="M57.7,109.4c0.7,0,0.9-0.9,0.1-0.9C57.1,108.6,56.9,109.4,57.7,109.4L57.7,109.4z"/>
		</g>
	</g>
	<g>
		<g>
			<path class="st5" d="M58.6,114.9c0.5,0,1.2-0.8,0.4-0.8C58.5,114.2,57.8,114.9,58.6,114.9L58.6,114.9z"/>
		</g>
	</g>
	<g>
		<g>
			<path class="st5" d="M62.9,115c0.7,0,0.9-0.9,0.1-0.9C62.3,114.1,62.1,115,62.9,115L62.9,115z"/>
		</g>
	</g>
	<g>
		<g>
			<path class="st5" d="M59.1,112.4c0.3,0,1.3-0.5,0.8-0.5C59.6,111.9,58.5,112.4,59.1,112.4L59.1,112.4z"/>
		</g>
	</g>
	<g>
		<g>
			<path class="st5" d="M61.5,112.7c0.5,0,1.2-0.8,0.4-0.8C61.4,111.9,60.7,112.7,61.5,112.7L61.5,112.7z"/>
		</g>
	</g>
	<g>
		<g>
			<path class="st5" d="M64.7,112.3c0.2,0,1.3-0.4,0.8-0.4C65.2,111.8,64.1,112.3,64.7,112.3L64.7,112.3z"/>
		</g>
	</g>
	<g>
		<g>
			<path class="st5" d="M63,107.2c0.4,0,1.3-0.7,0.5-0.7C63,106.5,62.2,107.2,63,107.2L63,107.2z"/>
		</g>
	</g>
	<g>
		<g>
			<path class="st5" d="M61.5,109.4c0.4,0,1.3-0.6,0.5-0.6C61.5,108.8,60.7,109.4,61.5,109.4L61.5,109.4z"/>
		</g>
	</g>
	<g>
		<g>
			<path class="st5" d="M58.5,104c0.4,0,1.3-0.5,0.5-0.5C58.6,103.4,57.7,104,58.5,104L58.5,104z"/>
		</g>
	</g>
	<g>
		<g>
			<path class="st5" d="M56.5,106.5c0.7,0,0.9-0.9,0.1-0.9C55.9,105.6,55.7,106.5,56.5,106.5L56.5,106.5z"/>
		</g>
	</g>
	<g>
		<g>
			<path class="st5" d="M56.2,102c0.2,0,1.3-0.5,0.8-0.5C56.7,101.5,55.6,102,56.2,102L56.2,102z"/>
		</g>
	</g>
	<g>
		<g>
			<path class="st5" d="M55.7,97.9c0.3,0,1.3-0.5,0.8-0.5C56.2,97.4,55.1,97.9,55.7,97.9L55.7,97.9z"/>
		</g>
	</g>
	<g>
		<g>
			<path class="st5" d="M54,95.5c0.5,0,1.2-0.7,0.4-0.7C53.9,94.7,53.2,95.5,54,95.5L54,95.5z"/>
		</g>
	</g>
	<g>
		<g>
			<path class="st5" d="M47.6,95.1c0.4,0,1.3-0.5,0.5-0.5C47.7,94.6,46.8,95.1,47.6,95.1L47.6,95.1z"/>
		</g>
	</g>
	<g>
		<g>
			<path class="st5" d="M47.8,97.1c0.7,0,0.9-0.8,0.1-0.8C47.3,96.3,47,97.1,47.8,97.1L47.8,97.1z"/>
		</g>
	</g>
	<g>
		<g>
			<path class="st5" d="M44.4,95.2c0.7,0,0.9-0.9,0.1-0.9C43.8,94.3,43.6,95.2,44.4,95.2L44.4,95.2z"/>
		</g>
	</g>
	<g>
		<g>
			<path class="st5" d="M38.7,97.5c0.7,0,0.9-0.8,0.1-0.8C38.1,96.7,37.9,97.5,38.7,97.5L38.7,97.5z"/>
		</g>
	</g>
	<g>
		<g>
			<path class="st5" d="M50.4,91.3c0.4,0,1.2-0.7,0.5-0.7C50.4,90.7,49.6,91.3,50.4,91.3L50.4,91.3z"/>
		</g>
	</g>
	<g>
		<g>
			<path class="st5" d="M50.4,94.3c0.5,0,1.2-0.8,0.4-0.8C50.3,93.5,49.6,94.3,50.4,94.3L50.4,94.3z"/>
		</g>
	</g>
	<g>
		<g>
			<path class="st5" d="M55.4,92.5c0.4,0,1.3-0.5,0.5-0.5C55.5,91.9,54.6,92.5,55.4,92.5L55.4,92.5z"/>
		</g>
	</g>
	<g>
		<g>
			<path class="st5" d="M55.3,89.5c0.3,0,1.3-0.5,0.8-0.5C55.8,89,54.7,89.5,55.3,89.5L55.3,89.5z"/>
		</g>
	</g>
	<g>
		<g>
			<path class="st5" d="M60.6,89.9c0.5,0,1.2-0.8,0.4-0.8C60.5,89.2,59.8,89.9,60.6,89.9L60.6,89.9z"/>
		</g>
	</g>
	<g>
		<g>
			<path class="st5" d="M60.6,93c0.4,0,1.3-0.6,0.5-0.6C60.7,92.4,59.8,93,60.6,93L60.6,93z"/>
		</g>
	</g>
	<g>
		<g>
			<path class="st5" d="M57.1,92.9c0.4,0,1.3-0.6,0.5-0.6C57.2,92.3,56.4,92.9,57.1,92.9L57.1,92.9z"/>
		</g>
	</g>
	<g>
		<g>
			<path class="st5" d="M57.2,96.8c0.5,0,1.2-0.7,0.4-0.7C57.1,96.1,56.4,96.8,57.2,96.8L57.2,96.8z"/>
		</g>
	</g>
	<g>
		<g>
			<path class="st5" d="M59.2,96.9c0.7,0,0.9-0.8,0.1-0.8C58.6,96,58.4,96.9,59.2,96.9L59.2,96.9z"/>
		</g>
	</g>
	<g>
		<g>
			<path class="st5" d="M59.8,101.8c0.5,0,1.2-0.8,0.4-0.8C59.7,101.1,59,101.8,59.8,101.8L59.8,101.8z"/>
		</g>
	</g>
	<g>
		<g>
			<path class="st5" d="M62.7,104.2c0.3,0,1.3-0.5,0.8-0.5C63.2,103.7,62.1,104.2,62.7,104.2L62.7,104.2z"/>
		</g>
	</g>
	<g>
		<g>
			<path class="st5" d="M66,104.8c0.4,0,1.3-0.6,0.5-0.6C66.1,104.2,65.2,104.8,66,104.8L66,104.8z"/>
		</g>
	</g>
	<g>
		<g>
			<path class="st5" d="M65.9,108.3c0.3,0,1.3-0.5,0.8-0.5C66.4,107.8,65.3,108.3,65.9,108.3L65.9,108.3z"/>
		</g>
	</g>
	<g>
		<g>
			<path class="st5" d="M64.5,109.4c0.2,0,1.3-0.5,0.8-0.5C65.1,108.9,64,109.4,64.5,109.4L64.5,109.4z"/>
		</g>
	</g>
	<g>
		<g>
			<path class="st5" d="M58.8,99.9c0.7,0,0.9-0.9,0.1-0.9C58.2,99,58,99.9,58.8,99.9L58.8,99.9z"/>
		</g>
	</g>
	<g>
		<g>
			<path class="st5" d="M62.3,99.8c0.5,0,1.2-0.7,0.5-0.7C62.3,99.1,61.5,99.8,62.3,99.8L62.3,99.8z"/>
		</g>
	</g>
	<g>
		<g>
			<path class="st5" d="M62.7,101c0.3,0,1.3-0.5,0.8-0.5C63.2,100.5,62.1,101,62.7,101L62.7,101z"/>
		</g>
	</g>
	<g>
		<g>
			<path class="st5" d="M69.7,100c0.5,0,1.2-0.7,0.4-0.7C69.7,99.2,68.9,100,69.7,100L69.7,100z"/>
		</g>
	</g>
	<g>
		<g>
			<path class="st5" d="M69.1,103.8c0.5,0,1.2-0.7,0.4-0.7C69,103.1,68.3,103.8,69.1,103.8L69.1,103.8z"/>
		</g>
	</g>
	<g>
		<g>
			<path class="st5" d="M67,102.5c0.2,0,1.3-0.4,0.8-0.4C67.6,102,66.5,102.5,67,102.5L67,102.5z"/>
		</g>
	</g>
	<g>
		<g>
			<path class="st5" d="M67.5,98.9c0.7,0,0.9-0.9,0.1-0.9C66.9,98,66.7,98.9,67.5,98.9L67.5,98.9z"/>
		</g>
	</g>
	<g>
		<g>
			<path class="st5" d="M63.9,97c0.4,0,1.2-0.7,0.5-0.7C63.9,96.4,63.1,97,63.9,97L63.9,97z"/>
		</g>
	</g>
	<g>
		<g>
			<path class="st5" d="M67,94.5c0.4,0,1.3-0.6,0.5-0.6C67.2,93.9,66.3,94.5,67,94.5L67,94.5z"/>
		</g>
	</g>
	<g>
		<g>
			<path class="st5" d="M65.3,92.4c0.5,0,1.2-0.7,0.5-0.7C65.3,91.7,64.6,92.4,65.3,92.4L65.3,92.4z"/>
		</g>
	</g>
	<g>
		<g>
			<path class="st5" d="M65.2,89.6c0.4,0,1.3-0.7,0.5-0.7C65.2,89,64.4,89.6,65.2,89.6L65.2,89.6z"/>
		</g>
	</g>
	<g>
		<g>
			<path class="st5" d="M70.4,89.7c0.7,0,0.9-0.8,0.1-0.8C69.9,88.9,69.6,89.7,70.4,89.7L70.4,89.7z"/>
		</g>
	</g>
	<g>
		<g>
			<path class="st5" d="M75.2,87c0.2,0,1.3-0.5,0.8-0.5C75.8,86.6,74.7,87,75.2,87L75.2,87z"/>
		</g>
	</g>
	<g>
		<g>
			<path class="st5" d="M74.2,91.7c0.4,0,1.3-0.7,0.5-0.7C74.2,91.1,73.4,91.7,74.2,91.7L74.2,91.7z"/>
		</g>
	</g>
	<g>
		<g>
			<path class="st5" d="M72.2,91.5c0.3,0,1.3-0.5,0.5-0.5C72.4,91,71.4,91.5,72.2,91.5L72.2,91.5z"/>
		</g>
	</g>
	<g>
		<g>
			<path class="st5" d="M71.4,97.9c0.3,0,1.3-0.5,0.8-0.5C71.9,97.4,70.8,97.9,71.4,97.9L71.4,97.9z"/>
		</g>
	</g>
	<g>
		<g>
			<path class="st5" d="M75.8,96.9c0.4,0,1.3-0.7,0.5-0.7C75.8,96.2,75,96.9,75.8,96.9L75.8,96.9z"/>
		</g>
	</g>
	<g>
		<g>
			<path class="st5" d="M76.1,94.7c0.5,0,1.2-0.7,0.4-0.7C76,94,75.3,94.7,76.1,94.7L76.1,94.7z"/>
		</g>
	</g>
	<g>
		<g>
			<path class="st5" d="M78.2,92.4c0.4,0,1.3-0.6,0.5-0.6C78.2,91.7,77.4,92.4,78.2,92.4L78.2,92.4z"/>
		</g>
	</g>
	<g>
		<g>
			<path class="st5" d="M78.3,90.4c0.7,0,0.9-0.9,0.1-0.9C77.8,89.5,77.5,90.4,78.3,90.4L78.3,90.4z"/>
		</g>
	</g>
	<g>
		<g>
			<path class="st5" d="M73,94.2c0.2,0,1.3-0.5,0.8-0.5C73.5,93.7,72.4,94.2,73,94.2L73,94.2z"/>
		</g>
	</g>
	<g>
		<g>
			<path class="st5" d="M71.6,95.7c0.4,0,1.2-0.7,0.5-0.7C71.6,95,70.8,95.7,71.6,95.7L71.6,95.7z"/>
		</g>
	</g>
	<g>
		<g>
			<path class="st5" d="M71.2,93.4c0.7,0,0.9-0.8,0.1-0.8C70.7,92.6,70.4,93.4,71.2,93.4L71.2,93.4z"/>
		</g>
	</g>
	<g>
		<g>
			<path class="st5" d="M70.6,93.2c0.7,0,0.9-0.9,0.1-0.9C70,92.3,69.8,93.2,70.6,93.2L70.6,93.2z"/>
		</g>
	</g>
	<g>
		<g>
			<path class="st5" d="M74.6,89c0.3,0,1.3-0.5,0.8-0.5C75.1,88.5,74,89,74.6,89L74.6,89z"/>
		</g>
	</g>
	<g>
		<g>
			<path class="st5" d="M35.2,92.2c0.2,0,1.3-0.5,0.8-0.5C35.7,91.7,34.6,92.2,35.2,92.2L35.2,92.2z"/>
		</g>
	</g>
	<g>
		<g>
			<path class="st5" d="M35.5,89.7c0.7,0,0.9-0.9,0.1-0.9C34.9,88.8,34.7,89.7,35.5,89.7L35.5,89.7z"/>
		</g>
	</g>
	<g>
		<g>
			<path class="st5" d="M35.7,90.7c0.5,0,1.2-0.7,0.4-0.7C35.7,90,34.9,90.7,35.7,90.7L35.7,90.7z"/>
		</g>
	</g>
	<g>
		<g>
			<path class="st5" d="M38.8,90.4c0.4,0,1.3-0.6,0.5-0.6C38.8,89.8,38,90.4,38.8,90.4L38.8,90.4z"/>
		</g>
	</g>
	<g>
		<g>
			<path class="st5" d="M40.5,88.8c0.7,0,0.9-0.9,0.1-0.9C40,87.9,39.7,88.8,40.5,88.8L40.5,88.8z"/>
		</g>
	</g>
	<g>
		<g>
			<path class="st5" d="M39.8,86.2c0.4,0,1.3-0.6,0.5-0.6C39.9,85.5,39,86.2,39.8,86.2L39.8,86.2z"/>
		</g>
	</g>
	<g>
		<g>
			<path class="st5" d="M37.6,86.4c0.4,0,1.3-0.6,0.5-0.6C37.6,85.8,36.8,86.4,37.6,86.4L37.6,86.4z"/>
		</g>
	</g>
	<g>
		<g>
			<path class="st5" d="M38,88.6c0.3,0,1.3-0.5,0.8-0.5C38.5,88.1,37.4,88.6,38,88.6L38,88.6z"/>
		</g>
	</g>
	<g>
		<g>
			<path class="st5" d="M27.3,82.9c0.5,0,1.2-0.8,0.4-0.8C27.2,82.2,26.5,82.9,27.3,82.9L27.3,82.9z"/>
		</g>
	</g>
	<g>
		<g>
			<path class="st5" d="M28.6,85c0.7,0,0.9-0.9,0.1-0.9C28.1,84.1,27.8,85,28.6,85L28.6,85z"/>
		</g>
	</g>
	<g>
		<g>
			<path class="st5" d="M30.2,84.1c0.7,0,0.9-0.9,0.1-0.9C29.6,83.2,29.4,84.1,30.2,84.1L30.2,84.1z"/>
		</g>
	</g>
	<g>
		<g>
			<path class="st5" d="M33.3,82.9c0.2,0,1.3-0.5,0.8-0.5C33.8,82.4,32.8,82.9,33.3,82.9L33.3,82.9z"/>
		</g>
	</g>
	<g>
		<g>
			<path class="st5" d="M32.7,85.8c0.7,0,0.9-0.9,0.1-0.9C32.2,84.9,31.9,85.8,32.7,85.8L32.7,85.8z"/>
		</g>
	</g>
	<g>
		<g>
			<path class="st5" d="M29.9,87c0.2,0,1.3-0.5,0.8-0.5C30.4,86.6,29.3,87,29.9,87L29.9,87z"/>
		</g>
	</g>
</g>
</svg>
