<?xml version="1.0" encoding="utf-8"?>
<!-- Generator: Adobe Illustrator 26.0.1, SVG Export Plug-In . SVG Version: 6.00 Build 0)  -->
<svg version="1.1" id="Layer_1" xmlns="http://www.w3.org/2000/svg" xmlns:xlink="http://www.w3.org/1999/xlink" x="0px" y="0px"
	 viewBox="0 0 120 140" style="enable-background:new 0 0 120 140;" xml:space="preserve">
<style type="text/css">
	.st0{opacity:0.5;fill:#3488B7;}
	.st1{opacity:0.5;fill:#FFFFFF;}
	.st2{opacity:0.5;fill:#FBB03B;}
	.st3{fill:#EFD050;stroke:#D3B740;stroke-width:0.8969;stroke-miterlimit:10;}
	.st4{fill:#D3B740;}
	.st5{fill:none;stroke:#D3B740;stroke-width:0.8969;stroke-linecap:round;stroke-miterlimit:10;}
	.st6{fill:none;stroke:#D19A42;stroke-width:0.8969;stroke-linecap:round;stroke-miterlimit:10;}
	.st7{fill:none;stroke:#D3B740;stroke-width:0.7412;stroke-linecap:round;stroke-miterlimit:10;}
	.st8{fill:none;stroke:#D19A42;stroke-width:0.7412;stroke-linecap:round;stroke-miterlimit:10;}
</style>
<g>
	<path class="st0" d="M0,5v130c0,2.8,2.2,5,5,5h110c2.8,0,5-2.2,5-5V5c0-2.8-2.2-5-5-5H5C2.3,0,0,2.2,0,5z"/>
	<path class="st1" d="M0.2,46.7c0-0.6,7.8-1.9,8.4-2c13.1-2.3,26.8-1.7,39.7,0.9c6.1,1.2,12.5,2.2,18.8,1.6c3.3-0.3,6.3-1.2,9.3-2.3
		c3-1.1,6.4-1.7,9.7-2.1c2.9-0.4,5.9-0.5,8.8-0.3c4.3,0.3,8,2.1,12.3,2.4c2.1,0.2,4.1,0.2,6.2,0c0.7-0.1,6.6-0.7,6.6-1.3
		c0,0,0.1,3.2,0.1,3.2c-4.9-0.7-10-1.1-14.9-1.3c-4.6-0.2-9.2-0.2-13.8,0.1c-5,0.3-9.7,1.3-14.6,2c-8.9,1.3-18,1.9-27,2
		c-5.3,0.1-10.5-0.7-15.7-1.2c-4.4-0.4-8.8-0.5-13.2-0.7c-4.1-0.1-8.3-0.2-12.4,0c-2.3,0.1-5.9,0.1-7.8,1.3
		c-0.2,0.1-0.4,0.3-0.5,0.4C0.2,49.4,0.2,46.7,0.2,46.7z"/>
	<path class="st1" d="M0.2,45.6c0-0.6,7.8-1.9,8.4-2c13.1-2.3,26.8-1.7,39.7,0.9c6.1,1.2,12.5,2.2,18.8,1.6c3.3-0.3,6.3-1.2,9.3-2.3
		c3-1.1,6.4-1.7,9.7-2.1c2.9-0.4,5.9-0.5,8.8-0.3c4.3,0.3,8,2.1,12.3,2.4c2.1,0.2,4.1,0.2,6.2,0c0.7-0.1,6.6-0.7,6.6-1.3
		c0,0,0.1,3.2,0.1,3.2c-4.9-0.7-10-1.1-14.9-1.3c-4.6-0.2-9.2-0.2-13.8,0.1c-5,0.3-9.7,1.3-14.6,2c-8.9,1.3-18,1.9-27,2
		c-5.3,0.1-10.5-0.7-15.7-1.2c-4.4-0.4-8.8-0.5-13.2-0.7c-4.1-0.1-8.3-0.2-12.4,0c-2.3,0.1-5.9,0.1-7.8,1.3
		c-0.2,0.1-0.4,0.3-0.5,0.4C0.2,48.3,0.2,45.6,0.2,45.6z"/>
	<path class="st1" d="M120.2,70.9c-1.8,0.4-3.5,0.9-5.1,1.5c-4.5,1.7-9,2.9-14,3.4c-9.6,0.9-19.2-0.6-28.4-2.4
		c-19.5-3.8-40-4.8-59.9-1.3c-0.9,0.2-12.8,2.1-12.7,3.1c0,0,0.1,4.1,0.1,4.1C0.4,79,0.7,78.8,1,78.6c2.9-1.8,8.2-1.8,11.7-2
		c6.2-0.3,12.5-0.2,18.7-0.1c6.6,0.2,13.3,0.4,19.9,1c7.9,0.7,15.7,1.9,23.7,1.8c13.6-0.1,27.3-1.1,40.7-3c1.5-0.2,3.1-0.5,4.6-0.7"
		/>
	<path class="st1" d="M120,69.4c-1.7,0.4-3.3,0.9-4.9,1.5c-4.5,1.7-9,2.9-14,3.4c-9.6,0.9-19.2-0.6-28.4-2.4
		c-19.5-3.8-40-4.8-59.9-1.3c-0.9,0.2-12.8,2.1-12.7,3.1c0,0,0.1,4.1,0.1,4.1c0.2-0.3,0.5-0.4,0.8-0.6c2.9-1.8,8.2-1.8,11.7-2
		c6.2-0.3,12.5-0.2,18.7-0.1c6.6,0.2,13.3,0.4,19.9,1C59.1,76.8,67,78,75,77.9c13.6-0.1,27.3-1.1,40.7-3c1.5-0.2,2.9-0.4,4.4-0.7"/>
	<path class="st1" d="M-0.2,11.1c4,0.5,8,1.2,12,2c9.2,1.8,18.8,3.3,28.4,2.4c5-0.5,9.5-1.7,14-3.4c4.5-1.7,9.7-2.5,14.6-3.2
		c4.4-0.6,8.9-0.8,13.3-0.5c6.5,0.5,12.1,3.1,18.6,3.6c3.1,0.2,6.2,0.3,9.4,0c1.1-0.1,9.9-1.1,9.9-2c0,0,0.1,4.8,0.1,4.8
		c-7.4-1.1-15-1.7-22.6-2c-6.9-0.3-13.9-0.3-20.8,0.1c-7.5,0.5-14.7,2-22,3.1c-13.4,1.9-27.1,2.9-40.7,3c-4.8,0-9.5-0.4-14.2-0.8"/>
	<path class="st1" d="M-0.2,10.3c4,0.5,8,1.2,12,2c9.2,1.8,18.8,3.3,28.4,2.4c5-0.5,9.5-1.7,14-3.4c4.5-1.7,9.7-2.5,14.6-3.2
		c4.4-0.6,8.9-0.8,13.3-0.5c6.5,0.5,12.1,3.1,18.6,3.6c3.1,0.2,6.2,0.3,9.4,0c1.1-0.1,9.9-1.1,9.9-2c0,0,0.1,4.8,0.1,4.8
		c-7.4-1.1-15-1.7-22.6-2c-6.9-0.3-13.9-0.3-20.8,0.1c-7.5,0.5-14.7,2-22,3.1c-13.4,1.9-27.1,2.9-40.7,3c-4.8,0-9.5-0.4-14.2-0.8"/>
	<circle class="st1" cx="14.3" cy="8" r="0.9"/>
	<circle class="st1" cx="16.1" cy="2.2" r="1"/>
	<circle class="st1" cx="22.8" cy="3.2" r="1.9"/>
	<circle class="st1" cx="47.2" cy="44.2" r="0.9"/>
	<circle class="st1" cx="43.1" cy="39.8" r="1"/>
	<circle class="st1" cx="47.3" cy="34.4" r="1.9"/>
	<circle class="st1" cx="87.9" cy="57.6" r="1.1"/>
	<circle class="st1" cx="92.7" cy="62.7" r="1.4"/>
	<circle class="st1" cx="87.1" cy="69.1" r="1.6"/>
	<circle class="st1" cx="41.1" cy="100" r="0.9"/>
	<circle class="st1" cx="37.1" cy="95.4" r="1"/>
	<circle class="st1" cx="41.4" cy="90.2" r="1.9"/>
	<circle class="st1" cx="93.7" cy="112.7" r="1.1"/>
	<circle class="st1" cx="91.3" cy="106.2" r="1.4"/>
	<circle class="st1" cx="98.9" cy="102.4" r="1.6"/>
	<path class="st2" d="M0,124.2c9.6-5.1,19.5-9.3,29.5-12.5c5.6-1.8,11.2-3.3,16.8-3.9c7.7-0.9,15.5,1.3,23.1,2.6
		c3.6,0.6,7.1,1.4,10.6,3c1.7,0.7,3.3,1.7,4.9,2.8c2.3,1.7,3.9,3.4,6.6,3.2c4.8-0.3,9.5-1.3,14.2-1.1c4.7,0.1,10,0.3,14.3,3.8v13
		c0,2.8-2.2,5-5,5H5c-2.8,0-5-2.2-5-5L0,124.2z"/>
</g>
<g>
	<g>
		<path class="st3" d="M85.2,124.9c-0.1,0.1-0.2,0.2-0.4,0.2c-1,0.3-2.3,0.3-3.3,0.4c-3,0.3-6.5,0.6-9.3-0.8c-0.5-0.2-1-0.6-1.4-1
			c-0.2-0.2,0.1-1.8,0.1-2.1c0-1.7-0.1-3.5-0.5-5.2c-1.1-5.3-4.2-9.9-8.7-12.8c-1.3-0.9-2.7-1.6-4.2-2.2c-1.9-0.8-3.4-1.5-5.5-1.1
			c-1,0.2-1.9,0.3-2.9,0.4c-3,0.2-6,0-8.9-0.7c-2.1-0.5-4.1-1.3-6-2.5c-2.2-1.3-3.7-3.1-5.5-4.9c-1.1-1.1-2.7-2-4.2-2.5
			c-1.4-0.5-3-0.7-4.5-0.6c-1,0.1-1.9,0.4-2.8,0.7c-0.6,0.2-1.6,1.3-2.3,1.2c-0.6-0.2,0.4-1.6,0.7-2c0.6-1,1.2-1.9,1.9-2.8
			c1.8-2.5,3.9-4.9,6.2-7c4-3.7,8.9-6.4,14.3-7.4c0,0,12.1-2.8,26.3,5.9c3.8,2.3,8.9,3.1,13.2,3.4c3.6,0.3,7.4,0.3,11-0.4
			c1.6-0.3,3.4-0.1,5,0.3c2.2,0.5,4.3,1.3,6.3,2.2c1,0.4,5.9,2.1,5.6,3.4c-0.4,1.3-3.5,1-4.4,1c-4.5,0-9.4,0-13.7,1.2
			c-1.3,0.4-2.2,1.2-3.1,2.2c-0.9,1-1.7,2-2.3,3.1c-0.7,1.2-1.3,2.7-1.3,4.1c0,1.6,0.8,2.6,1.5,3.9c0.8,1.5,1.2,3.2,1.7,4.8
			c1,3.4,1.8,7,2,10.5c0.1,1.3,0.1,2.6,0,3.8C86,122.7,86.1,124.3,85.2,124.9z"/>
		<g>
			<path class="st4" d="M73.7,123.8c0.8-12.3-5.5-24.1-17.9-27.2c9.1,2.1,15.8,9.3,17.7,18.3c0.7,2.9,1,5.9,0.9,9
				C74.3,124.3,73.6,124.3,73.7,123.8L73.7,123.8z"/>
		</g>
		<g>
			<path class="st4" d="M49,96.4c-5.5-0.5-11.8-1.1-16-5c-1.2-1.5-2.7-2.8-4.2-3.9c-1.6-1.1-3.4-1.9-5.4-1.9c2-0.1,3.8,0.7,5.5,1.8
				c1.6,1,3.1,2.4,4.4,3.8c4.3,3.7,10.4,4.2,15.9,4.6C49.4,95.8,49.4,96.5,49,96.4L49,96.4z"/>
		</g>
		<g>
			<path class="st4" d="M60,93.2c-5.7-1.6-11.4-3.2-16.5-6.3c-1.3-0.7-2.2-2-3.2-3.1c-2.9-3.3-7-5.6-11.5-5.8
				c4.5,0,8.7,2.4,11.7,5.6c1,1.1,1.9,2.2,3.2,3c5,3,10.9,4.5,16.5,5.9C60.6,92.6,60.5,93.3,60,93.2L60,93.2z"/>
		</g>
		<g>
			<path class="st4" d="M77.3,123.9c-0.3-8-1.7-17.2-8-22.8c6.5,5.5,8.1,14.7,8.6,22.8C78,124.3,77.3,124.3,77.3,123.9L77.3,123.9z"
				/>
		</g>
		<g>
			<path class="st4" d="M77.3,110.3c-1.2-6.2-2.7-13.2-7.3-17.9c-1.6-1.5-3.4-2.8-5.1-4c-1.9-1.1-4.1-1.3-6.3-1.7
				c-2.2-0.5-4.2-1.3-6.2-2.2c-3.7-1.8-8.7-3.5-10-7.9c1.3,4.4,6.3,6,10,7.8c2,0.8,4.1,1.7,6.2,2.1c2.1,0.4,4.4,0.6,6.4,1.7
				c1.9,1.2,3.6,2.5,5.3,4c1.7,1.5,2.9,3.4,3.8,5.4c1.9,4,3.1,8.3,3.9,12.6C78,110.6,77.4,110.8,77.3,110.3L77.3,110.3z"/>
		</g>
		<g>
			<path class="st4" d="M82.5,123.1c0.3-4.9-0.2-10-1.4-14.8c-0.4-1.6-0.9-3.2-1.5-4.8c1.3,3.1,2.3,6.3,2.8,9.6
				c0.6,3.3,0.9,6.6,0.7,10C83.1,123.6,82.4,123.5,82.5,123.1L82.5,123.1z"/>
		</g>
		<g>
			<path class="st4" d="M77.3,101.2l-1.4-2.7c-1.1-1.7-1.6-3.8-2.2-5.7c-0.3-0.9-0.9-1.8-1.5-2.5c-2.6-3.1-5.1-6.3-7.3-9.8
				c1.1,1.7,2.3,3.3,3.6,4.9c1.8,2.5,4.3,4.5,5.6,7.2c0.7,1.9,1.2,3.8,2.4,5.6c0,0,1.5,2.6,1.5,2.6
				C78.2,101.2,77.6,101.6,77.3,101.2L77.3,101.2z"/>
		</g>
		<g>
			<path class="st4" d="M78.2,98.9c-1.2-6.7,3.9-10.9,9.9-12.2c-5.7,1.4-10.6,5.7-9.3,12.1C79,99.1,78.3,99.3,78.2,98.9L78.2,98.9z"
				/>
		</g>
		<g>
			<path class="st4" d="M76.5,91.6c1.9-4.6,6.2-9,11.6-8.3c-1.3,0-2.5,0-3.7,0.5c-3.5,1.3-5.9,4.6-7.3,8C77,92.3,76.4,92,76.5,91.6
				L76.5,91.6z"/>
		</g>
		<g>
			<path class="st4" d="M75.4,88.5c1-1.8,0.7-4.3-1.3-5.2c0.5,0.2,1,0.4,1.3,0.8c1.2,1.2,1.1,3.1,0.6,4.7
				C75.8,89.2,75.2,88.9,75.4,88.5L75.4,88.5z"/>
		</g>
	</g>
	<path class="st5" d="M2.9,73.8c1.7,0.4,4.2,1.3,6.5,3.3c2.5,2.3,2.7,4.4,5,6.7c1.4,1.4,3.7,3.1,8,3.9"/>
	<path class="st5" d="M6.7,66.2c-0.1,6,1.6,8.5,3.3,9.7c2.2,1.5,4.4,0.6,7.1,2c3.1,1.7,4.6,5.2,5.3,8.2"/>
	<path class="st5" d="M12.8,71.4c0.9,2.3,1.8,3,2.6,3.2c1.2,0.3,2.1-0.7,3.2-0.2c0.9,0.4,1.1,1.6,1.4,2.5c0.5,1.5,1.7,3.4,4.9,5.4"
		/>
	<path class="st5" d="M12.9,66.1c3.3,1.2,4.1,2.5,4.3,3.4c0.2,1-0.5,1.7-0.1,2.6c0.5,1.1,2.3,1,3.5,1.5c1.5,0.6,3.2,2.4,4,8"/>
	<path class="st5" d="M12.9,61.7c1.6,3.7,3.5,5,4.9,5.6c2.1,0.8,3.1,0,5.1,1c3,1.5,3.9,4.9,4.1,5.6c0.8,3.2-0.4,5.8-0.7,6.5"/>
	<path class="st5" d="M19.4,58c1.2,0.9,2.7,2.4,3.2,4.5c0.3,1.2,0,1.9-0.1,3.5c0,0.8-0.3,4.7,0.8,7.1c1.6,3.5,6.5,4.4,8.2,4.7"/>
	<path class="st5" d="M61.4,62.3c-1.5,2-1.5,3.2-1.3,3.9c0.4,1.2,1.7,1.4,1.8,2.6c0.1,1-0.7,1.8-1.3,2.5c-1,1.2-2,3.3-1.9,7"/>
	<path class="st6" d="M45.5,49.9c0.3,1.7,0.6,4.4-0.4,7.3c-1.1,3.3-2.9,4.3-4,7.3c-0.7,1.8-1.3,4.7-0.3,8.9"/>
	<path class="st6" d="M46.9,73.4c5.2-2.9,6.6-5.6,6.7-7.6c0.2-2.7-1.7-4.1-1.8-7.1c-0.1-3.6,2.3-6.6,4.5-8.7"/>
	<path class="st6" d="M57.4,74.2c1.2-2.2,1-3.4,0.6-4.1c-0.6-1.1-1.9-1.1-2.2-2.2c-0.3-1,0.5-1.9,0.9-2.7c0.8-1.3,1.4-3.5,0.8-7.2"
		/>
	<path class="st6" d="M41,53.8c2.3,2.7,2.4,4.2,2.1,5.1c-0.4,1-1.3,1.2-1.4,2.2c-0.1,1.3,1.5,2,2.3,3c1,1.2,1.6,3.6-0.4,8.9"/>
	<path class="st6" d="M63.6,78.8c1.9-3.5,1.8-5.8,1.3-7.3c-0.6-2.1-1.9-2.4-2.4-4.7c-0.7-3.3,1.4-6.1,1.8-6.7c2-2.6,4.8-3.3,5.6-3.5
		"/>
	<path class="st6" d="M56.5,54.1c0.6,1.4,1.2,3.4,0.5,5.5c-0.4,1.2-0.9,1.6-1.8,3c-0.4,0.7-2.5,4-2.7,6.6c-0.3,3.8,3.5,7,4.8,8.1"/>
	<path class="st5" d="M43,49c0.9,1.5,2,3.9,2,7c0.1,3.4-1.3,5-1.4,8.2c-0.1,1.9,0.3,4.8,2.7,8.5"/>
	<path class="st5" d="M50.8,47.7c-4.4,4.1-5.1,7-4.8,9c0.4,2.7,2.6,3.6,3.4,6.5c1,3.4-0.7,6.9-2.3,9.5"/>
	<path class="st5" d="M54.7,58.6c-1.1,2.2-0.9,3.4-0.5,4.1c0.6,1.1,1.9,1.1,2.3,2.2c0.3,1-0.4,1.9-0.8,2.7c-0.8,1.4-1.4,3.6-0.6,7.2
		"/>
	<path class="st5" d="M60.2,56.1c1.4,3.2,1.1,4.7,0.5,5.5c-0.7,0.8-1.6,0.8-2,1.7c-0.4,1.2,0.8,2.3,1.3,3.6c0.6,1.5,0.5,4-3,8.4"/>
	<path class="st5" d="M62,53.8c-1.6,3.6-1.3,6-0.7,7.4c0.8,2.1,2.1,2.3,2.8,4.5c0.9,3.2-0.9,6.2-1.2,6.8c-1.8,2.8-4.5,3.7-5.3,4"/>
	<path class="st5" d="M55.3,51.6c0.2,1.6,0.1,3.6-1.1,5.4c-0.7,1-1.3,1.3-2.6,2.4c-0.6,0.5-3.6,3-4.6,5.5c-1.4,3.6,1.2,7.8,2.2,9.2"
		/>
	<path class="st6" d="M10.9,64.4c1.3,1.2,3.1,3.2,4,6.1c1.1,3.3,0.2,5.1,1.1,8.3c0.5,1.9,1.8,4.5,5.1,7.3"/>
	<path class="st6" d="M24.4,54.8c-3,5.2-2.8,8.2-1.9,10c1.2,2.4,3.5,2.6,5.2,5.2c1.9,3,1.4,6.8,0.6,9.8"/>
	<path class="st6" d="M31.6,58.5c-0.4,2.4,0.1,3.5,0.7,4.1c0.9,0.8,2.2,0.5,2.8,1.4c0.6,0.8,0.2,1.9,0,2.8c-0.3,1.5-0.2,3.8,1.6,7.1
		"/>
	<path class="st6" d="M16,64.6c3.3,1.3,4.1,2.5,4.2,3.5c0.1,1.1-0.6,1.7-0.2,2.6c0.5,1.1,2.2,1,3.5,1.5c1.5,0.6,3.2,2.4,3.9,8"/>
	<path class="st6" d="M22.7,53.8c0.9,3.9,2.6,5.5,3.9,6.3c1.9,1.2,3.1,0.5,4.9,1.9c2.7,2,3.1,5.5,3.1,6.2c0.3,3.3-1.3,5.7-1.8,6.3"
		/>
	<path class="st6" d="M40,50.1c0.6,1.4,1.2,3.4,0.5,5.5c-0.4,1.2-0.9,1.6-1.8,3c-0.4,0.7-2.5,4-2.7,6.6c-0.3,3.8,3.5,7,4.8,8.1"/>
	<path class="st5" d="M27.3,52.6c1.3,1.2,3.1,3.2,4,6.1c1.1,3.3,0.2,5.1,1.1,8.3c0.5,1.9,1.8,4.5,5.1,7.3"/>
	<path class="st5" d="M25.8,51.6c-3,5.2-2.8,8.2-1.9,10c1.2,2.4,3.5,2.6,5.2,5.2c1.9,3,1.4,6.8,0.6,9.8"/>
	<path class="st5" d="M28,60.2c-0.4,2.4,0.1,3.5,0.7,4.1c0.9,0.8,2.2,0.5,2.8,1.4c0.6,0.8,0.2,1.9,0,2.8c-0.3,1.5-0.2,3.8,1.6,7.1"
		/>
	<path class="st5" d="M33.1,54.5c2.3,2.7,2.4,4.2,2.1,5.1c-0.4,1-1.3,1.2-1.4,2.2c-0.1,1.3,1.5,2,2.3,3c1,1.2,1.6,3.6-0.4,8.9"/>
	<path class="st5" d="M35.2,50.2c-0.4,4,0.5,6.1,1.5,7.3c1.4,1.7,2.7,1.5,4,3.4c1.8,2.8,1,6.2,0.8,6.9c-0.9,3.2-3.2,4.9-3.8,5.4"/>
	<path class="st5" d="M40.3,73.7c-0.8-1.3-1.7-3.2-1.3-5.4c0.2-1.2,0.7-1.8,1.3-3.2c0.3-0.7,1.9-4.3,1.8-6.9
		c-0.3-3.8-4.4-6.5-5.9-7.3"/>
	<path class="st5" d="M109.2,62.9c-0.2,4-1.6,5.9-2.7,6.9c-1.7,1.5-2.9,1-4.5,2.7c-2.3,2.4-2,5.9-2,6.6c0.3,3.3,2.3,5.4,2.9,5.9"/>
	<path class="st5" d="M101.9,61.7c-0.8,1.3-1.7,3.2-1.5,5.3c0.2,1.2,0.6,1.8,1.2,3.3c0.3,0.7,1.8,4.3,1.6,7
		c-0.4,3.8-4.6,6.4-6.1,7.2"/>
	<path class="st6" d="M74.7,62.8c0.3,1.7,0.9,4.3,2.8,6.7c2.1,2.7,4.1,3,6.3,5.5c1.3,1.5,2.8,4,3.3,8.3"/>
	<path class="st6" d="M77.7,83.3c-4.8-3.6-5.7-6.5-5.6-8.5c0.2-2.7,2.2-3.8,2.8-6.8c0.6-3.5-1.3-6.8-3.2-9.2"/>
	<path class="st6" d="M64.7,79.6c-0.3-2.5,0.3-3.5,0.9-4c1-0.8,2.2-0.3,2.9-1.3c0.6-0.8,0.3-1.9,0.2-2.8c-0.2-1.5,0-3.8,2-7"/>
	<path class="st6" d="M76.1,64.5c-1.3,3.3-0.9,4.7-0.2,5.5c0.7,0.8,1.7,0.7,2,1.6c0.5,1.2-0.7,2.3-1.2,3.6c-0.5,1.5-0.3,4,3.4,8.3"
		/>
	<path class="st6" d="M65.6,82c0.8-3.9,2.3-5.6,3.6-6.5c1.9-1.2,3-0.6,4.8-2.1c2.6-2.1,2.8-5.6,2.8-6.3c0.1-3.3-1.6-5.6-2.1-6.3"/>
	<path class="st6" d="M68.2,57.7c-0.8,1.3-1.7,3.2-1.3,5.3c0.2,1.2,0.6,1.8,1.3,3.2c0.3,0.7,1.9,4.3,1.7,6.9
		c-0.3,3.8-4.5,6.5-5.9,7.3"/>
	<path class="st5" d="M76.7,61.1c-0.3,1.7-0.5,4.4,0.4,7.3c1.1,3.3,2.9,4.2,4.1,7.3c0.7,1.8,1.3,4.7,0.3,8.9"/>
	<path class="st5" d="M74.2,58.3c4.5,4,5.3,6.9,5,8.9c-0.3,2.7-2.5,3.6-3.2,6.6c-0.9,3.5,0.8,6.9,2.6,9.4"/>
	<path class="st5" d="M73.7,65.4c0.7,2.4,0.3,3.5-0.2,4.1c-0.8,1-2.1,0.7-2.6,1.8c-0.5,0.9,0.1,2,0.3,2.8c0.5,1.5,0.7,3.8-0.7,7.2"
		/>
	<path class="st5" d="M67.9,60.6c-1.7,3-1.6,4.6-1.1,5.4c0.6,0.9,1.5,1,1.8,1.9c0.3,1.2-1.1,2.2-1.7,3.4c-0.7,1.4-0.9,3.9,2.1,8.7"
		/>
	<path class="st5" d="M117.5,67.7c-1.8,3.6-3.8,4.8-5.2,5.3c-2.1,0.7-3.1-0.2-5.2,0.7c-3.1,1.3-4.2,4.7-4.4,5.3
		c-1,3.2,0,5.8,0.3,6.6"/>
	<path class="st5" d="M67.2,56.6c-1,1.2-2,3-1.9,5.2c0.1,1.2,0.5,1.8,1,3.4c0.2,0.7,1.5,4.5,1,7.1c-0.7,3.8-5.1,6-6.7,6.6"/>
	<path class="st6" d="M96.1,60.3c4.6,3.9,5.4,6.8,5.1,8.8c-0.3,2.7-2.4,3.7-3.1,6.7c-0.8,3.5,0.9,6.9,2.7,9.4"/>
	<path class="st6" d="M90.5,66.2c1.2,2.2,1.1,3.4,0.7,4.1c-0.6,1.1-1.9,1.2-2.2,2.3c-0.3,1,0.5,1.9,0.9,2.7c0.8,1.3,1.5,3.5,0.9,7.2
		"/>
	<path class="st6" d="M107.3,66.8c-2.7,2.3-3,3.8-2.8,4.7c0.2,1,1.1,1.4,1,2.4c-0.1,1.3-1.8,1.7-2.8,2.6c-1.2,1.1-2.2,3.4-0.9,8.9"
		/>
	<path class="st6" d="M97.4,58.8c0.4,4-0.6,6.1-1.6,7.3c-1.4,1.7-2.7,1.5-4,3.4c-1.9,2.8-1,6.2-0.9,6.9c0.8,3.2,3.2,4.9,3.8,5.4"/>
	<path class="st6" d="M79.8,61.1c-0.1,1.6,0,3.6,1.3,5.4c0.7,1,1.4,1.2,2.7,2.2c0.6,0.5,3.7,2.9,4.8,5.3c1.6,3.5-0.9,7.8-1.8,9.2"/>
	<path class="st5" d="M92.6,59.2c-0.8,1.5-1.8,4-1.7,7.1c0.1,3.4,1.5,4.9,1.7,8.2c0.1,1.9-0.1,4.8-2.3,8.6"/>
	<path class="st5" d="M93.8,57.8c4.6,3.9,5.4,6.8,5.1,8.8c-0.3,2.7-2.4,3.7-3.1,6.7c-0.8,3.5,0.9,6.9,2.7,9.4"/>
	<path class="st5" d="M94.6,66.7c1.2,2.2,1.1,3.4,0.7,4.1c-0.6,1.1-1.9,1.2-2.2,2.3c-0.3,1,0.5,1.9,0.9,2.7c0.8,1.3,1.5,3.5,0.9,7.2
		"/>
	<path class="st5" d="M87.8,63c-1.3,3.3-0.9,4.7-0.2,5.5c0.7,0.8,1.7,0.7,2,1.6c0.5,1.2-0.7,2.3-1.2,3.6c-0.5,1.5-0.3,4,3.4,8.3"/>
	<path class="st5" d="M84.4,59.6c1.7,3.6,1.5,5.9,1,7.4c-0.7,2.1-2,2.3-2.6,4.6c-0.8,3.2,1.1,6.2,1.5,6.7c1.9,2.7,4.6,3.6,5.4,3.8"
		/>
	<path class="st5" d="M88.8,83.5c0.3-1.5,0.5-3.6-0.5-5.5c-0.6-1.1-1.2-1.4-2.3-2.6c-0.5-0.6-3.3-3.4-4-5.9c-1-3.7,2-7.6,3.1-8.9"/>
	<path class="st7" d="M12.3,73.8c1.4,0.3,3.5,1,5.3,2.7c2.1,1.9,2.2,3.6,4.2,5.5c1.1,1.1,3.1,2.5,6.6,3.2"/>
	<path class="st7" d="M15.4,67.5c0,5,1.3,7,2.7,8c1.8,1.3,3.6,0.5,5.9,1.7c2.6,1.4,3.8,4.3,4.4,6.8"/>
	<path class="st7" d="M20.5,71.9c0.7,1.9,1.5,2.5,2.2,2.6c1,0.2,1.7-0.5,2.6-0.1c0.8,0.4,0.9,1.3,1.1,2c0.4,1.2,1.4,2.8,4,4.5"/>
	<path class="st7" d="M20.6,67.4c2.7,1,3.4,2,3.5,2.8c0.1,0.9-0.4,1.4-0.1,2.1c0.5,0.9,1.9,0.8,2.9,1.2c1.2,0.5,2.6,2,3.3,6.6"/>
	<path class="st7" d="M20.6,63.8c1.3,3,2.9,4.2,4,4.6c1.7,0.7,2.6,0,4.3,0.9c2.5,1.3,3.2,4.1,3.4,4.6c0.7,2.7-0.3,4.8-0.6,5.4"/>
	<path class="st7" d="M26,60.8c1,0.8,2.2,2,2.6,3.7c0.2,1,0,1.5-0.1,2.9c0,0.6-0.2,3.9,0.7,5.9c1.3,2.9,5.3,3.7,6.7,3.9"/>
	<path class="st7" d="M60.6,64.3c-1.2,1.6-1.3,2.6-1,3.2c0.4,1,1.4,1.2,1.5,2.1c0.1,0.8-0.6,1.5-1.1,2.1c-0.8,1-1.6,2.7-1.5,5.8"/>
	<path class="st8" d="M47.5,54.1c0.3,1.4,0.5,3.6-0.3,6c-0.9,2.7-2.4,3.5-3.3,6c-0.6,1.5-1.1,3.9-0.2,7.3"/>
	<path class="st8" d="M48.7,73.5c4.3-2.4,5.4-4.6,5.6-6.3c0.2-2.2-1.4-3.4-1.5-5.9c-0.1-2.9,1.9-5.4,3.7-7.2"/>
	<path class="st8" d="M57.4,74.1c1-1.8,0.8-2.8,0.5-3.4c-0.5-0.9-1.6-0.9-1.8-1.9c-0.2-0.8,0.4-1.6,0.7-2.2c0.6-1.1,1.2-2.9,0.6-6"
		/>
	<path class="st8" d="M43.8,57.2c1.9,2.2,2,3.5,1.7,4.2c-0.3,0.8-1.1,1-1.1,1.8c-0.1,1,1.2,1.6,1.9,2.5c0.8,1,1.3,3-0.3,7.4"/>
	<path class="st8" d="M62.5,77.9c1.6-2.9,1.5-4.8,1.1-6c-0.5-1.8-1.6-2-2-3.9c-0.5-2.7,1.2-5.1,1.5-5.5c1.7-2.2,4-2.8,4.6-2.9"/>
	<path class="st8" d="M56.6,57.5c0.5,1.2,1,2.8,0.5,4.5c-0.3,1-0.7,1.4-1.5,2.5c-0.3,0.5-2.1,3.3-2.3,5.4c-0.2,3.2,2.9,5.8,4,6.7"/>
	<path class="st7" d="M45.4,53.3c0.7,1.2,1.6,3.3,1.7,5.8c0,2.8-1.1,4.1-1.1,6.8c0,1.6,0.3,4,2.2,7"/>
	<path class="st7" d="M51.9,52.3c-3.6,3.4-4.2,5.8-3.9,7.4c0.3,2.2,2.1,2.9,2.8,5.4c0.8,2.8-0.5,5.7-1.9,7.9"/>
	<path class="st7" d="M55.1,61.3c-0.9,1.8-0.8,2.8-0.4,3.4c0.5,0.9,1.6,0.9,1.9,1.8c0.3,0.8-0.3,1.6-0.7,2.2c-0.6,1.1-1.1,3-0.5,6"
		/>
	<path class="st7" d="M59.7,59.2c1.1,2.7,0.9,3.9,0.4,4.5c-0.5,0.7-1.3,0.7-1.6,1.4c-0.4,1,0.7,1.9,1.1,3c0.5,1.2,0.4,3.3-2.5,6.9"
		/>
	<path class="st7" d="M61.2,57.3c-1.3,3-1.1,4.9-0.6,6.1c0.7,1.7,1.8,1.9,2.3,3.7c0.8,2.6-0.7,5.1-1,5.6c-1.5,2.3-3.7,3.1-4.3,3.3"
		/>
	<path class="st7" d="M55.6,55.5c0.1,1.3,0.1,3-0.9,4.5c-0.6,0.8-1.1,1.1-2.1,1.9c-0.5,0.4-3,2.5-3.8,4.5c-1.2,3,1,6.4,1.8,7.6"/>
	<path class="st8" d="M18.9,66c1,1,2.5,2.6,3.3,5c0.9,2.7,0.2,4.2,0.9,6.8c0.4,1.5,1.4,3.7,4.2,6"/>
	<path class="st8" d="M30.1,58.1c-2.5,4.3-2.3,6.8-1.6,8.3c1,2,2.9,2.2,4.3,4.3c1.6,2.5,1.2,5.6,0.5,8.1"/>
	<path class="st8" d="M36.1,61.1c-0.3,2,0.1,2.9,0.6,3.4c0.8,0.7,1.8,0.4,2.3,1.2c0.5,0.7,0.1,1.6,0,2.3c-0.3,1.3-0.2,3.2,1.3,5.8"
		/>
	<path class="st8" d="M23.2,66.2c2.7,1,3.4,2.1,3.5,2.9c0.1,0.9-0.5,1.4-0.1,2.1c0.4,0.9,1.8,0.8,2.9,1.3c1.2,0.5,2.6,2,3.2,6.6"/>
	<path class="st8" d="M28.7,57.3c0.8,3.2,2.1,4.6,3.2,5.2c1.6,1,2.5,0.4,4.1,1.5c2.2,1.6,2.5,4.5,2.6,5.1c0.2,2.7-1.1,4.7-1.5,5.2"
		/>
	<path class="st8" d="M43,54.2c0.5,1.2,1,2.8,0.5,4.5c-0.3,1-0.7,1.4-1.5,2.5c-0.3,0.5-2.1,3.3-2.3,5.4c-0.2,3.2,2.9,5.8,4,6.7"/>
	<path class="st7" d="M32.5,56.2c1,1,2.5,2.6,3.3,5c0.9,2.7,0.2,4.2,0.9,6.8c0.4,1.5,1.4,3.7,4.2,6"/>
	<path class="st7" d="M31.2,55.5c-2.5,4.3-2.3,6.8-1.6,8.3c1,2,2.9,2.2,4.3,4.3c1.6,2.5,1.2,5.6,0.5,8.1"/>
	<path class="st7" d="M33,62.6c-0.3,2,0.1,2.9,0.6,3.4c0.8,0.7,1.8,0.4,2.3,1.2c0.5,0.7,0.1,1.6,0,2.3c-0.3,1.3-0.2,3.2,1.3,5.8"/>
	<path class="st7" d="M37.3,57.9c1.9,2.2,2,3.5,1.7,4.2c-0.3,0.8-1.1,1-1.1,1.8c-0.1,1,1.2,1.6,1.9,2.5c0.8,1,1.3,3-0.3,7.4"/>
	<path class="st7" d="M39,54.3c-0.4,3.3,0.5,5,1.2,6c1.2,1.4,2.2,1.3,3.3,2.8c1.5,2.3,0.8,5.1,0.7,5.7c-0.7,2.7-2.6,4.1-3.2,4.4"/>
	<path class="st7" d="M43.2,73.7c-0.7-1.1-1.4-2.7-1.1-4.4c0.2-1,0.5-1.5,1.1-2.7c0.3-0.6,1.6-3.5,1.5-5.7c-0.2-3.2-3.7-5.3-4.9-6"
		/>
	<path class="st7" d="M100.2,64.8c-0.2,3.3-1.3,4.9-2.2,5.7c-1.4,1.2-2.4,0.9-3.7,2.2c-1.9,2-1.7,4.9-1.6,5.5
		c0.3,2.7,1.9,4.4,2.4,4.9"/>
	<path class="st7" d="M94.1,63.8c-0.7,1.1-1.4,2.6-1.2,4.4c0.1,1,0.5,1.5,1,2.7c0.3,0.6,1.5,3.6,1.3,5.7c-0.3,3.2-3.8,5.3-5,5.9"/>
	<path class="st8" d="M71.6,64.7c0.2,1.4,0.8,3.6,2.3,5.5c1.8,2.2,3.4,2.5,5.2,4.6c1,1.2,2.3,3.3,2.7,6.8"/>
	<path class="st8" d="M74.1,81.7c-3.9-3-4.7-5.4-4.6-7c0.1-2.2,1.9-3.1,2.3-5.6c0.5-2.9-1.1-5.6-2.7-7.6"/>
	<path class="st8" d="M63.4,78.6c-0.2-2,0.3-2.9,0.8-3.3c0.8-0.7,1.8-0.3,2.4-1c0.5-0.7,0.2-1.6,0.1-2.3c-0.2-1.3,0-3.2,1.6-5.8"/>
	<path class="st8" d="M72.8,66.2c-1,2.7-0.7,3.9-0.2,4.5c0.6,0.7,1.4,0.6,1.7,1.3c0.4,1-0.6,1.9-1,3c-0.4,1.2-0.2,3.3,2.8,6.8"/>
	<path class="st8" d="M64.1,80.6c0.6-3.2,1.9-4.7,3-5.4c1.5-1,2.5-0.5,4-1.7c2.1-1.7,2.3-4.6,2.4-5.2c0.1-2.7-1.3-4.7-1.7-5.2"/>
	<path class="st8" d="M66.3,60.5c-0.7,1.1-1.4,2.7-1.1,4.4c0.2,1,0.5,1.5,1.1,2.7c0.3,0.6,1.6,3.5,1.4,5.7c-0.2,3.2-3.7,5.3-4.9,6"
		/>
	<path class="st7" d="M73.3,63.3c-0.3,1.4-0.4,3.6,0.4,6c0.9,2.7,2.4,3.5,3.4,6c0.6,1.5,1.1,3.9,0.3,7.3"/>
	<path class="st7" d="M71.2,61c3.7,3.3,4.3,5.7,4.1,7.3c-0.3,2.2-2.1,3-2.7,5.5c-0.7,2.9,0.7,5.7,2.1,7.8"/>
	<path class="st7" d="M70.8,66.9c0.6,2,0.3,2.9-0.2,3.4c-0.7,0.8-1.7,0.6-2.2,1.4c-0.4,0.7,0.1,1.6,0.3,2.3c0.4,1.2,0.6,3.1-0.6,6"
		/>
	<path class="st7" d="M66,62.9c-1.4,2.5-1.3,3.8-0.9,4.4c0.5,0.7,1.3,0.8,1.5,1.6c0.3,1-0.9,1.8-1.4,2.8c-0.6,1.1-0.8,3.2,1.7,7.2"
		/>
	<path class="st7" d="M107,68.7c-1.5,2.9-3.1,4-4.3,4.4c-1.8,0.6-2.6-0.2-4.3,0.6c-2.5,1.1-3.5,3.8-3.7,4.4c-0.8,2.6,0,4.8,0.3,5.4"
		/>
	<path class="st7" d="M65.5,59.6c-0.8,1-1.7,2.5-1.6,4.3c0,1,0.4,1.5,0.8,2.8c0.2,0.6,1.2,3.7,0.8,5.8c-0.6,3.1-4.2,4.9-5.5,5.5"/>
	<path class="st8" d="M89.4,62.6c3.8,3.2,4.4,5.6,4.2,7.3c-0.2,2.2-2,3-2.6,5.5c-0.7,2.9,0.8,5.7,2.3,7.8"/>
	<path class="st8" d="M84.7,67.5c1,1.8,0.9,2.8,0.6,3.4c-0.5,0.9-1.6,1-1.8,1.9c-0.2,0.8,0.4,1.6,0.8,2.2c0.7,1.1,1.2,2.9,0.7,6"/>
	<path class="st8" d="M98.6,68c-2.2,1.9-2.5,3.1-2.3,3.9c0.2,0.9,0.9,1.2,0.8,2c-0.1,1-1.5,1.4-2.3,2.2c-1,0.9-1.8,2.8-0.8,7.3"/>
	<path class="st8" d="M90.4,61.4c0.3,3.3-0.5,5-1.3,6c-1.2,1.4-2.2,1.2-3.3,2.8c-1.5,2.3-0.9,5.1-0.7,5.7c0.7,2.7,2.6,4.1,3.1,4.4"
		/>
	<path class="st8" d="M75.9,63.3c-0.1,1.3,0,3,1.1,4.4c0.6,0.8,1.2,1,2.2,1.9c0.5,0.4,3.1,2.4,4,4.4c1.3,2.9-0.7,6.4-1.5,7.6"/>
	<path class="st7" d="M86.5,61.7C85.8,63,85,65.1,85,67.6c0.1,2.8,1.2,4.1,1.4,6.7c0.1,1.6-0.1,4-1.9,7.1"/>
	<path class="st7" d="M87.4,60.6c3.8,3.2,4.4,5.6,4.2,7.3c-0.2,2.2-2,3-2.6,5.5c-0.7,2.9,0.8,5.7,2.3,7.8"/>
	<path class="st7" d="M88.1,67.9c1,1.8,0.9,2.8,0.6,3.4c-0.5,0.9-1.6,1-1.8,1.9c-0.2,0.8,0.4,1.6,0.8,2.2c0.7,1.1,1.2,2.9,0.7,6"/>
	<path class="st7" d="M82.5,64.9c-1,2.7-0.7,3.9-0.2,4.5c0.6,0.7,1.4,0.6,1.7,1.3c0.4,1-0.6,1.9-1,3c-0.4,1.2-0.2,3.3,2.8,6.8"/>
	<path class="st7" d="M79.7,62.1c1.4,3,1.3,4.9,0.8,6.1c-0.6,1.7-1.7,1.9-2.1,3.8c-0.7,2.7,0.9,5.1,1.3,5.6c1.6,2.3,3.8,2.9,4.5,3.1
		"/>
	<path class="st7" d="M83.3,81.8c0.3-1.3,0.4-3-0.4-4.5c-0.5-0.9-1-1.2-1.9-2.2c-0.4-0.5-2.7-2.8-3.3-4.9c-0.9-3.1,1.7-6.3,2.6-7.3"
		/>
</g>
</svg>
