<?xml version="1.0" encoding="utf-8"?>
<!-- Generator: Adobe Illustrator 26.0.1, SVG Export Plug-In . SVG Version: 6.00 Build 0)  -->
<svg version="1.1" id="Layer_1" xmlns="http://www.w3.org/2000/svg" xmlns:xlink="http://www.w3.org/1999/xlink" x="0px" y="0px"
	 viewBox="0 0 120 140" style="enable-background:new 0 0 120 140;" xml:space="preserve">
<style type="text/css">
	.st0{opacity:0.5;fill:#3488B7;}
	.st1{opacity:0.5;fill:#FFFFFF;}
	.st2{opacity:0.5;fill:#FBB03B;}
	.st3{fill:#93288D;stroke:#7A227A;stroke-miterlimit:10;}
	.st4{fill:#79287A;stroke:#7A227A;stroke-width:1.0746;stroke-miterlimit:10;}
	.st5{fill:#7A227A;}
</style>
<g>
	<path class="st0" d="M0,5v130c0,2.8,2.2,5,5,5h110c2.8,0,5-2.2,5-5V5c0-2.8-2.2-5-5-5H5C2.3,0,0,2.2,0,5z"/>
	<path class="st1" d="M0.2,46.7c0-0.6,7.8-1.9,8.4-2c13.1-2.3,26.8-1.7,39.7,0.9c6.1,1.2,12.5,2.2,18.8,1.6c3.3-0.3,6.3-1.2,9.3-2.3
		c3-1.1,6.4-1.7,9.7-2.1c2.9-0.4,5.9-0.5,8.8-0.3c4.3,0.3,8,2.1,12.3,2.4c2.1,0.2,4.1,0.2,6.2,0c0.7-0.1,6.6-0.7,6.6-1.3
		c0,0,0.1,3.2,0.1,3.2c-4.9-0.7-10-1.1-14.9-1.3c-4.6-0.2-9.2-0.2-13.8,0.1c-5,0.3-9.7,1.3-14.6,2c-8.9,1.3-18,1.9-27,2
		c-5.3,0.1-10.5-0.7-15.7-1.2c-4.4-0.4-8.8-0.5-13.2-0.7c-4.1-0.1-8.3-0.2-12.4,0c-2.3,0.1-5.9,0.1-7.8,1.3
		c-0.2,0.1-0.4,0.3-0.5,0.4C0.2,49.4,0.2,46.7,0.2,46.7z"/>
	<path class="st1" d="M0.2,45.6c0-0.6,7.8-1.9,8.4-2c13.1-2.3,26.8-1.7,39.7,0.9c6.1,1.2,12.5,2.2,18.8,1.6c3.3-0.3,6.3-1.2,9.3-2.3
		c3-1.1,6.4-1.7,9.7-2.1c2.9-0.4,5.9-0.5,8.8-0.3c4.3,0.3,8,2.1,12.3,2.4c2.1,0.2,4.1,0.2,6.2,0c0.7-0.1,6.6-0.7,6.6-1.3
		c0,0,0.1,3.2,0.1,3.2c-4.9-0.7-10-1.1-14.9-1.3c-4.6-0.2-9.2-0.2-13.8,0.1c-5,0.3-9.7,1.3-14.6,2c-8.9,1.3-18,1.9-27,2
		c-5.3,0.1-10.5-0.7-15.7-1.2c-4.4-0.4-8.8-0.5-13.2-0.7c-4.1-0.1-8.3-0.2-12.4,0c-2.3,0.1-5.9,0.1-7.8,1.3
		c-0.2,0.1-0.4,0.3-0.5,0.4C0.2,48.3,0.2,45.6,0.2,45.6z"/>
	<path class="st1" d="M120.2,70.9c-1.8,0.4-3.5,0.9-5.1,1.5c-4.5,1.7-9,2.9-14,3.4c-9.6,0.9-19.2-0.6-28.4-2.4
		c-19.5-3.8-40-4.8-59.9-1.3c-0.9,0.2-12.8,2.1-12.7,3.1c0,0,0.1,4.1,0.1,4.1C0.4,79,0.7,78.8,1,78.6c2.9-1.8,8.2-1.8,11.7-2
		c6.2-0.3,12.5-0.2,18.7-0.1c6.6,0.2,13.3,0.4,19.9,1c7.9,0.7,15.7,1.9,23.7,1.8c13.6-0.1,27.3-1.1,40.7-3c1.5-0.2,3.1-0.5,4.6-0.7"
		/>
	<path class="st1" d="M120,69.4c-1.7,0.4-3.3,0.9-4.9,1.5c-4.5,1.7-9,2.9-14,3.4c-9.6,0.9-19.2-0.6-28.4-2.4
		c-19.5-3.8-40-4.8-59.9-1.3c-0.9,0.2-12.8,2.1-12.7,3.1c0,0,0.1,4.1,0.1,4.1c0.2-0.3,0.5-0.4,0.8-0.6c2.9-1.8,8.2-1.8,11.7-2
		c6.2-0.3,12.5-0.2,18.7-0.1c6.6,0.2,13.3,0.4,19.9,1C59.1,76.8,67,78,75,77.9c13.6-0.1,27.3-1.1,40.7-3c1.5-0.2,2.9-0.4,4.4-0.7"/>
	<path class="st1" d="M-0.2,11.1c4,0.5,8,1.2,12,2c9.2,1.8,18.8,3.3,28.4,2.4c5-0.5,9.5-1.7,14-3.4c4.5-1.7,9.7-2.5,14.6-3.2
		c4.4-0.6,8.9-0.8,13.3-0.5c6.5,0.5,12.1,3.1,18.6,3.6c3.1,0.2,6.2,0.3,9.4,0c1.1-0.1,9.9-1.1,9.9-2c0,0,0.1,4.8,0.1,4.8
		c-7.4-1.1-15-1.7-22.6-2c-6.9-0.3-13.9-0.3-20.8,0.1c-7.5,0.5-14.7,2-22,3.1c-13.4,1.9-27.1,2.9-40.7,3c-4.8,0-9.5-0.4-14.2-0.8"/>
	<path class="st1" d="M-0.2,10.3c4,0.5,8,1.2,12,2c9.2,1.8,18.8,3.3,28.4,2.4c5-0.5,9.5-1.7,14-3.4c4.5-1.7,9.7-2.5,14.6-3.2
		c4.4-0.6,8.9-0.8,13.3-0.5c6.5,0.5,12.1,3.1,18.6,3.6c3.1,0.2,6.2,0.3,9.4,0c1.1-0.1,9.9-1.1,9.9-2c0,0,0.1,4.8,0.1,4.8
		c-7.4-1.1-15-1.7-22.6-2c-6.9-0.3-13.9-0.3-20.8,0.1c-7.5,0.5-14.7,2-22,3.1c-13.4,1.9-27.1,2.9-40.7,3c-4.8,0-9.5-0.4-14.2-0.8"/>
	<circle class="st1" cx="14.3" cy="8" r="0.9"/>
	<circle class="st1" cx="16.1" cy="2.2" r="1"/>
	<circle class="st1" cx="22.8" cy="3.2" r="1.9"/>
	<circle class="st1" cx="47.2" cy="44.2" r="0.9"/>
	<circle class="st1" cx="43.1" cy="39.8" r="1"/>
	<circle class="st1" cx="47.3" cy="34.4" r="1.9"/>
	<circle class="st1" cx="87.9" cy="57.6" r="1.1"/>
	<circle class="st1" cx="92.7" cy="62.7" r="1.4"/>
	<circle class="st1" cx="87.1" cy="69.1" r="1.6"/>
	<circle class="st1" cx="41.1" cy="100" r="0.9"/>
	<circle class="st1" cx="37.1" cy="95.4" r="1"/>
	<circle class="st1" cx="41.4" cy="90.2" r="1.9"/>
	<circle class="st1" cx="93.7" cy="112.7" r="1.1"/>
	<circle class="st1" cx="91.3" cy="106.2" r="1.4"/>
	<circle class="st1" cx="98.9" cy="102.4" r="1.6"/>
	<path class="st2" d="M0,124.2c9.6-5.1,19.5-9.3,29.5-12.5c5.6-1.8,11.2-3.3,16.8-3.9c7.7-0.9,15.5,1.3,23.1,2.6
		c3.6,0.6,7.1,1.4,10.6,3c1.7,0.7,3.3,1.7,4.9,2.8c2.3,1.7,3.9,3.4,6.6,3.2c4.8-0.3,9.5-1.3,14.2-1.1c4.7,0.1,10,0.3,14.3,3.8v13
		c0,2.8-2.2,5-5,5H5c-2.8,0-5-2.2-5-5L0,124.2z"/>
</g>
<g>
	<path class="st3" d="M49.1,103.3c0,0,7,12.8,12.6-1.7c0,0,5.1-11.8,2.2-22.3c-1-3.7-0.4-5.6,1.4-8.8c1-1.8,2-5.1-0.5-6.2
		c0,0-1.2,6.1-8.8,5c0.4,0.1,0.6,3.4,0.6,3.7c0,1.7-0.1,4.5-1.4,5.8c-1.3,1.3-1.8-0.3-2.7-1.5c-2.1-3.2-4-7.2-3.4-11.2
		c-0.2,1,0.2,1.9-0.1,3c-0.9,2.6-3.2,2.8-5.4,3.4c0.7,1.3,1.7,2.4,2.2,3.9c0.4,1,0.6,2,0.5,3c0,1.1-0.7,2.2-0.8,3.4
		c-0.4,4,0.2,8.5,0.8,12.6c0.2,1.8,0.5,3.6,1.1,5.2C47.8,101.8,48.6,102.4,49.1,103.3z"/>
	<path class="st3" d="M54.3,101.9c-0.1,0.1-0.2,0.2-0.3,0.3c-1,1.1-1.4,2.7-1.9,4.1c-0.6,1.9-1.2,4-0.9,6c0.9,6.2,9.8,4.4,13.6,2.3
		c2.5-1.4,4.4-4.3,6.4-6.3c2.9-2.8,5.9-5.7,9.5-7.7c5.5-3.2,11.5-6.2,15.1-11.6c-4.1,0.5-8.3-2.9-8.6-7.1c-3.2,1.5-6.1,3.5-8.6,5.9
		c-0.8,0.8-1.6,1.8-1.5,3c-0.6-4.7-0.9-10.7,3-14.2c-1,0.9-4.8,0.4-6,0.2c-1.9-0.4-3.4-1.5-3.5-3.6c-5.4,3.3-4,10.3-5.8,15.5
		c-0.8,2.5-2,5-3.5,7.1c-0.9,1.3-2,2.5-3.2,3.5C57,100.1,55.4,100.8,54.3,101.9z"/>
	<path class="st3" d="M35.6,108.8c1.8,0.6,3.6,1,5.4,1.3c0.6,0.1,1.3,0.2,1.9-0.1c1.6-0.6,1.7-2.9,1.2-4.6c-0.9-2.9-2.6-5.4-3.9-8
		c-1.3-2.7-2.3-5.8-1.4-8.6c0.5-1.6,1.5-3,2.3-4.5c1-1.8,1.6-3.9,1.8-5.9c0.1-0.8-0.2-2-1-2c-0.4,0-0.7,0.3-1.1,0.5
		c-0.8,0.5-1.6,0.7-2.5,0.8c-1.6,0-2-0.9-2.5,0.6c-0.5,1.5,0,3.9-0.3,5.6c-0.2,1.1-0.6,2.2-1.5,2.8c-1.5,0.8-3.3-0.4-4.3-1.7
		c-2-2.6-2.8-5.8-3.6-8.9c0.3,1-1.8,2.7-2.5,3.1c-1.4,0.9-2.8,0.7-4.3,1c1.2,3.6,1.9,6.8,2.3,10.6c0.3,3.6,0.6,7.5,2.6,10.6
		c1.5,2.4,3.9,4.1,6.4,5.4C32.1,107.5,33.8,108.3,35.6,108.8z"/>
	<path class="st4" d="M80.1,76.3c0.3-0.2,0.2-0.3,0-0.9c-0.2-0.8-0.6-2-1.1-2.6c-0.8-0.9-2-1.3-3.2-1.4c-2-0.1-6.3,0.6-4.7,3.5
		c1.3,2.4,4.6,2.2,6.9,1.9c0.5-0.1,1.3-0.1,1.8-0.3C79.9,76.4,80,76.4,80.1,76.3z"/>
	<path class="st4" d="M56.2,69.2c-0.5-0.6,0.4-2,0.7-2.7c1.5-3.1,4.4-3.8,7.4-2.5c0.2,0.1,0.4,0.2,0.4,0.3c0.8,1.5-3.7,3.8-4.8,4.2
		c-0.9,0.3-2.5,1.3-3.5,0.8C56.3,69.4,56.2,69.3,56.2,69.2z"/>
	<path class="st4" d="M43.5,72.3c-0.2-0.1-0.3-0.3-0.3-0.5c-0.1-1.4,0.1-2.9,0.7-4.2c0.4-1,1.3-1.8,2.4-1.9c0.8-0.1,2.2-0.1,2.8,0.5
		c0.7,0.6,0.4,2,0.1,2.8c-0.4,1.2-1.4,2.1-2.5,2.6C46.1,71.8,44.2,72.7,43.5,72.3z"/>
	<path class="st4" d="M41.9,75.9c0.1-0.2-0.1-0.5-0.5-1c-0.5-0.6-1.2-1.5-1.9-2c-2-1.2-3.8,2-3.6,3.8c0.3,2.5,4,0.6,5.2,0
		C41.5,76.3,41.8,76.1,41.9,75.9z"/>
	<path class="st4" d="M25.9,75.9c-0.1-0.3-0.3-0.6-0.6-0.8c-0.5-0.4-1.2-0.6-1.8-0.8c-0.7-0.2-1.5-0.3-2.2,0
		c-1.7,0.7-2.2,3.1-2.4,4.7c0,0.2,0,0.4,0,0.5c0.1,0.2,0.3,0.3,0.6,0.4c0.8,0.3,1.8,0.5,2.6,0.3c0.7-0.2,1.3-0.7,1.8-1.2
		c0.7-0.7,1.2-1.4,1.7-2.2C25.8,76.6,25.9,76.3,25.9,75.9C25.9,76,25.9,76,25.9,75.9z"/>
	<path class="st4" d="M67.9,96.8c0-0.1-0.1-0.2,0-0.3c0.1-0.6,1.2-1.5,1.7-1.9c2.2-1.7,4.6-1.2,6.4,0.7c0.4,0.4-1.1,1.9-1.3,2
		c-0.8,0.5-1.7,0.7-2.6,0.7c-0.7,0-1.5-0.1-2.2-0.3C69.2,97.6,68.1,97.3,67.9,96.8z"/>
	<path class="st4" d="M89.5,103.2c0.7-1.3,0.8-3,0.1-4c-2.9-4.5-5.5,6.3-1.9,5.5C88.5,104.5,89.1,103.9,89.5,103.2z"/>
	<path class="st4" d="M87.6,81.9c0.1-0.1,0.2-0.2,0.4-0.3c0.5-0.2,1.5,0.1,2.1,0.1c1,0.1,2,0.2,2.9,0.3c2.5,0.5,5.3,1.9,4,4.8
		c-0.4,0.8-0.9,2-1.9,2.1c-1,0.1-2.4-0.5-3.3-0.9c-1.1-0.5-2.2-1.2-2.9-2.2c-0.4-0.6-0.8-1.2-1-1.9C87.6,83.4,87.2,82.4,87.6,81.9z"
		/>
	<path class="st3" d="M67.5,117.5c-0.6,0.4-1.3,0.8-2.1,1c-3.4,0.8-4-2.2-3.7-4.8c0.4-3.9,3.8-5.1,6-7.8c2.1-2.5,2-5.7,0.4-8.5
		c0.2,0.4,3.7,0.5,4.2,0.5c1.8-0.1,2.7-0.7,3.6-2.2c0.1-0.1,1.4,2.4,1.5,2.6c0.4,1.1-0.2,3.9,0.4,4.7c0.5,0.6,1.7,0.3,2.5,0.2
		c2.2-0.3,4.5-0.7,5.8-2.7c0.4,2.2,0.5,5.6,3.5,2.9c-1.3,1.2-2,3.7-3.2,5.2c-1.4,1.6-3.1,3-5,4.1c-2.8,1.6-6.1,1.3-9.1,2
		C70.4,115,69.1,116.4,67.5,117.5z"/>
	<path class="st3" d="M52.3,116.7c1.6,0.7,3,2.3,4.9,2.2c2.3-0.1,2.5-3.2,2.2-4.9c-0.4-2.4-1.7-2.9-3.4-4.2c-4.7-3.6-6.1-9.4-4.8-15
		c0.7-3,1.6-7.6-0.5-10.3c-2.1,2.7-4.2,5.3-7.9,2.9c-0.3-0.1-0.7,5.7-0.7,6.1c-0.1,1.5-0.1,2.2-1.8,1.5c-1.3-0.6-2.1-1.7-2.6-3
		c-1.5,2.1-3.5,2.6-5.7,1.1C32,93.3,27.4,105.7,52.3,116.7z"/>
	<path class="st4" d="M32.1,93.3c0-0.1,0-0.2,0-0.3c0.3-1.2,0.8-2.7,2.2-3c0.6-0.1,1.3,0.1,1.8,0.4c0.6,0.3,1,0.7,1.5,1.2
		c0.1,0.1,0.1,0.1,0.1,0.2c0,0.1,0,0.2-0.1,0.2c-0.4,0.8-0.9,1.5-1.7,1.9c-1.2,0.5-2.6,0.1-3.7-0.5C32.2,93.4,32.1,93.3,32.1,93.3z"
		/>
	<path class="st4" d="M42.8,87.5c-0.5-0.4,0.9-3.2,1.2-3.5c0.7-0.8,1.5-1.2,2.6-1.2c1,0,2.2,0.5,3,1c1.2,0.6,1,0.9,0.4,2
		C48.3,88.6,45.6,89.6,42.8,87.5z"/>
	<g>
		<g>
			<path class="st5" d="M38.6,103.8c0.6,0,1.6-0.2,1.9-0.8c0.3-0.6-0.2-0.9-0.8-0.9c-0.6,0-1.6,0.2-1.9,0.8
				C37.5,103.5,38,103.8,38.6,103.8L38.6,103.8z"/>
		</g>
	</g>
	<g>
		<g>
			<path class="st5" d="M43.4,109.2c0.6,0,1.6-0.2,1.9-0.8c0.3-0.6-0.2-0.8-0.8-0.8c-0.6,0-1.6,0.2-1.9,0.8
				C42.3,109,42.8,109.2,43.4,109.2L43.4,109.2z"/>
		</g>
	</g>
	<g>
		<g>
			<path class="st5" d="M44.6,99.1c0.6,0,1.6-0.2,1.9-0.8c0.3-0.6-0.2-1-0.8-1c-0.6,0-1.6,0.2-1.9,0.8C43.5,98.7,44,99.1,44.6,99.1
				L44.6,99.1z"/>
		</g>
	</g>
	<g>
		<g>
			<path class="st5" d="M48.5,92.9c0.5,0,1.6-0.2,1.9-0.7c0.3-0.6-0.3-0.7-0.7-0.7c-0.5,0-1.6,0.2-1.9,0.7
				C47.5,92.8,48,92.9,48.5,92.9L48.5,92.9z"/>
		</g>
	</g>
	<g>
		<g>
			<path class="st5" d="M48.3,105.2c1.7,0,2.2-2.2,0.2-2.2C46.9,103.1,46.4,105.2,48.3,105.2L48.3,105.2z"/>
		</g>
	</g>
	<g>
		<g>
			<path class="st5" d="M53.1,113.3c1.6,0,2.3-2,0.3-2C51.7,111.2,51.1,113.3,53.1,113.3L53.1,113.3z"/>
		</g>
	</g>
	<g>
		<g>
			<path class="st5" d="M46.3,112.1c0.6,0,1.5-0.2,2-0.5c0.4-0.3,0.5-0.5-0.1-0.5c-0.6,0-1.5,0.2-2,0.5
				C45.8,111.9,45.7,112.1,46.3,112.1L46.3,112.1z"/>
		</g>
	</g>
	<g>
		<g>
			<path class="st5" d="M36.9,96.8c0.6,0,1.5-0.1,2-0.5c0.4-0.3,0.5-0.6-0.2-0.6c-0.6,0-1.5,0.1-2,0.5
				C36.3,96.4,36.2,96.8,36.9,96.8L36.9,96.8z"/>
		</g>
	</g>
	<g>
		<g>
			<path class="st5" d="M70.5,100.4c0.3,0,0.8-0.4,0.3-0.4C70.5,100,70,100.4,70.5,100.4L70.5,100.4z"/>
		</g>
	</g>
	<g>
		<g>
			<path class="st5" d="M74.5,100.9c0.3,0,0.8-0.4,0.3-0.4C74.4,100.5,74,100.9,74.5,100.9L74.5,100.9z"/>
		</g>
	</g>
	<g>
		<g>
			<path class="st5" d="M70.1,105.2c0.3,0,0.8-0.4,0.3-0.4C70.1,104.7,69.6,105.2,70.1,105.2L70.1,105.2z"/>
		</g>
	</g>
	<g>
		<g>
			<path class="st5" d="M75.4,105.3c0.3,0,0.8-0.4,0.3-0.4C75.4,104.9,74.9,105.3,75.4,105.3L75.4,105.3z"/>
		</g>
	</g>
	<g>
		<g>
			<path class="st5" d="M74.8,110.8c0.2,0,0.8-0.3,0.3-0.3C74.9,110.5,74.4,110.8,74.8,110.8L74.8,110.8z"/>
		</g>
	</g>
	<g>
		<g>
			<path class="st5" d="M67,110.5c0.3,0,0.7-0.5,0.3-0.5C67,110,66.5,110.5,67,110.5L67,110.5z"/>
		</g>
	</g>
	<g>
		<g>
			<path class="st5" d="M83.2,106.4c0.3,0,1.6-0.6,0.9-0.6C83.8,105.8,82.4,106.4,83.2,106.4L83.2,106.4z"/>
		</g>
	</g>
	<g>
		<g>
			<path class="st5" d="M83.1,108.7c0.6,0,1.5-0.9,0.5-0.9C83,107.8,82.1,108.7,83.1,108.7L83.1,108.7z"/>
		</g>
	</g>
	<g>
		<g>
			<path class="st5" d="M77.6,107.8c0.3,0,0.8,0,1-0.3c0.1-0.2,0.3-0.4-0.1-0.4c-0.3,0-0.8,0-1,0.3
				C77.4,107.6,77.2,107.8,77.6,107.8L77.6,107.8z"/>
		</g>
	</g>
	<g>
		<g>
			<path class="st5" d="M72.1,108.5c0.3,0,1.6-0.6,1-0.6C72.8,108,71.5,108.5,72.1,108.5L72.1,108.5z"/>
		</g>
	</g>
	<g>
		<g>
			<path class="st5" d="M68.1,113.1c0.4,0,1.6-0.7,0.6-0.7C68.2,112.4,67.1,113.1,68.1,113.1L68.1,113.1z"/>
		</g>
	</g>
	<g>
		<g>
			<path class="st5" d="M66.9,115.5c0.6,0,1.5-1,0.5-1C66.8,114.5,65.9,115.5,66.9,115.5L66.9,115.5z"/>
		</g>
	</g>
	<g>
		<g>
			<path class="st5" d="M63.6,112.6c0.6,0,1.5-1,0.5-1C63.5,111.6,62.6,112.6,63.6,112.6L63.6,112.6z"/>
		</g>
	</g>
	<g>
		<g>
			<path class="st5" d="M64.9,116.4c0.8,0,1.1-1.1,0.1-1.1C64.1,115.3,63.9,116.4,64.9,116.4L64.9,116.4z"/>
		</g>
	</g>
	<g>
		<g>
			<path class="st5" d="M76.1,111.6c0.3,0,0.8,0,1-0.3c0.1-0.2,0.3-0.3-0.1-0.3c-0.3,0-0.8,0-1,0.3
				C75.9,111.4,75.8,111.6,76.1,111.6L76.1,111.6z"/>
		</g>
	</g>
	<g>
		<g>
			<path class="st5" d="M73.7,110.9c0.3,0,1.6-0.6,0.9-0.6C74.4,110.4,73,110.9,73.7,110.9L73.7,110.9z"/>
		</g>
	</g>
	<g>
		<g>
			<path class="st5" d="M70.2,107.9c0.3,0,1.6-0.6,0.9-0.6C70.8,107.3,69.4,107.9,70.2,107.9L70.2,107.9z"/>
		</g>
	</g>
	<g>
		<g>
			<path class="st5" d="M73,104.4c0.6,0,1.5-0.8,0.6-0.8C73,103.6,72,104.4,73,104.4L73,104.4z"/>
		</g>
	</g>
	<g>
		<g>
			<path class="st5" d="M53.8,105.4c0.5,0,1.2-0.1,1.5-0.4c0.3-0.2,0.4-0.4-0.1-0.4c-0.5,0-1.2,0.1-1.5,0.4
				C53.5,105.2,53.4,105.4,53.8,105.4L53.8,105.4z"/>
		</g>
	</g>
	<g>
		<g>
			<path class="st5" d="M60.5,110.9c0.7,0,2.3-1.1,0.9-1.1C60.6,109.8,59,110.9,60.5,110.9L60.5,110.9z"/>
		</g>
	</g>
	<g>
		<g>
			<path class="st5" d="M58.1,101.1c0.4,0,1.3-0.1,1.4-0.6c0.2-0.4-0.1-0.7-0.6-0.7c-0.4,0-1.3,0.1-1.4,0.6
				C57.4,100.8,57.7,101.1,58.1,101.1L58.1,101.1z"/>
		</g>
	</g>
	<g>
		<g>
			<path class="st5" d="M62.3,99.9c0.5,0,1.2-0.1,1.5-0.4c0.3-0.2,0.4-0.5-0.1-0.5c-0.5,0-1.2,0.1-1.5,0.4
				C62,99.7,61.8,99.9,62.3,99.9L62.3,99.9z"/>
		</g>
	</g>
	<g>
		<g>
			<path class="st5" d="M60,104.9c0.4,0,1.3-0.1,1.4-0.6c0.2-0.4-0.1-0.6-0.6-0.6c-0.4,0-1.3,0.1-1.4,0.6
				C59.2,104.7,59.5,104.9,60,104.9L60,104.9z"/>
		</g>
	</g>
	<g>
		<g>
			<path class="st5" d="M64.9,104.7c0.4,0,1.3-0.2,1.4-0.6c0.2-0.4-0.1-0.5-0.6-0.5c-0.4,0-1.3,0.2-1.4,0.6
				C64.1,104.6,64.4,104.7,64.9,104.7L64.9,104.7z"/>
		</g>
	</g>
	<g>
		<g>
			<path class="st5" d="M64.3,94.9c0.6,0,2.4-1,0.9-1C64.6,94,62.9,94.9,64.3,94.9L64.3,94.9z"/>
		</g>
	</g>
	<g>
		<g>
			<path class="st5" d="M69.3,92.8c1.2,0,1.7-1.5,0.2-1.5C68.3,91.3,67.8,92.8,69.3,92.8L69.3,92.8z"/>
		</g>
	</g>
	<g>
		<g>
			<path class="st5" d="M67.7,87c1.2,0,1.7-1.5,0.2-1.5C66.7,85.5,66.2,87,67.7,87L67.7,87z"/>
		</g>
	</g>
	<g>
		<g>
			<path class="st5" d="M73.4,84.2c0.7,0,2.3-1,0.9-1C73.6,83.2,71.9,84.2,73.4,84.2L73.4,84.2z"/>
		</g>
	</g>
	<g>
		<g>
			<path class="st5" d="M74.7,80.9c0.7,0,2.4-1,0.9-1C74.9,79.9,73.2,80.9,74.7,80.9L74.7,80.9z"/>
		</g>
	</g>
	<g>
		<g>
			<path class="st5" d="M68.5,78.5c0.4,0,1.3-0.2,1.4-0.6c0.2-0.4-0.1-0.5-0.6-0.5c-0.4,0-1.3,0.2-1.4,0.6
				C67.7,78.4,68,78.5,68.5,78.5L68.5,78.5z"/>
		</g>
	</g>
	<g>
		<g>
			<path class="st5" d="M78.2,92.2c0.4,0,1.3-0.1,1.4-0.6c0.2-0.4-0.1-0.7-0.6-0.7c-0.4,0-1.3,0.1-1.4,0.6
				C77.4,91.9,77.7,92.2,78.2,92.2L78.2,92.2z"/>
		</g>
	</g>
	<g>
		<g>
			<path class="st5" d="M79.2,96.1c0.4,0,1.3-0.1,1.4-0.6c0.2-0.4-0.1-0.6-0.6-0.6c-0.4,0-1.3,0.1-1.4,0.6
				C78.5,95.9,78.8,96.1,79.2,96.1L79.2,96.1z"/>
		</g>
	</g>
	<g>
		<g>
			<path class="st5" d="M80.9,98.2c0.4,0,1.3-0.1,1.4-0.6c0.2-0.4-0.1-0.6-0.6-0.6c-0.4,0-1.3,0.1-1.4,0.6
				C80.2,98.1,80.5,98.2,80.9,98.2L80.9,98.2z"/>
		</g>
	</g>
	<g>
		<g>
			<path class="st5" d="M89.8,92c0.4,0,1.3-0.2,1.4-0.6c0.2-0.4-0.1-0.6-0.6-0.6c-0.4,0-1.3,0.2-1.4,0.6C89.1,91.8,89.4,92,89.8,92
				L89.8,92z"/>
		</g>
	</g>
	<g>
		<g>
			<path class="st5" d="M84.5,86.8c1.3,0,1.7-1.6,0.2-1.6C83.4,85.1,83,86.8,84.5,86.8L84.5,86.8z"/>
		</g>
	</g>
	<g>
		<g>
			<path class="st5" d="M85.6,92.4c0.4,0,1.3-0.2,1.4-0.6c0.2-0.4-0.1-0.6-0.6-0.6c-0.4,0-1.3,0.2-1.4,0.6
				C84.8,92.2,85.2,92.4,85.6,92.4L85.6,92.4z"/>
		</g>
	</g>
	<g>
		<g>
			<path class="st5" d="M83.1,89.8c1.2,0,1.7-1.5,0.2-1.5C82.1,88.2,81.6,89.8,83.1,89.8L83.1,89.8z"/>
		</g>
	</g>
	<g>
		<g>
			<path class="st5" d="M74.5,89.6c0.5,0,1.2-0.1,1.4-0.6c0.2-0.5-0.1-0.8-0.6-0.8c-0.5,0-1.2,0.1-1.4,0.6
				C73.7,89.2,74,89.6,74.5,89.6L74.5,89.6z"/>
		</g>
	</g>
	<g>
		<g>
			<path class="st5" d="M46.6,75.2c0.4,0,1.2-0.1,1.4-0.6c0.2-0.4-0.2-0.7-0.6-0.7c-0.4,0-1.2,0.1-1.4,0.6
				C45.8,74.9,46.1,75.2,46.6,75.2L46.6,75.2z"/>
		</g>
	</g>
	<g>
		<g>
			<path class="st5" d="M47.7,80.9c1.2,0,1.7-1.6,0.2-1.6C46.6,79.3,46.2,80.9,47.7,80.9L47.7,80.9z"/>
		</g>
	</g>
	<g>
		<g>
			<path class="st5" d="M64,70.6c1.3,0,1.7-1.6,0.2-1.6C62.9,68.9,62.5,70.6,64,70.6L64,70.6z"/>
		</g>
	</g>
	<g>
		<g>
			<path class="st5" d="M57.2,74.2c0.5,0,1.2-0.1,1.5-0.4c0.3-0.2,0.4-0.5-0.1-0.5c-0.5,0-1.2,0.1-1.5,0.4
				C56.8,73.9,56.7,74.2,57.2,74.2L57.2,74.2z"/>
		</g>
	</g>
	<g>
		<g>
			<path class="st5" d="M61.9,79.5c0.5,0,1.2-0.1,1.5-0.4c0.3-0.2,0.4-0.5-0.1-0.5c-0.5,0-1.2,0.1-1.5,0.4
				C61.6,79.3,61.4,79.5,61.9,79.5L61.9,79.5z"/>
		</g>
	</g>
	<g>
		<g>
			<path class="st5" d="M56.1,83.2c0.4,0,1.2-0.1,1.4-0.6c0.2-0.4-0.2-0.8-0.6-0.8c-0.4,0-1.2,0.1-1.4,0.6
				C55.3,82.9,55.7,83.2,56.1,83.2L56.1,83.2z"/>
		</g>
	</g>
	<g>
		<g>
			<path class="st5" d="M53,86.8c0.4,0,1.2-0.1,1.4-0.6c0.2-0.4-0.2-0.8-0.6-0.8c-0.4,0-1.2,0.1-1.4,0.6
				C52.2,86.5,52.5,86.8,53,86.8L53,86.8z"/>
		</g>
	</g>
	<g>
		<g>
			<path class="st5" d="M62.7,88.2c0.4,0,1.3-0.2,1.4-0.6c0.2-0.4-0.1-0.6-0.6-0.6c-0.4,0-1.3,0.2-1.4,0.6
				C62,88.1,62.3,88.2,62.7,88.2L62.7,88.2z"/>
		</g>
	</g>
	<g>
		<g>
			<path class="st5" d="M52.2,96.4c0.4,0,1.2-0.1,1.4-0.6c0.2-0.4-0.2-0.7-0.6-0.7c-0.4,0-1.2,0.1-1.4,0.6
				C51.4,96.2,51.7,96.4,52.2,96.4L52.2,96.4z"/>
		</g>
	</g>
	<g>
		<g>
			<path class="st5" d="M54.7,100.3c0.4,0,1.3-0.1,1.4-0.6c0.2-0.4-0.1-0.6-0.6-0.6c-0.4,0-1.3,0.1-1.4,0.6
				C53.9,100.2,54.2,100.3,54.7,100.3L54.7,100.3z"/>
		</g>
	</g>
	<g>
		<g>
			<path class="st5" d="M57.5,92.3c1.2,0,1.7-1.6,0.2-1.6C56.5,90.7,56,92.3,57.5,92.3L57.5,92.3z"/>
		</g>
	</g>
	<g>
		<g>
			<path class="st5" d="M61,93.4c0.5,0,1.2-0.1,1.5-0.4c0.3-0.2,0.4-0.4-0.1-0.4c-0.5,0-1.2,0.1-1.5,0.4
				C60.6,93.2,60.5,93.4,61,93.4L61,93.4z"/>
		</g>
	</g>
	<g>
		<g>
			<path class="st5" d="M21.7,84.4c0.7,0,2.3-1.1,0.9-1.1C21.9,83.3,20.3,84.4,21.7,84.4L21.7,84.4z"/>
		</g>
	</g>
	<g>
		<g>
			<path class="st5" d="M27.4,85.3c1.2,0,1.7-1.6,0.2-1.6C26.3,83.7,25.9,85.3,27.4,85.3L27.4,85.3z"/>
		</g>
	</g>
	<g>
		<g>
			<path class="st5" d="M22,92.5c0.5,0,1.2-0.1,1.5-0.4c0.3-0.2,0.4-0.5-0.1-0.5c-0.5,0-1.2,0.1-1.5,0.4
				C21.6,92.2,21.5,92.5,22,92.5L22,92.5z"/>
		</g>
	</g>
	<g>
		<g>
			<path class="st5" d="M25,99.7c0.5,0,1.2-0.1,1.4-0.6c0.2-0.5-0.1-0.8-0.6-0.8c-0.5,0-1.2,0.1-1.4,0.6
				C24.2,99.3,24.5,99.7,25,99.7L25,99.7z"/>
		</g>
	</g>
	<g>
		<g>
			<path class="st5" d="M27.3,90.8c0.5,0,1.2-0.1,1.5-0.4c0.2-0.2,0.4-0.5-0.1-0.5c-0.5,0-1.2,0.1-1.5,0.4
				C26.9,90.5,26.8,90.8,27.3,90.8L27.3,90.8z"/>
		</g>
	</g>
	<g>
		<g>
			<path class="st5" d="M29.8,98.1c1.2,0,1.7-1.5,0.2-1.5C28.8,96.6,28.3,98.1,29.8,98.1L29.8,98.1z"/>
		</g>
	</g>
	<g>
		<g>
			<path class="st5" d="M29.4,104.6c0.5,0,1.2-0.1,1.5-0.4c0.3-0.2,0.4-0.4-0.1-0.4c-0.5,0-1.2,0.1-1.5,0.4
				C29,104.4,28.9,104.6,29.4,104.6L29.4,104.6z"/>
		</g>
	</g>
	<g>
		<g>
			<path class="st5" d="M26,94.1c0.6,0,2.4-0.9,0.9-0.9C26.2,93.2,24.5,94.1,26,94.1L26,94.1z"/>
		</g>
	</g>
	<g>
		<g>
			<path class="st5" d="M40.2,80.6c0.5,0,1.2-0.1,1.4-0.6c0.2-0.5-0.1-0.8-0.6-0.8c-0.5,0-1.2,0.1-1.4,0.6
				C39.4,80.2,39.7,80.6,40.2,80.6L40.2,80.6z"/>
		</g>
	</g>
	<g>
		<g>
			<path class="st5" d="M37.5,80.7c1.2,0,1.7-1.5,0.2-1.5C36.5,79.2,36,80.7,37.5,80.7L37.5,80.7z"/>
		</g>
	</g>
	<g>
		<g>
			<path class="st5" d="M37,85c0.4,0,1.2-0.1,1.4-0.6c0.2-0.4-0.2-0.7-0.6-0.7c-0.4,0-1.2,0.1-1.4,0.6C36.2,84.8,36.6,85,37,85
				L37,85z"/>
		</g>
	</g>
	<g>
		<g>
			<path class="st5" d="M36.8,88.7c0.4,0,1.2-0.1,1.4-0.6c0.2-0.4-0.2-0.7-0.6-0.7c-0.4,0-1.2,0.1-1.4,0.6
				C36,88.5,36.3,88.7,36.8,88.7L36.8,88.7z"/>
		</g>
	</g>
	<g>
		<g>
			<path class="st5" d="M31,89.6c0.4,0,1.3-0.2,1.4-0.6c0.2-0.4-0.1-0.5-0.6-0.5c-0.4,0-1.3,0.2-1.4,0.6
				C30.3,89.5,30.6,89.6,31,89.6L31,89.6z"/>
		</g>
	</g>
	<g>
		<g>
			<path class="st5" d="M24.8,88.7c0.4,0,1.3-0.2,1.4-0.6c0.2-0.4-0.1-0.6-0.6-0.6c-0.4,0-1.3,0.2-1.4,0.6
				C24,88.5,24.4,88.7,24.8,88.7L24.8,88.7z"/>
		</g>
	</g>
	<g>
		<g>
			<path class="st5" d="M43,102.8c0.4,0,1.2-0.1,1.4-0.6c0.2-0.4-0.2-0.8-0.6-0.8c-0.4,0-1.2,0.1-1.4,0.6
				C42.2,102.5,42.5,102.8,43,102.8L43,102.8z"/>
		</g>
	</g>
	<g>
		<g>
			<path class="st5" d="M37,100.8c0.7,0,2.3-1.1,0.9-1.1C37.2,99.8,35.5,100.8,37,100.8L37,100.8z"/>
		</g>
	</g>
	<g>
		<g>
			<path class="st5" d="M77.8,108c0.4,0,1.2-0.1,1.4-0.6c0.2-0.4-0.2-0.7-0.6-0.7c-0.4,0-1.2,0.1-1.4,0.6
				C77,107.7,77.3,108,77.8,108L77.8,108z"/>
		</g>
	</g>
	<g>
		<g>
			<path class="st5" d="M72.2,109.1c0.4,0,1.2-0.1,1.4-0.6c0.2-0.4-0.2-0.8-0.6-0.8c-0.4,0-1.2,0.1-1.4,0.6
				C71.4,108.8,71.7,109.1,72.2,109.1L72.2,109.1z"/>
		</g>
	</g>
	<g>
		<g>
			<path class="st5" d="M69.9,106.2c0.4,0,1.3-0.1,1.4-0.6c0.2-0.4-0.1-0.6-0.6-0.6c-0.4,0-1.3,0.1-1.4,0.6
				C69.2,106,69.5,106.2,69.9,106.2L69.9,106.2z"/>
		</g>
	</g>
	<g>
		<g>
			<path class="st5" d="M71,113.9c0.5,0,1.2-0.1,1.5-0.4c0.3-0.2,0.4-0.5-0.1-0.5c-0.5,0-1.2,0.1-1.5,0.4
				C70.6,113.6,70.5,113.9,71,113.9L71,113.9z"/>
		</g>
	</g>
</g>
</svg>
