<?xml version="1.0" encoding="utf-8"?>
<!-- Generator: Adobe Illustrator 26.0.1, SVG Export Plug-In . SVG Version: 6.00 Build 0)  -->
<svg version="1.1" id="Layer_1" xmlns="http://www.w3.org/2000/svg" xmlns:xlink="http://www.w3.org/1999/xlink" x="0px" y="0px"
	 viewBox="0 0 120 140" style="enable-background:new 0 0 120 140;" xml:space="preserve">
<style type="text/css">
	.st0{opacity:0.5;fill:#3488B7;}
	.st1{opacity:0.5;fill:#FFFFFF;}
	.st2{opacity:0.5;fill:#FBB03B;}
	.st3{fill:#EFCE44;stroke:#D3B740;stroke-width:1.2593;stroke-linecap:round;stroke-miterlimit:10;}
	.st4{fill:#B59D34;stroke:#D3B740;stroke-width:1.2406;stroke-miterlimit:10;}
	.st5{fill:#D3B740;}
</style>
<g>
	<path class="st0" d="M0,5v130c0,2.8,2.2,5,5,5h110c2.8,0,5-2.2,5-5V5c0-2.8-2.2-5-5-5H5C2.3,0,0,2.2,0,5z"/>
	<path class="st1" d="M0.2,46.7c0-0.6,7.8-1.9,8.4-2c13.1-2.3,26.8-1.7,39.7,0.9c6.1,1.2,12.5,2.2,18.8,1.6c3.3-0.3,6.3-1.2,9.3-2.3
		c3-1.1,6.4-1.7,9.7-2.1c2.9-0.4,5.9-0.5,8.8-0.3c4.3,0.3,8,2.1,12.3,2.4c2.1,0.2,4.1,0.2,6.2,0c0.7-0.1,6.6-0.7,6.6-1.3
		c0,0,0.1,3.2,0.1,3.2c-4.9-0.7-10-1.1-14.9-1.3c-4.6-0.2-9.2-0.2-13.8,0.1c-5,0.3-9.7,1.3-14.6,2c-8.9,1.3-18,1.9-27,2
		c-5.3,0.1-10.5-0.7-15.7-1.2c-4.4-0.4-8.8-0.5-13.2-0.7c-4.1-0.1-8.3-0.2-12.4,0c-2.3,0.1-5.9,0.1-7.8,1.3
		c-0.2,0.1-0.4,0.3-0.5,0.4C0.2,49.4,0.2,46.7,0.2,46.7z"/>
	<path class="st1" d="M0.2,45.6c0-0.6,7.8-1.9,8.4-2c13.1-2.3,26.8-1.7,39.7,0.9c6.1,1.2,12.5,2.2,18.8,1.6c3.3-0.3,6.3-1.2,9.3-2.3
		c3-1.1,6.4-1.7,9.7-2.1c2.9-0.4,5.9-0.5,8.8-0.3c4.3,0.3,8,2.1,12.3,2.4c2.1,0.2,4.1,0.2,6.2,0c0.7-0.1,6.6-0.7,6.6-1.3
		c0,0,0.1,3.2,0.1,3.2c-4.9-0.7-10-1.1-14.9-1.3c-4.6-0.2-9.2-0.2-13.8,0.1c-5,0.3-9.7,1.3-14.6,2c-8.9,1.3-18,1.9-27,2
		c-5.3,0.1-10.5-0.7-15.7-1.2c-4.4-0.4-8.8-0.5-13.2-0.7c-4.1-0.1-8.3-0.2-12.4,0c-2.3,0.1-5.9,0.1-7.8,1.3
		c-0.2,0.1-0.4,0.3-0.5,0.4C0.2,48.3,0.2,45.6,0.2,45.6z"/>
	<path class="st1" d="M120.2,70.9c-1.8,0.4-3.5,0.9-5.1,1.5c-4.5,1.7-9,2.9-14,3.4c-9.6,0.9-19.2-0.6-28.4-2.4
		c-19.5-3.8-40-4.8-59.9-1.3c-0.9,0.2-12.8,2.1-12.7,3.1c0,0,0.1,4.1,0.1,4.1C0.4,79,0.7,78.8,1,78.6c2.9-1.8,8.2-1.8,11.7-2
		c6.2-0.3,12.5-0.2,18.7-0.1c6.6,0.2,13.3,0.4,19.9,1c7.9,0.7,15.7,1.9,23.7,1.8c13.6-0.1,27.3-1.1,40.7-3c1.5-0.2,3.1-0.5,4.6-0.7"
		/>
	<path class="st1" d="M120,69.4c-1.7,0.4-3.3,0.9-4.9,1.5c-4.5,1.7-9,2.9-14,3.4c-9.6,0.9-19.2-0.6-28.4-2.4
		c-19.5-3.8-40-4.8-59.9-1.3c-0.9,0.2-12.8,2.1-12.7,3.1c0,0,0.1,4.1,0.1,4.1c0.2-0.3,0.5-0.4,0.8-0.6c2.9-1.8,8.2-1.8,11.7-2
		c6.2-0.3,12.5-0.2,18.7-0.1c6.6,0.2,13.3,0.4,19.9,1C59.1,76.8,67,78,75,77.9c13.6-0.1,27.3-1.1,40.7-3c1.5-0.2,2.9-0.4,4.4-0.7"/>
	<path class="st1" d="M-0.2,11.1c4,0.5,8,1.2,12,2c9.2,1.8,18.8,3.3,28.4,2.4c5-0.5,9.5-1.7,14-3.4c4.5-1.7,9.7-2.5,14.6-3.2
		c4.4-0.6,8.9-0.8,13.3-0.5c6.5,0.5,12.1,3.1,18.6,3.6c3.1,0.2,6.2,0.3,9.4,0c1.1-0.1,9.9-1.1,9.9-2c0,0,0.1,4.8,0.1,4.8
		c-7.4-1.1-15-1.7-22.6-2c-6.9-0.3-13.9-0.3-20.8,0.1c-7.5,0.5-14.7,2-22,3.1c-13.4,1.9-27.1,2.9-40.7,3c-4.8,0-9.5-0.4-14.2-0.8"/>
	<path class="st1" d="M-0.2,10.3c4,0.5,8,1.2,12,2c9.2,1.8,18.8,3.3,28.4,2.4c5-0.5,9.5-1.7,14-3.4c4.5-1.7,9.7-2.5,14.6-3.2
		c4.4-0.6,8.9-0.8,13.3-0.5c6.5,0.5,12.1,3.1,18.6,3.6c3.1,0.2,6.2,0.3,9.4,0c1.1-0.1,9.9-1.1,9.9-2c0,0,0.1,4.8,0.1,4.8
		c-7.4-1.1-15-1.7-22.6-2c-6.9-0.3-13.9-0.3-20.8,0.1c-7.5,0.5-14.7,2-22,3.1c-13.4,1.9-27.1,2.9-40.7,3c-4.8,0-9.5-0.4-14.2-0.8"/>
	<circle class="st1" cx="14.3" cy="8" r="0.9"/>
	<circle class="st1" cx="16.1" cy="2.2" r="1"/>
	<circle class="st1" cx="22.8" cy="3.2" r="1.9"/>
	<circle class="st1" cx="47.2" cy="44.2" r="0.9"/>
	<circle class="st1" cx="43.1" cy="39.8" r="1"/>
	<circle class="st1" cx="47.3" cy="34.4" r="1.9"/>
	<circle class="st1" cx="87.9" cy="57.6" r="1.1"/>
	<circle class="st1" cx="92.7" cy="62.7" r="1.4"/>
	<circle class="st1" cx="87.1" cy="69.1" r="1.6"/>
	<circle class="st1" cx="41.1" cy="100" r="0.9"/>
	<circle class="st1" cx="37.1" cy="95.4" r="1"/>
	<circle class="st1" cx="41.4" cy="90.2" r="1.9"/>
	<circle class="st1" cx="93.7" cy="112.7" r="1.1"/>
	<circle class="st1" cx="91.3" cy="106.2" r="1.4"/>
	<circle class="st1" cx="98.9" cy="102.4" r="1.6"/>
	<path class="st2" d="M0,124.2c9.6-5.1,19.5-9.3,29.5-12.5c5.6-1.8,11.2-3.3,16.8-3.9c7.7-0.9,15.5,1.3,23.1,2.6
		c3.6,0.6,7.1,1.4,10.6,3c1.7,0.7,3.3,1.7,4.9,2.8c2.3,1.7,3.9,3.4,6.6,3.2c4.8-0.3,9.5-1.3,14.2-1.1c4.7,0.1,10,0.3,14.3,3.8v13
		c0,2.8-2.2,5-5,5H5c-2.8,0-5-2.2-5-5L0,124.2z"/>
</g>
<g>
	<path class="st3" d="M90.2,87c-2.5,2.2-3.6,5.5-4.1,8.8C86,96.9,86,97.9,86,99c0,1.7-0.9,2.6-2.2,3.5c-1.3,0.9-3,1.5-4.3,2.5
		c-1.2,1.1-2,2.5-3,3.8c-0.9,1.2-1.7,2.4-2.5,3.7l-5.1-3.4c0,0,4.5-3.7,5.1-8c0,0,7-20.7,10.1-21.9"/>
	<path class="st3" d="M24.7,102.4c-0.3,1.9,1.9,4.2,3.1,5.3c1,0.9,2.5,2.4,3.8,2.8c0.6,0.2,1.1,0,1.7,0c0.7,0.1,1.3,0.3,2,0.6
		c0.8,0.3,1.4,0.8,2.2,1c0.9,0.2,1.5,0.4,2.1,1.2c0.5,0.7,0.9,1.5,1.1,2.3c0.9,2.9,8.9,2.3,8.9,2.3l2.5-5.7
		c-0.4-0.4-0.8-0.8-1.3-1.1c-1-0.6-1.8-0.1-2.8-0.1c-1.1,0-2.2-0.3-3.3-0.5c-1.2-0.3-2.4-0.7-3.3-1.4c-1.2-0.8-2.1-2-3.1-3
		c-1-0.9-2.3-2.1-2.3-3.6c0,0-3.1-5-5.1-5.2"/>
	<path class="st3" d="M69.3,55.3c-2.2,0.8-2.7,8.9-2.7,8.9c0.1,2.2-0.4,4.4-1.3,6.3c-0.3,0.6-0.5,1.2-1,1.7
		c-0.7,0.7-1.7,1.1-2.3,1.8c-0.5,0.7-0.9,1.4-1.1,2.2c-0.4,1.4,0.2,2.6,0.2,4c0,1.4-0.6,2.7-1.3,3.9c-1.6,2.9-0.4,7.2-0.4,7.2
		l12,2.9c0,0,3.1-6.5,1.8-8.5c-2.1-3.1-1.6-7,2.1-8.4c3.3-1.2,3.4-5.9,2.8-8.8c-0.8-3.6-0.3-7.5,2.5-10c0.1-0.1-0.7,0.7-0.6,0.6"/>
	<path class="st3" d="M48.3,61.9c-1.5,2.8-1.2,6.5-1,9.5c0.4,5.6,1,11.1,2.2,16.6l5.8,16.7l8.2-7.2l-3.5-17.4
		c-1.4-1.6-2.1-3.7-1.8-5.9c0.2-1.7,1.4-2.9,1.8-4.5c0.7-2.6-0.2-5.7-1.9-7.7"/>
	<path class="st3" d="M25.1,78.6c3.5,2.5,5.6,5.9,8.3,9.3c1.1,1.4,2.3,2.9,3.2,4.4c0.6,1.1,1.2,2.2,1.6,3.3c0.3,0.8,0.7,1.6,0.8,2.5
		c0.2,0.8,0,1.7,0.1,2.5c0.2,1.7,1,3.2,2.3,4.3c1,0.9,2.5,1.3,3.6,2.1c1.2,0.8,2.2,1.8,3.3,2.7l-1.5-24.4c0,0-1.5-4.2-4.7-5
		c-2.4-0.6-2.8-3-3.9-4.8c-1-1.7-2.2-3.5-3.9-4.7"/>
	<path class="st3" d="M39.1,91.2c0,1.8,1.5,3.8,2.4,5.2c1,1.5,2,3,3.1,4.5c0.4,0.5,0.8,0.9,0.9,1.5c0.1,0.5-0.1,1,0,1.5
		c0.1,0.5,0.3,1,0.6,1.5c1,1.4,2.8,1.3,2.8,3.4c0,1.5,3.3,4.7,4.2,5.7l6.2-7.3c-0.7-1.3-3.6-4.4-3.6-5.9c0-0.8,0-1.7,0-2.5
		c0-0.4,0-0.8-0.2-1.2c-0.4-1-1.7-1.3-2.3-2.1c-1.1-1.3-2.1-2.9-3-4.3c-0.7-1.1-2.1-2.8-2-4.2"/>
	<path class="st4" d="M39.4,91c-0.1-0.2-0.1-0.4-0.1-0.7c0.1-1.2,1.1-2.4,1.9-3.1c1.5-1.5,3.9-1.5,5.7-0.6c1.8,0.9,1.1,3.2,0.3,4.7
		c-1,1.8-3.1,1.9-4.9,1.4C41.3,92.3,39.8,91.9,39.4,91z"/>
	<path class="st3" d="M56.6,126.2c0.5-7.4,2.2-10.8,2.2-10.8l-2.7-8.7c0,0-6.5,5.4-7.8,16.8"/>
	<path class="st4" d="M48,123.3c0.2-0.4,0.5-0.8,1-1.1c1.6-1.2,4-2.1,5.7-0.5c1,0.9,2.5,3.8,1.9,5.1c-0.5,1.2-2.9,1.5-4.1,1.6
		C49.7,128.7,46.9,125.6,48,123.3z"/>
	<path class="st3" d="M72,93c0,3.5-4.3,15.7-4.3,15.7l-11.3-1.4c0,0,2.7-17.6,7.5-16.9"/>
	<path class="st4" d="M63.9,90.5c0,0,8.6-3.8,8.1,2.4C72,92.9,62.8,98.6,63.9,90.5z"/>
	<path class="st4" d="M84.5,79c1.1-0.8,3.9,0.4,4.8,0.9c1.8,1.1,2.7,3.5,2.2,5.6c-0.4,2-2.9,1.7-4.5,1.3c-2.1-0.5-3.1-2.5-3.2-4.5
		c-0.1-0.9-0.2-2.2,0.3-3C84.3,79.2,84.4,79.1,84.5,79z"/>
	<path class="st4" d="M81,58.4c0.4-2.2-2.5-3.3-4.1-3.9c-2.4-0.8-4.9-1.2-7.3-0.1c-1.7,0.8,0.7,3.5,1.3,4.2c2.7,3,6.6,2.4,9.7,0.2
		C80.8,58.7,80.9,58.5,81,58.4z"/>
	<path class="st4" d="M58.2,61.9c0-0.3-0.3-0.5-0.7-0.9c-1.4-1.2-3.3-1.9-5.1-1.6c-1.2,0.1-2.9,0.6-3.7,1.5
		c-1.4,1.4,1.6,3.3,2.7,3.9c1.6,0.9,3.6,0.6,5-0.4c0.7-0.5,1.5-1.2,1.8-2C58.2,62.3,58.2,62.1,58.2,61.9z"/>
	<path class="st4" d="M23.9,78.4c-0.6-1.2,1.7-4.2,2.3-4.8c1.7-2,4.3-3,6.8-3.2c0.2,0,0.3,0,0.5,0c1.1,0.4-0.3,4-0.7,4.7
		c-1.1,2-3.1,3.3-5.3,3.5c-1,0.1-2.3,0.5-3.2,0.1C24.1,78.6,24,78.5,23.9,78.4z"/>
	<path class="st4" d="M23.3,102.7c-0.1-0.1-0.1-0.2-0.1-0.3c-0.3-1.2,1.3-3.2,2-4c1.3-1.5,3.8-2.3,5.6-1.4c1.4,0.7,0.5,3.3-0.1,4.4
		c-0.5,1-1.3,1.8-2.4,2.1c-0.7,0.2-1.4,0.2-2.2,0.1C25.2,103.5,23.8,103.5,23.3,102.7z"/>
	<path class="st3" d="M71.3,121.7c-4.5-2.7-9.5-4.8-13.3-8.4c-0.6-0.6-1.7-1.4-1.9-2.3c0-0.4,0.1-0.9,0.2-1.3c0.3-1.2,1-2.4,2.1-3.2
		c1.1-0.8,2.5-0.9,3.8-0.8c0,0,13.8,6.8,15.8,10.3"/>
	<path class="st4" d="M71.2,122.1c-0.3-0.3-0.5-0.6-0.6-1.2c-0.1-0.9-0.1-1.9,0-2.8c0.3-1.8,2.1-2.8,3.8-3c2.1-0.2,4,0.4,4.4,2.5
		c0.2,0.9,0.3,1.9,0.2,2.8c-0.4,2.9-3.3,2.9-5.7,2.4C72.6,122.8,71.8,122.6,71.2,122.1z"/>
	<g>
		<g>
			<path class="st5" d="M29.6,82c1.2-0.4,2.3-1.2,3.1-2.1c0.1-0.1,0.1-0.3-0.1-0.4c-0.2-0.1-0.5,0-0.6,0.2c-0.4,0.4-0.8,0.8-1.3,1.1
				c-0.5,0.3-0.9,0.6-1.5,0.8c-0.1,0-0.4,0.2-0.2,0.4C29.1,82.1,29.4,82,29.6,82L29.6,82z"/>
		</g>
	</g>
	<g>
		<g>
			<path class="st5" d="M31.6,85.7c0.6-0.3,1.2-0.7,1.6-1.1c0,0,0.1-0.1,0-0.1c-0.1,0-0.2,0-0.2,0c-0.2,0-0.5,0.1-0.6,0.2
				c-0.1,0.1-0.1,0.1-0.2,0.2c0,0-0.1,0.1-0.1,0.1c0,0,0,0,0,0c0,0,0,0,0,0c-0.1,0.1-0.2,0.2-0.4,0.3c-0.1,0-0.1,0.1-0.2,0.1
				c0,0-0.1,0-0.1,0.1c0,0,0.1,0,0,0c0,0,0,0-0.1,0c-0.1,0.1-0.3,0.1-0.4,0.2c-0.1,0-0.2,0.1-0.2,0.2c0,0.1,0,0.1,0.1,0.1
				C31.2,85.9,31.4,85.8,31.6,85.7L31.6,85.7z"/>
		</g>
	</g>
	<g>
		<g>
			<path class="st5" d="M36.6,73.5c-0.3,0.2-0.6,0.4-0.9,0.6c-0.1,0.1-0.3,0.2-0.4,0.3c-0.1,0-0.2,0.1-0.2,0.1c0,0,0,0,0,0
				c0,0,0,0-0.1,0c0,0-0.1,0-0.1,0.1c-0.1,0.1-0.2,0.1-0.2,0.2c0,0.1,0,0.2,0,0.2c0.1,0.2,0.4,0.2,0.6,0.1c0.6-0.4,1.3-0.8,1.9-1.2
				c0.1-0.1,0.2-0.3,0-0.5C37.1,73.3,36.8,73.4,36.6,73.5L36.6,73.5z"/>
		</g>
	</g>
	<g>
		<g>
			<path class="st5" d="M38.5,77.1c-0.8,0.8-1.8,1.5-2.8,1.9c-0.1,0-0.3,0.2-0.1,0.2c0.2,0.1,0.5,0,0.6-0.1c1.2-0.5,2.2-1.2,3.1-2.1
				c0.1-0.1-0.1-0.1-0.2-0.1C38.9,76.9,38.7,77,38.5,77.1L38.5,77.1z"/>
		</g>
	</g>
	<g>
		<g>
			<path class="st5" d="M34.6,88.6c1-1,2-2,3-3c0.1-0.2-0.1-0.2-0.2-0.2c-0.2,0-0.5,0.1-0.6,0.2c-1,1-1.9,2-3,3
				c-0.2,0.1,0.1,0.2,0.2,0.2C34.2,88.9,34.5,88.8,34.6,88.6L34.6,88.6z"/>
		</g>
	</g>
	<g>
		<g>
			<path class="st5" d="M41.1,80.2c-0.6,0.5-1.3,0.9-2,1.3c0,0-0.1,0.1-0.1,0.1c0,0.1,0.1,0.1,0.2,0.1c0.2,0,0.4-0.1,0.6-0.2
				c0.8-0.4,1.5-0.9,2.1-1.4c0.2-0.1-0.1-0.1-0.2-0.1C41.5,80,41.3,80.1,41.1,80.2L41.1,80.2z"/>
		</g>
	</g>
	<g>
		<g>
			<path class="st5" d="M44.9,83c-1,0.7-2.2,1.1-3.4,1.4c-0.2,0-0.4,0.2-0.4,0.4c0.1,0.2,0.4,0.2,0.5,0.2c1.3-0.3,2.6-0.9,3.8-1.6
				c0.2-0.1,0.2-0.3,0.1-0.5C45.4,82.8,45.1,82.9,44.9,83L44.9,83z"/>
		</g>
	</g>
	<g>
		<g>
			<path class="st5" d="M37.1,91.3c0.6-0.5,1.1-0.9,1.7-1.4c0.1,0,0.1-0.1,0.1-0.2c0-0.1-0.1-0.1-0.2-0.1c-0.2-0.1-0.5,0-0.6,0.2
				c-0.6,0.5-1.1,0.9-1.7,1.4c-0.1,0-0.1,0.1-0.1,0.2c0,0.1,0.1,0.1,0.2,0.1C36.7,91.5,37,91.4,37.1,91.3L37.1,91.3z"/>
		</g>
	</g>
	<g>
		<g>
			<path class="st5" d="M41.2,103.2c1-0.6,1.8-1.3,2.7-2.1c0.2-0.1-0.1-0.2-0.2-0.2c-0.2,0-0.4,0.1-0.6,0.2c-0.8,0.7-1.7,1.4-2.6,2
				c0,0-0.1,0.1-0.1,0.2c0,0.1,0.1,0.1,0.2,0.1C40.8,103.4,41.1,103.3,41.2,103.2L41.2,103.2z"/>
		</g>
	</g>
	<g>
		<g>
			<path class="st5" d="M39,95.5c0.1,0,0.2-0.1,0.3-0.1c0.1,0,0.1,0,0.1-0.1c0,0,0.1,0,0.1-0.1c0,0,0,0,0-0.1c0,0,0,0,0-0.1
				c0,0,0,0-0.1,0c-0.1,0-0.1,0-0.2,0c-0.1,0-0.2,0-0.4,0.1c-0.1,0-0.2,0.1-0.3,0.1c-0.1,0-0.1,0-0.1,0.1c0,0-0.1,0-0.1,0.1
				c0,0,0,0,0,0.1c0,0,0,0,0,0.1c0,0,0,0,0.1,0c0.1,0,0.1,0,0.2,0C38.8,95.6,38.9,95.5,39,95.5L39,95.5z"/>
		</g>
	</g>
	<g>
		<g>
			<path class="st5" d="M40,100.2c0.5-0.4,0.9-0.8,1.3-1.2c0,0,0.1-0.1,0-0.1c-0.1,0-0.2,0-0.2,0c-0.1,0-0.2,0-0.4,0.1
				c-0.1,0-0.2,0.1-0.2,0.1c-0.2,0.2-0.4,0.4-0.6,0.6c-0.1,0-0.1,0.1-0.2,0.1c0,0-0.1,0-0.1,0.1c0,0,0,0,0,0c0,0-0.1,0.1,0,0
				c0,0,0,0,0,0c0,0,0,0,0,0c0,0-0.1,0-0.1,0.1c-0.1,0-0.1,0.1-0.2,0.1c0,0-0.1,0.1-0.1,0.2c0,0.1,0.1,0.1,0.2,0.1
				c0.1,0,0.2,0,0.3,0C39.8,100.3,40,100.2,40,100.2L40,100.2z"/>
		</g>
	</g>
	<g>
		<g>
			<path class="st5" d="M42.8,105.3c0.2,0,0.3-0.1,0.4-0.2c0.1-0.1,0.2-0.2,0.3-0.3c0.1-0.1,0.1-0.2,0.2-0.3c0-0.1,0.1-0.2,0.1-0.2
				c0,0,0-0.1,0-0.1c0,0,0-0.1-0.1-0.1c-0.1,0-0.2,0-0.3,0c-0.1,0-0.2,0.1-0.3,0.1c0,0-0.1,0-0.1,0.1c0,0-0.1,0.1-0.1,0.1
				c0,0.1,0,0.2-0.1,0.3c0,0,0,0,0-0.1c0,0.1-0.1,0.1-0.1,0.2c0,0,0,0,0.1-0.1c0,0-0.1,0.1-0.1,0.1c0,0,0.1,0,0.1-0.1
				c0,0-0.1,0-0.1,0.1c0,0,0.1,0,0.1-0.1c0,0-0.1,0-0.1,0c0,0,0.1,0,0.1,0c0,0-0.1,0-0.1,0c-0.1,0-0.1,0-0.2,0.1c0,0-0.1,0-0.1,0.1
				c0,0-0.1,0.1-0.1,0.2c0,0.1,0.1,0.1,0.2,0.1C42.6,105.4,42.7,105.3,42.8,105.3L42.8,105.3z"/>
		</g>
	</g>
	<g>
		<g>
			<path class="st5" d="M26.6,106.2c0.8-0.2,1.6-0.6,2.2-1.1c0,0,0.1-0.1,0.1-0.1c0-0.1-0.1-0.1-0.2-0.1c-0.2,0-0.5,0-0.6,0.2
				c-0.1,0.1-0.3,0.2-0.4,0.3c0,0-0.1,0.1-0.1,0c0,0-0.1,0-0.1,0.1c-0.1,0-0.1,0.1-0.2,0.1c-0.1,0-0.1,0.1-0.2,0.1c0,0,0,0-0.1,0
				c0.1,0,0.1,0,0,0c0,0-0.1,0-0.1,0.1c-0.1,0-0.2,0.1-0.2,0.1c0,0-0.1,0-0.1,0c-0.1,0,0,0,0,0c0,0,0,0-0.1,0
				c-0.1,0-0.2,0.1-0.3,0.1c0,0-0.1,0.1-0.1,0.1C26.1,106.3,26.5,106.2,26.6,106.2L26.6,106.2z"/>
		</g>
	</g>
	<g>
		<g>
			<path class="st5" d="M28.7,107.7c0.1-0.1,0.3-0.3,0.4-0.4c0,0,0.1-0.1,0.1-0.1c0,0,0-0.1,0-0.1c0,0,0-0.1-0.1-0.1
				c0,0-0.1,0-0.1,0c-0.1,0-0.2,0-0.3,0c0,0-0.1,0-0.1,0c-0.1,0-0.1,0.1-0.2,0.1c-0.1,0.1-0.3,0.3-0.4,0.4c0,0-0.1,0.1-0.1,0.1
				c0,0,0,0.1,0,0.1c0,0,0,0.1,0.1,0.1c0,0,0.1,0,0.1,0c0.1,0,0.2,0,0.3,0c0,0,0.1,0,0.1,0C28.6,107.8,28.7,107.7,28.7,107.7
				L28.7,107.7z"/>
		</g>
	</g>
	<g>
		<g>
			<path class="st5" d="M32.2,110.2c0.9-0.8,1.7-1.7,2.5-2.7c0.1-0.2-0.1-0.2-0.2-0.2c-0.1,0-0.2,0-0.4,0.1c-0.1,0-0.2,0.1-0.2,0.1
				c-0.7,1-1.5,1.9-2.5,2.7c-0.2,0.1,0.1,0.2,0.2,0.2C31.8,110.4,32,110.3,32.2,110.2L32.2,110.2z"/>
		</g>
	</g>
	<g>
		<g>
			<path class="st5" d="M36.5,111.5c0.3-0.5,0.6-1,0.8-1.6c0-0.1,0-0.1-0.1-0.1c-0.1,0-0.2,0-0.3,0c-0.2,0-0.4,0.1-0.5,0.3
				c-0.1,0.1-0.1,0.3-0.2,0.4c0,0.1-0.1,0.1-0.1,0.2c0,0,0,0.1,0,0.1c0,0,0,0,0,0c0,0,0,0,0,0c-0.1,0.2-0.3,0.5-0.4,0.7
				c0,0.1-0.1,0.1,0,0.2c0.1,0.1,0.2,0.1,0.2,0.1c0.1,0,0.2,0,0.4-0.1C36.3,111.6,36.4,111.6,36.5,111.5L36.5,111.5z"/>
		</g>
	</g>
	<g>
		<g>
			<path class="st5" d="M41.5,115.9c0.3-0.4,0.7-0.9,1-1.3c0-0.1,0-0.2,0-0.2c-0.1-0.1-0.2-0.1-0.2-0.1c-0.2,0-0.4,0.1-0.6,0.3
				c-0.3,0.4-0.7,0.9-1,1.3c0,0.1,0,0.2,0,0.2c0.1,0.1,0.2,0.1,0.2,0.1C41.2,116.1,41.4,116,41.5,115.9L41.5,115.9z"/>
		</g>
	</g>
	<g>
		<g>
			<path class="st5" d="M45.4,111.4c0.1,0.8-0.2,1.7-0.7,2.4c-0.1,0.2-0.1,0.4,0.1,0.5c0.2,0.1,0.5,0,0.6-0.2
				c0.6-0.8,0.9-1.9,0.8-2.9c0-0.1-0.1-0.2-0.2-0.2c-0.1,0-0.2,0-0.3,0C45.5,111,45.4,111.2,45.4,111.4L45.4,111.4z"/>
		</g>
	</g>
	<g>
		<g>
			<path class="st5" d="M47.4,117.9c0.3-0.5,0.5-1.1,0.8-1.6c0-0.1,0.1-0.1,0-0.2c-0.1-0.1-0.2-0.1-0.2-0.1c-0.1,0-0.2,0-0.4,0.1
				c-0.1,0-0.2,0.1-0.2,0.2c-0.3,0.5-0.5,1.1-0.8,1.6c0,0.1-0.1,0.1,0,0.2c0.1,0.1,0.2,0.1,0.2,0.1c0.1,0,0.2,0,0.4-0.1
				C47.2,118.1,47.3,118,47.4,117.9L47.4,117.9z"/>
		</g>
	</g>
	<g>
		<g>
			<path class="st5" d="M48.6,111.6c0,0.1,0,0.1,0,0.2c0,0,0,0,0-0.1c0,0.5-0.1,1-0.3,1.4c0,0.1,0,0.1,0.1,0.1c0.1,0,0.2,0,0.3,0
				c0.1,0,0.2-0.1,0.3-0.1c0.1,0,0.1-0.1,0.2-0.2c0.2-0.5,0.3-1.1,0.3-1.7c0-0.1-0.1-0.1-0.2-0.1c-0.1,0-0.2,0-0.3,0
				C48.9,111.4,48.6,111.5,48.6,111.6L48.6,111.6z"/>
		</g>
	</g>
	<g>
		<g>
			<path class="st5" d="M40.5,109.3c0,0.1,0,0.1,0,0.2C40.5,109.4,40.5,109.4,40.5,109.3c-0.1,0.2-0.1,0.3-0.2,0.4
				c0,0.1-0.1,0.1-0.1,0.2c0,0,0,0.1,0,0.1c0,0,0,0,0,0c0,0,0,0.1,0,0c0,0,0,0,0,0c0,0,0,0,0,0c0,0,0,0.1-0.1,0.1
				c0,0.1-0.1,0.1-0.1,0.2c0,0-0.1,0.1-0.1,0.1c-0.1,0.1,0.1,0,0,0c0,0,0,0,0,0c0,0-0.1,0-0.1,0.1c-0.1,0.1-0.1,0.1-0.2,0.2
				c0,0.1,0,0.2,0.1,0.2c0.2,0.1,0.5,0.1,0.6-0.1c0.6-0.4,0.9-1.1,1.1-1.7c0-0.1,0-0.2-0.1-0.2c-0.1-0.1-0.2-0.1-0.3-0.1
				C40.8,108.9,40.6,109.1,40.5,109.3L40.5,109.3z"/>
		</g>
	</g>
	<g>
		<g>
			<path class="st5" d="M34.8,101.8c-0.3,1-0.8,1.8-1.6,2.4c-0.2,0.1,0.1,0.1,0.2,0.1c0.2,0,0.4-0.1,0.6-0.2
				c0.8-0.6,1.4-1.5,1.7-2.5c0-0.1-0.3-0.1-0.4-0.1c-0.1,0-0.2,0.1-0.3,0.1C35,101.7,34.8,101.8,34.8,101.8L34.8,101.8z"/>
		</g>
	</g>
	<g>
		<g>
			<path class="st5" d="M33.1,99.5c-0.2,0.8-0.6,1.6-1.1,2.3c-0.1,0.1,0.1,0.2,0.2,0.1c0.1,0,0.2,0,0.3-0.1c0.1,0,0.2-0.1,0.3-0.1
				c0.6-0.7,1-1.5,1.2-2.4c0-0.2-0.3-0.1-0.4-0.1c-0.1,0-0.2,0.1-0.3,0.1C33.3,99.4,33.1,99.5,33.1,99.5L33.1,99.5z"/>
		</g>
	</g>
	<g>
		<g>
			<path class="st5" d="M37.3,105.9c-0.3,0.4-0.7,0.9-1,1.2c0,0-0.1,0.1,0,0.1c0.1,0,0.2,0.1,0.2,0c0.2,0,0.5-0.1,0.6-0.2
				c0.4-0.4,0.7-0.8,1-1.2c0,0,0.1-0.1,0-0.1c-0.1,0-0.2-0.1-0.2,0c-0.1,0-0.2,0-0.4,0.1C37.4,105.8,37.3,105.8,37.3,105.9
				L37.3,105.9z"/>
		</g>
	</g>
	<g>
		<g>
			<path class="st5" d="M40.3,95.1c1.2,0,2.5-0.4,3.4-1.2c0.2-0.1,0.2-0.3,0-0.5c-0.2-0.1-0.5-0.1-0.6,0.1c-0.4,0.3-0.8,0.6-1.3,0.7
				c-0.5,0.2-0.9,0.2-1.5,0.2c-0.2,0-0.5,0.2-0.5,0.4C39.9,95,40.2,95.1,40.3,95.1L40.3,95.1z"/>
		</g>
	</g>
	<g>
		<g>
			<path class="st5" d="M42.4,98.2c0.5,0,1.1-0.1,1.6-0.3c0.4-0.2,0.8-0.5,1-0.8c0.1-0.1-0.3-0.1-0.4-0.1c-0.1,0-0.2,0.1-0.3,0.1
				c-0.1,0-0.1,0.1-0.2,0.1c-0.1,0.1-0.2,0.2-0.3,0.3c0,0-0.1,0-0.1,0.1c0,0,0,0,0,0c-0.1,0.1,0,0,0,0c0,0-0.1,0-0.1,0.1
				c0,0,0,0,0,0c0,0,0,0,0,0c0,0,0,0,0,0c0,0-0.1,0-0.1,0c0,0,0,0-0.1,0c0,0,0.1,0,0,0c0,0,0,0-0.1,0c-0.1,0,0.1,0,0,0
				c0,0,0,0-0.1,0c-0.1,0,0.1,0,0,0c0,0,0,0-0.1,0c-0.1,0,0,0,0,0c0,0-0.1,0-0.1,0c0,0,0,0,0,0c0,0,0,0-0.1,0c0,0-0.1,0-0.1,0
				c-0.1,0-0.2,0-0.3,0c-0.1,0-0.2,0.1-0.3,0.1c0,0-0.1,0.1-0.1,0.1C42.2,98.2,42.3,98.2,42.4,98.2L42.4,98.2z"/>
		</g>
	</g>
	<g>
		<g>
			<path class="st5" d="M44.8,101.3c1.8,0,3.5-1,4.4-2.6c0.1-0.2-0.1-0.4-0.3-0.4c-0.2,0-0.5,0.1-0.6,0.3c-0.3,0.6-0.8,1.2-1.4,1.5
				c-0.6,0.4-1.3,0.5-2,0.5c-0.2,0-0.5,0.2-0.5,0.4C44.4,101.2,44.6,101.3,44.8,101.3L44.8,101.3z"/>
		</g>
	</g>
	<g>
		<g>
			<path class="st5" d="M46.3,105.6c1-0.1,2-0.5,2.8-1.2c0,0,0.1-0.1,0.1-0.2c0-0.1-0.1-0.1-0.2-0.1c-0.2,0-0.5,0-0.6,0.2
				c-0.1,0.1-0.3,0.3-0.5,0.4c0,0,0,0,0,0c0,0,0,0-0.1,0c0,0-0.1,0.1-0.1,0.1c0,0-0.1,0-0.1,0.1c0,0,0,0-0.1,0c-0.1,0,0,0,0,0
				c-0.1,0-0.2,0.1-0.3,0.1c0,0,0,0-0.1,0c-0.1,0,0.1,0,0,0c0,0-0.1,0-0.1,0c0,0-0.1,0-0.1,0c0,0-0.1,0,0,0c0.1,0,0,0,0,0
				c-0.1,0-0.2,0-0.3,0c-0.2,0-0.5,0.1-0.5,0.3C45.9,105.7,46.2,105.6,46.3,105.6L46.3,105.6z"/>
		</g>
	</g>
	<g>
		<g>
			<path class="st5" d="M50.1,110c1.3-0.7,2.5-1.7,3.4-2.9c0.1-0.2,0.1-0.4-0.1-0.5c-0.2-0.1-0.5,0-0.6,0.2c-0.8,1.1-1.9,2-3.1,2.6
				c-0.2,0.1-0.3,0.3-0.2,0.5C49.7,110.1,50,110.1,50.1,110L50.1,110z"/>
		</g>
	</g>
	<g>
		<g>
			<path class="st5" d="M55.6,103.5C55.5,103.5,55.5,103.5,55.6,103.5C55.5,103.5,55.5,103.6,55.6,103.5c-0.1,0.1-0.1,0.1-0.1,0.1
				c0,0.1-0.1,0.1-0.2,0.2c-0.1,0.1-0.1,0.1-0.2,0.2c0,0,0.1-0.1,0,0c0,0,0,0,0,0c0,0-0.1,0-0.1,0.1c-0.1,0-0.1,0.1-0.2,0.1
				c0,0,0,0-0.1,0c-0.1,0,0,0,0,0c0,0-0.1,0-0.1,0c-0.1,0-0.1,0.1-0.2,0.1c0,0,0,0-0.1,0c0,0,0.1,0,0,0c0,0-0.1,0-0.1,0
				c-0.1,0-0.2,0.1-0.3,0.2c0,0.1-0.1,0.1-0.1,0.2c0.1,0.2,0.4,0.2,0.5,0.1c0.7-0.2,1.4-0.7,1.8-1.3c0-0.1,0-0.2,0-0.2
				c-0.1-0.1-0.2-0.1-0.2-0.1C55.9,103.2,55.7,103.3,55.6,103.5L55.6,103.5z"/>
		</g>
	</g>
	<g>
		<g>
			<path class="st5" d="M54.9,100.8c-1.1,0.5-2.4,0.8-3.6,1c-0.2,0-0.5,0.1-0.5,0.3c0,0.2,0.2,0.3,0.4,0.3c1.4-0.1,2.8-0.5,4.1-1.1
				c0.1-0.1,0.4-0.3,0.2-0.4C55.4,100.6,55.1,100.7,54.9,100.8L54.9,100.8z"/>
		</g>
	</g>
	<g>
		<g>
			<path class="st5" d="M54.2,96.9c-0.9,0.5-1.7,0.9-2.7,1.2c-0.1,0-0.4,0.2-0.2,0.3c0.1,0.1,0.4,0.1,0.6,0c1-0.4,1.9-0.8,2.9-1.3
				c0.1-0.1,0.3-0.2,0.1-0.3C54.6,96.8,54.4,96.9,54.2,96.9L54.2,96.9z"/>
		</g>
	</g>
	<g>
		<g>
			<path class="st5" d="M48.9,91c0,0.4-0.1,0.9-0.3,1.2c-0.1,0.1-0.1,0.2-0.2,0.3c0,0-0.1,0.1-0.1,0.1c0,0,0,0,0,0c0,0,0,0-0.1,0.1
				c-0.1,0.1-0.2,0.2-0.2,0.2c0,0-0.1,0.1,0,0c0,0,0,0,0,0c0,0-0.1,0.1-0.1,0.1c-0.1,0.1-0.3,0.3-0.1,0.4c0.2,0.1,0.5,0,0.6-0.1
				c0.9-0.6,1.5-1.5,1.5-2.5c0-0.2-0.2-0.2-0.4-0.2c-0.1,0-0.2,0-0.3,0.1C49,90.8,48.9,90.9,48.9,91L48.9,91z"/>
		</g>
	</g>
	<g>
		<g>
			<path class="st5" d="M51.4,94.6c-0.2,0.3-0.5,0.6-0.8,0.9c0,0-0.1,0.1-0.1,0.1c0,0,0,0,0,0c0,0,0,0,0,0c0,0,0,0-0.1,0
				c-0.1,0.1-0.2,0.1-0.2,0.2c-0.2,0.1-0.3,0.2-0.5,0.3c-0.1,0.1-0.2,0.3-0.1,0.4c0.2,0.1,0.5,0,0.6-0.1c0.7-0.4,1.4-1,1.9-1.7
				c0.1-0.1,0.1-0.1,0.1-0.2c0-0.1-0.1-0.1-0.2-0.2C51.8,94.4,51.5,94.4,51.4,94.6L51.4,94.6z"/>
		</g>
	</g>
	<g>
		<g>
			<path class="st5" d="M47.1,66.3c0.9,0.3,1.9,0.5,2.9,0.7c0.2,0,0.5-0.1,0.6-0.3c0.1-0.2-0.1-0.3-0.3-0.4
				c-0.9-0.2-1.8-0.4-2.7-0.6c-0.2-0.1-0.5,0-0.6,0.2C46.9,66,46.9,66.2,47.1,66.3L47.1,66.3z"/>
		</g>
	</g>
	<g>
		<g>
			<path class="st5" d="M59.3,68c-1.8,0.4-3.6,0.5-5.4,0.3c-0.2,0-0.4,0-0.6,0.1c-0.1,0-0.3,0.2-0.1,0.2c2.1,0.3,4.2,0.1,6.2-0.4
				c0.1,0,0.4-0.1,0.4-0.3C59.8,67.9,59.4,68,59.3,68L59.3,68z"/>
		</g>
	</g>
	<g>
		<g>
			<path class="st5" d="M47.5,73c1.5,0.2,3-0.1,4.4-0.8c0.1,0,0.3-0.2,0.1-0.2c-0.2-0.1-0.5,0-0.6,0.1c-1,0.5-2,0.6-3.1,0.5
				c-0.2,0-0.4,0-0.6,0.1C47.6,72.8,47.3,73,47.5,73L47.5,73z"/>
		</g>
	</g>
	<g>
		<g>
			<path class="st5" d="M57.8,73.1c-0.3,0-0.6-0.1-1-0.2c0.1,0,0,0,0,0c0,0-0.1,0-0.1,0c-0.1,0-0.2,0-0.2-0.1
				c-0.2-0.1-0.3-0.1-0.5-0.2c-0.2-0.1-0.5,0-0.6,0.2c-0.1,0.2-0.1,0.4,0.1,0.5c0.7,0.2,1.3,0.4,2,0.5c0.2,0,0.5-0.1,0.6-0.3
				C58.2,73.3,58,73.1,57.8,73.1L57.8,73.1z"/>
		</g>
	</g>
	<g>
		<g>
			<path class="st5" d="M48.1,76.6c0.2,0,0.5,0,0.7,0c0.1,0,0.2,0,0.4-0.1c0.1,0,0.1,0,0.1-0.1c0,0,0.1-0.1,0.1-0.1
				c0-0.1,0.1-0.1,0-0.2c-0.1-0.1-0.2-0.1-0.2-0.1c-0.2,0-0.5,0-0.7,0c-0.1,0-0.2,0-0.4,0.1c-0.1,0-0.1,0-0.1,0.1
				c0,0-0.1,0.1-0.1,0.1c0,0.1-0.1,0.1,0,0.2C48,76.6,48,76.6,48.1,76.6L48.1,76.6z"/>
		</g>
	</g>
	<g>
		<g>
			<path class="st5" d="M48.5,81.6c1.1,0.1,2.4-0.3,3.1-1.1c0.1-0.1-0.1-0.2-0.2-0.2c-0.2,0-0.5,0.1-0.6,0.2
				c-0.1,0.1-0.3,0.3-0.4,0.4c0,0-0.1,0.1-0.1,0.1c0.1,0-0.1,0-0.1,0c0,0-0.2,0.1-0.1,0c0,0-0.1,0-0.1,0.1c0,0,0,0-0.1,0
				c0.1,0,0.1,0,0,0c0,0-0.1,0-0.1,0c0.1,0,0,0-0.1,0c0,0,0,0-0.1,0c0,0,0,0,0,0c-0.1,0-0.1,0-0.2,0c0,0-0.1,0,0,0c0,0-0.1,0-0.1,0
				c-0.1,0-0.2,0-0.3,0c-0.2,0-0.5,0.1-0.6,0.2c0,0-0.1,0.1-0.1,0.1C48.4,81.6,48.5,81.6,48.5,81.6L48.5,81.6z"/>
		</g>
	</g>
	<g>
		<g>
			<path class="st5" d="M49.5,87.5c1.2,0,2.5-0.5,3.4-1.2c1-0.7,1.8-1.7,2.6-2.7c0.1-0.2-0.1-0.2-0.2-0.2c-0.2,0-0.5,0.1-0.6,0.2
				c-1.2,1.5-2.7,3.5-4.9,3.4c-0.2,0-0.5,0.1-0.6,0.2C49.1,87.5,49.3,87.5,49.5,87.5L49.5,87.5z"/>
		</g>
	</g>
	<g>
		<g>
			<path class="st5" d="M60.7,86.9c-0.9,0.3-1.8,0.3-2.8,0.2c-0.2,0-0.5,0.1-0.6,0.3c-0.1,0.2,0.1,0.3,0.3,0.3
				c1.1,0.2,2.2,0.1,3.3-0.2c0.2,0,0.4-0.2,0.4-0.4C61.2,86.8,60.9,86.8,60.7,86.9L60.7,86.9z"/>
		</g>
	</g>
	<g>
		<g>
			<path class="st5" d="M58.5,79.5c-1.1,0.1-2.2,0.1-3.2-0.2c-0.2,0-0.4,0-0.6,0.1c-0.1,0-0.3,0.2-0.1,0.2c1.2,0.3,2.4,0.3,3.6,0.2
				c0.2,0,0.5-0.1,0.6-0.2C58.8,79.5,58.6,79.5,58.5,79.5L58.5,79.5z"/>
		</g>
	</g>
	<g>
		<g>
			<path class="st5" d="M60,83.4c-0.6,0-1.1,0.1-1.7,0.1c-0.1,0-0.2,0.1-0.3,0.1c-0.1,0.1-0.2,0.1-0.2,0.2c0,0.2,0.2,0.3,0.4,0.3
				c0.6,0,1.1-0.1,1.7-0.1c0.1,0,0.2-0.1,0.3-0.1c0.1-0.1,0.2-0.1,0.2-0.2C60.4,83.5,60.2,83.4,60,83.4L60,83.4z"/>
		</g>
	</g>
	<g>
		<g>
			<path class="st5" d="M51.9,92.3c1.2-0.5,2.3-1.3,3.2-2.3c0.1-0.2-0.1-0.2-0.2-0.2c-0.2,0-0.5,0.1-0.6,0.2
				c-0.4,0.4-0.8,0.8-1.3,1.1c-0.5,0.3-0.9,0.6-1.4,0.8c-0.1,0-0.4,0.2-0.2,0.3C51.4,92.5,51.7,92.4,51.9,92.3L51.9,92.3z"/>
		</g>
	</g>
	<g>
		<g>
			<path class="st5" d="M55.4,96.8c0.4-0.5,0.8-0.9,1.3-1.4c0.1-0.1,0.1-0.2,0.1-0.3c0-0.1-0.1-0.2-0.2-0.2c-0.2-0.1-0.5,0-0.6,0.2
				c-0.4,0.5-0.8,0.9-1.3,1.4c-0.1,0.1-0.1,0.2-0.1,0.3c0,0.1,0.1,0.2,0.2,0.2C55,97.1,55.3,97,55.4,96.8L55.4,96.8z"/>
		</g>
	</g>
	<g>
		<g>
			<path class="st5" d="M61.5,90.3c-0.8,0.1-1.5,0.1-2.3,0.1c-0.2,0-0.5,0-0.6,0.2c-0.1,0.1-0.1,0.3,0.1,0.3c0.9,0.1,1.8,0,2.7-0.1
				c0.2,0,0.5-0.1,0.5-0.3C62,90.2,61.6,90.2,61.5,90.3L61.5,90.3z"/>
		</g>
	</g>
	<g>
		<g>
			<path class="st5" d="M59.8,94c-0.4-0.1-0.8-0.2-1.3-0.2c-0.1,0-0.2,0-0.3,0c-0.1,0-0.2,0.1-0.3,0.1c0,0-0.1,0.1-0.1,0.2
				c0,0.1,0.1,0.1,0.2,0.1c0.4,0.1,0.8,0.2,1.3,0.2c0.1,0,0.2,0,0.3,0c0.1,0,0.2-0.1,0.3-0.1c0,0,0.1-0.1,0.1-0.2
				C60,94.1,59.9,94,59.8,94L59.8,94z"/>
		</g>
	</g>
	<g>
		<g>
			<path class="st5" d="M67.1,59.6c0.6,0.7,1.3,1.2,2.2,1.6c0.2,0.1,0.5,0.1,0.6-0.1c0.1-0.1,0.3-0.3,0.1-0.4
				c-0.8-0.4-1.5-0.9-2-1.5c-0.1-0.2-0.4-0.1-0.6,0C67.2,59.3,67,59.5,67.1,59.6L67.1,59.6z"/>
		</g>
	</g>
	<g>
		<g>
			<path class="st5" d="M66.5,65.2c1.5,0.6,2.7,1.6,4.3,2c0.2,0,0.5,0,0.6-0.2c0.1-0.1,0.1-0.3-0.1-0.3c-1.5-0.3-2.7-1.3-4.1-1.9
				c-0.2-0.1-0.5,0-0.6,0.1C66.4,64.9,66.2,65.1,66.5,65.2L66.5,65.2z"/>
		</g>
	</g>
	<g>
		<g>
			<path class="st5" d="M65.7,70.4c0,0,0.1,0,0.1,0C65.8,70.4,65.8,70.4,65.7,70.4c0.1,0,0.2,0,0.3,0c0,0-0.1,0-0.1,0
				c0.1,0,0.3,0.1,0.4,0.2c0,0,0,0-0.1,0c0,0,0.1,0,0.1,0.1c0.1,0.1,0.2,0.1,0.2,0.1c0.1,0,0.2,0,0.4-0.1c0.1,0,0.2-0.1,0.2-0.2
				c0,0,0.1-0.1,0-0.2c-0.3-0.2-0.7-0.3-1.1-0.3c-0.1,0-0.2,0-0.4,0.1c-0.1,0-0.2,0.1-0.2,0.2c0,0.1-0.1,0.1,0,0.2
				C65.5,70.4,65.6,70.4,65.7,70.4L65.7,70.4z"/>
		</g>
	</g>
	<g>
		<g>
			<path class="st5" d="M63.8,73.1C65,74,66.5,74.6,68,75c0.2,0,0.5-0.1,0.6-0.3c0.1-0.2-0.1-0.3-0.3-0.4c-1.4-0.3-2.7-0.9-3.8-1.7
				C64.1,72.4,63.3,72.8,63.8,73.1L63.8,73.1z"/>
		</g>
	</g>
	<g>
		<g>
			<path class="st5" d="M61.4,76.4c0.8,0.2,1.6,0.5,2.4,0.7c0.1,0,0.2,0,0.3,0c0.1,0,0.2-0.1,0.3-0.1c0.1,0,0.3-0.2,0.1-0.2
				c-0.8-0.2-1.6-0.5-2.4-0.7c-0.1,0-0.2,0-0.3,0c-0.1,0-0.2,0.1-0.3,0.1C61.4,76.2,61.2,76.3,61.4,76.4L61.4,76.4z"/>
		</g>
	</g>
	<g>
		<g>
			<path class="st5" d="M61.1,82c1.5,0.4,2.9,1.4,4.5,1.2c0.2,0,0.5-0.1,0.5-0.4c0-0.2-0.2-0.3-0.4-0.3c-1.4,0.2-2.8-0.8-4.1-1.1
				c-0.2-0.1-0.5,0-0.6,0.2C60.9,81.8,60.9,82,61.1,82L61.1,82z"/>
		</g>
	</g>
	<g>
		<g>
			<path class="st5" d="M62.1,86.8c0.3,0,0.5,0,0.8,0c0.1,0,0.2,0,0.4-0.1c0.1,0,0.2-0.1,0.2-0.2c0-0.1,0-0.2,0-0.2
				c-0.1-0.1-0.2-0.1-0.2-0.1c-0.3,0-0.5,0-0.8,0c-0.1,0-0.2,0-0.4,0.1c-0.1,0-0.2,0.1-0.2,0.2c0,0.1,0,0.2,0,0.2
				C61.9,86.8,62,86.8,62.1,86.8L62.1,86.8z"/>
		</g>
	</g>
	<g>
		<g>
			<path class="st5" d="M72.7,87.9c-1.2-0.1-2.5-0.5-3.5-1.1c-0.1-0.1-0.4,0-0.6,0c0,0-0.4,0.2-0.3,0.3c1.1,0.7,2.4,1.1,3.8,1.2
				c0.2,0,0.5-0.1,0.6-0.2C72.9,88,72.9,87.9,72.7,87.9L72.7,87.9z"/>
		</g>
	</g>
	<g>
		<g>
			<path class="st5" d="M71.8,83.9C71.7,83.9,71.7,83.9,71.8,83.9C71.6,83.9,71.8,83.9,71.8,83.9c-0.1,0-0.2,0-0.2,0c0,0,0,0,0,0
				c0,0-0.1,0-0.1,0c-0.1,0-0.1,0-0.2,0c-0.2,0-0.4-0.1-0.6-0.2c-0.4-0.2-0.7-0.4-1-0.7c0,0-0.2,0-0.2,0c-0.1,0-0.2,0-0.4,0.1
				c-0.1,0-0.4,0.1-0.3,0.3c0.6,0.8,1.7,1.1,2.7,0.9c0.1,0,0.2-0.1,0.3-0.1c0,0,0.2-0.1,0.2-0.1C72.2,83.8,71.8,83.9,71.8,83.9
				L71.8,83.9z"/>
		</g>
	</g>
	<g>
		<g>
			<path class="st5" d="M71.8,79.3c-0.9,0.1-2,0.2-2.7-0.6c-0.2-0.3-1.1,0-0.8,0.4c0.8,1.1,2.3,1,3.4,0.8c0.2,0,0.5-0.1,0.5-0.3
				C72.3,79.3,72,79.3,71.8,79.3L71.8,79.3z"/>
		</g>
	</g>
	<g>
		<g>
			<path class="st5" d="M76,75.9c-1.4,0.1-2.8-0.2-4-1.1c-0.2-0.1-0.5-0.1-0.6,0c-0.2,0.1-0.2,0.4,0,0.5c1.3,0.9,3,1.4,4.6,1.2
				c0.2,0,0.5-0.1,0.5-0.4C76.5,76,76.2,75.9,76,75.9L76,75.9z"/>
		</g>
	</g>
	<g>
		<g>
			<path class="st5" d="M77.7,72.9c-0.9,0.1-1.8-0.1-2.6-0.5c-0.2-0.1-0.4,0-0.6,0c0,0-0.4,0.2-0.3,0.3c1,0.5,2,0.6,3.1,0.6
				c0.2,0,0.5-0.1,0.6-0.2C78.1,72.9,77.8,72.9,77.7,72.9L77.7,72.9z"/>
		</g>
	</g>
	<g>
		<g>
			<path class="st5" d="M77.7,69.5c-1.9,0.2-3.7-0.1-5.5-0.7c-0.2-0.1-0.5,0-0.6,0.1c-0.1,0-0.3,0.2-0.1,0.2
				c1.9,0.7,3.9,0.9,5.8,0.7c0.2,0,0.5-0.1,0.6-0.2C78,69.5,77.8,69.5,77.7,69.5L77.7,69.5z"/>
		</g>
	</g>
	<g>
		<g>
			<path class="st5" d="M77.1,64.5c-1.2,0.2-2.5-0.1-3.5-0.7c-0.2-0.1-0.5-0.1-0.6,0c-0.1,0.1-0.2,0.4,0,0.5
				c1.2,0.8,2.7,1.1,4.1,0.9c0.2,0,0.5-0.1,0.5-0.4C77.6,64.6,77.3,64.4,77.1,64.5L77.1,64.5z"/>
		</g>
	</g>
	<g>
		<g>
			<path class="st5" d="M60.2,93.8c1,0.8,2,1.6,3.2,2.1c0.2,0.1,0.5,0.1,0.6-0.1c0.1-0.1,0.3-0.3,0.1-0.4c-1.1-0.5-2.1-1.2-3.1-2
				c-0.2-0.1-0.4-0.1-0.6,0C60.3,93.4,60.1,93.7,60.2,93.8L60.2,93.8z"/>
		</g>
	</g>
	<g>
		<g>
			<path class="st5" d="M58.9,99c0.4,0,0.8,0,1.3,0c0.1,0,0.2,0,0.4-0.1c0.1,0,0.2-0.1,0.2-0.2c0-0.1,0.1-0.1,0-0.2
				c-0.1-0.1-0.2-0.1-0.2-0.1c-0.4,0-0.8,0-1.3,0c-0.1,0-0.2,0-0.4,0.1c-0.1,0-0.2,0.1-0.2,0.2c0,0.1-0.1,0.1,0,0.2
				C58.8,99,58.9,99,58.9,99L58.9,99z"/>
		</g>
	</g>
	<g>
		<g>
			<path class="st5" d="M57.7,104.1c1.2,0.1,2.4,0,3.6-0.3c0.1,0,0.4-0.2,0.4-0.4c0-0.2-0.4-0.1-0.5-0.1c-1,0.2-2.1,0.3-3.1,0.2
				c-0.2,0-0.5,0.1-0.6,0.2C57.3,104,57.5,104.1,57.7,104.1L57.7,104.1z"/>
		</g>
	</g>
	<g>
		<g>
			<path class="st5" d="M70.1,97.9c-1.4,0.1-2.8-0.1-4.1-0.7c-0.2-0.1-0.5,0-0.6,0.1c-0.1,0.1-0.3,0.3-0.1,0.3
				c1.5,0.7,3.1,0.9,4.7,0.8c0.2,0,0.5-0.1,0.5-0.3C70.5,97.8,70.2,97.8,70.1,97.9L70.1,97.9z"/>
		</g>
	</g>
	<g>
		<g>
			<path class="st5" d="M69.3,101.6c-2,0.2-4.2,0-5.7-1.5c-0.3-0.3-1.1,0.1-0.8,0.4c1.7,1.7,4.2,1.9,6.4,1.7c0.2,0,0.5-0.1,0.5-0.3
				C69.7,101.7,69.5,101.6,69.3,101.6L69.3,101.6z"/>
		</g>
	</g>
	<g>
		<g>
			<path class="st5" d="M67.9,106.3C67.9,106.3,67.8,106.3,67.9,106.3C67.7,106.3,67.9,106.3,67.9,106.3c-0.1,0-0.1,0-0.1,0
				c-0.1,0,0,0,0,0c0,0-0.1,0-0.1,0c0,0,0,0-0.1,0c0.1,0,0,0,0,0c-0.2,0-0.4-0.1-0.5-0.2c-0.3-0.2-0.6-0.5-0.7-0.9
				c0-0.1-0.1-0.1-0.2-0.1c-0.1,0-0.2,0-0.3,0c-0.1,0-0.2,0.1-0.3,0.1c0,0-0.1,0.1-0.1,0.1c0.1,0.4,0.4,0.8,0.8,1
				c0.5,0.3,1,0.3,1.5,0.2c0.1,0,0.2-0.1,0.3-0.1c0.1,0,0.2-0.1,0.2-0.2C68.3,106.2,67.9,106.3,67.9,106.3L67.9,106.3z"/>
		</g>
	</g>
	<g>
		<g>
			<path class="st5" d="M81.2,83.7c0.1,0.9,0.5,1.8,1.2,2.4c0.1,0,0.2,0,0.2,0c0.1,0,0.2,0,0.4-0.1c0.1,0,0.4-0.2,0.3-0.3
				c-0.7-0.6-1.1-1.4-1.2-2.3c0-0.1-0.1-0.1-0.2-0.1c-0.1,0-0.2,0-0.3,0C81.5,83.5,81.2,83.5,81.2,83.7L81.2,83.7z"/>
		</g>
	</g>
	<g>
		<g>
			<path class="st5" d="M78.8,88.7c1.2,1.1,2.6,1.9,4.2,2.1c0.2,0,0.5,0,0.6-0.2c0.1-0.1,0.1-0.2-0.1-0.2c-1.5-0.2-2.9-1-3.9-2
				C79.4,88.2,78.6,88.5,78.8,88.7L78.8,88.7z"/>
		</g>
	</g>
	<g>
		<g>
			<path class="st5" d="M76.6,95c0.5,0.4,1,0.7,1.5,1c0.2,0.1,0.5,0.1,0.6-0.1c0.1,0,0.2-0.1,0.2-0.2c0-0.1,0-0.2-0.1-0.2
				c-0.5-0.2-0.9-0.5-1.3-0.8c0,0,0,0,0.1,0c-0.1,0-0.1-0.1-0.2-0.1c-0.2-0.1-0.4-0.1-0.6,0c-0.1,0-0.2,0.1-0.2,0.2
				C76.6,94.8,76.5,94.9,76.6,95L76.6,95z"/>
		</g>
	</g>
	<g>
		<g>
			<path class="st5" d="M74.3,100.5c1.2,0.9,2.6,1.5,4.1,1.5c0.2,0,0.5-0.1,0.6-0.2c0.1-0.2-0.1-0.2-0.2-0.2c-1.3,0-2.6-0.5-3.6-1.4
				c-0.2-0.1-0.4-0.1-0.6,0C74.5,100.2,74.2,100.3,74.3,100.5L74.3,100.5z"/>
		</g>
	</g>
	<g>
		<g>
			<path class="st5" d="M84.5,101c-0.7,0.2-1.6-0.2-2.1-0.7c-0.7-0.5-1.3-1.1-2-1.6c-0.1-0.1-0.4,0-0.6,0c-0.1,0-0.4,0.2-0.3,0.3
				c0.7,0.6,1.5,1.3,2.3,1.8c0.8,0.5,1.8,0.8,2.7,0.5c0.1,0,0.4-0.1,0.4-0.3C85,100.9,84.6,101,84.5,101L84.5,101z"/>
		</g>
	</g>
	<g>
		<g>
			<path class="st5" d="M85.1,95.8c-1.1,0.1-2.3-0.4-3-1.3c-0.2-0.2-1.1,0.1-0.8,0.3c1,1,2.4,1.5,3.7,1.4c0.2,0,0.5-0.1,0.5-0.3
				C85.5,95.8,85.2,95.8,85.1,95.8L85.1,95.8z"/>
		</g>
	</g>
	<g>
		<g>
			<path class="st5" d="M87.2,90c-0.9-0.1-1.7-0.7-2.3-1.5c0-0.1-0.2-0.1-0.2,0c-0.1,0-0.2,0-0.4,0.1c-0.1,0-0.4,0.2-0.3,0.3
				c0.6,0.8,1.5,1.4,2.6,1.5c0.2,0,0.5,0,0.6-0.2C87.4,90.1,87.3,90,87.2,90L87.2,90z"/>
		</g>
	</g>
	<g>
		<g>
			<path class="st5" d="M75.9,109.2c-0.1,0-0.2-0.1-0.3-0.1c0,0-0.1,0-0.1-0.1c0,0-0.1-0.1-0.1-0.1c-0.2-0.1-0.3-0.3-0.4-0.4
				c-0.3-0.3-0.4-0.6-0.5-1c0-0.1-0.1-0.1-0.2-0.1c-0.1,0-0.2,0-0.3,0c-0.1,0-0.2,0.1-0.3,0.1c0,0-0.1,0.1-0.1,0.2
				c0.2,0.8,0.8,1.5,1.6,1.9c0.2,0.1,0.5,0,0.6-0.1C75.9,109.4,76.1,109.3,75.9,109.2L75.9,109.2z"/>
		</g>
	</g>
	<g>
		<g>
			<path class="st5" d="M73.5,104.4c0.7,0.1,1.4,0.4,2,0.6c0.2,0.1,0.5,0,0.6-0.1c0.1-0.1,0.3-0.2,0.1-0.3c-0.7-0.3-1.4-0.5-2.2-0.7
				c-0.1,0-0.2,0-0.3,0c-0.1,0-0.2,0.1-0.3,0.1c0,0-0.1,0.1-0.1,0.2C73.4,104.3,73.5,104.3,73.5,104.4L73.5,104.4z"/>
		</g>
	</g>
	<g>
		<g>
			<path class="st5" d="M79.9,103.9c-0.1,0-0.2,0-0.4-0.1c0.1,0,0.1,0,0,0c0,0,0,0,0,0c0,0-0.1,0-0.1,0c-0.1,0-0.1,0-0.2-0.1
				c0,0-0.1,0-0.1,0c0,0,0,0,0,0c0.1,0,0.1,0,0,0c-0.1,0-0.1-0.1-0.2-0.1c-0.1-0.1-0.2-0.1-0.3-0.2c0,0,0,0,0.1,0.1
				c0,0-0.1-0.1-0.1-0.1c-0.1-0.2-0.4-0.2-0.6-0.1c-0.1,0-0.2,0.1-0.2,0.2c0,0.1,0,0.2,0,0.3c0.4,0.5,1,0.8,1.7,0.8
				c0.1,0,0.2,0,0.4-0.1c0.1,0,0.2-0.1,0.2-0.2c0-0.1,0-0.2,0-0.3C80.1,103.9,80,103.9,79.9,103.9L79.9,103.9z"/>
		</g>
	</g>
	<g>
		<g>
			<path class="st5" d="M49.4,119.5c1.3-0.2,2.7-0.2,4,0.1c0.2,0,0.4,0,0.6-0.1c0.1,0,0.3-0.2,0.1-0.3c-1.5-0.4-3.1-0.4-4.6-0.1
				c-0.1,0-0.5,0.1-0.5,0.3C49,119.6,49.3,119.5,49.4,119.5L49.4,119.5z"/>
		</g>
	</g>
	<g>
		<g>
			<path class="st5" d="M57.4,117.8c-0.5,0-0.9,0-1.4,0c-0.1,0-0.2,0-0.4,0.1c-0.1,0-0.2,0.1-0.2,0.2c-0.1,0.2,0.1,0.2,0.2,0.2
				c0.5,0,0.9,0,1.4,0c0.1,0,0.2,0,0.4-0.1c0.1,0,0.2-0.1,0.2-0.2C57.7,117.8,57.5,117.8,57.4,117.8L57.4,117.8z"/>
		</g>
	</g>
	<g>
		<g>
			<path class="st5" d="M50.7,115c0.6,0,1.2,0,1.9,0c0.2,0,0.5-0.1,0.6-0.2c0.1-0.2-0.1-0.2-0.2-0.2c-0.6,0-1.2,0-1.9,0
				c-0.2,0-0.5,0.1-0.6,0.2C50.3,114.9,50.5,115,50.7,115L50.7,115z"/>
		</g>
	</g>
	<g>
		<g>
			<path class="st5" d="M58,114.4c-0.5,0-1.1,0-1.6,0c-0.1,0-0.2,0-0.4,0.1c-0.1,0-0.2,0.1-0.2,0.2c0,0.1,0,0.2,0,0.2
				c0.1,0.1,0.2,0.1,0.2,0.1c0.5,0,1.1,0,1.6,0c0.1,0,0.2,0,0.4-0.1c0.1,0,0.2-0.1,0.2-0.2c0-0.1,0-0.2,0-0.2
				C58.2,114.4,58.1,114.4,58,114.4L58,114.4z"/>
		</g>
	</g>
	<g>
		<g>
			<path class="st5" d="M53,111.7c0.1,0,0.2,0,0.3,0c0,0,0,0,0,0c0,0,0,0,0.1,0c0,0,0.1,0,0.1,0c0,0,0.1,0,0.1,0c0,0,0.2,0,0.1,0
				c0.1,0,0.2,0,0.3,0c0.1,0,0.2,0,0.3,0.1c0,0,0,0,0,0c0,0,0,0,0.1,0c0,0,0.1,0,0.1,0c0.2,0.1,0.3,0.2,0.5,0.3
				c0.3,0.2,1.1-0.2,0.7-0.4c-0.7-0.5-1.6-0.7-2.4-0.5c-0.2,0-0.5,0.1-0.5,0.3C52.5,111.7,52.8,111.7,53,111.7L53,111.7z"/>
		</g>
	</g>
	<g>
		<g>
			<path class="st5" d="M50.2,117.1c0.2,0,0.3,0,0.5,0c0.1,0,0.1,0,0.2,0c0.1,0,0.1,0,0.2-0.1c0,0,0.1-0.1,0.1-0.1
				c0,0,0-0.1,0.1-0.1c0,0,0-0.1,0-0.1c0-0.1-0.1-0.1-0.1-0.1c0,0-0.1,0-0.1,0c-0.1,0-0.1,0-0.2,0c-0.2,0-0.3,0-0.5,0
				c-0.1,0-0.1,0-0.2,0c-0.1,0-0.1,0-0.2,0.1c0,0-0.1,0.1-0.1,0.1c0,0,0,0.1-0.1,0.1c0,0,0,0.1,0,0.1c0,0.1,0.1,0.1,0.1,0.1
				c0,0,0.1,0,0.1,0C50.1,117.1,50.1,117.1,50.2,117.1L50.2,117.1z"/>
		</g>
	</g>
	<g>
		<g>
			<path class="st5" d="M68.7,119.3c0-0.9,0.3-1.7,0.9-2.3c0.2-0.1-0.1-0.2-0.2-0.2c-0.2,0-0.4,0.1-0.6,0.2c-0.7,0.7-1.1,1.6-1,2.5
				c0,0.1,0.1,0.1,0.2,0.1c0.1,0,0.2,0,0.3,0C68.5,119.5,68.8,119.4,68.7,119.3L68.7,119.3z"/>
		</g>
	</g>
	<g>
		<g>
			<path class="st5" d="M64.7,116.8c-0.2-1.6,1.1-2.7,2.2-3.6c0.1-0.1,0.3-0.3,0.1-0.4c-0.2-0.1-0.5-0.1-0.6,0.1
				c-1.3,1.1-2.7,2.4-2.5,4.2c0,0.2,0.4,0.2,0.5,0.2C64.5,117.2,64.7,117,64.7,116.8L64.7,116.8z"/>
		</g>
	</g>
	<g>
		<g>
			<path class="st5" d="M61.1,114.6c0-0.1,0.1-0.1,0.1-0.2c0,0,0,0,0,0c0,0,0.1-0.1,0.1-0.1c0,0,0,0-0.1,0c0,0,0.1,0,0.1-0.1
				c0,0-0.1,0-0.1,0c0,0,0,0,0.1,0c0,0-0.1,0-0.1,0c0,0,0,0,0.1,0c0,0-0.1,0-0.1,0c0,0,0,0,0.1,0c0,0-0.1,0-0.1,0c0,0,0,0,0,0
				c0.1,0,0.2-0.1,0.3-0.1c0,0,0.1,0,0.1-0.1c0,0,0.1,0,0.1-0.1c0,0,0,0,0,0c0,0,0,0-0.1-0.1c-0.1,0-0.2,0-0.3,0
				c-0.2,0-0.3,0.1-0.5,0.2c-0.1,0-0.2,0.1-0.3,0.2c-0.1,0.1-0.2,0.2-0.3,0.3c0,0.1,0,0.1,0.1,0.1c0,0,0.1,0,0.1,0
				c0.1,0,0.1,0,0.2,0c0.1,0,0.2-0.1,0.3-0.1C60.9,114.7,60.9,114.7,61.1,114.6C61,114.6,61,114.6,61.1,114.6L61.1,114.6z"/>
		</g>
	</g>
	<g>
		<g>
			<path class="st5" d="M59,112.8c-0.1-0.8,0.8-1.3,1.4-1.7c0.8-0.5,1.6-0.8,2.4-1.1c0.1,0,0.4-0.2,0.2-0.4c-0.1-0.2-0.5-0.1-0.6,0
				c-1,0.3-1.9,0.8-2.8,1.3c-0.7,0.4-1.7,1.1-1.5,2.1C58.1,113.3,59,113.1,59,112.8L59,112.8z"/>
		</g>
	</g>
	<g>
		<g>
			<path class="st5" d="M72.4,112.4c-0.8,0.1-1.6,0.5-2,1.2c0,0.1,0,0.1,0.1,0.1c0.1,0,0.2,0,0.3,0c0.2,0,0.4-0.1,0.5-0.3
				c0,0,0,0,0,0c0,0,0,0,0,0c0,0,0,0,0,0c0,0,0,0,0,0c0-0.1,0.1-0.1,0.1-0.2c0,0,0.1-0.1,0.2-0.1c0,0,0,0,0,0c0,0,0,0,0,0
				c0,0,0.1,0,0.1-0.1c0,0,0.1,0,0.1-0.1c0,0,0.1,0,0,0c-0.1,0,0,0,0,0c0,0,0.1,0,0.1,0c0,0,0,0,0.1,0c0,0-0.1,0,0,0
				c0,0,0.1,0,0.1,0c0.1,0,0,0-0.1,0c0,0,0,0,0.1,0c0,0,0.1,0,0.1,0c0,0-0.1,0-0.1,0c0,0,0,0,0.1,0c0.1,0,0.2-0.1,0.3-0.1
				c0.1,0,0.2-0.1,0.2-0.1C72.9,112.4,72.5,112.4,72.4,112.4L72.4,112.4z"/>
		</g>
	</g>
	<g>
		<g>
			<path class="st5" d="M68.2,109.5c-1.5,0.4-2.5,1.5-3.5,2.7c-0.1,0.2,0.1,0.2,0.2,0.2c0.2,0,0.5-0.1,0.6-0.2
				c0.4-0.5,0.8-1,1.3-1.4c0.2-0.2,0.5-0.4,0.7-0.5c0.1-0.1,0.2-0.1,0.4-0.2c0,0,0.1,0,0.1,0c0,0,0.1,0,0.1,0c0,0,0.1,0,0.1,0
				c0,0,0.1,0,0.1,0c0.1,0,0.4-0.1,0.4-0.3C68.6,109.4,68.3,109.5,68.2,109.5L68.2,109.5z"/>
		</g>
	</g>
	<g>
		<g>
			<path class="st5" d="M62.4,106.8c-0.3,0.3-0.6,0.6-0.9,0.9c-0.1,0.1-0.1,0.1-0.1,0.2c0,0.1,0.1,0.1,0.2,0.2
				c0.2,0.1,0.5,0,0.6-0.2c0.3-0.3,0.6-0.6,0.9-0.9c0.1-0.1,0.1-0.1,0.1-0.2c0-0.1-0.1-0.1-0.2-0.2
				C62.9,106.5,62.6,106.6,62.4,106.8L62.4,106.8z"/>
		</g>
	</g>
	<g>
		<g>
			<path class="st5" d="M52.4,77.4C52.5,77.4,52.5,77.4,52.4,77.4C52.5,77.4,52.4,77.4,52.4,77.4c0.1,0,0.1,0,0.1-0.1
				c0.1,0,0.1,0,0.2-0.1c0.1,0,0.2,0,0.2-0.1c0,0,0.1,0,0.1,0c0,0,0,0,0.1,0c-0.1,0-0.1,0,0,0c0.2,0,0.3,0,0.5,0c0.1,0,0.2,0,0.2,0
				c0,0,0.1,0,0,0c0,0,0.1,0,0.1,0c0.2,0,0.5-0.1,0.6-0.3c0.1-0.2-0.1-0.4-0.3-0.4c-0.8-0.1-1.6,0.1-2.3,0.4
				c-0.2,0.1-0.3,0.3-0.2,0.5C52,77.5,52.2,77.5,52.4,77.4L52.4,77.4z"/>
		</g>
	</g>
	<g>
		<g>
			<path class="st5" d="M34.6,82.9c1,0.1,1.9-0.3,2.6-0.9c0.1-0.1,0.1-0.4-0.1-0.4c-0.2-0.1-0.5,0-0.6,0.2c0,0,0,0,0,0c0,0,0,0,0,0
				c0,0-0.1,0.1-0.1,0.1c-0.1,0.1-0.1,0.1-0.2,0.2c0,0,0,0,0,0c0,0,0,0-0.1,0c0,0-0.1,0-0.1,0.1c0,0-0.1,0-0.1,0.1
				c0,0-0.1,0.1-0.1,0c0.1,0-0.1,0-0.1,0c0,0-0.1,0-0.1,0c0,0-0.1,0-0.1,0c-0.1,0,0,0,0,0c0,0,0,0-0.1,0c-0.1,0-0.2,0-0.3,0
				c0,0-0.2,0-0.1,0c0,0-0.1,0-0.1,0c-0.2,0-0.5,0.1-0.6,0.3C34.2,82.8,34.4,82.9,34.6,82.9L34.6,82.9z"/>
		</g>
	</g>
	<g>
		<g>
			<path class="st5" d="M31.5,107.1c0.8-0.3,1.6-0.8,2.3-1.4c0,0,0.1-0.1,0.1-0.2c0-0.1-0.1-0.1-0.2-0.1c-0.2,0-0.5,0-0.6,0.2
				c-0.1,0.1-0.3,0.3-0.4,0.4c-0.1,0.1-0.2,0.1-0.2,0.2c0,0,0,0-0.1,0.1c0,0,0,0,0,0c0,0-0.1,0.1-0.1,0.1c-0.1,0.1-0.2,0.1-0.3,0.2
				c0,0-0.1,0-0.1,0.1c0,0,0,0-0.1,0c0,0-0.1,0,0,0c0.1,0,0,0,0,0c0,0,0,0-0.1,0c0,0-0.1,0-0.1,0.1c-0.1,0-0.2,0.1-0.3,0.1
				c-0.1,0-0.4,0.2-0.2,0.3C31,107.3,31.4,107.2,31.5,107.1L31.5,107.1z"/>
		</g>
	</g>
	<g>
		<g>
			<path class="st5" d="M42.3,113.1c0.2-0.3,0.5-0.6,0.7-0.9c0,0,0-0.1-0.1-0.1c-0.1,0-0.2,0-0.3,0c-0.1,0-0.2,0.1-0.3,0.1
				c-0.1,0-0.1,0.1-0.2,0.1c-0.2,0.3-0.5,0.6-0.7,0.9c0,0,0,0.1,0.1,0.1c0.1,0,0.2,0,0.3,0c0.1,0,0.2-0.1,0.3-0.1
				C42.2,113.2,42.3,113.1,42.3,113.1L42.3,113.1z"/>
		</g>
	</g>
	<g>
		<g>
			<path class="st5" d="M69.1,72.6c0.5,0,1,0,1.5,0c0.1,0,0.2,0,0.4-0.1c0.1,0,0.2-0.1,0.2-0.2c0.1-0.2-0.1-0.2-0.2-0.2
				c-0.5,0-1,0-1.5,0c-0.1,0-0.2,0-0.4,0.1c-0.1,0-0.2,0.1-0.2,0.2C68.8,72.5,69,72.6,69.1,72.6L69.1,72.6z"/>
		</g>
	</g>
	<g>
		<g>
			<path class="st5" d="M81.1,92.8C81.1,92.8,81.2,92.7,81.1,92.8c0.1,0,0.1,0,0.1,0C81.2,92.7,81.2,92.7,81.1,92.8
				c0.1,0,0.1,0,0.2,0c0,0,0,0,0.1,0c0,0,0,0,0,0c0,0,0,0,0,0c0,0,0.1,0,0.1,0c0,0,0.1,0,0.1,0c-0.1,0,0,0,0,0c0,0,0,0,0.1,0
				c0.1,0,0.2,0.1,0.2,0.1c0.1,0,0.2,0,0.3,0c0.1,0,0.2-0.1,0.3-0.1c0.1,0,0.2-0.1,0.2-0.2c0-0.1,0-0.1-0.1-0.1
				c-0.4-0.2-0.9-0.2-1.3-0.2c-0.1,0-0.2,0.1-0.3,0.1c-0.1,0-0.2,0.1-0.2,0.2C80.7,92.8,81,92.8,81.1,92.8L81.1,92.8z"/>
		</g>
	</g>
	<g>
		<g>
			<path class="st5" d="M64.8,86c0.7,0.1,1.4,0.1,2.1,0.1c0.1,0,0.2,0,0.3-0.1c0.1,0,0.2-0.1,0.3-0.1c0.1-0.1-0.1-0.1-0.2-0.1
				c0.1,0,0,0-0.1,0c0,0-0.1,0-0.1,0c-0.1,0-0.2,0-0.2,0c-0.2,0-0.3,0-0.5,0c-0.3,0-0.6,0-0.9-0.1c-0.2,0-0.4,0-0.6,0.1
				C64.8,85.8,64.6,86,64.8,86L64.8,86z"/>
		</g>
	</g>
	<g>
		<g>
			<path class="st5" d="M67.7,115.2c0.4-0.4,0.8-0.9,1.2-1.3c0.1-0.1,0.1-0.2,0.1-0.2c0-0.1-0.1-0.1-0.2-0.2c-0.2-0.1-0.5,0-0.6,0.2
				c-0.4,0.4-0.8,0.9-1.2,1.3c-0.1,0.1-0.1,0.2-0.1,0.2c0,0.1,0.1,0.1,0.2,0.2C67.3,115.4,67.6,115.4,67.7,115.2L67.7,115.2z"/>
		</g>
	</g>
	<g>
		<g>
			<path class="st5" d="M59.5,109.5c0-0.2,0.1-0.4,0.2-0.5c0,0,0,0,0,0.1c0.1-0.1,0.2-0.2,0.3-0.4c0,0,0,0,0,0c0,0,0,0,0,0
				c0,0,0,0,0,0c0,0,0.1,0,0.1-0.1c0,0,0,0,0,0c0.1,0-0.1,0.1,0,0c0,0,0.1,0,0.1-0.1c0.1,0,0.2-0.1,0.2-0.2c0-0.1,0-0.1-0.1-0.1
				c-0.2-0.1-0.5,0-0.6,0.1c-0.5,0.3-1,0.7-1.1,1.3c0,0.2,0.3,0.1,0.4,0.1c0.1,0,0.2-0.1,0.3-0.1C59.3,109.6,59.4,109.6,59.5,109.5
				L59.5,109.5z"/>
		</g>
	</g>
	<g>
		<g>
			<path class="st5" d="M49.2,101.4c0.3-0.1,0.5-0.3,0.8-0.4c0.1-0.1,0.3-0.1,0.4-0.2c0,0,0.1,0,0.1,0c0,0,0.1,0,0.1,0
				c-0.1,0,0,0,0.1,0c0,0,0.1,0,0.1,0c0.1,0,0.2-0.1,0.3-0.2c0.1-0.1,0.1-0.2,0.1-0.2c-0.1-0.2-0.4-0.2-0.5-0.2
				c-0.6,0.2-1.2,0.5-1.8,0.8c-0.1,0-0.2,0.1-0.2,0.2c0,0.1,0,0.2,0,0.2C48.7,101.5,49,101.5,49.2,101.4L49.2,101.4z"/>
		</g>
	</g>
</g>
</svg>
