<?xml version="1.0" encoding="utf-8"?>
<!-- Generator: Adobe Illustrator 26.0.1, SVG Export Plug-In . SVG Version: 6.00 Build 0)  -->
<svg version="1.1" id="Layer_1" xmlns="http://www.w3.org/2000/svg" xmlns:xlink="http://www.w3.org/1999/xlink" x="0px" y="0px"
	 viewBox="0 0 120 140" style="enable-background:new 0 0 120 140;" xml:space="preserve">
<style type="text/css">
	.st0{opacity:0.5;fill:#3488B7;}
	.st1{opacity:0.5;fill:#FFFFFF;}
	.st2{opacity:0.5;fill:#FBB03B;}
	.st3{opacity:0.5;fill:#FFFFFF;stroke:#1B6854;stroke-miterlimit:10;}
	.st4{fill:#2D967D;stroke:#1B6854;stroke-miterlimit:10;}
	.st5{fill:#1B6854;stroke:#1B6854;stroke-miterlimit:10;}
</style>
<g>
	<path class="st0" d="M0,5v130c0,2.8,2.2,5,5,5h110c2.8,0,5-2.2,5-5V5c0-2.8-2.2-5-5-5H5C2.3,0,0,2.2,0,5z"/>
	<path class="st1" d="M0.2,46.7c0-0.6,7.8-1.9,8.4-2c13.1-2.3,26.8-1.7,39.7,0.9c6.1,1.2,12.5,2.2,18.8,1.6c3.3-0.3,6.3-1.2,9.3-2.3
		c3-1.1,6.4-1.7,9.7-2.1c2.9-0.4,5.9-0.5,8.8-0.3c4.3,0.3,8,2.1,12.3,2.4c2.1,0.2,4.1,0.2,6.2,0c0.7-0.1,6.6-0.7,6.6-1.3
		c0,0,0.1,3.2,0.1,3.2c-4.9-0.7-10-1.1-14.9-1.3c-4.6-0.2-9.2-0.2-13.8,0.1c-5,0.3-9.7,1.3-14.6,2c-8.9,1.3-18,1.9-27,2
		c-5.3,0.1-10.5-0.7-15.7-1.2c-4.4-0.4-8.8-0.5-13.2-0.7c-4.1-0.1-8.3-0.2-12.4,0c-2.3,0.1-5.9,0.1-7.8,1.3
		c-0.2,0.1-0.4,0.3-0.5,0.4C0.2,49.4,0.2,46.7,0.2,46.7z"/>
	<path class="st1" d="M0.2,45.6c0-0.6,7.8-1.9,8.4-2c13.1-2.3,26.8-1.7,39.7,0.9c6.1,1.2,12.5,2.2,18.8,1.6c3.3-0.3,6.3-1.2,9.3-2.3
		c3-1.1,6.4-1.7,9.7-2.1c2.9-0.4,5.9-0.5,8.8-0.3c4.3,0.3,8,2.1,12.3,2.4c2.1,0.2,4.1,0.2,6.2,0c0.7-0.1,6.6-0.7,6.6-1.3
		c0,0,0.1,3.2,0.1,3.2c-4.9-0.7-10-1.1-14.9-1.3c-4.6-0.2-9.2-0.2-13.8,0.1c-5,0.3-9.7,1.3-14.6,2c-8.9,1.3-18,1.9-27,2
		c-5.3,0.1-10.5-0.7-15.7-1.2c-4.4-0.4-8.8-0.5-13.2-0.7c-4.1-0.1-8.3-0.2-12.4,0c-2.3,0.1-5.9,0.1-7.8,1.3
		c-0.2,0.1-0.4,0.3-0.5,0.4C0.2,48.3,0.2,45.6,0.2,45.6z"/>
	<path class="st1" d="M120.2,70.9c-1.8,0.4-3.5,0.9-5.1,1.5c-4.5,1.7-9,2.9-14,3.4c-9.6,0.9-19.2-0.6-28.4-2.4
		c-19.5-3.8-40-4.8-59.9-1.3c-0.9,0.2-12.8,2.1-12.7,3.1c0,0,0.1,4.1,0.1,4.1C0.4,79,0.7,78.8,1,78.6c2.9-1.8,8.2-1.8,11.7-2
		c6.2-0.3,12.5-0.2,18.7-0.1c6.6,0.2,13.3,0.4,19.9,1c7.9,0.7,15.7,1.9,23.7,1.8c13.6-0.1,27.3-1.1,40.7-3c1.5-0.2,3.1-0.5,4.6-0.7"
		/>
	<path class="st1" d="M120,69.4c-1.7,0.4-3.3,0.9-4.9,1.5c-4.5,1.7-9,2.9-14,3.4c-9.6,0.9-19.2-0.6-28.4-2.4
		c-19.5-3.8-40-4.8-59.9-1.3c-0.9,0.2-12.8,2.1-12.7,3.1c0,0,0.1,4.1,0.1,4.1c0.2-0.3,0.5-0.4,0.8-0.6c2.9-1.8,8.2-1.8,11.7-2
		c6.2-0.3,12.5-0.2,18.7-0.1c6.6,0.2,13.3,0.4,19.9,1C59.1,76.8,67,78,75,77.9c13.6-0.1,27.3-1.1,40.7-3c1.5-0.2,2.9-0.4,4.4-0.7"/>
	<path class="st1" d="M-0.2,11.1c4,0.5,8,1.2,12,2c9.2,1.8,18.8,3.3,28.4,2.4c5-0.5,9.5-1.7,14-3.4c4.5-1.7,9.7-2.5,14.6-3.2
		c4.4-0.6,8.9-0.8,13.3-0.5c6.5,0.5,12.1,3.1,18.6,3.6c3.1,0.2,6.2,0.3,9.4,0c1.1-0.1,9.9-1.1,9.9-2c0,0,0.1,4.8,0.1,4.8
		c-7.4-1.1-15-1.7-22.6-2c-6.9-0.3-13.9-0.3-20.8,0.1c-7.5,0.5-14.7,2-22,3.1c-13.4,1.9-27.1,2.9-40.7,3c-4.8,0-9.5-0.4-14.2-0.8"/>
	<path class="st1" d="M-0.2,10.3c4,0.5,8,1.2,12,2c9.2,1.8,18.8,3.3,28.4,2.4c5-0.5,9.5-1.7,14-3.4c4.5-1.7,9.7-2.5,14.6-3.2
		c4.4-0.6,8.9-0.8,13.3-0.5c6.5,0.5,12.1,3.1,18.6,3.6c3.1,0.2,6.2,0.3,9.4,0c1.1-0.1,9.9-1.1,9.9-2c0,0,0.1,4.8,0.1,4.8
		c-7.4-1.1-15-1.7-22.6-2c-6.9-0.3-13.9-0.3-20.8,0.1c-7.5,0.5-14.7,2-22,3.1c-13.4,1.9-27.1,2.9-40.7,3c-4.8,0-9.5-0.4-14.2-0.8"/>
	<circle class="st1" cx="14.3" cy="8" r="0.9"/>
	<circle class="st1" cx="16.1" cy="2.2" r="1"/>
	<circle class="st1" cx="22.8" cy="3.2" r="1.9"/>
	<circle class="st1" cx="47.2" cy="44.2" r="0.9"/>
	<circle class="st1" cx="43.1" cy="39.8" r="1"/>
	<circle class="st1" cx="47.3" cy="34.4" r="1.9"/>
	<circle class="st1" cx="87.9" cy="57.6" r="1.1"/>
	<circle class="st1" cx="92.7" cy="62.7" r="1.4"/>
	<circle class="st1" cx="87.1" cy="69.1" r="1.6"/>
	<circle class="st1" cx="41.1" cy="100" r="0.9"/>
	<circle class="st1" cx="37.1" cy="95.4" r="1"/>
	<circle class="st1" cx="41.4" cy="90.2" r="1.9"/>
	<circle class="st1" cx="93.7" cy="112.7" r="1.1"/>
	<circle class="st1" cx="91.3" cy="106.2" r="1.4"/>
	<circle class="st1" cx="98.9" cy="102.4" r="1.6"/>
	<path class="st2" d="M0,124.2c9.6-5.1,19.5-9.3,29.5-12.5c5.6-1.8,11.2-3.3,16.8-3.9c7.7-0.9,15.5,1.3,23.1,2.6
		c3.6,0.6,7.1,1.4,10.6,3c1.7,0.7,3.3,1.7,4.9,2.8c2.3,1.7,3.9,3.4,6.6,3.2c4.8-0.3,9.5-1.3,14.2-1.1c4.7,0.1,10,0.3,14.3,3.8v13
		c0,2.8-2.2,5-5,5H5c-2.8,0-5-2.2-5-5L0,124.2z"/>
</g>
<g>
	<circle class="st3" cx="41" cy="100" r="0.9"/>
	<circle class="st3" cx="37" cy="95.5" r="1"/>
	<ellipse class="st3" cx="41.3" cy="90.3" rx="1.9" ry="1.9"/>
	<path class="st4" d="M53.1,106.2c-0.4-0.6-0.8-1.1-1.2-1.7c-1.8-2.6-3.3-5.6-3.4-8.7c-0.1-5,3.5-9.3,7.2-12.9
		c3.6-3.5,7.7-7.1,9-11.9c1.5-5.4-0.8-11.3,1-16.6c0.8-2.4,2.4-4.4,4-6.4c0.7-0.8,1.5-1.7,2.6-1.9c0.3,0,0.6,0,0.8-0.1
		c0.6-0.3,0.7-1.1,0.3-1.7c-0.4-0.5-1-0.8-1.6-0.9c-3.1-0.7-6.3,0.7-8.2,3.2c-2.1,2.8-2.9,6.3-2.9,9.8c0,1,0,2,0.1,3
		c0.3,2.8,0.9,5.8,0.2,8.5c-0.5,1.9-1.7,3.7-2.8,5.3c-1.5,2.2-2.9,4.3-4.8,6.1c-2.1,1.9-4.6,3.3-6.3,5.5c-2.8,3.5-3.1,8.3-2.5,12.7
		c0.7,5.2,2.6,10.3,5.5,14.7c0.5,0.7,1,1.4,1.8,1.6c1,0.2,2-0.5,2.4-1.4c0.6-1.3,0.5-2.9-0.1-4.2C53.9,107.5,53.5,106.9,53.1,106.2z
		"/>
	<path class="st4" d="M46.8,112.9c2.8,2.1,7,2.4,9.6,0c0,0,5.3-5,1.7-14.7c-0.6-1.9-1-3.9-1.3-5.8c-0.5-3.2-1-7.1,0.8-10
		c2.3-3.8,4.1-8.5,4-13c0-2.1-0.8-7.7-3.6-7.9c-2.4-0.2-1.5,4.2-1.3,5.4c0.2,1.1,0.5,2.1,0.4,3.2c-0.1,2-0.4,4-1.4,5.8
		c-0.8,1.3-1.7,2.4-2.4,3.7c-1.2,2.4-2,5.1-2.2,7.8c-0.2,2.5,0.6,4.9,1.3,7.3c0.4,1.2,0.7,2.5,0.9,3.8c0.2,1.3,0,2.5,0.2,3.8
		c0.3,2.5,0.5,5.1-0.7,7.4C51.7,112.1,49.3,112.5,46.8,112.9z"/>
	<path class="st4" d="M72.4,103.4c0.2,0-1.3-0.5-0.2-0.6c0.6-0.1,1.9-0.9,2-1.5c1.1-3.8,6.9-4.3,8.7-7.9c0.8-1.8,0.7-4.2,2.3-5.3
		c0.8-0.5,1.9-0.6,2.8-0.9s1.9-1.2,1.6-2.1c-0.2-0.6-0.7-0.9-1.3-1.2c-1.9-0.8-4.3-0.1-5.5,1.6c-1.4,1.9-1.5,4.9-3.5,6
		c-2.2,1.3-4.8,2.4-6.2,5.1c-1.3,2.5-1.5,2.8-1.5,5.5c0,0.6-0.8,1.3-0.3,1.5C71.7,103.8,71.1,103.8,72.4,103.4z"/>
	<path class="st4" d="M78,76.2c0.3-0.4,0.9-0.5,1.3-0.7c0.8-0.5,1.4-1.2,2-1.8c0.6-0.6,1.3-1.1,1.9-1.8c1.9-2.5,4.4-4.2,7.2-5.4
		c1.3-0.6,2.7-0.9,3.9-1.5c1.2-0.7,2.1-1.9,3-2.9c1.2-1.3,2.4-2.9,3-4.6c0.4-1.1,0.7-3.9-0.6-4.7c-1.3-0.8-2,1.5-2.3,2.5
		c-1.2,3.7-4.1,8-8.1,8.9c-1.8,0.4-3.2,0.3-4.8,1.3c-2.1,1.2-4,2.9-5.6,4.7c-1.2,1.3-3.9,4.2-3.1,6.2c0.5,1.3-0.4,1.4,0.7,1.1
		C77.4,77.2,77.6,76.7,78,76.2z"/>
	<path class="st4" d="M66.1,85.3c0-0.9,0-1.8,0.1-2.6c0.2-1.3,1.1-2.4,1.3-3.7c0.3-1.4,0.2-3.1,0.2-4.5c0-4.7-3.2-8.6-3.7-13.3
		c-0.1-1.2-0.2-2.5,0.9-3.2c1.8-1,3.1,0.5,3.4,2.1c0,0-0.2,5.3,1.7,8.6c1.9,3.3,1.7,9.7,1.5,12.8S66.6,87.5,66.1,85.3z"/>
	<path class="st4" d="M40.2,78.6c0-0.3,0-0.5,0-0.8c0-0.8-0.1-1.6-0.2-2.4c-0.3-1.7-0.8-3.4-1.6-4.8c-0.9-1.5-2.2-2.8-3.1-4.3
		c-0.7-1.2-1.2-2.4-1.6-3.7c-0.4-1.5-0.2-2.8-0.2-4.3c0-2.4-1.4-4.7-0.8-7.2c0.2-0.8,0.8-2.2,1.7-2.3c2.6-0.3,3,3.5,3.3,5.3
		c0.3,1.6,0.5,3.2,0.6,4.8c0,0.7,0.1,1.5,0,2.2c-0.1,0.7-0.3,1.1-0.1,1.8c0.6,1.7,2.4,3.2,3.3,4.8c1,1.6,1.8,3.5,1.5,5.5
		c-0.1,0.7-1.1,7.8-2.6,6C40.3,79.1,40.2,78.9,40.2,78.6z"/>
	<path class="st4" d="M34.9,92.7c-0.4-0.5-1.5-0.9-2-1.3c-0.7-0.6-1.4-1.3-1.9-2.1c-1.7-2.5-2.5-5.7-2.6-8.7c0-1.7,0-3.5,0-5.2
		c0-2.9,0.5-5.8-1.4-8.3c-0.6-0.8-1.3-1.4-2.2-1.6c-1-0.2-3,0-3.4,1.1c-0.1,0.4-0.1,0.9,0,1.4c0.2,0.8,0.5,1.7,0.9,2.4
		c1.3,2.3,0.3,5.1,0.1,7.7c-0.1,2.6-0.1,5.4,1,7.7c0.8,1.7,2.1,2.8,3.1,4.3c0.9,1.4,1,3.1,1.8,4.4c0,0,4.3,8.2,4.3,8.2s5.3,0,5.3,0
		c-0.9-3.1-1.8-6.2-2.7-9.3C35.2,93.2,35.1,92.9,34.9,92.7C35,92.7,34.9,92.7,34.9,92.7z"/>
	<path class="st4" d="M65.2,109.5c0.8,0.1,2.3-1,2.9-1.3c2.2-1.3,4.1-3.2,4.9-5.7c1.1-3.3,0.1-7.2,2-10.2c0.4-0.6,1-1.2,1.7-1.4
		c0.4-0.1,0.9,0,1.4-0.2s0.8-0.7,0.5-1c-0.1-0.1-0.2-0.2-0.4-0.3c-5.3-2.6-7.9,3.5-7.8,7.6c0,2.6,0,5.5-1.9,7.2
		c-0.9,0.8-2.2,1.2-3.1,2c-0.5,0.5-1.5,2.3-0.6,3C65,109.5,65.1,109.5,65.2,109.5z"/>
	<path class="st4" d="M56.2,114c0,0,0,0.1,0,0.1c3.9-0.6,7.4-3.4,8.9-7c1.8-4.3,0.9-9.4,3.1-13.6c1.2-2.3,3.1-4,4.8-5.9
		c6.8-7.8,8.9-19.3,5.8-29.1c-0.4-1.4-1-2.8-2.2-3.7c-1-0.8-3.1-1.2-4-0.1c-0.4,0.5-0.2,1.4-0.1,2.1c0.1,1.1,0.3,2.1,0.6,3.2
		c0.8,4.2,1.7,8.5,1.4,12.7c-0.3,4.3-2,8.7-5.4,11.3c-1.8,1.4-4,2.2-5.7,3.6c-2.3,1.8-3.7,4.5-4.6,7.2
		C56.4,100.8,56.3,107.4,56.2,114z"/>
	<path class="st4" d="M41,110.8c-1,0.5-3.5-0.1-4.4-0.2c-1.9-0.4-3.7-1.3-4.9-2.9c-1.2-1.8-2.3-3.7-3-5.7c-0.7-2.1-0.9-4.2-3.2-5.3
		c-0.2-0.1-0.4-0.2-0.6-0.3c-0.6-0.4-1.5-1.4-1-2.2c1.4-2.2,4.8,0.6,6.1,1.6c1.1,0.9,2.2,1.9,3.2,3.1c0.8,1,1.1,1.8,1.6,2.9
		c0.4,1,1.6,1.5,2.4,2.2c0.8,0.7,1.7,1.5,2.4,2.3c0.7,0.7,1.4,1.6,1.7,2.5c0.2,0.5,0.4,1.4-0.1,1.8C41.2,110.7,41.1,110.7,41,110.8z
		"/>
	<path class="st4" d="M51.6,110.5c0.3-1.1-3.4-2.5-4-2.7c-0.1-0.1-0.3-0.1-0.4-0.2c-0.2-0.1-0.3-0.3-0.5-0.5c-2-3-3.4-6.5-3.7-10.1
		c-0.5-4.7,1.2-8.6,3.7-12.4c0,0,9-14.2,5.7-22.2c-1.5-3.5-2.6-7.7,1.4-10.2c1.1-0.7,0.2-2.5-0.4-3.1c-1.6-1.6-4.6-1-6.3,0.1
		c-3.9,2.4-1.2,7.6-0.8,11c0.7,5-0.6,10.3-3,14.7c0,0-6.8,11.3-8.1,20.7c-0.8,5.5,2.5,12.2,6.9,15.2
		C44.2,112.3,50.3,114.7,51.6,110.5z"/>
	<circle class="st4" cx="25.2" cy="83.8" r="0.2"/>
	<circle class="st4" cx="28.4" cy="89.2" r="0.4"/>
	<circle class="st4" cx="25.4" cy="77" r="0.5"/>
	<circle class="st4" cx="25.2" cy="72.9" r="0.2"/>
	<circle class="st4" cx="32.6" cy="95.6" r="0.1"/>
	<circle class="st4" cx="25.6" cy="94.7" r="0.2"/>
	<circle class="st4" cx="30.3" cy="101.5" r="0.6"/>
	<circle class="st4" cx="33.1" cy="106.7" r="0.4"/>
	<circle class="st4" cx="32.8" cy="104" r="0.3"/>
	<circle class="st4" cx="43.5" cy="108.8" r="0.5"/>
	<circle class="st4" cx="42.1" cy="101.8" r="0.3"/>
	<circle class="st4" cx="37.5" cy="99.9" r="0.5"/>
	<circle class="st4" cx="38.3" cy="95.3" r="0.4"/>
	<circle class="st4" cx="40.3" cy="92" r="0.2"/>
	<circle class="st4" cx="40.4" cy="85.7" r="0.3"/>
	<circle class="st4" cx="43.9" cy="83.9" r="0.3"/>
	<circle class="st4" cx="46.5" cy="80.7" r="0.3"/>
	<circle class="st4" cx="43.5" cy="80.8" r="0.4"/>
	<circle class="st4" cx="44.7" cy="76.4" r="0.2"/>
	<circle class="st4" cx="48.4" cy="74.5" r="0.3"/>
	<circle class="st4" cx="46.9" cy="72" r="0.1"/>
	<circle class="st4" cx="49.7" cy="68.1" r="0.2"/>
	<circle class="st4" cx="48.4" cy="65.3" r="0.3"/>
	<circle class="st4" cx="50.5" cy="62.4" r="0.1"/>
	<circle class="st4" cx="47.7" cy="59.9" r="0.2"/>
	<circle class="st4" cx="48.9" cy="57.5" r="0.2"/>
	<circle class="st4" cx="47.3" cy="55.8" r="0.2"/>
	<circle class="st4" cx="47.8" cy="51.4" r="0.1"/>
	<circle class="st4" cx="52" cy="49.5" r="0"/>
	<circle class="st5" cx="50.1" cy="52.3" r="0.2"/>
	<circle class="st5" cx="34.1" cy="51.4" r="0.1"/>
	<circle class="st5" cx="35.2" cy="54" r="0.1"/>
	<circle class="st5" cx="35" cy="57.8" r="0.1"/>
	<circle class="st5" cx="38.7" cy="65.7" r="0.1"/>
	<circle class="st5" cx="34.6" cy="62.6" r="0.1"/>
	<circle class="st5" cx="38.7" cy="68.7" r="0.1"/>
	<circle class="st5" cx="41.8" cy="71.9" r="0.1"/>
	<circle class="st5" cx="40.8" cy="75.6" r="0.1"/>
	<circle class="st5" cx="37.6" cy="60.6" r="0.1"/>
	<circle class="st5" cx="48" cy="106.3" r="0.1"/>
	<circle class="st5" cx="51.8" cy="108.9" r="0.2"/>
	<ellipse class="st5" cx="51.5" cy="105.8" rx="0.1" ry="0.3"/>
	<circle class="st5" cx="48" cy="102.5" r="0"/>
	<circle class="st5" cx="46.9" cy="99.8" r="0.1"/>
	<circle class="st5" cx="47.6" cy="93.8" r="0.1"/>
	<circle class="st5" cx="45.3" cy="90.1" r="0.1"/>
	<circle class="st5" cx="48" cy="87.8" r="0"/>
	<circle class="st5" cx="49" cy="84.4" r="0.1"/>
	<circle class="st5" cx="50.3" cy="86.4" r="0.1"/>
	<circle class="st5" cx="51.2" cy="82.2" r="0.2"/>
	<circle class="st5" cx="52.8" cy="88.5" r="0.1"/>
	<circle class="st5" cx="50.9" cy="113.5" r="0.1"/>
	<circle class="st5" cx="52.3" cy="111.9" r="0"/>
	<circle class="st5" cx="54.6" cy="111.1" r="0.2"/>
	<circle class="st5" cx="54.7" cy="108.1" r="0.1"/>
	<circle class="st5" cx="55" cy="104.7" r="0"/>
	<circle class="st5" cx="56.2" cy="100.5" r="0.1"/>
	<circle class="st5" cx="56.8" cy="96.3" r="0.1"/>
	<circle class="st5" cx="53.8" cy="95.3" r="0.1"/>
	<circle class="st5" cx="54.6" cy="92.5" r="0"/>
	<circle class="st5" cx="54.9" cy="86.3" r="0"/>
	<circle class="st5" cx="53.8" cy="83" r="0"/>
	<circle class="st5" cx="57.2" cy="81.4" r="0.1"/>
	<circle class="st5" cx="55.5" cy="77.6" r="0.1"/>
	<circle class="st5" cx="58.1" cy="75.4" r="0.1"/>
	<circle class="st5" cx="60.5" cy="73.4" r="0.1"/>
	<circle class="st5" cx="58" cy="70.6" r="0"/>
	<circle class="st5" cx="59.1" cy="65.3" r="0.1"/>
	<circle class="st5" cx="59.5" cy="68.6" r="0.1"/>
	<circle class="st5" cx="57.3" cy="62.7" r="0"/>
	<circle class="st5" cx="61.5" cy="48.1" r="0"/>
	<circle class="st5" cx="63.4" cy="52.1" r="0"/>
	<circle class="st5" cx="61.7" cy="59.9" r="0"/>
	<circle class="st5" cx="64" cy="66.2" r="0"/>
	<circle class="st5" cx="61.8" cy="63.6" r="0"/>
	<circle class="st5" cx="64.5" cy="55.8" r="0"/>
	<circle class="st5" cx="69.7" cy="46.4" r="0"/>
	<circle class="st5" cx="65.6" cy="45.8" r="0"/>
	<circle class="st5" cx="66.5" cy="49" r="0"/>
	<circle class="st5" cx="71.7" cy="44.3" r="0"/>
	<circle class="st5" cx="63.2" cy="72.1" r="0"/>
	<circle class="st5" cx="61.3" cy="75.8" r="0"/>
	<circle class="st5" cx="62.4" cy="69.6" r="0"/>
	<circle class="st5" cx="64.6" cy="59.9" r="0"/>
	<circle class="st5" cx="67" cy="58.8" r="0"/>
	<circle class="st5" cx="66.6" cy="62.3" r="0"/>
	<circle class="st5" cx="66.5" cy="65.9" r="0"/>
	<circle class="st5" cx="69" cy="68" r="0"/>
	<circle class="st5" cx="68.2" cy="70.9" r="0"/>
	<circle class="st5" cx="69.8" cy="72.2" r="0"/>
	<circle class="st5" cx="68.2" cy="76.3" r="0"/>
	<circle class="st5" cx="70.7" cy="76.5" r="0"/>
	<circle class="st5" cx="69.7" cy="74.9" r="0"/>
	<circle class="st5" cx="67.1" cy="83.6" r="0"/>
	<circle class="st5" cx="69" cy="81.5" r="0"/>
	<circle class="st5" cx="69.1" cy="79.4" r="0"/>
	<circle class="st5" cx="70.7" cy="79.7" r="0"/>
	<circle class="st5" cx="51" cy="71.9" r="0"/>
	<circle class="st5" cx="73.6" cy="56" r="0"/>
	<circle class="st5" cx="78.8" cy="71" r="0"/>
	<circle class="st5" cx="69.8" cy="86.5" r="0"/>
	<circle class="st5" cx="63.2" cy="92" r="0"/>
	<circle class="st5" cx="64.5" cy="100.9" r="0"/>
	<circle class="st5" cx="58.9" cy="103.2" r="0"/>
	<circle class="st5" cx="58.1" cy="112.4" r="0"/>
	<circle class="st5" cx="75.6" cy="63.7" r="0"/>
	<circle class="st5" cx="99.7" cy="56" r="0"/>
	<circle class="st5" cx="89" cy="65.6" r="0"/>
	<circle class="st5" cx="81.5" cy="71" r="0"/>
	<circle class="st5" cx="83.7" cy="67.6" r="0"/>
	<circle class="st5" cx="86.5" cy="66.3" r="0"/>
	<circle class="st5" cx="94.1" cy="63.8" r="0"/>
	<circle class="st5" cx="95.3" cy="60.8" r="0"/>
	<circle class="st5" cx="98.4" cy="58.9" r="0"/>
	<circle class="st5" cx="97.4" cy="57.3" r="0"/>
	<circle class="st5" cx="99" cy="53.6" r="0"/>
	<circle class="st5" cx="85.2" cy="68.6" r="0"/>
	<circle class="st5" cx="76" cy="89.5" r="0"/>
	<circle class="st5" cx="72.2" cy="92.6" r="0"/>
	<circle class="st5" cx="72.9" cy="97" r="0"/>
	<circle class="st5" cx="71.4" cy="100.4" r="0"/>
	<circle class="st5" cx="71.4" cy="104.5" r="0"/>
	<circle class="st5" cx="67.8" cy="106" r="0"/>
	<circle class="st5" cx="66.9" cy="108.1" r="0"/>
	<circle class="st5" cx="71.7" cy="95.1" r="0"/>
	<circle class="st5" cx="74.7" cy="91.5" r="0"/>
	<circle class="st5" cx="74.4" cy="99.2" r="0"/>
	<circle class="st5" cx="76" cy="95.9" r="0"/>
	<circle class="st5" cx="78.8" cy="95.8" r="0"/>
	<circle class="st5" cx="79.1" cy="93" r="0"/>
	<circle class="st5" cx="82" cy="92.9" r="0"/>
	<circle class="st5" cx="82.1" cy="88.9" r="0"/>
	<circle class="st5" cx="85.5" cy="87.1" r="0"/>
	<circle class="st5" cx="84.8" cy="85.1" r="0"/>
	<circle class="st5" cx="87.9" cy="84.8" r="0"/>
	<circle class="st5" cx="88" cy="86.5" r="0"/>
	<circle class="st5" cx="39.4" cy="106.3" r="0"/>
	<circle class="st5" cx="47.5" cy="111" r="0"/>
	<circle class="st5" cx="42.2" cy="99.2" r="0"/>
	<circle class="st5" cx="42.5" cy="88.6" r="0"/>
	<circle class="st5" cx="37.5" cy="89.3" r="0"/>
	<circle class="st5" cx="27.6" cy="80.8" r="0"/>
	<circle class="st5" cx="23.9" cy="80.2" r="0"/>
	<circle class="st5" cx="31.7" cy="91.8" r="0"/>
	<circle class="st5" cx="29.7" cy="93.8" r="0"/>
	<circle class="st5" cx="24.3" cy="66.5" r="0"/>
	<circle class="st5" cx="23.2" cy="69.2" r="0"/>
	<circle class="st5" cx="26.8" cy="69.3" r="0"/>
	<circle class="st5" cx="59.7" cy="110.6" r="0.2"/>
	<circle class="st5" cx="59.1" cy="106.9" r="0.2"/>
	<circle class="st5" cx="63.4" cy="105.1" r="0.2"/>
	<circle class="st5" cx="61.4" cy="99.1" r="0.2"/>
	<circle class="st5" cx="65.7" cy="97.3" r="0.2"/>
	<circle class="st5" cx="61.4" cy="94.7" r="0.2"/>
	<circle class="st5" cx="68" cy="91.2" r="0.2"/>
	<circle class="st5" cx="64.7" cy="89.2" r="0.2"/>
	<circle class="st5" cx="72.4" cy="84.2" r="0.2"/>
	<circle class="st5" cx="75.4" cy="81.7" r="0.2"/>
	<circle class="st5" cx="74.9" cy="76" r="0.2"/>
	<circle class="st5" cx="79.3" cy="67.2" r="0.2"/>
	<circle class="st5" cx="77.4" cy="73.1" r="0.2"/>
	<circle class="st5" cx="75.8" cy="69.4" r="0.2"/>
	<circle class="st5" cx="77" cy="57.8" r="0.2"/>
	<circle class="st5" cx="75.1" cy="60.7" r="0.2"/>
	<circle class="st5" cx="78.6" cy="63.8" r="0.2"/>
</g>
</svg>
