<?xml version="1.0" encoding="utf-8"?>
<!-- Generator: Adobe Illustrator 26.0.1, SVG Export Plug-In . SVG Version: 6.00 Build 0)  -->
<svg version="1.1" id="Layer_1" xmlns="http://www.w3.org/2000/svg" xmlns:xlink="http://www.w3.org/1999/xlink" x="0px" y="0px"
	 viewBox="0 0 120 140" style="enable-background:new 0 0 120 140;" xml:space="preserve">
<style type="text/css">
	.st0{opacity:0.5;fill:#3488B7;}
	.st1{opacity:0.5;fill:#FFFFFF;}
	.st2{opacity:0.5;fill:#FBB03B;}
	.st3{fill:#56473C;stroke:#6D4E39;stroke-width:0.5875;stroke-miterlimit:10;}
	.st4{fill:#6D4E39;stroke:#6D4E39;stroke-width:0.5875;stroke-miterlimit:10;}
	.st5{fill:#7F6B5D;}
</style>
<g>
	<path class="st0" d="M0,5v130c0,2.8,2.2,5,5,5h110c2.8,0,5-2.2,5-5V5c0-2.8-2.2-5-5-5H5C2.3,0,0,2.2,0,5z"/>
	<path class="st1" d="M0.2,46.7c0-0.6,7.8-1.9,8.4-2c13.1-2.3,26.8-1.7,39.7,0.9c6.1,1.2,12.5,2.2,18.8,1.6c3.3-0.3,6.3-1.2,9.3-2.3
		c3-1.1,6.4-1.7,9.7-2.1c2.9-0.4,5.9-0.5,8.8-0.3c4.3,0.3,8,2.1,12.3,2.4c2.1,0.2,4.1,0.2,6.2,0c0.7-0.1,6.6-0.7,6.6-1.3
		c0,0,0.1,3.2,0.1,3.2c-4.9-0.7-10-1.1-14.9-1.3c-4.6-0.2-9.2-0.2-13.8,0.1c-5,0.3-9.7,1.3-14.6,2c-8.9,1.3-18,1.9-27,2
		c-5.3,0.1-10.5-0.7-15.7-1.2c-4.4-0.4-8.8-0.5-13.2-0.7c-4.1-0.1-8.3-0.2-12.4,0c-2.3,0.1-5.9,0.1-7.8,1.3
		c-0.2,0.1-0.4,0.3-0.5,0.4C0.2,49.4,0.2,46.7,0.2,46.7z"/>
	<path class="st1" d="M0.2,45.6c0-0.6,7.8-1.9,8.4-2c13.1-2.3,26.8-1.7,39.7,0.9c6.1,1.2,12.5,2.2,18.8,1.6c3.3-0.3,6.3-1.2,9.3-2.3
		c3-1.1,6.4-1.7,9.7-2.1c2.9-0.4,5.9-0.5,8.8-0.3c4.3,0.3,8,2.1,12.3,2.4c2.1,0.2,4.1,0.2,6.2,0c0.7-0.1,6.6-0.7,6.6-1.3
		c0,0,0.1,3.2,0.1,3.2c-4.9-0.7-10-1.1-14.9-1.3c-4.6-0.2-9.2-0.2-13.8,0.1c-5,0.3-9.7,1.3-14.6,2c-8.9,1.3-18,1.9-27,2
		c-5.3,0.1-10.5-0.7-15.7-1.2c-4.4-0.4-8.8-0.5-13.2-0.7c-4.1-0.1-8.3-0.2-12.4,0c-2.3,0.1-5.9,0.1-7.8,1.3
		c-0.2,0.1-0.4,0.3-0.5,0.4C0.2,48.3,0.2,45.6,0.2,45.6z"/>
	<path class="st1" d="M120.2,70.9c-1.8,0.4-3.5,0.9-5.1,1.5c-4.5,1.7-9,2.9-14,3.4c-9.6,0.9-19.2-0.6-28.4-2.4
		c-19.5-3.8-40-4.8-59.9-1.3c-0.9,0.2-12.8,2.1-12.7,3.1c0,0,0.1,4.1,0.1,4.1C0.4,79,0.7,78.8,1,78.6c2.9-1.8,8.2-1.8,11.7-2
		c6.2-0.3,12.5-0.2,18.7-0.1c6.6,0.2,13.3,0.4,19.9,1c7.9,0.7,15.7,1.9,23.7,1.8c13.6-0.1,27.3-1.1,40.7-3c1.5-0.2,3.1-0.5,4.6-0.7"
		/>
	<path class="st1" d="M120,69.4c-1.7,0.4-3.3,0.9-4.9,1.5c-4.5,1.7-9,2.9-14,3.4c-9.6,0.9-19.2-0.6-28.4-2.4
		c-19.5-3.8-40-4.8-59.9-1.3c-0.9,0.2-12.8,2.1-12.7,3.1c0,0,0.1,4.1,0.1,4.1c0.2-0.3,0.5-0.4,0.8-0.6c2.9-1.8,8.2-1.8,11.7-2
		c6.2-0.3,12.5-0.2,18.7-0.1c6.6,0.2,13.3,0.4,19.9,1C59.1,76.8,67,78,75,77.9c13.6-0.1,27.3-1.1,40.7-3c1.5-0.2,2.9-0.4,4.4-0.7"/>
	<path class="st1" d="M-0.2,11.1c4,0.5,8,1.2,12,2c9.2,1.8,18.8,3.3,28.4,2.4c5-0.5,9.5-1.7,14-3.4c4.5-1.7,9.7-2.5,14.6-3.2
		c4.4-0.6,8.9-0.8,13.3-0.5c6.5,0.5,12.1,3.1,18.6,3.6c3.1,0.2,6.2,0.3,9.4,0c1.1-0.1,9.9-1.1,9.9-2c0,0,0.1,4.8,0.1,4.8
		c-7.4-1.1-15-1.7-22.6-2c-6.9-0.3-13.9-0.3-20.8,0.1c-7.5,0.5-14.7,2-22,3.1c-13.4,1.9-27.1,2.9-40.7,3c-4.8,0-9.5-0.4-14.2-0.8"/>
	<path class="st1" d="M-0.2,10.3c4,0.5,8,1.2,12,2c9.2,1.8,18.8,3.3,28.4,2.4c5-0.5,9.5-1.7,14-3.4c4.5-1.7,9.7-2.5,14.6-3.2
		c4.4-0.6,8.9-0.8,13.3-0.5c6.5,0.5,12.1,3.1,18.6,3.6c3.1,0.2,6.2,0.3,9.4,0c1.1-0.1,9.9-1.1,9.9-2c0,0,0.1,4.8,0.1,4.8
		c-7.4-1.1-15-1.7-22.6-2c-6.9-0.3-13.9-0.3-20.8,0.1c-7.5,0.5-14.7,2-22,3.1c-13.4,1.9-27.1,2.9-40.7,3c-4.8,0-9.5-0.4-14.2-0.8"/>
	<circle class="st1" cx="14.3" cy="8" r="0.9"/>
	<circle class="st1" cx="16.1" cy="2.2" r="1"/>
	<circle class="st1" cx="22.8" cy="3.2" r="1.9"/>
	<circle class="st1" cx="47.2" cy="44.2" r="0.9"/>
	<circle class="st1" cx="43.1" cy="39.8" r="1"/>
	<circle class="st1" cx="47.3" cy="34.4" r="1.9"/>
	<circle class="st1" cx="87.9" cy="57.6" r="1.1"/>
	<circle class="st1" cx="92.7" cy="62.7" r="1.4"/>
	<circle class="st1" cx="87.1" cy="69.1" r="1.6"/>
	<circle class="st1" cx="41.1" cy="100" r="0.9"/>
	<circle class="st1" cx="37.1" cy="95.4" r="1"/>
	<circle class="st1" cx="41.4" cy="90.2" r="1.9"/>
	<circle class="st1" cx="93.7" cy="112.7" r="1.1"/>
	<circle class="st1" cx="91.3" cy="106.2" r="1.4"/>
	<circle class="st1" cx="98.9" cy="102.4" r="1.6"/>
	<path class="st2" d="M0,124.2c9.6-5.1,19.5-9.3,29.5-12.5c5.6-1.8,11.2-3.3,16.8-3.9c7.7-0.9,15.5,1.3,23.1,2.6
		c3.6,0.6,7.1,1.4,10.6,3c1.7,0.7,3.3,1.7,4.9,2.8c2.3,1.7,3.9,3.4,6.6,3.2c4.8-0.3,9.5-1.3,14.2-1.1c4.7,0.1,10,0.3,14.3,3.8v13
		c0,2.8-2.2,5-5,5H5c-2.8,0-5-2.2-5-5L0,124.2z"/>
</g>
<g>
	<path class="st3" d="M107.9,78.8c0,0-12.8,1.7-23.7,10.1c0,0-14.7,12-38.1,5.3c0,0-16.6-5.4-25.4,8.1L16,106l14.1,10.6
		c0,0,36.5,2.7,44.9-5.4C74.9,111.1,96.5,98,107.9,78.8z"/>
	<path class="st4" d="M69.6,74.4c1.7-0.7,3.4-1.4,5.1-1.9c4.5-1.4,9.1-2.6,13.7-3.4c5.2-0.9,10.7-0.5,15.9,0.7
		c5.7,1.2,0,2.9-2.9,3.5c0,0-14.1,3.4-21.3,9.2c0,0-12.6,6.5-27.1,3.5c0,0-15.3-3.7-31.5,3.7c5.8-2.7,11.8-5.1,17.9-6.9
		c5.4-1.6,11-2.1,16.4-3.3C60.8,78.5,65.2,76.3,69.6,74.4z"/>
	<path class="st4" d="M107.9,78.8C104,83.5,100,88,95.8,92.4c-6.2,6.6-12.9,14.2-20.9,18.7c-1.4,0.8-2.9,1.6-4.5,1.6
		c2.8-1.8,4.8-4.9,6.9-7.4c2.4-2.7,4.4-5.7,6.3-8.7c2.5-4.1,4.8-9,8.9-11.9C96.4,81.9,103,79.5,107.9,78.8z"/>
	<path class="st4" d="M67,113.6c-0.6,0.4-1.2,0.7-1.9,1c-3.8,1.6-13.7,2.5-15.4-1.9c-0.9-2.3-0.7-5.4-0.8-7.8
		c-0.1-1.9-1.2-7.3,0.6-8.6c1-0.7,4.2,0.1,5.4,0.1c2.1,0,4.1,0,6.2-0.2c4.1-0.4,8.2-1.2,12.2-2.4c1.5-0.5,10.7-3.1,10.9-4.8
		c-0.9,7-5.7,12.7-10.3,18C71.8,109.4,69.7,111.9,67,113.6z"/>
	<path class="st4" d="M16,106c0,0,3.4-1,14.1,10.6l4.6-0.7c0,0-8.7-16.3-12.1-16.1C22.5,99.8,18.4,105.8,16,106z"/>
	<path class="st4" d="M49.7,114.4c-3,1.6-7.1,2-10.5,1.8c-1-0.1-2-0.2-2.9-0.7c-0.9-0.5-1.5-1.4-2.1-2.3c-3-4.4-5.7-9-8.3-13.6
		c-0.2-0.3-0.4-0.7-0.4-1.1c0-0.5,0.3-0.9,0.6-1.3c2-2.6,5.3-3.8,8.6-4c3.5-0.2,11.1,0.2,11.2,4.7c0.1,2.8,0.2,5.6,0.8,8.3
		C47.3,109.2,49.1,111.7,49.7,114.4z"/>
	<g>
		<path class="st5" d="M21.6,89.8c0,0-17.4,8.3-9.9,15.3c0,0,3.6,5,10.8-5.2c0,0,3.9-6.1,16.1-6.4c0,0,10.8,1,19.4,2.6
			c0,0,10.6,2.4,23.4-5.6c6.3-4.1,13.1-7.6,20.3-9.9c4.6-1.5,14.8-1.7,15.6-8c1.2-9.5-19.3-3.3-23.2-3.8c0,0,22.9,2.7,7.3,4.7
			c-3.6,1.1-7.3,2.3-10.8,3.7c-6.5,2.5-12,6.6-18.7,8.5c-8.3,2.3-15.5,0.6-23.8,0C39.2,84.9,29.8,86,21.6,89.8z"/>
		<path class="st5" d="M21.6,89.8c-4.3,2.3-13.4,7.3-11.4,13.1c0.9,1.9,2.8,3.9,5.1,3.2c4-1.1,5.9-5.1,8.6-7.9c2-1.8,4.4-3,7-3.7
			c2.5-0.8,5.2-1.1,7.8-1.2c5.8,0.6,11.6,1.3,17.4,2.2c8,1.8,16.4-0.2,23.5-4.2c4-2.4,7.9-5,12.1-7c4.2-2,8.6-4,13.1-4.9
			c4.2-1,9.8-1.4,12-5.6c0.9-2,0.4-4.7-1.9-5.5c-4.3-1.6-9.2-0.6-13.7-0.1c-2.1,0.3-4.9,0.9-7,0.8c0,0,0.1-0.4,0.1-0.4
			c1.8,0.3,13.6,1.5,12.9,3.5c-0.2,0.3-0.5,0.5-0.8,0.6c-1.5,0.5-3.3,0.8-4.7,0.9c0,0-9.8,3.3-9.8,3.3c-6.6,2.2-12.3,6.5-18.9,8.5
			c-6.7,2.1-13.8,1.3-20.6,0.6C41.9,84.8,31.1,85.5,21.6,89.8L21.6,89.8z M21.6,89.8c6.3-2.9,13.3-4.2,20.2-4.4
			c6.9-0.3,13.8,1.1,20.7,1.2c3.5,0,6.9-0.4,10.2-1.4c6.6-2,12.3-6.3,18.9-8.6c0,0,9.8-3.4,9.8-3.4c1.6-0.2,3.2-0.4,4.7-0.9
			c0.3-0.1,0.7-0.4,0.6-0.5c-0.7-0.8-2.1-0.9-3.1-1.2c-3.1-0.7-6.3-1.2-9.4-1.6c0,0,0.1-0.4,0.1-0.4c1.1,0.1,2.3-0.1,3.4-0.3
			c3.3-0.5,7.1-1.1,10.4-1.3c3.3-0.1,8.2-0.3,9.5,3.5c1.1,3.9-2.4,6.9-5.8,7.9c-4.5,1.5-9.1,1.8-13.5,3.7c-6.6,2.4-12.6,6-18.6,9.7
			c-7.1,4-15.7,5.9-23.7,4.1c-5.7-0.9-11.6-1.7-17.3-2.3C33.5,93.7,28,94.9,24,98.4c-1.9,1.8-3.2,4.2-5.2,5.9
			c-3.3,2.9-6.6,2.9-8.6-1.4C8.1,97.1,17.4,92,21.6,89.8L21.6,89.8z"/>
	</g>
</g>
</svg>
