<?xml version="1.0" encoding="utf-8"?>
<!-- Generator: Adobe Illustrator 26.0.1, SVG Export Plug-In . SVG Version: 6.00 Build 0)  -->
<svg version="1.1" id="buttons" xmlns="http://www.w3.org/2000/svg" xmlns:xlink="http://www.w3.org/1999/xlink" x="0px" y="0px"
	 viewBox="0 0 600 400" style="enable-background:new 0 0 600 400;" xml:space="preserve">
<style type="text/css">
	.st0{fill:#754D25;stroke:#754D25;stroke-miterlimit:10;}
	.st1{fill:#8C6239;}
	.st2{fill:none;stroke:#754C24;stroke-width:0.7728;stroke-miterlimit:10;}
	.st3{fill:#754D25;stroke:#754C24;stroke-width:0.7728;stroke-miterlimit:10;}
	.st4{fill:#754C24;}
	.st5{fill:#A67C52;}
	.btns {
    cursor: pointer;
}
</style>
<g id="stick">
	<path class="st0" d="M289.4,393.1c-1.8,0-3.2-1.4-3.2-3.2v-5.8c0-4,0-8,0-12s0-8,0-12c-0.7-10.5-1.4-21.1-2-31.6
		c-0.2-3.5-0.4-7-0.5-10.5C284,297,284,276,287,255c1-11-2-23-0.8-34.4c0-2.3,0-4.5,0-6.8c0-4.5,0-9.1,0-13.6c0-11.4,0-22.9,0-34.3
		c0-7.8,0-15.6,0-23.4c0-2.7-1.2-7.3,1.3-8.7c1.5-0.9,3.7-1.3,5.5-1.6c2.9-0.5,5.9-0.7,8.9-0.5c2.1,0.2,4.3,0.5,6.4,0.9
		c3.9,0.7,5.6,1,5.5,5.2c0,1.1,0,2.2,0,3.3c0,3.1,0,6.3,0,9.4c0,9.5,0,18.9,0,28.4c0,10.4,0,20.9,0,31.3c0,2.1,0,4.2,0,6.3
		c1.2,31.5,0.2,64.5-1.7,96.4c0,3,0,6,0.1,8.9c0.2,8.9,0.7,17.8,1.6,26.7c0,2.6,0,5.1,0,7.7c0,5.1,0,10.3,0,15.4
		c0,6.1,0,12.2,0,18.3l0,0c0,1.8-1.4,3.2-3.2,3.2H289.4z"/>
	<g>
		<g>
			<path class="st1" d="M288.8,374.8c1.3-3.9,2.2-8,2.9-12c0.3-2.1,0.6-4.1,0.7-6.2c0.1-1,0-2.2,0.3-3.2c0.2-1,0.5-2,0.6-3.1
				c1.1-7.7-1.4-15-3.8-22.2c-1.4-4.2-2.7-8.5-3.1-13c-0.2-1.9-3.2-1.9-3,0c0.7,7.7,3.8,14.7,5.8,22.1c0.9,3.6,1.6,7.3,1.3,11
				c-0.1,2-0.8,4-0.9,6c-0.1,2.1-0.3,4.2-0.6,6.3c-0.6,4.6-1.7,9.1-3.1,13.5C285.3,375.9,288.2,376.7,288.8,374.8L288.8,374.8z"/>
		</g>
	</g>
	<g>
		<g>
			<path class="st1" d="M284.5,295.7c2.2,6.2,5.3,11.9,7.5,18.1c1.1,3,1.6,6.1,2.6,9.1c1,3.3,2,6.7,2.9,10.1c0.8,3.3,1.6,6.6,2.2,10
				c0.6,3.4,1.4,6.9,1.5,10.3c0,1.5-0.1,3.1-0.4,4.6c-0.4,1.6-1.1,3.1-1.4,4.7c-0.5,3.1,0.9,6.3,0.3,9.4c-0.3,1.7-1.3,3.1-2.2,4.5
				c-1.1,1.6-2.2,3.2-3.3,4.8c-2.4,3.4-4.7,6.8-7.1,10.2c-1.1,1.6,1.5,3.1,2.6,1.5c2.2-3.1,4.3-6.2,6.5-9.3c1.9-2.7,4.2-5.4,5.6-8.5
				c0.6-1.3,1-2.6,1-4c0.1-1.8-0.3-3.5-0.5-5.2c-0.3-3.3,1.4-6.1,1.8-9.4c0.4-3.4-0.1-6.7-0.7-10c-0.6-3.6-1.3-7.2-2.1-10.8
				c-0.8-3.5-1.7-7-2.8-10.5c-0.4-1.5-1-3-1.4-4.5c-0.5-1.7-0.7-3.4-1.2-5.1c-2.1-7.2-5.9-13.7-8.4-20.8
				C286.8,293,283.9,293.8,284.5,295.7L284.5,295.7z"/>
		</g>
	</g>
	<g>
		<g>
			<path class="st1" d="M310.2,217.3c-1.4,3-2.6,5.8-3,9.1c-0.4,2.9-0.3,5.8,0.1,8.8c0.7,6.1,2.4,12,2.7,18.1c0.1,1.9,3.1,1.9,3,0
				c-0.3-5.8-1.7-11.5-2.6-17.2c-0.4-2.8-0.6-5.6-0.3-8.3c0.3-3.2,1.3-6,2.7-8.9C313.6,217.1,311,215.5,310.2,217.3L310.2,217.3z"/>
		</g>
	</g>
	<g>
		<g>
			<path class="st1" d="M310.7,204.6c-2.7,3.7-5.4,7.5-8.2,11.2c-0.6,0.8-1.5,1.7-1.8,2.7c-0.2,1-0.2,2.1-0.2,3.1
				c-0.1,2.2-0.1,4.3-0.1,6.5c0.2,8.4,1.5,16.7,4.1,24.7c1.5,4.6,3.3,9.1,5.5,13.4c0.9,1.7,3.5,0.2,2.6-1.5
				c-3.6-7.2-6.2-14.9-7.7-22.8c-0.7-4-1.2-8-1.4-12c-0.1-2-0.1-4-0.1-6.1c0-1,0.1-2,0.1-2.9c0-0.5,0-1.1,0.1-1.6
				c0.1-0.4,0.4-0.7,0.7-1.1c3-4.1,5.9-8.1,8.9-12.2C314.5,204.6,311.9,203.1,310.7,204.6L310.7,204.6z"/>
		</g>
	</g>
	<g>
		<g>
			<path class="st1" d="M289.9,193.7c1.5-7.3,3.2-14.6,4.6-22c0.7-3.4,0.9-6.7-0.3-10.1c-1.2-3.3-2.7-6.5-4.1-9.8
				c-0.8-1.8-3.3-0.2-2.6,1.5c1.3,3,2.7,6,3.8,9c1.2,3.4,0.8,6.5,0,9.9c-1.4,6.9-2.9,13.7-4.4,20.6
				C286.7,194.8,289.5,195.6,289.9,193.7L289.9,193.7z"/>
		</g>
	</g>
	<g>
		<g>
			<path class="st1" d="M287.2,142.6c0.5,3.8,3.3,6.6,5.5,9.6c2.5,3.3,3.6,7.2,4.2,11.2c0.7,4.4,1.1,9,0.9,13.4
				c-0.2,4.6-1.8,8.9-3.5,13.2c-1.9,5-4.1,9.9-6.5,14.7c-0.9,1.7,1.7,3.2,2.6,1.5c2.1-4.3,4.1-8.7,5.9-13.2
				c1.8-4.4,3.6-8.9,4.2-13.6c0.6-4.6,0.1-9.4-0.5-14c-0.5-4.3-1.3-8.6-3.4-12.4c-2.1-3.8-6.1-6.7-6.7-11.2c-0.1-0.8-1.1-1.2-1.8-1
				C287.4,141,287.1,141.8,287.2,142.6L287.2,142.6z"/>
		</g>
	</g>
	<g>
		<g>
			<path class="st1" d="M308.8,285c-2.5,6.4-5.1,13.6-1,19.9c1,1.6,3.6,0.1,2.6-1.5c-3.6-5.6-0.8-12,1.3-17.6c0.3-0.8-0.3-1.6-1-1.8
				C309.7,283.7,309,284.2,308.8,285L308.8,285z"/>
		</g>
	</g>
	<g>
		<g>
			<path class="st1" d="M311.3,276.1c-3.2,1-6.2,2.7-8.3,5.4c-1.9,2.4-2.9,5.3-3.3,8.3c-0.9,6.7,0.9,13.6,3.4,19.7
				c1.3,3.3,2.9,6.5,4.8,9.5c1,1.6,3.6,0.1,2.6-1.5c-3.2-5-5.6-10.6-7-16.3c-1.3-5.3-1.9-11.7,1-16.6c1.7-2.8,4.4-4.6,7.5-5.6
				C313.9,278.4,313.1,275.5,311.3,276.1L311.3,276.1z"/>
		</g>
	</g>
	<g>
		<g>
			<path class="st1" d="M289.9,259.2c3.4-7.6,3.7-16,0.7-23.8c-0.7-1.8-3.6-1-2.9,0.8c2.6,7,2.6,14.6-0.4,21.5
				C286.6,259.4,289.2,261,289.9,259.2L289.9,259.2z"/>
		</g>
	</g>
	<g>
		<g>
			<path class="st1" d="M303.5,133.7c-1.1,2.8,1.6,5,3.3,6.7c1.8,1.8,2.6,4.3,2.3,6.7c-0.1,0.8,0.7,1.5,1.5,1.5
				c0.9,0,1.4-0.7,1.5-1.5c0.3-2.7-0.5-5.5-2.2-7.6c-0.8-1-1.8-1.9-2.7-2.8c-0.4-0.4-0.7-0.8-1-1.3c0.1,0.1-0.1-0.2-0.1-0.2
				c0,0-0.1-0.4,0-0.2c0-0.2,0-0.3,0.1-0.6c0.3-0.7-0.3-1.6-1-1.8C304.5,132.5,303.8,133,303.5,133.7L303.5,133.7z"/>
		</g>
	</g>
	<g>
		<g>
			<path class="st1" d="M296.4,135.5c0.6,1,1.3,1.9,2.1,2.8c0.7,0.9,1.3,1.8,1.8,2.8c1.1,2.1,1.7,4.3,2.5,6.5
				c1.5,3.8,3.8,7.5,7.9,8.9c1.8,0.6,2.6-2.3,0.8-2.9c-3.6-1.2-5.2-5.2-6.4-8.4c-0.7-2-1.4-4-2.4-5.9c-0.5-0.9-1.1-1.8-1.7-2.6
				c-0.7-0.9-1.5-1.7-2.1-2.7C298.1,132.3,295.5,133.8,296.4,135.5L296.4,135.5z"/>
		</g>
	</g>
	<path class="st2" d="M287.2,135.2c0,1.4,2.8,2.1,4.1,2.6c1.7,0.6,3.5,1,5.2,1.2c3,0.4,6,0.2,8.9-0.4c1.5-0.3,6.9-0.8,7.4-2.6
		c0.8-3.3-10.9-3.9-12.8-4c-2.4-0.1-4.9-0.1-7.3,0.4c-1.4,0.3-4,0.7-5,1.8C287.3,134.6,287.2,134.9,287.2,135.2z"/>
</g>
<g id="deckA" class="btns">
	<g>
		<path class="st3" d="M141.5,141.7c12.4-0.4,24.9,0.3,37.6,0.8c3.2,0.1,6.3,0.2,9.5,0.3c30.4,1.2,60.4,1.2,90.5-0.3
			c4.5,0,7.1-0.1,7.1-0.1v41c0,0-2.6,0-7.1,0c-30.1,1.6-60.1-0.4-90.6,0.2c-3.2,0-6.5,0.1-9.7,0c-25.8-0.2-51-3-71.8-20.6
			c8-6,17-11,25.5-16C137.7,143.9,141.5,141.7,141.5,141.7z"/>
		<g>
			<g>
				<path class="st1" d="M123.5,170.6c8.2,1,14.5,7.2,21.3,11.4c1.6,1,3.1-1.6,1.5-2.6c-7.3-4.6-13.8-10.8-22.8-11.8
					c-0.8-0.1-1.5,0.8-1.5,1.5C121.9,170,122.6,170.5,123.5,170.6L123.5,170.6z"/>
			</g>
		</g>
		<g>
			<g>
				<path class="st1" d="M116.1,167.7c3.3-1.1,6.8-1.6,10.3-1.1c3.1,0.4,6,1.6,8.7,3.1c5.7,3.1,10.5,7.5,15.7,11.2
					c1.6,1.1,3.1-1.5,1.5-2.6c-5.5-4-10.5-8.6-16.6-11.7c-6.5-3.3-13.5-4.1-20.4-1.7C113.5,165.4,114.3,168.3,116.1,167.7
					L116.1,167.7z"/>
			</g>
		</g>
		<g>
			<g>
				<path class="st1" d="M173.1,181.6c4-3.6,10-4.7,15.3-4.2c5.4,0.5,10.3,2.9,14.8,5.7c1.6,1,3.1-1.6,1.5-2.6
					c-5.1-3.2-10.7-5.7-16.8-6.2c-6-0.4-12.4,1-16.9,5.1C169.5,180.7,171.7,182.8,173.1,181.6L173.1,181.6z"/>
			</g>
		</g>
		<g>
			<g>
				<path class="st1" d="M165.2,181c3.4-5.5,9.7-8.5,15.9-9.5c6.2-1,12.8,0.2,17.9,3.8c2.9,2,5,4.8,6.5,7.9c0.8,1.7,3.4,0.2,2.6-1.5
					c-6.5-13.8-24.2-16.8-36.9-10.1c-3.5,1.8-6.6,4.5-8.7,7.9C161.6,181.1,164.2,182.6,165.2,181L165.2,181z"/>
			</g>
		</g>
		<g>
			<g>
				<path class="st1" d="M150.5,144c4.9,3.3,10.6,4.9,16.5,4.8c5.9-0.1,11.8-1.6,17.6-2.7c1.9-0.4,1.1-3.3-0.8-2.9
					c-5.4,1-10.9,2.4-16.4,2.6c-5.6,0.2-10.7-1.3-15.4-4.4C150.4,140.3,148.9,142.9,150.5,144L150.5,144z"/>
			</g>
		</g>
		<g>
			<g>
				<path class="st1" d="M142.7,144.5c4.5,5.2,10.5,9,17.3,10.4c6.6,1.3,13.5,0.5,19.9-1.6c4.4-1.4,8.6-3.4,12.6-5.7
					c1.7-1,0.2-3.6-1.5-2.6c-7.6,4.5-16.3,7.8-25.3,7.5c-8.2-0.2-15.5-3.9-20.9-10.1C143.5,140.9,141.4,143,142.7,144.5L142.7,144.5
					z"/>
			</g>
		</g>
		<g>
			<g>
				<path class="st1" d="M225.4,146.9c3.4,4.4,8.2,6.9,13.8,6.3c5-0.5,9.6-2.9,13.8-5.5c1.6-1,0.1-3.6-1.5-2.6
					c-3.6,2.3-7.5,4.3-11.8,5c-4.7,0.7-8.9-1-11.7-4.8C226.8,143.9,224.2,145.4,225.4,146.9L225.4,146.9z"/>
			</g>
		</g>
		<g>
			<g>
				<path class="st1" d="M215,147c5.5,5.5,12.5,9.4,20.2,10.5c7.5,1,15.1-0.5,21.8-3.8c4.2-2.1,8-4.8,11.4-7.9
					c1.4-1.3-0.7-3.4-2.1-2.1c-10.4,9.6-25.6,14.7-39,8.5c-3.8-1.8-7.2-4.3-10.2-7.2C215.8,143.5,213.7,145.6,215,147L215,147z"/>
			</g>
		</g>
		<g>
			<g>
				<path class="st1" d="M264.5,183.4c7.9-3,14-8.8,20.1-14.5c1.4-1.3-0.7-3.4-2.1-2.1c-5.7,5.3-11.4,10.9-18.8,13.7
					C261.9,181.2,262.7,184.1,264.5,183.4L264.5,183.4z"/>
			</g>
		</g>
		<g>
			<g>
				<path class="st1" d="M254.2,183.1c8.5-8.6,18.4-15.7,29.7-20.1c1.8-0.7,1-3.6-0.8-2.9c-11.8,4.6-22.1,11.9-31,20.8
					C250.7,182.3,252.8,184.4,254.2,183.1L254.2,183.1z"/>
			</g>
		</g>
		<g>
			<g>
				<path class="st1" d="M238.6,183.6c12.8-12.8,28.5-22.4,45-29.5c1.8-0.8,0.2-3.3-1.5-2.6c-16.8,7.2-32.6,17.1-45.6,30
					C235.1,182.8,237.2,185,238.6,183.6L238.6,183.6z"/>
			</g>
		</g>
	</g>
	<g>
		<g>
			<path class="st4" d="M147.7,171.8c-3.2-0.4-7.4-2.5-8.6-5.5c-0.7-1.6-0.5-3.2,0.6-4.6c0.4-0.6,0.8-1,1.3-1.2
				c-0.6-0.4-1-1-1.4-1.7c-0.1-0.1-0.1-0.3-0.1-0.4v-5c0-0.2,0-0.3,0.1-0.4c1.6-3.2,4.4-3.7,7-3.7c0.6,0,1.3,0,1.9,0.1
				c0.7,0,1.3,0.1,2,0.1c0.1,0,0.2,0,0.3,0.1c2.2,0.7,4.7,2.6,5.2,4.7c0.2,1,0,2.1-0.8,2.9c-0.5,0.7-1,1.2-1.5,1.5
				c1.1,0.5,2,1.2,2.6,2.4c0,0.1,0.1,0.1,0.1,0.2c0.7,2.7,0.4,5.2-0.7,7c-1,1.7-2.7,2.8-5.1,3.3c-1,0.2-1.9,0.4-2.9,0.4c0,0,0,0,0,0
				C147.8,171.9,147.7,171.9,147.7,171.8z M145.8,165.1c0.5,0,1.1,0.1,1.7,0.1c0.5,0.1,1.1,0.1,1.5,0.1c0.7,0,0.9-0.1,0.9-0.1
				c0,0,0.2-0.3-0.3-1.5c-0.3-0.9-1.8-1.2-3.5-1.4c-0.6-0.1-1.2-0.2-1.8-0.3c0.5,0.9,0.9,2.1,1.1,3.2
				C145.5,165.1,145.7,165.1,145.8,165.1z M146.4,155.8c0,0.1,0.1,0.2,0.1,0.2c0.3,0.8,1.8,1.1,3.4,1.4c0,0,0.1,0,0.1,0
				c-0.4-0.5-0.8-1.1-1.1-1.9c-0.4,0.1-0.8,0.1-1.1,0.1c-0.3,0-0.7,0-1,0c-0.2,0-0.4,0-0.5,0C146.3,155.7,146.3,155.7,146.4,155.8z"
				/>
			<path class="st4" d="M147.8,170.9c-4.3-0.5-10.3-4.5-7.3-8.5c2-3,4,1,4,4c2-1,8,2,6-3c-1-3-8-1-10-5c0-1,0-3,0-5c2-4,6-3,10-3
				c3,1,6,4,4,6c-2,3-4,1-5-2c-2,1-6-1-4,2c1,3,8,1,10,5c1,4,0,8-5,9.1C149.6,170.7,148.7,170.8,147.8,170.9z"/>
			<path class="st4" d="M148.1,170.7c-2.1,0-4.2-0.5-6-1.4c-0.1,0-0.2-0.1-0.3-0.2c-1.1-1.1-2.3-3.4-2.3-5.7c0-0.3,0.2-0.7,0.5-0.9
				c0.2-0.1,0.3-0.1,0.5-0.1c0.2,0,0.3,0,0.4,0.1c1.2,0.6,2.4,1.5,3.5,2.4c1.5,1.2,3.1,2.4,4.3,2.4c0.4,0,1.1-0.2,1.9-1.5
				c0.4-0.8,0.5-1.5,0.3-1.9c-0.4-0.9-2.2-1.3-3.9-1.8c-2.3-0.6-4.9-1.3-6.3-3.2c-0.1-0.1-0.1-0.2-0.1-0.3c-1.1-3.4,0.9-7,4.6-8.3
				c0.8-0.2,1.6-0.3,2.4-0.3c3.8,0,7,2.4,7.9,6c0.1,0.3,0,0.6-0.2,0.9s-0.5,0.4-0.8,0.4c-0.9,0-1.9,0-2.5,0.1c0,0-0.1,0-0.1,0
				c-0.2,0-0.4-0.1-0.6-0.2c-0.2-0.2-0.4-0.4-0.4-0.7c-0.1-0.8-0.3-1.4-0.7-1.8c-0.1,0-0.2,0-0.4,0c-0.7,0-1.4-0.2-2.1-0.4
				c-0.6-0.2-1.3-0.4-1.8-0.4c-0.4,0-0.9,0.1-1.4,0.7v2c1,0.3,2,0.6,3.2,0.9c3.3,0.9,6.8,1.8,8,4.3c0.7,1.4,0.6,3-0.2,4.9
				C154.2,169.3,151.5,170.7,148.1,170.7z"/>
			<path class="st4" d="M150.5,153.7c-1.9,0.7-4.9-2.3-6.9,0.7c0,1,0,2,0,3c5,2,14,2,11,9c-2,4-8,4-12,2c-1-1-2-3-2-5c4,2,8,8,11,3
				c3-6-7-4-10-8c-1-3,1-6,4-7c4-1,8,1,9,5c-1,0-2,0-2.7,0.1C151.7,155.2,151.3,154.3,150.5,153.7z"/>
			<path class="st4" d="M169.2,172.6c-1,0-2-0.3-3-0.6c-0.8-0.2-1.5-0.4-2.1-0.4c-0.1,0-0.2,0-0.3,0c-0.1,0-0.1,0-0.2,0c0,0,0,0,0,0
				c-3.5-0.1-7.1-0.2-7.1-0.2c-0.5,0-1-0.5-1-1c-0.1-7.1-0.1-13.1-0.1-20.1c0-0.4,0.2-0.7,0.5-0.9c0.2-0.1,0.3-0.1,0.5-0.1
				c0.2,0,0.4,0,0.5,0.1c0.5,0.3,1,0.4,1.6,0.4c1,0,2-0.4,3.1-0.8c1.1-0.4,2.3-0.9,3.6-0.9c2.7,0,4.6,2.1,6.2,6.8
				c0.1,0.4,0,0.8-0.2,1c-0.2,0.2-0.4,0.3-0.7,0.3c-0.1,0-0.2,0-0.3-0.1c-2.8-0.9-5-1.4-6.8-1.4c-0.7,0-1.3,0.1-1.8,0.2v2.5
				c0.3,0,0.6,0.1,1,0.1c0.9,0,1.8-0.1,2.8-0.3c1-0.1,2.1-0.3,3.1-0.3c0.9,0,1.6,0.1,2.3,0.3c0.4,0.1,0.7,0.5,0.7,0.9v4
				c0,0.4-0.3,0.8-0.7,0.9c-0.7,0.2-1.6,0.4-2.6,0.4c-0.8,0-1.6-0.1-2.4-0.1c-0.7-0.1-1.3-0.1-1.9-0.1c-0.9,0-1.4,0.1-1.5,0.4
				c0,0.1-0.1,0.2-0.2,0.3c-0.4,0.4-0.7,0.8-0.8,1c0.3,0,0.8,0.1,1.6,0.1c0.3,0,1.6,0,2,0c2.4,0,4.8,0.2,6.2,1.6
				c0.2,0.2,0.3,0.4,0.3,0.7v4c0,0.4-0.2,0.7-0.6,0.9C170.4,172.5,169.9,172.6,169.2,172.6z"/>
			<path class="st4" d="M156.6,170.5c-0.1-7.1-0.1-13.1-0.1-20.1c5,3,10-7,14,5c-3-1-7-2-10-1c0,1,0,3,0,4c3,1,7-1,10,0c0,1,0,3,0,4
				c-3,1-8-1-9,1c-5,5,6,1,9,4c0,1,0,3,0,4c-2,1-5-1-6.8-0.7C160.1,170.5,156.6,170.5,156.6,170.5z"/>
			<path class="st4" d="M166.2,171.6c-3.4,0-5.9-0.9-7.6-2.8c-3.4-3.7-2.7-10.4-2-17.5c0.1-0.5,0.5-0.9,1-0.9c0,0,12.1,0.6,12.1,0.6
				c0.3,0,0.5,0.1,0.7,0.4c0.2,0.2,0.3,0.5,0.2,0.8c-0.2,1.3-0.2,1.3-0.2,2.3c0,0.3-0.2,0.6-0.4,0.8c-0.2,0.1-0.4,0.2-0.6,0.2
				c-0.1,0-0.2,0-0.3-0.1c-2.1-0.7-4.2-1.1-5.7-1.1c-1.1,0-1.9,0.2-2.1,0.6c0,0.1-0.1,0.1-0.1,0.2c-1.7,2.2-1.9,3-1.9,3.2
				c0.1,0.1,0.5,0.2,1.5,0.2c0.4,0,0.7,0,1.1,0c0.4,0,0.9,0,1.4,0c2.5,0,5.2,0.3,6.9,2.4c0.2,0.3,0.3,0.7,0.1,1.1
				c-0.2,0.3-0.5,0.6-0.9,0.6c-0.8,0-1.6-0.1-2.5-0.1c-0.9-0.1-1.9-0.1-2.8-0.1c-2.2,0-2.7,0.4-2.9,0.7c0,0-0.1,0.1-0.1,0.1
				c-1.3,1.8-1.2,2.3-1.2,2.3c0.2,0.2,1.5,0.4,2.3,0.6c2.5,0.4,5.8,0.9,7.9,4c0.2,0.3,0.2,0.6,0.1,1s-0.4,0.5-0.8,0.6
				C168.4,171.5,167.3,171.6,166.2,171.6z"/>
			<path class="st4" d="M169.7,152c-0.2,1.4-0.2,1.4-0.2,2.4c-3-1-8-2-9,0c-7,9,5,2,9,7c-3,0-8-1-9,1c-5,7,5,2,9,8
				c-14,2-13-8-11.9-19L169.7,152z"/>
			<path class="st4" d="M183.4,172.7c-0.5,0-1-0.5-1-1c0.1-4.1-1-4.2-3.3-4.5c-0.9-0.1-2-0.2-3-0.6c-0.2,0.6-0.4,1.3-0.6,1.9
				c-0.3,1-0.5,2.1-1.1,3.2c-0.2,0.3-0.5,0.6-0.9,0.6h-4c-0.3,0-0.7-0.2-0.9-0.5c-0.2-0.3-0.2-0.7,0-1c0.9-1.8,1.6-4.6,2.4-7.6
				c1.6-6.1,3.2-12.3,7.1-12.3c0.6,0,1.2,0.2,1.9,0.5c3.1,1.8,4.7,5.8,5.7,9c0.5,1.5,0.9,3.1,1.3,4.6c0.7,2.3,1.3,4.6,2,6.5
				c0.1,0.3,0.1,0.7-0.1,1c-0.2,0.3-0.5,0.4-0.8,0.4C188.1,172.9,183.4,172.7,183.4,172.7z M178.7,160.9l-0.1-0.4l-0.1,0.4
				L178.7,160.9z"/>
			<path class="st4" d="M183.4,171.7c0.1-7.4-3.9-4.4-7.9-6.4c-1,2-1,4-2,6c-1,0-3,0-4,0c3-6,4-22,10-19c2.5,1.5,4,4.8,5.2,8.4
				c1.2,3.7,2.1,7.8,3.4,11.1L183.4,171.7z M180.1,162l-1.5-4.5l-1.6,4.3L180.1,162z"/>
			<path class="st4" d="M186.5,171.4c-0.3,0-0.5-0.1-0.7-0.3c-0.4-0.4-0.8-0.8-1.2-1.2c-1.4-1.4-2.6-2.7-3.9-3.4
				c-0.9-0.5-1.8-0.8-2.8-0.8c-0.8,0-1.7,0.2-2.8,0.5c0,0.1,0,0.2,0,0.3c-0.1,1.4-0.2,4.8-4.6,4.8c-0.3,0-0.6-0.2-0.8-0.4
				c-0.2-0.3-0.2-0.6-0.1-0.9c2-5.9,4-12.1,6.8-18c0.2-0.4,0.5-0.6,0.9-0.6c0,0,2.6,0.2,2.6,0.2c0.4,0,0.7,0.2,0.8,0.6
				c1.3,2.7,2.2,5.5,3,8.3l0.2,0.6c1,3.1,2,6,3.4,8.8c0.2,0.4,0.1,1-0.3,1.3C186.9,171.3,186.7,171.4,186.5,171.4z M180.1,162
				c-0.4-1.1-0.8-2.3-1.2-3.4c-0.3,1.1-0.8,2.2-1.5,3.3L180.1,162z"/>
			<path class="st4" d="M179.9,152.6c1.3,2.9,2.2,5.8,3.2,8.8c1,3,2,6,3.5,9c-2-2-3.5-3.8-5.2-4.8s-3.8-1.2-6.8-0.2c-1,0,1,5-4,5
				c2-6,4-12,6.8-17.9L179.9,152.6z M181.5,163.1c-1-2.8-2-5.8-3-8.8c0,3-1,6-2.9,8.4L181.5,163.1z"/>
			<path class="st4" d="M193.9,173.7c-4,0-7.2-3.3-8.1-6.3c-0.6-2.1-0.2-3.9,1.1-4.8c0.3-0.3,0.7-0.5,1.2-0.5c0.2,0,0.5,0,0.7,0.1
				c-1.8-0.9-3.2-2.4-3.2-4.9c0,0,0-0.1,0-0.1c0.6-4.4,4.9-6.4,8.8-6.4c3.6,0,6.4,1.6,7.1,4c1.3,1.4,2.6,2.9,2,4.3
				c-0.6,1.4-2.4,1.4-3,1.4c-0.6,0-1.2-0.1-2-0.2c-0.7,0-1.3-0.6-2-1.3c-0.6-0.6-1.3-1.3-2-1.6c1,1.2,2.4,2.3,3.7,3.4
				c2.7,2.3,5.3,4.4,5,7.1c-0.2,2-2,3.7-5.5,5.4c-0.1,0-0.2,0.1-0.3,0.1c-0.8,0.2-1.6,0.2-2.3,0.2c-0.2,0-0.3,0-0.5,0
				C194.4,173.7,194.1,173.7,193.9,173.7z M189.2,162.5c0.8,0.5,1.5,1.4,2.4,2.4c1,1.2,2.3,2.8,3.1,2.8c0.4,0,0.7-0.5,0.9-0.8
				c0.5-0.7,0.7-1.2,0.5-1.5c-0.2-0.7-2-1.2-3.5-1.6C191.6,163.4,190.4,163,189.2,162.5z"/>
			<path class="st4" d="M194.6,172.7c-6.1,0.7-10.1-7.3-7.1-9.3c2-2,6,9,9,4c4-6-10-3-10-10c1-7,13-7,14-2c1,1,5,5-2,4c-1,0-3-4-6-3
				c3,6,17,10,4.8,16.1C196.4,172.6,195.5,172.7,194.6,172.7z"/>
			<path class="st4" d="M194.8,172.4c-1.4,0-2.5-0.5-3.1-1.4c-0.5-0.4-1.5-0.7-2.3-1c-1.3-0.4-2.6-0.8-2.8-2c-0.2-1,0.5-2,2.3-3.5
				c0.2-0.1,0.4-0.2,0.6-0.2c0.1,0,0.2,0,0.4,0.1c0.3,0.1,0.6,0.4,0.6,0.8c0.4,2.6,2.7,3.8,4.6,3.8c0.9,0,1.7-0.3,2.2-0.8
				c0.3-0.4,0.4-1,0.3-1.6c-0.3-1.5-2.5-2.4-4.7-3.3c-2.5-1.1-5.1-2.2-5.7-4.4c-0.4-1.5,0.1-3.1,1.6-5c0.8-1.2,2.2-1.9,4.1-1.9
				c2.8,0,6.2,1.6,8.5,3.8c0.8,0.8,1.1,2.3,0.7,3.3c-0.3,0.8-1.1,1.3-2,1.3c-0.5,0-1.2-0.2-1.8-0.5c-0.3-0.2-0.5-0.5-0.6-0.8
				c-0.1-1-0.4-1.7-1-2.2c0,0-0.1-0.1-0.1-0.1c-0.2-0.2-0.9-0.5-1.9-0.5c-1.3,0-2.4,0.4-2.7,1c-0.2,0.4,0.1,1.1,0.5,1.5
				c0.9,1.2,2.9,1.7,4.9,2.1c2.3,0.5,4.6,1,5.3,2.9c0.5,1.3,0.2,3-1.2,5.1C199.8,171.2,196.9,172.4,194.8,172.4z"/>
			<path class="st4" d="M197.2,156.1c-1.6-1.7-8.6-0.7-5.6,3.3s14,1,9,9c-2,3-7,4-8,2c-2-2-8-1-3-5c1,6,10,6,9,1s-15-4-9-12
				c2-3,8-1,11,2c1,1,1,4-2,2.6C198.4,157.6,197.9,156.7,197.2,156.1z"/>
			<path class="st4" d="M214.9,174c-0.3,0-0.5-0.1-0.7-0.3c-0.2-0.2-0.3-0.5-0.2-0.8c0.3-3-0.1-5.4-1.2-6.6c-0.5-0.6-1.1-0.8-2-0.8
				c-0.7,0-1.6,0.2-2.5,0.7c0,0.4,0.1,1,0.2,1.5c0.3,1.8,0.6,3.8,0,5.2c-0.2,0.3-0.5,0.6-0.9,0.6h-4c-0.5,0-0.9-0.4-1-0.8
				c-1-6.1-1-13.2,0-19.3c0.1-0.5,0.5-0.8,1-0.8h4c0.3,0,0.6,0.2,0.8,0.4c0.2,0.3,0.2,0.6,0.1,0.9c-0.8,2.3-0.6,4.5,0.4,6
				c0.4,0.5,1.1,1.2,2.2,1.2c0.8,0,1.8-0.4,2.8-1.1c0-0.4-0.1-1-0.2-1.5c-0.3-1.8-0.6-3.8,0-5.2c0-0.1,0.1-0.2,0.2-0.3
				c0.5-0.5,1.2-0.7,2.2-0.7c1.3,0,2.8,0.5,2.8,0.5c0.3,0.1,0.6,0.4,0.6,0.7c1.7,5.8,1.3,10.9,1,16.3c-0.1,1.3-0.2,2.6-0.2,3.9
				c0,0.5-0.5,1-1,1C219.2,174.2,214.9,174,214.9,174z"/>
			<path class="st4" d="M214.9,173c0.6-5.7-1.4-10.7-7.4-7.7c-1,0,1,5,0,7c-1,0-3,0-4,0c-1-6-1-13,0-19c1,0,3,0,4,0c-2,6,2,11,7,7
				c1,0-1-5,0-7c1-1,4,0,4,0c2,7,1,13,0.7,19.8L214.9,173z"/>
			<path class="st4" d="M215.5,173.4c-0.3,0-0.6-0.1-0.8-0.4s-0.3-0.6-0.2-0.9c0.7-3,0.6-5.1-0.3-6.4c-0.8-1.1-2.4-1.6-4.7-1.6
				c-0.9,0-1.8,0.1-2.9,0.2c-0.4,0.1-0.5,0.2-0.5,0.2c0,0.2,0.6,1.1,1,1.7c0.9,1.3,1.9,2.8,1.2,4.2c-0.6,1.4-2.4,1.7-3.7,1.9
				c0,0-0.1,0-0.1,0c-0.2,0-0.5-0.1-0.7-0.3c-0.2-0.2-0.3-0.5-0.3-0.7c0-5.9,0-11-0.2-17.4c0-0.3,0.1-0.5,0.3-0.7
				c0.2-0.2,0.4-0.3,0.7-0.3c0,0,2.4,0.1,2.4,0.1c0.3,0,0.6,0.2,0.8,0.4s0.2,0.6,0.1,0.9c-0.7,2.5-0.6,4.5,0.4,5.8
				c0.7,0.9,1.8,1.4,3.2,1.4c0,0,0,0,0,0c1.1,0,2.4-0.3,3.6-0.9c0-0.4-0.1-1-0.2-1.5c-0.3-1.8-0.6-3.8,0-5.2
				c0.2-0.3,0.5-0.6,0.9-0.6h3c0.5,0,0.9,0.4,1,0.8c1,6.1,1,12.2,0,18.3c-0.1,0.5-0.5,0.8-1,0.8H215.5z"/>
			<path class="st4" d="M206.6,154c-2.1,7.3,2.9,10.3,8.9,7.3c1,0-1-5,0-7h3c1,6,1,12,0,18c0,0-2,0-3,0c2-8-2-10-9-9c-5,1,6,7-2,8
				c0-6,0-11-0.2-17.4L206.6,154z"/>
			<path class="st4" d="M233.2,174.8c-0.9,0-1.7-0.1-2.6-0.2c-0.8-0.1-1.6-0.2-2.3-0.2l-0.2,0c-3.6-0.1-7.2-0.2-7.2-0.2
				c-0.3,0-0.6-0.1-0.8-0.4c-0.2-0.2-0.3-0.5-0.2-0.8c0.5-2.5,0-5.3-0.6-7.9c-0.9-4.3-1.7-8.7,2.3-11.5c1.1-1.5,3.3-2.3,6.5-2.3
				c2.9,0,6,0.6,7.5,1c0.4,0.1,0.8,0.5,0.8,1v5c0,0.3-0.2,0.6-0.4,0.8c-0.2,0.1-0.4,0.2-0.6,0.2c-0.1,0-0.2,0-0.3-0.1
				c-2.8-0.9-5-1.4-6.8-1.4c-0.7,0-1.3,0.1-1.8,0.2v2.5c0.3,0,0.6,0.1,0.9,0.1c0.8,0,1.6-0.1,2.4-0.3c0.9-0.1,1.8-0.3,2.8-0.3
				c0.8,0,1.5,0.1,2.2,0.3c0.4,0.1,0.7,0.5,0.7,0.9v4c0,0.4-0.3,0.8-0.7,0.9c-0.7,0.2-1.4,0.3-2.2,0.3c-0.9,0-1.9-0.2-2.8-0.3
				c-0.8-0.1-1.7-0.3-2.4-0.3c-0.3,0-0.6,0-0.9,0.1v2.4c0.3,0,0.6,0.1,1,0.1c0.9,0,1.8-0.1,2.8-0.3c1-0.1,2.1-0.3,3.1-0.3
				c0.9,0,1.6,0.1,2.3,0.3c0.4,0.1,0.7,0.5,0.7,0.9v4c0,0.4-0.2,0.7-0.6,0.9C235.2,174.6,234.3,174.8,233.2,174.8z"/>
			<path class="st4" d="M221.1,173.3c1.5-6.9-4.5-14.9,1.5-18.9c2-3,9-2,13-1c0,1,0,3,0,5c-3-1-7-2-10-1c0,1,0,3,0,4c3,1,6-1,9,0
				c0,1,0,3,0,4c-3,1-6-1-9,0c0,1,0,3,0,4c3,1,7-1,10,0c0,1,0,3,0,4c-2,1-5,0-7.3,0.1C224.6,173.4,221.1,173.3,221.1,173.3z"/>
			<path class="st4" d="M227.2,174.6c-1.3,0-2.4-0.6-3.4-1.7c-3-3.5-3.7-11.9-2.8-18.5c0.1-0.5,0.5-0.9,1-0.9c0,0,12.2,0.2,12.2,0.2
				c0.5,0,0.9,0.3,1,0.8c0.3,1.5,0.4,1.6,0.4,2.7c0,0.3-0.2,0.6-0.4,0.8c-0.2,0.1-0.4,0.2-0.6,0.2c-0.1,0-0.2,0-0.3-0.1
				c-2.1-0.7-4.2-1.1-5.7-1.1c-1.1,0-1.9,0.2-2.1,0.6c0,0.1-0.1,0.1-0.1,0.2c-1.7,2.1-2,3-2.1,3.3c0.2,0,0.5,0.1,1.1,0.1
				c0.3,0,0.7,0,1,0c0.4,0,0.8,0,1.3,0c2.2,0,4.9,0.3,6.6,2.4c0.2,0.3,0.3,0.7,0.1,1.1c-0.2,0.3-0.5,0.6-0.9,0.6
				c-1.1,0-2.1-0.1-3.1-0.2c-1-0.1-1.9-0.2-2.9-0.2c-0.9,0-1.7,0.1-2.4,0.3c-0.2,0.5,0,2,0.1,2.8c0.1,0.7,0.2,1.5,0.2,2.1
				c0.3,0.6,0.8,0.9,1.7,0.9c1.4,0,3.4-0.8,5.6-2.2c0.2-0.1,0.3-0.2,0.6-0.2c0.4,0,0.8,0.3,1,0.7c0.2,0.7-0.3,1.1-0.5,1.2
				c-0.1,0.1-0.4,0.3-0.7,0.5C231.1,173.4,229,174.6,227.2,174.6C227.2,174.6,227.2,174.6,227.2,174.6z"/>
			<path class="st4" d="M234.2,154.9c0.3,1.5,0.3,1.5,0.3,2.5c-3-1-8-2-9,0c-7,9,4,2,8,7c-3,0-6-1-9,0c-1,1,0,4,0,6c2,5,12-3,8,0
				c-9,10-12-5-10.5-15.7L234.2,154.9z"/>
			<path class="st4" d="M236.2,174.5c-0.3,0-0.5-0.1-0.7-0.3c-0.2-0.2-0.3-0.5-0.3-0.7c0.1-2.8,0.1-5.5,0-8.2c-0.1-4-0.2-7.8,0.4-12
				c0.1-0.5,0.5-0.9,1-0.9h4c0.5,0,0.9,0.3,1,0.8c0.4,2.1,0.2,4.4-0.1,6.6c-0.3,3.2-0.7,6.2,0.8,8.9c0,0,0.1,0,0.3,0
				c0.5,0,1.1-0.1,1.8-0.2c1-0.2,2.1-0.3,3.2-0.3c0.9,0,1.6,0.1,2.3,0.3c0.1,0,0.3,0.1,0.4,0.2c1.3,1.3,1.3,3.6,1.3,4.7
				c0,0.6-0.4,1-1,1c-2,0-5,0-7.4,0C239.6,174.4,236.2,174.5,236.2,174.5C236.2,174.5,236.2,174.5,236.2,174.5z"/>
			<path class="st4" d="M236.2,173.5c0.3-7.1-0.7-13.1,0.3-20.1c0,0,3,0,4,0c1,5-2,11,1,16c1,1,5-1,8,0c1,1,1,3,1,4c-2,0-5,0-7.4,0
				C239.6,173.4,236.2,173.5,236.2,173.5z"/>
			<path class="st4" d="M242.4,173.6c-1.8,0-3.9-0.2-4.7-1.7c-2.2-3-1.9-7.3-1.7-11.4c0.1-1.9,0.2-3.8,0.1-5.5
				c0-0.3,0.1-0.5,0.3-0.7s0.4-0.3,0.7-0.3c0,0,2.4,0,2.4,0c0.3,0,0.5,0.1,0.7,0.3c0.2,0.2,0.3,0.4,0.3,0.7c0,1.4,0,2.7-0.1,3.9
				c-0.2,7.7-0.3,11.9,8.2,12.7c0.5,0,0.9,0.5,0.9,1s-0.5,1-1,1c-1,0-2.1,0.1-3.1,0.1C244.4,173.5,243.3,173.6,242.4,173.6z"/>
			<path class="st4" d="M239.5,154.8c0,9.5-2,16.5,9,17.5c-4,0-9,1-10-1c-3-4-1-11-1.4-16.5L239.5,154.8z"/>
			<path class="st4" d="M250.1,174.2c-0.3,0-0.5-0.1-0.7-0.3c-0.2-0.2-0.3-0.5-0.3-0.8c0.2-2.8,0.1-5.5,0-8.2
				c-0.1-3.7-0.2-7.6,0.4-11.7c0.1-0.5,0.5-0.9,1-0.9h4c0.5,0,0.9,0.3,1,0.8c0.5,2.6,0.3,5.5,0,8.3c-0.3,2.8-0.5,5.4,0,7.7
				c0.4,1.4,0.8,1.9,0.9,2.1c0.2-0.2,0.8-1,1.1-1.5c0.9-1.4,2-2.9,3.6-2.9c1.6,0,2.9,1.6,4.3,5.2c0.1,0.3,0.1,0.7-0.1,0.9
				c-0.2,0.3-0.5,0.4-0.8,0.4c-1.9,0-4.9,0-7.2,0.5c-0.1,0-0.1,0-0.2,0C253.6,174,250.1,174.2,250.1,174.2
				C250.1,174.2,250.1,174.2,250.1,174.2z"/>
			<path class="st4" d="M250.1,173.2c0.4-6.8-0.6-12.8,0.4-19.8c0,0,3,0,4,0c1,5-1,11,0,16c3,10,5-10,10,3c-2,0-5,0-7.5,0.6
				C253.6,173,250.1,173.2,250.1,173.2z"/>
			<path class="st4" d="M251.5,173.4c-0.2,0-0.4-0.1-0.6-0.2c-0.2-0.2-0.4-0.5-0.4-0.8c0-5.9,0-12-0.5-17.8c0-0.3,0.1-0.5,0.2-0.7
				c0.2-0.2,0.4-0.3,0.7-0.3c0,0,2.4-0.1,2.4-0.1c0.3,0,0.5,0.1,0.7,0.3c0.2,0.2,0.3,0.4,0.3,0.7c0,1.5-0.1,3-0.3,4.6
				c-0.4,3.7-0.7,7.5,1.1,10.7c0.1,0,0.3,0.1,0.8,0.1c1.3,0,3.5-0.5,6.1-1.4c0.1,0,0.2-0.1,0.3-0.1c0.3,0,0.6,0.1,0.8,0.4
				c0.3,0.4,0.3,0.8,0,1.2c-2.3,3.1-5.2,3.1-7.8,3.1c-1.2,0-2.5,0-3.7,0.3C251.7,173.3,251.6,173.4,251.5,173.4z"/>
			<path class="st4" d="M253.5,154.4c0.1,5-1.9,11,1.1,16c1,1,5,0,8-1c-3,4-7,2-11,3c0-6,0-12-0.5-17.9L253.5,154.4z"/>
			<path class="st4" d="M271.5,173.8c0,0-0.1,0-0.1,0c-0.3,0-0.7-0.1-1-0.1c-2.6-0.3-5.6-0.7-7.6-3.7c-0.1-0.2-0.2-0.5-0.1-0.8
				c0.1-0.3,0.2-0.5,0.4-0.6c0.1-0.1,0.2-0.1,0.2-0.2c-0.1-0.1-0.2-0.3-0.3-0.4c-0.4-0.5-1-1.2-0.7-2.1c0.3-0.9,1.3-1.5,3.4-2.1
				c-2-0.8-3.5-2.4-3.1-5.6c0.7-4.5,5.5-7.1,9.6-7.1c3,0,5.6,1.3,7.2,3.7c0.1,0.2,0.2,0.4,0.2,0.6v4c0,0.4-0.3,0.8-0.7,0.9
				c-0.8,0.3-1.6,0.4-2.4,0.4c-0.3,0-0.6,0-0.8-0.1c2.2,0.8,4.4,2.2,4.9,5.5c0,0,0,0.1,0,0.1c0,3.3-2.1,5.8-6,7
				C273.5,173.6,272.5,173.7,271.5,173.8C271.5,173.8,271.5,173.8,271.5,173.8z M268.8,167.4c0.3,0,0.7,0,1.1,0.1
				c0.6,0,1.3,0.1,1.9,0.1c1.6,0,1.8-0.3,1.8-0.3c0,0,0-0.2,0-0.4c-0.6-1.2-2.5-1.6-4.5-2c-0.2,0-0.4-0.1-0.6-0.1
				c0,0.2-0.1,0.5-0.1,0.7C268.2,166.4,268.2,167,268.8,167.4z M270.6,157.2c-1,0-1.2,0.2-1.2,0.2c0,0-0.1,0.2,0.1,0.6
				c0.3,1.1,1.6,1.5,3.7,2c0.5,0.1,1,0.2,1.5,0.4c-1.1-0.5-1.8-1.6-2.1-3c-0.1,0-0.3,0-0.4,0C271.6,157.2,271.1,157.2,270.6,157.2z"
				/>
			<path class="st4" d="M271.5,172.8c-3-0.4-6-0.4-8-3.4c3-2-5-3,4-5c0,1-1,3,1,4c2,0,7,1,6-2c-2-4-12-1-11-8c1-6,11-9,15-3
				c0,1,0,3,0,4c-3,1-5,0-5-3c-2,0-6-1-5,2c1,4,10,1,11,8c0,3-2,5-5.3,6C273.3,172.6,272.4,172.7,271.5,172.8z"/>
			<path class="st4" d="M271.4,172.7c-1,0-2.1-0.1-3-0.4c-1.9-0.1-4.8-2.7-5-4.9c-0.1-0.7,0.1-2.5,2.9-3.1c0.1,0,0.1,0,0.2,0
				c0.2,0,0.5,0.1,0.6,0.2c0.2,0.2,0.4,0.5,0.4,0.8c0,0.7,0,2.2,0.5,3c0.4,0,0.7,0,1.1,0c0.6,0,1.3,0.1,2,0.1c2.3,0,3.1-0.4,3.3-0.7
				c0.1-0.1,0.3-0.4,0.1-1.1c-0.3-1.6-1.7-1.9-4.1-2.4c-2.7-0.5-6.3-1.2-7-5.7c0,0,0-0.1,0-0.1c0-1.4,1.2-3.6,2.3-4.7
				c0,0,0.1-0.1,0.2-0.1c1.4-0.9,3.4-1.5,5.3-1.5c3.2,0,5.9,1.4,7.1,3.9c0.8,1.5,0.5,2.5,0.2,3c-0.2,0.4-0.8,1-2.1,1
				c-0.4,0-0.9-0.1-1.3-0.2c-0.4-0.1-0.7-0.5-0.7-0.9c-0.1-1-0.4-1.6-1-2c-0.1,0-0.1-0.1-0.2-0.1c-0.5-0.5-1-0.7-1.7-0.7
				c-1.7,0-3.2,1.6-3.2,2.4c0,1.3,0.9,1.6,3.7,2.2c2.8,0.5,6.6,1.2,7.3,5.7c0,0,0,0.1,0,0.1C279.5,170.2,276.3,172.7,271.4,172.7z"
				/>
			<path class="st4" d="M274.1,156c-2.5-2.7-6.5,0.3-6.5,2.3c0,5,10,1,11,8c0,5-6,6-10,5c-2,0-7-5-2-6c0,1,0,3,1,4c3,0,9,1,8-3
				c-1-5-10-1-11-8c0-1,1-3,2-4c3-2,9-2,11,2c1,2,0,3-2.1,2.4C275.3,157.5,274.9,156.6,274.1,156z"/>
		</g>
		<g>
			<path class="st5" d="M147.8,170.9c-4.3-0.5-10.3-4.5-7.3-8.5c2-3,4,1,4,4c2-1,8,2,6-3c-1-3-8-1-10-5c0-1,0-3,0-5c2-4,6-3,10-3
				c3,1,6,4,4,6c-2,3-4,1-5-2c-2,1-6-1-4,2c1,3,8,1,10,5c1,4,0,8-5,9.1C149.6,170.7,148.7,170.8,147.8,170.9z"/>
			<path class="st5" d="M150.5,153.7c-1.9,0.7-4.9-2.3-6.9,0.7c0,1,0,2,0,3c5,2,14,2,11,9c-2,4-8,4-12,2c-1-1-2-3-2-5c4,2,8,8,11,3
				c3-6-7-4-10-8c-1-3,1-6,4-7c4-1,8,1,9,5c-1,0-2,0-2.7,0.1C151.7,155.2,151.3,154.3,150.5,153.7z"/>
			<path class="st5" d="M156.6,170.5c-0.1-7.1-0.1-13.1-0.1-20.1c5,3,10-7,14,5c-3-1-7-2-10-1c0,1,0,3,0,4c3,1,7-1,10,0c0,1,0,3,0,4
				c-3,1-8-1-9,1c-5,5,6,1,9,4c0,1,0,3,0,4c-2,1-5-1-6.8-0.7C160.1,170.5,156.6,170.5,156.6,170.5z"/>
			<path class="st5" d="M169.7,152c-0.2,1.4-0.2,1.4-0.2,2.4c-3-1-8-2-9,0c-7,9,5,2,9,7c-3,0-8-1-9,1c-5,7,5,2,9,8
				c-14,2-13-8-11.9-19L169.7,152z"/>
			<path class="st5" d="M183.4,171.7c0.1-7.4-3.9-4.4-7.9-6.4c-1,2-1,4-2,6c-1,0-3,0-4,0c3-6,4-22,10-19c2.5,1.5,4,4.8,5.2,8.4
				c1.2,3.7,2.1,7.8,3.4,11.1L183.4,171.7z M180.1,162l-1.5-4.5l-1.6,4.3L180.1,162z"/>
			<path class="st5" d="M179.9,152.6c1.3,2.9,2.2,5.8,3.2,8.8c1,3,2,6,3.5,9c-2-2-3.5-3.8-5.2-4.8s-3.8-1.2-6.8-0.2c-1,0,1,5-4,5
				c2-6,4-12,6.8-17.9L179.9,152.6z M181.5,163.1c-1-2.8-2-5.8-3-8.8c0,3-1,6-2.9,8.4L181.5,163.1z"/>
			<path class="st5" d="M194.6,172.7c-6.1,0.7-10.1-7.3-7.1-9.3c2-2,6,9,9,4c4-6-10-3-10-10c1-7,13-7,14-2c1,1,5,5-2,4c-1,0-3-4-6-3
				c3,6,17,10,4.8,16.1C196.4,172.6,195.5,172.7,194.6,172.7z"/>
			<path class="st5" d="M197.2,156.1c-1.6-1.7-8.6-0.7-5.6,3.3s14,1,9,9c-2,3-7,4-8,2c-2-2-8-1-3-5c1,6,10,6,9,1s-15-4-9-12
				c2-3,8-1,11,2c1,1,1,4-2,2.6C198.4,157.6,197.9,156.7,197.2,156.1z"/>
			<path class="st5" d="M214.9,173c0.6-5.7-1.4-10.7-7.4-7.7c-1,0,1,5,0,7c-1,0-3,0-4,0c-1-6-1-13,0-19c1,0,3,0,4,0c-2,6,2,11,7,7
				c1,0-1-5,0-7c1-1,4,0,4,0c2,7,1,13,0.7,19.8L214.9,173z"/>
			<path class="st5" d="M206.6,154c-2.1,7.3,2.9,10.3,8.9,7.3c1,0-1-5,0-7h3c1,6,1,12,0,18c0,0-2,0-3,0c2-8-2-10-9-9c-5,1,6,7-2,8
				c0-6,0-11-0.2-17.4L206.6,154z"/>
			<path class="st5" d="M221.1,173.3c1.5-6.9-4.5-14.9,1.5-18.9c2-3,9-2,13-1c0,1,0,3,0,5c-3-1-7-2-10-1c0,1,0,3,0,4c3,1,6-1,9,0
				c0,1,0,3,0,4c-3,1-6-1-9,0c0,1,0,3,0,4c3,1,7-1,10,0c0,1,0,3,0,4c-2,1-5,0-7.3,0.1C224.6,173.4,221.1,173.3,221.1,173.3z"/>
			<path class="st5" d="M234.2,154.9c0.3,1.5,0.3,1.5,0.3,2.5c-3-1-8-2-9,0c-7,9,4,2,8,7c-3,0-6-1-9,0c-1,1,0,4,0,6c2,5,12-3,8,0
				c-9,10-12-5-10.5-15.7L234.2,154.9z"/>
			<path class="st5" d="M236.2,173.5c0.3-7.1-0.7-13.1,0.3-20.1c0,0,3,0,4,0c1,5-2,11,1,16c1,1,5-1,8,0c1,1,1,3,1,4c-2,0-5,0-7.4,0
				C239.6,173.4,236.2,173.5,236.2,173.5z"/>
			<path class="st5" d="M239.5,154.8c0,9.5-2,16.5,9,17.5c-4,0-9,1-10-1c-3-4-1-11-1.4-16.5L239.5,154.8z"/>
			<path class="st5" d="M250.1,173.2c0.4-6.8-0.6-12.8,0.4-19.8c0,0,3,0,4,0c1,5-1,11,0,16c3,10,5-10,10,3c-2,0-5,0-7.5,0.6
				C253.6,173,250.1,173.2,250.1,173.2z"/>
			<path class="st5" d="M253.5,154.4c0.1,5-1.9,11,1.1,16c1,1,5,0,8-1c-3,4-7,2-11,3c0-6,0-12-0.5-17.9L253.5,154.4z"/>
			<path class="st5" d="M271.5,172.8c-3-0.4-6-0.4-8-3.4c3-2-5-3,4-5c0,1-1,3,1,4c2,0,7,1,6-2c-2-4-12-1-11-8c1-6,11-9,15-3
				c0,1,0,3,0,4c-3,1-5,0-5-3c-2,0-6-1-5,2c1,4,10,1,11,8c0,3-2,5-5.3,6C273.3,172.6,272.4,172.7,271.5,172.8z"/>
			<path class="st5" d="M274.1,156c-2.5-2.7-6.5,0.3-6.5,2.3c0,5,10,1,11,8c0,5-6,6-10,5c-2,0-7-5-2-6c0,1,0,3,1,4c3,0,9,1,8-3
				c-1-5-10-1-11-8c0-1,1-3,2-4c3-2,9-2,11,2c1,2,0,3-2.1,2.4C275.3,157.5,274.9,156.6,274.1,156z"/>
		</g>
	</g>
</g>
<g id="deckB" class="btns">
	<g>
		<path class="st3" d="M458.9,231.7c0,0-3,0-8,0.1c-26.9,1.2-52.9,3.2-80,0.6c-10.2-0.3-19.9-0.2-28.4-0.2c-4.2,0-8.1,0-11.6,0.1
			C325,232,319,234,314,231c-1-1,0-6-0.2-9.3c0-3,0-6.5,0-9.9c0-10.2,0-20.5,0-20.5s11.8,0,28.8,0c8.5,0,18.2,0,28.4,0.2
			c27.1-0.6,53.1,1.4,80-0.1c5.1,0,8,0,8,0l34.3,20.5L458.9,231.7z"/>
		<g>
			<g>
				<path class="st1" d="M323.4,232.1c1.2,0.2,2.4-0.5,3.4-1.2c0.5-0.3,1-0.7,1.6-1c0.4-0.2,0.8-0.4,1.3-0.3c0.6,0,1.1,0.5,1.7,0.8
					c1,0.5,2.4,0.5,3.5,0.5c1.5,0,4-0.3,5,1.1c0.5,0.7,1.3,1,2.1,0.5c0.6-0.4,1-1.4,0.5-2.1c-1.3-1.8-3.3-2.5-5.5-2.6
					c-1.2-0.1-2.5,0.1-3.8-0.1c-0.9-0.2-1.6-0.9-2.6-1.1c-1.6-0.3-3.1,0.2-4.4,1c-0.5,0.3-1,0.7-1.6,1.1c-0.1,0.1-0.3,0.2-0.4,0.2
					c0.2-0.1-0.1,0.1-0.2,0.1c0,0-0.4,0.1-0.2,0.1c0.1,0-0.3,0-0.4,0c-0.8-0.1-1.5,0.8-1.5,1.5C321.9,231.5,322.6,232,323.4,232.1
					L323.4,232.1z"/>
			</g>
		</g>
		<g>
			<g>
				<path class="st1" d="M318,231c2.1-2.6,4.5-5.5,8.1-5.7c2-0.1,3.7-0.1,5.6-0.8c1.7-0.6,3.2-1.6,5-1.9c0.8-0.1,1.6-0.1,2.3,0.2
					c0.8,0.4,1.3,1.1,1.9,1.7c1.2,1.2,2.7,1.7,4.2,2.5c2.7,1.4,3.3,4.9,6.7,5.3c1.9,0.2,1.9-2.8,0-3c-1.2-0.1-2.1-2.1-2.7-2.9
					c-1.1-1.4-2.6-2-4.1-2.8c-0.8-0.4-1.5-0.8-2.2-1.5c-0.7-0.7-1.3-1.4-2.1-1.8c-1.6-0.9-3.5-0.9-5.2-0.5c-1.9,0.4-3.6,1.5-5.4,2.1
					c-2,0.6-4,0.2-6,0.7c-3.5,0.8-6,3.7-8.2,6.3C314.7,230.4,316.8,232.5,318,231L318,231z"/>
			</g>
		</g>
		<g>
			<g>
				<path class="st1" d="M349.2,195.2c1.9,0.7,3.1,2.5,5,3.3c2.3,0.9,5.1,0.3,7.6,0.2c1.4-0.1,2.7-0.2,4.1-0.3c0.6,0,1-0.1,1.5-0.5
					c0.4-0.3,0.7-0.6,1.1-0.8c2-1,4.4-1.1,6.5-1.7c1.9-0.5,1.1-3.4-0.8-2.9c-3,0.9-6.6,1-8.9,3.3c0.4-0.1,0.7-0.3,1.1-0.4
					c-1.7,0.1-3.4,0.2-5.1,0.3c-1.6,0.1-3.2,0.3-4.8,0.2c-2.5-0.1-4.1-2.8-6.5-3.6C348.1,191.6,347.4,194.5,349.2,195.2L349.2,195.2
					z"/>
			</g>
		</g>
		<g>
			<g>
				<path class="st1" d="M340,194.8c3.3,3.1,6.5,6.5,10,9.5c3.4,2.9,7.3,0.6,11.1-0.1c2-0.4,4.1-0.6,6.1-0.1c1.5,0.3,3,0.3,4.5,0.1
					c2.9-0.5,5.4-2.1,7.8-3.6c2.8-1.8,5.7-3.6,9-4.1c0.8-0.1,1.2-1.1,1-1.8c-0.2-0.9-1-1.2-1.8-1c-5.7,0.8-9.6,5.2-14.8,7.1
					c-1.2,0.4-2.5,0.7-3.7,0.6c-0.7,0-1.4-0.2-2-0.3c-1-0.2-2-0.2-3-0.1c-2,0.1-3.9,0.4-5.8,0.9c-1.6,0.4-3.8,1.5-5.4,0.9
					c-1-0.4-1.9-1.5-2.6-2.2c-0.9-0.9-1.8-1.7-2.7-2.6c-1.8-1.7-3.6-3.4-5.4-5.1C340.7,191.3,338.6,193.5,340,194.8L340,194.8z"/>
			</g>
		</g>
		<g>
			<g>
				<path class="st1" d="M390.1,233c5.5,0.3,10.6-1.2,15.8-2.9c2.4-0.8,5.2-2.2,7.7-1c2.1,1,3.7,2.7,5.7,3.8c1.7,1,3.2-1.6,1.5-2.6
					c-2-1.2-3.7-2.9-5.8-3.9c-1.1-0.5-2.4-0.9-3.7-0.9c-1.5,0-3.1,0.7-4.5,1.2c-5.5,1.7-10.7,3.7-16.6,3.3
					C388.2,229.8,388.2,232.8,390.1,233L390.1,233z"/>
			</g>
		</g>
		<g>
			<g>
				<path class="st1" d="M382.9,233.4c13-10.4,31.4-10,44.9-0.6c1.6,1.1,3.1-1.5,1.5-2.6c-11-7.7-25.6-9.9-38.2-4.9
					c-3.7,1.5-7.2,3.5-10.3,6C379.3,232.5,381.4,234.6,382.9,233.4L382.9,233.4z"/>
			</g>
		</g>
		<g>
			<g>
				<path class="st1" d="M374,231.1c7-5.9,15.3-10.2,24.4-11.7c8.5-1.4,17.3,0,25,3.7c4.9,2.3,9.4,5.4,13.4,9
					c1.4,1.3,3.6-0.8,2.1-2.1c-7.3-6.6-16.1-11.6-25.8-13.3c-9.2-1.7-18.5-0.4-27,3.3c-5.2,2.3-9.9,5.4-14.3,9
					C370.4,230.2,372.5,232.3,374,231.1L374,231.1z"/>
			</g>
		</g>
		<g>
			<g>
				<path class="st1" d="M464.5,197c-0.7,2.8,0.7,5.4,2.5,7.4c1.6,1.8,4,3.2,4.7,5.6c0.4,1.4,0.7,2.6,2,3.5c1.1,0.7,2.5,1.4,3.8,1.7
					c0.7,0.2,1.4,0.2,2.1,0.2c0.6,0,0.5-0.1,0.7,0.4c0.5,1.1,0.9,1.8,2.1,2.3c0.8,0.3,1.6-0.3,1.8-1c0.2-0.8-0.3-1.5-1-1.8
					c0.4,0.2-0.1-0.5-0.2-0.7c-0.2-0.4-0.4-0.8-0.7-1.1c-0.8-0.9-1.9-1-3-1c-1.2,0-2.3-0.5-3.4-1c-0.4-0.2-0.8-0.4-1-0.9
					c-0.2-0.6-0.3-1.2-0.5-1.8c-0.8-2.1-2.5-3.7-4.1-5.2c-1.5-1.4-3.5-3.4-2.9-5.7C467.8,195.9,465,195.1,464.5,197L464.5,197z"/>
			</g>
		</g>
		<g>
			<g>
				<path class="st1" d="M459,193.9c-0.2,3,0.1,6,1.1,8.8c1,2.8,2.6,5.2,4.5,7.6c0.9,1.1,1.7,2.2,2.3,3.5c0.5,1.2,0.9,2.4,1.5,3.5
					c0.7,1.1,1.6,2,2.7,2.6c0.7,0.4,2.4,0.7,2.7,1.5c0.3,0.8,1,1.3,1.8,1c0.7-0.2,1.4-1.1,1-1.8c-0.5-1.1-1.1-1.9-2.2-2.4
					c-1-0.5-2.1-0.8-2.9-1.6c-0.9-0.8-1.2-2.1-1.7-3.2c-0.5-1.3-1.1-2.5-2-3.6c-1.7-2.3-3.6-4.4-4.7-7c-1.1-2.8-1.6-5.8-1.3-8.8
					C462.2,192,459.2,192,459,193.9L459,193.9z"/>
			</g>
		</g>
		<g>
			<g>
				<path class="st1" d="M427.4,195.3c3.9,0.6,7.8,1.9,11.8,2.3c4,0.4,7.8-0.7,10.7-3.6c1.4-1.4-0.8-3.5-2.1-2.1
					c-5.3,5.3-13.3,1.5-19.6,0.5c-0.8-0.1-1.6,0.2-1.8,1C426.1,194.2,426.6,195.2,427.4,195.3L427.4,195.3z"/>
			</g>
		</g>
		<g>
			<g>
				<path class="st1" d="M416.3,195.5c9.3,4.9,21.9,11.6,32.2,5.6c1.4-0.8,2.7-1.9,3.9-3.1c0.6-0.7,1.1-1.5,1.8-2.1
					c0.4-0.3,0.5-0.3,1.1-0.5c0.5-0.2,1-0.4,1.4-0.6c1.7-1,0.1-3.6-1.5-2.6c-0.7,0.4-1.5,0.5-2.2,0.9c-0.8,0.4-1.2,1.1-1.7,1.8
					c-0.9,1.1-1.9,2.1-3,3c-2,1.5-4.4,2.4-6.9,2.6c-5.3,0.5-10.6-1.3-15.4-3.4c-2.7-1.2-5.4-2.6-8.1-4
					C416.1,192,414.6,194.6,416.3,195.5L416.3,195.5z"/>
			</g>
		</g>
	</g>
	<g>
		<path class="st4" d="M343.3,224.5c-1.9,0-3.5-0.3-5-1c-1.5-0.7-2.7-1.6-3.7-2.8c-0.9-1.2-1.7-2.5-2.1-4.1c-0.4-1.5-0.7-3-0.7-4.7
			c0-1.7,0.2-3.2,0.7-4.7c0.5-1.5,1.2-2.9,2.2-4.1c1-1.2,2.3-2.2,3.7-2.8c1.5-0.7,3.2-1,5-1c1.2,0,2.5,0.2,3.6,0.5
			c1.2,0.4,2.2,0.9,3.2,1.6c1,0.7,1.8,1.6,2.4,2.7c0.6,1.1,1.1,2.3,1.3,3.7l0.3,1.9c0,0.2,0,0.5-0.2,0.7c-0.2,0.2-0.4,0.3-0.6,0.3
			h-5.9c-0.4,0-0.7-0.3-0.8-0.7l-0.3-1.3c-0.2-0.7-0.4-1.2-0.9-1.5c-0.5-0.4-1.2-0.6-2-0.6c-0.7,0-1.3,0.1-1.8,0.4
			c-0.5,0.3-0.9,0.6-1.2,1c-0.3,0.5-0.6,1-0.8,1.7c-0.2,0.7-0.3,1.5-0.3,2.2c0,0.9,0.1,1.7,0.3,2.5c0.2,0.7,0.4,1.2,0.8,1.7
			c0.3,0.4,0.7,0.7,1.2,1c0.5,0.2,1.1,0.4,1.8,0.4c0.5,0,0.9-0.1,1.3-0.2c0.3-0.1,0.6-0.3,0.9-0.6c0.2-0.3,0.4-0.6,0.6-0.9
			c0.2-0.4,0.3-0.9,0.3-1.4l0.1-1.6c0-0.4,0.4-0.8,0.8-0.8h6c0.2,0,0.5,0.1,0.6,0.3c0.2,0.2,0.2,0.4,0.2,0.7l-0.2,1.9
			c-0.3,3-1.4,5.5-3.3,7.2C349,223.6,346.4,224.5,343.3,224.5z"/>
		<path class="st4" d="M343.3,223.7c-1.7,0-3.3-0.3-4.6-0.9c-1.3-0.6-2.5-1.5-3.4-2.6c-0.9-1.1-1.5-2.3-2-3.8
			c-0.4-1.4-0.6-2.9-0.6-4.4c0-1.6,0.2-3.1,0.7-4.5c0.5-1.4,1.1-2.7,2-3.8c0.9-1.1,2.1-2,3.4-2.6c1.4-0.6,2.9-1,4.6-1
			c1.2,0,2.3,0.2,3.3,0.5c1.1,0.3,2.1,0.8,2.9,1.4c0.9,0.7,1.6,1.5,2.2,2.4c0.6,1,1,2.1,1.1,3.3l0.3,1.9h-5.9l-0.3-1.3
			c-0.2-0.9-0.6-1.6-1.2-2c-0.7-0.5-1.5-0.7-2.5-0.7c-0.9,0-1.6,0.2-2.2,0.5c-0.6,0.3-1.1,0.7-1.4,1.2c-0.4,0.6-0.7,1.2-0.9,1.9
			c-0.2,0.8-0.3,1.6-0.3,2.5c0,0.9,0.1,1.9,0.3,2.7c0.2,0.8,0.5,1.4,0.9,2c0.4,0.5,0.9,0.9,1.4,1.2c0.6,0.3,1.3,0.5,2.2,0.5
			c0.6,0,1.1-0.1,1.6-0.3c0.4-0.2,0.8-0.4,1.1-0.8c0.3-0.3,0.6-0.7,0.8-1.2c0.2-0.5,0.3-1.1,0.4-1.7l0.1-1.6h6l-0.2,1.9
			c-0.3,2.8-1.3,5.1-3,6.7C348.5,222.8,346.2,223.7,343.3,223.7z"/>
		<path class="st4" d="M343.3,222.8c-1.6,0-3-0.3-4.3-0.8c-1.2-0.6-2.3-1.4-3.1-2.3c-0.8-1-1.4-2.1-1.8-3.5
			c-0.4-1.3-0.6-2.7-0.6-4.2c0-1.5,0.2-2.9,0.6-4.2c0.4-1.3,1.1-2.5,1.9-3.5c0.8-1,1.9-1.8,3.1-2.4c1.2-0.6,2.7-0.9,4.3-0.9
			c1.1,0,2.1,0.1,3.1,0.4c1,0.3,1.9,0.7,2.7,1.3c0.8,0.6,1.5,1.3,2,2.2c0.5,0.9,0.9,1.9,1,3c0,0.2,0,0.5-0.2,0.7
			c-0.2,0.2-0.4,0.3-0.6,0.3h-2.6c-0.4,0-0.7-0.3-0.8-0.7c-0.2-1.2-0.8-2-1.6-2.6c-0.8-0.6-1.8-0.9-3-0.9c-1,0-1.9,0.2-2.6,0.5
			c-0.7,0.4-1.3,0.9-1.7,1.5c-0.5,0.6-0.8,1.4-1,2.2c-0.2,0.9-0.3,1.8-0.3,2.7c0,1,0.1,2,0.4,2.9c0.2,0.9,0.6,1.6,1,2.3
			c0.4,0.6,1,1.1,1.7,1.5c0.7,0.4,1.6,0.6,2.6,0.6c0.7,0,1.4-0.1,1.9-0.3c0.6-0.2,1-0.6,1.4-1c0.4-0.4,0.7-0.9,0.9-1.5
			c0.2-0.6,0.4-1.3,0.4-2c0-0.4,0.4-0.8,0.8-0.8h2.6c0.2,0,0.5,0.1,0.6,0.3c0.2,0.2,0.2,0.4,0.2,0.7c-0.3,2.6-1.2,4.7-2.8,6.2
			C348.1,222.1,346,222.8,343.3,222.8z"/>
		<path class="st4" d="M347,205c-1-0.7-2.1-1-3.5-1c-1.1,0-2.1,0.2-2.9,0.6c-0.8,0.4-1.5,1-2,1.7c-0.5,0.7-0.9,1.6-1.2,2.5
			c-0.3,0.9-0.4,1.9-0.4,2.9c0,1.1,0.1,2.1,0.4,3.1c0.3,1,0.6,1.8,1.2,2.6c0.5,0.7,1.2,1.3,2,1.7c0.8,0.4,1.8,0.6,3,0.6
			c0.8,0,1.6-0.1,2.2-0.4c0.7-0.3,1.2-0.7,1.7-1.2c0.5-0.5,0.8-1.1,1.1-1.8c0.3-0.7,0.4-1.4,0.5-2.2h2.6c-0.3,2.4-1.1,4.3-2.5,5.7
			c-1.4,1.3-3.4,2-5.8,2c-1.5,0-2.8-0.3-3.9-0.8c-1.1-0.5-2-1.2-2.8-2.1c-0.7-0.9-1.3-2-1.7-3.2c-0.4-1.2-0.6-2.5-0.6-3.9
			s0.2-2.7,0.6-3.9c0.4-1.2,1-2.3,1.7-3.2c0.8-0.9,1.7-1.6,2.9-2.2c1.1-0.5,2.4-0.8,3.9-0.8c1,0,2,0.1,2.9,0.4
			c0.9,0.3,1.7,0.7,2.4,1.2c0.7,0.5,1.3,1.2,1.8,2s0.8,1.7,0.9,2.7h-2.6C348.6,206.7,348,205.7,347,205z"/>
		<path class="st4" d="M364,224.5c-1.9,0-3.6-0.4-5.1-1.1c-1.5-0.7-2.7-1.7-3.7-2.9c-1-1.2-1.7-2.5-2.2-4.1c-0.5-1.5-0.7-3-0.7-4.6
			s0.2-3.1,0.7-4.6c0.5-1.5,1.2-2.9,2.2-4.1c1-1.2,2.3-2.2,3.7-2.9c1.5-0.7,3.2-1.1,5.1-1.1c1.9,0,3.6,0.4,5.1,1.1
			c4.2,2.3,6.4,6.4,6.4,11.6c0,5.1-2.3,9.3-6.4,11.4C367.6,224.2,365.8,224.5,364,224.5z M364,206.5c-0.7,0-1.3,0.1-1.8,0.4
			c-0.5,0.3-0.9,0.6-1.2,1.1c-0.4,0.5-0.6,1.1-0.8,1.7c-0.2,0.7-0.3,1.5-0.3,2.2s0.1,1.5,0.3,2.2c0.2,0.6,0.4,1.2,0.8,1.7
			c0.3,0.4,0.7,0.8,1.2,1.1c0.5,0.3,1.1,0.4,1.8,0.4c0.7,0,1.3-0.1,1.8-0.4c1.3-0.8,2.1-2.6,2.1-4.8c0-2.2-0.8-4.2-2.2-5.3
			C365.3,206.7,364.7,206.5,364,206.5z"/>
		<path class="st4" d="M364,223.7c-1.8,0-3.4-0.3-4.7-1c-1.4-0.7-2.5-1.6-3.5-2.7c-0.9-1.1-1.6-2.4-2-3.8c-0.4-1.4-0.7-2.8-0.7-4.3
			c0-1.5,0.2-2.9,0.7-4.3c0.5-1.4,1.1-2.7,2-3.8c0.9-1.1,2.1-2,3.4-2.7c1.4-0.7,3-1,4.7-1c1.8,0,3.4,0.3,4.8,1c4.3,2.4,6,6.6,6,10.9
			c0,4.2-1.7,8.5-6,10.7C367.3,223.3,365.7,223.7,364,223.7z M364,205.7c-0.9,0-1.6,0.2-2.2,0.5c-0.6,0.3-1.1,0.8-1.5,1.3
			c-0.4,0.6-0.7,1.3-0.9,2c-0.2,0.8-0.3,1.6-0.3,2.4s0.1,1.6,0.3,2.4c0.2,0.7,0.5,1.4,0.9,2c0.4,0.5,0.9,1,1.5,1.3
			c0.6,0.3,1.3,0.5,2.2,0.5c0.9,0,1.6-0.2,2.2-0.5c3.4-2.3,3.4-9,0-11.5C365.6,205.9,364.8,205.7,364,205.7z"/>
		<path class="st4" d="M364,222.8c-1.6,0-3.1-0.3-4.4-0.9c-1.3-0.6-2.3-1.4-3.2-2.4c-0.8-1-1.5-2.2-1.9-3.5c-0.4-1.3-0.6-2.6-0.6-4
			c0-1.4,0.2-2.8,0.6-4c0.4-1.3,1.1-2.5,1.9-3.5c0.8-1,1.9-1.9,3.2-2.5c1.3-0.6,2.7-0.9,4.4-0.9c1.7,0,3.1,0.3,4.4,0.9
			c3.6,1.8,6,6.2,5.8,10.8c-0.1,4.2-2.3,7.7-5.8,9.2C367.1,222.5,365.6,222.8,364,222.8z M364,204.8c-1,0-1.9,0.2-2.6,0.6
			c-0.7,0.4-1.3,0.9-1.8,1.6c-0.5,0.7-0.8,1.4-1.1,2.3c-0.2,0.9-0.3,1.8-0.3,2.7s0.1,1.8,0.3,2.7c0.2,0.8,0.6,1.6,1.1,2.3
			c0.5,0.7,1.1,1.2,1.8,1.6c0.7,0.4,1.6,0.6,2.6,0.6c1,0,1.9-0.2,2.6-0.5c1.9-1.4,3-3.4,3.1-5.7c0.1-2.6-1-5.4-3.2-7.4
			C365.8,205,364.9,204.8,364,204.8z"/>
		<path class="st4" d="M355.3,208.1c0.4-1.2,1-2.3,1.7-3.2c0.8-0.9,1.7-1.7,2.9-2.2c1.1-0.6,2.5-0.8,4-0.8c1.5,0,2.9,0.3,4,0.8
			c6.7,3.4,7.5,15.3,0,18.5c-1.2,0.5-2.5,0.8-4,0.8c-1.5,0-2.9-0.3-4-0.8c-1.1-0.5-2.1-1.3-2.9-2.2c-0.8-0.9-1.4-2-1.7-3.2
			c-0.4-1.2-0.6-2.5-0.6-3.8S354.9,209.3,355.3,208.1z M357.7,214.8c0.3,0.9,0.6,1.8,1.2,2.5c0.5,0.8,1.2,1.4,2.1,1.8
			c0.8,0.5,1.8,0.7,3,0.7c1.2,0,2.2-0.2,3-0.7c5.2-3.8,4.3-10.5,0-14.5c-0.8-0.5-1.8-0.7-3-0.7c-1.2,0-2.2,0.2-3,0.7
			c-0.8,0.5-1.5,1.1-2.1,1.8c-0.5,0.8-0.9,1.6-1.2,2.5c-0.3,0.9-0.4,1.9-0.4,2.9C357.3,212.9,357.4,213.8,357.7,214.8z"/>
		<path class="st4" d="M389.3,225.1c-0.3,0-0.6-0.2-0.7-0.5c-0.5-1.2-0.9-2.5-1.2-3.7c-0.7-2.4-1.4-4.7-2.7-4.7
			c-0.5,0-1.1,0.3-1.9,0.8c0,0-0.1,0-0.1,0.1c-0.4,0.2-0.4,1.4-0.4,2.4c0,1.5,0,3.3-0.9,4.7c-0.1,0.5-0.6,0.9-1.9,0.9
			c-1.3,0-3.2-0.4-3.3-0.4c-0.3-0.1-0.6-0.3-0.7-0.6c-1.3-5.8-1.1-11.7-1-17.3c0.1-1.9,0.1-3.8,0.1-5.7c0-0.5,0.4-0.8,0.8-0.8
			c1,0,2.1-0.1,3.3-0.1c1.2-0.1,2.5-0.1,3.8-0.1c4,0,8.9,0.6,11.4,4.9c0,0,0,0.1,0,0.1c1.1,2.6,0.7,5.5,0.4,8.4
			c-0.5,4.1-1,7.9,2.6,10.6c0.3,0.2,0.4,0.6,0.3,1c-0.1,0.3-0.4,0.6-0.8,0.6C396.6,225.5,389.3,225.1,389.3,225.1z M385.3,209.4
			c0.2,0,0.4,0,0.6,0c1.1,0,1.5-0.2,1.6-0.2c0,0,0-0.1-0.1-0.1c-0.8-1.2-1.9-1.8-3.3-1.8c-0.6,0-1.2,0.1-1.9,0.3
			c0,0.5,0,1.2,0.1,1.7L385.3,209.4z"/>
		<path class="st4" d="M389.4,224.2c-2-4.6-2-11.4-7.1-8c-1.7,0.8,0,5.1-1.7,7.6c0,0.8-4.2,0-4.2,0c-1.7-7.6-0.8-15.2-0.8-22.9
			c5.9,0,14.4-1.7,17.8,4.2c2.5,5.9-3.4,14.4,3.3,19.4L389.4,224.2z M385.3,210.3c1.2,0.1,3.8,0.1,2.9-1.6c-1.7-2.5-4.2-2.5-6.8-1.7
			c0,0.8,0,2.5,0.2,3.1L385.3,210.3z"/>
		<path class="st4" d="M389.9,223.9c-0.3,0-0.5-0.1-0.7-0.3c-0.2-0.2-0.2-0.5-0.2-0.7c0.6-2.2,0.1-4.5-1.2-6.2
			c-1.1-1.4-2.7-2.3-4.2-2.3c-0.9,0-1.8,0.3-2.5,0.9c0,0-0.1,0.1-0.2,0.1c-0.4,0.2-0.3,1.8-0.2,2.9c0.1,1.4,0.2,2.9-0.2,4.2
			c-0.1,0.3-0.4,0.6-0.8,0.6h-2.5c-0.4,0-0.8-0.3-0.8-0.7c-0.6-4.8-0.4-9.1-0.1-13.6c0.1-2,0.2-4,0.3-6.1c0-0.2,0.1-0.4,0.3-0.6
			c0.2-0.1,0.4-0.2,0.6-0.2c0,0,9.1,0.4,9.1,0.4c0.1,0,0.3,0,0.4,0c2.3,0,4.6,1.3,5.6,3.2c0.7,1.3,0.7,2.6-0.1,3.7
			c-1.8,3.5-0.8,6.2,0.5,9.9c0.4,1.2,0.9,2.4,1.3,3.9c0.1,0.3,0,0.5-0.1,0.7c-0.2,0.2-0.4,0.3-0.7,0.3H389.9z M380.4,211.4
			c0.1,0,0.4,0.1,0.8,0.1c0.7,0,1.6-0.1,2.4-0.2c0.6-0.1,1.2-0.2,1.6-0.2c0.3,0,0.5,0,0.7,0c0.2,0,0.5,0,0.7,0l0.2-0.1
			c1.1-0.9,2.4-1.9,2.5-2.8c0-0.4-0.2-0.9-0.8-1.5c-0.9-0.6-2.1-0.9-3.8-0.9c-0.8,0-1.5,0-2.4,0.1c-0.6,0-1.2,0.1-1.8,0.1
			c0,0.6-0.1,1.3-0.2,1.9C380.2,209.3,380.1,210.6,380.4,211.4z"/>
		<path class="st4" d="M386.4,203c3.5-0.3,6.9,3.1,5.2,5.7c-2.5,5.1,0,8.5,1.7,14.4c-0.8,0-2.5,0-3.4,0c1.7-6.8-5.1-11.8-9.3-8.5
			c-1.7,0.8,0,5.1-0.8,7.6h-2.5c-0.8-6.8,0-12.7,0.1-19.6L386.4,203z M387,212c2.1-1.6,4.6-3.3,2.1-5.9c-2.5-1.7-5.9-0.8-9.3-0.8
			c0,2.5-0.8,5.1,0,6.8c0.8,0.8,4.2,0,5.5,0C385.9,212,386.4,212,387,212z"/>
		<path class="st4" d="M408.5,225.8c-0.4,0-0.7-0.3-0.8-0.7c-0.6-2.7-2.7-5.4-4.2-5.4c-0.4,0-0.7,0.2-1.1,0.5c0,0-0.1,0.1-0.1,0.1
			c-0.9,0.7-1.6,1.5-2.4,2.2c-1.6,1.6-3,3.2-6,3.2c-0.5,0-1.1,0-1.6-0.1c-0.3,0-0.5-0.2-0.6-0.5c-0.1-0.2-0.1-0.5,0-0.8
			c1.3-2.4,2.3-5.9,3.3-9.4c1.9-6.6,3.7-12.9,7.9-12.9c0.8,0,1.7,0.3,2.6,0.7c4,2.6,5.9,8.6,7.9,14.9c0.7,2.3,1.5,4.6,2.3,6.7
			c0.1,0.3,0.1,0.5-0.1,0.8c-0.2,0.2-0.4,0.4-0.7,0.4C415,225.6,408.5,225.8,408.5,225.8z"/>
		<path class="st4" d="M408.5,224.9c-0.8-3.6-4.2-7.8-6.7-5.3c-3.4,2.5-4.2,5.9-9.3,5.1c4.2-7.6,5.1-25.4,12.7-21.2
			c5.1,3.4,6.8,13.5,9.8,21.2L408.5,224.9z M404.3,213.7l-0.8-2.4l-0.9,2.4L404.3,213.7z"/>
		<path class="st4" d="M409.4,223.9c-0.4,0-0.8-0.3-0.8-0.7c-0.5-3.4-2.6-5.5-5.4-5.5c-1.2,0-2.4,0.4-3.5,1c0,0-0.1,0-0.1,0.1
			c-0.1,0.3-0.3,1.1-0.4,1.7c-0.2,1-0.4,2.1-0.8,3c-0.1,0.3-0.4,0.5-0.8,0.5H395c-0.2,0-0.5-0.1-0.6-0.3c-0.2-0.2-0.2-0.4-0.2-0.7
			c0.5-3.7,2.1-7.1,3.7-10.4c1.4-2.9,2.9-5.9,3.4-9c0.1-0.4,0.4-0.7,0.8-0.7c0,0,2.8,0,2.8,0c0.3,0,0.6,0.2,0.8,0.5
			c1,2.4,1.8,4.7,2.6,7.1c1.5,4.3,3,8.4,5.1,12.2c0.1,0.3,0.1,0.6,0,0.8c-0.2,0.3-0.4,0.4-0.7,0.4H409.4z M405.8,214.5
			c-0.2-1.2-0.8-2.3-1.5-3.4c-0.3-0.6-0.6-1.1-0.9-1.7c-0.3,0.6-0.6,1.1-0.9,1.7c-0.6,1.1-1.3,2.2-1.4,3.3L405.8,214.5z"/>
		<path class="st4" d="M404.9,203.7c2.7,6.6,4.4,13.4,7.8,19.3c-0.8,0-2.5,0-3.4,0c-0.8-5.9-5.9-7.6-10.2-5.1
			c-0.8,0-0.8,3.4-1.7,5.1c-0.8,0-1.7,0-2.5,0c0.8-6.8,5.9-12.7,7.1-19.4L404.9,203.7z M406.8,215.4c0.1-3.4-3.3-5.9-3.3-9.3
			c0,3.4-3.4,5.9-3.2,9.2L406.8,215.4z"/>
		<path class="st4" d="M413.7,225.7c-0.2,0-0.4-0.1-0.6-0.2c-0.2-0.2-0.3-0.4-0.3-0.6c0-1.8-0.1-3.6-0.1-5.3
			c-0.2-5.8-0.4-11.9,0.9-17.9c0.1-0.4,0.4-0.7,0.8-0.7h4.2c0.4,0,0.7,0.2,0.8,0.6c0.8,2.5,0.7,5.2,0.6,7.9c-0.1,3-0.2,5.9,1,8
			c0.3,0.4,2.4,0.4,3.5,0.4c2.2,0,4.2,0,4.9,1.2c0.6,0.6,1.9,2,1.4,3.4c-0.7,1.9-3.8,2.2-7.2,2.5c-0.6,0.1-1.3,0.1-1.9,0.2
			C417.8,225.5,413.8,225.7,413.7,225.7C413.7,225.7,413.7,225.7,413.7,225.7z"/>
		<path class="st4" d="M413.7,224.8c-0.1-7.7-0.9-15.3,0.8-23h4.2c1.7,5.1-0.8,11.8,1.7,16.1c0.8,1.7,7.6,0,8.5,1.7
			c4.2,4.2-2.5,4.2-7.1,4.8C417.7,224.7,413.7,224.8,413.7,224.8z"/>
		<path class="st4" d="M422.5,224.2c-1,0-2-0.1-2.9-0.2c-1-0.1-1.9-0.2-2.7-0.2c-0.5,0-1,0-1.4,0.1c-0.1,0-0.1,0-0.2,0
			c-0.2,0-0.4-0.1-0.5-0.2c-0.2-0.2-0.3-0.4-0.3-0.7c0-6.8,0-12.7,0.1-19.5c0-0.5,0.4-0.8,0.8-0.8c0,0,2.6-0.1,2.6-0.1
			c0.2,0,0.4,0.1,0.6,0.2c0.2,0.2,0.3,0.4,0.3,0.6c-0.1,5.5-0.1,11.1-0.1,16.6c1.2-0.4,2.6-0.6,4.2-0.6c0.9,0,1.7,0.1,2.6,0.1
			c0.8,0.1,1.7,0.1,2.5,0.1c0.3,0,0.6,0.2,0.7,0.4c0.1,0.3,0.1,0.6,0,0.9C426.8,223.9,424.3,224.2,422.5,224.2z"/>
		<path class="st4" d="M417.9,203.5c-0.1,6-0.1,11.9-0.1,17.8c3.4-1.7,6.8-0.8,10.2-0.8c-3.4,5.1-8.5,1.7-12.7,2.5
			c0-6.8,0-12.7,0.1-19.4L417.9,203.5z"/>
		<path class="st4" d="M436.9,224.9c-3.2,0-6.2-1.6-7.8-4.1c-1.3-2.1-1.4-4.4-0.3-6.6c0.1-0.3,0.4-0.5,0.8-0.5c0,0,0.7,0,1.7-0.1
			c-1.4-0.9-2.5-2.2-3.1-3.7c-0.8-2.1-0.5-4.3,0.7-6c0.1-0.1,0.1-0.1,0.2-0.2c0.5-0.4,1.1-0.7,1.6-1.1c2.1-1.5,4.4-3.2,7.3-3.2
			c3.3,0,6.6,1.7,8.2,4.2c1.2,1.9,1.3,4.2,0.2,6.3c-0.1,0.3-0.4,0.5-0.8,0.5h-0.5c1.9,1.4,3,3.5,3,5.9c0,5-4.3,6.9-6.8,8
			c0,0-0.1,0-0.1,0c-1.1,0.3-2.1,0.5-3.2,0.5C437.8,224.8,437.4,224.9,436.9,224.9z M435.2,215.7c0.2,1.1,1.9,1.9,3.3,1.9l0,0
			c0.6,0,1.1-0.2,1.3-0.4c0.1-0.2,0.1-0.4,0.1-0.7c0-0.1,0-0.1,0-0.2c0-0.4-1.3-0.7-4-1c-0.2,0-0.5-0.1-0.7-0.1V215.7z M435.7,207.7
			c0.5,0.4,1.5,0.4,2.4,0.5c0.5,0,0.9,0.1,1.4,0.1c0-0.1-0.1-0.2-0.1-0.3c-0.1-0.4-0.3-0.7-0.3-1c-0.3-0.1-0.7-0.2-1.2-0.2
			c-0.1,0-0.2,0-0.3,0C436.9,206.9,436.1,207.3,435.7,207.7z"/>
		<path class="st4" d="M438.1,223.9c-5.9,0.8-11-4.3-8.5-9.4c0,0,2.5,0,4.2-0.8c-4.2-0.8-6.8-5.9-4.2-9.3c2.5-1.7,5.1-4.2,8.5-4.2
			c5.1,0,10.2,4.2,7.6,9.3c0,0-2.5,0-4.2,0c3.4,0.8,5.9,3.4,5.9,6.8c0,4.2-3.4,5.9-6.3,7.2C440.1,223.7,439.1,223.9,438.1,223.9z
			 M434.3,215.8c0.4,3,7.2,3.9,6.4,0.5c0-1.7-4.2-1.7-6.4-2.1L434.3,215.8z M437.6,206c-1.2,0.1-2.9,1-2.9,1.8
			c0.8,1.7,4.2,0.8,5.9,1.7c0-0.8-0.8-2.5-0.8-3C439.4,206.1,438.6,205.9,437.6,206z"/>
		<path class="st4" d="M437.8,223.5c-2,0-4.1-0.5-6-1.4c-2.1-1.1-3.1-4.1-2.1-6.2c0.1-0.3,0.4-0.5,0.8-0.5c0.1,0,0.3,0,0.4,0.1
			c0.9,0.5,1.8,1.1,2.7,1.7c1.7,1.2,3.4,2.4,5.2,2.4c0.7,0,1.4-0.2,2.2-0.6c0.6-0.7,1.3-1.9,1.4-2.6c-1-2.1-3.4-2.5-5.9-2.8
			c-3-0.4-6.8-1-6.8-5.8c0-4.7,4.4-6.8,8.5-6.8c3,0,7.6,2.9,7.6,6.8c0,0.5-0.4,0.8-0.8,0.8c-0.8,0-1.6,0-2.3,0.2c-0.1,0-0.2,0-0.3,0
			c-0.2,0-0.3,0-0.5-0.1c-0.2-0.1-0.4-0.4-0.4-0.6c-0.1-1.1-0.5-1.9-1.1-2.3c-0.7-0.4-1.7-0.6-2.6-0.6c-1.3,0-2.4,0.4-2.9,1
			c-0.3,0.4-0.4,0.8-0.2,1.4c0.6,2,2.4,2.4,5.3,2.9c2.9,0.4,6.6,1,6.6,5.8c0,0,0,0.1,0,0.1C446,220.8,442.7,223.5,437.8,223.5z"/>
		<path class="st4" d="M440.9,205.1c-2.8-1.5-7.8-0.7-7,2.7c1.7,5.9,11.8,0.8,11.8,8.5c-0.8,6.8-8.5,7.6-13.5,5.1
			c-1.7-0.8-2.5-3.4-1.7-5.1c3.4,1.7,6.8,5.9,11,3.4c0.8-0.8,1.7-2.5,1.7-3.4c-2.5-5.9-12.7-0.8-12.7-8.5c0-4.2,4.2-5.9,7.6-5.9
			c2.5,0,6.8,2.5,6.8,5.9c-0.8,0-1.7,0-2.5,0.3C442.3,206.7,441.8,205.7,440.9,205.1z"/>
	</g>
	<g>
		<path class="st5" d="M343.3,223.7c-1.7,0-3.3-0.3-4.6-0.9c-1.3-0.6-2.5-1.5-3.4-2.6c-0.9-1.1-1.5-2.3-2-3.8
			c-0.4-1.4-0.6-2.9-0.6-4.4c0-1.6,0.2-3.1,0.7-4.5c0.5-1.4,1.1-2.7,2-3.8c0.9-1.1,2.1-2,3.4-2.6c1.4-0.6,2.9-1,4.6-1
			c1.2,0,2.3,0.2,3.3,0.5c1.1,0.3,2.1,0.8,2.9,1.4c0.9,0.7,1.6,1.5,2.2,2.4c0.6,1,1,2.1,1.1,3.3l0.3,1.9h-5.9l-0.3-1.3
			c-0.2-0.9-0.6-1.6-1.2-2c-0.7-0.5-1.5-0.7-2.5-0.7c-0.9,0-1.6,0.2-2.2,0.5c-0.6,0.3-1.1,0.7-1.4,1.2c-0.4,0.6-0.7,1.2-0.9,1.9
			c-0.2,0.8-0.3,1.6-0.3,2.5c0,0.9,0.1,1.9,0.3,2.7c0.2,0.8,0.5,1.4,0.9,2c0.4,0.5,0.9,0.9,1.4,1.2c0.6,0.3,1.3,0.5,2.2,0.5
			c0.6,0,1.1-0.1,1.6-0.3c0.4-0.2,0.8-0.4,1.1-0.8c0.3-0.3,0.6-0.7,0.8-1.2c0.2-0.5,0.3-1.1,0.4-1.7l0.1-1.6h6l-0.2,1.9
			c-0.3,2.8-1.3,5.1-3,6.7C348.5,222.9,346.2,223.7,343.3,223.7z"/>
		<path class="st5" d="M346.9,205.1c-1-0.7-2.1-1-3.5-1c-1.1,0-2.1,0.2-2.9,0.6c-0.8,0.4-1.5,1-2,1.7c-0.5,0.7-0.9,1.6-1.2,2.5
			c-0.3,0.9-0.4,1.9-0.4,2.9c0,1.1,0.1,2.1,0.4,3.1c0.3,1,0.6,1.8,1.2,2.6c0.5,0.7,1.2,1.3,2,1.7c0.8,0.4,1.8,0.6,3,0.6
			c0.8,0,1.6-0.1,2.2-0.4c0.7-0.3,1.2-0.7,1.7-1.2c0.5-0.5,0.8-1.1,1.1-1.8c0.3-0.7,0.4-1.4,0.5-2.2h2.6c-0.3,2.4-1.1,4.3-2.5,5.7
			c-1.4,1.3-3.4,2-5.8,2c-1.5,0-2.8-0.3-3.9-0.8c-1.1-0.5-2-1.2-2.8-2.1c-0.7-0.9-1.3-2-1.7-3.2c-0.4-1.2-0.6-2.5-0.6-3.9
			c0-1.4,0.2-2.7,0.6-3.9c0.4-1.2,1-2.3,1.7-3.2c0.8-0.9,1.7-1.6,2.9-2.2c1.1-0.5,2.4-0.8,3.9-0.8c1,0,2,0.1,2.9,0.4
			c0.9,0.3,1.7,0.7,2.4,1.2c0.7,0.5,1.3,1.2,1.8,2c0.5,0.8,0.8,1.7,0.9,2.7h-2.6C348.6,206.8,347.9,205.8,346.9,205.1z"/>
		<path class="st5" d="M363.9,223.7c-1.8,0-3.4-0.3-4.7-1c-1.4-0.7-2.5-1.6-3.5-2.7c-0.9-1.1-1.6-2.4-2-3.8
			c-0.4-1.4-0.7-2.8-0.7-4.3c0-1.5,0.2-2.9,0.7-4.3c0.5-1.4,1.1-2.7,2-3.8c0.9-1.1,2.1-2,3.4-2.7c1.4-0.7,3-1,4.7-1
			c1.8,0,3.4,0.3,4.8,1c4.3,2.4,6,6.6,6,10.9c0,4.2-1.7,8.5-6,10.7C367.3,223.4,365.7,223.7,363.9,223.7z M363.9,205.8
			c-0.9,0-1.6,0.2-2.2,0.5c-0.6,0.3-1.1,0.8-1.5,1.3c-0.4,0.6-0.7,1.3-0.9,2c-0.2,0.8-0.3,1.6-0.3,2.4c0,0.8,0.1,1.6,0.3,2.4
			c0.2,0.7,0.5,1.4,0.9,2c0.4,0.5,0.9,1,1.5,1.3c0.6,0.3,1.3,0.5,2.2,0.5s1.6-0.2,2.2-0.5c3.4-2.3,3.4-9,0-11.5
			C365.5,205.9,364.8,205.8,363.9,205.8z"/>
		<path class="st5" d="M355.3,208.2c0.4-1.2,1-2.3,1.7-3.2c0.8-0.9,1.7-1.7,2.9-2.2c1.1-0.6,2.5-0.8,4-0.8c1.5,0,2.9,0.3,4,0.8
			c6.7,3.4,7.5,15.3,0,18.5c-1.2,0.5-2.5,0.8-4,0.8c-1.5,0-2.9-0.3-4-0.8c-1.1-0.5-2.1-1.3-2.9-2.2c-0.8-0.9-1.4-2-1.7-3.2
			c-0.4-1.2-0.6-2.5-0.6-3.8S354.9,209.4,355.3,208.2z M357.7,214.9c0.3,0.9,0.6,1.8,1.2,2.5c0.5,0.8,1.2,1.4,2.1,1.8
			c0.8,0.5,1.8,0.7,3,0.7s2.2-0.2,3-0.7c5.2-3.8,4.3-10.5,0-14.5c-0.8-0.5-1.8-0.7-3-0.7s-2.2,0.2-3,0.7c-0.8,0.5-1.5,1.1-2.1,1.8
			c-0.5,0.8-0.9,1.6-1.2,2.5c-0.3,0.9-0.4,1.9-0.4,2.9C357.3,213,357.4,213.9,357.7,214.9z"/>
		<path class="st5" d="M389.3,224.3c-2-4.6-2-11.4-7.1-8c-1.7,0.8,0,5.1-1.7,7.6c0,0.8-4.2,0-4.2,0c-1.7-7.6-0.8-15.2-0.8-22.9
			c5.9,0,14.4-1.7,17.8,4.2c2.5,5.9-3.4,14.4,3.3,19.4L389.3,224.3z M385.2,210.4c1.2,0.1,3.8,0.1,2.9-1.6c-1.7-2.5-4.2-2.5-6.8-1.7
			c0,0.8,0,2.5,0.2,3.1L385.2,210.4z"/>
		<path class="st5" d="M386.4,203.1c3.5-0.3,6.9,3.1,5.2,5.7c-2.5,5.1,0,8.5,1.7,14.4c-0.8,0-2.5,0-3.4,0c1.7-6.8-5.1-11.8-9.3-8.5
			c-1.7,0.8,0,5.1-0.8,7.6h-2.5c-0.8-6.8,0-12.7,0.1-19.6L386.4,203.1z M386.9,212c2.1-1.6,4.6-3.3,2.1-5.9
			c-2.5-1.7-5.9-0.8-9.3-0.8c0,2.5-0.8,5.1,0,6.8c0.8,0.8,4.2,0,5.5,0C385.8,212.1,386.4,212.1,386.9,212z"/>
		<path class="st5" d="M408.4,225c-0.8-3.6-4.2-7.8-6.7-5.3c-3.4,2.5-4.2,5.9-9.3,5.1c4.2-7.6,5.1-25.4,12.7-21.2
			c5.1,3.4,6.8,13.5,9.8,21.2L408.4,225z M404.3,213.7l-0.8-2.4l-0.9,2.4L404.3,213.7z"/>
		<path class="st5" d="M404.9,203.8c2.7,6.6,4.4,13.4,7.8,19.3c-0.8,0-2.5,0-3.4,0c-0.8-5.9-5.9-7.6-10.2-5.1
			c-0.8,0-0.8,3.4-1.7,5.1c-0.8,0-1.7,0-2.5,0c0.8-6.8,5.9-12.7,7.1-19.4L404.9,203.8z M406.7,215.5c0.1-3.4-3.3-5.9-3.3-9.3
			c0,3.4-3.4,5.9-3.2,9.2L406.7,215.5z"/>
		<path class="st5" d="M413.7,224.9c-0.1-7.7-0.9-15.3,0.8-23h4.2c1.7,5.1-0.8,11.8,1.7,16.1c0.8,1.7,7.6,0,8.5,1.7
			c4.2,4.2-2.5,4.2-7.1,4.8C417.7,224.8,413.7,224.9,413.7,224.9z"/>
		<path class="st5" d="M417.9,203.6c-0.1,6-0.1,11.9-0.1,17.8c3.4-1.7,6.8-0.8,10.2-0.8c-3.4,5.1-8.5,1.7-12.7,2.5
			c0-6.8,0-12.7,0.1-19.4L417.9,203.6z"/>
		<path class="st5" d="M438.1,224c-5.9,0.8-11-4.3-8.5-9.4c0,0,2.5,0,4.2-0.8c-4.2-0.8-6.8-5.9-4.2-9.3c2.5-1.7,5.1-4.2,8.5-4.2
			c5.1,0,10.2,4.2,7.6,9.3c0,0-2.5,0-4.2,0c3.4,0.8,5.9,3.4,5.9,6.8c0,4.2-3.4,5.9-6.3,7.2C440.1,223.8,439.1,224,438.1,224z
			 M434.3,215.8c0.4,3,7.2,3.9,6.4,0.5c0-1.7-4.2-1.7-6.4-2.1L434.3,215.8z M437.6,206.1c-1.2,0.1-2.9,1-2.9,1.8
			c0.8,1.7,4.2,0.8,5.9,1.7c0-0.8-0.8-2.5-0.8-3C439.3,206.2,438.6,206,437.6,206.1z"/>
		<path class="st5" d="M440.9,205.2c-2.8-1.5-7.8-0.7-7,2.7c1.7,5.9,11.8,0.8,11.8,8.5c-0.8,6.8-8.5,7.6-13.5,5.1
			c-1.7-0.8-2.5-3.4-1.7-5.1c3.4,1.7,6.8,5.9,11,3.4c0.8-0.8,1.7-2.5,1.7-3.4c-2.5-5.9-12.7-0.8-12.7-8.5c0-4.2,4.2-5.9,7.6-5.9
			c2.5,0,6.8,2.5,6.8,5.9c-0.8,0-1.7,0-2.5,0.3C442.2,206.7,441.7,205.8,440.9,205.2z"/>
	</g>
</g>
</svg>
