<?xml version="1.0" encoding="utf-8"?>
<!-- Generator: Adobe Illustrator 26.0.1, SVG Export Plug-In . SVG Version: 6.00 Build 0)  -->
<svg version="1.1" id="win" xmlns="http://www.w3.org/2000/svg" xmlns:xlink="http://www.w3.org/1999/xlink" x="0px" y="0px"
	 viewBox="0 0 400 400" style="enable-background:new 0 0 400 400;" xml:space="preserve">
<style type="text/css">
	.st0{fill:#754D25;stroke:#633F1F;stroke-width:0.4298;stroke-miterlimit:10;}
	.st1{fill:#8C6239;}
	.st2{fill:#603813;}
	.st3{fill:#A67C52;}
</style>
<g>
	<g>
		<path class="st0" d="M129.6,247.4c-7.3-1.5-15.2-2.7-23-1.1c-1.8-10-1.4-19.6-0.2-29.8c0-1.3,0.1-2.5,0.1-3.8
			c0.2-6.4,0.3-12.8,0.1-19.2c0-2.9-0.1-5.8-0.3-8.8c-0.4-5.8-1.1-11.7-2-17.6c-0.1-1.5-0.2-3-0.3-4.4c-0.5-8.9,0.1-17.5,5.8-24.6
			c1-0.7,2.3-1.3,3.7-1.8c2.8-0.9,6.5-1.1,11.1-0.6c1.8,0,3.5,0.1,5,0.1c1.5,0.1,2.7,0.1,3.7,0.1c1.7,0,3.3,0,5,0.1
			c15.4,3.4,30.2,1,45.4-0.7c1.5,0,3,0,4.5,0s3,0,4.5,0.1c1.8,0,3.5,0,5.3-0.1c1.7,0,3.5,0,5.2-0.1c15.7-1.4,31.4-1.4,47.3-0.2
			c1.7,0,3.4,0,5.2,0c17.5,0.2,35,0.6,52.4,1.5c1,0.1,2.1,0.2,2.8,0.8c0.6,0.6,0.7,1.4,0.7,2.2c1,14.5,1.5,28.9-0.3,43.2
			c-0.1,1.4-0.1,2.8-0.2,4.1c-0.2,6.9-0.1,13.8,0.5,20.8c0.2,0.9,0.4,1.7,0.6,2.6c0.7,2.6,1.3,5.2,1.3,7.8c0.9,10-4.2,19.6-2.3,29.6
			c-2.8,0-5.1,0-7.6,0c-1.3,0-2.5,0-3.8,0c-6.4,0.1-12.7,0.2-19.1,0.6c-1.1,0-2.1,0.1-3.2,0.1c-3.2,0.1-6.5,0.2-9.9,0.4
			c-1.2,0-2.3,0.1-3.5,0.1c-16.6-0.9-33.7,1.1-50.4-1.1c-1.2-0.1-2.3-0.3-3.5-0.4c-1.2-0.1-2.3-0.2-3.5-0.3
			c-1.6-0.1-3.1-0.2-4.7-0.3c-17.3-2.4-34.4-0.8-52.2,1.1c-1.6,0.1-3.2,0.1-4.8,0.1c-1.7,0-3.4,0.1-5.1,0.1c-1.7,0-3.4-0.1-5.1-0.2
			C133.2,248,131.4,247.7,129.6,247.4z"/>
		<g>
			<g>
				<path class="st1" d="M110.3,168.3c3.6-1,7.5-0.4,11.2-0.2c1.8,0.1,3.8,0.1,5.6-0.2c1.9-0.2,4.1-1.1,5.4-2.5
					c1.1-1.2,2-2.5,3.1-3.7c1-1,2-2,3.2-2.8c2.5-1.8,5.3-2.9,8.3-3.6c2.1-0.5,2.7-3.9,0.6-4.8c-3.2-1.4-6.4-1.8-9.9-1.9
					c-1.6,0-3.1-0.2-4.7-0.3c-1.6-0.2-3.2,0-4.8,0.3c-5.5,0.8-11.9,1.4-17-1.1c-1.3-0.6-2.9-0.3-3.6,0.9c-0.7,1.2-0.3,3,0.9,3.6
					c5.7,2.8,12.2,2.8,18.4,2c1.4-0.2,2.9-0.5,4.4-0.5c1.5,0,3,0.3,4.6,0.4c3,0.1,6.3-0.1,9.1,1.2c0.2-1.6,0.4-3.2,0.6-4.8
					c-6.4,1.5-11.8,5.1-15.9,10.3c-0.9,1.2-1.6,2.1-3.4,2.3c-1.9,0.1-3.8,0.1-5.7,0c-3.9-0.2-7.8-0.6-11.7,0.5
					C105.6,164.1,107,169.2,110.3,168.3L110.3,168.3z"/>
			</g>
		</g>
		<g>
			<g>
				<path class="st1" d="M110.7,142.9c3.4,0.4,6.7,0.7,10.1,0.2c3.1-0.4,6.5-0.6,9.6,0.1c1.7,0.4,3.5,0.4,5.1,0.8
					c1.8,0.4,3.5,0.8,5.3,1.2c3.5,0.8,7.1,1.6,10.6,2.4c6.6,1.5,13.2,2.8,19.8,4c6.3,1.2,12.6,2.6,18.6,4.6
					c6.3,2.2,12.5,5.3,16.9,10.5c0.4-1.5,0.8-2.9,1.2-4.4c-4.2,1.4-8.8,1.6-13,3c-1.7,0.6-2.8,3-1.2,4.4c1.2,1,2.3,2,3.5,3
					c0.4-1.5,0.8-2.9,1.2-4.4c-11.6,2.4-23.6,2.2-35.4,2.6c-6,0.2-12,0.6-18,1.5c-2.9,0.4-5.9,1-8.7,1.8c-1.4,0.4-2.7,0.9-4.1,1.2
					c-1.5,0.3-3.3,0.1-4.8-0.1c-6.8-0.7-13.5-2.8-20.4-2.1c-1.4,0.1-2.6,1.1-2.6,2.6c0,1.3,1.2,2.8,2.6,2.6c6.3-0.6,12.4,1,18.5,1.8
					c3.1,0.4,6.2,0.6,9.2-0.3c2.8-0.9,5.8-1.6,8.7-2.1c11.8-2.2,23.9-1.8,35.8-2.3c6.9-0.3,13.8-0.9,20.5-2.3
					c1.9-0.4,2.6-3.1,1.2-4.4c-1.2-1-2.3-2-3.5-3c-0.4,1.5-0.8,2.9-1.2,4.4c4.2-1.4,8.8-1.6,13-3c2-0.7,2.5-2.9,1.2-4.4
					c-8.6-10-22.6-13.4-34.9-15.9c-6.6-1.3-13.3-2.5-19.9-4c-3.6-0.8-7.1-1.6-10.7-2.4c-3.7-0.9-7.5-1.9-11.3-2.4
					c-2-0.2-4-0.7-6.1-0.9c-1.8-0.1-3.7,0-5.5,0.1c-1.9,0.1-3.8,0.5-5.8,0.4c-2,0-3.9-0.3-5.8-0.5c-1.4-0.2-2.6,1.3-2.6,2.6
					C108,141.9,109.2,142.8,110.7,142.9L110.7,142.9z"/>
			</g>
		</g>
		<g>
			<g>
				<path class="st1" d="M308.1,164.7c-3.8,1.2-7.6,2.6-11.3,4.2c-3.7,1.6-7.5,3.1-11.3,4.7c-1.5,0.6-3.3,1.5-3.8,3.2
					c-0.6,2.2,1.2,3.6,3.1,4.1c1.9,0.5,3.8,0.6,5.7,0.9c1.7,0.3,3.2,1.1,4.8,1.8c4.1,1.7,8.4,2.7,12.7,1c1.3-0.5,2.2-1.8,1.8-3.2
					c-0.3-1.2-1.9-2.4-3.2-1.8c-3.5,1.4-6.7,0.4-10.1-1.1c-0.9-0.4-1.7-0.8-2.6-1.1c-1-0.4-2.1-0.6-3.1-0.8c-1-0.2-2-0.3-3-0.5
					c-0.4-0.1-0.8-0.1-1.2-0.2c-0.2,0-0.4-0.1-0.7-0.2c0.4,0.2,0.7,0.6,0.9,1.2c0,0.5,0,0.9,0,1.4c-0.1,0.3-0.2,0.6-0.5,0.8
					c0.2-0.1,0.3-0.2,0.5-0.3c0.4-0.2,0.8-0.4,1.3-0.6c1-0.4,2-0.8,3-1.2c2.1-0.9,4.2-1.7,6.2-2.6c4-1.7,8-3.3,12.2-4.6
					C312.8,168.8,311.4,163.7,308.1,164.7L308.1,164.7z"/>
			</g>
		</g>
		<g>
			<g>
				<path class="st1" d="M310.6,158.4c-5.2,0.7-10.3,2.4-15.2,4.2c-5,1.9-10,3.8-15,5.6c-2.7,1-5.5,1.9-8.3,2.9
					c-2.5,0.8-5,1.8-7.5,2.6c-5,1.6-10.1,2.7-15.2,3.9c-5.8,1.4-11.5,3-16.9,5.5c-1,0.5-1.5,1.9-1.2,3c0.3,1.2,1.4,1.9,2.5,1.9
					c9.7,0.6,19.3,1.6,28.4,5.4c2.2,0.9,4.1,1.9,6.5,2.2c2.2,0.3,4.5,0,6.7-0.2c2.3-0.3,4.6-0.7,7-0.8c2.7-0.1,5.4-0.4,8.1-0.8
					c5.9-0.9,11.7-2.6,17.6-4c3.3-0.8,1.9-5.9-1.4-5.1c-5.2,1.2-10.3,2.7-15.5,3.6c-4.9,0.9-9.9,1-14.9,1.7
					c-2.1,0.3-4.2,0.6-6.3,0.5c-2.1-0.1-3.8-1.1-5.8-1.9c-4.5-1.9-9.2-3.3-14-4.1c-5.5-1-11-1.4-16.5-1.7c0.4,1.6,0.9,3.3,1.3,4.9
					c9.3-4.3,19.6-5.4,29.4-8.3c2.6-0.8,5.1-1.8,7.6-2.6c2.6-0.8,5.2-1.7,7.8-2.6c5-1.8,10-3.6,15-5.5c5.5-2.2,11.1-4.1,17.1-4.9
					c1.4-0.2,2.2-2,1.8-3.2C313.4,158.7,312,158.2,310.6,158.4L310.6,158.4z"/>
			</g>
		</g>
		<g>
			<g>
				<path class="st1" d="M108,239.8c8.5-6.5,20-4.1,29.9-5.9c1.4-0.2,2.8-0.6,4.1-1.1c1.5-0.5,3.3-0.9,4.2-2.3
					c1.2-2,0.8-4.4-1.3-5.4c-0.9-0.4-1.8-0.5-2.7-0.6c-0.3,0-0.6-0.1-1-0.1c-0.2,0-0.4,0-0.6-0.1c-0.1,0-0.1,0-0.2,0
					c0.4,0.1,0.4,0.1,0.2,0c0,0-0.3-0.1-0.3-0.1c-0.3,0,0.5,0.2,0.6,0.4c-0.4-0.7-1.8-0.8-2.5-0.9c-1.6-0.3-3.1-0.5-4.6-0.8
					c-7.2-1.4-14.5-2.4-21.7-3.4c-1.4-0.2-2.8,0.3-3.2,1.8c-0.3,1.2,0.4,3,1.8,3.2c9.3,1.3,18.5,2.9,27.7,4.5
					c-0.4-0.2-0.8-0.5-1.2-0.7c1.3,1.1,2.7,1.1,4.3,1.3c0.3,0,0.6,0,0.8,0.1c-0.7-0.1,0.2,0.1,0.3,0.1c0.3,0-0.4-0.3-0.1-0.1
					c-0.2-0.2-0.4-0.3-0.6-0.6c-0.3-0.5-0.1-1-0.2-1.5c0.1-0.2,0.1-0.2,0,0c-0.1,0.1-0.1,0.2-0.2,0.3c0.3-0.3,0.6-0.6,0.9-0.9
					c-5.7,2.7-12.5,2.3-18.6,2.7c-6.5,0.4-13.2,1.4-18.5,5.5c-1.1,0.9-1.7,2.3-0.9,3.6C105,240,106.8,240.7,108,239.8L108,239.8z"/>
			</g>
		</g>
		<g>
			<g>
				<path class="st1" d="M108.3,215.7c5.2,1.3,10.6,2.5,16,3c5.7,0.5,11.3,0.4,17,0.7c5.4,0.2,10.9,0.4,16.2,1.6
					c2.5,0.6,4.9,1.3,7.4,2c2.4,0.7,4.9,1.3,7.3,2.1c2.2,0.7,4.5,1.5,6.6,2.5c1,0.4,2,0.9,2.8,1.6c0.5,0.4,0.2,0.2,0.2,0.2
					c-1.1,0.3,0.1-2.1,0.2-2c-0.1,0-1,0.9-1.1,1c-2.9,2.3-6.8,3.5-10.6,4.4c-4.3,1-8.7,1.6-13.1,2.3c-4.6,0.7-9.1,1.8-13.7,2.6
					c-2.8,0.5-5.6,0.9-8.4,0.8c-2.8,0-5.6-0.3-8.4-0.5c-6-0.4-11.9-0.3-17.5,2.3c-1.4,0.6-1.8,2.7-1,3.9c0.8,1.4,2.5,1.7,3.9,1
					c4.7-2.2,10-1.9,15-1.5c2.7,0.2,5.3,0.4,8,0.5c2.9,0,5.7-0.3,8.6-0.8c4.9-0.8,9.8-1.9,14.7-2.7c4.6-0.7,9.2-1.3,13.7-2.4
					c4.3-1,8.7-2.6,12.2-5.3c2.1-1.6,4-3.7,2.5-6.5c-1.2-2.1-3.9-3.3-6.1-4.2c-5-2.1-10.2-3.5-15.5-5c-2.6-0.8-5.2-1.5-7.9-2
					c-2.9-0.5-5.9-0.7-8.8-1c-3.4-0.3-6.8-0.5-10.2-0.6c-3.3-0.1-6.6,0-9.9-0.2c-3.1-0.3-6.1-0.5-9.2-1.1c-3.2-0.6-6.3-1.2-9.5-2
					C106.3,209.3,104.7,214.8,108.3,215.7L108.3,215.7z"/>
			</g>
		</g>
		<g>
			<g>
				<path class="st1" d="M306.5,226.7c-0.3,0.2-0.6,0.3-0.9,0.5c-0.2,0.1-0.6,0.4-0.8,0.4c0.1,0,0.2-0.1,0.3-0.1
					c-0.1,0-0.2,0.1-0.3,0.1c-0.2,0.1-0.3,0.1-0.5,0.2c-0.3,0.1-0.7,0.2-1,0.3c-1.3,0.4-2.6,0.8-3.9,1.2c-1.4,0.5-2.7,1.1-3.9,2.1
					c-0.5,0.4-1,0.9-1.4,1.5c-0.2,0.2-0.3,0.5-0.4,0.7c-0.6,1.3-0.2,0.5-0.1,0.2c-0.1,0.3-0.3,0.6-0.4,0.9c-0.4,1.2-0.3,2.6,0.3,3.7
					c0.7,1.1,1.6,1.7,2.8,2.1c1.9,0.7,4.2,0.6,6.2,0.5c2.2-0.1,4.4-0.4,6.6-0.3c1.4,0.1,2.7-1.3,2.6-2.6c-0.1-1.5-1.2-2.5-2.6-2.6
					c-1.8-0.1-3.5,0.1-5.3,0.2c-1,0.1-1.9,0.1-2.9,0.1c-0.4,0-0.9,0-1.3,0c-0.2,0-0.4,0-0.6,0c-0.1,0-0.2,0-0.4,0
					c-0.5,0,0.7,0.1,0.2,0c-0.3-0.1-0.7-0.1-1-0.2c-0.1,0-0.2-0.1-0.3-0.1c0,0,0.6,0.3,0.4,0.2c-0.1-0.1-0.3-0.2-0.4-0.3
					c0.4,0.1,0.6,0.5,0.3,0.2c0,0-0.1-0.1-0.1-0.1c0.3,0.2,0.4,0.6,0.3,0.4c-0.1-0.2-0.2-0.5,0.1,0.4c-0.2-0.5,0,0.5,0,0.2
					c0-0.1,0-0.1,0-0.2c0-0.4-0.2,0.8,0,0.2c0-0.1,0.2-0.4,0.2-0.5c0,0.1-0.1,0.1-0.1,0.2c-0.2,0.4-0.1,0.3,0.2-0.4
					c-0.3,0.8-0.1,0.3,0,0.1c0-0.1,0.1-0.2,0.1-0.2c0.2-0.4-0.4,0.4-0.1,0.2c0.2-0.2,0.3-0.4,0.5-0.5c0.4-0.4-0.5,0.3-0.1,0.1
					c0.1-0.1,0.2-0.1,0.2-0.2c0.2-0.1,0.4-0.3,0.6-0.4c0.2-0.1,0.5-0.2,0.7-0.3c-0.5,0.4-0.3,0.1,0,0c0.2-0.1,0.3-0.1,0.5-0.2
					c2.7-1,5.7-1.6,8.2-3.1c1.2-0.7,1.7-2.4,0.9-3.6C309.4,226.5,307.8,226,306.5,226.7L306.5,226.7z"/>
			</g>
		</g>
		<g>
			<g>
				<path class="st1" d="M308.7,222.6c-3.9,1.6-8,2.9-12.2,3.5c-4.4,0.6-8.9,0.3-13.3,0.2c-4.5-0.1-9-0.2-13.6,0
					c-4.3,0.2-8.6,0.4-12.9,0.7c-5.1,0.3-10.3,0-15.1,2.3c-0.9,0.4-1.4,1.7-1.3,2.6c0.2,1.1,0.9,1.8,1.9,2.2c5.2,2,11,1.8,16,4.1
					c-0.2-1.4-0.4-2.8-0.5-4.1c-0.9,1-2.3,1.5-3.1,2.9c-1.3,2.2,0.3,4.4,2.6,5c1.7,0.5,3.6,0.6,5.3,0.8c1.9,0.2,3.7,0.4,5.6,0.6
					c8.6,0.8,17.2,1.6,25.7,2.5c2.2,0.2,4.4,0.5,6.5,0.9c2.3,0.4,4.5,1,6.8,1.2c1.4,0.1,2.6-1.3,2.6-2.6c0-1.5-1.2-2.5-2.6-2.6
					c-1.9-0.2-3.8-0.7-5.7-1c-2.1-0.4-4.2-0.6-6.3-0.9c-4.5-0.5-9-0.9-13.4-1.4c-4.4-0.5-8.7-0.9-13.1-1.2c-1.9-0.2-3.8-0.3-5.7-0.6
					c-0.9-0.1-1.7-0.2-2.6-0.4c-0.4-0.1-0.7-0.1-1.1-0.2c-0.2,0-0.5-0.1-0.7-0.1c-0.6-0.2-0.5,0,0.3,0.5c0.1,0.4,0.2,0.9,0.4,1.3
					c-0.5,0.9-0.6,1.2-0.3,0.9c0.1-0.1,0.1-0.1,0,0c0.2-0.1,0.4-0.3,0.6-0.4c0.6-0.4,1.2-0.8,1.6-1.4c1-1.2,1.1-3.4-0.5-4.1
					c-5.5-2.5-11.6-2.5-17.3-4.7c0.2,1.6,0.4,3.2,0.6,4.8c3.7-1.8,8.4-1.3,12.4-1.5c4.3-0.3,8.6-0.5,12.9-0.7c4.5-0.2,9,0,13.6,0
					c4.5,0.1,9,0.3,13.4-0.3c5.1-0.7,10-2.2,14.8-4.2c1.3-0.6,1.6-2.5,0.9-3.6C311.5,222.2,310,222.1,308.7,222.6L308.7,222.6z"/>
			</g>
		</g>
		<g>
			<g>
				<path class="st1" d="M111.9,208.9c1.5-2.4,3.1-4.3,5-6.5c1.9-2.4,3.9-4.7,5-7.6c1.1-2.7,1.3-5.9-1.3-7.8c-1.6-1.1-3.7-1.2-5.6-1
					c-2.4,0.3-4.7,1-6.9,2.1c-1.3,0.6-1.6,2.4-0.9,3.6c0.8,1.3,2.3,1.6,3.6,0.9c0.2-0.1,0.4-0.2,0.6-0.3c0.3-0.1,0.2-0.1-0.1,0.1
					c0.1,0,0.2-0.1,0.3-0.1c0.5-0.2,1-0.4,1.5-0.5c0.5-0.2,1-0.3,1.6-0.4c0.3-0.1,0.5-0.1,0.8-0.1c-0.7,0.1,0.1,0,0.3,0
					c0.5,0,1,0,1.5,0c0.5,0-0.6-0.2,0.1,0c0.1,0,0.5,0.1,0.6,0.2c-0.4-0.2-0.5-0.2-0.2-0.1c0.1,0,0.2,0.1,0.2,0.1
					c-0.3-0.3-0.4-0.3-0.2-0.1c0.2,0.2,0.1,0.1-0.2-0.2c0.4,0.5-0.2-0.4,0,0c0.1,0.2,0,0.2,0-0.1c0,0.1,0,0.3,0,0.4c0,0.2,0,0.2,0,0
					c0,0.2-0.1,0.4-0.1,0.6c-0.1,0.4-0.2,0.7-0.3,1.1c-0.1,0.3-0.1,0.4-0.1,0.2c-0.1,0.2-0.2,0.4-0.3,0.5c-0.2,0.4-0.4,0.7-0.6,1
					c-0.8,1.4-1.6,2.2-2.6,3.4c-2.1,2.6-4.3,5.1-6.1,7.9c-0.8,1.2-0.2,2.9,0.9,3.6C109.6,210.5,111.1,210.1,111.9,208.9L111.9,208.9
					z"/>
			</g>
		</g>
		<g>
			<g>
				<path class="st1" d="M267.2,135.7c-0.9,0.1-1.9,0.3-2.6,1c-1.3,1.3-0.9,3.5,0.7,4.3c0.8,0.4,1.8,0.5,2.7,0.6
					c1.2,0.2,2.4,0.3,3.7,0.4c7.2,0.6,14.3,0.9,21.5,1.4c5,0.4,9.9,0.5,14.7,2.2c-0.6-1.1-1.2-2.2-1.8-3.2c0,0.1,0,0.2-0.1,0.2
					c0.2-0.4,0.5-0.8,0.7-1.2c-0.5,0.5-0.8,0.9-1,1.6c-0.8,3.3,4.3,4.7,5.1,1.4c0-0.1,0-0.1,0-0.2c-0.2,0.4-0.5,0.8-0.7,1.2
					c0.5-0.5,0.8-1,1-1.7c0.4-1.4-0.5-2.8-1.8-3.2c-4.5-1.7-9.3-2-14.1-2.3c-4-0.2-8.1-0.6-12.1-0.8c-3.5-0.2-7-0.4-10.5-0.7
					c-1.3-0.1-2.5-0.2-3.8-0.4c-0.5-0.1,0.5,0.1-0.2,0c-0.2,0-0.4-0.1-0.6-0.1c-0.1,0-0.3-0.1-0.4-0.1c-0.3-0.1-0.1,0,0.4,0.2
					c-0.6-0.3-0.2,0.2,1.1,1.4c0,0.5,0,0.9,0,1.4c-0.1,0.2-1.2,1.7-1.5,1.7c0.1,0,0.2-0.1,0.3-0.1c0.3,0,0.6-0.1,0.9-0.1
					c1.4-0.2,2.2-2,1.8-3.2C270,136,268.6,135.5,267.2,135.7L267.2,135.7z"/>
			</g>
		</g>
		<g>
			<g>
				<path class="st1" d="M214.2,140.7c6.6-0.2,13.1,0.3,19.6,1.2c6.5,1,13,2.4,19.5,3.5c11.3,1.9,22.6,3.1,34,3.9
					c7.1,0.5,14.3-0.6,21.4,0.3c1.4,0.2,2.6-1.3,2.6-2.6c0-1.6-1.2-2.5-2.6-2.6c-6.3-0.7-12.5,0-18.8-0.2c-3.3-0.1-6.5-0.5-9.8-0.7
					c-3-0.2-6.1-0.5-9.1-0.8c-5.1-0.5-9.9-1.2-15-2.1c-6.4-1.1-12.7-2.5-19.1-3.5c-7.5-1.2-15.1-1.9-22.7-1.6
					C210.9,135.5,210.8,140.8,214.2,140.7L214.2,140.7z"/>
			</g>
		</g>
	</g>
	<g>
		<path class="st2" d="M164.7,202.9C161,200,162,196,161,192c-2,4,0,14-8,9c-6-3-9-15-7-21c3-7,9,2,9,7c1-3,1-6,2-8c6-5,10,3,10,8
			c0-5,6-13,7-8c2,7,0,17-5.7,24.1L164.7,202.9z"/>
		<path class="st2" d="M164.7,201.9C161,198,162,193,161,188c-3,4-1,12-5,13c-9,1-7-15-10-22c9-3,5,7,9,12c2-5,2-17,8-11
			c3,2,2,8,4,12c1-4,4-18,6-11c3,5-1,14-4.6,21L164.7,201.9z"/>
		<path class="st2" d="M164.7,201.9C161,198,162,193,161,188c-3,4-1,12-5,13c-9,1-7-15-10-22c9-3,5,7,9,12c2-5,2-17,8-11
			c3,2,2,8,4,12c1-4,4-18,6-11c3,5-1,14-4.6,21L164.7,201.9z"/>
		<path class="st2" d="M147,179.8c8-0.8,5,11.2,8,16.2c0-6,4-11,4-17c8,1,5,12,8,17c4-5-2-12,7-16c-4,6,0,17-9,21c-1-6-3-11-4-17
			c-2,6-1,13-6,16c-5,4-3-7-5.1-9.9C148.5,184.8,147,179.8,147,179.8z"/>
		<path class="st2" d="M176.2,203.5C173,195,171,183,177,180c3.5-1.5,5,2.5,5.2,7.8c0.2,5.3-0.9,12-2.6,15.9L176.2,203.5z"/>
		<path class="st2" d="M176.2,202.5C174,195,176,187,175,180c5-0.5,6.5,3.5,6.6,8.5c0.1,5-1.2,10.9-1.9,14.3L176.2,202.5z"/>
		<path class="st2" d="M176.2,202.5C174,195,176,187,175,180c5-0.5,6.5,3.5,6.6,8.5c0.1,5-1.2,10.9-1.9,14.3L176.2,202.5z"/>
		<path class="st2" d="M176.3,180.3C184,182,178,195,180,202c-7,1-3-7-3.6-11.3C176.4,185.4,176.3,180.3,176.3,180.3z"/>
		<path class="st2" d="M197.3,204.9C195,201,191,198,189,194c-1,2,2,12-3.9,9c-3.6-2.5-4.6-6.2-4.4-10.1S182,185,183,182
			c2-4.5,4-3.2,6.2-0.5c1.8,3.5,4.8,5.5,6.8,8.5c0-3-1-9,1-9c11,0,8,16,4.5,24L197.3,204.9z"/>
		<path class="st2" d="M197.3,203.9C195,199,191,194,188,190c0,4,1,11-1,11c-8,0-7-17-1-19c5-1,7,8,11,12c1-4-1-9,1-13
			c8,5,5,15,3.5,23L197.3,203.9z"/>
		<path class="st2" d="M197.3,203.9C195,199,191,194,188,190c0,4,1,11-1,11c-8,0-7-17-1-19c5-1,7,8,11,12c1-4-1-9,1-13
			c8,5,5,15,3.5,23L197.3,203.9z"/>
		<path class="st2" d="M183.8,181c9.2,1,8.2,11,14.2,16c1-5-3-10,0-15c1,0,3,0,3,0c2,7,4,20-3,20c-5-1-6-11-11-15c-1,5,3,10,0,15
			c-1,0-3,0-3,0c-1-4,0-7-0.1-10.6C183.9,186.1,183.8,181,183.8,181z"/>
		<path class="st2" d="M221.1,205c-4.1-2-5.1-7-8.1-10c1,5-1,14-6,9s-8-16-2-21c5-7,11,2,14,8c1-4-3-8,2-11c2-1,6,1,5,2
			c-1,8,7,15-0.7,23H221.1z"/>
		<path class="st2" d="M221.1,204c-4.1-4-6.1-9-10.1-13c-1,4,1,17-4,12c-4-5-7-20,1-21c5-1,9,7,13,12c-2-4-2-8-1-12c1-3,5-1,5,0
			c0,7,5,15,0.4,22H221.1z"/>
		<path class="st2" d="M221.1,204c-4.1-4-6.1-9-10.1-13c-1,4,1,17-4,12c-4-5-7-20,1-21c5-1,9,7,13,12c-2-4-2-8-1-12c1-3,5-1,5,0
			c0,7,5,15,0.4,22H221.1z"/>
		<path class="st2" d="M205.7,182.2C216,183,216,193,222,198c0-5-3-11-1-16c1,0,4,0,4,0c1,7,2,16-1,20c-5,4-8-10-14-14
			c2,5,1,10,1,15c-2,0-4,0-5,0c-1-3,0-7,0.2-10.4C206,187.4,205.7,182.2,205.7,182.2z"/>
		<path class="st2" d="M230,205c-5-7-3-16-2-23c2-4,23-4,16,4c-1,2-6,1-9,1c3,5,13-1,11,7c-2,4-7,1-10,2c3,5,13-1,11,7
			c-2,4-6,1-9.3,2C233.9,205,230,205,230,205z"/>
		<path class="st2" d="M230,204c-2-7,0-15-2-22c5-1,18-4,16,3c-1,4-8-1-9,1c-3,6,6,3,9,4c2,1,2,3,1,4c-3,4-7-1-10,1c0,1,0,3,0,4
			c3,1,7,0,10,0c2,1,2,3,1,4c-2,3-5,0-8.3,1C234,204,230,204,230,204z"/>
		<path class="st2" d="M230,204c-2-7,0-15-2-22c5-1,18-4,16,3c-1,4-8-1-9,1c-3,6,6,3,9,4c2,1,2,3,1,4c-3,4-7-1-10,1c0,1,0,3,0,4
			c3,1,7,0,10,0c2,1,2,3,1,4c-2,3-5,0-8.3,1C234,204,230,204,230,204z"/>
		<path class="st2" d="M229.1,182.1C234,182,239,181,244,182v3c-4,1-9-1-10,1c-5,7,5,4,10,5v3c-3,1-7-1-10,1c-1,0-1,4,0,4
			c3,2,7,0,11,1v3c-5,1-11,2-14-1c-2-1-1-6-1-9.4C229.7,187.3,229.1,182.1,229.1,182.1z"/>
		<path class="st2" d="M259.9,205c-3.9-3,0.1-12-5.9-8c-2,1-1,11-5,7c-7-5-4-15-3-22c2-5,16-3,17,3s4,14,0.3,20H259.9z M256.3,189.6
			c0.7-0.6,1.7-0.6,1.7-1.6c-1-2-3,0-5-1c0,1,0,2-0.2,2.6H256.3z"/>
		<path class="st2" d="M259.9,204c-1.9-4-0.9-13-7.9-8c-1,1,1,11-3,7c-5-5-4-15-2-20c2-4,14-3,15,2c2,6,2,13,1.3,19H259.9z
			 M256.3,190.6c2.7-0.6,1.7-2.6,1.7-4.6c-2,0-5-1-6,0s0,3,0,4.6H256.3z"/>
		<path class="st2" d="M259.9,204c-1.9-4-0.9-13-7.9-8c-1,1,1,11-3,7c-5-5-4-15-2-20c2-4,14-3,15,2c2,6,2,13,1.3,19H259.9z
			 M256.3,190.6c2.7-0.6,1.7-2.6,1.7-4.6c-2,0-5-1-6,0s0,3,0,4.6H256.3z"/>
		<path class="st2" d="M247.1,182.1C252,183,260,179,261,185c1,7,1,11,2,18c-1,0-2,0-3,0c1-5-3-13-8-8c-2,1,0,5-1,8h-3
			c-1-3,0-7-0.1-10.4C247.6,187.3,247.1,182.1,247.1,182.1z M251.2,191.6c2.8,0.4,5.8,1.4,7.8-0.6c3-5-4-8-8.3-5.9L251.2,191.6z"/>
	</g>
	<g>
		<path class="st3" d="M146.7,179.8C155,179,152,191,154,196c3-5,2-14,6-16c5-2,4,10,6,16c4-4,0-17,8-16c-2,7-2,16-7,20s-2-11-6-16
			c-3,5-2,13-6,16c-4,5-3-6-5.4-9.9C148.2,184.8,146.7,179.8,146.7,179.8z"/>
		<path class="st3" d="M176,180.3c9,2.7,2,14.7,3,21.7c-5-1-2-7-2.9-11.3C176.1,185.4,176,180.3,176,180.3z"/>
		<path class="st3" d="M183.6,181c8.4,2,9.4,10,13.4,16c0-5-3-10,0-15c1,0,3,0,4,0c2,7,4,20-3,20c-5-1-6-11-11-15c-1,5,3,10,0,15
			c-1,0-3,0-3,0c-1-4,0-7-0.3-10.6C183.7,186.1,183.6,181,183.6,181z"/>
		<path class="st3" d="M205.4,182.2C214,183,216,193,221,198c-1-5,1-11-1-16c8,0,4,14,5,21c-8,0-10-11-16-15c2,5,2,10,0,15h-3
			c-1-3,0-7-0.1-10.4C205.7,187.4,205.4,182.2,205.4,182.2z"/>
		<path class="st3" d="M228.8,182.1C234,182,239,181,244,182v3c-4,1-8-1-11,1c-1,0-1,4,0,4c3,2,7,0,11,1v3c-3,1-7-1-10,1
			c-1,0-1,4,0,4c3,2,7,0,11,1v3c-5,1-11,2-14-1c-2-1-1-6-1.4-9.4C229.4,187.3,228.8,182.1,228.8,182.1z"/>
		<path class="st3" d="M246.9,182.1C253,182,260,180,261,185c2,6,0,12,2,18c-1,0-4,1-4-1c1-5-3-11-7-7c-2,1,0,5-1,8h-3
			c-1-3,0-7-0.4-10.4C247.4,187.3,246.9,182.1,246.9,182.1z M250.9,191.6c4.1,1.4,9.1-0.6,8.1-4.6c-2-4-6-2-8.5-1.9L250.9,191.6z"/>
	</g>
</g>
</svg>
