<?xml version="1.0" encoding="utf-8"?>
<!-- Generator: Adobe Illustrator 26.0.1, SVG Export Plug-In . SVG Version: 6.00 Build 0)  -->
<svg version="1.1" id="Layer_1" xmlns="http://www.w3.org/2000/svg" xmlns:xlink="http://www.w3.org/1999/xlink" x="0px" y="0px"
	 viewBox="0 0 120 140" style="enable-background:new 0 0 120 140;" xml:space="preserve">
<style type="text/css">
	.st0{opacity:0.5;fill:#3488B7;}
	.st1{opacity:0.5;fill:#FFFFFF;}
	.st2{opacity:0.5;fill:#FBB03B;}
	.st3{opacity:0.57;fill:#8C6239;}
	.st4{fill:#C59B6C;stroke:#A67C52;stroke-width:1.3858;stroke-miterlimit:10;}
	.st5{opacity:0.3;}
	.st6{fill:#A67C52;}
</style>
<g>
	<path class="st0" d="M0,5v130c0,2.8,2.2,5,5,5h110c2.8,0,5-2.2,5-5V5c0-2.8-2.2-5-5-5H5C2.3,0,0,2.2,0,5z"/>
	<path class="st1" d="M0.2,46.7c0-0.6,7.8-1.9,8.4-2c13.1-2.3,26.8-1.7,39.7,0.9c6.1,1.2,12.5,2.2,18.8,1.6c3.3-0.3,6.3-1.2,9.3-2.3
		c3-1.1,6.4-1.7,9.7-2.1c2.9-0.4,5.9-0.5,8.8-0.3c4.3,0.3,8,2.1,12.3,2.4c2.1,0.2,4.1,0.2,6.2,0c0.7-0.1,6.6-0.7,6.6-1.3
		c0,0,0.1,3.2,0.1,3.2c-4.9-0.7-10-1.1-14.9-1.3c-4.6-0.2-9.2-0.2-13.8,0.1c-5,0.3-9.7,1.3-14.6,2c-8.9,1.3-18,1.9-27,2
		c-5.3,0.1-10.5-0.7-15.7-1.2c-4.4-0.4-8.8-0.5-13.2-0.7c-4.1-0.1-8.3-0.2-12.4,0c-2.3,0.1-5.9,0.1-7.8,1.3
		c-0.2,0.1-0.4,0.3-0.5,0.4C0.2,49.4,0.2,46.7,0.2,46.7z"/>
	<path class="st1" d="M0.2,45.6c0-0.6,7.8-1.9,8.4-2c13.1-2.3,26.8-1.7,39.7,0.9c6.1,1.2,12.5,2.2,18.8,1.6c3.3-0.3,6.3-1.2,9.3-2.3
		c3-1.1,6.4-1.7,9.7-2.1c2.9-0.4,5.9-0.5,8.8-0.3c4.3,0.3,8,2.1,12.3,2.4c2.1,0.2,4.1,0.2,6.2,0c0.7-0.1,6.6-0.7,6.6-1.3
		c0,0,0.1,3.2,0.1,3.2c-4.9-0.7-10-1.1-14.9-1.3c-4.6-0.2-9.2-0.2-13.8,0.1c-5,0.3-9.7,1.3-14.6,2c-8.9,1.3-18,1.9-27,2
		c-5.3,0.1-10.5-0.7-15.7-1.2c-4.4-0.4-8.8-0.5-13.2-0.7c-4.1-0.1-8.3-0.2-12.4,0c-2.3,0.1-5.9,0.1-7.8,1.3
		c-0.2,0.1-0.4,0.3-0.5,0.4C0.2,48.3,0.2,45.6,0.2,45.6z"/>
	<path class="st1" d="M120.2,70.9c-1.8,0.4-3.5,0.9-5.1,1.5c-4.5,1.7-9,2.9-14,3.4c-9.6,0.9-19.2-0.6-28.4-2.4
		c-19.5-3.8-40-4.8-59.9-1.3c-0.9,0.2-12.8,2.1-12.7,3.1c0,0,0.1,4.1,0.1,4.1C0.4,79,0.7,78.8,1,78.6c2.9-1.8,8.2-1.8,11.7-2
		c6.2-0.3,12.5-0.2,18.7-0.1c6.6,0.2,13.3,0.4,19.9,1c7.9,0.7,15.7,1.9,23.7,1.8c13.6-0.1,27.3-1.1,40.7-3c1.5-0.2,3.1-0.5,4.6-0.7"
		/>
	<path class="st1" d="M120,69.4c-1.7,0.4-3.3,0.9-4.9,1.5c-4.5,1.7-9,2.9-14,3.4c-9.6,0.9-19.2-0.6-28.4-2.4
		c-19.5-3.8-40-4.8-59.9-1.3c-0.9,0.2-12.8,2.1-12.7,3.1c0,0,0.1,4.1,0.1,4.1c0.2-0.3,0.5-0.4,0.8-0.6c2.9-1.8,8.2-1.8,11.7-2
		c6.2-0.3,12.5-0.2,18.7-0.1c6.6,0.2,13.3,0.4,19.9,1C59.1,76.8,67,78,75,77.9c13.6-0.1,27.3-1.1,40.7-3c1.5-0.2,2.9-0.4,4.4-0.7"/>
	<path class="st1" d="M-0.2,11.1c4,0.5,8,1.2,12,2c9.2,1.8,18.8,3.3,28.4,2.4c5-0.5,9.5-1.7,14-3.4c4.5-1.7,9.7-2.5,14.6-3.2
		c4.4-0.6,8.9-0.8,13.3-0.5c6.5,0.5,12.1,3.1,18.6,3.6c3.1,0.2,6.2,0.3,9.4,0c1.1-0.1,9.9-1.1,9.9-2c0,0,0.1,4.8,0.1,4.8
		c-7.4-1.1-15-1.7-22.6-2c-6.9-0.3-13.9-0.3-20.8,0.1c-7.5,0.5-14.7,2-22,3.1c-13.4,1.9-27.1,2.9-40.7,3c-4.8,0-9.5-0.4-14.2-0.8"/>
	<path class="st1" d="M-0.2,10.3c4,0.5,8,1.2,12,2c9.2,1.8,18.8,3.3,28.4,2.4c5-0.5,9.5-1.7,14-3.4c4.5-1.7,9.7-2.5,14.6-3.2
		c4.4-0.6,8.9-0.8,13.3-0.5c6.5,0.5,12.1,3.1,18.6,3.6c3.1,0.2,6.2,0.3,9.4,0c1.1-0.1,9.9-1.1,9.9-2c0,0,0.1,4.8,0.1,4.8
		c-7.4-1.1-15-1.7-22.6-2c-6.9-0.3-13.9-0.3-20.8,0.1c-7.5,0.5-14.7,2-22,3.1c-13.4,1.9-27.1,2.9-40.7,3c-4.8,0-9.5-0.4-14.2-0.8"/>
	<circle class="st1" cx="14.3" cy="8" r="0.9"/>
	<circle class="st1" cx="16.1" cy="2.2" r="1"/>
	<circle class="st1" cx="22.8" cy="3.2" r="1.9"/>
	<circle class="st1" cx="47.2" cy="44.2" r="0.9"/>
	<circle class="st1" cx="43.1" cy="39.8" r="1"/>
	<circle class="st1" cx="47.3" cy="34.4" r="1.9"/>
	<circle class="st1" cx="87.9" cy="57.6" r="1.1"/>
	<circle class="st1" cx="92.7" cy="62.7" r="1.4"/>
	<circle class="st1" cx="87.1" cy="69.1" r="1.6"/>
	<circle class="st1" cx="41.1" cy="100" r="0.9"/>
	<circle class="st1" cx="37.1" cy="95.4" r="1"/>
	<circle class="st1" cx="41.4" cy="90.2" r="1.9"/>
	<circle class="st1" cx="93.7" cy="112.7" r="1.1"/>
	<circle class="st1" cx="91.3" cy="106.2" r="1.4"/>
	<circle class="st1" cx="98.9" cy="102.4" r="1.6"/>
	<path class="st2" d="M0,124.2c9.6-5.1,19.5-9.3,29.5-12.5c5.6-1.8,11.2-3.3,16.8-3.9c7.7-0.9,15.5,1.3,23.1,2.6
		c3.6,0.6,7.1,1.4,10.6,3c1.7,0.7,3.3,1.7,4.9,2.8c2.3,1.7,3.9,3.4,6.6,3.2c4.8-0.3,9.5-1.3,14.2-1.1c4.7,0.1,10,0.3,14.3,3.8v13
		c0,2.8-2.2,5-5,5H5c-2.8,0-5-2.2-5-5L0,124.2z"/>
</g>
<g>
	<path class="st3" d="M28.5,104.7c-0.7-1.3-1-3-0.8-5.2c0.4-5.5,1.6-10.9,3.5-16c3.7-9.5,10.9-17.2,20.1-21.6
		c5.7-2.7,12.1-3.6,18.4-4c4.6-0.3,12.6-1.6,16.1,2.1c4.2,4.5,1.6,14.3,1,19.5c-0.3,2.9-0.7,5.9-1.2,8.8c-0.6,4.1-1.8,8-2,12.2
		c-0.1,2.6,0.1,5.2-0.6,7.7c-1.7,6-6.4,6.5-11.8,6.2c-5.7-0.4-11.3,0.2-17-0.3c-4.8-0.4-9.7-1.4-14.3-2.9
		C34.9,109.5,30.4,108.4,28.5,104.7z"/>
	<path class="st4" d="M24.9,105.7c-0.7-1.3-1-3-0.8-5.2c0.4-5.5,1.6-10.9,3.5-16C31.4,75,38.5,67.3,47.8,63c5.7-2.7,12.1-3.6,18.4-4
		c4.6-0.3,12.6-1.6,16.1,2.1c4.2,4.5,1.6,14.3,1,19.5c-0.3,2.9-0.7,5.9-1.2,8.8c-0.6,4.1-1.8,8-2,12.2c-0.1,2.6,0.1,5.2-0.6,7.7
		c-1.7,6-6.4,6.5-11.8,6.2c-5.7-0.4-11.3,0.2-17-0.3c-4.8-0.4-9.7-1.4-14.3-2.9C31.4,110.6,26.8,109.4,24.9,105.7z"/>
	<g class="st5">
		<path class="st6" d="M66.9,113.5c-13.3,1.3-28-0.4-38.7-8.8c-1.5-1.3-2.8-2.6-4-4.2C35.1,111.7,52,113.5,66.9,113.5L66.9,113.5z"
			/>
	</g>
	<g class="st5">
		<path class="st6" d="M66.9,109.9c-13.4,1.1-28.4-0.7-39-9.6c-1.4-1.3-2.8-2.8-3.9-4.4C34.5,107.6,52,109.6,66.9,109.9L66.9,109.9z
			"/>
	</g>
	<g class="st5">
		<path class="st6" d="M67.6,106.9c-13.4,0.4-28.2-2.1-38.6-11.1c-1.4-1.3-2.7-2.8-3.8-4.4C35.5,103.1,52.9,105.8,67.6,106.9
			L67.6,106.9z"/>
	</g>
	<g class="st5">
		<path class="st6" d="M68.4,105.2c-12.1-2.3-34.1-8-41.8-17.9c5.4,5.5,12.9,8.2,19.9,10.9C53.6,100.9,61,103.1,68.4,105.2
			L68.4,105.2z"/>
	</g>
	<g class="st5">
		<path class="st6" d="M69.3,103.8c-7.2-2.6-14.2-5.7-21.1-8.9c-3.4-1.7-6.8-3.4-10.1-5.3c-3.2-2-6.8-3.8-9.1-6.9
			c2.6,2.7,6.2,4.4,9.5,6.2c3.4,1.8,6.8,3.5,10.2,5.1C55.3,97.2,62.6,100.5,69.3,103.8L69.3,103.8z"/>
	</g>
	<g class="st5">
		<path class="st6" d="M70.8,102.9c-7.1-3.6-14-7.6-20.7-11.9c-5.8-3.9-11.8-7.7-16.6-12.8c-0.6-0.8-1.3-1.5-1.6-2.5
			c2.1,3.4,5.7,5.5,8.8,7.8c3.3,2.3,6.6,4.5,9.9,6.6C56.4,93.9,64.9,99.1,70.8,102.9L70.8,102.9z"/>
	</g>
	<g class="st5">
		<path class="st6" d="M72.3,102.1c-6.6-4.5-12.8-9.6-18.9-14.9c-5.9-5.4-11.9-10.9-16.1-17.8c0.6,0.8,1.3,1.6,1.9,2.3
			C49,82.8,61.2,92.5,72.3,102.1L72.3,102.1z"/>
	</g>
	<g class="st5">
		<path class="st6" d="M74.3,102.1c-6.1-5.4-11.8-11.3-17.4-17.2c-5-5.7-10.7-11.3-14-18.2c-0.2-0.5-0.3-1-0.2-1.5
			c-0.1,0.5,0.1,1,0.3,1.5c3.9,6.5,9.6,11.9,14.6,17.5C63,90,68.9,96.2,74.3,102.1L74.3,102.1z"/>
	</g>
	<g class="st5">
		<path class="st6" d="M75.6,101.3c-5.5-5.7-10.8-12-15.7-18.2c-4.7-6.4-9.9-12.9-12.4-20.5c0,0,0.6,1.4,0.6,1.4
			c3.4,6.7,8.1,12.6,12.6,18.5C64.9,88,71.2,95.8,75.6,101.3L75.6,101.3z"/>
	</g>
	<g class="st5">
		<path class="st6" d="M77.3,101.3c-4.8-6.2-9.1-12.8-13.2-19.5c-3.4-5.9-7.1-11.9-9-18.6c-0.2-1-0.4-2-0.3-2.9
			c-0.1,1,0.3,1.9,0.5,2.9c2.4,6.4,6.1,12.2,9.6,18.1C68.5,87.1,73.7,95.4,77.3,101.3L77.3,101.3z"/>
	</g>
	<g class="st5">
		<path class="st6" d="M78.7,101.3c-3.1-6.9-6.2-14.5-9.2-21.5c-2.9-6.6-5.4-13.6-9.3-19.7c-0.3-0.4-0.6-0.8-1-1
			c0.9,0.5,1.5,1.3,2,2.1c3.8,5.7,6.5,12,9.2,18.2C73.5,86.6,76.3,93.9,78.7,101.3L78.7,101.3z"/>
	</g>
	<g class="st5">
		<path class="st6" d="M64.8,58.7C71.6,70.5,77.5,83.4,79.3,97C76.1,83.7,70.4,71.1,64.8,58.7L64.8,58.7z"/>
	</g>
	<g class="st5">
		<path class="st6" d="M69.3,58.7c2.8,5.5,5.1,11.2,7.1,17.1c1.9,5.9,3.5,11.9,3.7,18.1c-0.1-0.8-0.3-1.5-0.4-2.3
			C77.4,80.5,73,69.3,69.3,58.7L69.3,58.7z"/>
	</g>
	<g class="st5">
		<path class="st6" d="M73.4,58.7c5.1,6.8,7.2,15.6,7.5,24c0,1.2,0,2.4-0.1,3.6C79.8,76.8,77.9,67.2,73.4,58.7L73.4,58.7z"/>
	</g>
	<g>
		<path class="st6" d="M64.9,114c-1.9-9,4.7-16.1,13.9-13.5c-1.9,0.1-3.8,0.2-5.6,0.7C67.5,102.5,65.3,108.6,64.9,114L64.9,114z"/>
	</g>
	<g>
		<path class="st6" d="M57.3,113.5c-3.5-15.8,8.5-25.8,23.6-25.4c-3.3,0.5-6.5,1.2-9.6,2.4C61.3,94,56.4,103.2,57.3,113.5
			L57.3,113.5z"/>
	</g>
	<g>
		<path class="st6" d="M45.8,113.1c-4.1-16.5,5.5-30,21.5-34.3c4.8-1.3,9.8-2,14.7-2.1c-7.3,1-14.6,2.5-21.1,5.9
			C49.4,88.4,43.9,100.6,45.8,113.1L45.8,113.1z"/>
	</g>
	<g>
		<path class="st6" d="M36.8,111.2c0.1-0.1,0.1-0.4,0.1-0.5c0-0.3-0.1-1.4-0.2-1.7c-2.1-19.9,9.4-34.9,28-40.7
			c5.9-1.9,12.1-3,18.2-3.4c-6.1,1-12.1,2.3-17.9,4.4C47,75.7,36.2,89.5,36.9,109c0,0.3,0,1.4,0,1.7c0,0.1,0,0.2,0,0.3
			C36.9,111.1,36.9,111.2,36.8,111.2L36.8,111.2z"/>
	</g>
	<g>
		<path class="st6" d="M28.7,107.6C25.9,88,35.7,69.3,54.9,63c4-1.5,8.3-2.3,12.6-2.8c-4.8,1-9.8,2.4-14.2,4.4
			C35.8,72.3,27.8,89.1,28.7,107.6L28.7,107.6z"/>
	</g>
</g>
</svg>
