<?xml version="1.0" encoding="utf-8"?>
<!-- Generator: Adobe Illustrator 26.0.1, SVG Export Plug-In . SVG Version: 6.00 Build 0)  -->
<svg version="1.1" id="Layer_1" xmlns="http://www.w3.org/2000/svg" xmlns:xlink="http://www.w3.org/1999/xlink" x="0px" y="0px"
	 viewBox="0 0 120 140" style="enable-background:new 0 0 120 140;" xml:space="preserve">
<style type="text/css">
	.st0{opacity:0.5;fill:#3488B7;}
	.st1{opacity:0.5;fill:#FFFFFF;}
	.st2{opacity:0.5;fill:#FBB03B;}
	.st3{fill:#3488B7;stroke:#3488B7;stroke-miterlimit:10;}
	.st4{fill:#838BC5;stroke:#838BC5;stroke-miterlimit:10;}
	.st5{fill:#838BC5;stroke:#7680B7;stroke-width:1.0009;stroke-miterlimit:10;}
	.st6{fill:#7680B7;stroke:#7680B7;stroke-miterlimit:10;}
	.st7{opacity:0.8;}
	.st8{fill:#CCCCCC;}
</style>
<path class="st0" d="M0,5v130c0,2.8,2.2,5,5,5h110c2.8,0,5-2.2,5-5V5c0-2.8-2.2-5-5-5H5C2.2,0,0,2.2,0,5z"/>
<path class="st1" d="M0.1,46.7c0-0.6,7.8-1.9,8.4-2c13.1-2.3,26.8-1.7,39.7,0.9c6.1,1.2,12.5,2.2,18.8,1.6c3.3-0.3,6.3-1.2,9.3-2.3
	c3-1.1,6.4-1.7,9.7-2.1c2.9-0.4,5.9-0.5,8.8-0.3c4.3,0.3,8,2.1,12.3,2.4c2.1,0.2,4.1,0.2,6.2,0c0.7-0.1,6.6-0.7,6.6-1.3
	c0,0,0.1,3.2,0.1,3.2c-4.9-0.7-10-1.1-14.9-1.3c-4.6-0.2-9.2-0.2-13.8,0.1c-5,0.3-9.7,1.3-14.6,2c-8.9,1.3-18,1.9-27,2
	c-5.3,0.1-10.5-0.7-15.7-1.2c-4.4-0.4-8.8-0.5-13.2-0.7c-4.1-0.1-8.3-0.2-12.4,0c-2.3,0.1-5.9,0.1-7.8,1.3c-0.2,0.1-0.4,0.3-0.5,0.4
	C0.2,49.4,0.1,46.7,0.1,46.7z"/>
<path class="st1" d="M0.1,45.6c0-0.6,7.8-1.9,8.4-2c13.1-2.3,26.8-1.7,39.7,0.9c6.1,1.2,12.5,2.2,18.8,1.6c3.3-0.3,6.3-1.2,9.3-2.3
	c3-1.1,6.4-1.7,9.7-2.1c2.9-0.4,5.9-0.5,8.8-0.3c4.3,0.3,8,2.1,12.3,2.4c2.1,0.2,4.1,0.2,6.2,0c0.7-0.1,6.6-0.7,6.6-1.3
	c0,0,0.1,3.2,0.1,3.2c-4.9-0.7-10-1.1-14.9-1.3c-4.6-0.2-9.2-0.2-13.8,0.1c-5,0.3-9.7,1.3-14.6,2c-8.9,1.3-18,1.9-27,2
	c-5.3,0.1-10.5-0.7-15.7-1.2c-4.4-0.4-8.8-0.5-13.2-0.7c-4.1-0.1-8.3-0.2-12.4,0c-2.3,0.1-5.9,0.1-7.8,1.3c-0.2,0.1-0.4,0.3-0.5,0.4
	C0.2,48.3,0.1,45.6,0.1,45.6z"/>
<path class="st1" d="M120.2,70.9c-1.8,0.4-3.5,0.9-5.1,1.5c-4.5,1.7-9,2.9-14,3.4c-9.6,0.9-19.2-0.6-28.4-2.4
	c-19.5-3.8-40-4.8-59.9-1.3c-0.9,0.2-12.8,2.1-12.7,3.1c0,0,0.1,4.1,0.1,4.1C0.4,79,0.7,78.8,1,78.6c2.9-1.8,8.2-1.8,11.7-2
	c6.2-0.3,12.5-0.2,18.7-0.1c6.6,0.2,13.3,0.4,19.9,1c7.9,0.7,15.7,1.9,23.7,1.8c13.6-0.1,27.3-1.1,40.7-3c1.5-0.2,3.1-0.5,4.6-0.7"
	/>
<path class="st1" d="M120,69.4c-1.7,0.4-3.3,0.9-4.9,1.5c-4.5,1.7-9,2.9-14,3.4c-9.6,0.9-19.2-0.6-28.4-2.4
	c-19.5-3.8-40-4.8-59.9-1.3c-0.9,0.2-12.8,2.1-12.7,3.1c0,0,0.1,4.1,0.1,4.1c0.2-0.3,0.5-0.4,0.8-0.6c2.9-1.8,8.2-1.8,11.7-2
	c6.2-0.3,12.5-0.2,18.7-0.1c6.6,0.2,13.3,0.4,19.9,1c7.9,0.7,15.7,1.9,23.7,1.8c13.6-0.1,27.3-1.1,40.7-3c1.5-0.2,2.9-0.4,4.4-0.7"
	/>
<path class="st1" d="M-0.3,11.1c4,0.5,8,1.2,12,2c9.2,1.8,18.8,3.3,28.4,2.4c5-0.5,9.5-1.7,14-3.4c4.5-1.7,9.7-2.5,14.6-3.2
	c4.4-0.6,8.9-0.8,13.3-0.5c6.5,0.5,12.1,3.1,18.6,3.6c3.1,0.2,6.2,0.3,9.4,0c1.1-0.1,9.9-1.1,9.9-2c0,0,0.1,4.8,0.1,4.8
	c-7.4-1.1-15-1.7-22.6-2c-6.9-0.3-13.9-0.3-20.8,0.1c-7.5,0.5-14.7,2-22,3.1c-13.4,1.9-27.1,2.9-40.7,3c-4.8,0-9.5-0.4-14.2-0.8"/>
<path class="st1" d="M-0.3,10.3c4,0.5,8,1.2,12,2c9.2,1.8,18.8,3.3,28.4,2.4c5-0.5,9.5-1.7,14-3.4c4.5-1.7,9.7-2.5,14.6-3.2
	c4.4-0.6,8.9-0.8,13.3-0.5c6.5,0.5,12.1,3.1,18.6,3.6c3.1,0.2,6.2,0.3,9.4,0c1.1-0.1,9.9-1.1,9.9-2c0,0,0.1,4.8,0.1,4.8
	c-7.4-1.1-15-1.7-22.6-2c-6.9-0.3-13.9-0.3-20.8,0.1c-7.5,0.5-14.7,2-22,3.1c-13.4,1.9-27.1,2.9-40.7,3c-4.8,0-9.5-0.4-14.2-0.8"/>
<circle class="st1" cx="14.2" cy="8" r="0.9"/>
<circle class="st1" cx="16.1" cy="2.2" r="1"/>
<circle class="st1" cx="22.7" cy="3.2" r="1.9"/>
<circle class="st1" cx="47.2" cy="44.2" r="0.9"/>
<circle class="st1" cx="43.1" cy="39.8" r="1"/>
<circle class="st1" cx="47.2" cy="34.4" r="1.9"/>
<circle class="st1" cx="87.9" cy="57.6" r="1.1"/>
<circle class="st1" cx="92.7" cy="62.7" r="1.4"/>
<circle class="st1" cx="87.1" cy="69.1" r="1.6"/>
<circle class="st1" cx="41.1" cy="100" r="0.9"/>
<circle class="st1" cx="37.1" cy="95.4" r="1"/>
<circle class="st1" cx="41.4" cy="90.2" r="1.9"/>
<circle class="st1" cx="93.7" cy="112.7" r="1.1"/>
<circle class="st1" cx="91.3" cy="106.2" r="1.4"/>
<circle class="st1" cx="98.9" cy="102.4" r="1.6"/>
<path class="st2" d="M0,124.2c9.6-5.1,19.5-9.3,29.5-12.5c5.6-1.8,11.2-3.3,16.8-3.9c7.7-0.9,15.5,1.3,23.1,2.6
	c3.6,0.6,7.1,1.4,10.6,3c1.7,0.7,3.3,1.7,4.9,2.8c2.3,1.7,3.9,3.4,6.6,3.2c4.8-0.3,9.5-1.3,14.2-1.1c4.7,0.1,10,0.3,14.3,3.8v13
	c0,2.8-2.2,5-5,5H5c-2.8,0-5-2.2-5-5L0,124.2z"/>
<path class="st3" d="M41.6,58.8"/>
<path class="st4" d="M25,113.7c0,0-1.6,5.8,4,4.1C29,117.9,26,117.1,25,113.7z"/>
<path class="st4" d="M27,106.3c-0.7,1.5-5.7,13,9.3,11.1c0.1,0,0.1-0.1,0-0.1C35,116.9,27.7,114.2,27,106.3
	C27.1,106.3,27,106.3,27,106.3z"/>
<path class="st4" d="M30.9,94.1c-2.1,4.3-11.5,25.5,15.5,23.3c0.2,0,0.3-0.3,0.1-0.4c-2.7-1.7-15.3-10.6-15.2-22.8
	C31.3,94,31,93.9,30.9,94.1z"/>
<path class="st5" d="M101.2,64.1c1.3-1.8-1.7-1.7-2.2-2.7c-0.1-0.4,0.1-0.8-0.1-1.2c-0.2-0.3-0.5-0.5-0.8-0.7
	c-0.7-0.3-1-0.1-1.5-0.6c-0.4-0.4-0.6-0.7-1.1-1c-0.9-0.4-2-0.5-2.9-0.6c-0.8,0-1.7,0.2-2.5,0.2c-1.2,0-1.4-0.1-2.2-1
	c-1-1.2-2.2-1.4-3.6-1.6c-0.3-0.1-0.9-1-1.3-1.2c-0.5-0.2-1-0.3-1.5-0.3c-0.9,0-1.8,0.9-2.7,0.9c-0.7,0-0.4-0.1-0.6-0.7
	c-0.2-0.5-0.5-0.8-1.1-0.8c-0.3,0-0.8,0.3-1,0.2C75.2,52.9,75,52,74.3,52c-0.5,0-0.5,0.6-0.8,0.7c-0.5,0.2-1-0.5-1.6-0.6
	c-0.4,0-0.7,0.1-0.9,0.4c-0.3,0.3-0.2,0.8-0.3,1.2c-0.3,0.9-0.3,0.4-1.1,0.2c-0.5-0.1-1,0.1-1.3,0.4c-0.3,0.2-0.7,1-1,1
	c-0.3,0-0.8-0.6-1.2-0.7c-0.4,0-0.6,0.1-0.9,0.4c-0.4,0.4-0.4,0.8-0.6,1.3c-0.5,0.9-1.1-0.1-1.7,0.5c-0.2,0.2-0.2,0.5-0.2,0.8
	c0,0.1,0,0.2-0.1,0.3c-0.2-0.1-0.4-0.2-0.6-0.3c-0.3-0.1-0.6-0.1-0.8,0c-0.3,0.2-0.4,0.6-0.5,0.9c-0.2,0.7-1,0-1.6,0.4
	c-0.6,0.3-0.4,1.4-0.7,1.6c-0.1,0.1-0.2,0-0.4,0c-0.6-0.3-1.3,0.1-1.6,0.7c-0.2,0.4,0,1.5-0.3,1.8c-0.3,0.3-0.7,0.1-1,0.3
	c-0.4,0.2-0.6,0.5-0.7,0.9c-0.3,0.7-0.1,0.5-0.7,0.7c-0.6,0.2-1.1,0.3-1.6,0.9c-0.4,0.5-0.6,1.2-0.9,1.8c-0.3,0.8-1,0.3-1.6,0.8
	c-0.1,0.1-0.7,1.4-0.5,1.4c-0.7,0-1.4-0.3-1.8,0.5c-0.1,0.1-0.1,0.6-0.2,0.7c-0.3,0.3-0.9-0.1-1.4,0.2c-0.5,0.3-0.4,0.9-0.7,1.2
	c-0.2,0.2-0.6,0-0.9,0.3c-0.5,0.5-0.2,1.3-0.7,1.8c-0.5,0.4-0.8,0.4-1,1.2c-0.1,0.5-0.1,1.1-0.1,1.7c0-0.1-0.7,0.4-0.7,0.5
	c-0.2,0.3-0.1,0.7,0,1c0.1,0.5,0.4,0.9,0.6,1.3L41,80.6c0,0-1.7,1.4,0.8,1.6C41.8,82.1,101.2,64.1,101.2,64.1z"/>
<path class="st6" d="M43.6,81.7c3.1,0.4,26,2.2,57.9-17c0.5-0.3,0.2-1-0.3-0.9c-11.3,1.8-58.4,9.8-58,17.4
	C43.2,81.5,43.4,81.7,43.6,81.7z"/>
<path class="st4" d="M105.1,63.3c1.8-1.3-4.6-0.3-7.2,1.1c-4.3,2.3-8.6,4.6-12.9,6.9c-4,2.1-7.6,4.5-12,5.9C64.6,80,55.6,80,47,80
	c-6.1,0-15,4.6-15.7,11.3c-0.3,3.4,0.4,7.1,1.6,10.2c1.4,3.6,3.5,6.9,6.2,9.6c1.4,1.4,2.9,2.7,4.5,3.8c1.7,1.2,3.3,2.4,5.4,2.7
	c2.2,0.4,4.4,0,6.5-0.4c2.2-0.4,4.3-0.9,6.5-1.5c5.8-1.8,11.6-4.8,14.8-10.2c0.8-1.3,1.4-2.8,1.9-4.3c1.2-4.7,2.5-9.4,4.8-13.6
	c4.4-8.1,11.4-16.2,18-22.8C102.3,64.1,103.3,64.1,105.1,63.3z"/>
<g class="st7">
	<path class="st8" d="M47.1,117.9c-8.3-5.2-15.5-13.7-16.1-23.8c0.1,0.7,0.4,2.1,0.5,2.7C33.6,105.6,39.9,112.7,47.1,117.9
		L47.1,117.9z"/>
</g>
<g class="st7">
	<path class="st8" d="M36.3,117.4c-4.3-1.3-7.7-4.9-8.8-9.2c-0.2-0.6-0.2-1.2-0.4-1.9C28.1,111.3,31.6,115.6,36.3,117.4L36.3,117.4z
		"/>
</g>
<g class="st7">
	<path class="st8" d="M30.6,117.9c-3.2,0.1-5.2-3.1-5.5-6C25.6,114.7,27.4,117.6,30.6,117.9L30.6,117.9z"/>
</g>
<g class="st7">
	<path class="st8" d="M55.4,117.6c-4.9-3.9-9.3-8.9-10.8-15.1c1.6,6.1,6.1,11,11.1,14.7C55.9,117.3,55.6,117.8,55.4,117.6
		L55.4,117.6z"/>
</g>
<g class="st7">
	<path class="st8" d="M44.1,80.4C43.2,86.1,45,92.2,49,96.4c-4.2-4.1-6.1-10.2-5.4-16C43.7,80,44.2,80.1,44.1,80.4L44.1,80.4z"/>
</g>
<g class="st7">
	<path class="st8" d="M73.7,109.6c-4.1-2.9-7.8-7.1-8.7-12.2c1.1,5,4.9,9,9,11.7C74.2,109.3,74,109.8,73.7,109.6L73.7,109.6z"/>
</g>
<g class="st7">
	<path class="st8" d="M68.4,78.6C68.3,82.6,70,87,73.8,89c-0.9-0.5-1.8-1-2.6-1.8c-1.5-1.5-2.4-3.5-2.9-5.5c-0.2-1-0.4-2.1-0.4-3.1
		c0-0.1,0.1-0.3,0.2-0.3C68.3,78.3,68.4,78.4,68.4,78.6L68.4,78.6z"/>
</g>
<g class="st7">
	<path class="st8" d="M84.8,85.6c-1.9-0.7-3.5-2.5-3.6-4.6c0.2,2,1.9,3.5,3.7,4.1C85.3,85.2,85.1,85.7,84.8,85.6L84.8,85.6z"/>
</g>
<g class="st7">
	<path class="st8" d="M87.4,70.2c-0.2,1.2,0.2,2.7,1.4,3.4c-1.3-0.6-1.9-2.1-1.9-3.4C86.9,69.8,87.4,69.8,87.4,70.2L87.4,70.2z"/>
</g>
<g class="st7">
	<path class="st8" d="M45.4,72.8c0.2,1.1,0.6,2.4,1.7,2.9c-1.2-0.4-1.9-1.7-2.2-2.9c0-0.1,0-0.3,0.2-0.3
		C45.2,72.6,45.3,72.7,45.4,72.8L45.4,72.8z"/>
</g>
<g class="st7">
	<path class="st8" d="M52.2,67.4c0.6,2.1,2.3,3.8,4.4,4.4c-2.2-0.5-4.1-2.2-4.9-4.3C51.6,67.3,52.1,67.1,52.2,67.4L52.2,67.4z"/>
</g>
<g class="st7">
	<path class="st8" d="M62.2,57.9c0.7,2.6,2,5.6,4.8,6.6c-1.4-0.4-2.6-1.4-3.4-2.6c-0.8-1.2-1.5-2.5-1.9-3.9c0-0.1,0-0.3,0.2-0.3
		C62,57.7,62.2,57.8,62.2,57.9L62.2,57.9z"/>
</g>
<g class="st7">
	<path class="st8" d="M83.2,55c-1.5,2-2.2,4.8-1.1,7.2c-0.6-1.2-0.8-2.5-0.6-3.8c0.2-1.3,0.7-2.6,1.4-3.7c0.1-0.1,0.2-0.2,0.3-0.1
		C83.3,54.7,83.3,54.9,83.2,55L83.2,55z"/>
</g>
<g class="st7">
	<path class="st8" d="M72.7,53.1c-1.2,3.8-0.6,8.5,2.8,11c-3.6-2.4-4.4-7.2-3.3-11.1C72.3,52.6,72.8,52.8,72.7,53.1L72.7,53.1z"/>
</g>
</svg>
