<?xml version="1.0" encoding="utf-8"?>
<!-- Generator: Adobe Illustrator 26.0.1, SVG Export Plug-In . SVG Version: 6.00 Build 0)  -->
<svg version="1.1" id="Layer_1" xmlns="http://www.w3.org/2000/svg" xmlns:xlink="http://www.w3.org/1999/xlink" x="0px" y="0px"
	 viewBox="0 0 120 140" style="enable-background:new 0 0 120 140;" xml:space="preserve">
<style type="text/css">
	.st0{fill:#3488B7;}
	.st1{opacity:0.5;fill:#FFFFFF;}
</style>
<path class="st0" d="M0,5v130c0,2.8,2.2,5,5,5h110c2.8,0,5-2.2,5-5V5c0-2.8-2.2-5-5-5H5C2.2,0,0,2.2,0,5z"/>
<g>
	<path class="st1" d="M-12.1,77c-0.2-0.6,8.3-5,8.9-5.3C11,64.3,26.7,59.4,42.2,56.6c7.3-1.3,14.9-2.9,21.9-6.1
		c3.7-1.6,6.8-3.6,9.8-5.9c3-2.3,6.7-4.2,10.3-5.9c3.2-1.5,6.5-2.9,9.9-3.8c5-1.4,9.8-1.3,14.8-2.7c2.4-0.7,4.8-1.5,7-2.5
		c0.8-0.3,7.2-3.4,7-3.9c0,0,1.1,3,1.1,3c-5.8,1.3-11.7,2.9-17.4,4.7c-5.3,1.7-10.5,3.5-15.6,5.6c-5.5,2.3-10.6,5.2-15.9,7.8
		c-9.7,4.8-19.8,9-30,12.7c-6,2.2-12.2,3.5-18.2,5.2c-5.1,1.4-10.2,3-15.2,4.7c-4.7,1.5-9.4,3.2-14.1,5c-2.6,1-6.6,2.5-8.4,4.3
		c-0.2,0.2-0.4,0.4-0.5,0.6C-11.1,79.5-12.1,77-12.1,77z"/>
	<path class="st1" d="M-12.4,75.9c-0.2-0.6,8.3-5,8.9-5.3c14.2-7.5,29.9-12.4,45.3-15.1c7.3-1.3,14.9-2.9,21.9-6.1
		c3.7-1.6,6.8-3.6,9.8-5.9c3-2.3,6.7-4.2,10.3-5.9c3.2-1.5,6.5-2.9,9.9-3.8c5-1.4,9.8-1.3,14.8-2.7c2.4-0.7,4.8-1.5,7-2.5
		c0.8-0.3,7.2-3.4,7-3.9c0,0,1.1,3,1.1,3c-5.8,1.3-11.7,2.9-17.4,4.7c-5.3,1.7-10.5,3.5-15.6,5.6c-5.5,2.3-10.6,5.2-15.9,7.8
		c-9.7,4.8-19.8,9-30,12.7c-6,2.2-12.2,3.5-18.2,5.2c-5.1,1.4-10.2,3-15.2,4.7C6.7,70,2,71.7-2.7,73.5c-2.6,1-6.6,2.5-8.4,4.3
		c-0.2,0.2-0.4,0.4-0.5,0.6C-11.5,78.5-12.4,76-12.4,75.9z"/>
</g>
<g>
	<path class="st1" d="M-6.5,134.9c-0.3-0.7,8.1-5.2,8.7-5.6c13.9-7.8,29.5-12.4,45.1-14.6c7.3-1,14.9-2.4,21.8-5.6
		c3.6-1.7,6.6-3.8,9.6-6.2c2.9-2.4,6.6-4.4,10.1-6.2c3.1-1.6,6.4-2.9,9.8-3.8c5-1.3,9.9-0.8,14.8-2.2c2.4-0.6,4.7-1.4,7-2.4
		c0.8-0.4,7.1-3.4,6.9-4.1c0,0,1.3,3.6,1.3,3.6c-5.8,1.1-11.7,2.7-17.4,4.4c-5.2,1.6-10.4,3.4-15.5,5.5c-5.5,2.3-10.4,5.3-15.7,8
		c-9.5,4.9-19.5,9.2-29.6,12.8c-6,2.1-12.1,3.3-18.2,4.8c-5.1,1.3-10.1,2.8-15.1,4.4c-4.7,1.5-9.4,3.1-13.9,4.9
		c-2.5,1-6.6,2.4-8.2,4.5c-0.2,0.2-0.3,0.4-0.4,0.7C-5.4,137.9-6.5,134.9-6.5,134.9z"/>
	<path class="st1" d="M-7,133.7c-0.3-0.7,8.1-5.2,8.7-5.6c13.9-7.8,29.5-12.4,45.1-14.6c7.3-1,14.9-2.4,21.8-5.6
		c3.6-1.7,6.6-3.8,9.6-6.2c2.9-2.4,6.6-4.4,10.1-6.2c3.1-1.6,6.4-2.9,9.8-3.8c5-1.3,9.9-0.8,14.8-2.2c2.4-0.6,4.7-1.4,7-2.4
		c0.8-0.4,7.1-3.4,6.9-4.1c0,0,1.3,3.6,1.3,3.6c-5.8,1.1-11.7,2.7-17.4,4.4c-5.2,1.6-10.4,3.4-15.5,5.5c-5.5,2.3-10.4,5.3-15.7,8
		c-9.5,4.9-19.5,9.2-29.6,12.8c-6,2.1-12.1,3.3-18.2,4.8c-5.1,1.3-10.1,2.8-15.1,4.4c-4.7,1.5-9.4,3.1-13.9,4.9
		c-2.5,1-6.6,2.4-8.2,4.5c-0.2,0.2-0.3,0.4-0.4,0.7C-5.8,136.7-7,133.7-7,133.7z"/>
</g>
<g>
	<path class="st1" d="M133.5,46.8c-2,1.3-3.8,2.7-5.6,4.2c-4.8,4.1-9.7,7.8-15.7,10.7c-11.4,5.6-23.9,8.1-36.1,10.1
		C50.4,76,24.7,84.3,1.9,97.7c-1.1,0.6-14.7,8.5-14.3,9.6c0,0,2,4.9,2,4.9c0.1-0.4,0.4-0.8,0.7-1.1c2.7-3.5,9.3-6,13.5-7.8
		c7.5-3.3,15.3-6,23-8.7c8.2-2.8,16.6-5.6,24.9-7.9c10-2.8,20.2-4.9,30-8.7c16.7-6.4,33.1-13.9,48.7-22.4c1.8-1,3.6-2,5.3-3"/>
	<path class="st1" d="M132.6,45.1c-1.9,1.3-3.7,2.6-5.4,4.1c-4.8,4.1-9.7,7.8-15.7,10.7c-11.4,5.6-23.9,8.1-36.1,10.1
		C49.7,74.1,24,82.5,1.2,95.9c-1.1,0.6-14.7,8.5-14.3,9.6c0,0,2,4.9,2,4.9c0.1-0.4,0.4-0.8,0.7-1.1c2.7-3.5,9.3-6,13.5-7.8
		c7.5-3.3,15.3-6,23-8.7c8.2-2.8,16.6-5.6,24.9-7.9c10-2.8,20.2-4.9,30-8.7c16.7-6.4,33.1-13.9,48.7-22.4c1.7-0.9,3.4-1.9,5.1-2.8"
		/>
</g>
<g>
	<path class="st1" d="M-15.9,35c4.7-0.7,9.4-1.3,14.1-1.8c10.9-1.1,22.2-2.6,32.9-6.4c5.6-2,10.4-4.6,15.1-7.6
		c4.7-3,10.4-5.4,15.8-7.6c4.8-1.9,9.9-3.5,15-4.5c7.5-1.5,14.6-0.7,22.1-2.2c3.6-0.7,7.2-1.7,10.6-2.9c1.2-0.4,11-4.2,10.8-5
		c0,0,1.4,4.6,1.4,4.6c-8.7,1.2-17.5,3-26.2,5c-7.9,1.8-15.8,4-23.6,6.5c-8.4,2.8-16.2,6.5-24.3,9.8C33.1,28.8,17.7,34,2.3,38.3
		c-5.4,1.5-10.9,2.6-16.4,3.6"/>
	<path class="st1" d="M-16.1,34.2c4.7-0.7,9.4-1.3,14.1-1.8c10.9-1.1,22.2-2.6,32.9-6.4c5.6-2,10.4-4.6,15.1-7.6
		c4.7-3,10.4-5.4,15.8-7.6c4.8-1.9,9.9-3.5,15-4.5C84.3,4.7,91.4,5.5,98.9,4c3.6-0.7,7.2-1.7,10.6-2.9c1.2-0.4,11-4.2,10.8-5
		c0,0,1.4,4.6,1.4,4.6c-8.7,1.2-17.5,3-26.2,5c-7.9,1.8-15.8,4-23.6,6.5c-8.4,2.8-16.2,6.5-24.3,9.8C32.8,28,17.5,33.1,2.1,37.5
		C-3.3,39-8.8,40.1-14.3,41"/>
</g>
<circle class="st1" cx="14.2" cy="8" r="0.9"/>
<circle class="st1" cx="16.1" cy="2.2" r="1"/>
<circle class="st1" cx="22.7" cy="3.2" r="1.9"/>
<circle class="st1" cx="47.2" cy="44.2" r="0.9"/>
<circle class="st1" cx="43.1" cy="39.8" r="1"/>
<circle class="st1" cx="47.2" cy="34.4" r="1.9"/>
<circle class="st1" cx="87.9" cy="57.6" r="1.1"/>
<circle class="st1" cx="92.7" cy="62.7" r="1.4"/>
<circle class="st1" cx="87.1" cy="69.1" r="1.6"/>
<circle class="st1" cx="41.1" cy="100" r="0.9"/>
<circle class="st1" cx="37.1" cy="95.4" r="1"/>
<circle class="st1" cx="41.4" cy="90.2" r="1.9"/>
<circle class="st1" cx="93.7" cy="112.7" r="1.1"/>
<circle class="st1" cx="91.3" cy="106.2" r="1.4"/>
<circle class="st1" cx="98.9" cy="102.4" r="1.6"/>
</svg>
