<?xml version="1.0" encoding="utf-8"?>
<!-- Generator: Adobe Illustrator 26.0.1, SVG Export Plug-In . SVG Version: 6.00 Build 0)  -->
<svg version="1.1" id="Layer_1" xmlns="http://www.w3.org/2000/svg" xmlns:xlink="http://www.w3.org/1999/xlink" x="0px" y="0px"
	 viewBox="0 0 120 140" style="enable-background:new 0 0 120 140;" xml:space="preserve">
<style type="text/css">
	.st0{opacity:0.5;fill:#3488B7;}
	.st1{opacity:0.5;fill:#FFFFFF;}
	.st2{opacity:0.5;fill:#FBB03B;}
	.st3{fill:none;stroke:#C8CCE5;stroke-miterlimit:10;}
	.st4{fill:#FFFFFF;stroke:#FFFFFF;stroke-miterlimit:10;}
	.st5{fill:#B283C4;stroke:#B283C4;stroke-width:1.3679;stroke-miterlimit:10;}
	.st6{fill:#9E80B3;}
	.st7{opacity:0.5;}
	.st8{fill:#745A84;}
</style>
<g>
	<path class="st0" d="M0,5v130c0,2.8,2.2,5,5,5h110c2.8,0,5-2.2,5-5V5c0-2.8-2.2-5-5-5H5C2.3,0,0,2.2,0,5z"/>
	<path class="st1" d="M0.2,46.7c0-0.6,7.8-1.9,8.4-2c13.1-2.3,26.8-1.7,39.7,0.9c6.1,1.2,12.5,2.2,18.8,1.6c3.3-0.3,6.3-1.2,9.3-2.3
		c3-1.1,6.4-1.7,9.7-2.1c2.9-0.4,5.9-0.5,8.8-0.3c4.3,0.3,8,2.1,12.3,2.4c2.1,0.2,4.1,0.2,6.2,0c0.7-0.1,6.6-0.7,6.6-1.3
		c0,0,0.1,3.2,0.1,3.2c-4.9-0.7-10-1.1-14.9-1.3c-4.6-0.2-9.2-0.2-13.8,0.1c-5,0.3-9.7,1.3-14.6,2c-8.9,1.3-18,1.9-27,2
		c-5.3,0.1-10.5-0.7-15.7-1.2c-4.4-0.4-8.8-0.5-13.2-0.7c-4.1-0.1-8.3-0.2-12.4,0c-2.3,0.1-5.9,0.1-7.8,1.3
		c-0.2,0.1-0.4,0.3-0.5,0.4C0.2,49.4,0.2,46.7,0.2,46.7z"/>
	<path class="st1" d="M0.2,45.6c0-0.6,7.8-1.9,8.4-2c13.1-2.3,26.8-1.7,39.7,0.9c6.1,1.2,12.5,2.2,18.8,1.6c3.3-0.3,6.3-1.2,9.3-2.3
		c3-1.1,6.4-1.7,9.7-2.1c2.9-0.4,5.9-0.5,8.8-0.3c4.3,0.3,8,2.1,12.3,2.4c2.1,0.2,4.1,0.2,6.2,0c0.7-0.1,6.6-0.7,6.6-1.3
		c0,0,0.1,3.2,0.1,3.2c-4.9-0.7-10-1.1-14.9-1.3c-4.6-0.2-9.2-0.2-13.8,0.1c-5,0.3-9.7,1.3-14.6,2c-8.9,1.3-18,1.9-27,2
		c-5.3,0.1-10.5-0.7-15.7-1.2c-4.4-0.4-8.8-0.5-13.2-0.7c-4.1-0.1-8.3-0.2-12.4,0c-2.3,0.1-5.9,0.1-7.8,1.3
		c-0.2,0.1-0.4,0.3-0.5,0.4C0.2,48.3,0.2,45.6,0.2,45.6z"/>
	<path class="st1" d="M120.2,70.9c-1.8,0.4-3.5,0.9-5.1,1.5c-4.5,1.7-9,2.9-14,3.4c-9.6,0.9-19.2-0.6-28.4-2.4
		c-19.5-3.8-40-4.8-59.9-1.3c-0.9,0.2-12.8,2.1-12.7,3.1c0,0,0.1,4.1,0.1,4.1C0.4,79,0.7,78.8,1,78.6c2.9-1.8,8.2-1.8,11.7-2
		c6.2-0.3,12.5-0.2,18.7-0.1c6.6,0.2,13.3,0.4,19.9,1c7.9,0.7,15.7,1.9,23.7,1.8c13.6-0.1,27.3-1.1,40.7-3c1.5-0.2,3.1-0.5,4.6-0.7"
		/>
	<path class="st1" d="M120,69.4c-1.7,0.4-3.3,0.9-4.9,1.5c-4.5,1.7-9,2.9-14,3.4c-9.6,0.9-19.2-0.6-28.4-2.4
		c-19.5-3.8-40-4.8-59.9-1.3c-0.9,0.2-12.8,2.1-12.7,3.1c0,0,0.1,4.1,0.1,4.1c0.2-0.3,0.5-0.4,0.8-0.6c2.9-1.8,8.2-1.8,11.7-2
		c6.2-0.3,12.5-0.2,18.7-0.1c6.6,0.2,13.3,0.4,19.9,1C59.1,76.8,67,78,75,77.9c13.6-0.1,27.3-1.1,40.7-3c1.5-0.2,2.9-0.4,4.4-0.7"/>
	<path class="st1" d="M-0.2,11.1c4,0.5,8,1.2,12,2c9.2,1.8,18.8,3.3,28.4,2.4c5-0.5,9.5-1.7,14-3.4c4.5-1.7,9.7-2.5,14.6-3.2
		c4.4-0.6,8.9-0.8,13.3-0.5c6.5,0.5,12.1,3.1,18.6,3.6c3.1,0.2,6.2,0.3,9.4,0c1.1-0.1,9.9-1.1,9.9-2c0,0,0.1,4.8,0.1,4.8
		c-7.4-1.1-15-1.7-22.6-2c-6.9-0.3-13.9-0.3-20.8,0.1c-7.5,0.5-14.7,2-22,3.1c-13.4,1.9-27.1,2.9-40.7,3c-4.8,0-9.5-0.4-14.2-0.8"/>
	<path class="st1" d="M-0.2,10.3c4,0.5,8,1.2,12,2c9.2,1.8,18.8,3.3,28.4,2.4c5-0.5,9.5-1.7,14-3.4c4.5-1.7,9.7-2.5,14.6-3.2
		c4.4-0.6,8.9-0.8,13.3-0.5c6.5,0.5,12.1,3.1,18.6,3.6c3.1,0.2,6.2,0.3,9.4,0c1.1-0.1,9.9-1.1,9.9-2c0,0,0.1,4.8,0.1,4.8
		c-7.4-1.1-15-1.7-22.6-2c-6.9-0.3-13.9-0.3-20.8,0.1c-7.5,0.5-14.7,2-22,3.1c-13.4,1.9-27.1,2.9-40.7,3c-4.8,0-9.5-0.4-14.2-0.8"/>
	<circle class="st1" cx="14.3" cy="8" r="0.9"/>
	<circle class="st1" cx="16.1" cy="2.2" r="1"/>
	<circle class="st1" cx="22.8" cy="3.2" r="1.9"/>
	<circle class="st1" cx="47.2" cy="44.2" r="0.9"/>
	<circle class="st1" cx="43.1" cy="39.8" r="1"/>
	<circle class="st1" cx="47.3" cy="34.4" r="1.9"/>
	<circle class="st1" cx="87.9" cy="57.6" r="1.1"/>
	<circle class="st1" cx="92.7" cy="62.7" r="1.4"/>
	<circle class="st1" cx="87.1" cy="69.1" r="1.6"/>
	<circle class="st1" cx="41.1" cy="100" r="0.9"/>
	<circle class="st1" cx="37.1" cy="95.4" r="1"/>
	<circle class="st1" cx="41.4" cy="90.2" r="1.9"/>
	<circle class="st1" cx="93.7" cy="112.7" r="1.1"/>
	<circle class="st1" cx="91.3" cy="106.2" r="1.4"/>
	<circle class="st1" cx="98.9" cy="102.4" r="1.6"/>
	<path class="st2" d="M0,124.2c9.6-5.1,19.5-9.3,29.5-12.5c5.6-1.8,11.2-3.3,16.8-3.9c7.7-0.9,15.5,1.3,23.1,2.6
		c3.6,0.6,7.1,1.4,10.6,3c1.7,0.7,3.3,1.7,4.9,2.8c2.3,1.7,3.9,3.4,6.6,3.2c4.8-0.3,9.5-1.3,14.2-1.1c4.7,0.1,10,0.3,14.3,3.8v13
		c0,2.8-2.2,5-5,5H5c-2.8,0-5-2.2-5-5L0,124.2z"/>
</g>
<g>
	<g>
		<path class="st3" d="M-98.9,110.7"/>
	</g>
</g>
<path class="st4" d="M-16.2,78.9"/>
<g>
	<path class="st5" d="M64.2,113.6c-0.1,0.4-0.4,0.8-0.9,1.1c-1.9,0.9-4.6,0.9-5.8-1.1c-1.3-2.1-1.4-5.2-1.7-7.6
		c-0.4-2.6-0.5-5.2,0.2-7.8c0.5-1.9,1.5-3.6,1.6-5.6c0.2-2.1-0.2-4.3-0.7-6.4c-0.6-2.6-2.2-5.4-0.1-7.7c0.7-0.8,1.6-1.1,2.6-0.9
		c7.9,1,6.3,12.5,4,17.5c-0.7,3.1-1.2,6.3-1.1,9.5c0,1.9,0.4,3.7,0.9,5.5C63.6,111,64.4,112.5,64.2,113.6z"/>
	<path class="st5" d="M56,110.8c-0.1,0.3-0.3,0.6-0.7,0.8c-1.5,0.7-3.5,0.7-4.5-0.8c-1-1.6-1-4-1.3-5.8c-0.3-1.9-0.2-3.9,0.1-5.8
		c0.3-1.9-0.3-3.7,0-5.6c0.3-1.9,0.1-3.3-0.2-5.2c-0.3-1.6-0.2-3.3,1-4.6c0.5-0.6,1.2-0.8,2-0.7c6.1,0.7,4.8,9.6,3.1,13.4
		c-0.5,2.4-0.9,4.8-0.8,7.3c0,1.4,0.3,2.9,0.7,4.2C55.6,108.8,56.2,109.9,56,110.8z"/>
	<path class="st5" d="M48.5,89.6c-0.3-1.1-1.7-1.6-3-1.6c-0.7,0.1-1.3,0.4-1.8,1c-0.3,0.4-0.5,0.9-0.7,1.4c-0.2,0.5-0.1,1.1-0.2,1.7
		c-0.4,1.3-1.3,2.4-1.7,3.7c-0.5,1.6-0.3,2.9,0.2,4.5c0,0,1.9,6,1.7,9c-0.1,1.1-0.9,3,0,3.9c1.7,1.8,3.7-1.8,4.3-3
		c0.5-0.9,1-1.8,1.2-2.8c0.5-1.7,0.3-3.6,0.7-5.3c0.5-2.1,1.2-4.6,0.4-6.8c-0.7-1.8-1.1-3.4-1.1-5.3C48.6,90,48.6,89.8,48.5,89.6z"
		/>
	<path class="st5" d="M40.5,93.2c-0.9-0.9-2.9-0.6-4-0.1c-2.2,1-2,3.8-1.6,5.7c0.4,1.7,0.6,3.5,0.7,5.2c0.1,1.7,0.2,3.3,0.2,5
		c-0.1,1.6-1,5.4,1.4,6c2.1,0.6,3.6-3.4,4.2-4.7c2.3-5.2,1.4-11.5-0.5-16.7C40.8,93.5,40.6,93.4,40.5,93.2z"/>
	<path class="st5" d="M33.7,95.8c-0.7-0.9-1.7-1.3-3-1c-3.3,0.8-0.9,5.9-0.2,7.7c0.4,1.2,0.5,2.5,0.6,3.7c0,1,0,2.1,0,3.1
		c-0.1,1.6-1.2,5.1,1.8,4.8c1.9-0.2,2.1-2.9,2.2-4.4c0.1-1.9,0.5-3.7,0.5-5.6C35.5,102.3,35.4,97.9,33.7,95.8z"/>
	<path class="st5" d="M27.8,98.1c-0.2-0.1-0.4-0.2-0.6-0.3c-0.6-0.1-1.6,0.2-2.2,0.5c-3.2,1.8,0.1,6.5,0.9,8.7
		c0.3,0.9,0.6,1.9,0.6,2.9c0.1,1.5,0.2,2.6,1.9,3.1c1.5,0.4,1.7-1.1,1.6-2.3c0-1.2,0.5-2.6,0.5-3.9c0-2.3-0.5-4.7-1.5-6.8
		C28.8,99.4,28.4,98.5,27.8,98.1z"/>
	<path class="st5" d="M22.7,100.6c-0.6-0.3-1.4-0.4-2.2,0.1c-1.8,1.1-0.6,3.2,0.3,4.4c0.6,0.8,1.1,1.6,1.5,2.5
		c0.2,0.6,0.3,1.2,0.4,1.8c0.1,1.2-0.4,2.5,1,3.3c1.8,1.1,2.3-3.2,2.3-4.4C25.9,106.5,24.8,101.8,22.7,100.6z"/>
	<path class="st5" d="M18.3,102c-0.2-0.1-0.5-0.2-0.8-0.2c-1.5,0.1-2.4,1.3-1.5,2.8c0.6,1,1.1,2,1.5,3c0.3,0.8,0.6,1.6,0.8,2.5
		c0.1,0.4,0,0.8,0.1,1.1c0.1,0.8,1.1,1.5,1.9,1.5c1.2-0.1,1.4-1.8,1.4-2.8c0-1.7-0.5-3.1-1.2-4.7C19.9,104.3,19.4,102.6,18.3,102z"
		/>
	<path class="st5" d="M14.4,103.7c-0.1,0-0.2-0.1-0.4-0.1c-2-0.2-2.4,1.2-1.4,2.7c0.7,1,1.3,2.2,1.8,3.4c0.4,1.1,0.4,2.6,1,3.7
		c0.5,1,1.8,0.9,2.4,0.1c0.9-1.1,0-3.4-0.3-4.6C17.2,107.3,16.4,104.3,14.4,103.7z"/>
	<path class="st5" d="M11,106.1c-0.5-0.2-1.5-0.2-2,0c-1.5,0.5-1,2.7-0.1,3.4c0.6,0.5,1.2,0.7,1.6,1.3c0.2,0.3,0.4,0.7,0.5,1
		c0.1,0.6-0.3,0.9,0.1,1.5c0.2,0.4,0.7,0.9,1.1,1.2c1.1,1,1.9,0.5,2-1C14.2,113.6,14.9,107.9,11,106.1z"/>
	<path class="st5" d="M7.4,113.5c0.4,0.5,0.5,1.3,1.1,1.6c1.1,0.5,1.7-1.5,1.8-2.3c0,0,0.4-2.6-3.1-3.1c0,0-1.2,0.1-0.9,2
		c0,0-1.5-0.9-1.8,0.2l-0.7,1c0,0-0.1,0.9,0.7,0.9c0.2,0,0.8,1,1.2,1.1C6.8,115.3,6.9,114,7.4,113.5z"/>
	<path class="st5" d="M75.5,80.5c0.7-0.7,1.2-1.6,1.9-2.4c0.6-0.8,1.5-1.5,2.4-1.7c1-0.2,1.4,0.3,2.2,0.6c1.2,0.4,2.4-2.5,4-2.5
		c0.6,0,1,0.2,1.5,0.5c0.3,0.2,0.9,1,1.3,1c0.3,0,1-0.9,1.3-1c0.5-0.2,1.1-0.3,1.7-0.2c0.6,0.1,1.1,0.4,1.6,0.8c0.6,0.6,0.5,1,1.3,1
		c0.8-0.1,1.3-0.6,2.1,0c0.8,0.6,0.6,1.7,1.2,2.3c0.2,0.2,0.9,0.2,1.3,0.2c0.8,0.1,2.1,0.2,2.8,0.6c0.7,0.4,1.1,1.2,1.2,1.9
		c0,0.3-0.2,1-0.1,1.2c0.4,0.5,1.9,0.7,2.5,1c0.8,0.5,1.4,1.3,1.6,2.2c0.2,1.3-0.7,2.6-0.3,3.8c-5.5,2.1-11.7,2.3-17.3,0.7
		C84,88.8,79,85.3,75.5,80.5z"/>
	<g>
		<g>
			<g>
				<g>
					<g>
						<path class="st6" d="M73.5,88.9c-0.1,0,0.2,0.6,0.2,0.8C73.7,89.5,73.4,88.7,73.5,88.9z"/>
						<polygon class="st6" points="73.8,87.1 73.9,87.4 73.8,86.7 						"/>
						<path class="st6" d="M74.5,86.9c-0.4-1.1-0.2,0.3-0.5-0.1l-0.1-0.3l0.2,1C74.3,87.3,74.3,86.6,74.5,86.9z"/>
						<path class="st6" d="M75.6,89.3c-0.1-0.4,0-0.4-0.1-0.1C75.5,89.2,75.5,89.3,75.6,89.3C75.5,89.3,75.5,89.3,75.6,89.3z"/>
						<path class="st6" d="M75.5,89.3C75.4,89.4,75.7,89.7,75.5,89.3L75.5,89.3z"/>
						<path class="st6" d="M75.8,89l0,0.4c0.1,0.3,0.2,0.3,0.2,0.5C76,89.6,75.9,89.4,75.8,89z"/>
						<path class="st6" d="M75.6,88.1l0,0.2C75.6,88.4,75.7,88.4,75.6,88.1z"/>
						<path class="st6" d="M75.6,88.7l0-0.4c-0.1-0.2-0.2-0.6,0,0.1C75.5,88.1,75.6,88.4,75.6,88.7z"/>
						<path class="st6" d="M75.5,88.5c-0.1-0.2-0.2-0.4-0.3-0.8C75.1,87.9,75.4,88.7,75.5,88.5z"/>
						<path class="st6" d="M74.2,85.7L74,85.4l0,0.4C74,85.6,74.3,86,74.2,85.7z"/>
						<path class="st6" d="M76.4,89.4c-0.1-0.3-0.2-0.7-0.3-1l0,0.3C76.3,88.9,76.4,89.1,76.4,89.4z"/>
						<path class="st6" d="M76.2,88.4l0-0.5C76.1,88,76.1,88.2,76.2,88.4z"/>
						<polygon class="st6" points="75.3,86.8 75.3,87.7 75.3,86.8 						"/>
						<polygon class="st6" points="76.8,89.4 76.9,90 76.8,89.1 						"/>
						<path class="st6" d="M77,89.2c0.1,0.5,0.2,0.8,0.2,1.1c0-0.1,0-0.5,0-0.9C77.2,89.6,77.2,89.6,77,89.2z"/>
						<path class="st6" d="M77.2,88.9c0,0.1,0,0.3,0,0.6C77.2,89.3,77.2,89.1,77.2,88.9z"/>
						<path class="st6" d="M76.4,88.1c0,0.1,0.2,0.5,0.2,0.7L76.4,88.1L76.4,88.1z"/>
						<path class="st6" d="M76.4,88.1L76.4,88.1C76.4,88.1,76.5,88.1,76.4,88.1C76.5,88.1,76.4,88.1,76.4,88.1z"/>
						<path class="st6" d="M76.3,88.1L76.3,88.1C76.3,88,76.3,88,76.3,88.1z"/>
						<path class="st6" d="M75.7,87.3c0-0.4,0-0.9-0.3-1.4C75.5,86.4,75.7,86.7,75.7,87.3z"/>
						<path class="st6" d="M76.1,87.2l-0.1-0.1c0,0.2,0.1,0.5,0.2,0.7L76.1,87.2z"/>
						<polygon class="st6" points="76.1,87 76.1,87.2 76.1,87.3 						"/>
						<path class="st6" d="M76.9,88.2c0-0.3,0-0.4,0.1-0.4c-0.1-0.1-0.2-0.2-0.2-0.2C76.8,87.9,76.8,88.3,76.9,88.2z"/>
						<path class="st6" d="M76.6,88.1C76.6,88.1,76.6,88.1,76.6,88.1C76.6,88,76.6,88,76.6,88.1z"/>
						<path class="st6" d="M77.5,87.7c0,0,0-0.1,0-0.1L77.5,87.7L77.5,87.7z"/>
						<path class="st6" d="M76.7,87.5c-0.1-0.1-0.1,0.1,0,0.3c0-0.1,0-0.1,0.1-0.1C76.7,87.5,76.7,87.5,76.7,87.5z"/>
						<path class="st6" d="M77.3,88.5c0-0.1-0.1-0.3-0.1-0.4C77.2,88.4,77.3,88.7,77.3,88.5z"/>
						<path class="st6" d="M76.7,88.2C76.7,88.2,76.7,88.3,76.7,88.2C76.7,88.4,76.7,88.3,76.7,88.2z"/>
						<path class="st6" d="M76.7,88.2c0-0.1,0-0.3,0-0.4c0,0.1,0,0.1,0,0.3C76.7,88.1,76.7,88.2,76.7,88.2z"/>
						<path class="st6" d="M76.9,83.1c0.1,0.7,0,1.3-0.2,0.6c0,0.5,0.4,2.7,0.7,3.9c0-0.3-0.1-0.6,0-1c-0.1-0.4-0.4-0.8-0.4-1.4
							c0.1-0.4,0.2,0.2,0.3,0.6c-0.2-0.8,0-1.2-0.2-2.4L77,83.8C77,83.6,77,83.3,76.9,83.1z"/>
						<path class="st6" d="M77.2,87.6L77.2,87.6c0,0.2,0.1,0.5,0.3,1c0-0.3,0-0.6-0.1-0.8c-0.1,0-0.1,0-0.2-0.1L77.2,87.6z"/>
						<path class="st6" d="M77,87.7c-0.1-0.7-0.1-1-0.3-1.8c-0.1,0.1,0,0.6,0,0.9C76.9,86.6,76.8,87.2,77,87.7c0,0-0.1,0.1-0.1,0.1
							c0.1,0.1,0.1,0.2,0.2,0.3c0,0,0,0,0,0l0,0l0,0c0-0.1,0-0.1,0-0.1c0,0,0,0,0,0C77.1,87.9,77,87.8,77,87.7c0.1,0.1,0,0.2,0,0.3
							c0,0,0,0.1,0,0.1l0,0l0.1-0.4C77.2,87.6,77.1,87.6,77,87.7z"/>
						<path class="st6" d="M75.2,84.4c0,0.1,0,0.1,0,0.2C75.2,84.4,75.2,84.4,75.2,84.4z"/>
						<path class="st6" d="M75.4,84.8c0,0.1,0.1,0.4,0,0.3c-0.1-0.2-0.1-0.3-0.1-0.6c0,0.2,0,0.5,0.2,0.9l0-0.1
							c0.2,0.2,0.5,1.1,0.5,1.2C75.7,85.8,75.6,85.4,75.4,84.8z"/>
						<path class="st6" d="M76.2,86l0.1-0.4L76.1,85l0.1,0.4C76,85.3,76.2,85.7,76.2,86z"/>
						<polygon class="st6" points="77.5,88.1 77.6,88.9 77.6,87.8 						"/>
						<polygon class="st6" points="77.7,88 77.8,88.6 77.8,88.2 						"/>
						<path class="st6" d="M93.2,83.8l0.1-0.1C93.3,83.7,93.2,83.8,93.2,83.8z"/>
						<path class="st6" d="M92.8,83.6l-0.2,0.3C92.7,83.7,92.8,83.6,92.8,83.6z"/>
						<path class="st6" d="M82.2,88.5c-0.1,0.6-0.3,1.6-0.1,0.9l0.2-0.7C82.3,88.8,82.2,88.7,82.2,88.5z"/>
						<path class="st6" d="M87.8,85.7c0-0.1,0-0.1,0.1-0.2c-0.1,0.2-0.2,0.4-0.3,0.6C87.6,86,87.7,85.9,87.8,85.7z"/>
						<path class="st6" d="M88.9,82.9l-0.1,0.5C88.9,83.2,88.9,83.1,88.9,82.9z"/>
						<path class="st6" d="M96,84.5l0.5-0.6C96.3,83.8,96.2,84.2,96,84.5z"/>
						<path class="st6" d="M79.5,87.6c0,0.3,0,0.4,0.1,0.5C79.5,87.7,79.5,87,79.5,87.6z"/>
						<path class="st6" d="M89.6,90.8c0.1-0.1,0.2-0.2,0.2-0.4C89.8,90.5,89.7,90.6,89.6,90.8z"/>
						<path class="st6" d="M79.7,88.1c0-0.1,0-0.1,0-0.2c0,0.1-0.1,0.2-0.1,0.2C79.5,88.4,79.6,88.6,79.7,88.1z"/>
						<path class="st6" d="M103.1,91C103.1,91,103.1,91,103.1,91C103.1,91,103.1,91,103.1,91z"/>
						<path class="st6" d="M99.7,98c-0.1,0-0.1,0-0.1,0C99.5,98,99.5,98,99.7,98z"/>
						<path class="st6" d="M78.5,88.2C78.4,88.3,78.5,88.3,78.5,88.2L78.5,88.2z"/>
						<path class="st6" d="M78,85.3c0-0.1,0-0.2,0-0.4C78,85.1,78,85.3,78,85.3z"/>
						<path class="st6" d="M80.8,83.6L80.8,83.6C80.8,83.5,80.8,83.5,80.8,83.6z"/>
						<path class="st6" d="M78.4,87.9c0,0.1,0,0.2,0.1,0.2C78.4,88,78.4,88,78.4,87.9z"/>
						<path class="st6" d="M78.4,88.2C78.4,88.2,78.4,88.2,78.4,88.2C78.4,88.3,78.4,88.4,78.4,88.2z"/>
						<path class="st6" d="M78.5,88.2C78.5,88.2,78.5,88.1,78.5,88.2C78.5,88.1,78.5,88.2,78.5,88.2C78.5,88.2,78.5,88.2,78.5,88.2z
							"/>
						<path class="st6" d="M98.1,89.2C98.1,89.2,98.1,89.2,98.1,89.2C98.3,89,98.3,89.1,98.1,89.2z"/>
						<path class="st6" d="M86,81.7C85.9,81.7,85.9,81.7,86,81.7L86,81.7L86,81.7z"/>
						<path class="st6" d="M86.3,81.2c-0.4,0.8-0.4,0.7-0.4,0.5l-0.6,2L86.3,81.2z"/>
						<path class="st6" d="M94.3,84.2l0.2-0.7c0.7-0.9,0.7-0.5,0.9-1.4c-1.1,2-0.7-0.1-1.8,1.9l0.1-0.5c0,0,0.1-0.1,0.1-0.1
							c0.3-1.1-0.9,1.4-1,1c0-0.2,0.1-0.5,0.3-0.7l-0.4,0.4c0-0.1,0.2-0.4,0.2-0.4l-0.4,0l0-0.1c-0.2,0.3-0.5,0.8-0.7,1
							c0.1-0.3,0.1-0.2,0.2-0.5l-0.4,0.4c0.2-0.6,0.6-1,0.6-0.9c0.8-2.2-0.4,0.5-0.1-0.9l0.3-0.2c0.4-1.2,0.1-0.9,0.3-1.7
							c-0.1,0.4-0.5,2-0.9,2.5c0-0.2,0-0.3-0.3,0.1c0.3-0.7,0.2-0.6,0-0.6l0.4-1c-0.2,0.2-0.5,0.7-0.7,1.2c-0.1-0.2,0.2-0.9,0.5-1.6
							c-0.2-0.3-0.4,1.3-0.7,1.4c0-0.5-0.3-0.1-0.8,0.4c0-0.4,0.3-0.6,0.3-0.9l-0.4,0.8c0,0,0.1-0.3,0.1-0.4c-0.2,0.3-0.4,1-0.7,1.2
							c-0.5,1.1,0.3-1.7-0.3-0.5c0.1-0.3,0.3-0.6,0.4-1c-0.6,0.7-0.4,0.5-1.1,1.6l0.1-0.7c-0.2,0.8-0.7,1.7-1.1,2.3
							c-0.1,0.4-0.2,0.7-0.2,0.9l-0.4,0.5c0-0.2,0.2-0.5,0.4-0.9c0,0.1-0.1,0.2-0.1,0.2c0.1-0.4,0.3-1,0.6-1.5
							c0,0.2-0.1,0.4-0.2,0.7c0.3-0.6,0.6-1.3,0.8-1.9c-0.1,0.1-0.1,0.2-0.2,0.2c0.1-0.2,0.1-0.3,0.2-0.4c0-0.1-0.1,0.1-0.2,0.4
							l0.4-1.2l-0.2,0.4l0-0.8c-0.6,1.1-1.4,2.7-1.9,3.1c0.4-0.8,0.5-1.4,0.8-2.3c-0.3,1.1,0.4-0.4,0.5-0.1
							c-0.1-0.1,0.1-0.6,0.2-0.8L87.6,83c0.3-0.8,0.1-0.6,0.2-1c-0.5,1.6-0.6,1-0.9,1.4c0.2-0.5,0.4-1.1,0.5-0.9
							c0.2-1.3-0.9,1.8-0.7,0.7c0,0,0,0.1,0.1-0.2c-0.2,0.5-0.3,0-0.1-0.5l0,0c-0.2-0.3-0.7-0.3-1.2,1.1c0.1-0.2,0.6-1.6,0.7-1.9
							l-1.9,4.5c0.4-1.2,1.2-4,1.6-4.6c0-0.2,0-0.4-0.3,0c0,0.2-0.5,1.7-0.5,1.8c0.3-1.4,0.1-0.7,0.3-1.9c0,0.3-0.7,2.1-0.8,2
							c0.1-0.3,0.6-1.8,0.7-2l-0.8,1.7c0.2-0.3,0.5-1.5,0.6-2.1c-0.1,0.4-0.2-0.1-0.3,0.1l0,0.5c-0.2-0.4-1.1,2.5-1.3,2.3
							c0.1-0.4,0.8-2.3,0.7-2.6c-0.4,0.9-1.7,4.4-2.1,5l0.1-0.5l-0.3,0.6c0.5-1.4,1.7-4.2,2.3-5.3c0-0.5,0.2-0.6,0-0.6
							c0.1-0.5,0.3-0.7,0.4-0.7l-0.3-0.4c-0.3,1.1-0.6,1-0.9,1.9l0.7-1c-0.3,1.1-1.2,3-1.4,2.8c0.1-0.5,0.6-1.9,0.7-2.3
							c-0.1,0.4-0.5,0.6-0.4,0.4l0.3-0.6c0-0.5-0.7,1.4-0.5,0.3c0-0.1,0.2-1.5,0-0.8c-0.2,1.3-1.3,5.2-1.6,6.1
							c0-0.1,0.1-1.3,0.1-1.9c0.1-1,0.7-2.3,0.9-3.2c-0.1,0.3-0.2,0.7-0.3,0.8c0-0.3,0.3-0.9,0.1-0.8c-0.3,1.1-0.3-0.2-0.3,0.9
							c-0.2,0.3-0.1-0.3-0.3-0.3c-0.1,0.7-0.7,2.5-0.8,2.8c0.1-0.3,0.1-0.7,0.1-0.8c-0.2-0.1-0.3-0.7-0.6-0.7c0-0.3-0.1-0.6,0-1.1
							c-0.1,0.2-0.1,0.6-0.2,0.6c-0.1-1,0.2-0.1,0.2-1.3c-0.1,0.7-0.3,0.9-0.5,1.3c0,1,0.2,0.2,0.4-0.2c-0.2,1.4-0.5,2.9-0.7,3.5
							c-0.2,0.3,0-0.9-0.1-0.7c-0.3-0.3-0.3,2.5-0.5,1.5c-0.1-0.9,0-1.8-0.1-2.5c0.2-0.3,0.2,0.6,0.3,0.5L79,84.1
							c0.1-0.3,0.2-0.5,0.2-0.3c-0.1-0.8-0.6-0.2-1-0.9c0,0.3-0.1,0.6,0,1l0.1-0.1c0.1,0.7-0.1,1,0,1.4c-0.1,0.5-0.1,1.3-0.3,0.9
							l-0.1-1c0,0.3,0.2,0.6,0.2,0.3c0,0.5-0.4-1.4-0.3,0l0.2,0.7c-0.1,0.5,0,1.6-0.2,1.3c0.2,1,0-0.1,0.2,1.1c-0.2-1.5,0.3,0,0-1.5
							c0.2,1.4,0.2,0.6,0.4,1.7c0-0.3-0.1-0.7,0-0.5c0-0.1,0-0.2,0-0.3c0,0,0,0,0,0l0,0c0-0.1,0-0.1,0,0c0-0.1-0.1-0.3-0.1-0.5
							c0-0.8,0.2-0.8,0.2-1.2c0.1,0.2,0,0.4,0,0.8l0.1-0.6c0,0.8,0.2,1.3,0.1,1.7l0.1,0c0.1,0.4,0.1,0.6,0.2,0.3
							c0,0.2,0.1-0.8,0.1-0.2l0.2-0.5l0,0.2c0.1,0.1,0.4-1.2,0.5,0.2c0.1-0.2,0.2-0.4,0.2-0.2l-0.1,0.7c0.1-0.2,0.1,0.7,0.2,0
							c-0.3,1.7,0.2,0.4,0.3,0.8l0.2-0.8c0.1,0.1,0.2-0.1,0.5-0.4l0.2-0.7c0.3-0.6,0.2,0.6,0.4,0.6c-0.1,0.3-0.1,0.2-0.1,0
							c-0.3,1.7,0.9-1,0.7,0.2c0.1-0.2,0.2-0.1,0.1,0.1c0,0,0,0,0,0c0,0,0,0,0,0c0,0.1,0,0.3,0,0.4c0-0.2,0.1-0.3,0.1-0.4
							c0,0,0.1-0.1,0.3-0.2l-0.2,0.8c0,0,0,0,0,0c0,0.3,0.2-0.4,0.3-0.9c0.1-0.1,0.2-0.3,0.2-0.4c-0.3,1.3,0.3-0.4,0,1
							c0.3-0.6,0.5-0.4,1-1.7c-0.1,0.2-0.1,0.3-0.1,0.3c0,0.2,0,0.4,0.2,0l-0.3,1l0.6-1.3c-0.1,0.6-0.2,1-0.5,1.7
							c0.6-1.1,0.3-0.4,0.9-1.5l-0.2,0.6c0.1,0,0.5-0.8,0.3-0.3c-0.2,1.3,0.7,0.4,0.7,1.7c0.6-1.9-0.1,0.9,0.4-0.5
							c-0.1,0.4-0.2,0.7-0.4,1.1c0.4-0.4,0,0.8,0.6-0.4c-0.1,0.4-0.3,0.6-0.3,0.9c0-0.1,0.2-0.4,0.1-0.1c-0.1,0.3-0.2,0.4-0.3,0.5
							c0.2,0,0.7-1.3,1.2-2.6c-0.1,0.6,0,0.6,0.3-0.2c-0.1,0.4-0.2,0.9-0.4,1c0.1,0.1,0.2,0.8,0.6-0.2c-0.1,0.3,0.1,0.1,0.1,0
							c0.1,0.1,0.1,0.2,0.3,0.2l0-0.2c0.5-1.2,0.2-0.2,0.4-0.3L88.3,88c-0.1,1,0.3-0.4,0.2,0.7l0.3-0.8c0.7-1.6-0.1,1.1,0.3,0.5
							l0.1-0.5c0.3-0.5-0.7,2.3-0.7,2.5c0,0.1-0.1,0.2-0.2,0.3c-0.2,1,0.5-1,0.7-1.1c-0.2,0.5-0.6,1.3-0.6,1.5
							c-0.1,0.4,1.1-1.6,0.8-0.5c0.2-0.4,0.3-0.8,0.5-1.1c0.2-0.1-0.4,1.7,0.3,0.4c0,0.1-0.1,0.2-0.1,0.3c0.2-0.3,0.5-0.4,0.9-1
							c-1.2,2.5,1.2-0.9,0,1.4l0.3,0L90.9,91c0.1,0.2,0.4-0.3,0.8-0.8c0,0.2-0.2,0.4-0.3,0.5c0,0.6,0,0.5,0.9-0.5L92,90.9
							c0.3-0.4-0.4,1.3,0.4,0.6c-0.1,0.1-0.1,0.2-0.2,0.3c0.8-0.7-0.7,2.3,1.1-0.1l0.6-0.5c-0.1-0.4,0.8-1.1,1-1.5
							c0.2-0.1-0.3,0.9-0.5,1l0.1-0.1c-1,1.3,0,0.7-0.7,1.5c0.5,0.2,0.3,1.3,0.7,1.6l0.7-1l0.1,0.2c-0.1,0.3-0.6,0.8-0.6,0.7
							c-0.4,0.6,0.5-0.3,0.7-0.5c-0.1,0.5-1,1.1-0.9,1.1l0.1,0l0.1-0.1c0.4-0.3,0.7-0.8,0.8-0.6c-0.1,0.3-0.5,0.6-0.5,0.7
							c-0.1,0.1-0.1,0.1,0,0.1l0.1,0.2l0.6-0.8c0.4-0.3,0.1,0.2,0.8-0.7c-1,1.4,0.2,1,0,1.5c0.6-0.4,0.7-0.3,0.7-0.2
							c0.1-0.2,0.8-1,0.8-0.8c-1.6,1.6-0.5,0.9-1.5,2.2c0.7-0.9,0.5,0.1,1.4-1.2c0,0.2-0.6,0.6-0.9,1.1c0.8-0.4,0.1,0.9,0.5,0.9
							c0.2-0.2,0.5-0.6,0.8-0.8l-0.9,1.2c0.2-0.1,1.2-1.2,0.6-0.4c0.2-0.2,0.4-0.5,0.5-0.5c-0.5,1.5,1.9,0.2,0.5,2.7
							c0.3-0.5,0.4-0.5,0.5-0.4c0.1-0.1,0.5-0.5,0.8-0.8l-0.6,1c0.8-0.8,0.3,0.2,1.1-0.5l-0.2,0.1c1-0.8,1.9-2.1,3-3.2
							c-1.1,0.9,1.2-1.8-0.4-0.5c0.2-0.3,0.4-0.3,0.6-0.6c-0.5,0.4-0.7,0.5-0.6,0.2l0.1-0.1c-0.4-0.2,0-0.8,0-1.4l-0.5,0.6
							c0-0.1,0.2-0.3,0.3-0.5c-0.9,0.8,0.1,0.2-0.9,1.1c1.1-1.3-0.5-0.5,0.8-1.9c-0.1-0.1-0.6,0.7-0.7,0.6l0.3-0.4l-0.5,0.4
							c0-0.1,0.4-0.6,0.7-0.9c0,0.1,0.1,0,0.2,0c0.3-0.5-0.4-0.1-0.3-0.3l-0.1,0.3c-0.6,0.1-0.5-0.8-1.5-0.3l-0.2,0.3
							c-0.7,0.3,0.1-0.5-0.4-0.5l0.1-0.1c-0.3,0.2-0.5,0.3-0.5,0.2c0.4-0.3,0.5-0.7,0.9-1c-0.8,0.3-0.5,0.3-1.6,1.2l0.4-0.5
							c-0.4,0.4-0.6,0.6-0.9,0.6c0.5-0.3,0.6-0.8,1.1-1.2c0.6-1.3-1.3,0.7-0.1-0.9c-1.3,1.2-0.4,0.9-0.7,1.2
							c-0.3,0.5-0.9,0.9-0.9,0.7c-0.1-0.1,1.3-1.8,1.1-2c0,0,0.1-0.1,0.1,0c0.2-0.4-0.5,0.3-0.2-0.3c-0.7,0.8-0.1-0.2-1,0.9l0.4-0.1
							c-0.3,0.2-1.4,1.3-1.1,0.6c0.2-0.2,0.5-0.4,0.6-0.6c0.2-0.4-0.3,0.1-0.1-0.2c0.9-1,0.4,0,1.2-0.7c0.3-0.5-0.9,0.6,0.1-0.5
							c-1.3,1.4-0.1-0.4-1.1,0.6l0.5-0.6c-0.1,0.1-0.4,0.3-0.4,0.3l0.7-0.8c-0.7,0.6,0.2-0.8-0.2-0.5c0.3,0.2-0.5,0.8-0.8,1.4
							c-1,0.6,1.1-1.8,0.5-1.8c0.1-0.1-0.1,0.5-0.4,0.8c0-0.2,0.1-0.5,0.3-0.9c-0.4-0.1-0.5,0.7-0.9,1c0.5-0.9-0.4,0.2-0.6,0.4
							l0.5-0.7c0-0.6-1.1,1.3-0.9,0.6l0.8-0.8L97,86.8l0.6-0.7c-0.5,0.5-0.5,0.3-0.5,0c-0.3,0.5-0.9,1.2-1,1.1
							c0.2-0.5,0.5-0.6,0.2-0.6c0.3-0.4,0.7-0.9,0.4-0.2c0.2-0.2,0.3-0.4,0.5-0.6c0.2-0.5-0.2-0.3-0.2-0.3c0,0,0,0.1,0,0.2L96,86.4
							c0.1-0.3,0.3-0.5,0.5-0.6c-0.1,0-0.3,0.3-0.5,0.3c0.4-0.5,0.8-1.1,1-1.3l-0.7,0.4c0.1-0.3,0.3-0.8,0.5-0.9
							c0.1-0.4-1.1,0.9-1,0.3c-0.1,0.1-0.2,0.2-0.3,0.3c-0.1-0.2,0.1-1-0.5-0.4l0.5-1.1c-0.3,0.1-0.6,1.4-1.1,1.6
							c-0.4,0.2,0.4-0.9,0.5-1.3c-0.4,0.5-1.1,1.4-0.9,0.5C94.3,84.1,94.2,84.2,94.3,84.2z M92,83.6c0.1-0.1,0.4-0.6,0.2-0.1
							C91.8,84.3,91.9,83.9,92,83.6z M88,84.2c0.1-0.2,0.1-0.1,0.1,0.2C88,84.4,88,84.4,88,84.2z M78.8,87.5
							C78.8,87.5,78.8,87.5,78.8,87.5C78.9,87.8,78.9,87.7,78.8,87.5z M78.7,87.2c0,0.1,0,0.2,0,0.3c0-0.2,0-0.2,0.1-0.2
							C78.8,87.1,78.7,87,78.7,87.2z M95.1,93.8l0.1-0.2C95.4,93.5,95.3,93.6,95.1,93.8z"/>
						<path class="st6" d="M88.8,83.2c0,0.1-0.1,0.3-0.1,0.4C88.7,83.5,88.8,83.4,88.8,83.2z"/>
						<path class="st6" d="M95.9,84.6C95.9,84.6,95.9,84.6,95.9,84.6l0.1-0.1L95.9,84.6z"/>
						<path class="st6" d="M82.3,80.7c0,0.1,0,0.3,0,0.4C82.3,80.9,82.4,80.7,82.3,80.7z"/>
						<path class="st6" d="M78.1,88.6l0.1-0.2c0,0-0.1-0.1-0.1-0.3C78.1,88.3,78.1,88.6,78.1,88.6z"/>
						<path class="st6" d="M76.5,83.7c0,0.1,0,0,0,0.1l0.1,0.4C76.6,84.2,76.6,83.9,76.5,83.7z"/>
						<path class="st6" d="M77.7,85.9c-0.1-0.7-0.1-0.4-0.2-0.3c0,0,0,0,0,0C77.7,86.6,77.7,86.2,77.7,85.9z"/>
						<path class="st6" d="M77.5,85.6C77.5,85.7,77.5,85.7,77.5,85.6C77.5,86.1,77.5,85.7,77.5,85.6z"/>
						<path class="st6" d="M78.6,87.6c0-0.2,0,0.9,0,0.6C78.6,89.1,78.7,87.2,78.6,87.6z"/>
						<polygon class="st6" points="77.4,83.7 77.5,84.5 77.5,83.8 						"/>
						<path class="st6" d="M78.1,84.2L78,84c0,0.1,0,0.2,0,0.3C78,84.3,78.1,84.5,78.1,84.2z"/>
						<path class="st6" d="M78,84.3c0,0-0.1,0-0.1,0.1C77.9,84.4,77.9,84.4,78,84.3z"/>
						<polygon class="st6" points="77.6,83.4 77.6,83.6 77.7,83.6 						"/>
						<path class="st6" d="M79.5,84.4l0.2-0.2c0-0.3,0-0.5-0.1-0.4C79.6,84,79.5,84.1,79.5,84.4z"/>
						<path class="st6" d="M79.1,82.1c0,0.2,0,0.4,0.1,0.6l0-1.1L79.1,82.1z"/>
						<path class="st6" d="M79.6,81.8c0-0.3,0.3-0.8,0.1-0.8C79.7,81.3,79.5,81.6,79.6,81.8z"/>
						<polygon class="st6" points="81.9,83.5 81.8,83.5 81.4,85.2 						"/>
						<path class="st6" d="M85,80.2c0-0.4-0.4,1-0.4,0.5c-0.2,0.4,0,0.4-0.1,0.8C84.7,81,84.7,81.3,85,80.2z"/>
						<path class="st6" d="M84.5,81.4c0,0.1-0.1,0.1-0.1,0.2C84.4,81.5,84.5,81.5,84.5,81.4z"/>
						<polygon class="st6" points="99.3,99 99.1,99.3 99.5,98.8 						"/>
						<path class="st6" d="M100.4,98.2L99.6,99l0.8-0.7C100.3,98.4,100.2,98.4,100.4,98.2z"/>
						<path class="st6" d="M92.5,81.5l-0.1,0.2c-0.1,0.3-0.1,0.3,0,0.4L92.5,81.5z"/>
						<polygon class="st6" points="93.8,83 93.8,82.9 93.4,83.8 						"/>
						<path class="st6" d="M95.8,82.6c0-0.1-0.2,0.1-0.2,0C95.7,82.5,95.2,83.7,95.8,82.6z"/>
					</g>
				</g>
			</g>
		</g>
	</g>
	<g class="st7">
		<path class="st8" d="M75.2,80.6c1.4-1.9,2.7-5.1,5.5-4.5c0.5,0.2,0.9,0.5,1.3,0.5c0.6,0,1.2-1.1,1.7-1.5c0.4-0.3,0.7-0.7,1.3-1
			c1-0.3,1.8-0.1,2.6,0.4c0.4,0.3,0.7,0.7,1,0.9c0,0,0,0-0.1,0c0,0-0.1,0-0.2,0c0,0,0,0,0,0c0.1-0.1,0.6-0.5,0.7-0.6
			c1.6-1.3,4.1-0.6,5,1.2c0.2,0.3,1.2-0.2,1.7-0.1c0.3,0,0.6,0.2,0.9,0.3c1.1,0.7,0.8,2.1,1.3,2.5c1.2,0.3,3,0.1,4.1,0.9
			c0.8,0.6,1.3,1.7,1.1,2.7c0,0.2-0.1,0.3,0,0.4c0.5,0.4,1.3,0.4,1.9,0.6c1,0.4,1.8,1.2,2.2,2.2c0.5,1.3-0.5,3.1,0,4.1
			c0,0,0.2,0.5,0.2,0.5s-0.5,0.2-0.5,0.2C95.7,95.3,81.6,91.1,75.2,80.6L75.2,80.6z M75.3,80.6c7.3,9,20.3,12.9,31.2,8.9
			c0,0-0.3,0.7-0.3,0.7c-0.4-1.2,0.1-2.2,0.3-3.1c0.4-1.2-0.5-2.6-1.6-3.1c-0.7-0.3-1.4-0.4-2.1-0.9c-0.3-0.2-0.2-0.6-0.2-0.9
			c0.2-0.9-0.1-1.8-0.8-2.3c-0.7-0.5-1.7-0.5-2.6-0.6c-0.5-0.1-0.9,0.1-1.5-0.2c-0.5-0.4-0.6-1-0.7-1.4c-0.3-0.8-0.8-1.3-1.7-0.9
			C95,76.9,94.8,77,94.5,77c-0.3,0-0.8-0.1-1-0.3c-0.7-1.1-1.9-1.7-3.1-1.2c-0.4,0.1-0.9,0.9-1.5,1.1c-0.6,0.2-1.2-0.3-1.5-0.6
			c-1.6-1.7-2.6-0.3-3.9,1c-0.5,0.4-1,0.8-1.7,0.7c-1.1-0.4-1.4-1-2.4-0.7C77.6,77.4,76.6,79.4,75.3,80.6L75.3,80.6z"/>
	</g>
	<path class="st5" d="M66,113.5c-1-1.4-1.5-3-2-5.3c-0.5-2.2-0.8-4.5-0.7-6.7c0.2-4.2,1.9-7.9,2.3-12.1c0.2-2.1,0.2-4.2,0.2-6.3
		c0-1.8-0.9-4.5,0.5-5.9c4.4-4.2,7.4,0.9,9.7,4c2.3,3,6.1,4.7,9.4,6.4c3.1,1.6,6.5,2.9,10,3.3c1.8,0.2,3.7,0.2,5.6,0
		c3.1-0.5,7.1-3,10.2-1.1c2.2,1.3,0,3.6-1.2,4.7c-2.2,1.9-4,1.7-6.7,2.3c-1.8,0.4-3.5,0.9-5.3,1.4c-3.4,1.1-6.5,3-9.2,5.3
		c-1.4,1.1-2.7,2.3-3.5,3.9c-0.9,1.7-1.1,3.6-2.1,5.2c-0.9,1.4-2,2.7-3.4,3.6c-3.2,2.2-7.2,1.6-10.5-0.2
		C67.7,115.2,66.7,114.4,66,113.5z"/>
	<g>
		<g>
			<g>
				<g>
					<g>
						<path class="st6" d="M91.3,91.3c0.1,0-0.3-0.4-0.4-0.5C90.9,91,91.4,91.4,91.3,91.3z"/>
						<polygon class="st6" points="90.7,93.3 90.6,93.1 90.7,93.7 						"/>
						<path class="st6" d="M89.1,94.1c0.5,0.8,0.5-0.4,1-0.2l0.1,0.2L90,93.3C89.8,93.5,89.5,94.2,89.1,94.1z"/>
						<path class="st6" d="M87.6,92.4c0.2,0.3-0.1,0.4,0.2,0c0,0,0-0.1-0.1-0.1C87.7,92.4,87.6,92.4,87.6,92.4z"/>
						<path class="st6" d="M87.7,92.4C87.9,92.3,87.5,92.1,87.7,92.4L87.7,92.4z"/>
						<path class="st6" d="M87,92.9l0.1-0.4c-0.1-0.2-0.3-0.2-0.3-0.4C86.7,92.3,86.8,92.5,87,92.9z"/>
						<path class="st6" d="M87,93.6l0.1-0.2C87,93.3,87,93.3,87,93.6z"/>
						<path class="st6" d="M87.2,93.1l-0.2,0.4c0.1,0.1,0.2,0.4,0.1-0.1C87.2,93.6,87.2,93.3,87.2,93.1z"/>
						<path class="st6" d="M87.4,93.2c0.2,0.2,0.4,0.2,0.3,0.6C88.1,93.5,87.8,92.9,87.4,93.2z"/>
						<path class="st6" d="M89.4,95l0.3,0.2l0-0.4C89.7,95.1,89.3,94.8,89.4,95z"/>
						<path class="st6" d="M85.4,92.7c0,0.2,0.2,0.5,0.3,0.8l0.1-0.3C85.7,93.1,85.5,93,85.4,92.7z"/>
						<path class="st6" d="M85.7,93.5l-0.2,0.4C85.8,93.9,85.8,93.7,85.7,93.5z"/>
						<path class="st6" d="M87.2,94.6c0.1-0.3,0.2-0.6,0.2-0.8C87.4,94.1,87.3,94.4,87.2,94.6L87.2,94.6z"/>
						<polygon class="st6" points="84.4,92.9 84.4,92.4 84.3,93.2 						"/>
						<path class="st6" d="M83.6,93.2c0.1-0.4-0.3-0.6-0.2-0.9c-0.2,0.1-0.3,0.5-0.4,0.8C83.2,92.9,83.4,92.9,83.6,93.2z"/>
						<path class="st6" d="M82.9,93.6c0.1-0.1,0.1-0.3,0.2-0.5C83,93.2,82.9,93.3,82.9,93.6z"/>
						<path class="st6" d="M85,93.9c0-0.1-0.2-0.4-0.3-0.5l0.2,0.5C84.9,93.9,85,93.9,85,93.9z"/>
						<path class="st6" d="M84.9,94L84.9,94c-0.1,0-0.2,0-0.3,0C84.7,94,84.7,94,84.9,94z"/>
						<path class="st6" d="M85,93.9L85,93.9C85,94,85,94,85,93.9z"/>
						<path class="st6" d="M86.4,94.3c-0.1,0.4-0.4,0.8,0.1,1.2C86.5,95.1,86.2,94.9,86.4,94.3z"/>
						<path class="st6" d="M85.3,94.6l0.3,0.1c0-0.1-0.1-0.4-0.1-0.5L85.3,94.6z"/>
						<polygon class="st6" points="85.2,94.8 85.3,94.6 85.2,94.6 						"/>
						<path class="st6" d="M83.5,94c-0.1,0.3-0.2,0.3-0.4,0.4c0.2,0.1,0.4,0.1,0.6,0.1C83.7,94.3,83.7,93.9,83.5,94z"/>
						<path class="st6" d="M84.2,94L84.2,94C84.2,94.1,84.2,94.1,84.2,94z"/>
						<path class="st6" d="M81.4,94.7c0,0,0,0.1,0,0.1L81.4,94.7L81.4,94.7z"/>
						<path class="st6" d="M83.7,94.6c0.2,0.1,0.2-0.1,0.3-0.3c-0.1,0.1-0.2,0.1-0.3,0.2C83.7,94.5,83.7,94.6,83.7,94.6z"/>
						<path class="st6" d="M82.4,93.9c0.1,0.1,0.2,0.2,0.3,0.3C82.6,94,82.4,93.7,82.4,93.9z"/>
						<path class="st6" d="M84.1,93.9C84.1,93.9,84.1,93.9,84.1,93.9C84,93.8,84.1,93.8,84.1,93.9z"/>
						<path class="st6" d="M84.1,93.9C84,94,84,94.2,84,94.3c0.1-0.1,0.1-0.1,0.2-0.2C84.1,94,84.1,94,84.1,93.9z"/>
						<path class="st6" d="M81.4,98.4c0-0.5,0.3-1.1,0.7-0.6c0.3-0.5-0.2-2.2-0.6-3.1c0,0.2,0.1,0.4-0.2,0.8
							c0.2,0.3,0.8,0.6,0.6,1.1c-0.4,0.3-0.4-0.1-0.6-0.4c0.3,0.6-0.4,1-0.2,2l0.3-0.4C81.4,98,81.3,98.3,81.4,98.4z"/>
						<path class="st6" d="M82.1,94.7l0.1-0.1c-0.2-0.1-0.3-0.3-0.6-0.7c-0.2,0.3-0.2,0.5-0.2,0.7L82.1,94.7L82.1,94.7z"/>
						<path class="st6" d="M82.8,94.5c0,0.6-0.3,0.9,0,1.5c0.4-0.1,0.2-0.5,0.4-0.8C82.6,95.5,83.3,94.9,82.8,94.5
							c0.1-0.1,0.2-0.1,0.3-0.1c-0.1-0.1-0.2-0.1-0.4-0.2l0,0l0,0l0,0c0,0.1,0.1,0.1,0,0.1c0,0,0,0,0,0
							C82.8,94.4,82.8,94.5,82.8,94.5c-0.2-0.1-0.1-0.1,0-0.2c0,0,0-0.1,0-0.1l0,0l-0.6,0.4C82.3,94.7,82.5,94.6,82.8,94.5z"/>
						<path class="st6" d="M86.4,96.8c0,0,0-0.1-0.1-0.1C86.4,96.8,86.4,96.8,86.4,96.8z"/>
						<path class="st6" d="M86.1,96.5c0-0.1,0-0.3,0.2-0.3c0.2,0.1,0.1,0.3,0.1,0.5c0.1-0.2,0.2-0.5-0.1-0.7l0,0.1
							c-0.3-0.1-0.8-0.8-0.7-0.9C85.7,95.7,85.8,96.1,86.1,96.5z"/>
						<path class="st6" d="M84.4,95.7L84,96.1l0.4,0.5l-0.1-0.3C84.6,96.3,84.4,95.9,84.4,95.7z"/>
						<polygon class="st6" points="81.3,94.4 81.3,93.8 81.1,94.7 						"/>
						<polygon class="st6" points="80.7,94.5 80.6,94 80.5,94.4 						"/>
						<path class="st6" d="M44.9,106.9l-0.1,0.2C44.9,107.1,44.9,107,44.9,106.9z"/>
						<path class="st6" d="M46.1,106.5l-0.1-0.3C46.1,106.4,46.1,106.5,46.1,106.5z"/>
						<path class="st6" d="M64.3,92.1c-0.3-0.5-0.7-1.3-0.6-0.7l0.1,0.6C64,91.9,64.1,91.9,64.3,92.1z"/>
						<path class="st6" d="M53.3,99.2c0,0,0.1,0.1,0.1,0.1c0-0.2-0.1-0.4-0.1-0.6C53.3,98.9,53.3,99,53.3,99.2z"/>
						<path class="st6" d="M54.3,101.4l-0.4-0.2C54,101.3,54.1,101.4,54.3,101.4z"/>
						<path class="st6" d="M38.1,109.1l-0.1,0.6C38.2,109.7,38.1,109.4,38.1,109.1z"/>
						<path class="st6" d="M74.5,94.9c-0.1-0.3-0.2-0.4-0.3-0.4C74.3,94.8,74.4,95.3,74.5,94.9z"/>
						<path class="st6" d="M43.1,100.9c0,0.1,0,0.3,0,0.4C43.2,101.2,43.2,101,43.1,100.9z"/>
						<path class="st6" d="M73.8,94.3c0,0.1,0,0.1,0,0.2c0.1-0.1,0.3-0.1,0.4-0.1C74.2,94.2,74.1,94,73.8,94.3z"/>
						<path class="st6" d="M16.8,111.6C16.8,111.6,16.8,111.6,16.8,111.6C16.8,111.6,16.8,111.6,16.8,111.6z"/>
						<path class="st6" d="M8.1,110.1c0-0.1,0.1-0.1,0.2-0.2C8.3,109.9,8.2,109.9,8.1,110.1z"/>
						<path class="st6" d="M78.1,94.5C78.2,94.5,78.1,94.5,78.1,94.5L78.1,94.5z"/>
						<path class="st6" d="M78.9,96.8c0,0.1,0,0.2,0,0.3C78.9,97,78.9,96.9,78.9,96.8z"/>
						<path class="st6" d="M71.5,97.4C71.5,97.4,71.5,97.4,71.5,97.4C71.5,97.6,71.5,97.5,71.5,97.4z"/>
						<path class="st6" d="M78.3,94.8c-0.1-0.1-0.1-0.1-0.2-0.2C78.2,94.7,78.2,94.7,78.3,94.8z"/>
						<path class="st6" d="M78.3,94.5c0,0,0.1,0,0.1,0C78.4,94.5,78.4,94.4,78.3,94.5z"/>
						<path class="st6" d="M77.9,94.6c0.1,0,0.1,0,0.2,0.1c0,0,0-0.1,0-0.1C78.1,94.6,78,94.6,77.9,94.6z"/>
						<path class="st6" d="M27.2,107.4C27.2,107.4,27.2,107.4,27.2,107.4C27.1,107.6,27.1,107.6,27.2,107.4z"/>
						<path class="st6" d="M61.2,98.7C61.2,98.6,61.2,98.6,61.2,98.7L61.2,98.7L61.2,98.7z"/>
						<path class="st6" d="M60.8,99.2c0-0.8,0.1-0.7,0.3-0.6L60.6,97C60.6,97.7,60.7,98.5,60.8,99.2z"/>
						<path class="st6" d="M41.9,108l0.5,0.4c-0.3,1-0.8,0.8-0.2,1.4c-0.4-1.8,1.7-0.6,1.2-2.4l0.4,0.3c-0.1,0-0.1,0.1-0.1,0.1
							c0.8,0.7,0-1.4,0.7-1.4c0.3,0.1,0.5,0.2,0.4,0.5c0.1-0.2,0.2-0.4,0.3-0.6c0.2,0,0.2,0.3,0.1,0.3c0.2-0.1,0.5-0.3,0.7-0.4
							l0,0.1c0-0.3,0.1-0.8,0.1-1.1c0.3,0.2,0,0.2,0.1,0.4l0.2-0.6c0.4,0.4,0.2,0.9-0.1,1c1.1,1.5,0.1-0.6,1.4,0l-0.3,0.4
							c0.7,0.8,0.8,0.3,1.6,0.7c-0.3-0.3-1.6-1.1-1.4-1.7c0.2,0.1,0.4,0,0.4-0.4c0.3,0.6,0.5,0.3,0.7,0.2l0.4,0.8
							c0.2-0.4,0-0.8,0-1.2c0.4-0.1,0.8,0.5,1.1,0.9c0.6-0.2-0.9-0.8-0.3-1.2c0.6,0.1,0.7-0.4,1-1.2c0.4,0.1,0.2,0.5,0.4,0.7
							l-0.1-0.8c0.1,0,0.2,0.2,0.2,0.3c0.1-0.4-0.4-0.8-0.2-1.2c-0.4-0.9,1.4,0.8,1.3-0.4c0.2,0.2,0.2,0.5,0.4,0.8
							c0.2-0.9,0.2-0.7,0.2-1.8l0.7,0.3c-0.6-0.4-0.6-1.3-0.6-2c-0.3-0.2-0.5-0.4-0.6-0.5L53,98c0.1,0.1,0.2,0.4,0.3,0.7
							c0-0.1,0-0.2,0-0.2c0.3,0.2,0.5,0.7,0.6,1.2c-0.1-0.1-0.3-0.2-0.4-0.4c0.1,0.5,0.3,1.1,0.6,1.5c0-0.1,0-0.2,0.1-0.3
							c0,0.1,0.1,0.3,0.1,0.3c0.1,0.1,0-0.1,0-0.4l0.6,0.8l-0.2-0.4l0.9,0.2c0-1.1-0.2-2.6,0.4-3.4c0.1,0.7,0.5,1.1,0.8,1.8
							c-0.6-0.7-0.4,0.6-0.9,0.7c0.2,0,0.4,0.4,0.4,0.5l0.3-1.1c0.3,0.6,0.4,0.4,0.7,0.6c-0.7-1.2,0.1-1.1,0.3-1.6
							c0.2,0.4,0.3,0.9-0.1,0.9c0.8,0.8-0.1-1.7,0.6-1c-0.1,0-0.2,0-0.1,0.2c0-0.5,0.7-0.4,0.7,0.1l-0.1,0c0.6-0.1,1.7-0.6,1.5-1.7
							c0,0.1,0.3,1.4,0.4,1.6c0-1.3,0-2.7,0.1-4.1c0.1,1,1,3.2,0.7,3.9c0.2,0.1,0.4,0.2,0.6-0.2c-0.1-0.1-0.5-1.3-0.4-1.5
							c0.6,1,0.4,0.5,1,1.4c-0.2-0.2-0.3-1.8,0-1.7c0,0.2,0.3,1.5,0.2,1.7c0.1-0.5,0.2-1.1,0.3-1.6c-0.1,0.3,0.1,1.3,0.3,1.7
							c-0.1-0.3,0.4,0,0.6-0.2l-0.3-0.3c0.6,0.2,0.5-2.2,1.2-2.1c-0.1,0.3-0.2,1.9,0.1,2.1c0.1-0.8,0.8-3.8,1.7-4.3l0.1,0.5
							c0.2-0.1,0.4-0.3,0.6-0.4c-0.3,0.6-0.7,1.4-1.1,2.2c-0.4,0.9-0.7,1.7-0.9,2.2c0.2,0.4,0,0.5,0.3,0.5c0.1,0.4-0.2,0.6-0.3,0.6
							c0.2,0.1,0.4,0.2,0.6,0.3c0.1-0.9,0.6-0.8,0.8-1.6c-0.3,0.3-0.6,0.5-0.9,0.8c0-0.5,0.2-1.1,0.5-1.6c0.3-0.5,0.6-0.8,0.9-0.7
							c0.1,0.4-0.5,1.6-0.5,1.9c0.1-0.3,0.6-0.5,0.6-0.2l-0.3,0.4c0.2,0.4,0.8-1.1,0.9-0.1c0.1,0.1-0.1,1.2,0.2,0.7
							c0.2-1,1.2-4.1,1.6-4.8c0,0.1,0.4,1.2,0.4,1.8c-0.1,0.9-1.1,1.7-1.2,2.4c0.1-0.2,0.3-0.5,0.4-0.5c0.1,0.3-0.4,0.7,0,0.7
							c0.4-0.8,0.6,0.3,0.5-0.7c0.4-0.1,0.3,0.3,0.7,0.4c0.1-0.6,1.1-1.7,1.5-1.9c-0.1,0.2-0.1,0.5-0.2,0.7c0.6,0.3,0.9,0.8,1.5,1
							c0,0.2,0.3,0.6,0,0.9c0.1-0.1,0.3-0.4,0.5-0.4c0.3,0.9-0.5,0-0.4,1c0.1-0.5,0.7-0.6,1.1-0.9c0-0.8-0.6-0.3-1,0
							c0.3-1.1,1-2.2,1.6-2.6c0.5-0.2,0.1,0.8,0.2,0.6c1,0.3,0.9-1.9,1.6-1.1c0.3,0.7,0,1.5,0.1,2c-0.4,0.3-0.6-0.5-0.9-0.5l0.3,0.4
							c-0.1,0.2-0.5,0.4-0.6,0.2c0.2,0.7,1.7,0.2,2.5,0.8c0.1-0.3,0.4-0.5,0.2-0.8l-0.2,0.1c-0.2-0.6,0.4-0.8,0.1-1.1
							c0.3-0.4,0.6-1.1,1.1-0.8l0.2,0.8c0-0.2-0.3-0.5-0.4-0.2c0.1-0.4,0.8,1.1,0.9,0l-0.4-0.5c0.3-0.4,0.5-1.4,1-1.2
							c-0.3-0.8-0.1,0.1-0.5-0.8c0.4,1.2-1,0.1-0.5,1.3c-0.4-1.1-0.5-0.4-0.9-1.4c0,0.3,0.2,0.5-0.2,0.4c0,0.1,0,0.2-0.1,0.2
							c0,0,0,0,0,0l0,0c0,0,0,0.1,0,0c0.1,0.1,0.2,0.3,0.2,0.4c-0.1,0.6-0.6,0.6-0.8,1c-0.2-0.1,0.1-0.3,0-0.6l-0.2,0.5
							c0-0.6-0.5-1-0.1-1.4l-0.4,0c-0.2-0.3-0.5-0.5-0.7-0.2c-0.2-0.1-0.5,0.7-0.3,0.2c-0.2,0.1-0.4,0.2-0.6,0.3l0-0.2
							c-0.5-0.1-1.3,0.9-1.6-0.4c-0.2,0.1-0.4,0.2-0.6,0l0.1-0.5c-0.3,0.1-0.4-0.7-0.7-0.3c0.3-1.4-1.1-0.8-1.6-1.3l-0.3,0.6
							c-0.4-0.2-0.8-0.2-1.4-0.1l-0.2,0.6c-0.6,0.3-1-0.8-1.8-0.9c0.1-0.2,0.3-0.1,0.4,0c-0.3-0.8-0.9-0.6-1.4-0.4
							c-0.5,0.2-0.9,0.5-1.3,0c-0.2,0.2-0.3,0.1-0.5,0c0,0,0,0,0,0c0,0-0.1,0-0.1,0c-0.1-0.1-0.2-0.2-0.3-0.3
							c0.1,0.1,0.2,0.3,0.2,0.3c-0.2,0-0.4,0.1-0.6,0.3L63.8,92c0,0,0,0-0.1,0c-0.2-0.2-0.2,0.3,0,0.8c-0.1,0.1-0.2,0.2-0.3,0.4
							c-0.3-1-0.5,0.4-0.9-0.7c-0.1,0.6-1,0.6-0.9,1.7c0-0.1-0.1-0.2,0-0.2c-0.2-0.1-0.5-0.2-0.6,0.2l-0.3-0.8
							c-0.1,0.4-0.2,0.8-0.2,1.2c-0.4-0.4-0.6-0.7-0.5-1.4c-0.5,1.1-0.5,0.5-0.8,1.6l-0.1-0.5c-0.2,0.1-0.3,0.9-0.6,0.5
							c-0.8-0.8-2.3,0.7-3.8,0.3c0.9,1.3-0.8-0.4-0.3,0.7c-0.2-0.3-0.5-0.4-0.4-0.8c-0.4,0.6-1.1-0.1-1,1c-0.2-0.3-0.1-0.5-0.3-0.7
							c0,0.1,0,0.4-0.2,0.2c-0.2-0.2-0.1-0.3-0.1-0.5c-0.5,0.4,0,1.4,0.4,2.4c-0.5-0.3-0.6-0.2-0.5,0.6c-0.3-0.3-0.6-0.5-0.3-0.8
							c-0.2,0.1-1.4,0.2-1,1c-0.2-0.2-0.3,0.1-0.3,0.2c-0.4,0.2-0.5,0.1-0.9,0.4l0.2,0.1c0.4,1-0.2,0.4-0.5,0.7l0-0.1
							c-1.1-0.2-0.1,0.5-1.3,0.1l0.4,0.5c0.6,1.3-1-0.4-1.2,0.3l0.3,0.2c0,0.6-1.5-1.3-1.8-1.4c-0.1-0.1,0-0.2,0-0.3
							c-1-0.4,0.3,0.8,0,1.2c-0.3-0.4-0.4-1.1-0.8-1c-0.3-0.3-0.2,1.8-1,1.1c0.2,0.3,0.5,0.6,0.4,0.9c-0.3,0.3-1.4-0.9-1.2,0.3
							c-0.1-0.1-0.1-0.2-0.2-0.2c-0.1,0.4-0.6,0.7-0.6,1.4c-0.5-1-0.7-0.7-1-0.3c-0.3,0.4-0.5,0.8-0.8-0.2c-0.2,0.1-0.5,0.2-0.7,0.3
							l0-0.2c-0.5,0-0.6,0.5-0.7,1c-0.1-0.1-0.1-0.3-0.1-0.4c-0.8-0.3-0.8-0.2-1.4,0.9l-0.1-0.7c-0.1,0.4-1.2-0.9-1.9-0.1
							c0-0.1,0-0.2,0.1-0.3c-0.8,0.9-2.1-1.8-2.4,0.7l-0.6,0.6c0.8,0.2-0.1,1.1,0.2,1.5c-0.3,0.2-0.8-0.7-0.4-0.9l0.1,0.1
							c0.1-1.3-1-0.4-1-1.3c-1.5,0.1-3-0.6-4.5-0.6l0.2,1l-0.5,0c-0.1-0.2-0.2-0.8,0.1-0.7c-0.2-0.6-0.6,0.5-0.6,0.7
							c-0.8-0.4,0.2-1.2,0-1.2l-0.3,0.1l0.1,0.1c-0.2,0.4-0.2,0.8-0.7,0.8c-0.3-0.2-0.2-0.6-0.3-0.6c0-0.1,0-0.1-0.2,0l-0.7,0
							l0.4,0.8c-0.2,0.4-0.6,0-0.2,0.9c-0.6-1.3-2.5-0.1-2.9-0.5c-0.3,0.6-0.7,0.7-1.2,0.8c0.2,0.1,0.4,1,0,1
							c-0.3-1.8-1-0.6-1.7-1.7c0.6,0.7-1.1,0.6-0.3,1.6c-0.4,0-0.2-0.6-0.6-1c-0.6,0.9-2,0.2-2.9,0.9c0.1,0.2,0.4,0.5,0.3,0.9
							l-1-0.9c-0.2,0.2,0.4,1.3-0.3,0.8c0.1,0.2,0.3,0.4,0.3,0.5c-1.2-0.1-2.1,0.7-2.9,1.4c-0.9,0.7-1.7,1.3-3.3,1.1
							c0.5,0.2,0.4,0.3,0.2,0.5c0.2,0,0.4,0.5,0.6,0.7l-1.3-0.1c0.4,0.8-0.7,0.7-0.2,1.4l0.1-0.3c0.4,1,1.9,1.4,2.7,2.4
							c-0.4-1.1,1.8,0.7,1.3-0.9c0.3,0.1,0.2,0.4,0.4,0.6c-0.2-0.5-0.1-0.8,0.3-0.7l0,0.1c0.7-0.7,1.4-0.4,2.4-0.7l-0.4-0.5
							c0.2,0,0.4,0.1,0.6,0.2c-0.3-1-0.6,0.3-0.9-0.8c0.9,1,1.4-0.8,2.3,0.4c0.3-0.1-0.4-0.6-0.1-0.8l0.3,0.3l-0.2-0.5
							c0.2,0,0.6,0.4,0.7,0.7c-0.1,0-0.1,0.2-0.1,0.2c0.5,0.3,0.7-0.5,0.8-0.4l-0.4-0.1c0.7-0.7,2-0.7,2.6-1.7l-0.2-0.3
							c0.5-0.8,0.6,0.1,1.3-0.3l0,0.1c0.1-0.3,0.2-0.5,0.5-0.6c-0.1,0.4,0.5,0.6,0.4,1c0.6-0.8,0.2-0.6,0.5-1.8l0.2,0.5
							c0.1-0.5,0-0.7,0.4-0.9c-0.2,0.5,0.4,0.7,0.1,1.3c1,1,1-1.3,1.6,0.3c0.2-1.4-0.8-0.7-0.6-1c-0.2-0.4,0.2-1.1,0.5-1
							c0.3,0,0.7,1.7,1.3,1.6c-0.1,0-0.1,0.1-0.1,0.1c0.3,0.3,0.4-0.5,0.8,0c0.1-0.9,0.4,0,0.4-1.1l-0.6,0.3c0.3-0.3,0.6-1.6,1.2-1
							c0,0.2-0.2,0.5-0.3,0.7c0.2,0.3,0.3-0.2,0.5,0.1c0,1.1-0.8,0.3-1.1,1.1c0.2,0.4,0.7-0.8,0.5,0.4c0.2-1.5,0.7,0.2,1.1-1l0,0.6
							c0.1-0.1,0.2-0.4,0.3-0.4l-0.2,0.8c0.3-0.7,0.7,0.6,1.1,0.2c-0.8,0-0.2-0.8-0.5-1.2c0.9-0.9,0.6,1.7,1.6,1.3
							c-0.1,0.1-0.5-0.4-0.3-0.7c0.2,0.1,0.5,0.4,0.6,0.7c0.7-0.1-0.1-0.7,0.2-1.1c0.3,0.8,0.3-0.3,0.7-0.6l0,0.7
							c0.8,0.4,0.2-1.4,0.9-0.9l-0.3,0.9l0.4-0.2l-0.1,0.7c0.4-0.6,0.5-0.4,1-0.2c-0.1-0.5,0-1.2,0.4-1.2c0.3,0.4-0.1,0.6,0.4,0.5
							c-0.1,0.4-0.2,0.9-0.5,0.3c0,0.2-0.1,0.4-0.1,0.6c0.3,0.4,0.7,0.1,0.9,0.1c-0.1,0-0.2-0.1-0.2-0.1l0.7-0.9
							c0.1,0.2,0,0.4,0,0.6c0.2-0.1,0.2-0.4,0.5-0.5c0,0.5,0,1.1-0.3,1.4l0.7-0.6c0.1,0.2,0.4,0.6,0.3,0.8c0.5,0.3,1-1.1,1.6-0.8
							c0-0.1,0.1-0.2,0.2-0.3c0.5,0.1,1.1,0.7,1.7-0.2l0.5,0.9c0.5-0.3-0.7-1.1,0.1-1.6c0.5-0.4,0.4,0.8,0.6,1
							c0.2-0.5,0.5-1.6,1.2-1C42.3,108,42.1,107.9,41.9,108z M47.7,105.5c0,0.2-0.1,0.7-0.3,0.3C47.2,105.1,47.5,105.4,47.7,105.5z
							 M54.6,99.9c0,0.2-0.1,0.2-0.4,0C54.3,99.9,54.4,99.8,54.6,99.9z M76.7,95.1C76.7,95.1,76.7,95.1,76.7,95.1
							C76.5,94.9,76.6,95,76.7,95.1z M77.2,95.4c0-0.1,0-0.2,0-0.3c0,0.2-0.1,0.2-0.2,0.1C77,95.4,77,95.5,77.2,95.4z M25.3,103.1
							l0.1,0.2C25.2,103.5,25.2,103.3,25.3,103.1z"/>
						<path class="st6" d="M54.2,101.1c-0.1-0.1-0.1-0.2-0.2-0.3C54,101,54,101.1,54.2,101.1z"/>
						<path class="st6" d="M38.1,109C38.1,109,38.1,109,38.1,109c0,0,0,0.1,0,0.1L38.1,109z"/>
						<path class="st6" d="M68.6,99.1c-0.1-0.1-0.1-0.3,0-0.4C68.5,98.8,68.5,99,68.6,99.1z"/>
						<path class="st6" d="M79.4,94.1l-0.3,0.2c0.1,0,0.2,0.1,0.3,0.2C79.4,94.4,79.3,94.2,79.4,94.1z"/>
						<path class="st6" d="M82.6,97.8c0-0.1,0.1,0,0.1-0.1l-0.1-0.3C82.5,97.4,82.4,97.7,82.6,97.8z"/>
						<path class="st6" d="M79.9,96.3c0.1,0.5,0.3,0.3,0.5,0.2c0,0,0,0,0,0C80.3,95.7,80.1,96,79.9,96.3z"/>
						<path class="st6" d="M80.5,96.5c0.1,0,0.1-0.1,0.2,0C80.6,96.1,80.6,96.4,80.5,96.5z"/>
						<path class="st6" d="M77.7,95c0.1,0.1,0-0.7,0.1-0.5C77.9,93.8,77.2,95.4,77.7,95z"/>
						<polygon class="st6" points="80.3,98.1 80.2,97.4 80.1,98 						"/>
						<path class="st6" d="M78.5,97.7l0.4,0.2c0-0.1,0-0.2,0.1-0.2C78.7,97.7,78.5,97.5,78.5,97.7z"/>
						<path class="st6" d="M79,97.7c0.1,0,0.2,0,0.3-0.1C79.2,97.5,79.1,97.6,79,97.7z"/>
						<polygon class="st6" points="79.9,98.3 79.7,98.2 79.5,98.2 						"/>
						<path class="st6" d="M74.8,97.5l-0.4,0.1c-0.1,0.2,0,0.4,0.2,0.3C74.6,97.8,74.8,97.7,74.8,97.5z"/>
						<path class="st6" d="M75.8,99.5c-0.1-0.1-0.1-0.3-0.2-0.5l-0.1,0.8L75.8,99.5z"/>
						<path class="st6" d="M74.5,99.6c-0.1,0.2-0.7,0.6-0.2,0.6C74.5,100,74.9,99.8,74.5,99.6z"/>
						<polygon class="st6" points="68.9,96.7 69,96.7 69.5,95.4 						"/>
						<path class="st6" d="M64.1,99.2c0.3,0.3,0.1-0.9,0.4-0.5c0.1-0.3-0.3-0.3-0.2-0.6C64.1,98.4,64,98.2,64.1,99.2z"/>
						<path class="st6" d="M64.3,98.1c0-0.1,0.1-0.1,0.1-0.2C64.3,98,64.3,98,64.3,98.1z"/>
						<polygon class="st6" points="6.7,110.3 6.3,110.3 6.7,110.5 						"/>
						<path class="st6" d="M6.9,111.5l-0.7-0.6l0.4,0.7C6.7,111.5,6.8,111.4,6.9,111.5z"/>
						<path class="st6" d="M49.3,106.7l-0.1-0.2c-0.1-0.2-0.2-0.2-0.4-0.1L49.3,106.7z"/>
						<polygon class="st6" points="44.8,107.9 44.9,107.9 44.5,107.2 						"/>
						<path class="st6" d="M41.1,109.9c0.2,0,0.3-0.2,0.5-0.2C41.2,109.9,40.8,109,41.1,109.9z"/>
					</g>
				</g>
			</g>
		</g>
	</g>
	<g class="st7">
		<path class="st8" d="M64.3,113.8c-0.4,1.4-2.4,1.6-3.7,1.7c-3.4,0.2-4.5-3.6-5-6.2c-0.4-2.8-1-5.7-0.6-8.5
			c0.2-2.9,2.1-5.3,2.4-8.1c0.2-2.8-0.4-5.6-1.3-8.2c-0.4-1.3-0.9-2.8-0.4-4.3c0.4-1.5,1.8-2.8,3.4-2.8c3.3,0,5.8,2.3,6.5,5.4
			c1.1,4.1,0.1,9.4-1.4,12.7c-1,4.5-2,9.2-0.9,13.8C63.5,110.7,64.5,112.1,64.3,113.8L64.3,113.8z M64.2,113.7
			c0.2-1.6-0.9-3-1.2-4.5c-1.4-4.6-1.1-9.6-0.1-14.2c1.5-3.8,2.4-8.1,1.5-12.1c-0.3-1.3-0.9-2.5-1.8-3.4c-0.9-0.9-2.2-1.3-3.5-1.5
			c-1.3-0.1-2.3,0.9-2.8,2.1c-0.7,1.9,0.4,4.1,0.8,6c0.8,3.4,1.3,7.2-0.1,10.6c-1.5,3.9-0.7,8.2-0.3,12.3c0.2,2.5,0.8,6.1,4,6.1
			C61.8,115.2,63.8,115.1,64.2,113.7L64.2,113.7z"/>
	</g>
	<g class="st7">
		<path class="st8" d="M56.1,110.8c-0.3,1.1-1.8,1.3-2.8,1.4c-2.6,0.2-3.6-2.7-3.9-4.8c-0.4-2.2-0.7-4.3-0.5-6.5
			c0.1-1.1,0.5-2.1,0.5-3.2c-0.2-2.1,0.1-4.3,0.2-6.4c-0.1-2.6-1.5-5.8,0.9-8c1.5-1.2,3.7-0.5,5.1,0.6c0.9,0.8,1.5,2,1.8,3.1
			c0.9,3.1,0.1,7.4-1.1,9.8c-0.8,3.4-1.6,7-0.9,10.5C55.4,108.4,56.2,109.5,56.1,110.8L56.1,110.8z M55.9,110.7
			c0.1-1.2-0.7-2.2-0.9-3.4c-0.4-1.2-0.6-2.4-0.7-3.6c-0.2-2.5,0-5,0.6-7.4c1.3-3.5,2.5-8.6-0.1-11.6c-0.7-0.7-1.6-1-2.6-1.1
			c-1-0.1-1.7,0.6-2.1,1.4c-1,1.9-0.1,4.2,0,6.2c0.1,1.1-0.1,2.2-0.1,3.2c0.1,1.6,0.6,3.3,0.3,4.9c-0.3,2.1-0.2,4.2,0.1,6.3
			c0.2,1.9,0,4.5,1.6,5.8c0.9,0.6,2,0.6,3,0.3C55.3,111.5,55.8,111.3,55.9,110.7L55.9,110.7z"/>
	</g>
	<g class="st7">
		<path class="st8" d="M48.4,89.6c-0.4-1.2-1.8-1.6-2.9-1.4c-1.2,0.2-1.8,1.3-2,2.4c-0.1,0.5,0,1.1-0.2,1.8
			c-0.5,1.8-1.8,3.1-1.9,4.9c-0.1,4.7,2.6,9.4,1.5,14.3c-0.1,1,0.6,2,1.5,1.4c0.8-0.5,1.5-1.6,2-2.6c1.3-2.2,1.8-4.1,1.8-6.7
			c0.2-2.3,1.3-4.8,1.2-7.1c0-1.2-0.6-2.3-0.7-3.5C48.5,92.1,48.5,90.8,48.4,89.6L48.4,89.6z M48.6,89.6c0.1,1.2,0.1,2.4,0.5,3.6
			c0.3,1.2,1,2.2,1.3,3.5c0.5,2.5-0.5,4.8-0.7,7.3c0.1,2.4-0.7,5.2-2.1,7.2c-0.8,1.2-2,3.3-3.8,3.1c-2.2-0.5-1.5-3-1.1-4.5
			c0.4-3-0.6-6-1.6-8.8c-0.7-1.7-1.1-3.8-0.4-5.7c0.4-1.2,1.2-2.1,1.6-3.2c0.2-1,0.4-2.6,1.4-3.5C45,87.3,48,87.8,48.6,89.6
			L48.6,89.6z"/>
	</g>
	<g class="st7">
		<path class="st8" d="M40.4,93.3c-1.6-1.2-4.6-0.2-5.1,1.7c-0.5,2,0.4,4.1,0.5,6.2c0.2,2.2,0.2,4.4,0.2,6.6c0.1,2-0.7,4.4,0.3,6.3
			c0.5,0.7,1.4,0.9,2.1,0.3c3.3-4,3.9-9.7,3.5-14.8C41.7,97.4,41.5,95.1,40.4,93.3L40.4,93.3z M40.5,93.2c0.4,0.3,0.5,1,0.7,1.5
			c1.9,4.6,3,9.8,1.3,14.6c-0.9,2.1-2.4,6.9-5.4,6.3c-3.2-1.2-1.2-5.3-1.5-7.8c-0.1-2.7-0.7-5.4-1.1-8c-0.4-1.6-0.6-3.4,0.1-5.1
			c0.5-1.1,1.6-1.8,2.8-2C38.4,92.5,39.6,92.4,40.5,93.2L40.5,93.2z"/>
	</g>
	<g class="st7">
		<path class="st8" d="M33.7,95.8c-0.9-1.5-3.8-1.3-4.1,0.5c-0.3,2.7,1.7,5.2,1.8,7.9c0.1,1.9,0,3.8-0.1,5.7
			c-0.1,1.2-0.5,2.8,0.5,3.5c2.4,0.9,2.6-2.3,2.6-4.1c0.3-2.8,0.6-5.5,0.5-8.3C34.9,99.3,34.8,97.4,33.7,95.8L33.7,95.8z M33.8,95.8
			c2.1,3.2,2.7,7.3,2.3,11c-0.3,1.7-0.3,4-0.8,5.7c-0.3,1-1.2,2.2-2.4,2.2c-1.2,0.1-2.4-0.6-2.4-1.9c-0.1-1,0.2-2,0.3-2.9
			c0.2-2.7,0.2-5.6-1.1-8c-0.9-2-2.2-5.4,0.1-7C31.2,94.2,32.9,94.5,33.8,95.8L33.8,95.8z"/>
	</g>
	<g class="st7">
		<path class="st8" d="M27.8,98.1c-1.2-0.7-3.1,0.4-3.5,1.5c-0.4,1.2,0.2,2.6,0.6,4c0.7,2.1,1.6,4.3,1.8,6.6
			c0.1,0.7,0.3,1.5,0.7,1.9c0.3,0.3,1.2,0.6,1.6,0.4c0.4-0.1,0.4-1.5,0.3-2.1c0-1.3,0.5-2.6,0.4-3.9c0-1.5-0.2-2.9-0.4-4.4
			C29.2,100.8,28.9,99.1,27.8,98.1L27.8,98.1z M27.8,98c2.5,2.8,4.1,7.1,3.2,10.9c-0.4,1.1-0.2,2.2-0.5,3.4
			c-0.5,1.8-2.6,1.5-3.6,0.3c-1-1.4-0.4-3-1-4.5c-0.9-2.8-4.1-5.6-2.4-8.8c0.5-0.8,1.3-1.2,2-1.4C26.3,97.7,27.2,97.5,27.8,98
			L27.8,98z"/>
	</g>
	<g class="st7">
		<path class="st8" d="M22.5,100.4c-1.1-0.7-2.6,0.4-2.6,1.3c0,1,0.7,2,1.4,3c1.1,1.6,1.6,3.7,1.5,5.6c0,0.9,0.3,1.7,1.1,1.9
			c0.2,0,0.2,0,0.4-0.1c1.4-2.5,0.6-5.8,0-8.5C24,102.3,23.6,101,22.5,100.4L22.5,100.4z M22.6,100.2c3.7,2.5,5.4,8.9,2.4,12.5
			c-0.7,0.7-1.8,0.2-2.3-0.5c-0.9-1.2-0.1-2.6-0.5-3.9c-0.4-2-2.2-3-3-4.8c-0.3-0.6-0.4-1.4-0.2-2.2
			C19.6,100.1,21.4,99.6,22.6,100.2L22.6,100.2z"/>
	</g>
	<g class="st7">
		<path class="st8" d="M18.3,102.1c-0.9-0.5-2.3,0.3-2.2,1.2c0,0.4,0.2,0.7,0.5,1.2c1.1,1.7,1.5,3.7,1.9,5.7c0,0.3,0,0.6,0.1,0.9
			c0,0.8,1.4,1.5,1.9,1.1c0.2-0.2,0.4-0.6,0.4-1.1c0.3-2.2-0.5-4-1.2-6.1C19.5,103.9,19.3,102.7,18.3,102.1L18.3,102.1z M18.4,102
			c1,0.6,1.6,1.7,2.2,2.6c0.6,0.9,1.2,1.9,1.5,3.1c0.3,1.2,0.3,2.4,0.1,3.6c-0.1,0.6-0.4,1.4-1.2,1.8c-1,0.5-2.2-0.2-2.7-1.1
			c-0.3-0.5-0.2-1.2-0.2-1.8c-0.3-1.9-1.7-3.4-2.5-5.1C14.2,103.1,16.3,101.1,18.4,102L18.4,102z"/>
	</g>
	<g class="st7">
		<path class="st8" d="M14.4,103.8c-0.9-0.3-2.3,0.1-1.8,1.3c0.1,0.4,0.6,0.9,0.8,1.2c1,1.4,1.5,3.1,1.7,4.8
			c0.1,0.8,0.3,1.6,0.7,2.3c0.4,0.5,1.1,0.5,1.5,0c0.8-1.1,0-2.6-0.3-4C16.4,107.7,16.4,104.4,14.4,103.8L14.4,103.8z M14.4,103.7
			c2.2,0.7,3.4,3.2,3.9,5.3c0.4,1.5,1.2,4.1-0.4,5.3c-0.9,0.6-2.3,0.4-2.7-0.6c-0.3-0.8-0.4-1.6-0.6-2.5c-0.2-1.1-0.8-1.9-1.4-2.8
			l-0.8-1.3C11,105,11.9,103,14.4,103.7L14.4,103.7z"/>
	</g>
	<g class="st7">
		<path class="st8" d="M10.9,105.9c-0.9-0.3-2.2,0-2.3,0.7c-0.1,0.7,0.2,1.6,0.7,2.1c0.7,0.6,1.7,1.5,1.9,2.5c0.2,0.6-0.1,1.2,0,1.5
			c0.3,0.6,1.5,1.5,2,1.5c0.2-0.1,0.2-0.3,0.3-0.6c0.1-1.8-0.2-3.8-0.7-5.6C12.4,107.2,11.8,106.3,10.9,105.9L10.9,105.9z M11,105.8
			c2,0.8,3.6,2.7,3.8,4.9c0.1,1.4,0.3,2.9-0.5,4.2c-0.8,1.1-2.2,0.2-2.7-0.5c-0.3-0.4-0.7-0.8-0.9-1.4c-0.1-0.6,0.2-1,0-1.5
			c-0.1-0.4-0.5-0.8-0.9-1c-0.9-0.5-2.1-1.1-2.3-2.3C7,105.7,9.1,105.1,11,105.8L11,105.8z"/>
	</g>
	<g class="st7">
		<path class="st8" d="M7.6,113.3c0.5,0.3,0.6,0.7,0.9,1c0.9,0.9,1.2-0.9,1.4-1.5c0.6-1.8-1-2.9-2.4-2.9c-1,0.4-0.2,1.9-0.1,2.7
			c0,0-1.2-0.5-1.2-0.5c-0.2-0.1-0.7-0.3-0.8-0.2c0,0,0,0,0,0c-0.2,0.5-0.5,0.8-0.8,1.2c0,0,0.1-0.4,0.1-0.4c0,0,0,0.2,0,0.2
			c0,0-0.1,0,0.1,0c0.1,0,0.2,0,0.2,0.1c0.4,0.2,0.7,0.8,1,1.2c0,0,0.1,0.1,0.1,0.1c0,0,0,0,0,0c0.2,0.1,0.2,0.2,0.5,0
			C7,114,7.1,113.6,7.6,113.3L7.6,113.3z M7.6,113.5c-0.1,0.4-0.2,0.9-0.4,1.3c-0.2,0.5-1,0.7-1.5,0.5c-0.5-0.2-0.9-0.8-1.2-1
			c0.1,0,0.1,0.1,0.2,0.1c-0.2,0-0.8-0.2-1.1-0.5c-0.3-0.4-0.3-0.7-0.3-1.1c0,0,0-0.2,0-0.2l0.1-0.2c0.2-0.2,1-1.4,0.6-0.7
			c0.4-1.3,1.9-1.2,2.8-0.5c0,0-0.9,0.6-0.9,0.6c-0.2-0.9,0.3-2.3,1.5-2.4c1.8,0.4,3.9,1.6,3.6,3.7C10.7,115.8,8,116.8,7.6,113.5
			L7.6,113.5z"/>
	</g>
	<g class="st7">
		<path class="st8" d="M66,113.5c-1-1.2-1.4-2.8-1.8-4.2c-0.9-3-1.4-6.1-1.2-9.2c0.4-4.6,2.3-8.9,2.2-13.6c0-1.5,0.1-3.1-0.1-4.5
			c-0.2-1.6-0.5-3.6,0.8-5c1.2-1.3,2.9-2.3,4.8-1.8c3.2,0.9,4.8,4.4,6.8,6.6c2.1,2.2,4.9,3.5,7.5,4.9c4,2.2,8.3,3.8,12.9,3.9
			c4.8,0.6,9.3-3.7,13.9-1.1c2.1,1.2,0.9,3.7-0.4,5c-1.1,1.2-2.6,2.2-4.2,2.6c-1.6,0.4-3.1,0.4-4.5,0.9l-4.4,1.2
			c-2.9,0.9-5.5,2.5-7.9,4.3c-2.4,1.8-4.6,3.8-5.3,6.8c-1.2,4.6-5.9,8.7-10.9,7.7C71,117.3,68,115.8,66,113.5L66,113.5z M66,113.5
			c2.9,3.3,8.4,5,12.4,2.9c1.9-1,3.3-2.9,4.4-4.7c0.7-1.3,1-2.9,1.6-4.3c1.9-3.6,5.5-5.8,8.8-7.9c2.4-1.5,6.2-2.4,8.9-3.1
			c2.9-0.8,6-0.5,8.1-3.1c0.7-0.8,1.8-2.1,0.6-2.9c-2.6-1.5-5.6,0.1-8.4,0.8c-7.9,2-15.7-1.9-22.4-5.7c-1.3-0.8-2.7-1.8-3.8-3
			c-2.5-2.8-5.5-9.1-9.6-4.8c-0.8,0.8-0.6,2.4-0.4,3.9c0.3,3.2,0.1,6.2-0.3,9.4c-0.5,3.1-1.6,6-2.1,9c-0.5,3-0.3,6.1,0.4,9.1
			C64.6,110.7,65.1,112.2,66,113.5L66,113.5z"/>
	</g>
</g>
</svg>
