<?xml version="1.0" encoding="utf-8"?>
<!-- Generator: Adobe Illustrator 26.0.1, SVG Export Plug-In . SVG Version: 6.00 Build 0)  -->
<svg version="1.1" id="Layer_1" xmlns="http://www.w3.org/2000/svg" xmlns:xlink="http://www.w3.org/1999/xlink" x="0px" y="0px"
	 viewBox="0 0 120 140" style="enable-background:new 0 0 120 140;" xml:space="preserve">
<style type="text/css">
	.st0{opacity:0.5;fill:#3488B7;}
	.st1{opacity:0.5;fill:#FBB03B;}
	.st2{opacity:0.5;fill:#FFFFFF;}
	.st3{fill:#D1CAC3;}
	.st4{fill:#534741;}
	.st5{opacity:0.45;}
	.st6{fill:#695E59;}
	.st7{fill:none;stroke:#857C78;stroke-width:2.0144;stroke-miterlimit:10;}
</style>
<path class="st0" d="M-0.1,4.9v130c0,2.8,2.2,5,5,5h110c2.8,0,5-2.2,5-5V4.9c0-2.8-2.2-5-5-5H4.9C2.1-0.1-0.1,2.1-0.1,4.9z"/>
<path class="st1" d="M-0.1,124.1c9.6-5.1,19.5-9.3,29.5-12.5c5.6-1.8,11.2-3.3,16.8-3.9c7.7-0.9,15.5,1.3,23.1,2.6
	c3.6,0.6,7.1,1.4,10.6,3c1.7,0.7,3.3,1.7,4.9,2.8c2.3,1.7,3.9,3.4,6.6,3.2c4.8-0.3,9.5-1.3,14.2-1.1c4.7,0.1,10,0.3,14.3,3.8v13
	c0,2.8-2.2,5-5,5H4.9c-2.8,0-5-2.2-5-5L-0.1,124.1z"/>
<path class="st2" d="M0.1,46.7c0-0.6,7.8-1.9,8.4-2c13.1-2.3,26.8-1.7,39.7,0.9c6.1,1.2,12.5,2.2,18.8,1.6c3.3-0.3,6.3-1.2,9.3-2.3
	c3-1.1,6.4-1.7,9.7-2.1c2.9-0.4,5.9-0.5,8.8-0.3c4.3,0.3,8,2.1,12.3,2.4c2.1,0.2,4.1,0.2,6.2,0c0.7-0.1,6.6-0.7,6.6-1.3
	c0,0,0.1,3.2,0.1,3.2c-4.9-0.7-10-1.1-14.9-1.3c-4.6-0.2-9.2-0.2-13.8,0.1c-5,0.3-9.7,1.3-14.6,2c-8.9,1.3-18,1.9-27,2
	c-5.3,0.1-10.5-0.7-15.7-1.2c-4.4-0.4-8.8-0.5-13.2-0.7c-4.1-0.1-8.3-0.2-12.4,0c-2.3,0.1-5.9,0.1-7.8,1.3c-0.2,0.1-0.4,0.3-0.5,0.4
	C0.2,49.4,0.1,46.7,0.1,46.7z"/>
<path class="st2" d="M0.1,45.6c0-0.6,7.8-1.9,8.4-2c13.1-2.3,26.8-1.7,39.7,0.9c6.1,1.2,12.5,2.2,18.8,1.6c3.3-0.3,6.3-1.2,9.3-2.3
	c3-1.1,6.4-1.7,9.7-2.1c2.9-0.4,5.9-0.5,8.8-0.3c4.3,0.3,8,2.1,12.3,2.4c2.1,0.2,4.1,0.2,6.2,0c0.7-0.1,6.6-0.7,6.6-1.3
	c0,0,0.1,3.2,0.1,3.2c-4.9-0.7-10-1.1-14.9-1.3c-4.6-0.2-9.2-0.2-13.8,0.1c-5,0.3-9.7,1.3-14.6,2c-8.9,1.3-18,1.9-27,2
	c-5.3,0.1-10.5-0.7-15.7-1.2c-4.4-0.4-8.8-0.5-13.2-0.7c-4.1-0.1-8.3-0.2-12.4,0c-2.3,0.1-5.9,0.1-7.8,1.3c-0.2,0.1-0.4,0.3-0.5,0.4
	C0.2,48.3,0.1,45.6,0.1,45.6z"/>
<path class="st2" d="M120.2,70.9c-1.8,0.4-3.5,0.9-5.1,1.5c-4.5,1.7-9,2.9-14,3.4c-9.6,0.9-19.2-0.6-28.4-2.4
	c-19.5-3.8-40-4.8-59.9-1.3c-0.9,0.2-12.8,2.1-12.7,3.1c0,0,0.1,4.1,0.1,4.1C0.4,79,0.7,78.8,1,78.6c2.9-1.8,8.2-1.8,11.7-2
	c6.2-0.3,12.5-0.2,18.7-0.1c6.6,0.2,13.3,0.4,19.9,1c7.9,0.7,15.7,1.9,23.7,1.8c13.6-0.1,27.3-1.1,40.7-3c1.5-0.2,3.1-0.5,4.6-0.7"
	/>
<path class="st2" d="M120,69.4c-1.7,0.4-3.3,0.9-4.9,1.5c-4.5,1.7-9,2.9-14,3.4c-9.6,0.9-19.2-0.6-28.4-2.4
	c-19.5-3.8-40-4.8-59.9-1.3c-0.9,0.2-12.8,2.1-12.7,3.1c0,0,0.1,4.1,0.1,4.1c0.2-0.3,0.5-0.4,0.8-0.6c2.9-1.8,8.2-1.8,11.7-2
	c6.2-0.3,12.5-0.2,18.7-0.1c6.6,0.2,13.3,0.4,19.9,1c7.9,0.7,15.7,1.9,23.7,1.8c13.6-0.1,27.3-1.1,40.7-3c1.5-0.2,2.9-0.4,4.4-0.7"
	/>
<path class="st2" d="M-0.3,11.1c4,0.5,8,1.2,12,2c9.2,1.8,18.8,3.3,28.4,2.4c5-0.5,9.5-1.7,14-3.4c4.5-1.7,9.7-2.5,14.6-3.2
	c4.4-0.6,8.9-0.8,13.3-0.5c6.5,0.5,12.1,3.1,18.6,3.6c3.1,0.2,6.2,0.3,9.4,0c1.1-0.1,9.9-1.1,9.9-2c0,0,0.1,4.8,0.1,4.8
	c-7.4-1.1-15-1.7-22.6-2c-6.9-0.3-13.9-0.3-20.8,0.1c-7.5,0.5-14.7,2-22,3.1c-13.4,1.9-27.1,2.9-40.7,3c-4.8,0-9.5-0.4-14.2-0.8"/>
<path class="st2" d="M-0.3,10.3c4,0.5,8,1.2,12,2c9.2,1.8,18.8,3.3,28.4,2.4c5-0.5,9.5-1.7,14-3.4c4.5-1.7,9.7-2.5,14.6-3.2
	c4.4-0.6,8.9-0.8,13.3-0.5c6.5,0.5,12.1,3.1,18.6,3.6c3.1,0.2,6.2,0.3,9.4,0c1.1-0.1,9.9-1.1,9.9-2c0,0,0.1,4.8,0.1,4.8
	c-7.4-1.1-15-1.7-22.6-2c-6.9-0.3-13.9-0.3-20.8,0.1c-7.5,0.5-14.7,2-22,3.1c-13.4,1.9-27.1,2.9-40.7,3c-4.8,0-9.5-0.4-14.2-0.8"/>
<circle class="st2" cx="14.2" cy="8" r="0.9"/>
<circle class="st2" cx="16.1" cy="2.2" r="1"/>
<circle class="st2" cx="22.7" cy="3.2" r="1.9"/>
<circle class="st2" cx="47.2" cy="44.2" r="0.9"/>
<circle class="st2" cx="43.1" cy="39.8" r="1"/>
<circle class="st2" cx="47.2" cy="34.4" r="1.9"/>
<circle class="st2" cx="87.9" cy="57.6" r="1.1"/>
<circle class="st2" cx="92.7" cy="62.7" r="1.4"/>
<circle class="st2" cx="87.1" cy="69.1" r="1.6"/>
<circle class="st2" cx="41.1" cy="100" r="0.9"/>
<circle class="st2" cx="37.1" cy="95.4" r="1"/>
<circle class="st2" cx="41.4" cy="90.2" r="1.9"/>
<circle class="st2" cx="93.7" cy="112.7" r="1.1"/>
<circle class="st2" cx="91.3" cy="106.2" r="1.4"/>
<circle class="st2" cx="98.9" cy="102.4" r="1.6"/>
<g>
	<path class="st3" d="M46,103.3c-0.6,0.2-1.4,0.6-1.8-0.2c-0.2-0.4-0.1-0.9,0.2-1.3c0.5-0.7,1.4-1.1,2.2-0.9c2.4,0.7,1.5,4.8,0.2,6
		c-2.3,2.1-6.6,1.6-8.3-1c-2.3-3.6,1.7-8.8,5.1-9.9c4.5-1.5,9.1,0.8,9.5,5.7c0.4,5.3-3.7,10.2-9,10.3c-5.4,0.1-11-2.2-12.3-8
		c-1-4.6,1-8.4,3.6-12c5.2-7.2,16.9-4.6,21.7,1.8c4.9,6.5,4.9,14-0.8,20c-1,1.1-2.2,2-3.4,2.7c-3.4,2-7.5,2.7-11.6,2.4
		c-4.2-0.2-9.7-1.1-12.9-4c-7.2-6.7-5.7-18.6-1.5-26.5c4.5-8.4,13.1-16.1,23-16.5c5.7-0.2,11.7,1.5,16.5,4.5c4.8,3,9.4,7.2,12,12.3
		c2.2,4.2,3.5,8.9,4.7,13.5c0.1,0.3,0.2,0.6,0.2,0.9c-0.2,3-6.1,6.7-8.3,8.1c-3.1,1.9-6.6,3.3-10.2,4.2c-3.7,0.9-7.7,1.3-11.5,1.1"
		/>
	<path class="st4" d="M46,103.3c-2.5,1.3-2.6-1.9-0.5-2.6c2.1-0.7,3.2,1.5,2.9,3.3c-0.4,6.2-10.2,5.8-10.9,0
		c-0.2-3.5,2.3-6.5,5.2-8.1c11-4.2,14.7,9.6,6,15c-2.9,1.8-6.6,1.6-9.8,0.7c-10-3.1-9.5-13.5-3.6-20.4c5.6-6.9,17-4.4,22,2.1
		c2,2.6,3.4,5.8,3.7,9.2c0.4,5.1-2.2,10-6.1,13.1c-4,3.1-9.2,4.1-14.1,3.7c-6.9-0.4-13.5-2.4-16.3-9.4c-4.9-12.7,2.7-27.1,13.3-34.3
		c11.6-8.1,26.6-3.5,35.8,6c4.8,4.6,7.3,10.9,9,17.2c0,0,0.7,2.3,0.7,2.3c0.2,0.8,0.6,1.8,0.3,2.6c-1.2,3.2-4.3,5.1-7,6.9
		c-4.1,2.8-8.8,4.6-13.6,5.5c-3.2,0.5-6.6,1.3-9.8,0.3c0,0,2.4-0.3,2.4-0.3c2.4,0,4.8-0.2,7.2-0.7c4.7-0.9,9.3-2.7,13.3-5.4
		c2.1-1.5,7.1-4.6,6.6-7.5c-1.2-4.2-2.3-8.6-4.2-12.6C72.9,78.8,59.6,70.5,47,72.7c-12.5,2.7-22,15-23.1,27.6
		c-0.5,6.1,1.7,13.3,7.6,16.1c5.7,2.3,12.7,3,18.7,0.9c5.9-2.1,10.4-8.2,9.9-14.6c-0.2-3.1-1.6-6.1-3.5-8.7
		c-3.8-4.8-11.1-7.4-16.9-4.9c-2.9,1.2-4.7,4.1-6.2,6.8c-3.3,5.9-1.1,13.2,5.8,15.1c4.6,1.4,9.9,0.6,12.3-3.9
		c1.9-3.3,1.8-8.3-1.8-10.3c-4.9-2.8-11.8,1.7-11.5,7.2c0.3,3.2,4.4,4.7,7.1,3.5c1.5-0.6,2.3-2,2.5-3.5c0.3-1.4-0.5-3.3-2.2-2.9
		C43.8,101.6,43.7,104.3,46,103.3L46,103.3z"/>
</g>
<g class="st5">
	<g>
		<g>
			<g>
				<g>
					<path class="st6" d="M35.7,105.3c0,0.1,0.3-0.7,0.4-0.8C35.9,104.6,35.6,105.5,35.7,105.3z"/>
					<path class="st6" d="M33.6,106.4l0.2-0.3c-0.2,0.2-0.4,0.4-0.6,0.6L33.6,106.4z"/>
					<path class="st6" d="M32.7,105.6c-0.9,1.1,0.5,0.1,0.3,0.7l-0.2,0.3l0.8-0.9C33.3,105.7,32.5,106,32.7,105.6z"/>
					<path class="st6" d="M34.7,103.2c-0.4,0.4-0.4,0.2-0.1,0.2C34.6,103.3,34.7,103.3,34.7,103.2C34.7,103.3,34.7,103.3,34.7,103.2
						z"/>
					<path class="st6" d="M34.7,103.3C34.8,103.3,35,102.9,34.7,103.3L34.7,103.3z"/>
					<path class="st6" d="M34.3,103.2c0.2-0.1,0.3-0.1,0.4-0.2c0.3-0.2,0.3-0.3,0.5-0.4C35,102.7,34.7,102.9,34.3,103.2z"/>
					<path class="st6" d="M33.3,103.7l0.2-0.1C33.7,103.6,33.7,103.5,33.3,103.7z"/>
					<path class="st6" d="M34,103.5c-0.1,0.1-0.3,0.1-0.4,0.1c-0.2,0.1-0.6,0.4,0.2,0C33.4,103.8,33.7,103.6,34,103.5z"/>
					<path class="st6" d="M33.8,103.7c-0.2,0.2-0.3,0.4-0.8,0.6C33.4,104.4,34.1,103.7,33.8,103.7z"/>
					<path class="st6" d="M31.6,106.6l-0.2,0.4l0.4-0.3C31.6,106.9,31.9,106.3,31.6,106.6z"/>
					<path class="st6" d="M34.7,102.5c-0.3,0.1-0.7,0.3-1.1,0.5l0.4-0.1C34.1,102.8,34.3,102.6,34.7,102.5z"/>
					<path class="st6" d="M33.6,103c-0.2,0-0.4,0.1-0.5,0.1C33.1,103.2,33.3,103.1,33.6,103z"/>
					<path class="st6" d="M32,104.5c0.4-0.1,0.7-0.2,1.1-0.4C32.7,104.3,32.3,104.4,32,104.5L32,104.5z"/>
					<path class="st6" d="M34.6,102.1l0.7-0.2c-0.3,0.1-0.7,0.1-1.1,0.2L34.6,102.1z"/>
					<path class="st6" d="M34.4,101.8c0.6-0.1,1-0.3,1.3-0.3c-0.1,0-0.6,0-1.1,0C34.9,101.6,34.9,101.7,34.4,101.8z"/>
					<path class="st6" d="M34,101.5c0.1,0,0.4,0,0.7,0C34.5,101.6,34.3,101.5,34,101.5z"/>
					<path class="st6" d="M33.1,102.8c0.2-0.1,0.6-0.2,0.8-0.4L33.1,102.8C33.1,102.7,33.1,102.7,33.1,102.8z"/>
					<path class="st6" d="M33.1,102.7L33.1,102.7c0-0.1,0-0.1,0-0.1C33.1,102.6,33.1,102.6,33.1,102.7z"/>
					<path class="st6" d="M33.1,102.8L33.1,102.8C33,102.8,33,102.8,33.1,102.8z"/>
					<path class="st6" d="M32.4,103.8c-0.5,0.1-1,0.1-1.6,0.6C31.4,104.2,31.7,103.9,32.4,103.8z"/>
					<path class="st6" d="M32.1,103.2c0,0.1-0.1,0.2-0.1,0.2c0.2-0.1,0.5-0.2,0.7-0.3C32.5,103.2,32.3,103.2,32.1,103.2z"/>
					<polygon class="st6" points="31.8,103.2 32.1,103.2 32.2,103.1 					"/>
					<path class="st6" d="M33.2,101.9c-0.4,0-0.4-0.1-0.5-0.2c-0.2,0.1-0.2,0.3-0.2,0.4C32.8,102.1,33.3,102,33.2,101.9z"/>
					<path class="st6" d="M33.1,102.3L33.1,102.3C33,102.4,32.9,102.4,33.1,102.3z"/>
					<path class="st6" d="M32.7,100.7c0,0-0.1,0-0.2,0L32.7,100.7L32.7,100.7z"/>
					<path class="st6" d="M32.4,102.2c-0.1,0.1,0.1,0.1,0.3,0.1c-0.1,0-0.2-0.1-0.2-0.2C32.4,102.1,32.3,102.2,32.4,102.2z"/>
					<path class="st6" d="M33.6,101.3c-0.2,0.1-0.3,0.1-0.5,0.2C33.4,101.5,33.8,101.3,33.6,101.3z"/>
					<path class="st6" d="M33.3,102.3L33.3,102.3C33.5,102.2,33.4,102.2,33.3,102.3z"/>
					<path class="st6" d="M33.3,102.3c-0.1,0-0.3,0-0.5,0c0.1,0,0.2,0.1,0.3,0.1C33.1,102.3,33.2,102.3,33.3,102.3z"/>
					<path class="st6" d="M27.1,100.4c0.8,0,1.5,0.4,0.7,0.7c0.6,0.3,3.2-0.1,4.7-0.3c-0.3,0-0.7,0-1.2-0.2c-0.4,0.1-1,0.6-1.7,0.4
						c-0.4-0.3,0.3-0.3,0.7-0.5c-1,0.2-1.4-0.5-2.9-0.4l0.5,0.4C27.7,100.4,27.3,100.3,27.1,100.4z"/>
					<path class="st6" d="M32.4,101.2l0.1,0.1c0.1-0.1,0.5-0.2,1.1-0.3c-0.4-0.1-0.7-0.1-1-0.1l-0.1,0.4L32.4,101.2z"/>
					<path class="st6" d="M32.6,101.6c-0.9,0.1-1.3-0.1-2.2,0.1c0.1,0.3,0.7,0.1,1.1,0.2C31.3,101.5,32,102,32.6,101.6
						c0.1,0.1,0.1,0.1,0.1,0.2c0.1-0.1,0.2-0.2,0.4-0.2c0,0,0,0-0.1,0l0,0l0,0c-0.1,0-0.2,0-0.1,0c0,0,0,0,0,0
						C32.8,101.6,32.7,101.6,32.6,101.6c0.2-0.1,0.2,0,0.3,0c0,0,0.1,0,0.1,0l0,0l-0.5-0.3C32.4,101.3,32.5,101.4,32.6,101.6z"/>
					<path class="st6" d="M29,104.9c0.1,0,0.1-0.1,0.2-0.1C29.1,104.8,29,104.8,29,104.9z"/>
					<path class="st6" d="M29.4,104.5c0.1,0,0.5-0.1,0.4,0c-0.2,0.2-0.4,0.2-0.6,0.3c0.2,0,0.7,0,1-0.4l-0.1,0
						c0.2-0.3,1.1-0.9,1.3-0.9C30.6,103.9,30,104.1,29.4,104.5z"/>
					<path class="st6" d="M30.7,102.9l-0.5-0.3l-0.7,0.4l0.4-0.1C29.8,103.1,30.3,102.9,30.7,102.9z"/>
					<path class="st6" d="M33.1,100.7l0.9,0c-0.4,0-0.9-0.1-1.3-0.2L33.1,100.7z"/>
					<polygon class="st6" points="33,100.3 33.8,100.3 33.3,100.2 					"/>
					<path class="st6" d="M56.7,81.9l0.2-0.1C56.8,81.8,56.7,81.8,56.7,81.9z"/>
					<path class="st6" d="M55.9,81.3l-0.2,0.3C55.8,81.4,55.9,81.3,55.9,81.3z"/>
					<path class="st6" d="M38.2,91.2c0.6,0.5,1.7,1.1,1.1,0.4L38.7,91C38.6,91.2,38.4,91.3,38.2,91.2z"/>
					<path class="st6" d="M45,83c0-0.1-0.1-0.2-0.1-0.3c0,0.3-0.1,0.6-0.1,0.8C44.9,83.4,44.9,83.2,45,83z"/>
					<path class="st6" d="M44.9,79.4l0.3,0.5C45.2,79.7,45.1,79.5,44.9,79.4z"/>
					<path class="st6" d="M62.3,84.7l0.7-0.5C62.8,83.9,62.6,84.4,62.3,84.7z"/>
					<path class="st6" d="M33.5,96.2c0.4,0,0.6,0,0.6-0.1C33.6,96,32.9,95.8,33.5,96.2z"/>
					<path class="st6" d="M51.1,89.3c0.2-0.1,0.3-0.2,0.4-0.4C51.4,89,51.3,89.1,51.1,89.3z"/>
					<path class="st6" d="M34.4,95.8c-0.1,0-0.1,0-0.2,0c0.1,0.2,0.1,0.3,0,0.4C34.5,96.2,34.8,96.2,34.4,95.8z"/>
					<path class="st6" d="M70,108.2c0,0-0.1,0-0.1,0C70,108.2,70,108.2,70,108.2z"/>
					<path class="st6" d="M60.6,108.4c0-0.1,0.2-0.1,0.2-0.1C60.7,108.2,60.7,108.2,60.6,108.4z"/>
					<path class="st6" d="M33.5,98.4C33.6,98.5,33.6,98.4,33.5,98.4L33.5,98.4z"/>
					<path class="st6" d="M30,98.5c-0.1,0-0.2-0.1-0.4-0.1C29.8,98.4,29.9,98.5,30,98.5z"/>
					<path class="st6" d="M30.4,91.8L30.4,91.8C30.3,91.7,30.3,91.7,30.4,91.8z"/>
					<path class="st6" d="M33.1,98.5c0.1,0,0.2-0.1,0.3-0.1C33.3,98.4,33.2,98.4,33.1,98.5z"/>
					<path class="st6" d="M33.5,98.5C33.5,98.6,33.5,98.6,33.5,98.5C33.6,98.7,33.7,98.7,33.5,98.5z"/>
					<path class="st6" d="M33.5,98.2c0,0.1,0,0.1-0.1,0.2c0.1,0,0.1,0,0.1,0C33.5,98.4,33.5,98.3,33.5,98.2z"/>
					<path class="st6" d="M66.4,96.1C66.3,96.1,66.3,96.1,66.4,96.1c0.2,0.1,0.3,0.2,0.3,0.2C66.6,96.2,66.5,96.1,66.4,96.1z"/>
					<path class="st6" d="M35.8,81.4C35.8,81.4,35.8,81.4,35.8,81.4L35.8,81.4L35.8,81.4z"/>
					<path class="st6" d="M36.1,80.4c0.3,1.1,0.1,1.1-0.2,1c0.5,0.6,1.1,1.3,1.6,2C36.9,82.4,36.5,81.4,36.1,80.4z"/>
					<path class="st6" d="M58.9,83l0.1-0.9c1.1-0.8,1.1-0.3,1.4-1.4c-1.6,2.2-1.3-0.6-2.9,1.7l0.1-0.6c0,0.1,0.1-0.1,0.2,0
						c0.4-1.3-1.4,1.5-1.6,0.8c0-0.3,0.1-0.7,0.4-0.9l-0.7,0.3c-0.1-0.1,0.2-0.5,0.3-0.4l-0.6-0.2l0-0.1c-0.3,0.3-0.9,0.7-1.1,0.9
						c0.1-0.4,0.2-0.2,0.4-0.5l-0.7,0.3c0.3-0.7,0.9-1,1.1-0.8c0.8-1.4,0.4-1,0.1-0.8c-0.3,0.1-0.6,0.1-0.7-0.7l0.7,0
						c0.5-1.5-0.2-1.3-0.4-2.5c0,0.3,0,1-0.1,1.6c-0.1,0.7-0.4,1.3-0.8,1.4c0-0.3-0.2-0.5-0.8-0.1c0.4-0.9,0-0.8-0.4-0.9l0.5-1.2
						c-0.6,0.1-0.8,0.8-1.3,1.2c-0.4-0.3-0.2-1.3-0.1-2.1c-0.8-0.4,0.1,1.7-0.9,1.7c-0.5-0.6-1.1-0.2-1.9,0.4
						c-0.3-0.5,0.2-0.8,0.1-1.2c-0.2,0.3-0.3,0.6-0.5,1c-0.1,0,0-0.3,0-0.5c-0.3,0.4-0.2,1.3-0.6,1.6c-0.1,0.7-0.3,0.2-0.5-0.3
						c-0.2-0.5-0.6-1-0.8-0.2c-0.1-0.4,0.1-0.8,0-1.3c-0.7,1.1-0.6,0.8-1.1,2.2l-0.5-0.8c0.4,1,0,2.1-0.3,3.1
						c0.1,0.5,0.3,0.9,0.3,1.1l-0.5,0.7c-0.1-0.2-0.1-0.7,0-1.2c0,0.1-0.1,0.2-0.1,0.3c-0.2-0.5-0.2-1.2-0.1-1.9
						c0.1,0.3,0.2,0.5,0.3,0.8c0.1-0.8,0.2-1.7,0.1-2.4c0,0.2-0.1,0.3-0.2,0.4c0-0.2,0-0.4,0-0.5c0-0.1-0.1,0.2-0.1,0.5l-0.2-1.4
						l0,0.6l-0.8-0.8c-0.4,1.5-0.7,3.7-1.4,4.3c0.1-1.1-0.1-1.7-0.2-3c0.4,1.3,0.6-0.6,1-0.4c-0.2-0.1-0.2-0.7-0.2-0.9
						c-0.2,0.4-0.4,0.8-0.6,1.3c-0.1-1-0.2-0.7-0.5-1.1c0.3,2-0.4,1.4-0.8,2c-0.1-0.7-0.1-1.4,0.4-1.3c-0.4-0.8-0.5-0.1-0.6,0.6
						c-0.1,0.6-0.1,1.2-0.5,0.6c0.1,0,0.2,0.1,0.2-0.3c-0.2,0.6-0.9,0.3-0.9-0.3l0.1,0c-0.4-0.1-1.1,0.1-1.5,0.6
						c-0.4,0.4-0.6,1.1-0.2,1.9c-0.1-0.2-0.9-1.9-1-2.2c0.4,2,1.1,3.9,2,5.6c-0.4-0.6-1.2-1.6-1.9-2.5c-0.7-0.9-1.3-1.8-1.2-2.4
						c-0.3,0-0.7-0.1-0.7,0.6c0.3,0.1,1.6,1.5,1.5,1.7c-1.4-1-0.8-0.5-2.2-1.1c0.3,0.1,1.7,2,1.5,2.1c-0.2-0.3-1.5-1.7-1.6-1.9
						l1.1,2.1c-0.2-0.4-1.3-1.4-1.8-1.9c0.3,0.3-0.3,0.2-0.2,0.5c0.1,0.1,0.3,0.2,0.5,0.3c-0.6,0,1.6,2.8,1,3.1
						c-0.2-0.4-1.5-2.5-2-2.5c0.5,1.1,2.8,4.9,3,5.9l-0.5-0.4l0.2,0.8c-1-1.5-2.7-4.8-3.2-6.3c-0.6-0.2-0.5-0.6-0.9-0.2
						c-0.5-0.4-0.4-0.9-0.3-1l-1.1,0.4c0.9,1,0.3,1.6,1.1,2.4c0-0.6-0.1-1.2-0.1-1.8c0.9,1,2,3.3,1.4,3.6c-0.5-0.3-1.5-1.9-1.8-2.2
						c0.2,0.4,0.1,1.1-0.2,0.9l-0.3-0.7c-0.6-0.1,0.8,1.7-0.5,1.1c-0.2,0-1.6-0.9-1-0.3c1.3,0.9,4.7,4.2,5.5,5.1
						c-0.1-0.1-1.5-0.6-2.2-0.9c-1.1-0.6-1.9-2.2-2.8-2.7c0.3,0.3,0.5,0.7,0.6,0.8c-0.4-0.1-0.8-0.8-0.9-0.4c1,0.9-0.6,0.5,0.8,0.9
						c0.1,0.5-0.5,0.1-0.7,0.5c0.8,0.4,2.1,1.9,2.4,2.4c0,0,0,0,0,0.1c-0.3-0.2-0.7-0.4-0.9-0.4c-0.4,0.5-1.1,0.4-1.5,1
						c-0.3-0.1-0.8-0.1-1.3-0.5c0.2,0.2,0.5,0.5,0.5,0.7c-1.2-0.3,0.1-0.5-1.3-0.9c0.7,0.4,0.7,1,1,1.5c1.1,0.5,0.5-0.4,0.2-0.9
						c1.5,0.9,2.8,2.2,3.2,3c0.2,0.5-1.1-0.3-0.9-0.2c-0.3,0.3,0.3,0.7,0.9,1c0.5,0.3,1,0.5,0.4,0.6c-1.1-0.1-2.1-0.5-2.9-0.7
						c-0.3-0.5,0.8-0.4,0.9-0.6c-0.2,0-0.4,0.1-0.6,0.1c-0.3-0.2-0.5-0.6-0.1-0.6c-0.8-0.1-0.8,0.9-1.2,1.6
						c-0.1,0.1-0.2,0.3-0.4,0.4c0.3,0.2,0.7,0.5,1.1,0.4l-0.1-0.2c0.9-0.1,1.1,0.6,1.6,0.4c0.6,0.4,1.5,0.8,1,1.1l-1.2-0.1
						c0.4,0,0.8-0.2,0.4-0.3c0.5,0.2-1.7,0.4-0.1,0.8l0.9-0.2c0.6,0.3,1.9,0.7,1.5,0.9c1.2-0.1-0.1-0.1,1.3-0.2
						c-1.8,0.1,0.1-0.7-1.8-0.6c1.7-0.1,0.7-0.3,2.2-0.4c-0.4,0-0.8,0-0.6-0.2c-0.1,0-0.3-0.1-0.3-0.1c0,0,0,0,0,0l0,0
						c-0.1,0-0.1,0,0,0c-0.2,0-0.4,0.1-0.6,0.1c-0.9-0.3-0.8-0.7-1.3-0.9c0.2-0.2,0.5,0.1,0.9,0.1c-0.2-0.1-0.4-0.2-0.6-0.3l-0.1,0
						c0.9,0.1,1.5,0,2,0.3l0.1-0.1c0.5,0,0.7,0,0.4-0.1c0.2,0-0.9-0.5-0.2-0.2c-0.1-0.1-0.3-0.3-0.4-0.4l0.2,0.1
						c0.2-0.1-0.9-1.5,0.8-1.2c-0.1-0.3-0.2-0.6,0.2-0.8l0.7,0.4c-0.1-0.3,0.5-0.3,0.7-0.5c0,0-0.1-0.1-0.2-0.2c0.9,0.5,1,0.6,1,0.4
						c0-0.2-0.1-0.5,0.1-0.5l-0.8-0.7c0.2-0.1,0.1-0.5,0.1-1l-0.7-0.6c-0.3-0.7,1-0.1,1.2-0.4c0.2,0.3,0.1,0.3-0.1,0.2
						c0.9,0.6,0.8,0.1,0.8-0.4c-0.1-0.5-0.2-1.1,0.5-0.6c-0.1-0.3,0-0.3,0.2-0.1c0,0,0,0,0,0.1c0,0,0,0,0,0c0.1,0.1,0.3,0.2,0.4,0.3
						c-0.2-0.2-0.3-0.3-0.4-0.3c0,0,0-0.1,0.1-0.2c0-0.1,0.1-0.3,0.2-0.4l0.7,0.7c0,0,0,0,0-0.1c0.4,0.1-0.1-0.5-0.7-1
						c0-0.2,0-0.4-0.1-0.7c1.1,1.1,0.1-0.8,1.4,0.4c-0.4-0.7,0.3-1.1-0.8-2.4c0.2,0.2,0.3,0.2,0.2,0.3c0.3,0,0.5,0.1,0.3-0.4
						l0.8,0.9c-0.3-0.5-0.6-1-0.8-1.5c0.6,0.5,0.8,0.8,1.3,1.7c-0.3-0.7-0.3-0.9-0.3-1c0-0.2,0-0.3-0.2-1l0.4,0.7
						c0.1-0.1-0.2-1.2,0.1-0.6c0.6,0.9,0.9,0.4,1.5,0.6c0.1,0,0.2,0.1,0.4,0.2c0.2,0.1,0.4,0.2,0.5,0.4c-0.4-2.3,0.6,1,0.4-0.8
						c0.1,0.5,0.3,0.8,0.2,1.3c0.5-0.6,0.8,0.8,1-0.8c0.1,0.6,0,0.8,0,1.1c0-0.1,0.1-0.5,0.2-0.2c0.1,0.3,0,0.5-0.1,0.7
						c0.5-0.1,0.4-1.8,0.3-3.4c0.3,0.7,0.4,0.6,0.6-0.4c0.1,0.5,0.3,1.1,0,1.3c0.2,0.1,1,0.7,1-0.6c0.1,0.3,0.2,0.1,0.3-0.1
						c0.4,0.1,0.4,0.2,0.8,0.1l-0.1-0.2c0.2-1.5,0.3-0.3,0.6-0.5l0,0.2c0.5,1.2,0.4-0.5,0.8,0.9l0.1-1c0.2-1,0.3-0.7,0.4-0.2
						c0.1,0.5,0.1,1.2,0.3,0.8l0.1-0.6c0.2-0.3,0.1,0.4-0.1,1.2c-0.2,0.8-0.5,1.7-0.5,1.9c-0.1,0.2-0.1,0.3-0.2,0.4
						c-0.3,1.2,0.5-1.2,0.9-1.3c-0.3,0.6-0.8,1.5-0.8,1.7c-0.1,0.2,0.1-0.1,0.4-0.4c0.2-0.3,0.6-0.6,0.7-0.5c0.1,0.1,0.1,0.2,0,0.5
						c0.2-0.5,0.4-1,0.9-1.2c0.4,0.1-0.3,2.2,0.9,1c0,0.1-0.1,0.3-0.2,0.4c0.5-0.2,1.1-0.1,1.8-0.8c-1.6,2.9,2.2-0.5,0.5,2.1
						l0.7,0.3l-0.2,0.2c0.3,0.4,0.8-0.1,1.4-0.6c0,0.2-0.3,0.4-0.4,0.5c0.2,0.9,0.3,0.8,1.7,0l-0.6,0.8c0.5-0.3-0.3,1.8,0.8,1.2
						c-0.1,0.1-0.2,0.2-0.4,0.3c0.6-0.2,0.3,0.5,0.1,0.9c-0.1,0.2-0.1,0.3,0,0.3c0.1-0.1,0.5-0.3,1.3-0.7c0.3-0.1,0.6-0.1,0.9-0.2
						c0.1-0.2,0.4-0.4,0.8-0.6c0.4-0.2,0.9-0.2,1.1-0.5c0.1,0.1,0,0.4-0.3,0.5c-0.3,0.2-0.6,0.3-0.8,0.3l0.2-0.1
						c-0.9,0.3-1,0.5-1,0.6c-0.1,0.1-0.1,0.2-0.7,0.3l0,0c0,0,0,0.1,0,0.2l0.1,0.3l0.1,0.3l0.1,0.2l0.1,0.3l0.2,0.4l0.1,0.3
						c0.2,0.4,0.3,0.8,0.3,1.2c0.1,0.6,0.2,1.1,0.3,1.6c0.4-0.2,0.9-0.5,1.3-0.7l0,0.1c0,0,0,0,0,0c0,0-0.1,0.1,0.3-0.1
						c0.5-0.2,0.7-0.3,0.6-0.2c0,0-0.7,0.2-1.8,0.8c0.6-0.3,1.8-0.8,2.3-1c0.2,0,0.3-0.1,0.5-0.1c0.1,0,0.2-0.1,0.3-0.1
						c0.1,0,0.2,0,0.2,0l0.1,0l0,0l0,0c-5.4-0.4-1.5-0.1-2.7-0.2l0,0l0,0l0,0l0,0.1c0,0,0,0.1-0.1,0.1c0,0.1-0.1,0.2-0.1,0.2
						c-0.1,0.1-0.2,0.2-0.3,0.2c-0.2,0-0.4-0.1-0.6-0.3c-0.1-0.1-0.2-0.2-0.2-0.3l0,0l0,0l0,0l4,0.3l0,0l0,0l0,0l0,0l-0.1,0
						c-0.1,0-0.1,0-0.1,0c-0.2,0-0.2,0-0.1,0c0.1,0,0.2,0,0.3,0l0,0l0,0l-4.4-0.3l0,0l0,0l0,0l0,0l0,0.1l0,0.1c0,0.2,0,0.3,0.1,0.5
						l0.2-0.2c0.3,0.4,0.6,0.6,0.9,0.7c0.3,0.2,0.4,0.4,0.5,0.8c-0.1,0.6-0.8,0.6-0.7,0.8c-0.1,0-0.1,0.1,0.1,0.3l0.2,0.5l0,0.1
						l0,0.1l0,0l0,0l0-0.1c0-0.1,0,0,0,0l0,0.1l0.5-0.3l0.1-0.1l0.1,0c0,0,0,0,0.1,0c0,0,0,0,0,0l0.2-0.2c0.6-0.2,0.1,0.3,1.2-0.4
						c-0.8,0.6-0.9,0.9-0.7,1.1c0.1,0.3,0.4,0.5,0.1,0.6c0.9,0.1,0.9,0.4,0.7,0.6c0.3-0.1,1.6-0.2,1.4,0.1c-1.4-0.1-1.7,0.1-1.9,0.2
						c-0.2,0.1-0.4,0.3-1.3,0.3c1.3-0.2,0.2,1.4,2.1,1c-0.2,0.3-1-0.1-1.7,0.2c1,0.9-0.7,1.8-0.4,2.6c0.4,0,0.9-0.1,1.4,0.1
						c-0.6,0.1-1.2,0.2-1.8,0.3c0.2,0.1,2,0.3,0.8,0.5c0.3,0,0.8,0,0.9,0.1c-0.5,0.3-0.6,0.6-0.7,0.9c0,0.1,0,0.2,0,0.3
						c0,0,0,0.1,0,0.1l0,0l0.1,0.1c0.1,0.1,0.2,0.1,0.3,0.2c0.2,0.1,0.3,0.2,0.4,0.3l0.1,0.1l0,0l0,0c-0.4-0.3,0.5,0.5,0.4,0.4l0,0
						l0,0l0,0l-0.1,0c-0.1-0.1-0.1-0.1-0.2-0.2c-0.1-0.1-0.2-0.2-0.2-0.3l-0.1-0.2l-0.2-0.2l-0.1-0.2c0-0.1-0.1-0.2-0.1-0.2l-0.1,0
						c-0.2-0.1-0.6-0.4-1.2-1.1c0.4,0.6,0.3,0.7,0.1,0.8c0.2,0.1,0.2,0.8,0.4,1.3c-0.4-0.4-0.8-0.7-1.3-1c0.1,0.7-0.1,0.8-0.5,0.9
						c-0.3,0.1-0.5,0.3-0.3,0.9c0.1-0.1,0.1-0.2,0.2-0.4c0.1,0.8,0.6,1.5,1.1,2.2c0.5,0.7,1,1.6,1.3,2.5c-0.2-0.8,0.2-0.3,0.6,0.2
						c0.4,0.5,0.8,0.8,0.8-0.5c0.3,0.3,0,0.6,0.3,1c0-0.9,0.1-1.1,0.7-0.9l0,0.2c0.6-0.4,1.3-0.5,2.3-1c0.3-0.2,0.5-0.3,0.7-0.4
						c0.2-0.1,0.4-0.3,0.6-0.5c0.2-0.2,0.4-0.3,0.5-0.5c0.1-0.1,0.2-0.2,0.3-0.3c0.1-0.1,0.1-0.2,0.2-0.3l-0.9-0.2
						c0.3-0.3,0.6-0.3,0.9-0.5c-1.2-0.8-0.5,1.1-1.8,0.1c0.5,0.1,0.8-0.1,1-0.3c0.2-0.2,0.3-0.5,0.4-0.8c0.1-0.5,0.3-1,1.4-1
						c0.1-0.5-1.1,0-1.1-0.4l0.6-0.1l-0.8-0.2c0.1-0.3,0.9-0.3,1.4-0.3c-0.1,0.1,0.1,0.2,0.2,0.3c0.7-0.3-0.2-1,0.1-1.1l-0.4,0.4
						c-0.5-1.1,0.3-2.2-0.9-3l-0.5,0c-0.4-0.3-0.3-0.4-0.1-0.5c0.2-0.2,0.5-0.3,0.4-0.9l0.1,0c-0.4-0.2-0.6-0.5-0.5-0.8
						c0.5,0.3,1.1-0.5,1.7-0.2c-0.4-0.5-0.6-0.6-0.8-0.7c-0.3-0.1-0.6-0.1-1.5-0.3l0.7-0.3c-0.7-0.1-1.1-0.1-1.4-0.5
						c0.8,0.2,1-0.6,2-0.3c0.6-0.7,0-1.1-0.4-1.3c-0.5-0.2-0.8-0.3,0.2-1c-2.2,0.4-0.6,1.3-1.2,1.2c-0.5,0.4-1.7,0.2-1.6-0.1
						c-0.1-0.1,0.5-0.5,1-1c0.1-0.1,0.3-0.2,0.3-0.4c0.1-0.1,0.2-0.2,0.3-0.3c0.1-0.1,0.2-0.1,0.2-0.2l0.1,0l0,0
						c-0.1,0-0.2,0.1-0.2,0.1c0.2-0.1,0.2-0.1,0.4-0.1c0,0,0.1,0,0,0c-0.1,0-0.1,0.1-0.2,0.1c-0.1,0.1-0.3,0.1-0.4,0.2
						c-0.2,0.1-0.4,0.2-0.6,0.2c-0.5,0.1-0.6,0.2-1,0.2c-0.1,0-0.2,0-0.3,0l0,0l0,0l0,0l0,0l2.1,0.1l0,0l0,0l0-0.1l0-0.1
						c0-0.1-0.1-0.3-0.1-0.4c-0.1-0.2-0.4-0.3-0.8-0.3c0,0.1,0.1,0.3,0.1,0.4l0,0.2l0,0.1l0,0l0,0l0,0l-1.3-0.1l0,0l0,0l0,0
						c0.1,0,0.1,0,0.2,0l0.2,0c0.1,0,0.2,0,0.3,0c-0.2,0-0.4,0-0.4,0.1c0,0-0.1,0-0.2,0l-0.1,0l0,0l0,0l0,0l0,0l0.5,0l0,0l0,0l0-0.1
						l-0.1-0.2c-0.1-0.1-0.1-0.2-0.2-0.3c-0.1-0.1-0.1-0.1-0.2-0.2c-0.1-0.1-0.2-0.2-0.2-0.3c-0.1-0.1-0.1-0.3,0-0.6
						c0.3-0.1,0.8-0.1,1.1,0c0.3-0.5-0.5-0.3-0.2-0.8c0.4-0.2,0.6-0.2,0.8-0.2c0.2,0.1,0.3,0.2,0.4,0.4c0.1,0.2,0.3,0.5,0.5,1.1
						c0.1,0.2,0.1,0.5,0.2,0.7c0,0.1,0,0.2,0.1,0.4l0,0.1l0,0l0,0c0.6,0-4.8-0.3-2.5-0.2l0,0l0,0l0,0l0,0c0.1,0,0.1,0,0.2,0
						c0,0-0.1,0-0.1,0l-0.1,0l0,0l0,0l0,0l0,0l3.1,0.2l0,0l0,0l0,0l0,0c0-0.3-0.1-0.7-0.2-1c0-0.1-0.1-0.4-0.1-0.4
						c0-0.1-0.1-0.1-0.1-0.2c-0.1-0.2-0.3-0.4-0.2-0.5c0.1-0.1,0.2-0.2,0.7-0.2c-1.2,0-1.2-0.3-1.3-0.6c0-0.3,0-0.7-0.9-0.5l0.8-0.5
						c-0.2,0-0.7,0.1-0.7,0c0.4-0.1,0.8-0.3,1.2-0.4c-1.1,0.2,0.3-1.2-0.3-1.2c0.4,0.6-0.9,0.8-1.3,1.4c-0.8,0-0.3-0.5,0.2-1
						c0.5-0.5,1.1-1.1,0.8-1.3c0.1,0-0.3,0.6-0.8,0.7c0.1-0.2,0.3-0.6,0.7-0.8c0,0-0.1,0-0.1,0l0,0c-0.1,0-0.2,0.1-0.2,0.1
						c-0.1,0.1-0.2,0.1-0.3,0.2c-0.1,0.1-0.1,0.1-0.1,0c0.1,0,0.4-0.2,0.2-0.1c-0.3,0.1-0.5,0.3-0.8,0.4c0.1-0.1,0.2-0.1,0.3-0.2
						c0,0,0,0,0.1,0c-0.1,0.1-0.2,0.1-0.3,0.2c-0.2,0.1-0.4,0.2-0.7,0.4c-0.3,0.1-0.4,0.2-0.6,0.3c-0.3,0.2-0.7,0.3-1.2,0.5
						c-0.2,0.1-0.3,0.1-0.5,0.2c-0.1,0-0.2,0-0.3,0.1l-0.1,0l-0.1,0l0,0l2.9-0.4l0,0l0,0l0,0l0,0l0,0l1-0.1c0.2-0.8-0.4-0.8-0.9-0.8
						c-0.5,0.1-0.9,0.1-0.8-0.5c0.5,0,1,0,1.4,0.1c-0.2-0.2-0.4-0.4-0.6-0.5l1.1-0.3c-1.1-0.4-0.9-0.7-1-1.4
						c-0.5,0.5-1.6,0.8-1.8,0.4c0.3-0.6,0.9-0.4,0.3-0.9c0.6-0.2,1.3-0.5,0.8,0.3c0.3-0.1,0.6-0.2,0.9-0.3c0.3-0.8-0.5-1-0.7-1.2
						c0,0.1,0.1,0.2,0,0.4c-0.6,0-1.2,0-1.7,0.1c0.2-0.4,0.5-0.5,0.8-0.6c-0.2-0.1-0.6,0.1-0.9,0c0.6-0.5,1.2-1.1,1.8-1
						c-0.4-0.1-0.9-0.1-1.3-0.1c0.2-0.3,0.3-1,0.6-1.1c-0.1-0.7-1.9,0.3-2-0.5c-0.1,0.1-0.3,0.2-0.4,0.2c-0.3-0.5-0.1-1.6-1.3-1
						l0.5-1.4c-0.6,0-0.7,1.7-1.6,1.7c-0.7,0.1,0.5-1.1,0.6-1.5c-0.6,0.4-1.8,1.4-1.6,0.2C58.7,82.8,58.7,83.1,58.9,83z M54.1,80.6
						c0.2-0.1,0.8-0.4,0.6,0.1C54,81.5,54.2,81,54.1,80.6z M44.1,81.2c0.1-0.3,0.2-0.2,0.3,0.2C44.3,81.5,44.2,81.4,44.1,81.2z
						 M32.9,97.3C32.9,97.3,32.9,97.3,32.9,97.3C33.2,97.3,33.1,97.3,32.9,97.3z M32.4,97.4c0.1,0,0.3,0.1,0.4,0.1
						c-0.2-0.1-0.2-0.1-0.2-0.1C32.4,97.3,32.2,97.3,32.4,97.4z M60.6,100l0.2-0.3C61.2,100,60.9,100,60.6,100z"/>
					<path class="st6" d="M44.9,79.8c0,0.2,0.1,0.3,0.1,0.5C45.1,80.2,45,80,44.9,79.8z"/>
					<path class="st6" d="M62.2,84.8C62.2,84.8,62.2,84.8,62.2,84.8c0.1,0,0.1-0.1,0.1-0.1L62.2,84.8z"/>
					<path class="st6" d="M28.6,87.8c0.2,0,0.4,0.1,0.5,0.2C29,87.8,28.8,87.7,28.6,87.8z"/>
					<path class="st6" d="M33.8,99.5c-0.1-0.1-0.2-0.1-0.2-0.2c0,0.1-0.2,0.1-0.3,0.2C33.5,99.4,33.8,99.4,33.8,99.5z"/>
					<path class="st6" d="M27.8,101.6c0.1,0,0,0.1,0.1,0.1l0.4-0.1C28.4,101.5,28,101.4,27.8,101.6z"/>
					<path class="st6" d="M30.6,99.5c-0.8,0-0.6,0.1-0.4,0.3c0,0,0,0,0,0C31.3,99.9,31,99.7,30.6,99.5z"/>
					<path class="st6" d="M30.2,99.8c0,0.1,0.1,0.1,0,0.2C30.7,100,30.3,99.9,30.2,99.8z"/>
					<path class="st6" d="M32.9,97.9c-0.2,0.1,1,0.2,0.7,0.2C34.6,98.4,32.5,97.3,32.9,97.9z"/>
					<polygon class="st6" points="27.9,99.4 28.9,99.4 28.1,99.3 					"/>
					<path class="st6" d="M28.8,97.9l-0.3,0.3c0.2,0,0.3,0.1,0.3,0.1C28.9,98.1,29.1,97.9,28.8,97.9z"/>
					<path class="st6" d="M28.8,98.3c0,0.1,0,0.2,0.1,0.3C28.9,98.5,28.9,98.4,28.8,98.3z"/>
					<polygon class="st6" points="27.6,99 27.9,98.9 27.9,98.7 					"/>
					<path class="st6" d="M29.9,94.9l-0.1-0.4c-0.3-0.2-0.5-0.2-0.5,0C29.5,94.6,29.5,94.8,29.9,94.9z"/>
					<path class="st6" d="M26.9,94.8c0.2,0,0.5,0,0.8,0.1l-1.2-0.5L26.9,94.8z"/>
					<path class="st6" d="M27.1,93.5c-0.3-0.2-0.6-1-0.8-0.5C26.6,93.2,26.7,93.7,27.1,93.5z"/>
					<polygon class="st6" points="31.6,89.6 31.6,89.7 33.1,91.1 					"/>
					<path class="st6" d="M32.4,82.5c-0.2-0.2,0,0.1,0.1,0.4c0.2,0.2,0.3,0.5-0.1,0.4c0.2,0.5,0.6,0.2,0.8,0.6
						C33,83.3,33.2,83.5,32.4,82.5z"/>
					<path class="st6" d="M33.2,83.8c0,0.1,0,0.2,0,0.4C33.3,84,33.2,83.9,33.2,83.8z"/>
					<polygon class="st6" points="58.7,107.8 58.1,107.6 58.7,108.1 					"/>
					<path class="st6" d="M58.7,109.6l-0.7-1.1c0.1,0.4,0.2,0.8,0.3,1.2C58.4,109.5,58.5,109.3,58.7,109.6z"/>
					<path class="st6" d="M54.2,77.6L54,77.9c-0.1,0.3,0,0.4,0.2,0.6C54.2,78.2,54.2,77.9,54.2,77.6z"/>
					<polygon class="st6" points="57.6,81 57.6,80.9 57.1,82 					"/>
					<path class="st6" d="M61.2,81.6c-0.1-0.1-0.4,0-0.5-0.1C61.1,81.4,60.4,82.8,61.2,81.6z"/>
				</g>
			</g>
		</g>
	</g>
</g>
<g class="st5">
	<g>
		<path class="st7" d="M-12.2,72.9"/>
	</g>
</g>
<g class="st5">
	<g>
		<g>
			<g>
				<g>
					<polygon class="st6" points="43.7,103 43.6,103 43.6,103 43.6,103 43.6,103 43.6,103 43.6,103 43.6,103 43.6,103 46.6,105.1 
						43.6,103 43.6,103 43.6,103 43.6,103 43.6,103 43.6,103 43.6,103 43.6,103 43.7,103 43.7,103 43.7,103 43.7,103 					"/>
					<path class="st6" d="M44,104.3l-0.1,0.3c0.1-0.2,0.2-0.4,0.3-0.6C44.1,104.1,44,104.2,44,104.3z"/>
					<path class="st6" d="M43.7,103.8c0.1,0,0.2,0,0.3-0.1l0,0c0.3-0.1,0.6-0.1,0.9-0.2l0,0l0,0c0,0,0,0,0,0l0,0c0,0,0,0-0.1,0
						c0,0-0.1,0-0.1,0.1c-0.1,0.1-0.4,0.3-0.5,0.4c0,0,0,0,0,0l0.1-0.1l-0.2,0.2l0,0.1c0.1-0.2,0.3-0.4,0.5-0.5
						c0.1-0.1,0.2-0.1,0.2-0.1c0,0,0,0,0.1,0C44.5,103.6,44.1,103.7,43.7,103.8z"/>
					<path class="st6" d="M43.1,103.8C43.1,103.8,43.1,103.8,43.1,103.8C43.1,103.8,43.1,103.8,43.1,103.8
						C43.1,103.8,43.1,103.8,43.1,103.8z"/>
					<path class="st6" d="M43.1,103.8C43.2,103.8,43.1,103.8,43.1,103.8L43.1,103.8z"/>
					<path class="st6" d="M43.4,103.9c-0.1,0-0.1-0.1-0.2-0.1C43.3,103.9,43.4,103.9,43.4,103.9C43.6,104,43.5,104,43.4,103.9z"/>
					<path class="st6" d="M43.6,104c0,0-0.1,0-0.1-0.1C43.5,104,43.5,104,43.6,104z"/>
					<path class="st6" d="M43.3,103.9c0.1,0,0.1,0.1,0.2,0.1c0,0,0,0-0.1-0.1C43.4,103.9,43.4,103.9,43.3,103.9z"/>
					<path class="st6" d="M43.2,103.8C43.1,103.8,43.1,103.8,43.2,103.8c-0.1,0-0.1,0-0.1,0C43.1,103.8,43.1,103.8,43.2,103.8z"/>
					<path class="st6" d="M44.9,103.6c0.1,0,0.2-0.1,0.3-0.2C45,103.5,44.9,103.5,44.9,103.6C44.8,103.5,44.8,103.5,44.9,103.6
						l0-0.1l0,0l0,0l0,0l0,0l0,0L44.9,103.6L44.9,103.6L44.9,103.6L44.9,103.6C44.7,103.6,44.7,103.7,44.9,103.6z"/>
					<path class="st6" d="M44.3,104.7L44.3,104.7C44.3,104.7,44.3,104.7,44.3,104.7C44.3,104.7,44.3,104.7,44.3,104.7z"/>
					<path class="st6" d="M44.3,104.7C44.3,104.7,44.3,104.7,44.3,104.7C44.3,104.8,44.3,104.7,44.3,104.7z"/>
					<path class="st6" d="M43.7,104.1c-0.1-0.1-0.3-0.2-0.4-0.2C43.4,103.9,43.6,104,43.7,104.1L43.7,104.1z"/>
					<path class="st6" d="M43.7,101l0.1-0.6c-0.1,0.3-0.1,0.6-0.2,0.8L43.7,101z"/>
					<path class="st6" d="M43.2,101c0.1-0.5,0-0.8,0.1-1.1c-0.1,0.1-0.3,0.5-0.4,0.8C43,100.6,43.1,100.7,43.2,101z"/>
					<path class="st6" d="M42.6,101.3c0.1-0.1,0.2-0.3,0.2-0.5C42.8,100.9,42.7,101,42.6,101.3z"/>
					<path class="st6" d="M43.9,102.3c0-0.1,0-0.5-0.1-0.7L43.9,102.3C43.9,102.3,43.9,102.3,43.9,102.3z"/>
					<path class="st6" d="M43.9,102.3L43.9,102.3c-0.1,0-0.2-0.1-0.2-0.1C43.7,102.2,43.8,102.2,43.9,102.3z"/>
					<path class="st6" d="M44,102.3L44,102.3C43.9,102.3,43.9,102.4,44,102.3z"/>
					<path class="st6" d="M44.2,104.5C44.3,104.7,44.3,104.7,44.2,104.5C44.2,104.6,44.2,104.6,44.2,104.5z"/>
					<path class="st6" d="M44,103.1L44,103.1l0.1,0.1l0,0l0.1,1.4c0,0,0,0,0,0l0,0l-0.1-1.9l0,0l0,0.1C44.1,103,44.1,103,44,103.1z"
						/>
					<polygon class="st6" points="43.9,103.3 44,103.1 44,103.1 					"/>
					<path class="st6" d="M42.9,101.9c-0.1,0.3-0.2,0.3-0.4,0.3c0.1,0.2,0.2,0.2,0.4,0.3C42.9,102.3,43,101.9,42.9,101.9z"/>
					<path class="st6" d="M43.3,102.2L43.3,102.2C43.3,102.3,43.3,102.3,43.3,102.2z"/>
					<path class="st6" d="M41.5,102.1c0,0,0,0.1,0,0.1L41.5,102.1L41.5,102.1z"/>
					<path class="st6" d="M42.9,102.7c0.1,0.1,0.2,0,0.2-0.2c-0.1,0.1-0.2,0.1-0.3,0.1C42.9,102.6,42.8,102.7,42.9,102.7z"/>
					<path class="st6" d="M42.2,101.5c0,0.1,0,0.3,0.1,0.4C42.3,101.7,42.3,101.4,42.2,101.5z"/>
					<path class="st6" d="M43.3,102L43.3,102C43.3,101.9,43.3,101.9,43.3,102z"/>
					<path class="st6" d="M43.3,102c-0.1,0.1-0.1,0.3-0.2,0.4c0.1,0,0.1-0.1,0.2-0.2C43.3,102.2,43.3,102.1,43.3,102z"/>
					<path class="st6" d="M39.7,106c0.3-0.6,0.8-1,0.9-0.3c0.4-0.4,0.7-2.4,1-3.6c-0.1,0.3-0.2,0.5-0.4,0.8
						c-0.1,0.3,0.1,0.9-0.2,1.4c-0.4,0.2-0.2-0.3-0.2-0.6c-0.2,0.8-0.8,0.9-1.3,1.9c0.2-0.1,0.4-0.1,0.5-0.2
						C39.9,105.6,39.6,105.8,39.7,106z"/>
					<path class="st6" d="M41.8,102.3L41.8,102.3c0-0.2,0-0.4,0.1-0.9c-0.2,0.3-0.2,0.5-0.3,0.7C41.6,102.1,41.7,102.2,41.8,102.3
						L41.8,102.3z"/>
					<path class="st6" d="M42.2,102.3c-0.2,0.7-0.5,0.9-0.5,1.7c0.3,0,0.3-0.5,0.5-0.8C41.8,103.3,42.5,102.8,42.2,102.3
						c0.1,0,0.2,0,0.3-0.1c-0.1-0.1-0.1-0.2-0.2-0.3c0,0,0,0,0,0l0,0l0,0c0,0.1,0,0.1,0,0.1c0,0,0,0,0,0
						C42.3,102.2,42.3,102.3,42.2,102.3c-0.1-0.2,0-0.2,0.1-0.3c0,0,0-0.1,0-0.1l0,0l-0.5,0.3C41.9,102.4,42,102.4,42.2,102.3z"/>
					<path class="st6" d="M44.6,105.9c0-0.1,0-0.1-0.1-0.1C44.5,105.8,44.5,105.9,44.6,105.9z"/>
					<path class="st6" d="M44.3,105.5c0-0.1,0-0.4,0.1-0.3c0.1,0.2,0.1,0.3,0.1,0.5c0-0.2,0-0.5-0.2-0.8l0,0.1c0,0-0.1-0.2-0.1-0.3
						l0-0.1l0,0l0,0l0,0l0-0.1l0,0l0,0l0,0l0,0l0-0.1c-0.1-0.3-0.1-0.5-0.1-0.5C44.1,104.5,44.2,104.9,44.3,105.5z"/>
					<path class="st6" d="M43.1,104.1l-0.5,0.3l0.2,0.6l0-0.4C43.1,104.8,43.1,104.4,43.1,104.1z"/>
					<path class="st6" d="M41.6,101.7l0.2-0.7l-0.4,0.9C41.5,101.9,41.5,101.8,41.6,101.7z"/>
					<path class="st6" d="M41.1,102.7L41.1,102.7c0,0.1-0.2,0.3-0.3,0.5C40.9,103,41,102.9,41.1,102.7z"/>
					<path class="st6" d="M54.2,112.4l0,0.3C54.2,112.6,54.2,112.5,54.2,112.4z"/>
					<path class="st6" d="M55.1,111.3l-0.2-0.2C55,111.3,55.1,111.4,55.1,111.3z"/>
					<path class="st6" d="M47.2,98.2c0.2,0.6,0.2,1.5,0.2,0.8l-0.1-0.7C47.2,98.4,47.3,98.4,47.2,98.2z"/>
					<path class="st6" d="M54.2,100.8c0.1,0,0.1-0.1,0.2-0.1c-0.2,0-0.5,0-0.7,0C53.9,100.7,54,100.7,54.2,100.8z"/>
					<path class="st6" d="M57.1,100.5c-0.1,0.1-0.3,0.3-0.4,0.4C56.8,100.8,56.9,100.7,57.1,100.5z"/>
					<path class="st6" d="M48.1,117.3l0,0.7C48.4,117.9,48.2,117.6,48.1,117.3z"/>
					<path class="st6" d="M42.8,100.5c0.3,0,0.4,0,0.4,0C42.8,100.4,42.3,100.3,42.8,100.5z"/>
					<path class="st6" d="M48.9,107.3c0.1,0.1,0.1,0.2,0.3,0.3C49.2,107.5,49.1,107.4,48.9,107.3z"/>
					<path class="st6" d="M43.3,100.4c-0.1,0-0.1,0-0.2-0.1c0.1,0.1,0.1,0.2,0.1,0.2C43.5,100.6,43.7,100.7,43.3,100.4z"/>
					<path class="st6" d="M24.8,108.4C24.8,108.3,24.8,108.3,24.8,108.4C24.8,108.3,24.8,108.3,24.8,108.4z"/>
					<path class="st6" d="M29,100c0.1,0,0.1,0.1,0.1,0.2C29.1,100.1,29.1,100.1,29,100z"/>
					<path class="st6" d="M43,102.8C43,102.9,43,102.9,43,102.8L43,102.8z"/>
					<path class="st6" d="M40.3,103.5c-0.1,0-0.2,0-0.3,0C40.1,103.5,40.2,103.5,40.3,103.5z"/>
					<path class="st6" d="M40.4,97.1L40.4,97.1C40.3,97,40.4,97.1,40.4,97.1z"/>
					<path class="st6" d="M42.7,102.9c0.1,0,0.1-0.1,0.2-0.1C42.8,102.9,42.7,102.9,42.7,102.9z"/>
					<path class="st6" d="M43,102.9C43,102.9,42.9,102.9,43,102.9C43,102.9,43.1,102.9,43,102.9z"/>
					<path class="st6" d="M42.9,102.8c0,0,0,0.1-0.1,0.1C42.9,102.9,42.9,102.8,42.9,102.8C43,102.8,42.9,102.8,42.9,102.8z"/>
					<path class="st6" d="M36.5,115.1C36.5,115.1,36.5,115.1,36.5,115.1C36.3,115.3,36.3,115.3,36.5,115.1z"/>
					<path class="st6" d="M51.6,92C51.6,92,51.6,92,51.6,92L51.6,92L51.6,92z"/>
					<path class="st6" d="M52.5,91.9c-0.7,0.6-0.8,0.4-0.9,0.1c-0.2,0.6-0.5,1.3-0.7,1.9C51.4,93.2,52,92.5,52.5,91.9z"/>
					<path class="st6" d="M51.7,114.8l0.7,0.2c0.1,1.2-0.5,1.1,0.4,1.6c-0.6-0.9-0.2-1.2,0.1-1.6c0.4-0.3,0.7-0.7,0-1.5l0.5,0.1
						c-0.1,0,0,0.1-0.1,0.2c1.2,0.3-0.7-1.4,0-1.7c0.3-0.1,0.7,0,0.7,0.3c0-0.3,0-0.5,0-0.8c0.1-0.1,0.4,0.2,0.3,0.3
						c0.1-0.3,0.3-0.5,0.4-0.8l0,0c-0.2-0.3-0.5-0.8-0.6-1.1c0.4,0,0.1,0.2,0.4,0.3c-0.1-0.2-0.1-0.5-0.2-0.7c0.6,0.1,0.8,0.8,0.6,1
						c1,0.4,1,0.2,0.9,0c-0.1-0.3-0.3-0.7,0.5-0.8l0,0.6c1.2,0.3,1.1-0.2,2-0.5c-0.4,0-2.2,0.2-2.4-0.6c0.2-0.1,0.4-0.2,0.1-0.7
						c0.7,0.3,0.7,0,0.8-0.4l0.9,0.4c-0.1-0.5-0.6-0.7-1-1c0.2-0.4,1-0.2,1.7-0.1c0.4-0.7-1.3,0.1-1.3-0.8c0.5-0.4,0.2-1-0.2-1.7
						c0.4-0.3,0.6,0.2,0.9,0.1c-0.2-0.2-0.5-0.3-0.7-0.5c0-0.1,0.3,0,0.4,0c-0.3-0.3-1-0.2-1.2-0.6c-0.5-0.1-0.1-0.3,0.3-0.5
						c0.4-0.2,0.8-0.6,0.2-0.9c0.3-0.1,0.6,0.1,1,0c-0.9-0.8-0.6-0.7-1.8-1.2c0.2-0.2,0.4-0.4,0.6-0.6c-0.7,0.5-1.6,0.1-2.5-0.1
						c-0.3,0.2-0.6,0.3-0.8,0.4c-0.2-0.1-0.4-0.3-0.6-0.4c0.2-0.1,0.5-0.1,0.9-0.1c-0.1,0-0.2,0-0.3-0.1c0.3-0.3,0.9-0.3,1.5-0.2
						c-0.2,0.1-0.4,0.2-0.6,0.3c0.6,0,1.3,0.1,1.9,0c-0.1,0-0.2-0.1-0.3-0.2c0.2,0,0.3,0,0.4,0c0.1,0-0.1-0.1-0.4-0.1l1.1-0.4
						l-0.4,0c0.2-0.3,0.3-0.7,0.5-1.1c-1.3-0.4-3-0.3-3.8-0.8c0.8-0.2,1.2-0.5,2.1-1c-0.8,0.7,0.7,0.5,0.7,1.2
						c0-0.3,0.5-0.4,0.6-0.4c-0.4-0.2-0.8-0.4-1.3-0.6c0.7-0.3,0.5-0.4,0.6-0.8c-0.7,0.5-1,0.4-1.2,0.2c-0.2-0.2-0.4-0.4-0.7-0.5
						c0.4-0.3,0.9-0.5,1.1,0c0.4-0.5-0.1-0.5-0.6-0.3c-0.5,0.1-1,0.3-0.7-0.2c0.1,0.1,0,0.2,0.3,0.1c-0.5,0.1-0.6-0.7-0.2-0.9
						l0.1,0.1C54,94.6,53.6,94,53,93.8c-0.5-0.2-1.1-0.2-1.5,0.4c0.1-0.2,1-1.3,1.2-1.5c-1.3,0.9-2.4,2-3.3,3.3
						c0.3-0.5,0.6-1.4,1-2.3c0.4-0.8,0.7-1.6,1.2-1.7c-0.1-0.2-0.3-0.5-0.8-0.4c0,0,0,0-0.1,0c0,0,0,0.1,0,0.1
						c0,0.4-0.3,1.6-0.5,1.6c0-0.2,0-0.3,0-0.4c-0.1-0.9-0.1-0.5-0.4-1.6c0.1,0.3-0.6,2-0.8,1.9c0.1-0.3,0.4-1.8,0.5-1.9
						c-0.4,0.5-0.8,1.1-1.1,1.6c0.2-0.3,0.3-1.5,0.1-2c0.1,0.3-0.8-0.1-1,0.1c0.1,0.1,0.2,0.3,0.4,0.4c-1-0.3-0.9,2.5-1.5,2.5
						c0-0.4-0.1-2.3-0.6-2.4c0,0.5,0,1.6,0,2.7c0,1.1,0,2.2-0.1,2.6l-0.2-0.5c-0.1,0.2-0.1,0.5-0.2,0.7c-0.1-0.7-0.2-1.8-0.2-2.9
						c0-1.1,0.1-2.1,0.3-2.7c-0.4-0.3-0.2-0.6-0.7-0.4c-0.3-0.4,0.1-0.8,0.2-0.8c-0.4,0-0.8,0-1.2,0c0.3,1-0.5,1.3-0.2,2.1
						c0.2-0.5,0.5-0.9,0.8-1.4c0.3,1,0.2,3.1-0.5,3.1c-0.3-0.3-0.5-1.8-0.6-2.2c0,0.4-0.4,0.9-0.6,0.7l0.1-0.7
						c-0.6-0.2-0.1,1.6-1,0.9c-0.2,0-1.1-1-0.9-0.4c0.9,0.9,2.6,4.3,2.9,5.2c-0.1-0.1-1.1-0.7-1.6-1.1c-0.7-0.7-0.9-2.1-1.5-2.7
						c0.1,0.3,0.2,0.6,0.2,0.8c-0.3-0.1-0.4-0.8-0.7-0.5c0.6,0.9-0.7,0.4,0.4,0.9c-0.1,0.5-0.5,0.1-0.8,0.4c0.5,0.5,1.3,2.1,1.3,2.4
						c-0.2-0.2-0.5-0.4-0.6-0.5c-0.5,0.4-1.2,0.4-1.5,1c-0.3-0.1-0.7,0.1-1-0.2c0.1,0.2,0.4,0.4,0.4,0.6c-1,0.1,0.1-0.5-1.1-0.7
						c0.6,0.3,0.5,0.9,0.8,1.3c0.9,0.2,0.4-0.6,0.2-1.1c0.6,0.3,1.2,0.7,1.6,1.1c0.5,0.4,0.9,0.8,1.1,1.1c0.2,0.5-0.9-0.1-0.7,0.1
						c-0.4,0.8,2.1,1.1,1.1,1.5c-0.9,0.2-1.7-0.2-2.3-0.2c-0.3-0.4,0.6-0.5,0.6-0.8l-0.5,0.2c-0.3-0.2-0.4-0.5-0.2-0.6
						c-0.8,0.1-0.4,1.5-1.1,2.3c0.3,0.1,0.6,0.3,0.9,0.2l-0.1-0.2c0.7-0.2,1,0.3,1.3,0.1c0.5,0.2,1.3,0.3,0.9,0.6
						c-0.3,0.1-0.6,0.2-0.9,0.3c0.3-0.1,0.5-0.3,0.2-0.3c0.2,0-0.1,0.2-0.3,0.4c-0.2,0.2-0.2,0.4,0.4,0.1c0.2-0.1,0.4-0.2,0.6-0.4
						c0.1,0,0.3,0,0.4-0.1l0.1,0l0.1,0c0,0,0,0,0,0l-0.1,0.1l0,0l0,0l-1.7,0.8l0,0l0,0c0.2-0.1,0.5-0.4,0.8-0.8
						c-0.2,0.2-0.2,0.3-0.2,0.3c0,0.1-0.1,0.2-0.3,0.4c0.1-0.1,0,0,0,0c0,0-0.1,0.1-0.2,0.1l-0.1,0l0,0l0,0l0,0l0,0l0,0l1.7-0.8l0,0
						l0,0l0.2-0.1c0.2-0.1,0.5-0.2,0.6-0.2c0,0,0,0,0.1,0c0,0-0.1,0-0.1,0c-0.1,0-0.2,0.1-0.4,0.1c0.6-0.2,0.8-0.3,0.9-0.3
						c0.1,0,0.2-0.1,0.7-0.2c-0.3,0-0.6,0.1-0.5,0c-0.1,0-0.2,0-0.3,0c0,0,0,0,0,0l0,0c0,0-0.1,0,0,0c-0.1,0-0.3,0.1-0.5,0.1
						c-0.7,0-0.7-0.3-1.1-0.4c0.2-0.1,0.4,0.1,0.7,0c-0.2-0.1-0.4-0.1-0.6-0.2c0.7,0,1.2-0.3,1.6,0c0-0.1,0-0.1,0-0.2
						c0.4-0.1,0.6-0.3,0.3-0.4c0.2-0.1-0.7-0.4-0.2-0.2c-0.1-0.2-0.2-0.3-0.4-0.5l0.2,0c0.2-0.3-0.9-1.2,0.4-0.8
						c-0.1-0.1-0.3-0.4,0-0.3l0.5,0.4c-0.1-0.2,0.6,0.3,0.2-0.2c0.6,0.6,0.7,0.6,0.8,0.4c0-0.1,0.1-0.4,0.2-0.4l-0.4-0.7
						c0.2-0.1,0.2-0.3,0.3-0.8l-0.3-0.6c0-0.6,0.8,0.2,1.2,0c0.1,0.3-0.1,0.2-0.2,0.1c0.5,0.7,0.6,0.3,0.8-0.1
						c0.1-0.4,0.3-0.8,0.6-0.3c0-0.3,0.1-0.2,0.2,0c0,0,0,0,0,0c0,0,0,0,0,0c0.1,0.1,0.1,0.2,0.2,0.4c-0.1-0.2-0.1-0.3-0.1-0.4
						c0.1,0,0.1-0.1,0.2-0.3l0.1,0.8c0,0,0,0,0,0c0.1,0.3,0-0.4,0-0.9c0-0.1,0.1-0.3,0.1-0.5c0,1.2,0.3-0.4,0.3,0.9
						c0.1-0.6,0.4-0.4,0.9-1.7c0,0.2,0,0.3-0.1,0.3c0.1,0.2,0.2,0.4,0.4,0l-0.3,0.9l0.2-0.3c0.2-0.3,0.4-0.6,0.6-0.8
						c-0.1,0.6-0.2,1-0.6,1.6c0.4-0.5,0.5-0.5,0.6-0.6c0.1-0.1,0.2-0.1,0.7-0.5l-0.4,0.5c0.1,0,0.8-0.5,0.5,0
						c-0.3,0.6-0.1,0.8,0.1,1.1c0.2,0.3,0.5,0.8,0.1,1.3c0.8-0.5,0.7-0.3,0.5-0.1c-0.2,0.2-0.4,0.4,0.2,0.2c-0.4,0.2-0.6,0.4-1,0.4
						c0.5,0.2-0.5,0.7,0.7,0.5c-0.4,0.2-0.6,0.1-0.9,0.2c0.1,0,0.4,0,0.2,0.1c-0.2,0.1-0.4,0-0.6,0.1c0.2,0.2,1.5,0,2.7-0.2
						c-0.5,0.3-0.4,0.4,0.4,0.5c-0.4,0.1-0.8,0.3-1,0.1c0,0.2-0.5,0.9,0.5,0.9c-0.3,0.1-0.1,0.2,0,0.3c0,0.4-0.2,0.4-0.1,0.7
						l0.2-0.1c1.2,0.2,0.3,0.3,0.4,0.6l-0.1,0c-1,0.5,0.4,0.4-0.7,0.8l0.8,0.1c0.8,0.2,0.5,0.3,0.1,0.4c-0.4,0.1-0.9,0.2-0.7,0.4
						l0.5,0c0.5,0.4-2.3-0.2-2.5-0.2c-0.1,0-0.2-0.1-0.3-0.2c-1,0,0.9,0.4,1,0.8c-0.5-0.2-1.2-0.6-1.4-0.5c-0.2-0.1,0.1,0.3,0.3,0.6
						c0.2,0.3,0.4,0.7-0.2,0.5c0.4,0.2,0.8,0.3,0.9,0.6c0,0.1-0.4,0.1-0.7,0.1c-0.3,0-0.5,0,0,0.5c-0.1,0-0.2-0.1-0.3-0.2
						c0.2,0.4,0,0.8,0.4,1.4c-1-0.9-1-0.5-1,0c0,0.4,0,0.9-0.7-0.1c-0.1,0.2-0.3,0.3-0.4,0.4l-0.1-0.2c-0.4,0.1-0.2,0.6-0.1,1.2
						c-0.2-0.1-0.2-0.3-0.3-0.5c-0.8-0.2-0.7-0.1-0.8,1.2l-0.3-0.7c0,0.2-0.3,0-0.6-0.1c-0.3-0.2-0.7-0.3-0.9,0.2c0-0.1,0-0.2,0-0.4
						c-0.2,0.5-0.7,0.1-1.1-0.2c-0.4-0.3-0.6-0.3-0.6,1.1c-0.1,0.2-0.3,0.5-0.4,0.7c0.6,0.2-0.1,1.2,0.2,1.7c-0.3,0.2-0.7-0.9-0.4-1
						l0.1,0.1c0.1-1.5-0.8-0.5-0.7-1.6c-0.6,0-1.1-0.2-1.6-0.6l-0.4-0.2l-0.5-0.3c-0.4-0.2-0.6-0.3-1-0.4l-0.1,1.2l-0.4-0.2
						c0-0.3,0-0.9,0.3-0.8c0-0.7-0.6,0.4-0.7,0.7c-0.5-0.6,0.5-1.3,0.4-1.3l-0.3,0l0,0.1c-0.3,0.4-0.4,0.9-0.8,0.8
						c-0.1-0.3,0.1-0.7,0-0.8c0-0.1,0-0.1-0.1-0.1c-0.2-0.1-0.3-0.2-0.4-0.2l-0.1,0.9c-0.3,0.4-0.4-0.2-0.5,0.9
						c0.1-0.8-0.3-1.1-0.6-1.3c-0.3-0.2-0.7-0.2-0.7-0.5c-0.6,0.4-0.8,0.2-1,0c-0.1,0.2-0.6,1.1-0.8,0.7c1.5-1.6,0.1-1.1,1.1-2.3
						c-0.6,0.9-0.7-0.4-1.6,0.8c0-0.3,0.6-0.5,0.8-1c-1,0-0.4-1.3-0.9-1.8c-0.2,0.1-0.5,0.5-1,0.5c0.3-0.4,0.7-0.7,1-1
						c-0.2-0.1-1.5,0.6-0.8-0.1c-0.2,0.1-0.5,0.4-0.6,0.3c0.2-1-0.3-1.7-0.8-2.4c-0.4-0.8-0.7-1.6,0.3-2.8c-0.5,0.4-0.5,0.2-0.6,0.1
						c-0.1,0.1-0.7,0.2-1,0.3l0.8-1c-1,0.2-0.3-0.7-1.3-0.6l0.2,0.2c-1.2,0-2.4,1.1-3.9,1.5c1.4,0-1.7,1.5,0.4,1.6
						c-0.3,0.2-0.5,0-0.8,0.2c0.7,0,0.9,0.1,0.7,0.5l-0.2,0c0.5,0.9,0,1.5,0.1,2.8l0.7-0.4c0,0.3-0.2,0.4-0.3,0.6
						c1.2-0.2-0.2-0.7,1.1-0.9c-0.6,0.4-0.5,0.9-0.3,1.3c0.1,0.4,0.3,0.8-0.4,1.3c0.2,0.4,0.7-0.5,0.9-0.1l-0.4,0.3l0.6-0.2
						c0,0.3-0.4,0.7-0.8,0.9c0-0.1-0.2-0.1-0.2-0.2c-0.3,0.6,0.7,0.8,0.6,1l0-0.5c0.5,0.4,0.8,1,1.2,1.5c0.4,0.5,0.8,1,1.6,1.1
						l0.2-0.3c1.1,0.2,0.1,0.8,1.1,1.2l-0.1,0c0.4-0.1,0.7-0.1,0.9,0.1c-0.5,0.2-0.1,0.9-0.7,1.1c1.3,0,0.8-0.1,2-0.9l-0.2,0.6
						c0.5-0.3,0.6-0.6,1.1-0.5c-0.6,0.3-0.2,0.9-0.9,1.3c0.2,0.8,0.7,0.7,1.1,0.6c0.4-0.1,0.7-0.2,0.6,0.8c1-1.4-0.5-1.2-0.1-1.4
						c0-0.6,0.8-1,1-0.7c0.2,0.1-0.2,2.2,0.6,2.3c-0.1,0-0.1,0.1-0.2,0.1c0.2,0.5,0.7-0.4,0.9,0.3c0.4-0.9,0.4,0.2,0.7-1.1l-0.7,0.1
						c0.4-0.2,1.1-1.6,1.5-0.8c-0.1,0.2-0.3,0.5-0.5,0.7c0.1,0.4,0.4-0.2,0.5,0.2c-0.3,1.2-0.8,0.1-1.4,1c0.1,0.6,0.9-0.7,0.5,0.6
						c0.7-1.6,0.6,0.4,1.3-0.8l-0.2,0.7c0.1-0.1,0.3-0.4,0.4-0.4l-0.4,0.9c0.5-0.7,0.4,0.8,1,0.5c-0.5-0.1-0.4-0.3-0.4-0.6
						c0.1-0.3,0.2-0.6,0.1-0.9c1.2-0.8,0.2,2.1,1.6,1.9c-0.2,0.1-0.6-0.5-0.3-0.8c0.2,0.2,0.5,0.5,0.6,0.9c0.9-0.1-0.1-0.8,0.4-1.2
						c0.2,0.9,0.4-0.3,0.8-0.6l0,0.8c0.9,0.5,0.3-1.6,1.1-1l-0.4,1.1l0.4-0.3l-0.1,0.9c0.5-0.6,0.6-0.5,1.1-0.3
						c-0.1-0.5,0-1.4,0.4-1.5c0.3,0.4-0.1,0.7,0.5,0.6c-0.1,0.5-0.2,1.1-0.5,0.4c0,0.3-0.1,0.5-0.1,0.7c0.4,0.5,0.8,0,1,0
						c-0.1,0-0.2,0-0.3-0.1c0.3-0.4,0.5-0.8,0.7-1.2c0.2,0.3,0.1,0.5,0.1,0.7c0.2-0.1,0.2-0.5,0.5-0.6c0.1,0.6,0.2,1.2-0.1,1.6
						c0.2-0.3,0.5-0.6,0.7-0.9c0.1,0.3,0.6,0.6,0.6,0.9c0.6,0.2,0.8-1.5,1.6-1.2c0-0.1,0-0.3,0.1-0.4c0.6-0.1,1.4,0.4,1.7-0.7
						c0.3,0.3,0.6,0.5,0.9,0.8c0.4-0.5-1.1-1-0.5-1.8c0.4-0.6,0.7,0.7,1.1,0.9c0-0.7-0.2-1.9,0.8-1.5
						C52,114.7,51.8,114.6,51.7,114.8z M56,109.3c0.1,0.2,0.4,0.7-0.1,0.5C55.2,109.3,55.6,109.4,56,109.3z M55.5,99.7
						c0.3,0,0.2,0.2-0.1,0.4C55.3,100,55.3,99.8,55.5,99.7z M42.4,102C42.4,102,42.3,102,42.4,102C42.6,101.9,42.5,101.9,42.4,102z
						 M42,102.3c0.1,0,0.2,0,0.3,0c-0.2,0-0.2-0.1-0.1-0.2C42,102.2,41.8,102.2,42,102.3z M36.3,109.8l0,0.2
						C36.1,110.2,36.2,110,36.3,109.8z"/>
					<path class="st6" d="M56.7,100.5c-0.1,0.1-0.3,0.1-0.4,0.1C56.5,100.7,56.6,100.7,56.7,100.5z"/>
					<path class="st6" d="M48.1,117.1C48.1,117.1,48.1,117.1,48.1,117.1c0,0,0,0.1,0,0.1L48.1,117.1z"/>
					<path class="st6" d="M40.3,93.4c0.2,0,0.3,0.1,0.4,0.2C40.6,93.4,40.5,93.3,40.3,93.4z"/>
					<path class="st6" d="M42,103.4c0.2-0.1,0.4-0.2,0.7-0.2C42.4,103.2,42.2,103.3,42,103.4C42,103.3,42.2,103.3,42,103.4z"/>
					<path class="st6" d="M41,105.9c0.1-0.1,0.1,0,0.2-0.1l0.1-0.4C41.1,105.5,40.9,105.7,41,105.9z"/>
					<path class="st6" d="M40.9,103.9c-0.4,0.2-0.8,0.4-1.2,0.6l0,0l0,0l0,0c0,0,0,0,0,0c0,0,0,0,0,0c0,0,0.1,0,0.1-0.1
						c0.1,0,0.1-0.1,0.1-0.1c0.1-0.1,0.2-0.2,0.2-0.2c0,0,0,0-0.1,0.1c0-0.1,0,0-0.1,0.1c-0.1,0.1-0.1,0.1-0.2,0.2
						c0,0-0.1,0-0.1,0.1l-0.1,0l0,0l0,0l0,0l0,0l0,0l0,0L40.9,103.9L40.9,103.9L40.9,103.9z"/>
					<path class="st6" d="M40.4,103.9c0,0,0.1-0.1,0.2-0.2c0,0,0,0,0,0c0.1-0.2,0.1-0.2,0.1-0.1C40.6,103.6,40.4,103.8,40.4,103.9z"
						/>
					<path class="st6" d="M42.4,102.7c-0.2,0.1,0.8,0,0.6,0C43.8,102.8,42,102.4,42.4,102.7z"/>
					<path class="st6" d="M39.1,104.9c0.2-0.2,0.4-0.3,0.6-0.5c-0.2,0.1-0.4,0.2-0.6,0.3C39.1,104.8,39.1,104.8,39.1,104.9z"/>
					<path class="st6" d="M39.3,103.3c-0.1,0.1-0.1,0.2-0.2,0.3c0.1,0,0.2,0,0.3,0C39.3,103.5,39.5,103.3,39.3,103.3z"/>
					<path class="st6" d="M39.4,103.7c0,0.1,0,0.2,0.2,0.2C39.5,103.8,39.5,103.7,39.4,103.7z"/>
					<path class="st6" d="M38.7,104.6l0.1-0.2l0-0.2C38.8,104.3,38.7,104.5,38.7,104.6z"/>
					<path class="st6" d="M39.8,100l-0.1-0.4c-0.2-0.1-0.4-0.1-0.4,0.1C39.4,99.8,39.5,100,39.8,100z"/>
					<path class="st6" d="M37.4,100.6c0.2-0.1,0.4-0.1,0.6-0.1l-1-0.2L37.4,100.6z"/>
					<path class="st6" d="M37.4,99.4c-0.3-0.1-0.5-0.9-0.7-0.3C37,99.2,37.1,99.7,37.4,99.4z"/>
					<polygon class="st6" points="42.2,95.3 42.2,95.4 43,96.8 					"/>
					<path class="st6" d="M46.8,90c-0.8-0.3-0.1,1-0.7,0.6c-0.1,0.4,0.5,0.3,0.4,0.7C46.8,90.8,47,91,46.8,90z"/>
					<path class="st6" d="M46.4,91.3c0,0.1-0.1,0.2-0.1,0.3C46.3,91.4,46.4,91.3,46.4,91.3z"/>
					<polygon class="st6" points="29.6,98.8 29.8,98.5 29.3,98.8 					"/>
					<path class="st6" d="M28.3,98.6l1-0.3l-0.9,0.1C28.4,98.4,28.5,98.5,28.3,98.6z"/>
					<path class="st6" d="M58.3,109.3l-0.2-0.1c-0.3-0.1-0.3,0-0.5,0.2L58.3,109.3z"/>
					<polygon class="st6" points="54.6,113.5 54.6,113.4 53.8,112.9 					"/>
					<path class="st6" d="M51.6,117.2c0.2-0.1,0.3-0.4,0.5-0.4C51.8,117.2,51,116.3,51.6,117.2z"/>
				</g>
			</g>
		</g>
	</g>
</g>
</svg>
