<?xml version="1.0" encoding="utf-8"?>
<!-- Generator: Adobe Illustrator 26.0.1, SVG Export Plug-In . SVG Version: 6.00 Build 0)  -->
<svg version="1.1" id="Layer_1" xmlns="http://www.w3.org/2000/svg" xmlns:xlink="http://www.w3.org/1999/xlink" x="0px" y="0px"
	 viewBox="0 0 120 140" style="enable-background:new 0 0 120 140;" xml:space="preserve">
<style type="text/css">
	.st0{opacity:0.5;fill:#3488B7;}
	.st1{opacity:0.5;fill:#FFFFFF;}
	.st2{opacity:0.5;fill:#FBB03B;}
	.st3{fill:#6FA36D;stroke:#6FA36D;stroke-width:1.5263;stroke-miterlimit:10;}
	.st4{fill:#597F57;}
</style>
<g>
	<path class="st0" d="M0,4.9v130c0,2.8,2.2,5,5,5h110c2.8,0,5-2.2,5-5V4.9c0-2.8-2.2-5-5-5H5C2.3-0.1,0,2.1,0,4.9z"/>
	<path class="st1" d="M0.2,46.6c0-0.6,7.8-1.9,8.4-2c13.1-2.3,26.8-1.7,39.7,0.9c6.1,1.2,12.5,2.2,18.8,1.6c3.3-0.3,6.3-1.2,9.3-2.3
		c3-1.1,6.4-1.7,9.7-2.1c2.9-0.4,5.9-0.5,8.8-0.3c4.3,0.3,8,2.1,12.3,2.4c2.1,0.2,4.1,0.2,6.2,0c0.7-0.1,6.6-0.7,6.6-1.3
		c0,0,0.1,3.2,0.1,3.2c-4.9-0.7-10-1.1-14.9-1.3c-4.6-0.2-9.2-0.2-13.8,0.1c-5,0.3-9.7,1.3-14.6,2c-8.9,1.3-18,1.9-27,2
		c-5.3,0.1-10.5-0.7-15.7-1.2c-4.4-0.4-8.8-0.5-13.2-0.7c-4.1-0.1-8.3-0.2-12.4,0c-2.3,0.1-5.9,0.1-7.8,1.3
		c-0.2,0.1-0.4,0.3-0.5,0.4C0.2,49.3,0.2,46.6,0.2,46.6z"/>
	<path class="st1" d="M0.2,45.5c0-0.6,7.8-1.9,8.4-2c13.1-2.3,26.8-1.7,39.7,0.9c6.1,1.2,12.5,2.2,18.8,1.6c3.3-0.3,6.3-1.2,9.3-2.3
		c3-1.1,6.4-1.7,9.7-2.1c2.9-0.4,5.9-0.5,8.8-0.3c4.3,0.3,8,2.1,12.3,2.4c2.1,0.2,4.1,0.2,6.2,0c0.7-0.1,6.6-0.7,6.6-1.3
		c0,0,0.1,3.2,0.1,3.2c-4.9-0.7-10-1.1-14.9-1.3c-4.6-0.2-9.2-0.2-13.8,0.1c-5,0.3-9.7,1.3-14.6,2c-8.9,1.3-18,1.9-27,2
		c-5.3,0.1-10.5-0.7-15.7-1.2c-4.4-0.4-8.8-0.5-13.2-0.7c-4.1-0.1-8.3-0.2-12.4,0c-2.3,0.1-5.9,0.1-7.8,1.3
		c-0.2,0.1-0.4,0.3-0.5,0.4C0.2,48.2,0.2,45.5,0.2,45.5z"/>
	<path class="st1" d="M120.2,70.8c-1.8,0.4-3.5,0.9-5.1,1.5c-4.5,1.7-9,2.9-14,3.4c-9.6,0.9-19.2-0.6-28.4-2.4
		c-19.5-3.8-40-4.8-59.9-1.3c-0.9,0.2-12.8,2.1-12.7,3.1c0,0,0.1,4.1,0.1,4.1c0.2-0.3,0.5-0.4,0.8-0.6c2.9-1.8,8.2-1.8,11.7-2
		c6.2-0.3,12.5-0.2,18.7-0.1c6.6,0.2,13.3,0.4,19.9,1c7.9,0.7,15.7,1.9,23.7,1.8c13.6-0.1,27.3-1.1,40.7-3c1.5-0.2,3.1-0.5,4.6-0.7"
		/>
	<path class="st1" d="M120,69.3c-1.7,0.4-3.3,0.9-4.9,1.5c-4.5,1.7-9,2.9-14,3.4c-9.6,0.9-19.2-0.6-28.4-2.4
		c-19.5-3.8-40-4.8-59.9-1.3c-0.9,0.2-12.8,2.1-12.7,3.1c0,0,0.1,4.1,0.1,4.1C0.4,77.4,0.7,77.2,1,77c2.9-1.8,8.2-1.8,11.7-2
		c6.2-0.3,12.5-0.2,18.7-0.1c6.6,0.2,13.3,0.4,19.9,1c7.9,0.7,15.7,1.9,23.7,1.8c13.6-0.1,27.3-1.1,40.7-3c1.5-0.2,2.9-0.4,4.4-0.7"
		/>
	<path class="st1" d="M-0.2,11c4,0.5,8,1.2,12,2c9.2,1.8,18.8,3.3,28.4,2.4c5-0.5,9.5-1.7,14-3.4c4.5-1.7,9.7-2.5,14.6-3.2
		C73.1,8.2,77.6,8,82,8.3c6.5,0.5,12.1,3.1,18.6,3.6c3.1,0.2,6.2,0.3,9.4,0c1.1-0.1,9.9-1.1,9.9-2c0,0,0.1,4.8,0.1,4.8
		c-7.4-1.1-15-1.7-22.6-2c-6.9-0.3-13.9-0.3-20.8,0.1c-7.5,0.5-14.7,2-22,3.1c-13.4,1.9-27.1,2.9-40.7,3c-4.8,0-9.5-0.4-14.2-0.8"/>
	<path class="st1" d="M-0.2,10.2c4,0.5,8,1.2,12,2c9.2,1.8,18.8,3.3,28.4,2.4c5-0.5,9.5-1.7,14-3.4c4.5-1.7,9.7-2.5,14.6-3.2
		c4.4-0.6,8.9-0.8,13.3-0.5c6.5,0.5,12.1,3.1,18.6,3.6c3.1,0.2,6.2,0.3,9.4,0c1.1-0.1,9.9-1.1,9.9-2c0,0,0.1,4.8,0.1,4.8
		c-7.4-1.1-15-1.7-22.6-2c-6.9-0.3-13.9-0.3-20.8,0.1c-7.5,0.5-14.7,2-22,3.1c-13.4,1.9-27.1,2.9-40.7,3c-4.8,0-9.5-0.4-14.2-0.8"/>
	<circle class="st1" cx="14.3" cy="7.9" r="0.9"/>
	<circle class="st1" cx="16.1" cy="2.1" r="1"/>
	<circle class="st1" cx="22.8" cy="3.1" r="1.9"/>
	<circle class="st1" cx="47.2" cy="44.1" r="0.9"/>
	<circle class="st1" cx="43.1" cy="39.6" r="1"/>
	<circle class="st1" cx="47.3" cy="34.3" r="1.9"/>
	<circle class="st1" cx="87.9" cy="57.5" r="1.1"/>
	<circle class="st1" cx="92.7" cy="62.6" r="1.4"/>
	<circle class="st1" cx="87.1" cy="69" r="1.6"/>
	<circle class="st1" cx="41.1" cy="99.8" r="0.9"/>
	<circle class="st1" cx="37.1" cy="95.3" r="1"/>
	<circle class="st1" cx="41.4" cy="90.1" r="1.9"/>
	<circle class="st1" cx="93.7" cy="112.6" r="1.1"/>
	<circle class="st1" cx="91.3" cy="106" r="1.4"/>
	<circle class="st1" cx="98.9" cy="102.3" r="1.6"/>
	<path class="st2" d="M0,124.1c9.6-5.1,19.5-9.3,29.5-12.5c5.6-1.8,11.2-3.3,16.8-3.9c7.7-0.9,15.5,1.3,23.1,2.6
		c3.6,0.6,7.1,1.4,10.6,3c1.7,0.7,3.3,1.7,4.9,2.8c2.3,1.7,3.9,3.4,6.6,3.2c4.8-0.3,9.5-1.3,14.2-1.1c4.7,0.1,10,0.3,14.3,3.8v13
		c0,2.8-2.2,5-5,5H5c-2.8,0-5-2.2-5-5L0,124.1z"/>
</g>
<g>
	<path class="st3" d="M41.3,105.8c-0.2-0.4,0.3-0.7,0.9-0.9c0.6-0.3,1.3-0.4,1.9-0.7c2.2-1.2,4.3-2.6,6.4-4
		c5.9-4,11.4-8.9,15.7-14.6c1.1-1.4,2.1-2.9,3-4.5c0.7-1.2,1-2.6,1.7-3.8c0.3-0.5,0.4-0.8,1-0.7c0.9,0.2,1.7,1.2,2.4,1.6
		c0.9,0.6,1.9,1,3,1.2c1,0.2,2.1-0.1,3.1,0.2c0.7,0.2,0.6,0.1,0.5,0.7c-0.1,0.5-0.4,0.9-0.5,1.3c-0.8,1.8-1.8,3.6-2.9,5.4
		c-3.7,6.2-8.4,11.7-13.6,16.6c-2,1.9-4.1,3.7-6.3,5.3c-1.2,0.9-2.4,1.8-3.6,2.6c-0.4,0.3-1.2,1-1.6,0.9c-0.9-0.2-1.9-1.7-2.6-2.3
		c-0.8-0.7-1.7-1.5-2.6-2.1c-1.7-1.1-4-1-5.7-2.1C41.5,106,41.4,105.9,41.3,105.8z"/>
	<path class="st3" d="M36.5,100.6c0-0.1,0.1-0.3,0.3-0.5c0.9-0.7,2.1-1.1,3-1.7c2.3-1.5,4.6-3,6.7-4.7c5.6-4.4,10.9-9.6,14.2-15.9
		c1-2,1.9-4,2.4-6.1c0,0,5.9,5,8.8,4.2c0.8-0.2-0.3,1.8-0.4,1.9c-1.1,1.9-2.5,3.8-3.8,5.5c-4.1,5.3-8.8,10.4-14,14.7
		c-2.3,2-4.8,3.9-7.5,5.3c-0.8,0.4-3.1,2-4,1.7c-0.6-0.2-1.2-1.3-1.7-1.7c-0.7-0.6-1.4-1-2.2-1.5C37.8,101.6,36.5,101.2,36.5,100.6z
		"/>
	<path class="st3" d="M36.4,89.1c0-0.2,0.2-0.1,0.5-0.3c0.3-0.1,0.6-0.2,0.9-0.4c2.1-0.8,4.1-1.9,6-3.2c2.6-1.7,5-3.9,6.9-6.5
		c0.9-1.3,1.7-2.7,2.3-4.1c0.3-0.8,0.6-1.5,0.8-2.3c0.2-0.6,0.2-1.3,0.4-1.9c0-0.1,0-0.1,0.1-0.2c0.3-0.2,3.6,1.3,4.2,1.4
		c1.8,0.3,3.5-0.2,4.6-1.7c0.5-0.7,0.6-0.4,0.6,0.3c-0.1,1.4-0.9,2.9-1.5,4.2c-2.4,5.4-5.9,10.3-9.9,14.6c-2.1,2.2-4.3,4.2-6.7,6
		c-1.2,0.9-2.5,1.8-3.8,2.6c-0.6,0.3-3.4,2.8-3.8,1.8c-0.2-0.4,0.1-1.4,0.2-1.8c0-0.5,0.1-0.9,0.1-1.4c0-1.2-0.1-2.3-0.4-3.4
		c-0.3-1.1-1.2-2.2-1.4-3.3C36.4,89.2,36.3,89.1,36.4,89.1z"/>
	<path class="st3" d="M49.3,68.8c0,0,3.6-0.5,4.8,2.2c1.1,2.7-5.4,13.3-17,17.7c0,0-4.3-1-0.9-3.1C36.1,85.6,49.2,78.7,49.3,68.8z"
		/>
	<path class="st3" d="M33.2,81.2c0.2-0.2,0.5-0.4,0.7-0.6c4.1-2.7,7.3-6.8,8.9-11.4c0.1-0.4,0.2-0.9,0.5-1.1c0.4-0.1,1-0.2,1.4-0.2
		c0.6-0.1,1.3-0.1,1.9,0c1.1,0.2,2.2,1.1,2.4,2.2c0.1,0.6-0.1,1.2-0.3,1.8c-1,3.1-2.9,5.9-5.3,8.1c-2.4,2.2-5.2,4-8.1,5.3
		c-0.2,0.1-0.4,0.2-0.5,0.2c-0.4,0-0.7-0.2-1-0.4c-0.7-0.7-1.1-1.7-1.1-2.7c0-0.3,0.1-0.7,0.3-1C33.1,81.3,33.2,81.2,33.2,81.2z"/>
	<path class="st3" d="M31.6,76.7c0,0,4.7-2.7,6.3-8.4c0,0,3.6-1.2,4.9,1.1c0,0-3.3,8.2-8.5,11C34.2,80.4,32.3,79.8,31.6,76.7z"/>
	<path class="st3" d="M29.5,74.3c-0.4-0.7,1-1.2,1.7-2.5c0.6-1,1-2,1.1-3.2c0.2-1.4-0.2-1.7,1.4-1.7c1.3,0,3.7,0.6,3.4,2.4
		c0,0-0.9,4.7-4.5,6.5c-0.4,0.2-0.8,0.4-1.3,0.5c-0.1-0.5-0.4-1.1-0.9-1.3C29.9,74.7,29.6,74.5,29.5,74.3z"/>
	<path class="st3" d="M28.5,73.4c0,0-9.8-5.9,2.5-5.6C30.9,67.8,33.5,72.1,28.5,73.4z"/>
	<path class="st3" d="M55,111.2c-0.1,0.6,0.8,1.6,1,2.1c0.2,0.3,0.4,0.7,0.6,1c0.7,1.1,1.7-0.1,2.5-0.7c1-0.7,1.9-1.4,2.9-2.1
		c2.6-2,5.2-4.1,7.7-6.3c5-4.4,10.8-9.6,13.3-15.9c0.3-0.7,0.5-0.9-0.1-1.5c-0.5-0.5-1-0.8-1.5-1.2c-0.4-0.3-1.6-1.6-2.1-1.6
		c-0.5,0-1.1,1.6-1.3,2.1c-1.2,2.1-2.5,4.2-4,6.2c-2.2,3-4.7,5.9-7.4,8.5c-1.7,1.6-3.4,3.2-5.2,4.7c-1,0.8-2,1.6-3,2.4
		c-1,0.7-2.5,1.4-3.2,2.3C55,111,55,111.1,55,111.2z"/>
	<path class="st3" d="M59.5,114.4c-0.2,0.2,1.9,2.4,2.4,2.4c0.2,0,0.5-0.3,0.6-0.4c0.8-0.5,1.6-1,2.3-1.5c2.6-1.7,5.1-3.6,7.4-5.6
		c5.2-4.3,10.3-9.4,13-15.7c0.3-0.6-0.9-1.8-1.2-2.2c-0.3-0.4-0.4-0.7-0.9-0.5c-0.8,0.4-1.7,1.7-2.3,2.3c-2.3,2.4-4.6,4.8-6.9,7.2
		c-2.2,2.2-4.4,4.4-6.7,6.6c-1.3,1.3-2.6,2.5-3.9,3.7C62.1,112,60.5,113.1,59.5,114.4z"/>
	<path class="st3" d="M65.3,115.9c-0.1,0.2,0,0.4,0,0.6c0.3,0.8,1.5,1.7,2.4,1.1c0,0,12.9-9.2,16.6-13.8c0.3-0.4,0.4-1.3,0.4-1.8
		c0-0.5-0.2-1-0.5-1.3c-0.3-0.3-0.7-0.6-1.1-0.7c-0.7-0.3-0.9,0.2-1.4,0.7c-1.4,1.3-2.7,2.5-4.1,3.8c-2.9,2.7-5.9,5.4-8.8,8.2
		c-0.7,0.6-1.3,1.3-2,1.9C66.3,114.9,65.5,115.3,65.3,115.9z"/>
	<path class="st3" d="M70.1,117c-0.2,0.7,0.3,1.4,0.7,2.3c0.4,0.6,0.8,1.3,1.4,1.7c1.5,1.2,2.4-0.3,3.4-1.4c1.1-1.2,2.3-2.5,3.4-3.8
		c1.9-2.2,3.8-4.3,5.4-6.7c0.4-0.5,0.9-1.1,1.1-1.7c0.2-0.6,0-0.6-0.5-1c-0.7-0.5-1.2-1.4-2.2-0.8c-1.2,0.7-2.3,2-3.3,2.9
		c-2.2,2-4.5,3.9-6.7,5.9c-0.8,0.7-1.7,1.3-2.4,2.1C70.3,116.6,70.2,116.8,70.1,117z"/>
	<path class="st3" d="M75.4,121.3c0,0.1,0.1,0.1,0.1,0.2c0.6,0.8,2,1.7,3,2c0.5,0.1,0.6,0,1.1-0.2c0.9-0.5,1.8-1.1,2.6-1.7
		c1.3-1.1,2.4-2.6,3.2-4.2c0.6-1.2,1.3-2.7,1.2-4c0-1-1.6-3-2.7-3c-0.6,0-1.6,1.5-2,1.9c-0.7,0.8-1.4,1.6-2,2.4
		C79.1,115.5,74.9,119.9,75.4,121.3z"/>
	<g>
		<path class="st4" d="M28.3,74.2c2.5-1.1,3.9-3.3,3.3-6c-0.1-0.4-0.2-0.7-0.2-1.1c0.2,0.3,0.4,0.7,0.6,1
			C33.3,70.9,31.4,74,28.3,74.2L28.3,74.2z"/>
	</g>
	<g>
		<path class="st4" d="M37.4,67.6c0.5,0.3,0.5,1,0.5,1.5c-0.2,3.4-2.6,6.3-5.5,7.7c-0.5,0.3-1.1,0.4-1.6,0.3c0.5-0.2,1-0.3,1.4-0.7
			c2.6-1.7,4.7-4.3,5.4-7.4C37.7,68.6,37.7,68.1,37.4,67.6L37.4,67.6z"/>
	</g>
	<g>
		<path class="st4" d="M32.8,80.4c0.6,0.4,1.3,1,1.9,0.3c0,0,1.7-1.6,1.7-1.6c2.8-2.6,5.2-5.8,6.9-9.2c0.3-0.7-0.4-1.4-0.9-1.9
			c0.7,0.4,1.5,1.1,1.2,2c-1.3,3.8-3.8,7.1-6.9,9.6c-0.4,0.3-2,1.7-2.4,1.8C33.7,81.4,33.2,80.8,32.8,80.4L32.8,80.4z"/>
	</g>
	<g>
		<path class="st4" d="M32.3,83.8c0.8,1.5,2.1,2.7,3.7,1.5c2.4-1.4,4.7-2.8,6.8-4.7c3.3-2.9,6-6.5,6.9-10.9c0-0.5-0.3-1.3-0.8-1.6
			c0.6,0.3,1,1,1,1.7c-0.2,2.2-1,4.4-2.2,6.3c-2.4,3.8-6,6.8-10,8.8c0,0-1.5,0.8-1.5,0.8c-0.5,0.2-1,0.6-1.7,0.5
			C33.4,86,32.7,84.9,32.3,83.8L32.3,83.8z"/>
	</g>
	<g>
		<path class="st4" d="M34.7,88.4c0.5,0.4,1.1,0.8,1.7,0.9c0.6,0.1,1.3-0.3,1.8-0.5c1.2-0.6,2.3-1.2,3.4-2
			c4.1-3,14.1-10.5,12.8-16.1c-0.2-0.6-0.6-1.2-1-1.6c1.1,0.8,1.7,2.2,1.5,3.6c-1.1,6.1-8.1,11.4-13,14.6c-1.1,0.7-2.3,1.3-3.6,1.8
			c-0.6,0.2-1.3,0.5-2,0.4C35.8,89.3,35.2,88.9,34.7,88.4L34.7,88.4z"/>
	</g>
	<g>
		<path class="st4" d="M38,100.2c9.5-5.9,18.2-13.5,23.7-23.4c0.8-1.4,1.5-2.8,2.1-4.4C59.8,84.9,49.3,94.3,38,100.2L38,100.2z"/>
	</g>
	<g>
		<path class="st4" d="M44.2,104.8c9.9-5.6,18-14,24.9-22.9c1-1.3,2-2.6,2.9-3.9C65.4,89,56.1,99.3,44.2,104.8L44.2,104.8z"/>
	</g>
	<g>
		<path class="st4" d="M59.7,70.9c1.1-0.1,2-0.5,2.5-1.5c0.3-0.5,1-0.9,1.6-0.6c0.6,0.3,0.6,1.1,0.5,1.6c-0.1,0.7-0.4,1.4-0.6,2.1
			c0-0.8,1-3.6-0.5-3.4c-0.6,0.1-0.8,0.9-1.4,1.4C61.2,70.9,60.4,71,59.7,70.9L59.7,70.9z"/>
	</g>
	<g>
		<path class="st4" d="M37.3,97.9c0,0.8-0.2,2,0.8,2.3C37,100.2,37,98.7,37.3,97.9L37.3,97.9z"/>
	</g>
	<g>
		<path class="st4" d="M40.8,104.8c0.6,0.5,1.5,1.4,2.3,0.8C42.4,106.5,41.2,105.5,40.8,104.8L40.8,104.8z"/>
	</g>
	<g>
		<path class="st4" d="M70.9,75.2c0.4,0,0.6-0.1,1-0.2c0.9,0,1.4,1.1,1,1.8c-0.2,0.3-0.4,0.6-0.7,0.8c0.1-0.3,0.3-0.6,0.4-0.9
			c0.2-0.6-0.1-1.2-0.7-1.4C71.7,75.3,71.2,75.4,70.9,75.2L70.9,75.2z"/>
	</g>
	<g>
		<path class="st4" d="M55,112.7c-1.7-1.5,0.4-3.1,1.7-3.9c0,0,4-2.9,4-2.9c7.2-5.6,13.1-12.7,17.2-20.8c0.4-0.8,1.4-1.3,2.1-0.7
			c-0.8-0.5-1.6,0.1-2,0.8c-3.6,8.5-9.6,15.8-17,21.2c0,0-4.2,2.7-4.2,2.7C55.6,109.9,53.5,111.1,55,112.7L55,112.7z"/>
	</g>
	<g>
		<path class="st4" d="M59.5,115.7c-1.7-1.2,0.4-3,1.5-3.8c1.3-1,2.5-2,3.6-3.1c4.8-4.3,9.3-8.8,13.4-13.6c1-1.2,2.1-2.4,3.1-3.7
			c0.5-0.6,1-1.4,1.9-1.6c0.9-0.1,1.5,0.7,2,1.3c-0.5-0.5-1.1-1.3-1.9-1.1c-0.7,0.2-1.2,0.9-1.6,1.6c-0.9,1.3-1.9,2.6-2.9,3.8
			c-4,5-8.6,9.5-13.5,13.7c-1.2,1-2.5,2-3.8,2.9C60.1,113,57.9,114.4,59.5,115.7L59.5,115.7z"/>
	</g>
	<g>
		<path class="st4" d="M64.9,117.1c-0.7-0.9-0.3-2.1,0.6-2.7c0,0,2.3-2,2.3-2c1.5-1.3,3.1-2.7,4.6-4c3-2.7,6.1-5.4,8.6-8.6
			c0.4-0.4,0.9-0.7,1.4-0.8c0.6-0.1,1.1,0.2,1.4,0.6c-0.4-0.3-0.9-0.5-1.4-0.4c-0.5,0.1-1,0.4-1.2,0.8c-2.2,3.5-5.3,6.3-8.4,9
			c-2.3,2-4.7,3.9-7.3,5.7C64.7,115.1,64.3,116.2,64.9,117.1L64.9,117.1z"/>
	</g>
	<g>
		<path class="st4" d="M69.8,119c-1-0.8-0.7-2.5,0.2-3.1C69.4,116.9,69.4,117.9,69.8,119L69.8,119z"/>
	</g>
	<g>
		<path class="st4" d="M70,115.7c4-3.4,8.2-6.9,11.9-10.6C78.6,109.3,74.4,112.7,70,115.7L70,115.7z"/>
	</g>
	<g>
		<path class="st4" d="M82.7,104.8c0.6-0.5,1.6-0.3,2.1,0.3C84.1,104.8,83.4,104.6,82.7,104.8L82.7,104.8z"/>
	</g>
	<g>
		<path class="st4" d="M75.1,122.2c-1.4-0.8,0.1-2.9,0.9-3.8c1.5-1.6,2.9-3.2,4.3-4.9c0.5-0.6,1-1.1,1.4-1.7
			c0.5-0.8,0.8-2.3,2.1-2.4c0.4,0,0.8,0,1,0.2c-0.3-0.2-0.7-0.2-1-0.1c-1.2,0.2-1.3,1.5-1.8,2.4c-0.4,0.6-0.9,1.1-1.3,1.7
			c-1.4,1.7-2.8,3.3-4.3,4.8C75.5,119.4,73.8,121.3,75.1,122.2L75.1,122.2z"/>
	</g>
</g>
</svg>
