<?xml version="1.0" encoding="utf-8"?>
<!-- Generator: Adobe Illustrator 26.0.1, SVG Export Plug-In . SVG Version: 6.00 Build 0)  -->
<svg version="1.1" id="Layer_1" xmlns="http://www.w3.org/2000/svg" xmlns:xlink="http://www.w3.org/1999/xlink" x="0px" y="0px"
	 viewBox="0 0 120 140" style="enable-background:new 0 0 120 140;" xml:space="preserve">
<style type="text/css">
	.st0{opacity:0.5;fill:#3488B7;}
	.st1{opacity:0.5;fill:#FFFFFF;}
	.st2{opacity:0.5;fill:#FBB03B;}
	.st3{fill:none;stroke:#C8CCE5;stroke-miterlimit:10;}
	.st4{fill:#FFFFFF;stroke:#FFFFFF;stroke-miterlimit:10;}
	.st5{fill:#C2EA88;stroke:#C2EA88;stroke-width:2.4309;stroke-miterlimit:10;}
	.st6{fill:#9DD17C;}
</style>
<g>
	<path class="st0" d="M0,5v130c0,2.8,2.2,5,5,5h110c2.8,0,5-2.2,5-5V5c0-2.8-2.2-5-5-5H5C2.3,0,0,2.2,0,5z"/>
	<path class="st1" d="M0.2,46.7c0-0.6,7.8-1.9,8.4-2c13.1-2.3,26.8-1.7,39.7,0.9c6.1,1.2,12.5,2.2,18.8,1.6c3.3-0.3,6.3-1.2,9.3-2.3
		c3-1.1,6.4-1.7,9.7-2.1c2.9-0.4,5.9-0.5,8.8-0.3c4.3,0.3,8,2.1,12.3,2.4c2.1,0.2,4.1,0.2,6.2,0c0.7-0.1,6.6-0.7,6.6-1.3
		c0,0,0.1,3.2,0.1,3.2c-4.9-0.7-10-1.1-14.9-1.3c-4.6-0.2-9.2-0.2-13.8,0.1c-5,0.3-9.7,1.3-14.6,2c-8.9,1.3-18,1.9-27,2
		c-5.3,0.1-10.5-0.7-15.7-1.2c-4.4-0.4-8.8-0.5-13.2-0.7c-4.1-0.1-8.3-0.2-12.4,0c-2.3,0.1-5.9,0.1-7.8,1.3
		c-0.2,0.1-0.4,0.3-0.5,0.4C0.2,49.4,0.2,46.7,0.2,46.7z"/>
	<path class="st1" d="M0.2,45.6c0-0.6,7.8-1.9,8.4-2c13.1-2.3,26.8-1.7,39.7,0.9c6.1,1.2,12.5,2.2,18.8,1.6c3.3-0.3,6.3-1.2,9.3-2.3
		c3-1.1,6.4-1.7,9.7-2.1c2.9-0.4,5.9-0.5,8.8-0.3c4.3,0.3,8,2.1,12.3,2.4c2.1,0.2,4.1,0.2,6.2,0c0.7-0.1,6.6-0.7,6.6-1.3
		c0,0,0.1,3.2,0.1,3.2c-4.9-0.7-10-1.1-14.9-1.3c-4.6-0.2-9.2-0.2-13.8,0.1c-5,0.3-9.7,1.3-14.6,2c-8.9,1.3-18,1.9-27,2
		c-5.3,0.1-10.5-0.7-15.7-1.2c-4.4-0.4-8.8-0.5-13.2-0.7c-4.1-0.1-8.3-0.2-12.4,0c-2.3,0.1-5.9,0.1-7.8,1.3
		c-0.2,0.1-0.4,0.3-0.5,0.4C0.2,48.3,0.2,45.6,0.2,45.6z"/>
	<path class="st1" d="M120.2,70.9c-1.8,0.4-3.5,0.9-5.1,1.5c-4.5,1.7-9,2.9-14,3.4c-9.6,0.9-19.2-0.6-28.4-2.4
		c-19.5-3.8-40-4.8-59.9-1.3c-0.9,0.2-12.8,2.1-12.7,3.1c0,0,0.1,4.1,0.1,4.1C0.4,79,0.7,78.8,1,78.6c2.9-1.8,8.2-1.8,11.7-2
		c6.2-0.3,12.5-0.2,18.7-0.1c6.6,0.2,13.3,0.4,19.9,1c7.9,0.7,15.7,1.9,23.7,1.8c13.6-0.1,27.3-1.1,40.7-3c1.5-0.2,3.1-0.5,4.6-0.7"
		/>
	<path class="st1" d="M120,69.4c-1.7,0.4-3.3,0.9-4.9,1.5c-4.5,1.7-9,2.9-14,3.4c-9.6,0.9-19.2-0.6-28.4-2.4
		c-19.5-3.8-40-4.8-59.9-1.3c-0.9,0.2-12.8,2.1-12.7,3.1c0,0,0.1,4.1,0.1,4.1c0.2-0.3,0.5-0.4,0.8-0.6c2.9-1.8,8.2-1.8,11.7-2
		c6.2-0.3,12.5-0.2,18.7-0.1c6.6,0.2,13.3,0.4,19.9,1C59.1,76.8,67,78,75,77.9c13.6-0.1,27.3-1.1,40.7-3c1.5-0.2,2.9-0.4,4.4-0.7"/>
	<path class="st1" d="M-0.2,11.1c4,0.5,8,1.2,12,2c9.2,1.8,18.8,3.3,28.4,2.4c5-0.5,9.5-1.7,14-3.4c4.5-1.7,9.7-2.5,14.6-3.2
		c4.4-0.6,8.9-0.8,13.3-0.5c6.5,0.5,12.1,3.1,18.6,3.6c3.1,0.2,6.2,0.3,9.4,0c1.1-0.1,9.9-1.1,9.9-2c0,0,0.1,4.8,0.1,4.8
		c-7.4-1.1-15-1.7-22.6-2c-6.9-0.3-13.9-0.3-20.8,0.1c-7.5,0.5-14.7,2-22,3.1c-13.4,1.9-27.1,2.9-40.7,3c-4.8,0-9.5-0.4-14.2-0.8"/>
	<path class="st1" d="M-0.2,10.3c4,0.5,8,1.2,12,2c9.2,1.8,18.8,3.3,28.4,2.4c5-0.5,9.5-1.7,14-3.4c4.5-1.7,9.7-2.5,14.6-3.2
		c4.4-0.6,8.9-0.8,13.3-0.5c6.5,0.5,12.1,3.1,18.6,3.6c3.1,0.2,6.2,0.3,9.4,0c1.1-0.1,9.9-1.1,9.9-2c0,0,0.1,4.8,0.1,4.8
		c-7.4-1.1-15-1.7-22.6-2c-6.9-0.3-13.9-0.3-20.8,0.1c-7.5,0.5-14.7,2-22,3.1c-13.4,1.9-27.1,2.9-40.7,3c-4.8,0-9.5-0.4-14.2-0.8"/>
	<circle class="st1" cx="14.3" cy="8" r="0.9"/>
	<circle class="st1" cx="16.1" cy="2.2" r="1"/>
	<circle class="st1" cx="22.8" cy="3.2" r="1.9"/>
	<circle class="st1" cx="47.2" cy="44.2" r="0.9"/>
	<circle class="st1" cx="43.1" cy="39.8" r="1"/>
	<circle class="st1" cx="47.3" cy="34.4" r="1.9"/>
	<circle class="st1" cx="87.9" cy="57.6" r="1.1"/>
	<circle class="st1" cx="92.7" cy="62.7" r="1.4"/>
	<circle class="st1" cx="87.1" cy="69.1" r="1.6"/>
	<circle class="st1" cx="41.1" cy="100" r="0.9"/>
	<circle class="st1" cx="37.1" cy="95.4" r="1"/>
	<circle class="st1" cx="41.4" cy="90.2" r="1.9"/>
	<circle class="st1" cx="93.7" cy="112.7" r="1.1"/>
	<circle class="st1" cx="91.3" cy="106.2" r="1.4"/>
	<circle class="st1" cx="98.9" cy="102.4" r="1.6"/>
	<path class="st2" d="M0,124.2c9.6-5.1,19.5-9.3,29.5-12.5c5.6-1.8,11.2-3.3,16.8-3.9c7.7-0.9,15.5,1.3,23.1,2.6
		c3.6,0.6,7.1,1.4,10.6,3c1.7,0.7,3.3,1.7,4.9,2.8c2.3,1.7,3.9,3.4,6.6,3.2c4.8-0.3,9.5-1.3,14.2-1.1c4.7,0.1,10,0.3,14.3,3.8v13
		c0,2.8-2.2,5-5,5H5c-2.8,0-5-2.2-5-5L0,124.2z"/>
</g>
<g>
	<g>
		<path class="st3" d="M-98.9,110.7"/>
	</g>
</g>
<path class="st4" d="M-16.2,78.9"/>
<g>
	<path class="st5" d="M59.8,47.2h6.3c2.9,0,5.2,2.5,4.9,5.4l-3.4,38.7H57.3l-2.4-38.9C54.7,49.6,56.9,47.2,59.8,47.2z"/>
	<path class="st5" d="M40.6,56l5.4-4.3c2-1.6,5-0.7,5.7,1.8L65,100l-6.4,4.4L39.5,60.3C38.9,58.8,39.3,57,40.6,56z"/>
	<path class="st5" d="M85.2,58l-4.6-4.6c-1.9-1.9-5.2-1.3-6.3,1.3L56.1,99.1l5.9,5.1l23.8-41.6C86.6,61.2,86.4,59.3,85.2,58z"/>
	<path class="st5" d="M33.4,76l3.1-4.2c1.4-1.9,4.1-1.8,5.5,0l27.6,38.6l-6.7,9.1L33.5,80.1C32.6,78.9,32.6,77.2,33.4,76z"/>
	<path class="st5" d="M89.2,72.2l2.6,2.6c1.5,1.5,1.5,3.9,0,5.4l-37.5,38.2l-2.1-8.9l31.2-37.1C85,70.7,87.6,70.6,89.2,72.2z"/>
	<path class="st5" d="M29.6,95.2l1.9-4.2c1-2.1,3.8-2.6,5.5-1l25.2,25.1l-2.1,6.9L30.6,99.3C29.4,98.3,28.9,96.6,29.6,95.2z"/>
	<path class="st5" d="M93.6,87l3.8,3.1c1.8,1.4,1.6,4.2-0.4,5.3L60.7,117l-0.7-7.1L89.5,87C90.7,86,92.4,86,93.6,87z"/>
	<path class="st5" d="M36.8,114.4l1.1-3.9c0.4-1.3,2.2-2,3.7-1.3l21.2,9.2l-1.1,4c-0.3,1-1.3,1.5-2.3,1.2l-21.1-6.8
		C37.2,116.5,36.5,115.4,36.8,114.4z"/>
	<g>
		<path class="st6" d="M57.5,123c-6.4-1.4-12.7-3.3-18.9-5.2c-1.6-0.3-3.2-2-2.5-3.8c0.2-0.8,0.7-2.2,0.9-3c0,0,0.2-0.7,0.2-0.7
			c0.5-1.5,2.3-2.2,3.7-2c1,0.1,1.9,0.7,2.8,1.1c3.4,1.6,6.7,3.3,10,5.1c-4.4-1.3-8.7-3.3-13-4.7c-0.9-0.1-1.7,0.3-2,1
			c-0.1,0.4-0.4,1.6-0.6,2c-0.1,0.2-0.4,1.5-0.5,1.7c-0.3,1,0.5,1.5,1.4,1.7C45.3,118.3,51.5,120.5,57.5,123L57.5,123z"/>
	</g>
	<path class="st5" d="M84.1,112.8l-1.4-3.8c-0.5-1.3-2.3-1.9-3.8-1.1l-20.7,10.4l1.8,5.1c0.1,0.3,0.5,0.5,0.8,0.4l21.8-8.5
		C83.8,114.8,84.4,113.8,84.1,112.8z"/>
	<g>
		<path class="st6" d="M64.5,122.3c5.2-2.6,10.6-4.9,16-7.1c0,0,1.4-0.5,1.4-0.5c0.8-0.3,1.6-0.7,1.4-1.6c-0.3-0.7-1.1-3-1.3-3.8
			c-0.3-0.9-1.5-1.1-2.4-0.9c-4.8,2.2-9.6,4.5-14.6,6.4c3.3-2,6.7-4,10.1-5.8c1.9-0.8,3.6-2.5,5.8-2.2c1.1,0.1,2.2,0.9,2.6,2
			c0,0,1.1,2.9,1.1,3.1c0,0,0.2,0.7,0.2,0.7c0.4,1-0.1,2.2-0.8,2.9c-0.9,0.8-2,0.9-2.9,1.3C75.6,118.7,70.1,120.6,64.5,122.3
			L64.5,122.3z"/>
	</g>
	<g>
		<path class="st6" d="M41.3,107.5c-3.6-2.3-7.1-4.8-10.6-7.3c-3.1-1.8-2.7-4.5-1.1-7.2c0.6-1.2,0.9-2.4,1.8-3.4
			c1.5-1.9,4.3-1.7,6.1-0.3c5.6,4.9,11.2,9.9,16.5,15.1c-6-4.4-11.8-9.1-17.6-13.8c-1.9-1.2-3.6-0.8-4.6,1.5c-0.5,1.9-2.7,4-1.5,6
			C33.9,101.2,37.8,104.3,41.3,107.5L41.3,107.5z"/>
	</g>
	<g>
		<path class="st6" d="M41.2,92c-2.6-3.2-5.1-6.4-7.5-9.7c-0.3-0.5-1.1-1.1-1.3-1.7c-0.7-0.9-1-2.3-0.6-3.3c0.5-2,2.2-3.2,3.1-5
			c0.6-1.3,2-2.8,3.6-2.6c1.7,0.1,2.9,0.8,4.1,1.6c0,0,0.1,0.1,0.1,0.1c4.9,7,9.7,14.1,14.3,21.4C51.6,86,46.5,79.2,41.4,72.3
			c0,0,0.2,0.2,0.2,0.2c-2.1-1.3-4-2-5.2,0.6c-1,2.1-4.4,4.3-2.7,6.7C36.4,83.7,38.9,87.9,41.2,92L41.2,92z"/>
	</g>
	<g>
		<path class="st6" d="M45.1,74.5c-2-4-3.7-8-5.5-12c-0.2-0.5-0.5-1.1-0.7-1.6c-0.3-1-0.4-1.8-0.3-2.8c0.1-1,0.8-1.9,1.5-2.6
			c2-1.5,3.5-2.5,5.4-4c1-0.7,2.2-1.3,3.8-1.1c2.7,0.6,3.4,3.8,4,6.1c0,0,0.8,3.2,0.8,3.2c1.1,4.3,2.1,8.6,2.4,13.1
			c-1.9-4.1-3-8.3-4.1-12.6l-0.8-3.2c-0.4-1.6-0.9-4.2-2.6-4.7c-1.8-0.2-3.4,1.7-5,2.8c-1.4,1-2.7,1.5-3.5,2.8
			c-0.4,0.7-0.2,1.9,0,2.6C42.1,65,43.7,69.8,45.1,74.5L45.1,74.5z"/>
	</g>
	<g>
		<path class="st6" d="M60,97c-2-13-4-27.6-5.7-40.8c-0.1-0.4-0.2-1.2-0.1-1.6c0.1-1.5-0.1-3,0.4-4.5c1.4-3,4.6-3.7,7.5-3.5
			c0,0,3.5,0,3.5,0c3.9,0,6.4,3,5.8,6.8c-1.4,13.7-3,28.7-4.9,42.3c0.6-13.7,1.7-28.8,2.8-42.5c0.5-5-3.6-4.4-7.1-4.4
			c-2.3-0.1-4.6,0.2-5.8,2.1c-0.3,1.1-0.2,2.8-0.3,3.9c0,0,0,0.5,0,0.5c-0.1,0.4,0.1,1,0.1,1.3C57.5,69.6,59,83.9,60,97L60,97z"/>
	</g>
	<g>
		<path class="st6" d="M77.7,80.7c1.6-4.6,3.6-9.6,5.4-14.2c0.5-1.3,1.3-3.4,1.9-4.6c0.7-1.3,0.3-2.5-0.9-3.5c0,0-3.8-3.3-3.8-3.3
			s-0.9-0.8-0.9-0.8c-0.6-0.5-1.9-0.9-2.6-0.7c-1.1,0.6-1.5,2.5-2.4,3.7c-0.9,2.6-3.1,7.7-4.8,11c0.8-4,2-7.9,3.3-11.8
			c0.4-0.7,0.8-1.5,1.2-2.3c0.5-0.9,1-1.8,2.1-2.3c1.7-0.5,3.2,0,4.5,1c0.9,0.8,1.9,1.7,2.9,2.5c1.3,1.2,3,2.2,3.5,4.2
			c0.5,1.9-1,3.7-1.6,5.3C82.9,70.1,80.3,75.7,77.7,80.7L77.7,80.7z"/>
	</g>
	<g>
		<path class="st6" d="M84.2,89.7c2.3-3.4,4.7-6.7,7.1-9.9c0.4-0.6,0.8-1.4,1-2c0.1-0.4,0.1-0.7-0.1-1c-0.6-1.1-2.4-2.2-3.3-3.3
			c-3.7-3.8-5.2,0.4-7.2,3.2c-3.6,5.4-7.4,10.8-11.3,16.1c3.2-5.7,6.6-11.4,10-16.9c1.5-2.2,3.1-6.2,6.5-5.5c1.9,0.3,3,1.9,4.3,3.1
			c0.8,0.7,1.8,1.4,2.4,2.6c1.1,2.4-1.2,4.7-2.6,6.4C88.7,84.9,86.5,87.3,84.2,89.7L84.2,89.7z"/>
	</g>
	<g>
		<path class="st6" d="M69.6,102.4c5.2-4.6,10.4-9,15.7-13.4c1.5-1.3,3.1-2.5,4.9-3.4c2.8-0.8,5,1.5,6.9,3.1
			c2.8,2.2,3.1,5.7,0.1,7.8c-5.6,3.5-11.3,7-17.2,10.2c5.3-4,10.8-7.8,16.3-11.5c2-1.5,1.8-3.4-0.3-5.1c-1.5-1.2-2.9-3-4.9-3
			c-0.4,0-0.5,0.1-0.9,0.3c-1.5,0.8-2.9,1.8-4.2,2.8C80.7,94.3,75.2,98.4,69.6,102.4L69.6,102.4z"/>
	</g>
</g>
</svg>
