<?xml version="1.0" encoding="utf-8"?>
<!-- Generator: Adobe Illustrator 26.0.1, SVG Export Plug-In . SVG Version: 6.00 Build 0)  -->
<svg version="1.1" id="Layer_1" xmlns="http://www.w3.org/2000/svg" xmlns:xlink="http://www.w3.org/1999/xlink" x="0px" y="0px"
	 viewBox="0 0 120 140" style="enable-background:new 0 0 120 140;" xml:space="preserve">
<style type="text/css">
	.st0{opacity:0.5;fill:#3488B7;}
	.st1{opacity:0.5;fill:#FFFFFF;}
	.st2{opacity:0.5;fill:#FBB03B;}
	.st3{opacity:0.3;}
	.st4{fill:#DD8228;}
	.st5{opacity:0.8;}
	.st6{fill:#C16417;}
	.st7{fill:#E07514;}
	.st8{fill:#FBB03B;}
	.st9{fill:none;stroke:#FBB03B;stroke-width:0.25;stroke-miterlimit:10;}
	.st10{fill:none;stroke:#FEEACA;stroke-miterlimit:10;}
	.st11{fill:none;stroke:#FBB03B;stroke-width:0.4643;stroke-miterlimit:10;}
</style>
<g>
	<path class="st0" d="M0,5v130c0,2.8,2.2,5,5,5h110c2.8,0,5-2.2,5-5V5c0-2.8-2.2-5-5-5H5C2.3,0,0,2.2,0,5z"/>
	<path class="st1" d="M0.2,46.7c0-0.6,7.8-1.9,8.4-2c13.1-2.3,26.8-1.7,39.7,0.9c6.1,1.2,12.5,2.2,18.8,1.6c3.3-0.3,6.3-1.2,9.3-2.3
		c3-1.1,6.4-1.7,9.7-2.1c2.9-0.4,5.9-0.5,8.8-0.3c4.3,0.3,8,2.1,12.3,2.4c2.1,0.2,4.1,0.2,6.2,0c0.7-0.1,6.6-0.7,6.6-1.3
		c0,0,0.1,3.2,0.1,3.2c-4.9-0.7-10-1.1-14.9-1.3c-4.6-0.2-9.2-0.2-13.8,0.1c-5,0.3-9.7,1.3-14.6,2c-8.9,1.3-18,1.9-27,2
		c-5.3,0.1-10.5-0.7-15.7-1.2c-4.4-0.4-8.8-0.5-13.2-0.7c-4.1-0.1-8.3-0.2-12.4,0c-2.3,0.1-5.9,0.1-7.8,1.3
		c-0.2,0.1-0.4,0.3-0.5,0.4C0.2,49.4,0.2,46.7,0.2,46.7z"/>
	<path class="st1" d="M0.2,45.6c0-0.6,7.8-1.9,8.4-2c13.1-2.3,26.8-1.7,39.7,0.9c6.1,1.2,12.5,2.2,18.8,1.6c3.3-0.3,6.3-1.2,9.3-2.3
		c3-1.1,6.4-1.7,9.7-2.1c2.9-0.4,5.9-0.5,8.8-0.3c4.3,0.3,8,2.1,12.3,2.4c2.1,0.2,4.1,0.2,6.2,0c0.7-0.1,6.6-0.7,6.6-1.3
		c0,0,0.1,3.2,0.1,3.2c-4.9-0.7-10-1.1-14.9-1.3c-4.6-0.2-9.2-0.2-13.8,0.1c-5,0.3-9.7,1.3-14.6,2c-8.9,1.3-18,1.9-27,2
		c-5.3,0.1-10.5-0.7-15.7-1.2c-4.4-0.4-8.8-0.5-13.2-0.7c-4.1-0.1-8.3-0.2-12.4,0c-2.3,0.1-5.9,0.1-7.8,1.3
		c-0.2,0.1-0.4,0.3-0.5,0.4C0.2,48.3,0.2,45.6,0.2,45.6z"/>
	<path class="st1" d="M120.2,70.9c-1.8,0.4-3.5,0.9-5.1,1.5c-4.5,1.7-9,2.9-14,3.4c-9.6,0.9-19.2-0.6-28.4-2.4
		c-19.5-3.8-40-4.8-59.9-1.3c-0.9,0.2-12.8,2.1-12.7,3.1c0,0,0.1,4.1,0.1,4.1C0.4,79,0.7,78.8,1,78.6c2.9-1.8,8.2-1.8,11.7-2
		c6.2-0.3,12.5-0.2,18.7-0.1c6.6,0.2,13.3,0.4,19.9,1c7.9,0.7,15.7,1.9,23.7,1.8c13.6-0.1,27.3-1.1,40.7-3c1.5-0.2,3.1-0.5,4.6-0.7"
		/>
	<path class="st1" d="M120,69.4c-1.7,0.4-3.3,0.9-4.9,1.5c-4.5,1.7-9,2.9-14,3.4c-9.6,0.9-19.2-0.6-28.4-2.4
		c-19.5-3.8-40-4.8-59.9-1.3c-0.9,0.2-12.8,2.1-12.7,3.1c0,0,0.1,4.1,0.1,4.1c0.2-0.3,0.5-0.4,0.8-0.6c2.9-1.8,8.2-1.8,11.7-2
		c6.2-0.3,12.5-0.2,18.7-0.1c6.6,0.2,13.3,0.4,19.9,1C59.1,76.8,67,78,75,77.9c13.6-0.1,27.3-1.1,40.7-3c1.5-0.2,2.9-0.4,4.4-0.7"/>
	<path class="st1" d="M-0.2,11.1c4,0.5,8,1.2,12,2c9.2,1.8,18.8,3.3,28.4,2.4c5-0.5,9.5-1.7,14-3.4c4.5-1.7,9.7-2.5,14.6-3.2
		c4.4-0.6,8.9-0.8,13.3-0.5c6.5,0.5,12.1,3.1,18.6,3.6c3.1,0.2,6.2,0.3,9.4,0c1.1-0.1,9.9-1.1,9.9-2c0,0,0.1,4.8,0.1,4.8
		c-7.4-1.1-15-1.7-22.6-2c-6.9-0.3-13.9-0.3-20.8,0.1c-7.5,0.5-14.7,2-22,3.1c-13.4,1.9-27.1,2.9-40.7,3c-4.8,0-9.5-0.4-14.2-0.8"/>
	<path class="st1" d="M-0.2,10.3c4,0.5,8,1.2,12,2c9.2,1.8,18.8,3.3,28.4,2.4c5-0.5,9.5-1.7,14-3.4c4.5-1.7,9.7-2.5,14.6-3.2
		c4.4-0.6,8.9-0.8,13.3-0.5c6.5,0.5,12.1,3.1,18.6,3.6c3.1,0.2,6.2,0.3,9.4,0c1.1-0.1,9.9-1.1,9.9-2c0,0,0.1,4.8,0.1,4.8
		c-7.4-1.1-15-1.7-22.6-2c-6.9-0.3-13.9-0.3-20.8,0.1c-7.5,0.5-14.7,2-22,3.1c-13.4,1.9-27.1,2.9-40.7,3c-4.8,0-9.5-0.4-14.2-0.8"/>
	<circle class="st1" cx="14.3" cy="8" r="0.9"/>
	<circle class="st1" cx="16.1" cy="2.2" r="1"/>
	<circle class="st1" cx="22.8" cy="3.2" r="1.9"/>
	<circle class="st1" cx="47.2" cy="44.2" r="0.9"/>
	<circle class="st1" cx="43.1" cy="39.8" r="1"/>
	<circle class="st1" cx="47.3" cy="34.4" r="1.9"/>
	<circle class="st1" cx="87.9" cy="57.6" r="1.1"/>
	<circle class="st1" cx="92.7" cy="62.7" r="1.4"/>
	<circle class="st1" cx="87.1" cy="69.1" r="1.6"/>
	<circle class="st1" cx="41.1" cy="100" r="0.9"/>
	<circle class="st1" cx="37.1" cy="95.4" r="1"/>
	<circle class="st1" cx="41.4" cy="90.2" r="1.9"/>
	<circle class="st1" cx="93.7" cy="112.7" r="1.1"/>
	<circle class="st1" cx="91.3" cy="106.2" r="1.4"/>
	<circle class="st1" cx="98.9" cy="102.4" r="1.6"/>
	<path class="st2" d="M0,124.2c9.6-5.1,19.5-9.3,29.5-12.5c5.6-1.8,11.2-3.3,16.8-3.9c7.7-0.9,15.5,1.3,23.1,2.6
		c3.6,0.6,7.1,1.4,10.6,3c1.7,0.7,3.3,1.7,4.9,2.8c2.3,1.7,3.9,3.4,6.6,3.2c4.8-0.3,9.5-1.3,14.2-1.1c4.7,0.1,10,0.3,14.3,3.8v13
		c0,2.8-2.2,5-5,5H5c-2.8,0-5-2.2-5-5L0,124.2z"/>
</g>
<g>
	<path class="st3" d="M91.7,116.9l-6.8-1.8l-20.8-6.9c-0.2-0.1-0.5,0-0.6,0.2l-14.2,19.3l-3.3,5.8c-0.3,0.5-1,0.3-1-0.2l-0.3-7.5
		l0-21.2c0-0.2-0.1-0.4-0.3-0.5L22,95.3l-8.3-1.9c-0.5-0.1-0.6-0.8-0.1-1l8.3-2.8l21.3-5c0.3-0.1,0.4-0.3,0.4-0.6l-3.2-23.6
		l-0.5-5.7c0-0.5,0.6-0.8,0.9-0.4l3.7,4.3l18.5,16.9c0.1,0.1,0.3,0.2,0.5,0.1l20.3-7.3l5.4-2.7c0.5-0.2,0.9,0.3,0.7,0.7l-4.1,6.7
		L75.2,91.7c-0.1,0.2-0.1,0.4,0,0.5l12.6,19.1l4.3,4.6C92.6,116.4,92.2,117,91.7,116.9z"/>
	<path class="st4" d="M89.2,117.9l-6.8-1.8l-20.8-6.9c-0.2-0.1-0.5,0-0.6,0.2l-14.2,19.3l-3.3,5.8c-0.3,0.5-1,0.3-1-0.2l-0.3-7.5
		l0-21.2c0-0.2-0.1-0.4-0.3-0.5l-22.5-8.7l-8.3-1.9c-0.5-0.1-0.6-0.8-0.1-1l8.3-2.8l21.3-5c0.3-0.1,0.4-0.3,0.4-0.6l-3.2-23.6
		l-0.5-5.7c0-0.5,0.6-0.8,0.9-0.4l3.7,4.3l18.5,16.9c0.1,0.1,0.3,0.2,0.5,0.1l20.3-7.3l5.4-2.7c0.5-0.2,0.9,0.3,0.7,0.7l-4.1,6.7
		L72.8,92.7c-0.1,0.2-0.1,0.4,0,0.5l12.6,19.1l4.3,4.6C90.1,117.4,89.7,118,89.2,117.9z"/>
	<g class="st5">
		<path class="st6" d="M43.9,134.1c-0.5-7.7,1.1-15.4,3.3-22.7c2.5-6.7,4.7-13.6,5.3-20.7c0-0.2,0.1-0.9,0.1-1.1
			c0.1-0.4,0.1-0.6,0.5-1c0.2-0.2,0.5-0.3,0.7-0.3l0.2,2.6c-6.9,1.3-13.9,2.2-20.9,2.8c-7,0.5-14,0.3-21.1,0.6c0,0-0.1-0.4-0.1-0.4
			c3.3-1.3,6.8-2.4,10.3-2.9c10.4-1.9,20.9-2.7,31.5-2.6c0,0,0.2,2.6,0.2,2.6c0.3,0,0.9-0.4,1-0.6c0,0,0,0,0-0.1c0-0.1,0,0,0,0
			c0,0,0,0.1,0,0.1c0,0-0.1,0.3-0.1,0.3c-0.1,0.4-0.3,1.1-0.5,1.5c-0.4,1.1-0.7,2.2-1.1,3.3c-1.8,5.5-2.4,11.2-3,16.9
			c-0.5,3.8-1.5,7.5-2.6,11.1c-0.5,1.6-1.2,3.8-1.7,5.4c-0.5,1.8-1.1,3.7-1.7,5.5L43.9,134.1L43.9,134.1z"/>
	</g>
	<g class="st5">
		<path class="st6" d="M88.6,117.1c-1.9,0.1-4,0-5.7-1c-1.8-1.1-3.4-2.2-4.8-3.7c-2.5-3.1-4.7-5.9-8.4-7.6
			c-6.7-3.6-12.8-8.5-16.9-15c0,0,0.3-0.3,0.3-0.3c1.9,0.7,3.6,1.6,5.2,2.5c4.2,2.3,7.7,5.5,11,8.9c1.9,2.1,3.6,4.5,6,6.1
			c1.5,1.1,3.4,1.8,5,2.8c1.7,1,3.2,2.5,4.5,3.9c1.2,1.2,2.7,1.9,4,3.1C88.8,116.7,88.6,117.1,88.6,117.1L88.6,117.1z"/>
	</g>
	<g class="st5">
		<path class="st6" d="M86.5,67.8c-0.8,1.6-1.4,3.3-2.8,4.5c-1.3,1.1-2.7,2.1-4.1,3.1c-2.8,1.9-5.6,3.8-8.6,5.2
			c-5.4,2.3-10.7,4.9-15.3,8.6c-0.5,0.3-1.3,1-1.8,1.3c0,0-0.1,0.1-0.1,0.1s-0.1,0-0.1,0s0,0,0,0c0.2-0.1,0.4-0.3,0.6-0.7
			c0.1-0.4,0-0.8-0.1-0.9l-2.4,1.1c-1.6-2.6-3-5.3-4.5-8c-2.9-5.3-5.3-11-7.4-16.6c-1.2-2.8-1.8-6.1-2-9.2c0-0.1,0.1-0.2,0.2-0.2
			c0.1,0,0.2,0,0.2,0.1c0.7,1.3,1.4,2.8,2,4.1c1.4,2.6,3.3,5.1,4.6,7.8c3.7,6.7,6.6,13.7,9.2,20.9c0,0-2.4,1.1-2.4,1.1
			c-0.1-0.2-0.2-0.6,0-1c0.1-0.4,0.4-0.7,0.6-0.8c0.3-0.1,0.8-0.4,1.1-0.5c2.7-1.2,5.3-2.5,7.8-4.1c2.9-1.7,5.4-4,8.1-6
			c3.4-2.5,7.1-4.5,10.9-6.3c0.5-0.3,1.7-0.8,2.2-1c1.3-0.6,2.4-1.9,3.8-3C86.3,67.4,86.6,67.6,86.5,67.8L86.5,67.8z"/>
	</g>
	<g>
		<path class="st7" d="M86.4,67.7c-0.9,1.5-1.7,3-3,4.2c-1.4,1.1-2.8,1.9-4.2,2.8c-2.8,1.8-5.6,3.6-8.6,5.2
			c-5.2,2.7-10.4,5.5-15.2,8.8c-0.6,0.4-1.5,1-2,1.4c0.2-0.1,0.4-0.6,0.2-0.8c0,0-1.2,0.6-1.2,0.6c-4.3-8-8.2-16.3-11.8-24.6
			c-1.3-2.7-2-5.8-2.6-8.8c0,0,0.2-0.1,0.2-0.1c0.6,1.4,1.1,2.9,1.7,4.2c1.2,2.7,3,5.3,4.2,8c3.4,6.8,6.5,13.7,9.4,20.7
			c0,0-1.2,0.6-1.2,0.6c-0.1-0.3,0-0.8,0.3-0.9c0.6-0.3,1.6-0.8,2.2-1.1c5.2-2.7,10.1-5.9,14.9-9.3c4.1-2.8,8.6-5.2,13-7.6
			c1.3-0.8,2.3-2.2,3.5-3.4C86.2,67.6,86.4,67.7,86.4,67.7L86.4,67.7z"/>
	</g>
	<g>
		<path class="st7" d="M86.4,67.7c-0.9,1.5-1.7,3-3,4.2c-1.4,1.1-2.8,1.9-4.2,2.8c-2.8,1.8-5.6,3.6-8.6,5.2
			c-5.2,2.7-10.4,5.5-15.2,8.8c-0.6,0.4-1.5,1-2,1.4c0.2-0.1,0.4-0.6,0.2-0.8c0,0-1.2,0.6-1.2,0.6c-4.3-8-8.2-16.3-11.8-24.6
			c-1.3-2.7-2-5.8-2.6-8.8c0,0,0.2-0.1,0.2-0.1c0.6,1.4,1.1,2.9,1.7,4.2c1.2,2.7,3,5.3,4.2,8c3.4,6.8,6.5,13.7,9.4,20.7
			c0,0-1.2,0.6-1.2,0.6c-0.1-0.3,0-0.8,0.3-0.9c0.6-0.3,1.6-0.8,2.2-1.1c5.2-2.7,10.1-5.9,14.9-9.3c4.1-2.8,8.6-5.2,13-7.6
			c1.3-0.8,2.3-2.2,3.5-3.4C86.2,67.6,86.4,67.7,86.4,67.7L86.4,67.7z"/>
	</g>
	<g>
		<path class="st7" d="M43.2,133.2c0.3-14.1,6.3-27.2,8.6-41c0.2-0.9,0.2-1.9,0.5-2.8c0-0.2,0.3-0.5,0.6-0.5c0,0,0.1,1.3,0.1,1.3
			c-3.4,0.5-6.8,0.9-10.2,1.3c-3,0.4-7.3,0.8-10.2,1c-6.8,0.6-13.7,0.6-20.5,1.5c0,0,0-0.2,0-0.2c3.3-1,6.7-1.8,10.1-2.2
			c6.7-0.9,13.7-1.6,20.5-2.1c3.4-0.3,6.8-0.5,10.3-0.6l0.1,1.3c0.1,0,0.2,0,0.3-0.1c0.1-0.1,0.2-0.2,0.1-0.2c0,0,0,0,0,0
			c-0.1,0.2-0.2,0.9-0.3,1.1c-0.2,0.9-0.8,3.1-1.1,4.1c-1.5,5.4-2.4,10.9-3.4,16.4c-1,5.5-2.6,10.9-4,16.3c-0.4,1.8-0.8,3.6-1.3,5.4
			C43.4,133.2,43.2,133.2,43.2,133.2L43.2,133.2z"/>
	</g>
	<g>
		<path class="st7" d="M88.7,117c-1.9-0.3-3.9-0.6-5.6-1.8c-3.2-2.1-5.7-4.9-8.5-7.5c-4.4-3.6-9.3-6.4-13.6-10.1
			c-2.9-2.5-5.6-5-8.1-7.9c0,0,0.1-0.2,0.1-0.2c5,2.8,9.4,6.3,13.7,10.1c2.9,2.4,5.3,5.4,8.4,7.6c3.1,2.1,6.4,4.1,9,6.8
			c1.2,1.2,3.1,1.8,4.7,2.8L88.7,117L88.7,117z"/>
	</g>
	<g>
		<path class="st8" d="M86.3,67.7c-1,1.3-1.9,2.8-3.3,3.8c-1.4,0.9-2.9,1.8-4.3,2.6c-2.9,1.7-5.7,3.5-8.6,5.2
			c-4.8,2.8-12,7.2-16.7,10c-0.1,0.1-0.4,0.2-0.5,0.3c0,0,0-0.1,0-0.1l-0.1,0.1l-7.8-16.5c-2.4-5.5-5.7-10.9-6.9-16.8
			c1.4,6,4.7,11.2,7.2,16.7c0,0,7.7,16.5,7.7,16.5s-0.1,0.1-0.1,0.1c0-0.1,0.2-0.2,0.3-0.3c0.2-0.1,0.6-0.4,0.8-0.5
			c4.4-2.6,11.7-7,16.1-9.7c2.9-1.8,5.7-3.5,8.6-5.2c1.4-0.9,2.9-1.7,4.3-2.6C84.4,70.4,85.2,68.9,86.3,67.7L86.3,67.7z"/>
	</g>
	<g>
		<path class="st8" d="M43.3,133.2c0.8-7.4,2.8-14.6,4.5-21.9c1.4-6.1,3.7-15.3,4.9-21.4c0,0,0-0.2,0-0.2c0,0,0-0.1,0-0.1
			c0,0,0-0.1,0.1-0.1c0.4,0.4-20.5,2-20.5,2.1c-6,0.6-14.6,1-20.4,2.3c5.7-1.4,14.4-2,20.4-2.6c0,0,20.5-1.9,20.5-1.9s0,0.2,0,0.2
			c0.1,0,0,0.1,0,0.1l0,0.2c-1.3,6-3.5,15.3-4.9,21.4C46.4,118.6,44.3,125.9,43.3,133.2L43.3,133.2z"/>
	</g>
	<path class="st9" d="M88.7,116.9c-1.6-0.6-3.5-1.1-4.9-2.1c-0.4-0.3-0.7-0.6-1.1-0.9c-1.3-1.1-2.7-2.2-4-3.3
		c-4-3.2-7.9-6.5-11.9-9.7c-3.6-3-7.3-5.9-10.9-8.9c-1-0.8-2-1.6-3-2.4"/>
	<g>
		<g>
			<path class="st10" d="M53.3,76.2"/>
		</g>
	</g>
	<g>
		<g>
			<path class="st10" d="M53.6,76.1"/>
		</g>
	</g>
	<g>
		<g>
			<path class="st10" d="M62,69.1"/>
		</g>
	</g>
	<g>
		<g>
			<path class="st10" d="M52.8,72.7"/>
		</g>
	</g>
	<circle class="st9" cx="53.6" cy="85.2" r="0.4"/>
	<circle class="st9" cx="54.1" cy="86.6" r="0.6"/>
	<circle class="st9" cx="52.9" cy="89.6" r="0.6"/>
	<circle class="st11" cx="52.9" cy="89.6" r="1.1"/>
	<circle class="st9" cx="54.8" cy="85.3" r="0.2"/>
	<circle class="st9" cx="57.9" cy="85.1" r="0.2"/>
	<circle class="st9" cx="56.8" cy="85.6" r="0.3"/>
	<circle class="st9" cx="55.3" cy="84.5" r="0.2"/>
	<circle class="st9" cx="52.6" cy="82.9" r="0.2"/>
	<circle class="st9" cx="55.6" cy="86.1" r="0.4"/>
	<circle class="st9" cx="53.1" cy="84" r="0.4"/>
	<circle class="st9" cx="59.4" cy="76.5" r="0.4"/>
	<circle class="st9" cx="60.8" cy="77.5" r="0.6"/>
	<circle class="st9" cx="65.2" cy="75.7" r="0.2"/>
	<circle class="st9" cx="63.9" cy="76.3" r="0.3"/>
	<circle class="st9" cx="57.5" cy="74.6" r="0.2"/>
	<circle class="st9" cx="62.5" cy="76.9" r="0.4"/>
	<circle class="st9" cx="58.4" cy="75.5" r="0.4"/>
	<circle class="st9" cx="72.5" cy="91.7" r="0.4"/>
	<circle class="st9" cx="71.8" cy="93.3" r="0.6"/>
	<circle class="st9" cx="74.5" cy="97.2" r="0.2"/>
	<circle class="st9" cx="73.7" cy="96.1" r="0.3"/>
	<circle class="st9" cx="73.9" cy="89.5" r="0.2"/>
	<circle class="st9" cx="72.8" cy="94.8" r="0.4"/>
	<circle class="st9" cx="73.2" cy="90.5" r="0.4"/>
	<circle class="st9" cx="40.2" cy="86.6" r="0.4"/>
	<circle class="st9" cx="41.8" cy="85.9" r="0.6"/>
	<circle class="st9" cx="41.4" cy="81.4" r="0.2"/>
	<circle class="st9" cx="41.6" cy="82.7" r="0.3"/>
	<circle class="st9" cx="37.6" cy="87.2" r="0.2"/>
	<circle class="st9" cx="41.8" cy="84.2" r="0.4"/>
	<circle class="st9" cx="38.8" cy="87" r="0.4"/>
	<circle class="st9" cx="43.3" cy="106.3" r="0.4"/>
	<circle class="st9" cx="43" cy="104.6" r="0.6"/>
	<circle class="st9" cx="38.7" cy="102.8" r="0.2"/>
	<circle class="st9" cx="39.9" cy="103.3" r="0.3"/>
	<circle class="st9" cx="43.3" cy="109" r="0.2"/>
	<circle class="st9" cx="41.4" cy="103.9" r="0.4"/>
	<circle class="st9" cx="43.4" cy="107.7" r="0.4"/>
	<circle class="st9" cx="62.7" cy="108.4" r="0.4"/>
	<circle class="st9" cx="60.9" cy="108.2" r="0.6"/>
	<circle class="st9" cx="57.9" cy="111.8" r="0.2"/>
	<circle class="st9" cx="58.8" cy="110.7" r="0.3"/>
	<circle class="st9" cx="65.2" cy="109.2" r="0.2"/>
	<circle class="st9" cx="59.8" cy="109.5" r="0.4"/>
	<circle class="st9" cx="64" cy="108.8" r="0.4"/>
	<circle class="st9" cx="57.1" cy="88.9" r="0.4"/>
	<circle class="st9" cx="56" cy="89.9" r="0.6"/>
	<circle class="st9" cx="57.7" cy="89.8" r="0.2"/>
	<circle class="st9" cx="59.5" cy="91.9" r="0.2"/>
	<circle class="st9" cx="58.5" cy="91.3" r="0.3"/>
	<circle class="st9" cx="58.8" cy="89.8" r="0.2"/>
	<circle class="st9" cx="59.2" cy="87.3" r="0.2"/>
	<circle class="st9" cx="57.3" cy="90.7" r="0.4"/>
	<circle class="st9" cx="58.2" cy="88.1" r="0.4"/>
	<circle class="st9" cx="47.7" cy="87.6" r="0.4"/>
	<circle class="st9" cx="49.2" cy="87.5" r="0.6"/>
	<circle class="st9" cx="47.7" cy="86.6" r="0.2"/>
	<circle class="st9" cx="47.4" cy="83.8" r="0.2"/>
	<circle class="st9" cx="47.9" cy="84.9" r="0.3"/>
	<circle class="st9" cx="46.8" cy="86" r="0.2"/>
	<circle class="st9" cx="45.1" cy="87.8" r="0.2"/>
	<circle class="st9" cx="48.6" cy="86.1" r="0.4"/>
	<circle class="st9" cx="46.4" cy="87.7" r="0.4"/>
	<circle class="st9" cx="55.7" cy="94.9" r="0.4"/>
	<circle class="st9" cx="54.6" cy="94" r="0.6"/>
	<circle class="st9" cx="54.9" cy="95.6" r="0.2"/>
	<circle class="st9" cx="53.2" cy="97.8" r="0.2"/>
	<circle class="st9" cx="53.6" cy="96.7" r="0.3"/>
	<circle class="st9" cx="55.2" cy="96.7" r="0.2"/>
	<circle class="st9" cx="57.7" cy="96.6" r="0.2"/>
	<circle class="st9" cx="54" cy="95.4" r="0.4"/>
	<circle class="st9" cx="56.7" cy="95.8" r="0.4"/>
	<circle class="st9" cx="50.7" cy="93.9" r="0.4"/>
	<circle class="st9" cx="50.7" cy="92.3" r="0.6"/>
	<circle class="st9" cx="49.7" cy="93.3" r="0.2"/>
	<circle class="st9" cx="46.3" cy="92.7" r="0.2"/>
	<circle class="st9" cx="47.6" cy="92.5" r="0.3"/>
	<circle class="st9" cx="48.9" cy="94.1" r="0.2"/>
	<circle class="st9" cx="50.1" cy="96.4" r="0.2"/>
	<circle class="st9" cx="49" cy="92.3" r="0.4"/>
	<circle class="st9" cx="50.4" cy="95.1" r="0.4"/>
</g>
</svg>
