<svg xmlns="http://www.w3.org/2000/svg" viewBox="0 0 84.71 96"><defs><style>.cls-1,.cls-11,.cls-3,.cls-4,.cls-6,.cls-7,.cls-8{fill:#70db7c;}.cls-2,.cls-9{fill:#284f2d;}.cls-3,.cls-4,.cls-7{stroke:#70db7c;}.cls-3,.cls-4,.cls-5,.cls-6,.cls-7,.cls-8{stroke-miterlimit:10;}.cls-3{stroke-width:0.35px;}.cls-4{stroke-width:0.37px;}.cls-5{fill:none;}.cls-5,.cls-6{stroke:#3c7643;stroke-width:0.26px;}.cls-7{stroke-width:0.75px;}.cls-8{stroke:#284f2d;stroke-linecap:round;stroke-width:0.25px;}.cls-11,.cls-9{font-size:12px;font-family:MostraNuova-Bold, Mostra Nuova;font-weight:700;}.cls-10{letter-spacing:-0.02em;}.cls-12{letter-spacing:-0.03em;}.cls-13{letter-spacing:-0.05em;}</style></defs><g id="Layer_2" data-name="Layer 2"><g id="black_green" data-name="black&amp;green"><rect class="cls-1" x="15.63" width="24" height="83"/><rect class="cls-2" x="15.63" y="60" width="24" height="23"/><rect class="cls-1" x="45.63" width="24" height="83"/><rect class="cls-2" x="45.63" y="71" width="24" height="12"/><circle class="cls-3" cx="78.78" cy="46.32" r="3.31"/><path class="cls-4" d="M79,49.63h0a5.58,5.58,0,0,1,5.58,5.58v8.54a0,0,0,0,1,0,0H73.37a0,0,0,0,1,0,0V55.2A5.58,5.58,0,0,1,79,49.63Z"/><polyline class="cls-4" points="84.53 62.15 84.53 63.74 73.38 63.74 73.38 62.1"/><rect class="cls-3" x="75.64" y="64.09" width="2.79" height="10.11"/><rect class="cls-3" x="79.47" y="64.09" width="2.79" height="10.11"/><line class="cls-5" x1="82.96" y1="64.45" x2="82.96" y2="53.97"/><line class="cls-6" x1="74.94" y1="64.45" x2="74.94" y2="53.97"/><circle class="cls-3" cx="5.78" cy="44.32" r="3.31"/><path class="cls-7" d="M11.53,64H.38V53.16c0-3.94,2.13-5.53,4.76-5.53H6.76c2.63,0,4.87,1.59,4.77,5.53Z"/><rect class="cls-3" x="2.64" y="63.09" width="2.79" height="10.11"/><rect class="cls-3" x="6.47" y="63.09" width="2.79" height="10.11"/><line class="cls-8" x1="1.12" y1="64.28" x2="2.78" y2="53.37"/><line class="cls-8" x1="10.82" y1="64.27" x2="9.08" y2="53.37"/><text class="cls-9" transform="translate(30.2 92.82)">l<tspan class="cls-10" x="2.74" y="0">ow</tspan><tspan x="15.73" y="0">er</tspan></text><text class="cls-11" transform="translate(16.44 74.56)"><tspan xml:space="preserve"> 2</tspan><tspan class="cls-12" x="7.82" y="0">3</tspan><tspan x="12.14" y="0">%</tspan></text><text class="cls-11" transform="translate(46.44 80.56)"><tspan xml:space="preserve"> 1</tspan><tspan class="cls-13" x="6.67" y="0">2</tspan><tspan x="10.78" y="0">%</tspan></text></g></g></svg>