<svg xmlns="http://www.w3.org/2000/svg" viewBox="0 0 164.36 113.47"><defs><style>.cls-1,.cls-18,.cls-19,.cls-3,.cls-6{fill:#f7824d;}.cls-1{stroke:#f7824d;}.cls-1,.cls-10,.cls-11,.cls-12,.cls-13,.cls-14,.cls-15,.cls-16,.cls-17,.cls-2,.cls-8,.cls-9{stroke-miterlimit:10;}.cls-1,.cls-10,.cls-11,.cls-12,.cls-13,.cls-14,.cls-15,.cls-16,.cls-17,.cls-8,.cls-9{stroke-width:0.83px;}.cls-10,.cls-11,.cls-12,.cls-13,.cls-14,.cls-15,.cls-16,.cls-17,.cls-2,.cls-8,.cls-9{fill:none;stroke:#6b3821;}.cls-2{stroke-width:1.68px;}.cls-18,.cls-19,.cls-3,.cls-6{font-size:11.59px;}.cls-3,.cls-6{font-family:MostraNuova-Bold, Mostra Nuova;font-weight:700;}.cls-4{letter-spacing:-0.05em;}.cls-5{letter-spacing:-0.06em;}.cls-19,.cls-6{letter-spacing:-0.02em;}.cls-7{letter-spacing:0em;}.cls-9{stroke-dasharray:13.77 3.06;}.cls-10{stroke-dasharray:13.31 2.96;}.cls-11{stroke-dasharray:13.09 2.91;}.cls-12{stroke-dasharray:13.74 3.05;}.cls-13{stroke-dasharray:11.33 2.52;}.cls-14{stroke-dasharray:14.19 3.15;}.cls-15{stroke-dasharray:9.31 0.52;}.cls-16{stroke-dasharray:7.45 0.41;}.cls-17{stroke-dasharray:14.9 3.31;}.cls-18,.cls-19{font-family:MostraNuova, Mostra Nuova;}.cls-18{letter-spacing:-0.12em;}</style></defs><g id="Layer_2" data-name="Layer 2"><g id="white_oolong" data-name="white&amp;oolong"><circle class="cls-1" cx="81.18" cy="49.41" r="1.66"/><circle class="cls-1" cx="38.96" cy="79.21" r="1.66"/><circle class="cls-1" cx="122.58" cy="19.6" r="1.66"/><circle class="cls-1" cx="102.71" cy="33.68" r="1.66"/><circle class="cls-1" cx="60.48" cy="64.31" r="1.66"/><polyline class="cls-2" points="25.83 11.05 25.83 94.23 164.11 94.23"/><line class="cls-2" x1="22.9" y1="79.58" x2="28.76" y2="79.58"/><line class="cls-2" x1="39.3" y1="97.16" x2="39.3" y2="91.3"/><line class="cls-2" x1="60.39" y1="97.16" x2="60.39" y2="91.3"/><line class="cls-2" x1="81.47" y1="97.16" x2="81.47" y2="91.3"/><line class="cls-2" x1="102.56" y1="97.16" x2="102.56" y2="91.3"/><line class="cls-2" x1="122.48" y1="97.16" x2="122.48" y2="91.3"/><line class="cls-2" x1="22.9" y1="64.35" x2="28.76" y2="64.35"/><line class="cls-2" x1="22.9" y1="49.12" x2="28.76" y2="49.12"/><line class="cls-2" x1="22.9" y1="33.89" x2="28.76" y2="33.89"/><line class="cls-2" x1="22.9" y1="19.84" x2="28.76" y2="19.84"/><text class="cls-3" transform="translate(11.05 84.13)"><tspan class="cls-4">2</tspan><tspan x="3.96" y="0">%</tspan></text><text class="cls-3" transform="translate(33.97 107.31)">10</text><text class="cls-3" transform="translate(52.72 107.31)">20</text><text class="cls-3" transform="translate(75.1 107.31)">30</text><text class="cls-3" transform="translate(96.45 108.14)">40</text><text class="cls-3" transform="translate(117.31 108.14)">50</text><text class="cls-3" transform="translate(9.83 68.4)"><tspan class="cls-5">4</tspan><tspan x="5.18" y="0">%</tspan></text><text class="cls-3" transform="translate(10.2 52.67)"><tspan class="cls-4">6</tspan><tspan x="4.81" y="0">%</tspan></text><text class="cls-6" transform="translate(8.94 37.76)">8<tspan class="cls-7" x="6.07" y="0">%</tspan></text><text class="cls-3" transform="translate(2.51 24.52)">10%</text><line class="cls-8" x1="32.33" y1="19.6" x2="39.79" y2="19.6"/><line class="cls-9" x1="42.84" y1="19.6" x2="108.63" y2="19.6"/><line class="cls-8" x1="110.16" y1="19.6" x2="117.61" y2="19.6"/><line class="cls-8" x1="122.58" y1="90.39" x2="122.58" y2="82.94"/><line class="cls-10" x1="122.58" y1="79.98" x2="122.58" y2="32.67"/><line class="cls-8" x1="122.58" y1="31.19" x2="122.58" y2="23.74"/><line class="cls-8" x1="32.75" y1="33.68" x2="40.2" y2="33.68"/><line class="cls-11" x1="43.11" y1="33.68" x2="89.66" y2="33.68"/><line class="cls-8" x1="91.12" y1="33.68" x2="98.57" y2="33.68"/><line class="cls-8" x1="102.5" y1="89.36" x2="102.53" y2="81.9"/><line class="cls-12" x1="102.54" y1="78.85" x2="102.67" y2="46.79"/><line class="cls-8" x1="102.68" y1="45.27" x2="102.71" y2="37.82"/><line class="cls-8" x1="31.92" y1="49.41" x2="39.37" y2="49.41"/><line class="cls-13" x1="41.89" y1="49.41" x2="68.33" y2="49.41"/><line class="cls-8" x1="69.59" y1="49.41" x2="77.04" y2="49.41"/><line class="cls-8" x1="81.39" y1="88.94" x2="81.35" y2="81.49"/><line class="cls-14" x1="81.33" y1="78.34" x2="81.23" y2="62.57"/><line class="cls-8" x1="81.23" y1="61" x2="81.18" y2="53.55"/><line class="cls-8" x1="31.09" y1="64.31" x2="38.54" y2="64.31"/><line class="cls-15" x1="39.06" y1="64.31" x2="48.63" y2="64.31"/><line class="cls-8" x1="48.89" y1="64.31" x2="56.34" y2="64.31"/><line class="cls-8" x1="60.48" y1="67.21" x2="60.48" y2="74.66"/><line class="cls-16" x1="60.48" y1="75.07" x2="60.48" y2="82.73"/><line class="cls-8" x1="60.48" y1="82.94" x2="60.48" y2="90.39"/><line class="cls-17" x1="31.09" y1="79.21" x2="35.23" y2="79.21"/><line class="cls-17" x1="38.96" y1="89.56" x2="38.96" y2="82.94"/><text class="cls-18" transform="translate(141.55 104.76)">Y<tspan class="cls-7" x="4.78" y="0">ears</tspan></text><text class="cls-19" transform="translate(0 9.76)">B<tspan class="cls-7" x="5.18" y="0">one density</tspan></text></g></g></svg>