<svg xmlns="http://www.w3.org/2000/svg" viewBox="0 0 157.57 105.55"><defs><style>.cls-1,.cls-2,.cls-9{fill:#c05c59;}.cls-1,.cls-2,.cls-6{stroke:#c05c59;}.cls-1,.cls-2,.cls-3,.cls-4,.cls-5,.cls-6{stroke-miterlimit:10;}.cls-1{stroke-width:0.59px;}.cls-2{stroke-width:0.63px;}.cls-3{fill:#803e3b;stroke:#803e3b;stroke-width:0.45px;}.cls-4,.cls-6{fill:none;}.cls-4,.cls-5{stroke:#411f1e;}.cls-4{stroke-width:3.81px;}.cls-5,.cls-7,.cls-8{fill:#411f1e;}.cls-5{stroke-width:0.61px;}.cls-6{stroke-width:0.66px;}.cls-7,.cls-9{font-size:14px;}.cls-7,.cls-8,.cls-9{font-family:MostraNuova-Bold, Mostra Nuova;font-weight:700;}.cls-8{font-size:22px;}.cls-10{letter-spacing:-0.02em;}.cls-11{letter-spacing:-0.01em;}</style></defs><g id="Layer_2" data-name="Layer 2"><g id="black_green" data-name="black&amp;green"><circle class="cls-1" cx="9.52" cy="5.94" r="5.64"/><path class="cls-2" d="M9.56,11.58h.5a9.25,9.25,0,0,1,9.25,9.25v14.8a0,0,0,0,1,0,0H.31a0,0,0,0,1,0,0V20.83a9.25,9.25,0,0,1,9.25-9.25Z"/><polyline class="cls-2" points="19.31 32.9 19.31 35.63 0.31 35.63 0.31 32.82"/><rect class="cls-1" x="4.17" y="36.22" width="4.75" height="17.22"/><rect class="cls-1" x="10.7" y="36.22" width="4.75" height="17.22"/><line class="cls-3" x1="16.64" y1="36.83" x2="16.64" y2="18.98"/><line class="cls-3" x1="2.99" y1="36.83" x2="2.99" y2="18.98"/><line class="cls-3" x1="24.72" y1="36.82" x2="24.72" y2="18.97"/><line class="cls-4" x1="57.63" y1="63.13" x2="79.2" y2="63.13"/><line class="cls-4" x1="57.63" y1="72.01" x2="79.2" y2="72.01"/><ellipse class="cls-5" cx="67.93" cy="17.34" rx="8.22" ry="2.3"/><ellipse class="cls-6" cx="67.93" cy="16.36" rx="9.2" ry="3.94"/><path class="cls-6" d="M77.13,16.36s-.65,9.2-4.6,12.48h-9.2c-3.94-3.28-4.6-12.48-4.6-12.48"/><path class="cls-6" d="M62.68,28.19s-1.32.65,0,1H73.26c1.32-.33,0-1,0-1"/><ellipse class="cls-5" cx="89.93" cy="17.34" rx="8.22" ry="2.3"/><ellipse class="cls-6" cx="89.93" cy="16.36" rx="9.2" ry="3.94"/><path class="cls-6" d="M99.13,16.36s-.65,9.2-4.6,12.48h-9.2c-3.94-3.28-4.6-12.48-4.6-12.48"/><path class="cls-6" d="M84.68,28.19s-1.32.65,0,1H95.26c1.32-.33,0-1,0-1"/><ellipse class="cls-5" cx="78.93" cy="37.34" rx="8.22" ry="2.3"/><ellipse class="cls-6" cx="78.93" cy="36.36" rx="9.2" ry="3.94"/><path class="cls-6" d="M88.13,36.36s-.65,9.2-4.6,12.48h-9.2c-3.94-3.28-4.6-12.48-4.6-12.48"/><path class="cls-6" d="M73.68,48.19s-1.32.65,0,1H84.26c1.32-.33,0-1,0-1"/><text class="cls-7" transform="translate(106.98 27.03)">daily for <tspan x="0" y="16.8">6 months</tspan></text><text class="cls-8" transform="translate(34.47 39.17)">+</text><text class="cls-9" transform="translate(10.65 95.74)">L<tspan class="cls-10" x="6.44" y="0">ow</tspan><tspan x="21.6" y="0">er Blood </tspan><tspan class="cls-11" x="74.37" y="0">Pr</tspan><tspan x="85.73" y="0">essu</tspan><tspan class="cls-11" x="107.64" y="0">r</tspan><tspan x="111.56" y="0">e</tspan></text></g></g></svg>