<svg xmlns="http://www.w3.org/2000/svg" viewBox="0 0 268.89 81.07"><defs><style>.cls-1,.cls-2,.cls-4,.cls-8{fill:#70db7c;}.cls-1,.cls-14,.cls-2{stroke:#70db7c;}.cls-1,.cls-14,.cls-15,.cls-2,.cls-3,.cls-4,.cls-5{stroke-miterlimit:10;}.cls-1{stroke-width:0.35px;}.cls-2{stroke-width:0.37px;}.cls-14,.cls-3,.cls-5{fill:none;}.cls-3,.cls-4{stroke:#3c7643;stroke-width:0.26px;}.cls-15,.cls-5{stroke:#284f2d;}.cls-5{stroke-width:3.57px;}.cls-6{font-size:20.62px;font-family:MostraNuova-Bold, Mostra Nuova;font-weight:700;}.cls-10,.cls-15,.cls-6{fill:#284f2d;}.cls-7{letter-spacing:-0.06em;}.cls-8{font-size:14.06px;font-weight:400;}.cls-10,.cls-8{font-family:MostraNuova, Mostra Nuova;}.cls-9{letter-spacing:-0.01em;}.cls-10{font-size:14px;}.cls-11{letter-spacing:-0.02em;}.cls-12{letter-spacing:-0.01em;}.cls-13{letter-spacing:-0.02em;}.cls-14{stroke-width:1.27px;}.cls-15{stroke-width:1.19px;}</style></defs><g id="Layer_2" data-name="Layer 2"><g id="black_green" data-name="black&amp;green"><circle class="cls-1" cx="5.56" cy="3.47" r="3.3"/><path class="cls-2" d="M5.73,6.77h0a5.55,5.55,0,0,1,5.55,5.55v8.5a0,0,0,0,1,0,0H.18a0,0,0,0,1,0,0v-8.5A5.55,5.55,0,0,1,5.73,6.77Z"/><polyline class="cls-2" points="11.29 19.23 11.29 20.82 0.18 20.82 0.18 19.18"/><rect class="cls-1" x="2.44" y="21.16" width="2.78" height="10.06"/><rect class="cls-1" x="6.26" y="21.16" width="2.78" height="10.06"/><line class="cls-3" x1="9.72" y1="21.52" x2="9.72" y2="11.09"/><line class="cls-4" x1="1.74" y1="21.52" x2="1.74" y2="11.09"/><circle class="cls-1" cx="19" cy="3.47" r="3.3"/><path class="cls-2" d="M19.17,6.77h0a5.55,5.55,0,0,1,5.55,5.55v8.5a0,0,0,0,1,0,0H13.62a0,0,0,0,1,0,0v-8.5A5.55,5.55,0,0,1,19.17,6.77Z"/><polyline class="cls-2" points="24.73 19.23 24.73 20.82 13.62 20.82 13.62 19.18"/><rect class="cls-1" x="15.88" y="21.16" width="2.78" height="10.06"/><rect class="cls-1" x="19.69" y="21.16" width="2.78" height="10.06"/><line class="cls-3" x1="23.16" y1="21.52" x2="23.16" y2="11.09"/><line class="cls-4" x1="15.18" y1="21.52" x2="15.18" y2="11.09"/><circle class="cls-1" cx="32.44" cy="3.47" r="3.3"/><path class="cls-2" d="M32.61,6.77h0a5.55,5.55,0,0,1,5.55,5.55v8.5a0,0,0,0,1,0,0H27.06a0,0,0,0,1,0,0v-8.5A5.55,5.55,0,0,1,32.61,6.77Z"/><polyline class="cls-2" points="38.17 19.23 38.17 20.82 27.06 20.82 27.06 19.18"/><rect class="cls-1" x="29.32" y="21.16" width="2.78" height="10.06"/><rect class="cls-1" x="33.13" y="21.16" width="2.78" height="10.06"/><line class="cls-3" x1="36.6" y1="21.52" x2="36.6" y2="11.09"/><line class="cls-4" x1="28.62" y1="21.52" x2="28.62" y2="11.09"/><circle class="cls-1" cx="45.88" cy="3.47" r="3.3"/><path class="cls-2" d="M46.05,6.77h0a5.55,5.55,0,0,1,5.55,5.55v8.5a0,0,0,0,1,0,0H40.5a0,0,0,0,1,0,0v-8.5a5.55,5.55,0,0,1,5.55-5.55Z"/><polyline class="cls-2" points="51.61 19.23 51.61 20.82 40.5 20.82 40.5 19.18"/><rect class="cls-1" x="42.76" y="21.16" width="2.78" height="10.06"/><rect class="cls-1" x="46.57" y="21.16" width="2.78" height="10.06"/><line class="cls-3" x1="50.04" y1="21.52" x2="50.04" y2="11.09"/><line class="cls-4" x1="42.06" y1="21.52" x2="42.06" y2="11.09"/><circle class="cls-1" cx="59.32" cy="3.47" r="3.3"/><path class="cls-2" d="M59.49,6.77h0A5.55,5.55,0,0,1,65,12.32v8.5a0,0,0,0,1,0,0H53.94a0,0,0,0,1,0,0v-8.5A5.55,5.55,0,0,1,59.49,6.77Z"/><polyline class="cls-2" points="65.05 19.23 65.05 20.82 53.94 20.82 53.94 19.18"/><rect class="cls-1" x="56.2" y="21.16" width="2.78" height="10.06"/><rect class="cls-1" x="60.01" y="21.16" width="2.78" height="10.06"/><line class="cls-3" x1="63.48" y1="21.52" x2="63.48" y2="11.09"/><line class="cls-4" x1="55.5" y1="21.52" x2="55.5" y2="11.09"/><circle class="cls-1" cx="11.4" cy="32.1" r="3.3"/><path class="cls-2" d="M11.58,35.4h0a5.55,5.55,0,0,1,5.55,5.55v8.5a0,0,0,0,1,0,0H6a0,0,0,0,1,0,0v-8.5A5.55,5.55,0,0,1,11.58,35.4Z"/><polyline class="cls-2" points="17.13 47.86 17.13 49.45 6.03 49.45 6.03 47.81"/><rect class="cls-1" x="8.28" y="49.8" width="2.78" height="10.06"/><rect class="cls-1" x="12.1" y="49.8" width="2.78" height="10.06"/><line class="cls-3" x1="15.57" y1="50.16" x2="15.57" y2="39.72"/><line class="cls-4" x1="7.59" y1="50.16" x2="7.59" y2="39.72"/><circle class="cls-1" cx="24.84" cy="32.1" r="3.3"/><path class="cls-2" d="M25,35.4h0a5.55,5.55,0,0,1,5.55,5.55v8.5a0,0,0,0,1,0,0H19.47a0,0,0,0,1,0,0v-8.5A5.55,5.55,0,0,1,25,35.4Z"/><polyline class="cls-2" points="30.57 47.86 30.57 49.45 19.47 49.45 19.47 47.81"/><rect class="cls-1" x="21.72" y="49.8" width="2.78" height="10.06"/><rect class="cls-1" x="25.54" y="49.8" width="2.78" height="10.06"/><line class="cls-3" x1="29.01" y1="50.16" x2="29.01" y2="39.72"/><line class="cls-4" x1="21.03" y1="50.16" x2="21.03" y2="39.72"/><circle class="cls-1" cx="38.28" cy="32.1" r="3.3"/><path class="cls-2" d="M38.46,35.4h0A5.55,5.55,0,0,1,44,40.95v8.5a0,0,0,0,1,0,0H32.91a0,0,0,0,1,0,0v-8.5A5.55,5.55,0,0,1,38.46,35.4Z"/><polyline class="cls-2" points="44.01 47.86 44.01 49.45 32.91 49.45 32.91 47.81"/><rect class="cls-1" x="35.16" y="49.8" width="2.78" height="10.06"/><rect class="cls-1" x="38.98" y="49.8" width="2.78" height="10.06"/><line class="cls-3" x1="42.45" y1="50.16" x2="42.45" y2="39.72"/><line class="cls-4" x1="34.47" y1="50.16" x2="34.47" y2="39.72"/><circle class="cls-1" cx="51.72" cy="32.1" r="3.3"/><path class="cls-2" d="M51.9,35.4h0a5.55,5.55,0,0,1,5.55,5.55v8.5a0,0,0,0,1,0,0H46.35a0,0,0,0,1,0,0v-8.5A5.55,5.55,0,0,1,51.9,35.4Z"/><polyline class="cls-2" points="57.45 47.86 57.45 49.45 46.35 49.45 46.35 47.81"/><rect class="cls-1" x="48.6" y="49.8" width="2.78" height="10.06"/><rect class="cls-1" x="52.42" y="49.8" width="2.78" height="10.06"/><line class="cls-3" x1="55.89" y1="50.16" x2="55.89" y2="39.72"/><line class="cls-4" x1="47.91" y1="50.16" x2="47.91" y2="39.72"/><circle class="cls-1" cx="65.16" cy="32.1" r="3.3"/><path class="cls-2" d="M65.34,35.4h0a5.55,5.55,0,0,1,5.55,5.55v8.5a0,0,0,0,1,0,0H59.79a0,0,0,0,1,0,0v-8.5a5.55,5.55,0,0,1,5.55-5.55Z"/><polyline class="cls-2" points="70.89 47.86 70.89 49.45 59.79 49.45 59.79 47.81"/><rect class="cls-1" x="62.04" y="49.8" width="2.78" height="10.06"/><rect class="cls-1" x="65.86" y="49.8" width="2.78" height="10.06"/><line class="cls-3" x1="69.33" y1="50.16" x2="69.33" y2="39.72"/><line class="cls-4" x1="61.35" y1="50.16" x2="61.35" y2="39.72"/><line class="cls-5" x1="151.95" y1="23.8" x2="172.17" y2="23.8"/><line class="cls-5" x1="151.95" y1="32.12" x2="172.17" y2="32.12"/><text class="cls-6" transform="translate(182.91 27.34)"><tspan class="cls-7">4</tspan><tspan x="9.21" y="0">% </tspan><tspan class="cls-8"><tspan x="0" y="16.87">burned </tspan><tspan class="cls-9" x="41.76" y="16.87">c</tspan><tspan x="48.2" y="16.87">alories</tspan></tspan></text><text class="cls-10" transform="translate(2.59 78.27)">10 <tspan class="cls-11" x="18.8" y="0">H</tspan><tspan x="26.4" y="0">ealt</tspan><tspan class="cls-12" x="47.49" y="0">h</tspan><tspan x="53.38" y="0">y </tspan><tspan class="cls-13" x="62.34" y="0">M</tspan><tspan x="70.97" y="0">en</tspan></text><text class="cls-6" transform="translate(80.65 35.26)">+</text><path class="cls-14" d="M138.69,17.13S137.41,35,129.77,41.34H111.93C104.29,35,103,17.13,103,17.13"/><ellipse class="cls-15" cx="120.85" cy="19.04" rx="15.93" ry="4.46"/><ellipse class="cls-14" cx="120.85" cy="17.13" rx="17.84" ry="7.64"/><path class="cls-14" d="M110.66,40.06s-2.55,1.28,0,1.91h20.53c2.54-.63,0-1.91,0-1.91"/></g></g></svg>