<svg xmlns="http://www.w3.org/2000/svg" viewBox="0 0 232.65 81.25"><defs><style>.cls-1,.cls-10,.cls-11,.cls-13,.cls-3,.cls-4{fill:#411f1e;}.cls-1,.cls-10,.cls-11,.cls-7{stroke:#411f1e;}.cls-1,.cls-10,.cls-11,.cls-12,.cls-2,.cls-7,.cls-8,.cls-9{stroke-miterlimit:10;}.cls-1{stroke-width:0.61px;}.cls-2,.cls-7{fill:none;}.cls-2,.cls-8,.cls-9{stroke:#c05c59;}.cls-2{stroke-width:0.65px;}.cls-3{font-size:30px;}.cls-13,.cls-16,.cls-3,.cls-4{font-family:MostraNuova-Bold, Mostra Nuova;font-weight:700;}.cls-4{font-size:10.15px;}.cls-5{letter-spacing:-0.04em;}.cls-6{letter-spacing:-0.01em;}.cls-7{stroke-width:3.81px;}.cls-17,.cls-8,.cls-9{fill:#c05c59;}.cls-11,.cls-8{stroke-width:0.59px;}.cls-10,.cls-9{stroke-width:0.63px;}.cls-12{fill:#803e3b;stroke:#803e3b;stroke-width:0.45px;}.cls-13{font-size:20px;}.cls-14,.cls-17{font-size:14px;}.cls-14{font-family:MostraNuova, Mostra Nuova;font-weight:400;}.cls-15{letter-spacing:-0.01em;}</style></defs><g id="Layer_2" data-name="Layer 2"><g id="black_green" data-name="black&amp;green"><ellipse class="cls-1" cx="49.21" cy="24.65" rx="8.09" ry="2.26"/><ellipse class="cls-2" cx="49.21" cy="23.68" rx="9.06" ry="3.88"/><path class="cls-2" d="M58.27,23.68S57.62,32.74,53.74,36H44.68c-3.88-3.23-4.53-12.29-4.53-12.29"/><path class="cls-2" d="M44,35.33s-1.3.64,0,1H54.46c1.29-.33,0-1,0-1"/><text class="cls-3" transform="translate(0 37.18)">5 x</text><text class="cls-4" transform="translate(10.16 49.81)"><tspan class="cls-5">P</tspan><tspan x="5.1" y="0">er </tspan><tspan class="cls-6" x="16.33" y="0">D</tspan><tspan x="22.63" y="0">ay</tspan></text><line class="cls-7" x1="70.98" y1="25.09" x2="92.55" y2="25.09"/><line class="cls-7" x1="70.98" y1="33.98" x2="92.55" y2="33.98"/><circle class="cls-8" cx="118.86" cy="5.94" r="5.64"/><path class="cls-9" d="M118.9,11.58h.5a9.25,9.25,0,0,1,9.25,9.25v14.8a0,0,0,0,1,0,0h-19a0,0,0,0,1,0,0V20.83A9.25,9.25,0,0,1,118.9,11.58Z"/><polyline class="cls-10" points="128.65 32.9 128.65 35.63 109.65 35.63 109.65 32.82"/><rect class="cls-11" x="113.51" y="36.22" width="4.75" height="17.22"/><rect class="cls-11" x="120.04" y="36.22" width="4.75" height="17.22"/><line class="cls-12" x1="126.78" y1="36.8" x2="125.18" y2="19.02"/><line class="cls-12" x1="111.73" y1="36.81" x2="112.92" y2="19"/><text class="cls-13" transform="translate(131.8 44.34)">11%<tspan class="cls-14"><tspan class="cls-15" x="0" y="16.8">r</tspan><tspan x="3.3" y="16.8">eduction of</tspan><tspan class="cls-16" x="65.27" y="16.8"> </tspan></tspan><tspan class="cls-17"><tspan x="0" y="33.6">LDL Choleste</tspan><tspan class="cls-15" x="75.21" y="33.6">r</tspan><tspan x="79.13" y="33.6">ol</tspan></tspan></text></g></g></svg>