<svg xmlns="http://www.w3.org/2000/svg" viewBox="0 0 64.82 68.12"><defs><style>.cls-1{fill:#c05c59;opacity:0.11;}.cls-2{opacity:0.46;}.cls-3,.cls-4,.cls-5,.cls-7{fill:none;}.cls-3,.cls-4,.cls-5,.cls-6,.cls-7{stroke:#c05c59;stroke-miterlimit:10;}.cls-3{stroke-width:1.18px;}.cls-4{stroke-width:0.39px;}.cls-5,.cls-6{stroke-width:0.36px;fill-rule:evenodd;}.cls-6{fill:#803e3b;}.cls-7{stroke-width:0.72px;}</style></defs><g id="Layer_2" data-name="Layer 2"><g id="black_green" data-name="black&amp;green"><path class="cls-1" d="M8.46,30.77a48.68,48.68,0,0,0,1,7.21s.27-.18.26-.27a48.71,48.71,0,0,1-1-7.2S8.45,30.67,8.46,30.77Z"/><path class="cls-1" d="M8.47,30.84a47.39,47.39,0,0,0,1,7.21c0-.06.24-.2.22-.3a50.08,50.08,0,0,1-1-7.2C8.71,30.61,8.46,30.73,8.47,30.84Z"/><path class="cls-1" d="M8.43,30.73a49,49,0,0,0,1,7.23s0,0,0,0l-1-7.21S8.43,30.71,8.43,30.73Z"/><path class="cls-1" d="M8.4,31a50.18,50.18,0,0,0,1,7.22s.09-.06.08-.09a50,50,0,0,1-1-7.21S8.4,30.93,8.4,31Z"/><path class="cls-1" d="M8.45,30.85a48.81,48.81,0,0,0,1,7.22c0-.08.31-.26.29-.38a48.35,48.35,0,0,1-1-7.2C8.76,30.58,8.44,30.73,8.45,30.85Z"/><path class="cls-1" d="M8.47,30.79a47.39,47.39,0,0,0,1,7.21c0-.06.28-.21.26-.31a49.69,49.69,0,0,1-1-7.2C8.75,30.56,8.46,30.69,8.47,30.79Z"/><path class="cls-1" d="M8.39,30.92a49,49,0,0,0,1,7.23s.19-.16.18-.23l-1-7.21S8.39,30.87,8.39,30.92Z"/><path class="cls-1" d="M8.46,30.79a47.39,47.39,0,0,0,1,7.21s.06,0,.06,0a48.81,48.81,0,0,1-1-7.22S8.45,30.76,8.46,30.79Z"/><path class="cls-1" d="M8.43,30.93a50,50,0,0,0,1,7.21c0-.07.24-.22.22-.33a49.69,49.69,0,0,1-1-7.2C8.67,30.68,8.42,30.82,8.43,30.93Z"/><path class="cls-1" d="M8.45,30.82a50,50,0,0,0,1,7.21c0-.06.31-.23.29-.34a48.53,48.53,0,0,1-1-7.2C8.76,30.56,8.44,30.71,8.45,30.82Z"/><path class="cls-1" d="M8.45,30.9a49.05,49.05,0,0,0,1,7.21s.21-.19.19-.28l-1-7.2C8.65,30.68,8.44,30.8,8.45,30.9Z"/><path class="cls-1" d="M8.42,31a50.18,50.18,0,0,0,1,7.22s.07,0,.06-.07a50,50,0,0,1-1-7.22S8.42,30.94,8.42,31Z"/><path class="cls-1" d="M4.38,63.45a3.07,3.07,0,0,1-2.14-.88l0,0a3.24,3.24,0,0,0,2.15.88S4.39,63.45,4.38,63.45Z"/><path class="cls-1" d="M4.37,63.32a2.4,2.4,0,0,1-2.29-1.48S2,61.66,2,61.78c.43,1.38,1.07,1.72,2.63,1.94C4.57,63.7,4.49,63.34,4.37,63.32Z"/><path class="cls-1" d="M4.39,63.39a2,2,0,0,1-2.3-1.52c0-.09-.07-.1,0,0,.4,1.29,1.16,1.61,2.56,1.8C4.56,63.67,4.49,63.4,4.39,63.39Z"/><path class="cls-1" d="M4.34,63.23A2.42,2.42,0,0,1,2,61.69c0-.09-.06-.08,0,0,.36,1.26,1,1.5,2.42,1.68C4.45,63.39,4.38,63.23,4.34,63.23Z"/><path class="cls-1" d="M4.39,63.42,2.16,62.08S2,61.76,2,61.87c.42,1.32,1.19,1.66,2.63,1.86C4.58,63.72,4.5,63.44,4.39,63.42Z"/><path class="cls-1" d="M4.38,63.36a2.42,2.42,0,0,1-2.29-1.49S2,61.7,2,61.81c.42,1.38,1.07,1.71,2.62,1.92C4.58,63.72,4.51,63.37,4.38,63.36Z"/><path class="cls-1" d="M4.35,63.41a2.4,2.4,0,0,1-2.28-1.48S2,61.77,2,61.82c.38,1.3,1.08,1.55,2.49,1.74C4.49,63.56,4.39,63.41,4.35,63.41Z"/><path class="cls-1" d="M4.38,63.3a2.43,2.43,0,0,1-2.32-1.55c0-.08-.05-.07,0,0C2.4,63,3.08,63.24,4.45,63.42,4.48,63.43,4.41,63.3,4.38,63.3Z"/><path class="cls-1" d="M4.38,63.43A2.4,2.4,0,0,1,2.1,62S2,61.78,2,61.86c.39,1.29,1.1,1.58,2.53,1.77C4.56,63.63,4.44,63.44,4.38,63.43Z"/><path class="cls-1" d="M4.38,63.39A2,2,0,0,1,2.12,62S2,61.71,2,61.84c.42,1.34,1.17,1.69,2.63,1.89C4.58,63.72,4.5,63.41,4.38,63.39Z"/><path class="cls-1" d="M4.39,63.41a2.43,2.43,0,0,1-2.3-1.51s-.09-.17,0,0c.39,1.29,1,1.55,2.51,1.75C4.56,63.61,4.45,63.41,4.39,63.41Z"/><g class="cls-2"><ellipse class="cls-3" cx="32.03" cy="62.25" rx="31.44" ry="5.28"/><ellipse class="cls-4" cx="32.03" cy="62.14" rx="14.24" ry="2.37"/><path class="cls-5" d="M55.88,33.46l0,3.64S70.1,41.91,54,48.91L52.78,52.5S77.27,43,55.88,33.46Z"/><path class="cls-5" d="M53,52.5a2.51,2.51,0,0,0,1.24-3.59Z"/><path class="cls-5" d="M55.91,37.1a2.58,2.58,0,0,0,0-3.64Z"/><path class="cls-6" d="M55.41,27.4s3.74,25-10,34.23a4.26,4.26,0,0,1-2.38.71H21.16a4.22,4.22,0,0,1-2.66-1C5.44,50.8,8.29,27.4,8.29,27.4"/><ellipse class="cls-7" cx="31.85" cy="27.4" rx="23.56" ry="4.84"/><path class="cls-1" d="M55.05,49.22c1.35-.9,2.78-1.66,4.14-2.55a5.93,5.93,0,0,0,2.19-1.93,5.44,5.44,0,0,0,.81-2.54s0,0,0,0c-.65,3.72-4.48,5.21-7.16,7C55,49.2,55,49.23,55.05,49.22Z"/><path class="cls-1" d="M55,49.2c2-1.3,5-2.42,6.34-4.48a4.61,4.61,0,0,0,.55-3.86s0,0,0,0c.92,4.89-4,6.33-6.91,8.28C55,49.18,55,49.21,55,49.2Z"/><path class="cls-1" d="M55,49.06c2.19-1.45,6.15-2.82,6.94-5.67,1-3.6-2.39-5.19-5.25-6.07a.69.69,0,0,0-.08.32c2,.61,5.34,1.82,5.17,4.52-.23,3.63-4.52,5.13-7.17,6.89C54.62,49,54.92,49.11,55,49.06Z"/><path class="cls-1" d="M55.05,49.11c2.3-1.52,7.41-3.37,7.14-7-.22-2.88-3.09-4-5.49-4.76,0,0-.11.23-.09.24,2.47.76,6.31,2.53,5,5.84-1.15,2.83-4.53,4-6.93,5.62C54.7,49,55,49.17,55.05,49.11Z"/><path class="cls-1" d="M55,49c2.46-1.63,6.48-3,7-6.35S59.24,38,56.68,37.23c0,0,0,.06,0,.07a11.18,11.18,0,0,1,3.51,1.51l1,.85A2.32,2.32,0,0,1,61.87,42c0,2-.47,2.4-2.09,3.72A56.43,56.43,0,0,1,55,49S55,49,55,49Z"/><path class="cls-1" d="M55,49.13c2.5-1.66,6.48-3,7-6.32s-2.86-4.64-5.36-5.41c0,0-.11.25-.09.26,2.39.73,5.62,2.06,5,5.14C61,46,57,47.44,54.57,49.06,54.64,49,54.9,49.2,55,49.13Z"/><path class="cls-1" d="M55,49.08c2.43-1.61,6.48-3,7-6.32s-2.86-4.64-5.36-5.41a.57.57,0,0,0-.1.31c2.39.73,5.62,2.06,5,5.14A5.22,5.22,0,0,1,59.53,46c-1.48,1.17-3.37,2-5,3.1C54.65,49,54.9,49.15,55,49.08Z"/><path class="cls-1" d="M55,49.17c2.64-1.75,7.83-3.57,7-7.67-.5-2.53-3.21-3.45-5.38-4.12,0,0-.06.09,0,.09,3.65,1.12,6.57,3.19,4.82,6.57-1.23,2.39-4.44,3.62-6.62,5.07C54.81,49.12,55,49.19,55,49.17Z"/><path class="cls-1" d="M55.07,49.06c2.53-1.67,7.21-3.28,7.15-7,0-2.91-3.23-4.08-5.51-4.78,0,0-.06.06,0,.07,3.42,1,7.13,3.37,4.59,7.22-1.38,2.09-4.31,3.14-6.33,4.48C54.92,49.06,55,49.08,55.07,49.06Z"/><path class="cls-1" d="M55.05,49.18c2.51-1.66,6.47-3,7-6.34s-2.86-4.67-5.39-5.44c0,0-.09.13-.07.14,2.45.75,5.74,2.12,5.15,5.27s-4.61,4.66-7.05,6.28C54.76,49.06,55,49.23,55.05,49.18Z"/><path class="cls-1" d="M55,49.1c2.5-1.65,6.47-3,7-6.32s-2.85-4.63-5.35-5.4c0,0-.12.27-.09.28,2.39.73,5.62,2.06,5,5.14C61,46,57,47.44,54.57,49.06,54.64,49,54.9,49.17,55,49.1Z"/><path class="cls-1" d="M55.07,49.15c2.44-1.61,6.48-3,7-6.33s-2.88-4.68-5.41-5.45c0,0-.09.14-.08.15,2.46.75,5.76,2.12,5.17,5.28s-4.54,4.62-7,6.29C54.78,49.06,55,49.2,55.07,49.15Z"/><path class="cls-1" d="M54.25,49.22a2.4,2.4,0,0,1-.33,2.65c-.06.07,0,0,.07,0,.94-.82.81-1.68.4-3C54.41,49,54.21,49.12,54.25,49.22Z"/><path class="cls-1" d="M54.25,49.28a2.39,2.39,0,0,1-.18,2.49s-.21.25-.13.18c1-.82.85-1.74.45-3C54.39,49,54.23,49.2,54.25,49.28Z"/><path class="cls-1" d="M54.22,49.19a2.33,2.33,0,0,1-.35,2.69s0,0,0,0c.93-.76.76-1.55.37-2.73A0,0,0,0,0,54.22,49.19Z"/><path class="cls-1" d="M54.2,49.43,53.88,52s-.05.09,0,.06c1-.76.79-1.63.4-2.79C54.25,49.29,54.19,49.4,54.2,49.43Z"/><path class="cls-1" d="M54.24,49.31l-.14,2.43s-.27.31-.16.22c1-.83.84-1.88.47-3.09C54.44,49,54.2,49.18,54.24,49.31Z"/><path class="cls-1" d="M54.25,49.24,54,51.84s-.1.13,0,.07c1-.85.87-1.71.45-3C54.43,49,54.22,49.13,54.25,49.24Z"/><path class="cls-1" d="M54.2,49.39A2.26,2.26,0,0,1,54,51.9s-.16.21-.1.16c1-.78.89-1.65.45-2.93C54.31,49.13,54.18,49.33,54.2,49.39Z"/><path class="cls-1" d="M54.25,49.24a2.35,2.35,0,0,1-.35,2.68s0,0,0,0c1-.77.78-1.56.38-2.76C54.28,49.15,54.24,49.22,54.25,49.24Z"/><path class="cls-1" d="M54.23,49.4a2.27,2.27,0,0,1-.18,2.42s-.15.23-.17.24c1-.82.9-1.75.48-3C54.37,49,54.2,49.3,54.23,49.4Z"/><path class="cls-1" d="M54.24,49.28,54,51.86s-.1.14,0,.07c1-.83.84-1.84.47-3.06C54.43,49,54.2,49.16,54.24,49.28Z"/><path class="cls-1" d="M54.24,49.35a2.3,2.3,0,0,1-.2,2.48s-.2.25-.13.19c1-.8.87-1.72.45-3C54.36,49.05,54.22,49.28,54.24,49.35Z"/><path class="cls-1" d="M54.22,49.45l-.35,2.62s0,.06,0,0c1-.75.77-1.63.39-2.76C54.26,49.32,54.21,49.42,54.22,49.45Z"/><path class="cls-1" d="M54.82,51.44c.46-.79.35-.4.43-1.15a.1.1,0,0,1,0,0l-.42,1.15S54.82,51.45,54.82,51.44Z"/><path class="cls-1" d="M54.81,51.43c.64-1.13.37-1.53-.27-2.58v0l.23,2.53S54.79,51.45,54.81,51.43Z"/><path class="cls-1" d="M54.83,51.24c.65-1.13.41-1.5-.26-2.58,0,0-.09.07-.08.09a2.18,2.18,0,0,1,.3,1.65s0,0,0,0c-.05-1.09,0-1.2.15-.35a.89.89,0,0,1-.23,1.19S54.82,51.26,54.83,51.24Z"/><path class="cls-1" d="M54.79,51.3c.61-1,.42-1.45-.23-2.53,0,0-.3.28-.27.34l-.2,2.71s0,0,.06,0a3,3,0,0,0,.41-3.06l-.27.34c.55,1,.78,1.26.12,2.36C54.42,51.45,54.74,51.39,54.79,51.3Z"/><path class="cls-1" d="M54.83,51.34c.63-1.08.39-1.47-.24-2.52,0,0-.3.2-.27.25a2.26,2.26,0,0,1-.21,2.77s0,.06,0,0a2.93,2.93,0,0,0,.46-3l-.27.25c.57,1,.73,1.39.13,2.4C54.49,51.4,54.77,51.44,54.83,51.34Z"/><path class="cls-1" d="M54.79,51.37c.62-1.08.39-1.45-.24-2.51,0,0-.3.22-.27.28a2.22,2.22,0,0,1-.17,2.7s0,.08,0,0a2.85,2.85,0,0,0,.43-3l-.27.28c.55,1,.71,1.36.1,2.35C54.42,51.42,54.73,51.47,54.79,51.37Z"/><path class="cls-1" d="M54.8,51.31c.63-1.07.4-1.45-.23-2.51,0,0-.32.27-.29.33a2.19,2.19,0,0,1-.19,2.71s0,0,.06,0a3,3,0,0,0,.42-3l-.29.33c.55,1,.77,1.25.1,2.36C54.43,51.41,54.73,51.43,54.8,51.31Z"/><path class="cls-1" d="M54.82,51.39c.6-1.07.41-1.48-.26-2.57,0,0-.15.07-.14.1.65,1.27.53,2.28-.37,3,0,0,0,0,0,0a1.65,1.65,0,0,0,.72-1.4,2.7,2.7,0,0,0,0-.9c.64.19-.21,1.81-.19,1.77S54.8,51.42,54.82,51.39Z"/><path class="cls-1" d="M54.86,51.28c.65-1.12.42-1.47-.26-2.57,0,0-.11.07-.1.09.63,1.29.49,2.31-.41,3.05a0,0,0,0,0,0,0,1.66,1.66,0,0,0,.75-1.41,3,3,0,0,0,0-.9c0-.08,0,0,.17.11a1.51,1.51,0,0,1-.3,1.65S54.85,51.31,54.86,51.28Z"/><path class="cls-1" d="M54.83,51.39c.63-1.09.39-1.47-.26-2.54,0,0-.23.11-.21.14a2.38,2.38,0,0,1-.28,2.93s0,.07,0,0c.33-.37,1.35-1.8.75-2.3.47.39-.13,1.49-.31,1.8C54.55,51.43,54.79,51.47,54.83,51.39Z"/><path class="cls-1" d="M54.79,51.34c.62-1.07.39-1.45-.24-2.51,0,0-.3.25-.27.31a2.19,2.19,0,0,1-.19,2.7s0,0,.06,0a2.94,2.94,0,0,0,.4-3l-.27.31c.55,1,.7,1.36.1,2.35C54.43,51.42,54.72,51.45,54.79,51.34Z"/><path class="cls-1" d="M54.85,51.36c.63-1.09.39-1.48-.26-2.54,0,0-.24.12-.22.16a2.34,2.34,0,0,1-.29,2.93s0,.05,0,0a2.45,2.45,0,0,0,.74-1.86c.1-.76.06-.33.08,0a1.83,1.83,0,0,1-.38,1.36S54.81,51.44,54.85,51.36Z"/><path class="cls-1" d="M57.15,34.62l2.75,1.16s-.08-.28-.16-.31L57,34.31S57.08,34.59,57.15,34.62Z"/><path class="cls-1" d="M57.2,34.7l2.74,1.17c-.07,0-.08-.32-.19-.36L57,34.35C57.09,34.38,57.09,34.66,57.2,34.7Z"/><path class="cls-1" d="M57.16,34.61l2.75,1.17a0,0,0,0,0,0,0l-2.75-1.16S57.14,34.6,57.16,34.61Z"/><path class="cls-1" d="M57.18,34.83,59.93,36s0-.11,0-.12l-2.76-1.17S57.15,34.82,57.18,34.83Z"/><path class="cls-1" d="M57.17,34.72l2.75,1.16c-.09,0-.08-.38-.2-.43L57,34.28C57.07,34.32,57.06,34.67,57.17,34.72Z"/><path class="cls-1" d="M57.17,34.65l2.75,1.16c-.08,0-.09-.31-.2-.36L57,34.29C57.06,34.32,57.07,34.6,57.17,34.65Z"/><path class="cls-1" d="M57.18,34.8,59.94,36s0-.24-.1-.27l-2.75-1.16S57.13,34.78,57.18,34.8Z"/><path class="cls-1" d="M57.19,34.66l2.75,1.17s0-.07,0-.08l-2.75-1.17S57.17,34.65,57.19,34.66Z"/><path class="cls-1" d="M57.2,34.8,59.94,36c-.07,0-.06-.34-.17-.39L57,34.42C57.11,34.45,57.1,34.76,57.2,34.8Z"/><path class="cls-1" d="M57.17,34.68l2.74,1.17c-.08,0-.08-.36-.19-.4L57,34.28C57.06,34.32,57.06,34.63,57.17,34.68Z"/><path class="cls-1" d="M57.22,34.77,60,35.93c-.07,0-.07-.29-.17-.33l-2.73-1.16C57.12,34.46,57.12,34.73,57.22,34.77Z"/><path class="cls-1" d="M57.2,34.86,60,36s0-.1,0-.11l-2.75-1.16S57.18,34.85,57.2,34.86Z"/><path class="cls-1" d="M19.66,61.22l-2.2-1.88,0,0,2.21,1.87S19.65,61.21,19.66,61.22Z"/><path class="cls-1" d="M19.65,61.08a11.56,11.56,0,0,1-3.86-4.21,11.65,11.65,0,0,1-2.68-5s-.07.36,0,.47a20.13,20.13,0,0,0,2.55,5.18,25,25,0,0,0,4.08,4.08C19.64,61.51,19.75,61.17,19.65,61.08Z"/><path class="cls-1" d="M19.67,61.15a19.31,19.31,0,0,1-6.53-9.24,1.08,1.08,0,0,0-.05.35,21.14,21.14,0,0,0,3.48,6.28c1.55,1.84.58.8,3.15,3C19.67,61.48,19.75,61.22,19.67,61.15Z"/><path class="cls-1" d="M19.64,61a19.39,19.39,0,0,1-6.53-9.26s0,.14,0,.18a24.94,24.94,0,0,0,1.77,3.94,20.43,20.43,0,0,0,4.79,5.33S19.67,61,19.64,61Z"/><path class="cls-1" d="M19.65,61.19A19.4,19.4,0,0,1,13.11,52s-.06.29,0,.38a21.44,21.44,0,0,0,3.48,6.27c1.56,1.84.59.81,3.15,3C19.66,61.54,19.74,61.27,19.65,61.19Z"/><path class="cls-1" d="M19.66,61.12a11.48,11.48,0,0,1-3.86-4.21,11.54,11.54,0,0,1-2.68-5s-.08.34,0,.45a20.46,20.46,0,0,0,2.55,5.18,25.46,25.46,0,0,0,4.09,4.08C19.65,61.53,19.76,61.21,19.66,61.12Z"/><path class="cls-1" d="M19.64,61.17a19.4,19.4,0,0,1-6.54-9.25.57.57,0,0,0,0,.16A25,25,0,0,0,14.86,56a20.65,20.65,0,0,0,4.8,5.33S19.67,61.2,19.64,61.17Z"/><path class="cls-1" d="M19.67,61.05a19.31,19.31,0,0,1-6.53-9.25s-.05.11,0,.15a25.24,25.24,0,0,0,1.77,3.93,20.29,20.29,0,0,0,4.8,5.33S19.7,61.07,19.67,61.05Z"/><path class="cls-1" d="M19.66,61.2A17.33,17.33,0,0,1,13.12,52a.7.7,0,0,0,0,.24,17.51,17.51,0,0,0,2.53,5.17,17.33,17.33,0,0,0,4.07,4.08A.44.44,0,0,0,19.66,61.2Z"/><path class="cls-1" d="M19.65,61.16a19.45,19.45,0,0,1-6.54-9.24s-.06.31,0,.41a21.36,21.36,0,0,0,3.48,6.28c1.56,1.84.58.8,3.16,3C19.66,61.53,19.74,61.24,19.65,61.16Z"/><path class="cls-1" d="M19.67,61.17a17.06,17.06,0,0,1-4.05-4.08,17.5,17.5,0,0,1-2.48-5.17s-.07.19,0,.25a17.51,17.51,0,0,0,2.53,5.17,17.28,17.28,0,0,0,4.06,4.08S19.72,61.21,19.67,61.17Z"/><path class="cls-1" d="M53.87,45.48a30.67,30.67,0,0,0,.43-7.35c0,.09-.34.2-.34.33a30.49,30.49,0,0,1-.45,7.32C53.53,45.69,53.85,45.6,53.87,45.48Z"/><path class="cls-1" d="M53.9,45.53a30.08,30.08,0,0,0,.42-7.34c0,.05-.32.14-.32.24a30.42,30.42,0,0,1-.44,7.32C53.56,45.69,53.88,45.63,53.9,45.53Z"/><path class="cls-1" d="M53.9,45.41a30.16,30.16,0,0,0,.43-7.35s-.11.06-.11.09a30.16,30.16,0,0,1-.43,7.35S53.9,45.44,53.9,45.41Z"/><path class="cls-1" d="M53.87,45.62a30.67,30.67,0,0,0,.43-7.35s0,0,0,0a30.61,30.61,0,0,1-.43,7.34S53.87,45.64,53.87,45.62Z"/><path class="cls-1" d="M53.85,45.57a30.11,30.11,0,0,0,.43-7.34c0,.05-.34.14-.34.24a30.42,30.42,0,0,1-.44,7.32C53.51,45.73,53.84,45.67,53.85,45.57Z"/><path class="cls-1" d="M53.87,45.51a30.11,30.11,0,0,0,.43-7.34c0,.07-.36.18-.36.3a30.42,30.42,0,0,1-.44,7.32C53.51,45.71,53.86,45.63,53.87,45.51Z"/><path class="cls-1" d="M53.88,45.58a30.7,30.7,0,0,0,.43-7.35s-.17.06-.17.09l-.43,7.34S53.88,45.61,53.88,45.58Z"/><path class="cls-1" d="M53.93,45.46a30.67,30.67,0,0,0,.43-7.35s-.13.06-.13.09a30.67,30.67,0,0,1-.43,7.35S53.93,45.5,53.93,45.46Z"/><path class="cls-1" d="M53.89,45.59a30.61,30.61,0,0,0,.43-7.34s-.25.08-.25.15a30.42,30.42,0,0,1-.44,7.32S53.88,45.66,53.89,45.59Z"/><path class="cls-1" d="M53.86,45.54a30.1,30.1,0,0,0,.42-7.34c0,.06-.34.16-.34.27a30.42,30.42,0,0,1-.44,7.32C53.51,45.72,53.84,45.65,53.86,45.54Z"/><path class="cls-1" d="M53.91,45.56a30.16,30.16,0,0,0,.43-7.35s-.26.1-.26.17a30,30,0,0,1-.44,7.33S53.9,45.63,53.91,45.56Z"/><path class="cls-1" d="M53.12,59.59a19.38,19.38,0,0,1,6.71,1.55s-.14-.23-.22-.26a20.15,20.15,0,0,0-6.75-1.53S53,59.58,53.12,59.59Z"/><path class="cls-1" d="M53.17,59.66a14.53,14.53,0,0,1,6.7,1.55s-.14-.26-.23-.3a20.74,20.74,0,0,0-6.76-1.53C53,59.39,53.06,59.65,53.17,59.66Z"/><path class="cls-1" d="M53.14,59.57a14.77,14.77,0,0,1,6.71,1.55s0,0,0,0a20.34,20.34,0,0,0-6.74-1.56S53.11,59.57,53.14,59.57Z"/><path class="cls-1" d="M53.16,59.77a14.66,14.66,0,0,1,6.72,1.56s0-.08-.05-.09a19.86,19.86,0,0,0-6.72-1.55S53.14,59.77,53.16,59.77Z"/><path class="cls-1" d="M53.14,59.67a14.54,14.54,0,0,1,6.7,1.55s-.15-.32-.25-.36a20.67,20.67,0,0,0-6.77-1.53C52.91,59.34,53,59.66,53.14,59.67Z"/><path class="cls-1" d="M53.14,59.61a14.56,14.56,0,0,1,6.7,1.55s-.15-.26-.25-.3a20.42,20.42,0,0,0-6.76-1.52C52.91,59.34,53,59.6,53.14,59.61Z"/><path class="cls-1" d="M53.16,59.74a19.68,19.68,0,0,1,6.71,1.56s-.07-.2-.12-.22A19.87,19.87,0,0,0,53,59.54S53.11,59.74,53.16,59.74Z"/><path class="cls-1" d="M53.17,59.62a14.6,14.6,0,0,1,6.71,1.55s0-.06,0-.07a20,20,0,0,0-6.73-1.55S53.15,59.62,53.17,59.62Z"/><path class="cls-1" d="M53.18,59.75l6.7,1.55s-.12-.28-.21-.32a20.91,20.91,0,0,0-6.75-1.53C53,59.45,53.07,59.74,53.18,59.75Z"/><path class="cls-1" d="M53.13,59.64a14.48,14.48,0,0,1,6.71,1.55s-.15-.29-.25-.33a21,21,0,0,0-6.77-1.53C52.91,59.34,53,59.63,53.13,59.64Z"/><path class="cls-1" d="M53.2,59.72a14.52,14.52,0,0,1,6.69,1.55s-.12-.25-.2-.28a20.13,20.13,0,0,0-6.75-1.53C53,59.46,53.09,59.71,53.2,59.72Z"/><path class="cls-1" d="M53.18,59.8a14.39,14.39,0,0,1,6.72,1.56s0-.08,0-.09a20.23,20.23,0,0,0-6.72-1.56S53.16,59.79,53.18,59.8Z"/><path class="cls-1" d="M25.07,63.2l12.27-.06c-.07,0-.18-.23-.29-.23L24.78,63C24.85,63,25,63.2,25.07,63.2Z"/><path class="cls-1" d="M25.11,63.27l12.27-.05c-.07,0-.18-.28-.29-.28L24.81,63C24.89,63,25,63.27,25.11,63.27Z"/><path class="cls-1" d="M25.07,63.18l12.28,0s0,0,0,0l-12.28,0S25.05,63.18,25.07,63.18Z"/><path class="cls-1" d="M25.1,63.38l12.27-.05s0-.09,0-.09l-12.27,0S25.07,63.38,25.1,63.38Z"/><path class="cls-1" d="M25.08,63.28l12.27-.05c-.08,0-.19-.34-.32-.34l-12.27,0C24.84,62.94,25,63.28,25.08,63.28Z"/><path class="cls-1" d="M25.08,63.22l12.27,0c-.08,0-.2-.28-.31-.28l-12.27,0C24.84,62.94,25,63.22,25.08,63.22Z"/><path class="cls-1" d="M25.11,63.35l12.27-.05s-.1-.21-.17-.21l-12.28,0S25,63.35,25.11,63.35Z"/><path class="cls-1" d="M25.11,63.23l12.28,0s0-.08-.07-.08l-12.27,0S25.09,63.23,25.11,63.23Z"/><path class="cls-1" d="M25.12,63.36l12.27-.06c-.06,0-.16-.3-.26-.3l-12.27,0C24.92,63.05,25,63.36,25.12,63.36Z"/><path class="cls-1" d="M25.07,63.25l12.28,0c-.08,0-.2-.31-.32-.31l-12.27,0C24.84,62.94,25,63.25,25.07,63.25Z"/><path class="cls-1" d="M25.13,63.33l12.28-.06c-.06,0-.16-.26-.26-.26l-12.27.05C24.94,63.06,25,63.33,25.13,63.33Z"/><path class="cls-1" d="M25.12,63.4l12.28,0s0-.08,0-.08l-12.27,0S25.1,63.4,25.12,63.4Z"/><path class="cls-1" d="M54.87,51.46l5.25-3.28c-.07,0-.31-.1-.41,0l-5.24,3.27C54.54,51.37,54.77,51.52,54.87,51.46Z"/><path class="cls-1" d="M54.91,51.52l5.25-3.28c-.06,0-.31-.15-.41-.09l-5.24,3.27C54.57,51.39,54.82,51.58,54.91,51.52Z"/><path class="cls-1" d="M54.89,51.44l5.25-3.28s0,0-.06,0l-5.25,3.28S54.87,51.45,54.89,51.44Z"/><path class="cls-1" d="M54.9,51.61l5.25-3.28s0,0,0,0l-5.25,3.28S54.88,51.62,54.9,51.61Z"/><path class="cls-1" d="M54.87,51.54l5.25-3.28c-.06,0-.33-.18-.43-.12l-5.24,3.27C54.51,51.37,54.78,51.6,54.87,51.54Z"/><path class="cls-1" d="M54.88,51.48l5.24-3.27c-.07,0-.33-.14-.43-.07l-5.24,3.27C54.52,51.36,54.78,51.55,54.88,51.48Z"/><path class="cls-1" d="M54.91,51.58l5.25-3.28s-.17-.12-.22-.08L54.69,51.5S54.86,51.61,54.91,51.58Z"/><path class="cls-1" d="M54.93,51.48l5.25-3.28s-.09-.05-.12,0l-5.25,3.28S54.91,51.49,54.93,51.48Z"/><path class="cls-1" d="M54.92,51.59l5.24-3.28s-.26-.17-.34-.12l-5.23,3.27S54.84,51.64,54.92,51.59Z"/><path class="cls-1" d="M54.87,51.51l5.24-3.28c-.06,0-.32-.15-.42-.09l-5.24,3.27C54.51,51.37,54.77,51.57,54.87,51.51Z"/><path class="cls-1" d="M54.94,51.56l5.24-3.27s-.26-.15-.33-.1l-5.24,3.27S54.86,51.61,54.94,51.56Z"/><path class="cls-1" d="M54.92,51.63l5.25-3.28s0-.05,0,0L54.88,51.6S54.9,51.64,54.92,51.63Z"/><path class="cls-1" d="M56.32,34.18c.25.61.53.58,1.19.71,0,0,0,0,0,0l-1.13-.7S56.31,34.17,56.32,34.18Z"/><path class="cls-1" d="M56.3,34.41c.25.6.55.58,1.2.7,0,0,0,0,0,0a1.07,1.07,0,0,1-1.16-.71S56.29,34.39,56.3,34.41Z"/><path class="cls-1" d="M56.34,34.21c.22.57.51.54,1.13.67,0,0,.1-.27.06-.29l-.76-.44s-.14.08-.15.11c-.1.52,0,.41.63.52,0,0,0-.23,0-.24-.63-.13-.63-.31.27.34l.06-.29c-.53-.15-.76-.11-.9-.61C56.64,34,56.32,34.15,56.34,34.21Z"/><path class="cls-1" d="M56.35,34.28c.22.58.51.55,1.14.68,0,0,.1-.29.06-.31l-.8-.47s-.12.11-.12.13c-.11.54,0,.42.66.54,0,0,0-.24,0-.25-.83-.18-.44-.15.25.36l.06-.31c-.56-.15-.8-.11-.94-.64C56.61,34,56.32,34.21,56.35,34.28Z"/><path class="cls-1" d="M56.5,34.5c.06.34.4.22.81.3h0a.78.78,0,0,1-.82-.28Z"/><path class="cls-1" d="M56.28,34.39c.25.6.51.58,1.2.7,0,0,.05-.06,0-.07l-.93-.62,0,0c-.15.62.09.47.76.6,0,0,0,0,0,0-.83-.35-1-.41-.67-.18s.23.08-.28-.45C56.35,34.28,56.27,34.37,56.28,34.39Z"/><path class="cls-1" d="M56.33,34.3c.22.57.51.54,1.13.67,0,0,.11-.38.06-.41l-.74-.42s-.16.16-.16.18c-.1.52,0,.42.63.53,0,0,0-.32-.06-.33-.57-.12-.71-.3.27.45l.06-.41c-.52-.14-.74-.1-.87-.6C56.67,34,56.3,34.21,56.33,34.3Z"/><path class="cls-1" d="M56.35,34.24c.22.56.5.53,1.12.66,0,0,.09-.31.05-.34l-.74-.42s-.15.11-.15.13c-.09.52,0,.41.62.53,0,0,0-.27-.06-.28-.57-.12-.68-.33.28.38l.05-.34c-.52-.14-.74-.1-.87-.6C56.66,34,56.32,34.16,56.35,34.24Z"/><path class="cls-1" d="M56.27,34.37c.26.6.54.57,1.21.7,0,0,.1-.2.08-.22l-.94-.58s-.06.07-.07.08c-.15.61,0,.46.76.61,0,0,0-.16,0-.16l-.46-.1a.68.68,0,0,1-.4-.54S56.25,34.32,56.27,34.37Z"/><path class="cls-1" d="M56.34,34.23c.25.6.54.58,1.19.71,0,0,0,0,0,0l-.94-.64h0c-.15.6.1.46.75.59,0,0,0,0,0,0l-1-.63S56.33,34.21,56.34,34.23Z"/><path class="cls-1" d="M56.31,34.37c.24.59.53.56,1.18.69,0,0,.11-.3.07-.32l-.87-.51s-.09.12-.09.14c-.16.59,0,.45.7.58,0,0,0-.25,0-.26-.91-.19-.81-.38.19.37l.07-.32c-.59-.15-.83-.12-1-.67C56.57,34.11,56.28,34.29,56.31,34.37Z"/><path class="cls-1" d="M56.34,34.27c.22.57.5.53,1.12.66,0,0,.1-.35.06-.37l-.74-.42s-.16.13-.16.15c-.09.53,0,.42.63.53,0,0,0-.29-.06-.31-.58-.12-.66-.27.27.42l.06-.37c-.52-.14-.74-.1-.87-.6C56.66,34,56.3,34.18,56.34,34.27Z"/><path class="cls-1" d="M56.33,34.34c.24.59.52.56,1.18.69,0,0,.1-.25.07-.27l-.9-.54s-.08.11-.08.12c-.16.6,0,.45.73.59,0,0,0-.21,0-.22-1-.21-.78-.39.18.32l.07-.27c-.61-.15-.85-.12-1-.67C56.55,34.11,56.3,34.27,56.33,34.34Z"/><path class="cls-1" d="M56.54,34.81a2.83,2.83,0,0,0,.78.19h0l-.82-.19Z"/><path class="cls-1" d="M56.61,34.65A5,5,0,0,1,56.16,37s0,0,.05,0a5.26,5.26,0,0,0,.45-2.34S56.61,34.63,56.61,34.65Z"/><path class="cls-1" d="M56.6,34.87a5.23,5.23,0,0,1-.45,2.34s.05,0,.06,0a5.2,5.2,0,0,0,.45-2.34S56.6,34.85,56.6,34.87Z"/><path class="cls-1" d="M56.58,34.87l-.45,2.32c0,.06.07,0,.08,0l.62-1.07h0c-.16,0-.24,0-.23-.07a8.11,8.11,0,0,0,.09-1.21S56.58,34.84,56.58,34.87Z"/><path class="cls-1" d="M56.64,34.68,56.19,37s.25-.14.29-.22c.67-1.3.51-.62.49-2.11,0,0-.07,0-.07,0a6.84,6.84,0,0,1-.64,2,.41.41,0,0,0,.18-.1c1-3,.28.64.47-2.18C56.91,34.49,56.64,34.58,56.64,34.68Z"/><path class="cls-1" d="M56.65,34.74a5.19,5.19,0,0,1-.45,2.33s.22-.18.25-.25c.69-1.31.52-.62.52-2.12,0-.05-.06,0-.06,0l-.64,2s.13-.08.14-.13a5.84,5.84,0,0,0,.47-1.35c-.14.78-.14.5,0-.81C56.89,34.49,56.65,34.66,56.65,34.74Z"/><path class="cls-1" d="M56.24,36.74v0S56.23,36.74,56.24,36.74Z"/><path class="cls-1" d="M56.22,36.91v0Z"/><path class="cls-1" d="M56.63,34.77l-.45,2.32s.27-.22.32-.32c.66-1.29.5-.62.49-2.11,0,0-.09.07-.09.08l-.64,2s.17-.11.19-.18c-.05.15.62-2,.43-1.16-.08.29-.14,1.79,0-1C56.93,34.52,56.64,34.63,56.63,34.77Z"/><path class="cls-1" d="M56.65,34.71,56.2,37s.26-.17.3-.25c.66-1.3.5-.62.48-2.11,0,0-.07,0-.07.05a6.8,6.8,0,0,1-.64,2s.16-.08.18-.13c1-3,.28.64.48-2.18C56.92,34.49,56.65,34.59,56.65,34.71Z"/><path class="cls-1" d="M56.57,34.84a5.06,5.06,0,0,1-.45,2.33,1.38,1.38,0,0,0,.2-.18c.75-1.37.55-.66.61-2.24,0,0,0,0-.06,0a7,7,0,0,1-.66,2.07s.08,0,.09-.05c.5-1.43.64-1.81.44-1.16s-.16.25,0-1C56.76,34.63,56.58,34.77,56.57,34.84Z"/><path class="cls-1" d="M56.63,34.69A5.06,5.06,0,0,1,56.19,37s.05,0,.06,0c.82-1.42.59-.66.68-2.3l0,0a7,7,0,0,1-.66,2.07s0,0,0,0c.55-1.43.69-1.81.43-1.13s-.21.28,0-1C56.7,34.62,56.64,34.67,56.63,34.69Z"/><path class="cls-1" d="M56.61,34.83a5.19,5.19,0,0,1-.45,2.33s.21-.2.25-.28c.7-1.3.52-.64.54-2.16,0,0-.05.05-.06.07a6.46,6.46,0,0,1-.65,2.05c0,.06.11-.07.12-.1.45-1.42.6-1.82.44-1.18s-.11.23,0-1C56.84,34.56,56.61,34.74,56.61,34.83Z"/><path class="cls-1" d="M56.63,34.74l-.44,2.31s.27-.19.31-.28c.66-1.3.5-.62.49-2.11,0,0-.09.05-.09.07a6.8,6.8,0,0,1-.64,2s.17-.09.19-.15c1-3,.29.63.48-2.19C56.93,34.5,56.64,34.61,56.63,34.74Z"/><path class="cls-1" d="M56.62,34.8a5,5,0,0,1-.44,2.33s.18-.17.22-.23c.71-1.33.53-.65.56-2.19,0,0-.05,0-.06.06a6.6,6.6,0,0,1-.65,2.06c0,.05.09,0,.1-.08.47-1.42.62-1.81.44-1.17s-.12.22,0-1C56.83,34.57,56.63,34.72,56.62,34.8Z"/><path class="cls-1" d="M24.85,24.33a8.49,8.49,0,0,1-1.4-3.69,7.64,7.64,0,0,1,.41-6.34,18,18,0,0,0,.6-3.47A10.24,10.24,0,0,0,23.31,6,17.67,17.67,0,0,1,21.66.69a4.4,4.4,0,0,1-.4,1,5.24,5.24,0,0,0-.49,1.56,13.14,13.14,0,0,0,1.39,5.25,6.68,6.68,0,0,1,.63,4.93,18.64,18.64,0,0,1-.45,5.52,14.15,14.15,0,0,0,1.87,8.12,12.08,12.08,0,0,1,.38-1.34C24.64,25.48,25,24.6,24.85,24.33Z"/><path class="cls-1" d="M24.93,24.73c-1.28-2.49-2.12-5-1.59-7.85.29-1.52.94-3,1.15-4.56a10.42,10.42,0,0,0-1.1-5.94,17.32,17.32,0,0,1-1.63-5.31c.06.54-.89,1.39-.88,2a4.24,4.24,0,0,0,.34,2.56,21.1,21.1,0,0,0,1.07,2.66L23,10.1a24.52,24.52,0,0,1-.33,7.46,13.58,13.58,0,0,0,1.62,9.25C24.08,26.43,25.19,25.25,24.93,24.73Z"/><path class="cls-1" d="M24.93,23.79C23,20,22.87,18.86,24,13.74a18.1,18.1,0,0,0,.64-3.47,10.12,10.12,0,0,0-1.17-4.82A17.78,17.78,0,0,1,21.83.11a3.23,3.23,0,0,0-.35,1,17.48,17.48,0,0,0,1.61,5.25,13.22,13.22,0,0,1,1.19,3.63,25.93,25.93,0,0,1-.9,5.55,12.07,12.07,0,0,0-.54,3.61,13.68,13.68,0,0,0,1.8,5.76S25,24,24.93,23.79Z"/><path class="cls-1" d="M25,24.65l-.92-1.81a5.79,5.79,0,0,1-.32-5.06,14.77,14.77,0,0,1,.65-4.29A7.51,7.51,0,0,0,24.75,10c-.53-3.19-2.51-5.74-2.92-9,0-.15-.21,0-.2.09a18.54,18.54,0,0,0,1.69,5.37l.75,1.8a9.17,9.17,0,0,1-.17,6.41A15.71,15.71,0,0,0,23,19.12c0,2.1.94,3.86,1.86,5.68C24.89,24.94,25,24.72,25,24.65Z"/><path class="cls-1" d="M24.8,24.93c-1.28-2.49-2.12-5-1.6-7.85.28-1.52.92-3,1.13-4.57a10.55,10.55,0,0,0-1.09-5.93,16.89,16.89,0,0,1-1.63-5.31c.06.58-.9,1.47-.89,2.13A4.16,4.16,0,0,0,21.05,6,21.47,21.47,0,0,0,22.1,8.61l.68,1.79a25.67,25.67,0,0,1-.29,7.48,13.89,13.89,0,0,0,1.68,9.27C24,26.73,25.08,25.48,24.8,24.93Z"/><path class="cls-1" d="M24.87,24.53c-1.28-2.48-2.13-5-1.59-7.82.29-1.52.94-3,1.15-4.56a10.71,10.71,0,0,0-1.1-5.95A17.41,17.41,0,0,1,21.68.88c0,.18-.34.74-.42,1a4.75,4.75,0,0,0-.53,1.52,12.92,12.92,0,0,0,1.38,5.23A10.37,10.37,0,0,1,23,11.27a8.13,8.13,0,0,1-.31,5.4,17.72,17.72,0,0,0-.43,4.82,16.44,16.44,0,0,0,1.92,5.66,11.38,11.38,0,0,1,.41-1.29C24.64,25.65,25,24.78,24.87,24.53Z"/><path class="cls-1" d="M24.86,24.74a15.37,15.37,0,0,1-1.58-3.68l0-4.11c.36-2.7,1.77-4.91,1.08-7.71a10.82,10.82,0,0,0-1-2.78,17,17,0,0,1-1.63-5.27,3.19,3.19,0,0,0-.35.91,14.8,14.8,0,0,0,1.51,5.16,10,10,0,0,1,1,5.83c-.33,2.28-1.38,4.53-1.19,6.88a14.85,14.85,0,0,0,1.83,5.59C24.61,25.62,25,24.9,24.86,24.74Z"/><path class="cls-1" d="M25.08,24.09c-1.38-2.73-2.14-4.51-1.52-7.84C24,14,25.25,11.76,24.88,9.43a14.94,14.94,0,0,0-1.22-3.67A18.1,18.1,0,0,1,22,.43a2.62,2.62,0,0,0-.39.88A17.48,17.48,0,0,0,23.2,6.56a13.79,13.79,0,0,1,1.18,3.65A10.15,10.15,0,0,1,24,13.55,23.33,23.33,0,0,0,23,19.29,13.78,13.78,0,0,0,24.75,25C24.78,25.05,25.17,24.27,25.08,24.09Z"/><path class="cls-1" d="M24.87,25,23.3,21.35a6.68,6.68,0,0,1,.18-4.19c.37-2,1.39-4.71,1.09-6.74-.46-3.18-2.49-5.7-2.82-9,0,.09-.6,1-.6,1.34a8.73,8.73,0,0,0,.68,3.39c.53,1.19,1,2.4,1.46,3.62a10.74,10.74,0,0,1,0,5.07c-.41,2.29-1,4.46-.63,6.79a15.14,15.14,0,0,0,1.73,4.66C24.33,26.12,25.05,25.33,24.87,25Z"/><path class="cls-1" d="M24.81,24.74c-1.28-2.48-2.13-5-1.6-7.83.29-1.53.93-3,1.14-4.57a10.64,10.64,0,0,0-1.1-5.93,17.4,17.4,0,0,1-1.64-5.32c.07.63-.9,1.57-.89,2.29A4.19,4.19,0,0,0,21.05,6,20.86,20.86,0,0,0,22.1,8.6l.68,1.78a25.72,25.72,0,0,1-.29,7.49,14,14,0,0,0,1.68,9.29c0-.05.38-1.16.38-1.19C24.61,25.77,24.93,25,24.81,24.74Z"/><path class="cls-1" d="M25,24.81l-1.57-3.63a6.71,6.71,0,0,1,.18-4.2c.39-2,1.4-4.7,1.11-6.74-.47-3.19-2.51-5.7-2.83-9,0,.11-.65,1-.64,1.44a8.42,8.42,0,0,0,.67,3.4c.53,1.19,1,2.39,1.47,3.61a10.78,10.78,0,0,1,0,5.08c-.41,2.28-1,4.46-.64,6.79a15.27,15.27,0,0,0,1.72,4.67C24.35,26,25.14,25.18,25,24.81Z"/><path class="cls-1" d="M25.05,24.81,24.13,23a6,6,0,0,1-.29-5.11,14.31,14.31,0,0,1,.66-4.31,7.32,7.32,0,0,0,.35-3.45c-.53-3.2-2.51-5.74-2.91-9,0-.12-.19,0-.18,0A18.24,18.24,0,0,0,23.45,6.5l.75,1.81A9.23,9.23,0,0,1,24,14.72a15.67,15.67,0,0,0-1,4.43,12.88,12.88,0,0,0,1.83,5.77C25,25,25.09,24.89,25.05,24.81Z"/><path class="cls-1" d="M32.36,23.33A5.57,5.57,0,0,1,31,18.78l-.44,2.35c.75-3.17,2.93-6,2.67-9.39-.19-2.29-1.69-3.85-2.22-6l0,.29.31-1.49-.87,2.12,2.61-4c-.09.12.26-.39.06-.21a8.67,8.67,0,0,0-2.77,4.13c-.39,1.53.18,2.86.73,4.25,1.15,2.93.61,4.25-.17,8.09-.12.56-.25,1.12-.35,1.68-.35,2.07.52,3.81,1.67,5.49a8.31,8.31,0,0,1,.13-1.41C32.38,24.47,32.54,23.61,32.36,23.33Z"/><path class="cls-1" d="M32.46,23.75l-1.34-2.94a17.12,17.12,0,0,1,1.81-5.5,15,15,0,0,0,.51-2.18,8.49,8.49,0,0,0-1-4.19c-.83-1.66-1.51-1.78-1.06-4l-.84,1.68a36.91,36.91,0,0,1,2.69-3.74c0-.07,0-.08,0-.05a7,7,0,0,0-1.14,1,6,6,0,0,0-1.72,4.29,8.22,8.22,0,0,0,.85,2.59,8.31,8.31,0,0,1,.52,6.15c-.31.8-.6,1.6-.88,2.4a7.53,7.53,0,0,0,1.39,6.63C32,25.52,32.79,24.26,32.46,23.75Z"/><path class="cls-1" d="M32.39,22.78a3.26,3.26,0,0,1-.59-4A6.15,6.15,0,0,1,33,14.43a7.33,7.33,0,0,0,.38-4.34,11.36,11.36,0,0,0-1.39-3l-.54-1a4,4,0,0,1,1.7-3.77s.42-.61.21-.44a5.87,5.87,0,0,0-2.15,2.59c-.57,2,.26,3,1.06,4.86a5.47,5.47,0,0,1,.77,3.52,7.36,7.36,0,0,1-1.48,3.65A6.7,6.7,0,0,0,31,18.36a7.75,7.75,0,0,0,1.28,5.56S32.53,23,32.39,22.78Z"/><path class="cls-1" d="M32.4,23.63l0-7.21.75-1.18a4.78,4.78,0,0,0,.45-2.08A8.46,8.46,0,0,0,33.05,10c-.89-2.32-3.16-4.11.45-7,.12-.09,0-.2-.08-.11a7.92,7.92,0,0,0-2.07,2c-1.06,1.8.9,3.6,1.49,5.17a6.35,6.35,0,0,1-.54,6.26,4.91,4.91,0,0,0-.73,1.14,5.57,5.57,0,0,0-.52,1.65,6.44,6.44,0,0,0,1.23,4.69C32.36,24,32.45,23.71,32.4,23.63Z"/><path class="cls-1" d="M32.35,24A5.74,5.74,0,0,1,31,19.37l-.33,1.57c.76-3,2.78-5.51,2.52-8.68A8.84,8.84,0,0,0,32,8.67c-.73-1.36-1.14-1.61-.76-3.56l-.87,1.77A33.57,33.57,0,0,1,33.1,3c0-.08,0-.09-.05,0A8.33,8.33,0,0,0,31.86,4.1a6,6,0,0,0-1.65,4.38A8.37,8.37,0,0,0,31,11a8.44,8.44,0,0,1,.54,6.18c-.28.8-.55,1.6-.81,2.41a7.7,7.7,0,0,0,1.5,6.65C31.93,25.82,32.71,24.5,32.35,24Z"/><path class="cls-1" d="M32.4,23.54A5.61,5.61,0,0,1,31.06,19l-.48,2.26c.79-3.14,3-6,2.7-9.33A8.93,8.93,0,0,0,32.11,8.3c-.73-1.35-1.17-1.62-.77-3.56L30.41,6.8a34.26,34.26,0,0,1,2.78-4.1c.11-.06-.06,0-.12,0a11,11,0,0,0-1.31,1.41,5.88,5.88,0,0,0-1.53,4.29A14.66,14.66,0,0,0,31.38,12a10.44,10.44,0,0,1-.32,6.55,8,8,0,0,0,1.17,7.71,8.58,8.58,0,0,1,.15-1.35C32.39,24.64,32.57,23.81,32.4,23.54Z"/><path class="cls-1" d="M32.34,23.74c-2.19-3.47,1.74-8.78.92-12.65-.77-3.6-3.91-4,0-8.11.19-.2-.54.29-.63.39a6.94,6.94,0,0,0-1.45,1.92A3.68,3.68,0,0,0,30.88,7a2.78,2.78,0,0,0,.21,1,9.22,9.22,0,0,1,1.06,3.37,5.61,5.61,0,0,1-.69,6.24,1.75,1.75,0,0,0-.12.32,14.34,14.34,0,0,0-.41,1.42,6.91,6.91,0,0,0,1.32,5.29A1.59,1.59,0,0,0,32.34,23.74Z"/><path class="cls-1" d="M32.54,23.08c-2-3.23-.92-1.61.69-8.5a7.6,7.6,0,0,0,.32-4.18c-.07-.3-.64-1.78-.77-2.07-1.13-2.35-2.7-2.44.58-5.78,0,0,.37-.52.14-.32a6.55,6.55,0,0,0-2.22,2.68c-1,3,2.51,5,1.87,8.23-.39,2-1.71,3.71-2,5.71A7.16,7.16,0,0,0,32.39,24S32.66,23.27,32.54,23.08Z"/><path class="cls-1" d="M32.42,24a5.71,5.71,0,0,1-1.34-4.63l-.21,1c.64-2.34,2.34-4.45,2.52-7a7.77,7.77,0,0,0-.94-4.2,5.25,5.25,0,0,1-1-4l-.56,1.14,2.3-3.11c.21-.23,0-.1-.17,0a3.55,3.55,0,0,0-.91.77c-1,1.36-1.7,2.49-1.34,4.26.62,3.06,2.63,4.65,1.27,8.33-.26.72-.65,1.4-.89,2.13a7.14,7.14,0,0,0,1.15,6.64S32.59,24.29,32.42,24Z"/><path class="cls-1" d="M32.35,23.75A5.65,5.65,0,0,1,31,19.18l-.44,2.1c.77-3.11,2.9-5.89,2.63-9.19A9,9,0,0,0,32,8.5c-.73-1.36-1.15-1.62-.77-3.56L30.4,6.85a34.21,34.21,0,0,1,2.71-4c.1,0,0,0-.11,0a8.09,8.09,0,0,0-1.26,1.29,6,6,0,0,0-1.53,4.27A14.88,14.88,0,0,0,31.36,12a10,10,0,0,1-.16,6.11c-.12.35-.24.71-.35,1.08a7.74,7.74,0,0,0,1.38,7.06A8.68,8.68,0,0,1,32.36,25C32.37,24.76,32.52,24,32.35,23.75Z"/><path class="cls-1" d="M32.5,23.87c-2.83-4.38.73-7,1-10.62a7.73,7.73,0,0,0-1-4.19A5.26,5.26,0,0,1,31.5,5l-.6,1.22,2.35-3.17c.22-.24,0-.09-.17,0a3.76,3.76,0,0,0-.95.83c-.87,1.22-1.57,2.24-1.43,3.81a4.42,4.42,0,0,0,.52,1.78c1,2.26,1.82,4.34.84,7-.29.79-.74,1.54-1,2.35a7.24,7.24,0,0,0,1.23,6.48C32.16,25.08,32.7,24.19,32.5,23.87Z"/><path class="cls-1" d="M32.49,23.8l0-7.33a4.72,4.72,0,0,0,.75-1.18c0-.11.43-1.95.44-2.07a8.53,8.53,0,0,0-1-4.2c-1.32-2.63-2.67-3.2.86-5.94.09-.08,0-.2-.08-.12a7.37,7.37,0,0,0-2.07,2C30.3,7.17,33.1,9,33.36,11.14l-.94,5.25a11,11,0,0,0-.76,1.16,6,6,0,0,0-.51,1.62,6.51,6.51,0,0,0,1.22,4.76C32.43,24,32.54,23.88,32.49,23.8Z"/><path class="cls-1" d="M41.15,25.14a11.45,11.45,0,0,1,2.53-8.07A5.43,5.43,0,0,0,45,14.17a6.1,6.1,0,0,0-.83-2.84L43,7.75a16.81,16.81,0,0,1,0-7.2C43,1.28,41.74,2,41.65,2.81A15.33,15.33,0,0,0,41.7,10l1.14,3.58a5.15,5.15,0,0,1-.37,4,36.45,36.45,0,0,0-2.31,4.64c-.7,2.18-.53,2.86-.52,5.12a8.8,8.8,0,0,1,.81-1.09C40.61,26.07,41.15,25.48,41.15,25.14Z"/><path class="cls-1" d="M41.22,25.48l2.55-8.12a3.75,3.75,0,0,0,.76-1.06,3.72,3.72,0,0,0,.6-2.49,9.91,9.91,0,0,0-.87-2.14,13.86,13.86,0,0,1-1.33-5.42A12.3,12.3,0,0,1,43.15.89c-.06.56-1.27,1.11-1.35,1.79A11,11,0,0,0,41.61,8,15.65,15.65,0,0,0,43,13.51a5.42,5.42,0,0,1,.2,2.88c-.55,2-2.21,3.69-2.88,5.69-.71,2.15-.55,2.9-.53,5.12C39.78,26.72,41.22,26.11,41.22,25.48Z"/><path class="cls-1" d="M41.35,24.62c.07-7.35,1.37-5.95,3.38-9.09A3.63,3.63,0,0,0,45.36,13a6.22,6.22,0,0,0-.65-1.71,15.05,15.05,0,0,1-1.42-4.11A16.67,16.67,0,0,1,43.3,0s-.47.52-.5.75a12.24,12.24,0,0,0-.15,5.35A14.4,14.4,0,0,0,44,11.47q1.68,2.67-.19,4.7a11.94,11.94,0,0,1-1,1.56,13.77,13.77,0,0,0-2.07,7.71S41.35,24.87,41.35,24.62Z"/><path class="cls-1" d="M41.45,25.54A11.51,11.51,0,0,1,44,17.45a9.07,9.07,0,0,0,1-1.6,3.46,3.46,0,0,0,.34-1.9L45,12.76A17.31,17.31,0,0,1,43.34.94c0-.15-.21,0-.22.05-.38,3.27-.72,3.89,0,7.19a19.87,19.87,0,0,0,1.11,3.56,12.2,12.2,0,0,0,.56,1.15L45,15.3a12.76,12.76,0,0,1-2,3.15,12.56,12.56,0,0,0-1.79,7.17C41.22,25.78,41.45,25.62,41.45,25.54Z"/><path class="cls-1" d="M41.05,25.67c0-7.58,1.17-5.51,3.28-9.17a3.23,3.23,0,0,0,.57-1.86,6,6,0,0,0-.81-2.78L43,8.28a16.46,16.46,0,0,1,0-7.19c-.07.59-1.32,1.16-1.41,1.87a11.4,11.4,0,0,0-.19,5.35,15.56,15.56,0,0,0,1.36,5.46,5.45,5.45,0,0,1,.17,2.83c-.54,2-2.17,3.73-2.83,5.74s-.54,2.91-.52,5.13C39.56,27,41.05,26.32,41.05,25.67Z"/><path class="cls-1" d="M41.16,25.31l2.53-8.09a3.8,3.8,0,0,0,.76-1.07A3.71,3.71,0,0,0,45,13.66a10.12,10.12,0,0,0-.86-2.17,13.42,13.42,0,0,1-1.32-5.4A12.34,12.34,0,0,1,43.08.72a7.55,7.55,0,0,1-.8,1.06c-.19.28-.65.77-.69,1.14a11.31,11.31,0,0,0-.18,5.36,15.44,15.44,0,0,0,1.35,5.44,5.56,5.56,0,0,1,.17,2.86c-.54,2-2.17,3.73-2.83,5.75s-.54,2.93-.52,5.14a11.93,11.93,0,0,1,.84-1C40.58,26.22,41.16,25.63,41.16,25.31Z"/><path class="cls-1" d="M41.23,25.57a6.59,6.59,0,0,1,1.27-5.29,6.94,6.94,0,0,1,1.31-2.83,6,6,0,0,0,1.26-2.18,4.42,4.42,0,0,0-.26-2.41L43.17,8.22a16.06,16.06,0,0,1,0-7.2s-.57.49-.6.71A15.16,15.16,0,0,0,42.66,9l1.19,3.68a5,5,0,0,1-.46,4.75,25.32,25.32,0,0,0-1.63,2.69A13,13,0,0,0,40.6,26.2C40.6,26.26,41.22,25.76,41.23,25.57Z"/><path class="cls-1" d="M41.48,24.92a6.59,6.59,0,0,1,1.32-5.3,11,11,0,0,1,2-3.78,3.25,3.25,0,0,0,.6-1.86c.06-1,.1-.55-.33-1.84L43.44,7.48a16.32,16.32,0,0,1,0-7.16s-.53.51-.56.74A16,16,0,0,0,43,8.21l1.15,3.57c.69,1.84.87,3.31-.26,5a25.91,25.91,0,0,0-1.7,2.69,13.19,13.19,0,0,0-1.27,6.22S41.48,25.15,41.48,24.92Z"/><path class="cls-1" d="M41.17,25.75l.61-4.92a7.59,7.59,0,0,1,1.56-2.7A6.94,6.94,0,0,0,45,15.42a4.18,4.18,0,0,0-.27-2.37,11.46,11.46,0,0,1-1.07-2.84,14.73,14.73,0,0,1-.56-9c0,.07-.93.74-1,1.1a20.53,20.53,0,0,0-.42,3.49l.5,3.8c.41,2.18,1.6,3.77,1.43,5.94C43.51,17.42,42,19,41.23,20.66a12.75,12.75,0,0,0-1.09,6.17C40.14,26.58,41.17,26.16,41.17,25.75Z"/><path class="cls-1" d="M41.07,25.5l2.53-8.11a3.8,3.8,0,0,0,.76-1.07A3.71,3.71,0,0,0,45,13.83a9.65,9.65,0,0,0-.85-2.14,13.67,13.67,0,0,1-1.32-5.41A12.29,12.29,0,0,1,43,.92c-.08.64-1.34,1.27-1.43,2a11.45,11.45,0,0,0-.18,5.36,15.66,15.66,0,0,0,1.35,5.45,5.52,5.52,0,0,1,.17,2.85c-.54,2-2.17,3.73-2.83,5.74s-.54,2.93-.52,5.14c0-.07.78-.9.81-.95S41.07,25.8,41.07,25.5Z"/><path class="cls-1" d="M41.27,25.59l.61-4.92A28.87,28.87,0,0,1,44.22,17a5.32,5.32,0,0,0,.91-1.71,4,4,0,0,0-.28-2.39A11.46,11.46,0,0,1,43.78,10a14.65,14.65,0,0,1-.57-8.95c0,.09-1,.81-1,1.19a25.91,25.91,0,0,0-.42,3.5,21.16,21.16,0,0,0,1.69,7.47,5.57,5.57,0,0,1,.21,2.89,13.12,13.12,0,0,1-1.85,3.31,13,13,0,0,0-1.65,7.33C40.18,26.48,41.27,26,41.27,25.59Z"/><path class="cls-1" d="M41.45,25.71a11.87,11.87,0,0,1,2.69-8.17,9.15,9.15,0,0,0,1-1.61,3.55,3.55,0,0,0,.35-1.9l-.42-1.19A17.31,17.31,0,0,1,43.44,1c0-.14-.18-.07-.19,0-.38,3.27-.71,3.9,0,7.19a27.68,27.68,0,0,0,1.11,3.56,8.26,8.26,0,0,0,.56,1.16l.29,2.42a12.41,12.41,0,0,1-2,3.14,12.85,12.85,0,0,0-1.9,7.27C41.23,25.93,41.45,25.8,41.45,25.71Z"/></g></g></g></svg>