<svg xmlns="http://www.w3.org/2000/svg" viewBox="0 0 64.82 45.92"><defs><style>.cls-1{fill:#c05c59;opacity:0.11;}.cls-2,.cls-3,.cls-4,.cls-6{fill:none;}.cls-2,.cls-3,.cls-4,.cls-5,.cls-6{stroke:#c05c59;stroke-miterlimit:10;}.cls-2,.cls-5{stroke-width:0.36px;fill-rule:evenodd;}.cls-3{stroke-width:1.18px;}.cls-4{stroke-width:0.39px;}.cls-5{fill:#944844;}.cls-6{stroke-width:0.72px;}</style></defs><g id="Layer_2" data-name="Layer 2"><g id="black_green" data-name="black&amp;green"><path class="cls-1" d="M8.46,8.56a48.68,48.68,0,0,0,1,7.21s.27-.18.26-.27a48.35,48.35,0,0,1-1-7.2S8.45,8.47,8.46,8.56Z"/><path class="cls-1" d="M8.47,8.63a47.39,47.39,0,0,0,1,7.21c0-.06.24-.2.22-.3a50.08,50.08,0,0,1-1-7.2C8.71,8.4,8.46,8.53,8.47,8.63Z"/><path class="cls-1" d="M8.43,8.52a49,49,0,0,0,1,7.23s0,0,0,0l-1-7.21S8.43,8.5,8.43,8.52Z"/><path class="cls-1" d="M8.4,8.75a50,50,0,0,0,1,7.21s.09-.06.08-.08a50.18,50.18,0,0,1-1-7.22S8.4,8.72,8.4,8.75Z"/><path class="cls-1" d="M8.45,8.65a48.68,48.68,0,0,0,1,7.21c0-.08.31-.26.29-.38a48.35,48.35,0,0,1-1-7.2C8.76,8.37,8.44,8.52,8.45,8.65Z"/><path class="cls-1" d="M8.47,8.58a47.39,47.39,0,0,0,1,7.21s.28-.2.26-.3a50.08,50.08,0,0,1-1-7.2C8.75,8.35,8.46,8.48,8.47,8.58Z"/><path class="cls-1" d="M8.39,8.71a48.78,48.78,0,0,0,1,7.23s.19-.15.18-.23l-1-7.2S8.39,8.66,8.39,8.71Z"/><path class="cls-1" d="M8.46,8.58a47.39,47.39,0,0,0,1,7.21s.06,0,.06,0a48.63,48.63,0,0,1-1-7.22S8.45,8.56,8.46,8.58Z"/><path class="cls-1" d="M8.43,8.72a49.84,49.84,0,0,0,1,7.21c0-.06.24-.22.22-.32a50,50,0,0,1-1-7.21C8.67,8.48,8.42,8.61,8.43,8.72Z"/><path class="cls-1" d="M8.45,8.61a50.18,50.18,0,0,0,1,7.22c0-.07.31-.24.29-.35a48.35,48.35,0,0,1-1-7.2C8.76,8.36,8.44,8.5,8.45,8.61Z"/><path class="cls-1" d="M8.45,8.69a48.87,48.87,0,0,0,1,7.21c0-.05.21-.19.19-.28l-1-7.2C8.65,8.47,8.44,8.59,8.45,8.69Z"/><path class="cls-1" d="M8.42,8.76a50.18,50.18,0,0,0,1,7.22s.07,0,.06-.07a50,50,0,0,1-1-7.21S8.42,8.74,8.42,8.76Z"/><path class="cls-2" d="M53,30.3a2.52,2.52,0,0,0,1.24-3.6Z"/><path class="cls-2" d="M55.91,14.89a2.58,2.58,0,0,0,0-3.64Z"/><path class="cls-1" d="M54.25,27a2.4,2.4,0,0,1-.33,2.65c-.06.07,0,0,.07,0,.94-.83.81-1.68.4-3C54.41,26.74,54.21,26.92,54.25,27Z"/><path class="cls-1" d="M54.25,27.08a2.38,2.38,0,0,1-.18,2.48s-.21.26-.13.19c1-.83.85-1.74.45-3C54.39,26.75,54.23,27,54.25,27.08Z"/><path class="cls-1" d="M54.22,27a2.33,2.33,0,0,1-.35,2.69s0,0,0,0c.93-.76.76-1.55.37-2.73A0,0,0,0,0,54.22,27Z"/><path class="cls-1" d="M54.2,27.22l-.32,2.61s-.05.09,0,.06c1-.76.79-1.63.4-2.79C54.25,27.08,54.19,27.19,54.2,27.22Z"/><path class="cls-1" d="M54.24,27.1l-.14,2.43s-.27.31-.16.22c1-.83.84-1.88.47-3.09C54.44,26.76,54.2,27,54.24,27.1Z"/><path class="cls-1" d="M54.25,27,54,29.63s-.1.13,0,.07c1-.85.87-1.71.45-3C54.43,26.74,54.22,26.93,54.25,27Z"/><path class="cls-1" d="M54.2,27.19a2.25,2.25,0,0,1-.24,2.5s-.16.21-.1.17c1-.79.89-1.66.45-2.94C54.31,26.92,54.18,27.13,54.2,27.19Z"/><path class="cls-1" d="M54.25,27a2.35,2.35,0,0,1-.35,2.68s0,.05,0,0c1-.77.78-1.56.38-2.75C54.28,26.94,54.24,27,54.25,27Z"/><path class="cls-1" d="M54.23,27.19a2.27,2.27,0,0,1-.18,2.42c0,.05-.15.23-.17.25,1-.83.9-1.76.48-3.05C54.37,26.83,54.2,27.09,54.23,27.19Z"/><path class="cls-1" d="M54.24,27.07,54,29.66s-.1.14,0,.07c1-.84.84-1.85.47-3.07C54.43,26.75,54.2,27,54.24,27.07Z"/><path class="cls-1" d="M54.24,27.14a2.3,2.3,0,0,1-.2,2.48s-.2.25-.13.2c1-.81.87-1.73.45-3C54.36,26.84,54.22,27.07,54.24,27.14Z"/><path class="cls-1" d="M54.22,27.24l-.35,2.63s0,.05,0,0c1-.75.77-1.62.39-2.76C54.26,27.11,54.21,27.21,54.22,27.24Z"/><path class="cls-1" d="M53.87,23.27a30.61,30.61,0,0,0,.43-7.34c0,.08-.34.2-.34.32a30.43,30.43,0,0,1-.45,7.32C53.53,23.48,53.85,23.4,53.87,23.27Z"/><path class="cls-1" d="M53.9,23.33A30.16,30.16,0,0,0,54.32,16c0,.05-.32.14-.32.24a30.42,30.42,0,0,1-.44,7.32C53.56,23.49,53.88,23.43,53.9,23.33Z"/><path class="cls-1" d="M53.9,23.2a30.16,30.16,0,0,0,.43-7.35s-.11.07-.11.1a30.11,30.11,0,0,1-.43,7.34S53.9,23.23,53.9,23.2Z"/><path class="cls-1" d="M53.87,23.41a30.61,30.61,0,0,0,.43-7.34s0,0,0,0a30.61,30.61,0,0,1-.43,7.34S53.87,23.43,53.87,23.41Z"/><path class="cls-1" d="M53.85,23.36A30.11,30.11,0,0,0,54.28,16c0,.05-.34.14-.34.24a30.42,30.42,0,0,1-.44,7.32C53.51,23.52,53.84,23.46,53.85,23.36Z"/><path class="cls-1" d="M53.87,23.3A30.11,30.11,0,0,0,54.3,16c0,.07-.36.18-.36.3a30.42,30.42,0,0,1-.44,7.32C53.51,23.5,53.86,23.42,53.87,23.3Z"/><path class="cls-1" d="M53.88,23.37A30.7,30.7,0,0,0,54.31,16s-.17.06-.17.09l-.43,7.34S53.88,23.4,53.88,23.37Z"/><path class="cls-1" d="M53.93,23.25a30.61,30.61,0,0,0,.43-7.34s-.13.06-.13.09a30.61,30.61,0,0,1-.43,7.34S53.93,23.29,53.93,23.25Z"/><path class="cls-1" d="M53.89,23.38A30.61,30.61,0,0,0,54.32,16s-.25.08-.25.15a30.42,30.42,0,0,1-.44,7.32S53.88,23.45,53.89,23.38Z"/><path class="cls-1" d="M53.86,23.33A30.1,30.1,0,0,0,54.28,16c0,.06-.34.17-.34.27a30.42,30.42,0,0,1-.44,7.32C53.51,23.51,53.84,23.44,53.86,23.33Z"/><path class="cls-1" d="M53.91,23.35A30.11,30.11,0,0,0,54.34,16s-.26.09-.26.16a30,30,0,0,1-.44,7.33S53.9,23.42,53.91,23.35Z"/><path class="cls-1" d="M56.32,12c.25.6.53.57,1.19.71,0,0,0,0,0,0L56.36,12S56.31,12,56.32,12Z"/><path class="cls-1" d="M56.3,12.2c.25.61.55.58,1.2.7,0,0,0-.05,0-.05a1.07,1.07,0,0,1-1.16-.71S56.29,12.18,56.3,12.2Z"/><path class="cls-1" d="M56.34,12c.22.57.51.53,1.13.67,0,0,.1-.28.06-.3L56.77,12s-.14.08-.15.1c-.1.52,0,.41.63.52,0,0,0-.23,0-.24-.63-.13-.63-.31.27.35l.06-.3c-.53-.15-.76-.11-.9-.61C56.64,11.79,56.32,11.94,56.34,12Z"/><path class="cls-1" d="M56.35,12.07c.22.58.51.55,1.14.68,0,0,.1-.29.06-.31l-.8-.46s-.12.11-.12.13c-.11.53,0,.42.66.54,0,0,0-.25,0-.26-.83-.18-.44-.15.25.36l.06-.31c-.56-.15-.8-.11-.94-.64C56.61,11.83,56.32,12,56.35,12.07Z"/><path class="cls-1" d="M56.5,12.29c.06.34.4.22.81.3h0a.78.78,0,0,1-.82-.28S56.5,12.3,56.5,12.29Z"/><path class="cls-1" d="M56.28,12.19c.25.59.51.57,1.2.7,0,0,.05-.06,0-.08l-.93-.62,0,0c-.15.63.09.47.76.6,0,0,0,0,0,0-.83-.35-1-.41-.67-.18s.23.08-.28-.45C56.35,12.07,56.27,12.17,56.28,12.19Z"/><path class="cls-1" d="M56.33,12.09c.22.57.51.54,1.13.67,0,0,.11-.38.06-.41l-.74-.42s-.16.16-.16.18c-.1.53,0,.42.63.53,0,0,0-.32-.06-.33-.57-.12-.71-.3.27.45l.06-.41c-.52-.14-.74-.1-.87-.6C56.67,11.8,56.3,12,56.33,12.09Z"/><path class="cls-1" d="M56.35,12c.22.57.5.53,1.12.66,0,0,.09-.31.05-.34l-.74-.42s-.15.11-.15.14c-.09.51,0,.4.62.52,0,0,0-.27-.06-.28-.57-.12-.68-.32.28.38l.05-.34c-.52-.13-.74-.1-.87-.6C56.66,11.78,56.32,12,56.35,12Z"/><path class="cls-1" d="M56.27,12.17c.26.6.54.56,1.21.69,0,0,.1-.2.08-.22l-.94-.58s-.06.07-.07.09c-.15.6,0,.45.76.6,0,0,0-.16,0-.16l-.46-.1a.68.68,0,0,1-.4-.54S56.25,12.11,56.27,12.17Z"/><path class="cls-1" d="M56.34,12c.25.61.54.58,1.19.71,0,0,0,0,0,0l-.94-.64h0c-.15.6.1.46.75.59,0,0,0,0,0,0l-1-.63S56.33,12,56.34,12Z"/><path class="cls-1" d="M56.31,12.16c.24.59.53.56,1.18.69,0,0,.11-.3.07-.32L56.69,12s-.09.12-.09.14c-.16.6,0,.45.7.58,0,0,0-.25,0-.26-.91-.19-.81-.38.19.37l.07-.32c-.59-.15-.83-.11-1-.66C56.57,11.9,56.28,12.08,56.31,12.16Z"/><path class="cls-1" d="M56.34,12.06c.22.57.5.54,1.12.66,0,0,.1-.35.06-.37l-.74-.42s-.16.13-.16.16c-.09.52,0,.41.63.52,0,0,0-.29-.06-.31-.58-.12-.66-.27.27.42l.06-.37c-.52-.14-.74-.1-.87-.6C56.66,11.79,56.3,12,56.34,12.06Z"/><path class="cls-1" d="M56.33,12.13c.24.59.52.56,1.18.7,0,0,.1-.26.07-.28l-.9-.54s-.08.11-.08.12c-.16.6,0,.46.73.59,0,0,0-.21,0-.22-1-.21-.78-.39.18.33l.07-.28c-.61-.15-.85-.11-1-.67C56.55,11.9,56.3,12.06,56.33,12.13Z"/><path class="cls-1" d="M56.54,12.6a2.83,2.83,0,0,0,.78.19h0l-.82-.19Z"/><path class="cls-1" d="M4.38,41.24a3.07,3.07,0,0,1-2.14-.88l0,0a3.29,3.29,0,0,0,2.15.88S4.39,41.24,4.38,41.24Z"/><path class="cls-1" d="M4.37,41.11a2.4,2.4,0,0,1-2.29-1.48S2,39.45,2,39.57c.43,1.38,1.07,1.72,2.63,1.94C4.57,41.5,4.49,41.13,4.37,41.11Z"/><path class="cls-1" d="M4.39,41.18a2,2,0,0,1-2.3-1.51c0-.1-.07-.1,0,0,.4,1.28,1.16,1.6,2.56,1.79C4.56,41.46,4.49,41.19,4.39,41.18Z"/><path class="cls-1" d="M4.34,41A2.42,2.42,0,0,1,2,39.48c0-.09-.06-.08,0,0,.36,1.26,1,1.5,2.42,1.68C4.45,41.18,4.38,41,4.34,41Z"/><path class="cls-1" d="M4.39,41.21,2.16,39.87S2,39.55,2,39.66c.42,1.32,1.19,1.67,2.63,1.86C4.58,41.51,4.5,41.23,4.39,41.21Z"/><path class="cls-1" d="M4.38,41.15a2.42,2.42,0,0,1-2.29-1.49s-.09-.16,0,0c.42,1.37,1.07,1.7,2.62,1.91C4.58,41.51,4.51,41.17,4.38,41.15Z"/><path class="cls-1" d="M4.35,41.2a2.4,2.4,0,0,1-2.28-1.48S2,39.56,2,39.61c.38,1.3,1.08,1.55,2.49,1.74A.42.42,0,0,0,4.35,41.2Z"/><path class="cls-1" d="M4.38,41.09a2.41,2.41,0,0,1-2.32-1.55c0-.08-.05-.07,0,0C2.4,40.81,3.08,41,4.45,41.21,4.48,41.22,4.41,41.09,4.38,41.09Z"/><path class="cls-1" d="M4.38,41.23A2.43,2.43,0,0,1,2.1,39.77S2,39.57,2,39.65c.39,1.29,1.1,1.58,2.53,1.77C4.56,41.42,4.44,41.23,4.38,41.23Z"/><path class="cls-1" d="M4.38,41.18a2,2,0,0,1-2.26-1.4S2,39.5,2,39.64C2.45,41,3.2,41.33,4.66,41.52,4.58,41.51,4.5,41.2,4.38,41.18Z"/><path class="cls-1" d="M4.39,41.2a2.41,2.41,0,0,1-2.3-1.51s-.09-.17,0,0c.39,1.3,1,1.55,2.51,1.75C4.56,41.4,4.45,41.21,4.39,41.2Z"/><path class="cls-2" d="M55.88,11.25l0,3.64S70.1,19.71,54,26.7l-1.24,3.6S77.27,20.78,55.88,11.25Z"/><path class="cls-1" d="M55.05,27c1.35-.9,2.78-1.66,4.14-2.55a5.93,5.93,0,0,0,2.19-1.93A5.44,5.44,0,0,0,62.19,20s0,0,0,0c-.65,3.72-4.48,5.21-7.16,7C55,27,55,27,55.05,27Z"/><path class="cls-1" d="M55,27c2-1.29,5-2.42,6.34-4.48a4.59,4.59,0,0,0,.55-3.85s0,0,0,0c.92,4.89-4,6.33-6.91,8.29C55,27,55,27,55,27Z"/><path class="cls-1" d="M55,26.85c2.19-1.45,6.15-2.81,6.94-5.67,1-3.6-2.39-5.19-5.25-6.07a.69.69,0,0,0-.08.32c2,.61,5.34,1.82,5.17,4.53-.23,3.62-4.52,5.12-7.17,6.88C54.62,26.83,54.92,26.9,55,26.85Z"/><path class="cls-1" d="M55.05,26.9c2.3-1.52,7.41-3.37,7.14-7-.22-2.89-3.09-4-5.49-4.77,0,0-.11.23-.09.24,2.47.76,6.31,2.53,5,5.84-1.15,2.83-4.53,4-6.93,5.63C54.7,26.81,55,27,55.05,26.9Z"/><path class="cls-1" d="M55,26.82c2.46-1.63,6.48-3,7-6.34S59.24,15.81,56.68,15c0,0,0,.06,0,.07a11.18,11.18,0,0,1,3.51,1.51l1,.85a2.32,2.32,0,0,1,.72,2.38c0,2-.47,2.4-2.09,3.72A56.43,56.43,0,0,1,55,26.8S55,26.83,55,26.82Z"/><path class="cls-1" d="M55,26.92c2.5-1.65,6.48-3,7-6.32S59.18,16,56.68,15.19c0,0-.11.25-.09.26,2.39.73,5.62,2.06,5,5.14-.61,3.24-4.62,4.65-7,6.26C54.64,26.8,54.9,27,55,26.92Z"/><path class="cls-1" d="M55,26.87c2.43-1.61,6.48-3,7-6.32s-2.86-4.64-5.36-5.41a.57.57,0,0,0-.1.31c2.39.73,5.62,2.06,5,5.14a5.19,5.19,0,0,1-2.09,3.16c-1.48,1.17-3.37,2-5,3.1C54.65,26.79,54.9,26.94,55,26.87Z"/><path class="cls-1" d="M55,27c2.64-1.75,7.83-3.57,7-7.67-.5-2.53-3.21-3.45-5.38-4.12,0,0-.06.09,0,.1,3.65,1.11,6.57,3.18,4.82,6.56-1.23,2.39-4.44,3.62-6.62,5.07C54.81,26.91,55,27,55,27Z"/><path class="cls-1" d="M55.07,26.86c2.53-1.68,7.21-3.29,7.15-7,0-2.91-3.23-4.08-5.51-4.78,0,0-.06.06,0,.07,3.42,1.05,7.13,3.37,4.59,7.22-1.38,2.1-4.31,3.14-6.33,4.48C54.92,26.85,55,26.87,55.07,26.86Z"/><path class="cls-1" d="M55.05,27c2.51-1.66,6.47-3,7-6.33S59.22,16,56.69,15.19c0,0-.09.14-.07.14,2.45.75,5.74,2.12,5.15,5.27s-4.61,4.66-7.05,6.28C54.76,26.86,55,27,55.05,27Z"/><path class="cls-1" d="M55,26.89c2.5-1.65,6.47-3,7-6.32s-2.85-4.63-5.35-5.4c0,0-.12.27-.09.28,2.39.73,5.62,2.06,5,5.14-.61,3.24-4.63,4.65-7,6.26C54.64,26.8,54.9,27,55,26.89Z"/><path class="cls-1" d="M55.07,26.94c2.44-1.61,6.48-3,7-6.33s-2.88-4.68-5.41-5.45c0,0-.09.15-.08.15,2.46.75,5.76,2.12,5.17,5.28s-4.54,4.62-7,6.29C54.78,26.85,55,27,55.07,26.94Z"/><path class="cls-1" d="M54.82,29.23c.46-.79.35-.4.43-1.14,0,0,0,0,0,0l-.42,1.15S54.82,29.24,54.82,29.23Z"/><path class="cls-1" d="M54.81,29.22c.64-1.13.37-1.53-.27-2.58,0,0,0,0,0,0l.23,2.53S54.79,29.24,54.81,29.22Z"/><path class="cls-1" d="M54.83,29c.65-1.13.41-1.49-.26-2.58,0,0-.09.07-.08.09a2.2,2.2,0,0,1,.3,1.66l0,0c-.05-1.08,0-1.2.15-.35a.89.89,0,0,1-.23,1.19C54.7,29.11,54.82,29.05,54.83,29Z"/><path class="cls-1" d="M54.79,29.09c.61-1.05.42-1.45-.23-2.53,0,0-.3.28-.27.35l-.2,2.7s0,0,.06,0a3,3,0,0,0,.41-3.06l-.27.35c.55,1,.78,1.25.12,2.35C54.42,29.24,54.74,29.18,54.79,29.09Z"/><path class="cls-1" d="M54.83,29.13c.63-1.08.39-1.46-.24-2.52,0,0-.3.21-.27.25a2.27,2.27,0,0,1-.21,2.78s0,.05,0,0a2.92,2.92,0,0,0,.46-3.05l-.27.25c.57,1,.73,1.39.13,2.4C54.49,29.19,54.77,29.23,54.83,29.13Z"/><path class="cls-1" d="M54.79,29.16c.62-1.07.39-1.45-.24-2.51,0,0-.3.23-.27.28a2.22,2.22,0,0,1-.17,2.7s0,.09,0,0a2.85,2.85,0,0,0,.43-3l-.27.28c.55,1,.71,1.36.1,2.36C54.42,29.22,54.73,29.26,54.79,29.16Z"/><path class="cls-1" d="M54.8,29.1c.63-1.07.4-1.45-.23-2.51,0,0-.32.27-.29.34a2.18,2.18,0,0,1-.19,2.7s0,0,.06,0a3,3,0,0,0,.42-3l-.29.34c.55,1,.77,1.25.1,2.36C54.43,29.2,54.73,29.22,54.8,29.1Z"/><path class="cls-1" d="M54.82,29.18c.6-1.07.41-1.47-.26-2.56,0,0-.15.06-.14.09.65,1.27.53,2.28-.37,3,0,0,0,0,0,0a1.65,1.65,0,0,0,.72-1.4,2.7,2.7,0,0,0,0-.9c.64.19-.21,1.81-.19,1.77S54.8,29.21,54.82,29.18Z"/><path class="cls-1" d="M54.86,29.07c.65-1.12.42-1.46-.26-2.57,0,0-.11.07-.1.1.63,1.28.49,2.3-.41,3a0,0,0,0,0,0,0,1.66,1.66,0,0,0,.75-1.41,3,3,0,0,0,0-.9c0-.08,0,0,.17.12a1.5,1.5,0,0,1-.3,1.64S54.85,29.1,54.86,29.07Z"/><path class="cls-1" d="M54.83,29.19c.63-1.09.39-1.48-.26-2.55,0,0-.23.12-.21.15a2.37,2.37,0,0,1-.28,2.92s0,.07,0,0c.33-.37,1.35-1.8.75-2.3.47.39-.13,1.49-.31,1.8C54.55,29.22,54.79,29.26,54.83,29.19Z"/><path class="cls-1" d="M54.79,29.13c.62-1.07.39-1.45-.24-2.51,0,0-.3.25-.27.31a2.19,2.19,0,0,1-.19,2.7c0,.05,0,0,.06,0a2.94,2.94,0,0,0,.4-3l-.27.31c.55,1,.7,1.36.1,2.36C54.43,29.21,54.72,29.24,54.79,29.13Z"/><path class="cls-1" d="M54.85,29.16c.63-1.1.39-1.48-.26-2.55,0,0-.24.13-.22.16a2.34,2.34,0,0,1-.29,2.93s0,.05,0,0a2.44,2.44,0,0,0,.74-1.86c.1-.76.06-.32.08,0a1.82,1.82,0,0,1-.38,1.36S54.81,29.23,54.85,29.16Z"/><path class="cls-1" d="M57.15,12.41l2.75,1.17s-.08-.28-.16-.31L57,12.1S57.08,12.38,57.15,12.41Z"/><path class="cls-1" d="M57.2,12.5l2.74,1.16c-.07,0-.08-.31-.19-.36L57,12.14C57.09,12.17,57.09,12.45,57.2,12.5Z"/><path class="cls-1" d="M57.16,12.4l2.75,1.17s0,0,0,0l-2.75-1.16S57.14,12.39,57.16,12.4Z"/><path class="cls-1" d="M57.18,12.62l2.75,1.17s0-.11,0-.12l-2.76-1.16S57.15,12.61,57.18,12.62Z"/><path class="cls-1" d="M57.17,12.51l2.75,1.16c-.09,0-.08-.38-.2-.43L57,12.08C57.07,12.11,57.06,12.46,57.17,12.51Z"/><path class="cls-1" d="M57.17,12.44l2.75,1.17c-.08,0-.09-.32-.2-.37L57,12.08C57.06,12.11,57.07,12.4,57.17,12.44Z"/><path class="cls-1" d="M57.18,12.59l2.76,1.17s0-.24-.1-.27l-2.75-1.16S57.13,12.57,57.18,12.59Z"/><path class="cls-1" d="M57.19,12.45l2.75,1.17s0-.07,0-.08l-2.75-1.16S57.17,12.44,57.19,12.45Z"/><path class="cls-1" d="M57.2,12.59l2.74,1.17c-.07,0-.06-.34-.17-.38L57,12.21C57.11,12.24,57.1,12.55,57.2,12.59Z"/><path class="cls-1" d="M57.17,12.47l2.74,1.17c-.08,0-.08-.35-.19-.4L57,12.08C57.06,12.11,57.06,12.42,57.17,12.47Z"/><path class="cls-1" d="M57.22,12.56,60,13.73c-.07,0-.07-.3-.17-.34l-2.73-1.16C57.12,12.25,57.12,12.52,57.22,12.56Z"/><path class="cls-1" d="M57.2,12.65,60,13.81s0-.09,0-.1l-2.75-1.17S57.18,12.64,57.2,12.65Z"/><path class="cls-1" d="M53.12,37.38a19.38,19.38,0,0,1,6.71,1.55s-.14-.23-.22-.26a20.15,20.15,0,0,0-6.75-1.53S53,37.37,53.12,37.38Z"/><path class="cls-1" d="M53.17,37.45A14.66,14.66,0,0,1,59.87,39s-.14-.26-.23-.3a20.74,20.74,0,0,0-6.76-1.53C53,37.18,53.06,37.44,53.17,37.45Z"/><path class="cls-1" d="M53.14,37.36a14.65,14.65,0,0,1,6.71,1.56,0,0,0,0,0,0,0,20.34,20.34,0,0,0-6.74-1.56S53.11,37.36,53.14,37.36Z"/><path class="cls-1" d="M53.16,37.56a14.66,14.66,0,0,1,6.72,1.56s0-.08-.05-.09a19.86,19.86,0,0,0-6.72-1.55S53.14,37.56,53.16,37.56Z"/><path class="cls-1" d="M53.14,37.46A14.67,14.67,0,0,1,59.84,39s-.15-.32-.25-.36a20.66,20.66,0,0,0-6.77-1.52C52.91,37.13,53,37.45,53.14,37.46Z"/><path class="cls-1" d="M53.14,37.4A14.69,14.69,0,0,1,59.84,39s-.15-.26-.25-.3a20.67,20.67,0,0,0-6.76-1.52C52.91,37.13,53,37.39,53.14,37.4Z"/><path class="cls-1" d="M53.16,37.53a19.68,19.68,0,0,1,6.71,1.56s-.07-.2-.12-.22A20.11,20.11,0,0,0,53,37.33S53.11,37.53,53.16,37.53Z"/><path class="cls-1" d="M53.17,37.41A14.61,14.61,0,0,1,59.88,39s0-.07,0-.08a20,20,0,0,0-6.73-1.55S53.15,37.41,53.17,37.41Z"/><path class="cls-1" d="M53.18,37.54l6.7,1.55s-.12-.28-.21-.32a20.91,20.91,0,0,0-6.75-1.53C53,37.24,53.07,37.53,53.18,37.54Z"/><path class="cls-1" d="M53.13,37.43A14.6,14.6,0,0,1,59.84,39s-.15-.29-.25-.33a20.75,20.75,0,0,0-6.77-1.52C52.91,37.13,53,37.42,53.13,37.43Z"/><path class="cls-1" d="M53.2,37.51a14.65,14.65,0,0,1,6.69,1.55s-.12-.24-.2-.28a20.63,20.63,0,0,0-6.75-1.53C53,37.25,53.09,37.5,53.2,37.51Z"/><path class="cls-1" d="M53.18,37.59a14.51,14.51,0,0,1,6.72,1.56s0-.08,0-.09a20,20,0,0,0-6.72-1.55S53.16,37.59,53.18,37.59Z"/><path class="cls-1" d="M54.87,29.25,60.12,26c-.07,0-.31-.11-.41-.05L54.47,29.2C54.54,29.16,54.77,29.31,54.87,29.25Z"/><path class="cls-1" d="M54.91,29.31,60.16,26c-.06,0-.31-.15-.41-.1l-5.24,3.28C54.57,29.18,54.82,29.37,54.91,29.31Z"/><path class="cls-1" d="M54.89,29.23,60.14,26s0,0-.06,0L54.83,29.2S54.87,29.24,54.89,29.23Z"/><path class="cls-1" d="M54.9,29.41l5.25-3.29s0-.05,0,0l-5.25,3.29S54.88,29.42,54.9,29.41Z"/><path class="cls-1" d="M54.87,29.33l5.25-3.28c-.06,0-.33-.18-.43-.12L54.45,29.2C54.51,29.16,54.78,29.39,54.87,29.33Z"/><path class="cls-1" d="M54.88,29.28,60.12,26c-.07,0-.33-.14-.43-.07L54.45,29.2C54.52,29.16,54.78,29.34,54.88,29.28Z"/><path class="cls-1" d="M54.91,29.37l5.25-3.28S60,26,59.94,26l-5.25,3.28S54.86,29.4,54.91,29.37Z"/><path class="cls-1" d="M54.93,29.27,60.18,26s-.09,0-.12,0l-5.25,3.28S54.91,29.29,54.93,29.27Z"/><path class="cls-1" d="M54.92,29.38l5.24-3.28s-.26-.17-.34-.12l-5.23,3.27S54.84,29.43,54.92,29.38Z"/><path class="cls-1" d="M54.87,29.3,60.11,26c-.06.05-.32-.15-.42-.09L54.45,29.2C54.51,29.16,54.77,29.36,54.87,29.3Z"/><path class="cls-1" d="M54.94,29.36l5.24-3.28s-.26-.15-.33-.1l-5.24,3.27S54.86,29.4,54.94,29.36Z"/><path class="cls-1" d="M54.92,29.42l5.25-3.28s0,0,0,0l-5.25,3.28S54.9,29.43,54.92,29.42Z"/><path class="cls-1" d="M56.61,12.44a5,5,0,0,1-.45,2.34s0,0,.05,0a5.23,5.23,0,0,0,.45-2.34S56.61,12.42,56.61,12.44Z"/><path class="cls-1" d="M56.6,12.67A5.19,5.19,0,0,1,56.15,15s.05,0,.06,0a5.27,5.27,0,0,0,.45-2.35S56.6,12.64,56.6,12.67Z"/><path class="cls-1" d="M56.58,12.66,56.13,15c0,.06.07,0,.08-.05l.62-1.07h0c-.16,0-.24,0-.23-.07a8.08,8.08,0,0,0,.09-1.2S56.58,12.63,56.58,12.66Z"/><path class="cls-1" d="M56.64,12.48l-.45,2.31s.25-.14.29-.22c.67-1.29.51-.61.49-2.1,0,0-.07,0-.07,0a7,7,0,0,1-.64,2,.36.36,0,0,0,.18-.11c1-3,.28.65.47-2.18C56.91,12.29,56.64,12.37,56.64,12.48Z"/><path class="cls-1" d="M56.65,12.53a5.19,5.19,0,0,1-.45,2.33s.22-.17.25-.25c.69-1.3.52-.62.52-2.12,0-.05-.06,0-.06,0l-.64,2s.13-.08.14-.13a5.93,5.93,0,0,0,.47-1.34c-.14.77-.14.5,0-.82C56.89,12.28,56.65,12.45,56.65,12.53Z"/><path class="cls-1" d="M56.24,14.53v0S56.23,14.53,56.24,14.53Z"/><path class="cls-1" d="M56.22,14.7v0Z"/><path class="cls-1" d="M56.63,12.56l-.45,2.32s.27-.22.32-.32c.66-1.29.5-.62.49-2.11,0,0-.09.07-.09.08l-.64,2s.17-.11.19-.18c-.05.15.62-2,.43-1.16-.08.29-.14,1.79,0-1C56.93,12.31,56.64,12.43,56.63,12.56Z"/><path class="cls-1" d="M56.65,12.5l-.45,2.31s.26-.17.3-.25c.66-1.29.5-.62.48-2.1,0,0-.07,0-.07,0a6.84,6.84,0,0,1-.64,2,.44.44,0,0,0,.18-.13c1-3,.28.64.48-2.18C56.92,12.29,56.65,12.38,56.65,12.5Z"/><path class="cls-1" d="M56.57,12.63A5.06,5.06,0,0,1,56.12,15a1.38,1.38,0,0,0,.2-.18c.75-1.37.55-.66.61-2.24,0,0,0,0-.06,0a7,7,0,0,1-.66,2.07s.08,0,.09-.05c.5-1.42.64-1.81.44-1.16s-.16.25,0-1C56.76,12.42,56.58,12.57,56.57,12.63Z"/><path class="cls-1" d="M56.63,12.48a5.06,5.06,0,0,1-.44,2.34s.05,0,.06,0c.82-1.43.59-.66.68-2.31l0,0a6.8,6.8,0,0,1-.66,2.06s0,0,0,0c.55-1.44.69-1.81.43-1.14s-.21.29,0-1C56.7,12.42,56.64,12.46,56.63,12.48Z"/><path class="cls-1" d="M56.61,12.62A5.19,5.19,0,0,1,56.16,15s.21-.2.25-.28c.7-1.3.52-.64.54-2.16,0,0-.05.06-.06.07a6.46,6.46,0,0,1-.65,2.05c0,.07.11-.07.12-.1.45-1.42.6-1.81.44-1.18s-.11.23,0-1C56.84,12.36,56.61,12.53,56.61,12.62Z"/><path class="cls-1" d="M56.63,12.53l-.44,2.32s.27-.2.31-.29c.66-1.29.5-.62.49-2.11,0,0-.09.05-.09.08a7,7,0,0,1-.64,2s.17-.1.19-.16c1-3,.29.63.48-2.19C56.93,12.29,56.64,12.4,56.63,12.53Z"/><path class="cls-1" d="M56.62,12.59a5,5,0,0,1-.44,2.33,2.61,2.61,0,0,0,.22-.23c.71-1.32.53-.64.56-2.18,0,0-.05,0-.06.05a6.6,6.6,0,0,1-.65,2.06c0,.05.09,0,.1-.08.47-1.42.62-1.81.44-1.17s-.12.22,0-1C56.83,12.36,56.63,12.52,56.62,12.59Z"/><ellipse class="cls-3" cx="32.03" cy="40.04" rx="31.44" ry="5.28"/><ellipse class="cls-4" cx="32.03" cy="39.93" rx="14.24" ry="2.37"/><path class="cls-5" d="M55.41,5.2s3.74,25-10,34.22a4.26,4.26,0,0,1-2.38.71H21.16a4.27,4.27,0,0,1-2.66-.94C5.44,28.59,8.29,5.2,8.29,5.2"/><ellipse class="cls-6" cx="31.85" cy="5.2" rx="23.56" ry="4.84"/><path class="cls-1" d="M19.66,39l-2.2-1.88,0,0L19.63,39Z"/><path class="cls-1" d="M19.65,38.87a11.48,11.48,0,0,1-3.86-4.21,11.65,11.65,0,0,1-2.68-5c0,.05-.07.36,0,.47a20.13,20.13,0,0,0,2.55,5.18,25.46,25.46,0,0,0,4.08,4.09C19.64,39.3,19.75,39,19.65,38.87Z"/><path class="cls-1" d="M19.67,38.94a19.31,19.31,0,0,1-6.53-9.24,1.11,1.11,0,0,0-.05.36,21.21,21.21,0,0,0,3.48,6.27c1.55,1.84.58.8,3.15,3C19.67,39.27,19.75,39,19.67,38.94Z"/><path class="cls-1" d="M19.64,38.77a19.36,19.36,0,0,1-6.53-9.25.37.37,0,0,0,0,.17,24.94,24.94,0,0,0,1.77,3.94A20.43,20.43,0,0,0,19.65,39S19.67,38.79,19.64,38.77Z"/><path class="cls-1" d="M19.65,39a19.4,19.4,0,0,1-6.54-9.24s-.06.29,0,.38a21.31,21.31,0,0,0,3.48,6.27c1.56,1.84.59.81,3.15,3C19.66,39.33,19.74,39.06,19.65,39Z"/><path class="cls-1" d="M19.66,38.91A11.48,11.48,0,0,1,15.8,34.7a11.54,11.54,0,0,1-2.68-5s-.08.34,0,.45a20.46,20.46,0,0,0,2.55,5.18,24.67,24.67,0,0,0,4.09,4.08C19.65,39.32,19.76,39,19.66,38.91Z"/><path class="cls-1" d="M19.64,39a19.47,19.47,0,0,1-6.54-9.26.59.59,0,0,0,0,.17,25.29,25.29,0,0,0,1.78,3.93,20.65,20.65,0,0,0,4.8,5.33S19.67,39,19.64,39Z"/><path class="cls-1" d="M19.67,38.84a19.31,19.31,0,0,1-6.53-9.25s-.05.11,0,.15a24.83,24.83,0,0,0,1.77,3.93A20.29,20.29,0,0,0,19.68,39S19.7,38.86,19.67,38.84Z"/><path class="cls-1" d="M19.66,39a17.33,17.33,0,0,1-6.54-9.25.74.74,0,0,0,0,.24,17.51,17.51,0,0,0,2.53,5.17,17.33,17.33,0,0,0,4.07,4.08A.44.44,0,0,0,19.66,39Z"/><path class="cls-1" d="M19.65,39a19.4,19.4,0,0,1-6.54-9.24s-.06.31,0,.42a21.44,21.44,0,0,0,3.48,6.27c1.56,1.84.58.8,3.16,3C19.66,39.33,19.74,39,19.65,39Z"/><path class="cls-1" d="M19.67,39a17.06,17.06,0,0,1-4.05-4.08,17.5,17.5,0,0,1-2.48-5.17s-.07.19,0,.25a17.71,17.71,0,0,0,6.59,9.26S19.72,39,19.67,39Z"/><path class="cls-1" d="M25.07,41l12.27-.05c-.07,0-.18-.24-.29-.24l-12.27,0C24.85,40.75,25,41,25.07,41Z"/><path class="cls-1" d="M25.11,41.06,37.38,41c-.07,0-.18-.28-.29-.28l-12.28.05C24.89,40.78,25,41.06,25.11,41.06Z"/><path class="cls-1" d="M25.07,41l12.28,0s0,0,0,0l-12.28,0S25.05,41,25.07,41Z"/><path class="cls-1" d="M25.1,41.17l12.27-.05s0-.09,0-.09l-12.27,0S25.07,41.17,25.1,41.17Z"/><path class="cls-1" d="M25.08,41.07l12.27,0c-.08,0-.19-.34-.32-.34l-12.27,0C24.84,40.73,25,41.07,25.08,41.07Z"/><path class="cls-1" d="M25.08,41l12.27,0c-.08,0-.2-.28-.31-.28l-12.27,0C24.84,40.73,25,41,25.08,41Z"/><path class="cls-1" d="M25.11,41.14l12.27,0s-.1-.21-.17-.21l-12.28.06S25,41.14,25.11,41.14Z"/><path class="cls-1" d="M25.11,41,37.39,41s0-.08-.07-.08L25.05,41S25.09,41,25.11,41Z"/><path class="cls-1" d="M25.12,41.15l12.27,0c-.06,0-.16-.31-.26-.31l-12.27.06C24.92,40.84,25,41.15,25.12,41.15Z"/><path class="cls-1" d="M25.07,41l12.28,0c-.08,0-.2-.31-.32-.31l-12.27,0C24.84,40.73,25,41,25.07,41Z"/><path class="cls-1" d="M25.13,41.12l12.28,0c-.06,0-.16-.27-.26-.27l-12.27.05C24.94,40.85,25,41.12,25.13,41.12Z"/><path class="cls-1" d="M25.12,41.2l12.28-.06s0-.08,0-.08l-12.27,0S25.1,41.2,25.12,41.2Z"/></g></g></svg>