<svg xmlns="http://www.w3.org/2000/svg" viewBox="0 0 63.83 45.21"><defs><style>.cls-1{fill:#509c58;opacity:0.11;}.cls-2,.cls-3,.cls-4,.cls-6{fill:none;}.cls-2,.cls-3,.cls-4,.cls-5,.cls-6{stroke:#509c58;stroke-miterlimit:10;}.cls-2{stroke-width:1.16px;}.cls-3{stroke-width:0.39px;}.cls-4,.cls-5{stroke-width:0.35px;fill-rule:evenodd;}.cls-5{fill:#3c7643;}.cls-6{stroke-width:0.71px;}</style></defs><g id="Layer_2" data-name="Layer 2"><g id="black_green" data-name="black&amp;green"><path class="cls-1" d="M6.34,40.61a3,3,0,0,1-2.1-.86l0,0a3.19,3.19,0,0,0,2.12.86S6.36,40.61,6.34,40.61Z"/><path class="cls-1" d="M6.33,40.48A2.35,2.35,0,0,1,4.08,39S4,38.85,4,39c.41,1.37,1,1.7,2.58,1.91C6.53,40.86,6.46,40.5,6.33,40.48Z"/><path class="cls-1" d="M6.36,40.55a2,2,0,0,1-2.27-1.49c0-.1-.06-.1,0,0,.4,1.26,1.14,1.58,2.52,1.76C6.52,40.82,6.46,40.56,6.36,40.55Z"/><path class="cls-1" d="M6.31,40.39A2.38,2.38,0,0,1,4,38.88c0-.09-.05-.08,0,0,.36,1.23,1,1.47,2.39,1.65C6.42,40.55,6.34,40.4,6.31,40.39Z"/><path class="cls-1" d="M6.35,40.58,4.16,39.26S4,39,4,39.06c.4,1.3,1.16,1.63,2.58,1.83C6.54,40.88,6.47,40.6,6.35,40.58Z"/><path class="cls-1" d="M6.35,40.52a2.39,2.39,0,0,1-2.26-1.46S4,38.89,4,39c.42,1.35,1.06,1.68,2.58,1.89C6.54,40.88,6.47,40.54,6.35,40.52Z"/><path class="cls-1" d="M6.32,40.57a2.35,2.35,0,0,1-2.25-1.46S4,39,4,39c.38,1.27,1.07,1.52,2.45,1.7C6.46,40.72,6.36,40.57,6.32,40.57Z"/><path class="cls-1" d="M6.35,40.46a2.39,2.39,0,0,1-2.29-1.53c0-.07,0-.06,0,0,.37,1.24,1,1.47,2.38,1.64C6.44,40.59,6.38,40.46,6.35,40.46Z"/><path class="cls-1" d="M6.35,40.59A2.36,2.36,0,0,1,4.1,39.16S4,39,4,39c.39,1.27,1.09,1.56,2.49,1.74C6.52,40.78,6.4,40.6,6.35,40.59Z"/><path class="cls-1" d="M6.35,40.55a2,2,0,0,1-2.23-1.38S4,38.9,4,39c.41,1.31,1.15,1.66,2.6,1.86C6.54,40.88,6.47,40.57,6.35,40.55Z"/><path class="cls-1" d="M6.36,40.57a2.38,2.38,0,0,1-2.27-1.49S4,38.91,4,39c.38,1.28,1,1.53,2.47,1.73C6.52,40.77,6.41,40.57,6.36,40.57Z"/><ellipse class="cls-2" cx="31.54" cy="39.43" rx="30.96" ry="5.2"/><ellipse class="cls-3" cx="31.54" cy="39.32" rx="14.02" ry="2.34"/><path class="cls-4" d="M55,11.08l0,3.58s14,4.74-1.86,11.63L52,29.83S76.08,20.46,55,11.08Z"/><path class="cls-4" d="M52.14,29.83a2.47,2.47,0,0,0,1.23-3.54Z"/><path class="cls-5" d="M54.56,5.3S58.24,29.89,44.75,39a4.15,4.15,0,0,1-2.34.7H20.83a4.14,4.14,0,0,1-2.61-.93C5.35,28.34,8.17,5.3,8.17,5.3"/><path class="cls-4" d="M55.05,14.66a2.53,2.53,0,0,0,0-3.58Z"/><ellipse class="cls-6" cx="31.36" cy="5.12" rx="23.2" ry="4.76"/><path class="cls-1" d="M54.2,26.6c1.86-1.23,4-2.13,5.57-3.73a5,5,0,0,0,1.47-3.18s0,0,0,0c-.64,3.66-4.42,5.13-7,6.87C54.16,26.58,54.19,26.61,54.2,26.6Z"/><path class="cls-1" d="M54.18,26.58c1.93-1.28,4.89-2.39,6.24-4.42A4.49,4.49,0,0,0,61,18.37s0,0,0,0c.91,4.81-3.9,6.23-6.8,8.15C54.12,26.56,54.16,26.59,54.18,26.58Z"/><path class="cls-1" d="M54.15,26.44C56.31,25,60.21,23.67,61,20.86c1-3.55-2.35-5.11-5.17-6,0,0-.11.3-.08.31,2,.61,5.26,1.8,5.09,4.46-.23,3.57-4.45,5.05-7,6.78C53.78,26.42,54.08,26.49,54.15,26.44Z"/><path class="cls-1" d="M54.2,26.49c2.27-1.5,7.31-3.32,7-6.88-.22-2.84-3.05-4-5.4-4.69,0,0-.11.23-.09.23,2.42.75,6.2,2.49,4.88,5.75-1.14,2.79-4.46,4-6.83,5.54C53.87,26.4,54.11,26.55,54.2,26.49Z"/><path class="cls-1" d="M54.19,26.41c2.42-1.61,6.38-3,6.94-6.25s-2.8-4.59-5.32-5.37c0,0,0,.06,0,.07a11.08,11.08,0,0,1,3.46,1.48l1,.85a2.27,2.27,0,0,1,.7,2.34c0,2-.46,2.36-2.05,3.66a56.35,56.35,0,0,1-4.75,3.2S54.17,26.42,54.19,26.41Z"/><path class="cls-1" d="M54.16,26.51c2.46-1.63,6.37-3,6.93-6.23S58.28,15.72,55.81,15c0,0-.11.24-.08.25,2.35.72,5.53,2,5,5.07s-4.56,4.57-7,6.16C53.8,26.39,54.06,26.57,54.16,26.51Z"/><path class="cls-1" d="M54.17,26.46c2.39-1.59,6.38-3,6.93-6.23s-2.81-4.56-5.28-5.32c0,0-.12.29-.09.3,2.35.72,5.53,2,5,5.07s-4.49,4.52-6.94,6.16C53.81,26.38,54.06,26.53,54.17,26.46Z"/><path class="cls-1" d="M54.19,26.55C56.8,24.82,61.91,23,61.11,19c-.5-2.5-3.17-3.41-5.31-4.06,0,0-.06.08,0,.09,3.59,1.1,6.46,3.13,4.74,6.47-1.21,2.35-4.38,3.56-6.52,5C54,26.5,54.16,26.57,54.19,26.55Z"/><path class="cls-1" d="M54.23,26.44c2.49-1.65,7.09-3.23,7-6.9,0-2.86-3.18-4-5.43-4.7,0,0-.05.06,0,.07,3.37,1,7,3.31,4.52,7.11-1.36,2.06-4.24,3.09-6.23,4.41C54.08,26.44,54.2,26.46,54.23,26.44Z"/><path class="cls-1" d="M54.21,26.56c2.47-1.64,6.37-2.95,6.92-6.24s-2.82-4.6-5.31-5.36c0,0-.09.13-.07.14,2.41.74,5.66,2.08,5.07,5.19s-4.53,4.58-6.94,6.18C53.92,26.44,54.13,26.61,54.21,26.56Z"/><path class="cls-1" d="M54.16,26.48c2.46-1.63,6.37-2.95,6.92-6.22s-2.8-4.56-5.27-5.33c0,0-.11.28-.08.28,2.35.73,5.53,2,5,5.07s-4.56,4.57-7,6.16C53.8,26.39,54.06,26.55,54.16,26.48Z"/><path class="cls-1" d="M54.23,26.53c2.4-1.59,6.38-3,6.92-6.24s-2.83-4.6-5.32-5.36c0,0-.09.14-.07.15,2.41.74,5.66,2.08,5.08,5.2s-4.47,4.54-6.94,6.19C53.94,26.44,54.15,26.58,54.23,26.53Z"/><path class="cls-1" d="M53.42,26.6a2.37,2.37,0,0,1-.32,2.61c-.08.08.12-.07.12-.07.89-.78.71-1.7.34-2.87C53.58,26.34,53.38,26.5,53.42,26.6Z"/><path class="cls-1" d="M53.42,26.66a2.32,2.32,0,0,1-.18,2.45s-.2.25-.12.18c1-.81.83-1.71.43-3C53.56,26.34,53.4,26.58,53.42,26.66Z"/><path class="cls-1" d="M53.39,26.57a2.32,2.32,0,0,1-.34,2.65s0,0,0,0c.92-.75.76-1.53.37-2.69A0,0,0,0,0,53.39,26.57Z"/><path class="cls-1" d="M53.37,26.8l-.32,2.57s0,.09,0,.07c1-.75.78-1.61.4-2.75C53.42,26.66,53.36,26.77,53.37,26.8Z"/><path class="cls-1" d="M53.41,26.69l-.14,2.39s-.26.3-.16.22c1-.82.83-1.86.46-3.05C53.6,26.35,53.37,26.56,53.41,26.69Z"/><path class="cls-1" d="M53.42,26.62l-.27,2.56s-.1.13,0,.06c1-.83.86-1.68.45-3C53.59,26.33,53.39,26.51,53.42,26.62Z"/><path class="cls-1" d="M53.37,26.77a2.23,2.23,0,0,1-.23,2.47s-.17.21-.11.16c1-.78.88-1.63.45-2.89C53.48,26.51,53.35,26.71,53.37,26.77Z"/><path class="cls-1" d="M53.42,26.62a2.29,2.29,0,0,1-.35,2.63s0,.05,0,0c.92-.76.77-1.54.37-2.72C53.45,26.53,53.41,26.6,53.42,26.62Z"/><path class="cls-1" d="M53.4,26.77a2.26,2.26,0,0,1-.18,2.39c0,.05-.14.22-.16.24,1-.81.88-1.73.47-3C53.54,26.42,53.37,26.68,53.4,26.77Z"/><path class="cls-1" d="M53.41,26.65l-.27,2.55s-.11.14,0,.07c1-.82.83-1.81.46-3C53.6,26.34,53.37,26.54,53.41,26.65Z"/><path class="cls-1" d="M53.41,26.73a2.25,2.25,0,0,1-.2,2.44s-.19.25-.12.19c1-.8.85-1.7.44-2.94C53.53,26.43,53.39,26.66,53.41,26.73Z"/><path class="cls-1" d="M53.39,26.82l-.34,2.59s0,.06,0,0c.95-.75.75-1.61.38-2.73C53.43,26.7,53.38,26.8,53.39,26.82Z"/><path class="cls-1" d="M54,28.79c.44-.78.33-.4.41-1.13v0L54,28.76S54,28.79,54,28.79Z"/><path class="cls-1" d="M54,28.77c.62-1.1.38-1.49-.27-2.54v0l.23,2.5S54,28.79,54,28.77Z"/><path class="cls-1" d="M54,28.59c.64-1.12.4-1.48-.25-2.54,0,0-.09.06-.09.08a2.09,2.09,0,0,1,.3,1.63l0,0c0-1.07,0-1.18.15-.35a.87.87,0,0,1-.23,1.17C53.86,28.66,54,28.61,54,28.59Z"/><path class="cls-1" d="M54,28.64c.6-1,.42-1.42-.22-2.49,0,0-.3.28-.27.34l-.2,2.67s0,0,.06,0a3,3,0,0,0,.41-3l-.27.34c.54,1,.77,1.24.11,2.33C53.59,28.79,53.9,28.73,54,28.64Z"/><path class="cls-1" d="M54,28.68c.62-1.06.39-1.44-.24-2.48,0,0-.29.21-.26.25a2.23,2.23,0,0,1-.21,2.73s0,.05,0,0a2.86,2.86,0,0,0,.45-3l-.26.25c.56,1,.72,1.37.12,2.37C53.65,28.75,53.93,28.78,54,28.68Z"/><path class="cls-1" d="M54,28.71c.61-1.05.39-1.43-.23-2.47,0,0-.3.23-.27.28a2.19,2.19,0,0,1-.17,2.66s0,.08,0,0a2.84,2.84,0,0,0,.43-3l-.27.28c.54,1,.69,1.34.1,2.32C53.59,28.77,53.89,28.81,54,28.71Z"/><path class="cls-1" d="M54,28.66c.62-1.06.39-1.43-.23-2.48,0,0-.31.27-.28.34a2.15,2.15,0,0,1-.19,2.65s.05,0,.06,0a2.93,2.93,0,0,0,.41-3l-.28.34c.54,1,.76,1.23.1,2.32C53.6,28.75,53.9,28.77,54,28.66Z"/><path class="cls-1" d="M54,28.73c.6-1.05.4-1.45-.26-2.52,0,0-.15.06-.13.09.64,1.26.52,2.25-.37,3,0,0,0,0,0,0a1.64,1.64,0,0,0,.7-1.38A2.65,2.65,0,0,0,54,27c.63.19-.21,1.78-.19,1.75S54,28.77,54,28.73Z"/><path class="cls-1" d="M54,28.62c.63-1.1.41-1.44-.26-2.52,0,0-.12.06-.11.09.63,1.27.49,2.27-.4,3,0,0,0,0,0,0A1.65,1.65,0,0,0,54,27.83a2.42,2.42,0,0,0,0-.89c0-.07.05,0,.17.11a1.5,1.5,0,0,1-.3,1.62S54,28.65,54,28.62Z"/><path class="cls-1" d="M54,28.74c.62-1.08.39-1.46-.25-2.51,0,0-.23.12-.21.15a2.33,2.33,0,0,1-.28,2.87s0,.07,0,0c.32-.36,1.33-1.77.74-2.26.46.38-.13,1.47-.31,1.78C53.71,28.77,54,28.81,54,28.74Z"/><path class="cls-1" d="M54,28.69c.61-1.06.39-1.43-.23-2.47,0,0-.3.24-.27.3a2.16,2.16,0,0,1-.19,2.66c0,.05,0,0,.06,0a2.87,2.87,0,0,0,.4-3l-.27.3c.54,1,.69,1.34.1,2.32C53.59,28.76,53.89,28.79,54,28.69Z"/><path class="cls-1" d="M54,28.71c.62-1.08.39-1.46-.25-2.51,0,0-.24.13-.22.16a2.33,2.33,0,0,1-.29,2.89s0,.05,0,0A2.43,2.43,0,0,0,54,27.45c.1-.76.06-.32.08,0a1.8,1.8,0,0,1-.37,1.34S54,28.79,54,28.71Z"/><path class="cls-1" d="M56.28,12.22,59,13.37s-.08-.28-.15-.31l-2.69-1.14S56.21,12.19,56.28,12.22Z"/><path class="cls-1" d="M56.32,12.31,59,13.45c-.08,0-.09-.31-.19-.35L56.15,12C56.22,12,56.22,12.26,56.32,12.31Z"/><path class="cls-1" d="M56.28,12.21,59,13.36s0,0,0,0L56.3,12.18S56.26,12.2,56.28,12.21Z"/><path class="cls-1" d="M56.3,12.43,59,13.58s0-.11,0-.12l-2.71-1.14S56.28,12.42,56.3,12.43Z"/><path class="cls-1" d="M56.3,12.32,59,13.46c-.08,0-.08-.37-.2-.42l-2.68-1.15C56.2,11.92,56.18,12.27,56.3,12.32Z"/><path class="cls-1" d="M56.3,12.25,59,13.4c-.08,0-.09-.32-.19-.36l-2.69-1.15C56.19,11.92,56.19,12.21,56.3,12.25Z"/><path class="cls-1" d="M56.3,12.4,59,13.55s0-.23-.1-.26l-2.7-1.15S56.25,12.38,56.3,12.4Z"/><path class="cls-1" d="M56.31,12.26,59,13.41s0-.07,0-.07L56.3,12.19S56.3,12.25,56.31,12.26Z"/><path class="cls-1" d="M56.33,12.4,59,13.55c-.07,0-.07-.34-.17-.38L56.17,12C56.24,12.05,56.22,12.36,56.33,12.4Z"/><path class="cls-1" d="M56.29,12.28,59,13.43c-.07,0-.07-.35-.19-.39l-2.68-1.15C56.19,11.92,56.18,12.23,56.29,12.28Z"/><path class="cls-1" d="M56.34,12.37,59,13.52c-.06,0-.07-.29-.17-.34L56.19,12C56.25,12.07,56.25,12.33,56.34,12.37Z"/><path class="cls-1" d="M56.33,12.46,59,13.6s0-.09,0-.1L56.3,12.35S56.3,12.45,56.33,12.46Z"/><path class="cls-1" d="M21.39,38.41l-2.17-1.84h0l2.17,1.84Z"/><path class="cls-1" d="M21.38,38.27a11.28,11.28,0,0,1-3.8-4.14,11.32,11.32,0,0,1-2.63-5,2.08,2.08,0,0,0,0,.46,20.16,20.16,0,0,0,2.51,5.1,24.66,24.66,0,0,0,4,4C21.38,38.7,21.48,38.36,21.38,38.27Z"/><path class="cls-1" d="M21.4,38.34A19,19,0,0,1,15,29.25s-.08.26,0,.35a20.88,20.88,0,0,0,3.42,6.17c1.53,1.81.57.8,3.1,2.94C21.4,38.67,21.48,38.41,21.4,38.34Z"/><path class="cls-1" d="M21.37,38.17a19,19,0,0,1-6.43-9.11.74.74,0,0,0,0,.18,24.57,24.57,0,0,0,1.74,3.88,20.34,20.34,0,0,0,4.73,5.24S21.41,38.2,21.37,38.17Z"/><path class="cls-1" d="M21.38,38.39A19.1,19.1,0,0,1,15,29.29s-.07.28,0,.37a21.06,21.06,0,0,0,3.43,6.18c1.54,1.81.58.79,3.11,2.94C21.4,38.73,21.47,38.46,21.38,38.39Z"/><path class="cls-1" d="M21.39,38.32a11.38,11.38,0,0,1-3.8-4.15,11.45,11.45,0,0,1-2.64-5s-.07.33,0,.44a20.16,20.16,0,0,0,2.51,5.1,25.54,25.54,0,0,0,4,4C21.38,38.72,21.49,38.4,21.39,38.32Z"/><path class="cls-1" d="M21.37,38.37a19.1,19.1,0,0,1-6.44-9.11.51.51,0,0,0,0,.16,24.66,24.66,0,0,0,1.76,3.88,20,20,0,0,0,4.73,5.24A.29.29,0,0,0,21.37,38.37Z"/><path class="cls-1" d="M21.41,38.25A19,19,0,0,1,15,29.13a.43.43,0,0,0,0,.15,24.17,24.17,0,0,0,1.74,3.88,20.34,20.34,0,0,0,4.73,5.24S21.43,38.27,21.41,38.25Z"/><path class="cls-1" d="M21.39,38.4A17.06,17.06,0,0,1,15,29.29s0,.18,0,.23a17.49,17.49,0,0,0,2.5,5.09,16.78,16.78,0,0,0,4,4S21.43,38.43,21.39,38.4Z"/><path class="cls-1" d="M21.38,38.35A19.07,19.07,0,0,1,15,29.26s-.07.3,0,.4a21.06,21.06,0,0,0,3.43,6.18c1.54,1.81.57.79,3.11,2.94C21.39,38.72,21.47,38.43,21.38,38.35Z"/><path class="cls-1" d="M21.41,38.37A17.14,17.14,0,0,1,15,29.25a.76.76,0,0,0,0,.25,17.39,17.39,0,0,0,2.49,5.1,17.19,17.19,0,0,0,4,4S21.45,38.4,21.41,38.37Z"/><path class="cls-1" d="M53,22.91a29.68,29.68,0,0,0,.43-7.23c0,.08-.34.2-.34.32a30.05,30.05,0,0,1-.43,7.21C52.71,23.12,53,23,53,22.91Z"/><path class="cls-1" d="M53.07,23a29.22,29.22,0,0,0,.42-7.23s-.32.14-.32.23a30,30,0,0,1-.43,7.21C52.74,23.13,53.06,23.07,53.07,23Z"/><path class="cls-1" d="M53.08,22.85a30.3,30.3,0,0,0,.42-7.24s-.11.06-.11.09A30.18,30.18,0,0,1,53,22.93S53.08,22.88,53.08,22.85Z"/><path class="cls-1" d="M53.05,23.05a30.18,30.18,0,0,0,.42-7.23s0,0,0,0A29.19,29.19,0,0,1,53,23S53.05,23.07,53.05,23.05Z"/><path class="cls-1" d="M53,23a30.18,30.18,0,0,0,.42-7.23c0,.06-.33.15-.33.24a30.06,30.06,0,0,1-.44,7.21C52.69,23.16,53,23.1,53,23Z"/><path class="cls-1" d="M53.05,22.94a30.18,30.18,0,0,0,.42-7.23c0,.08-.35.19-.35.3a30.55,30.55,0,0,1-.44,7.21C52.69,23.14,53,23.06,53.05,22.94Z"/><path class="cls-1" d="M53.06,23a29.7,29.7,0,0,0,.41-7.23s-.15.05-.15.08l-.43,7.23S53.05,23,53.06,23Z"/><path class="cls-1" d="M53.11,22.9a30.3,30.3,0,0,0,.42-7.24s-.13.06-.13.09A29.68,29.68,0,0,1,53,23S53.1,22.93,53.11,22.9Z"/><path class="cls-1" d="M53.07,23a30.18,30.18,0,0,0,.42-7.23s-.25.08-.25.15a30,30,0,0,1-.43,7.21S53.06,23.09,53.07,23Z"/><path class="cls-1" d="M53,23a29.19,29.19,0,0,0,.42-7.23c0,.07-.34.17-.34.27a30,30,0,0,1-.43,7.21C52.69,23.15,53,23.08,53,23Z"/><path class="cls-1" d="M53.09,23a30.18,30.18,0,0,0,.42-7.23s-.26.09-.26.17a29.55,29.55,0,0,1-.43,7.21S53.08,23.07,53.09,23Z"/><path class="cls-1" d="M52.31,36.81a19.31,19.31,0,0,1,6.61,1.52s-.14-.22-.22-.25a19.86,19.86,0,0,0-6.65-1.51S52.22,36.8,52.31,36.81Z"/><path class="cls-1" d="M52.36,36.88A14.42,14.42,0,0,1,59,38.41s-.15-.26-.24-.3a20.33,20.33,0,0,0-6.65-1.51C52.15,36.61,52.24,36.87,52.36,36.88Z"/><path class="cls-1" d="M52.32,36.79a14.41,14.41,0,0,1,6.61,1.53s0,0,0,0a19.94,19.94,0,0,0-6.63-1.54S52.3,36.79,52.32,36.79Z"/><path class="cls-1" d="M52.35,37A14.32,14.32,0,0,1,59,38.53s0-.09,0-.1A20.12,20.12,0,0,0,52.3,36.9S52.32,37,52.35,37Z"/><path class="cls-1" d="M52.33,36.89a14.27,14.27,0,0,1,6.6,1.53s-.15-.32-.25-.36A20.37,20.37,0,0,0,52,36.56C52.1,36.56,52.2,36.88,52.33,36.89Z"/><path class="cls-1" d="M52.33,36.83a14.42,14.42,0,0,1,6.6,1.53s-.16-.26-.25-.3A20.12,20.12,0,0,0,52,36.56C52.1,36.57,52.21,36.82,52.33,36.83Z"/><path class="cls-1" d="M52.35,37A19.37,19.37,0,0,1,59,38.49s-.07-.19-.13-.21a19.47,19.47,0,0,0-6.63-1.52S52.3,37,52.35,37Z"/><path class="cls-1" d="M52.36,36.84A14.43,14.43,0,0,1,59,38.37s0-.06,0-.07a19.7,19.7,0,0,0-6.63-1.53S52.34,36.84,52.36,36.84Z"/><path class="cls-1" d="M52.37,37,59,38.49s-.12-.28-.2-.31a20.36,20.36,0,0,0-6.65-1.51C52.18,36.67,52.26,37,52.37,37Z"/><path class="cls-1" d="M52.32,36.86a14.28,14.28,0,0,1,6.6,1.52s-.15-.28-.24-.32A20.4,20.4,0,0,0,52,36.56C52.1,36.56,52.2,36.85,52.32,36.86Z"/><path class="cls-1" d="M52.38,36.94A14.17,14.17,0,0,1,59,38.47s-.12-.25-.2-.28a20.08,20.08,0,0,0-6.65-1.51C52.2,36.68,52.28,36.93,52.38,36.94Z"/><path class="cls-1" d="M52.37,37A14.29,14.29,0,0,1,59,38.55s0-.08,0-.09a19.57,19.57,0,0,0-6.61-1.53S52.35,37,52.37,37Z"/><path class="cls-1" d="M26.72,40.36l12.08,0c-.07,0-.17-.24-.28-.24l-12.08,0C26.5,40.12,26.61,40.36,26.72,40.36Z"/><path class="cls-1" d="M26.76,40.43l12.09,0c-.08,0-.19-.27-.3-.27l-12.08,0C26.54,40.15,26.65,40.43,26.76,40.43Z"/><path class="cls-1" d="M26.72,40.35l12.09-.06s0,0,0,0l-12.09,0S26.7,40.35,26.72,40.35Z"/><path class="cls-1" d="M26.75,40.54l12.08,0s0-.09,0-.09l-12.09.06S26.72,40.54,26.75,40.54Z"/><path class="cls-1" d="M26.73,40.44l12.08,0c-.07,0-.19-.33-.31-.33l-12.08,0C26.49,40.11,26.61,40.44,26.73,40.44Z"/><path class="cls-1" d="M26.72,40.38l12.09-.05c-.08,0-.19-.27-.31-.27l-12.08,0C26.5,40.11,26.61,40.38,26.72,40.38Z"/><path class="cls-1" d="M26.75,40.51l12.09,0s-.1-.2-.17-.2l-12.08.05S26.68,40.51,26.75,40.51Z"/><path class="cls-1" d="M26.76,40.39l12.09,0s0-.07-.06-.07l-12.09,0S26.74,40.39,26.76,40.39Z"/><path class="cls-1" d="M26.76,40.52l12.09-.05c-.06,0-.15-.3-.25-.3l-12.09,0C26.57,40.22,26.67,40.52,26.76,40.52Z"/><path class="cls-1" d="M26.72,40.41l12.09,0c-.08,0-.19-.3-.31-.3l-12.08,0C26.49,40.11,26.6,40.41,26.72,40.41Z"/><path class="cls-1" d="M26.78,40.49l12.09-.05c-.06,0-.16-.26-.26-.26l-12.08,0C26.59,40.23,26.68,40.49,26.78,40.49Z"/><path class="cls-1" d="M26.77,40.57l12.09-.06s0-.08,0-.08l-12.09,0S26.75,40.57,26.77,40.57Z"/><path class="cls-1" d="M54,28.81l5.17-3.23c-.07,0-.31-.11-.4,0l-5.16,3.23C53.7,28.71,53.93,28.87,54,28.81Z"/><path class="cls-1" d="M54.07,28.86l5.17-3.22c-.06,0-.31-.15-.4-.09l-5.16,3.22C53.74,28.73,54,28.92,54.07,28.86Z"/><path class="cls-1" d="M54.05,28.78l5.17-3.23s0,0-.06,0L54,28.75S54,28.79,54.05,28.78Z"/><path class="cls-1" d="M54.06,29l5.17-3.24s0,0,0,0L54,28.92S54,29,54.06,29Z"/><path class="cls-1" d="M54,28.88l5.17-3.23c-.06,0-.33-.18-.43-.12l-5.16,3.22C53.67,28.72,53.94,28.94,54,28.88Z"/><path class="cls-1" d="M54,28.83,59.2,25.6c-.07,0-.32-.13-.43-.07l-5.16,3.22C53.68,28.71,53.94,28.89,54,28.83Z"/><path class="cls-1" d="M54.07,28.92l5.17-3.23s-.17-.11-.22-.08l-5.17,3.23S54,29,54.07,28.92Z"/><path class="cls-1" d="M54.09,28.82l5.17-3.23s-.09,0-.12,0L54,28.79S54.07,28.84,54.09,28.82Z"/><path class="cls-1" d="M54.08,28.93l5.16-3.22s-.26-.17-.33-.12l-5.16,3.22S54,29,54.08,28.93Z"/><path class="cls-1" d="M54,28.85l5.16-3.22c-.06,0-.32-.16-.42-.1l-5.16,3.22C53.68,28.71,53.93,28.91,54,28.85Z"/><path class="cls-1" d="M54.1,28.91l5.16-3.23s-.25-.15-.33-.1L53.77,28.8S54,29,54.1,28.91Z"/><path class="cls-1" d="M54.08,29l5.17-3.23s0,0,0,0L54,28.94S54.06,29,54.08,29Z"/><path class="cls-1" d="M55.45,11.79c.25.6.53.57,1.18.7,0,0,0,0,0,0l-1.11-.69S55.45,11.78,55.45,11.79Z"/><path class="cls-1" d="M55.44,12c.25.6.54.57,1.18.69,0,0,0,0,0,0A1,1,0,0,1,55.5,12S55.43,12,55.44,12Z"/><path class="cls-1" d="M55.48,11.82c.22.56.5.53,1.11.66a.54.54,0,0,0,.06-.29l-.75-.43s-.14.08-.15.11c-.09.51,0,.4.62.51,0,0,0-.23,0-.24-.61-.13-.61-.3.27.34l.06-.29c-.53-.14-.75-.11-.88-.6C55.77,11.61,55.45,11.76,55.48,11.82Z"/><path class="cls-1" d="M55.49,11.89c.22.57.5.54,1.12.67a.64.64,0,0,0,.06-.31l-.78-.46s-.12.11-.13.13c-.11.53,0,.41.65.53,0,0,0-.24,0-.25-.81-.17-.43-.15.25.36l.06-.31c-.56-.15-.79-.11-.93-.63C55.75,11.65,55.46,11.81,55.49,11.89Z"/><path class="cls-1" d="M55.63,12.1c.06.35.44.23.83.3h0a.77.77,0,0,1-.78-.27S55.63,12.1,55.63,12.1Z"/><path class="cls-1" d="M55.42,12c.24.59.5.56,1.18.69,0,0,0-.06,0-.07L55.72,12h0c-.16.61.09.46.75.59a0,0,0,1,0,0,0c-.82-.35-1-.41-.66-.18s.23.08-.28-.45C55.49,11.89,55.41,12,55.42,12Z"/><path class="cls-1" d="M55.47,11.91c.22.56.5.53,1.11.65,0,0,.1-.37.06-.4l-.72-.41s-.16.15-.17.18c-.09.51,0,.41.62.52,0,0,0-.32-.06-.33-.56-.12-.69-.29.27.44l.06-.4c-.52-.13-.73-.1-.85-.59C55.8,11.62,55.43,11.82,55.47,11.91Z"/><path class="cls-1" d="M55.49,11.84c.21.56.49.53,1.1.66,0,0,.09-.31,0-.34l-.73-.41s-.14.11-.15.13c-.09.51,0,.4.62.51,0,0,0-.26-.07-.27-.55-.12-.67-.32.28.38l0-.34c-.51-.13-.73-.1-.86-.59C55.79,11.6,55.46,11.77,55.49,11.84Z"/><path class="cls-1" d="M55.41,12c.25.59.53.56,1.19.68,0,0,.1-.19.08-.21l-.93-.58s-.06.08-.06.09c-.16.6,0,.45.74.59,0,0,0-.15,0-.15L56,12.3a.65.65,0,0,1-.39-.53S55.39,11.92,55.41,12Z"/><path class="cls-1" d="M55.47,11.84c.25.59.54.57,1.18.69,0,0,0,0,0,0l-.93-.63h0c-.14.59.1.45.74.58,0,0,0,0,0,0l-.94-.62S55.47,11.82,55.47,11.84Z"/><path class="cls-1" d="M55.45,12c.23.58.52.55,1.16.68,0,0,.11-.3.07-.32l-.85-.5s-.1.12-.1.13c-.15.59,0,.45.69.58,0,0,0-.25,0-.26-.82-.24-.75-.12.19.37l.07-.32c-.58-.15-.81-.11-1-.66C55.7,11.72,55.42,11.9,55.45,12Z"/><path class="cls-1" d="M55.47,11.87c.22.57.5.53,1.11.66,0,0,.1-.35.06-.37l-.72-.41s-.16.13-.17.15c-.09.52,0,.41.62.52,0,0,0-.29-.06-.3-.57-.12-.64-.27.27.41l.06-.37c-.52-.14-.73-.1-.85-.59C55.8,11.61,55.44,11.79,55.47,11.87Z"/><path class="cls-1" d="M55.46,12c.24.58.52.55,1.17.68,0,0,.1-.25.06-.27l-.88-.53s-.08.11-.08.12c-.15.59,0,.44.72.58,0,0,0-.21,0-.22-.25-.05-.74-.33-.55-.16s-.18-.34-.22-.45S55.44,11.88,55.46,12Z"/><path class="cls-1" d="M55.66,12.41a2.71,2.71,0,0,0,.79.18s0,0,0,0l-.81-.18Z"/><path class="cls-1" d="M55.74,12.25a4.92,4.92,0,0,1-.44,2.3s0,0,.05,0a5.12,5.12,0,0,0,.44-2.31S55.75,12.23,55.74,12.25Z"/><path class="cls-1" d="M55.73,12.47a5.05,5.05,0,0,1-.44,2.3s.05,0,.06,0a5,5,0,0,0,.44-2.31S55.73,12.45,55.73,12.47Z"/><path class="cls-1" d="M55.71,12.47l-.44,2.29c0,.05.07,0,.08-.06l.61-1h0c-.16,0-.24,0-.22-.07a9.39,9.39,0,0,0,.08-1.19S55.71,12.44,55.71,12.47Z"/><path class="cls-1" d="M55.77,12.29l-.44,2.28s.25-.15.29-.22c.66-1.28.5-.61.48-2.07,0,0-.07,0-.07,0a6.93,6.93,0,0,1-.63,2s.16-.06.17-.1c1-2.91.28.63.47-2.15C56,12.1,55.78,12.18,55.77,12.29Z"/><path class="cls-1" d="M55.78,12.34a5.15,5.15,0,0,1-.44,2.29s.21-.17.25-.24c.67-1.29.5-.61.5-2.09,0-.05-.05,0-.06,0l-.62,2s.12-.08.14-.13A5.75,5.75,0,0,0,56,12.89c-.14.76-.13.49,0-.81C56,12.09,55.78,12.26,55.78,12.34Z"/><path class="cls-1" d="M55.38,14.31v0S55.37,14.31,55.38,14.31Z"/><path class="cls-1" d="M55.37,14.47s0,0,0,0S55.37,14.47,55.37,14.47Z"/><path class="cls-1" d="M55.76,12.37l-.44,2.28s.27-.21.32-.31c.65-1.28.49-.61.47-2.08,0,0-.08.07-.08.08l-.63,2s.16-.11.18-.18c0,.15.62-1.93.42-1.14-.07.28-.13,1.77.06-1C56.05,12.12,55.77,12.24,55.76,12.37Z"/><path class="cls-1" d="M55.78,12.31l-.44,2.28s.25-.17.29-.25c.66-1.28.5-.61.48-2.07,0,0-.07,0-.07,0a6.9,6.9,0,0,1-.63,2s.16-.08.18-.13c1-2.9.28.62.47-2.15C56.05,12.1,55.79,12.19,55.78,12.31Z"/><path class="cls-1" d="M55.7,12.44a4.88,4.88,0,0,1-.44,2.29,1.38,1.38,0,0,0,.2-.18c.73-1.34.54-.64.59-2.2,0,0,0,0,0,0a6.48,6.48,0,0,1-.65,2s.08,0,.08-.05c.5-1.41.64-1.79.44-1.14s-.16.24,0-1C55.89,12.23,55.71,12.37,55.7,12.44Z"/><path class="cls-1" d="M55.77,12.29l-.44,2.31s.05,0,.06,0c.8-1.4.58-.65.67-2.27l0,0a6.67,6.67,0,0,1-.64,2s0,0,0,0c1.14-3,.21.8.42-2.07C55.83,12.23,55.77,12.27,55.77,12.29Z"/><path class="cls-1" d="M55.74,12.43a4.88,4.88,0,0,1-.44,2.29,2.45,2.45,0,0,0,.24-.27c.69-1.28.52-.63.54-2.13,0-.05-.06,0-.06.07a6.61,6.61,0,0,1-.64,2c0,.06.11-.08.12-.11.44-1.39.59-1.77.43-1.15s-.11.22,0-1C56,12.17,55.75,12.34,55.74,12.43Z"/><path class="cls-1" d="M55.76,12.34l-.43,2.28s.26-.19.31-.28c.65-1.28.49-.61.47-2.08,0,0-.08.05-.08.07a6.9,6.9,0,0,1-.63,2s.17-.09.19-.15c1-2.9.28.62.47-2.15C56.05,12.11,55.77,12.21,55.76,12.34Z"/><path class="cls-1" d="M55.76,12.4a5.15,5.15,0,0,1-.44,2.29,2.36,2.36,0,0,0,.21-.22c.7-1.31.53-.64.56-2.15,0-.05-.05,0-.06,0a6.61,6.61,0,0,1-.64,2c0,.06.09-.05.1-.07.46-1.4.61-1.78.43-1.16s-.12.23,0-1C56,12.17,55.76,12.33,55.76,12.4Z"/><path class="cls-1" d="M8.33,8.43a47.2,47.2,0,0,0,1,7.1s.27-.18.26-.27a48.37,48.37,0,0,1-1-7.09C8.6,8.22,8.32,8.34,8.33,8.43Z"/><path class="cls-1" d="M8.34,8.5a47.2,47.2,0,0,0,1,7.1c0-.06.24-.2.22-.3a48.37,48.37,0,0,1-1-7.09C8.58,8.27,8.33,8.4,8.34,8.5Z"/><path class="cls-1" d="M8.3,8.39a48.8,48.8,0,0,0,1,7.12s0,0,0,0l-1-7.1S8.3,8.37,8.3,8.39Z"/><path class="cls-1" d="M8.27,8.61a48.48,48.48,0,0,0,1,7.11s.08-.06.08-.09a48.54,48.54,0,0,1-1-7.1S8.27,8.58,8.27,8.61Z"/><path class="cls-1" d="M8.32,8.51a48.65,48.65,0,0,0,1,7.11c0-.08.31-.26.29-.37a48.57,48.57,0,0,1-1-7.09C8.62,8.24,8.31,8.39,8.32,8.51Z"/><path class="cls-1" d="M8.34,8.45a47.2,47.2,0,0,0,1,7.1c0-.05.28-.2.26-.3a48.37,48.37,0,0,1-1-7.09C8.62,8.22,8.33,8.35,8.34,8.45Z"/><path class="cls-1" d="M8.26,8.58a48.8,48.8,0,0,0,1,7.12s.19-.15.18-.23l-1-7.09S8.26,8.53,8.26,8.58Z"/><path class="cls-1" d="M8.33,8.45a47.2,47.2,0,0,0,1,7.1s.07,0,.06,0a47.15,47.15,0,0,1-1-7.11S8.32,8.43,8.33,8.45Z"/><path class="cls-1" d="M8.3,8.59a48.54,48.54,0,0,0,1,7.1c0-.07.23-.22.21-.32a48.55,48.55,0,0,1-1-7.09C8.53,8.35,8.29,8.48,8.3,8.59Z"/><path class="cls-1" d="M8.32,8.48a48.54,48.54,0,0,0,1,7.1c0-.06.3-.23.28-.34a48.25,48.25,0,0,1-1-7.08C8.62,8.23,8.31,8.37,8.32,8.48Z"/><path class="cls-1" d="M8.32,8.56a47.2,47.2,0,0,0,1,7.1c0-.05.21-.19.19-.28l-1-7.09C8.52,8.35,8.31,8.46,8.32,8.56Z"/><path class="cls-1" d="M8.29,8.63a48.54,48.54,0,0,0,1,7.1s.06,0,.06-.06a48.48,48.48,0,0,1-1-7.11S8.29,8.6,8.29,8.63Z"/></g></g></svg>