<svg xmlns="http://www.w3.org/2000/svg" viewBox="0 0 230.88 163.54"><defs><style>.cls-1,.cls-3,.cls-4,.cls-6{fill:none;}.cls-1,.cls-3,.cls-4,.cls-5,.cls-6{stroke:#284f2d;stroke-miterlimit:10;}.cls-1,.cls-5{stroke-width:1.28px;fill-rule:evenodd;}.cls-2{fill:#284f2d;opacity:0.11;}.cls-3{stroke-width:4.2px;}.cls-4{stroke-width:1.4px;}.cls-5{fill:#3c7643;}.cls-6{stroke-width:2.55px;}</style></defs><g id="Layer_2" data-name="Layer 2"><g id="black_green" data-name="black&amp;green"><path class="cls-1" d="M199,40.07l.11,13s50.55,17.15-6.74,42.06L188,107.91S275.21,74,199,40.07Z"/><path class="cls-1" d="M188.62,107.91c9.12-5,4.42-12.81,4.42-12.81Z"/><path class="cls-1" d="M199.14,53c6-7.58.14-13,.14-13Z"/><path class="cls-2" d="M196.28,95.61a102.3,102.3,0,0,1,9.77-6c2.17-1.18,1.63-.86,3.53-2,4.78-2.87,9.22-6.49,11.15-11.87A13.29,13.29,0,0,0,219.12,63a23.16,23.16,0,0,0-4.67-4.39c-3.81-2.87-8.21-4.22-12.74-5.42.2,0,0,2.09.35,2.2,5,1.5,9.92,3.38,13.74,7a13.63,13.63,0,0,1,3.29,4.66,11.57,11.57,0,0,1,.36,6.49,17.74,17.74,0,0,1-6.29,10,45.69,45.69,0,0,1-7.68,5.17c-3.87,2.19-7.61,4.33-11.29,6.86C194.61,95.34,195.78,96,196.28,95.61Z"/><path class="cls-2" d="M196.45,95.87c2.55-1.76,5.08-3.38,7.78-4.89a89.23,89.23,0,0,0,8.45-5c3.89-2.75,7.63-6.54,8.7-11.36a13.49,13.49,0,0,0-2.17-11.4,23,23,0,0,0-6.68-5.55,16.18,16.18,0,0,0-4.14-2.11,24.2,24.2,0,0,0-6.57-2.08c.12,0-.07,1.63.22,1.71,5.49,1.64,10.93,3.76,14.83,8.15a11.72,11.72,0,0,1,2.51,11.54,20.79,20.79,0,0,1-7.33,9.87,50.26,50.26,0,0,1-7.87,4.95,98,98,0,0,0-9.77,5.92C194.77,95.39,196,96.19,196.45,95.87Z"/><path class="cls-2" d="M196.78,95.42a38.74,38.74,0,0,1,5.75-3.73c2-1.15,4-2.26,6.05-3.34,1.53-.89,3-1.79,4.44-2.81,4-2.84,7.49-6.61,8.69-11.52a14.46,14.46,0,0,0-.6-8.84c-1.1-2.82-4-5.55-6.48-7.21l-4.06-2.44a32.5,32.5,0,0,0-8.89-3s0,.64.16.69c5.43,1.45,10.93,3.31,15.07,7.34,4.47,4.36,6.43,9.22,3.37,16.32A20.92,20.92,0,0,1,214,84.49a75,75,0,0,1-9.85,6,52.77,52.77,0,0,0-7.85,4.93C196.28,95.45,196.69,95.49,196.78,95.42Z"/><path class="cls-2" d="M196.78,96.37a39.08,39.08,0,0,1,5.76-3.77q3-1.72,6-3.34A37,37,0,0,0,217,83.12a17.52,17.52,0,0,0,4.91-9.66,13.16,13.16,0,0,0-2.55-10.23,25.56,25.56,0,0,0-8.87-6.87c-3.78-1.91-4.86-2-8.92-3-.08,0-.13.11-.06.12a32.53,32.53,0,0,1,13,5.42L217,61c4.88,4.4,5.83,9.77,3.83,15.32s-6.42,9.07-11.14,11.9c-1.8,1.11-3.65,2.15-5.53,3.11a53.31,53.31,0,0,0-7.74,4.92C196.35,96.28,196.71,96.42,196.78,96.37Z"/><path class="cls-2" d="M196.29,96c2.55-1.76,5.08-3.37,7.78-4.88a92.76,92.76,0,0,0,8.45-5c3.88-2.75,7.61-6.53,8.69-11.35A13.38,13.38,0,0,0,219,63.38a22.84,22.84,0,0,0-6.64-5.53,39.53,39.53,0,0,0-10.65-4.19c.16.05,0,1.77.32,1.87,5.37,1.65,10.72,3.74,14.55,8a11.51,11.51,0,0,1,2.44,11.35,20.9,20.9,0,0,1-7.33,9.8,49.86,49.86,0,0,1-7.87,5,98.84,98.84,0,0,0-9.76,5.9C194.47,95.33,195.81,96.29,196.29,96Z"/><path class="cls-2" d="M196.33,95.72c2.54-1.76,5.07-3.38,7.77-4.89a92.76,92.76,0,0,0,8.45-5c3.88-2.74,7.62-6.53,8.72-11.34a13.45,13.45,0,0,0-2.14-11.4,22.86,22.86,0,0,0-6.66-5.56,16.54,16.54,0,0,0-4.14-2.12,24.38,24.38,0,0,0-6.58-2.08c.18,0-.05,2,.31,2.15,5.4,1.64,10.77,3.74,14.62,8.07a11.5,11.5,0,0,1,2.41,11.37,20.86,20.86,0,0,1-7.34,9.8,51.35,51.35,0,0,1-7.87,5,98.56,98.56,0,0,0-9.78,5.92C194.53,95.32,195.81,96.08,196.33,95.72Z"/><path class="cls-2" d="M196.49,96.11c3.76-2.61,7.78-4.79,11.75-7a34.4,34.4,0,0,0,4.46-2.82c3.9-2.76,7.64-6.59,8.72-11.42a13.7,13.7,0,0,0-2.16-11.54,22.7,22.7,0,0,0-6.74-5.66,16.52,16.52,0,0,0-4.18-2.14,24.19,24.19,0,0,0-6.62-2.08c-.11,0,0,.58.13.6a48.14,48.14,0,0,1,8.49,3,23.51,23.51,0,0,1,7.33,5.6,12.55,12.55,0,0,1,2.76,12.26A21.1,21.1,0,0,1,213,85c-3.58,2.87-7.85,4.86-11.82,7.11a42.75,42.75,0,0,0-5.77,3.73C195.57,95.79,196.25,96.27,196.49,96.11Z"/><path class="cls-2" d="M196.81,95.66a105.57,105.57,0,0,1,9.81-6,54,54,0,0,0,7.86-4.89c3.3-2.63,6.34-6.21,7.29-10.45a13.57,13.57,0,0,0-1.38-10.27,20,20,0,0,0-5.62-5.85l-4.06-2.44a32.26,32.26,0,0,0-8.9-3s-.06.54.07.58c5.55,1.48,10.85,3.4,15.1,7.46,3.06,2.93,4.86,6.48,4.62,10.78-.4,7-5.29,11.7-10.62,15.16q-3.43,2.13-7,4a51.85,51.85,0,0,0-7.81,4.84A1.07,1.07,0,0,0,196.81,95.66Z"/><path class="cls-2" d="M196.46,96.15c2.54-1.76,5.07-3.37,7.77-4.87a94,94,0,0,0,8.45-5c3.88-2.76,7.62-6.57,8.69-11.39a13.64,13.64,0,0,0-2.18-11.43,23,23,0,0,0-6.67-5.59,38.87,38.87,0,0,0-10.71-4.21c.07,0,0,1,.26,1.06,5.63,1.68,11.18,3.86,15.14,8.41A12.09,12.09,0,0,1,219.76,75a21,21,0,0,1-7.37,10,50.26,50.26,0,0,1-7.87,5,97.32,97.32,0,0,0-9.72,5.88C195,95.57,196.1,96.4,196.46,96.15Z"/><path class="cls-2" d="M196.28,95.83c2.54-1.76,5.07-3.37,7.77-4.88a92.76,92.76,0,0,0,8.45-5c3.88-2.75,7.62-6.53,8.7-11.34a13.42,13.42,0,0,0-2.14-11.37,23.1,23.1,0,0,0-6.65-5.55,16.44,16.44,0,0,0-4.13-2.11,24.18,24.18,0,0,0-6.55-2.08c.18,0,0,1.89.34,2,5.38,1.65,10.74,3.75,14.57,8.07a11.49,11.49,0,0,1,2.43,11.35,20.85,20.85,0,0,1-7.34,9.79,49.86,49.86,0,0,1-7.87,5,96.17,96.17,0,0,0-9.77,5.92C194.48,95.33,195.78,96.18,196.28,95.83Z"/><path class="cls-2" d="M196.55,96c2.54-1.76,5.07-3.37,7.77-4.88a91.73,91.73,0,0,0,8.45-5c3.89-2.75,7.63-6.56,8.7-11.39a13.6,13.6,0,0,0-2.19-11.44,23,23,0,0,0-6.69-5.6,16.6,16.6,0,0,0-4.15-2.12,24.4,24.4,0,0,0-6.58-2.09c.06,0,0,1.06.22,1.13,5.65,1.66,11.22,3.86,15.19,8.41a12.13,12.13,0,0,1,2.59,11.84,21,21,0,0,1-7.36,10,51,51,0,0,1-7.87,5,96.49,96.49,0,0,0-9.74,5.88C195.14,95.55,196.18,96.29,196.55,96Z"/><path class="cls-2" d="M196.89,96.45a37.65,37.65,0,0,1,5.75-3.76q3-1.74,6-3.34a36.89,36.89,0,0,0,8.45-6.15A17.52,17.52,0,0,0,222,73.54a12.78,12.78,0,0,0-2.54-10.24,25.87,25.87,0,0,0-8.91-6.89,46.45,46.45,0,0,0-8.89-3c-.06,0-.14.06-.07.08,5.9,1.51,11,3.48,15.52,7.5A14,14,0,0,1,222,72a12.32,12.32,0,0,1-1,4.33c-1.93,5.41-6.42,9.08-11.14,11.91-1.8,1.11-3.64,2.14-5.53,3.11a52.08,52.08,0,0,0-7.73,4.92C196.46,96.36,196.82,96.5,196.89,96.45Z"/><path class="cls-2" d="M193.1,96.48a8.64,8.64,0,0,1,.4,7.62l.88-1.34a38,38,0,0,1-2.75,2.92.14.14,0,0,0-.08.1,1.54,1.54,0,0,0,.19-.08,6.59,6.59,0,0,0,2-1.8c2-2.74.9-6.1.12-9.1C194,95.18,192.94,96,193.1,96.48Z"/><path class="cls-2" d="M193.14,96.82a9.8,9.8,0,0,1,.91,6.48l.46-1.28-1.72,3.22,1-1.22-1.55,1.4c-.12.11-.62.67-.57.63a6.06,6.06,0,0,0,2.73-3c1.09-2.56.05-5.56-.61-8C193.89,95.44,193,96.27,193.14,96.82Z"/><path class="cls-2" d="M192.81,96.8q3,5.06-1.58,8.9c-.09,0-.24.26-.06.17a4.83,4.83,0,0,0,2.16-1.59c1.65-2.34.46-5.29-.35-7.68C192.94,96.5,192.79,96.72,192.81,96.8Z"/><path class="cls-2" d="M192.84,97.61q2.35,4.53-1.53,8.86c-.06,0-.36.43-.18.34,4.11-2.12,3.14-6,2-9.87A1.27,1.27,0,0,0,192.84,97.61Z"/><path class="cls-2" d="M193,97l.92,6.46.6-1.57-1.12,2.69,1-1.75-1.69,2.54,1.21-1.54-2,1.94c.1-.1-.57.56-.34.43a6.73,6.73,0,0,0,2.93-3.33c1.14-2.54,0-5.65-.61-8.11C194,95.26,192.83,96.29,193,97Z"/><path class="cls-2" d="M193.12,96.6a8.56,8.56,0,0,1,.4,7.61l.9-1.49L192.8,105l1.15-1.3-2.23,2c.08-.07-.27.28-.08.16a7.41,7.41,0,0,0,2.9-3.17c1.09-2.5,0-5.57-.66-8C194,95.16,192.94,96,193.12,96.6Z"/><path class="cls-2" d="M192.91,97.27a13.33,13.33,0,0,1,.89,6.48l.36-1-1.58,2.73.59-.72-1.09.85c-.2.16-.68.75-.76.79a5.19,5.19,0,0,0,2.41-2.24c1.4-2.67.44-5.48-.3-8.23C193.45,96,192.8,96.93,192.91,97.27Z"/><path class="cls-2" d="M193,97q3,5-1.55,8.87c-.06,0-.28.31-.15.24a4.87,4.87,0,0,0,2.49-2.19c1.21-2.3.15-5-.61-7.23C193.11,96.59,192.94,96.91,193,97Z"/><path class="cls-2" d="M193,97.26a9.65,9.65,0,0,1,.9,6.47l.57-1.64-1.87,3.54.93-1.27-1.05.92c-.26.24-.88,1.07-1,1.14a5.42,5.42,0,0,0,2.58-2.74c1.22-2.74.29-5.56-.43-8.33C193.78,95.83,192.85,96.69,193,97.26Z"/><path class="cls-2" d="M193.06,96.77l.4,7.6,1-1.63-1.68,2.44,1.21-1.43-2.3,2.09c.08-.07-.28.29-.08.17a7.23,7.23,0,0,0,2.93-3.22c1.17-2.47,0-5.71-.61-8.09C194,95.2,192.86,96.16,193.06,96.77Z"/><path class="cls-2" d="M193.1,97.1a13.41,13.41,0,0,1,.9,6.47l.48-1.41-1.64,3.14.66-.88-1,.9c-.23.2-.79.91-.89,1a5.33,5.33,0,0,0,2.5-2.59c1.22-2.71.27-5.52-.45-8.24C193.73,95.86,193,96.61,193.1,97.1Z"/><path class="cls-2" d="M192.92,97.74q2.42,4.53-1.6,8.84c-.06,0-.28.39-.12.31,4.11-2,3.15-5.9,2-9.74A1,1,0,0,0,192.92,97.74Z"/><path class="cls-2" d="M195.55,103.38c.85-1.35,1.64-2.39,1.44-4.06-.25-2-1.45-3.65-2.6-5.28.12.17-1.39,1.57-1.21,1.94a3.75,3.75,0,0,1,.69,2.9,8.48,8.48,0,0,1-.19,3.29c-.63,3.59.12,2.81-1.84,4.15,0,0,1.28,1.22,1.35,1.11a4.88,4.88,0,0,0,.86-2.25c.22-1.57.26-3.14.54-4.71a14.55,14.55,0,0,0-.2-6.43L193.18,96c1,1.45,2,2.85,2,4.65,0,1.55-.8,2.54-1.64,3.76C193.87,103.9,195.18,104,195.55,103.38Z"/><path class="cls-2" d="M195.66,103.63c.86-1.36,1.65-2.38,1.43-4-.26-2-1.47-3.63-2.63-5.25.06.08-1.29,1.22-1.17,1.5a6.16,6.16,0,0,1,.46,4.19l-.37,1.54a2.27,2.27,0,0,1-1.35,2.67c-.38.15-.15,1.45-.38,1.58a4.47,4.47,0,0,0,2.45-3,16,16,0,0,0,.36-8.48l-1.17,1.5c1,1.48,2,2.9,2.06,4.73.05,1.56-.77,2.52-1.62,3.74C194,103.91,195.34,104.13,195.66,103.63Z"/><path class="cls-2" d="M195.9,103c.86-1.36,1.67-2.48,1.45-4.14-.27-2.06-1.55-3.75-2.74-5.39,0,0-.4.53-.36.64.84,2.11.7,3.47.3,5.78-.46,2.69-.58,4.32-3.16,5.86-.09,0,.07.12.14.08a7.32,7.32,0,0,0,1.22-.76,8.14,8.14,0,0,0,1.86-4.07,15.47,15.47,0,0,0,0-7.5l-.36.64,1.13,1.58a4.7,4.7,0,0,1,1.11,3.52,2,2,0,0,1-.14,2.39c-.33.56-.67,1.11-1,1.65A1.32,1.32,0,0,0,195.9,103Z"/><path class="cls-2" d="M196,103.9c.69-1.15,1.46-2.12,1.46-3.52,0-2.34-1.57-4.32-2.87-6.1,0-.06-.19,0-.17.09,1.18,3.62.75,9.89-3,12.19-.08,0-.14.23,0,.15a4.65,4.65,0,0,0,2.16-1.93A14,14,0,0,0,195,99.91l.2-2-.08-1.88a1.35,1.35,0,0,1,.5,0l1,1.76a4.1,4.1,0,0,1,.43,2.57,2,2,0,0,1-.31,1.84c-.3.57-.62,1.12-1,1.67C195.67,104,196,104,196,103.9Z"/><path class="cls-2" d="M195.48,103.75c.86-1.35,1.64-2.37,1.43-4-.26-2-1.46-3.6-2.6-5.22.07.09-1.35,1.28-1.24,1.59a5.64,5.64,0,0,1,.14,4l-.48,1.48c.71,1,.59,1.75-.39,2.26-.53.19-.32,1.84-.7,2.06a4.32,4.32,0,0,0,2.32-3,16.51,16.51,0,0,0,.35-8.34l-1.24,1.59c1,1.44,2,2.83,2,4.63,0,1.53-.79,2.48-1.63,3.68C193.72,104,195.16,104.27,195.48,103.75Z"/><path class="cls-2" d="M195.57,103.49c.85-1.35,1.64-2.38,1.43-4-.25-2-1.45-3.63-2.6-5.26.11.15-1.45,1.52-1.29,1.88a7.31,7.31,0,0,1,.13,5.46c-.5,1.69-1,2.23-2.8,2.45,0,0,.69,1.73.86,1.64a3.44,3.44,0,0,0,2.06-1.64,9.44,9.44,0,0,0,1-2.68,14.5,14.5,0,0,0,0-7.11l-1.29,1.88c1,1.44,1.95,2.83,2,4.63,0,1.54-.81,2.52-1.65,3.73C193.78,103.94,195.2,104.08,195.57,103.49Z"/><path class="cls-2" d="M195.69,103.81c.72-1.14,1.48-2,1.51-3.42.05-2.28-1.48-4.26-2.71-6,0,0-.53.49-.46.63q2.81,5.54-2,11s-.59.57-.35.42A5,5,0,0,0,194,104a11.15,11.15,0,0,0,.76-2.84,13.26,13.26,0,0,0-.23-6.77L194,95c.87,1.34,2,2.91,2.22,4.55a6.31,6.31,0,0,1-1.44,4.45S195.58,104,195.69,103.81Z"/><path class="cls-2" d="M196,103.27c.73-1.12,1.53-2.06,1.55-3.46,0-2.31-1.52-4.29-2.79-6.06,0,0-.45.51-.41.61a6.87,6.87,0,0,1,.63,5,8.24,8.24,0,0,1-3.42,6.59c-.11.07,0,.14.11.09a5.38,5.38,0,0,0,2.7-3.35,15.86,15.86,0,0,0,.4-8.92l-.41.61c.88,1.29,2.17,3,2.38,4.58l-.08,2.48c-.44.71-.9,1.42-1.38,2.1C195.24,103.57,195.88,103.43,196,103.27Z"/><path class="cls-2" d="M195.64,103.88c.86-1.35,1.63-2.36,1.42-4-.26-2-1.46-3.64-2.61-5.28,0,0-.93.82-.82,1a4.67,4.67,0,0,1,.83,3,23.37,23.37,0,0,1-1.51,6.83l.57-.86-1.08,1c-.12.12-.62.74-.62.74a4.51,4.51,0,0,0,2-2.17,12.7,12.7,0,0,0,.71-2.79,13.1,13.1,0,0,0-.12-6.78l-.82,1c1,1.54,2,3,2.09,4.92.06,1.57-.7,2.49-1.57,3.72C194.32,104,195.41,104.24,195.64,103.88Z"/><path class="cls-2" d="M195.49,103.63c.85-1.35,1.64-2.38,1.43-4-.25-2-1.45-3.62-2.59-5.24.09.12-1.38,1.39-1.25,1.73a4.11,4.11,0,0,1,.56,2.66,14.09,14.09,0,0,1-.64,3.15c-.07,1.18-.3,1.51-1.54,1.55-.24,0,.09,2.16,0,2.21a3.26,3.26,0,0,0,2-1.62,9.25,9.25,0,0,0,.88-2.66,14.38,14.38,0,0,0,0-7l-1.25,1.73c1,1.44,2,2.83,2,4.62,0,1.54-.8,2.51-1.64,3.71C193.74,104,195.15,104.17,195.49,103.63Z"/><path class="cls-2" d="M195.74,103.75c.86-1.35,1.64-2.37,1.42-4-.26-2-1.47-3.65-2.62-5.29,0,0-1,.88-.86,1.07a3.61,3.61,0,0,1,.91,2.4,24.2,24.2,0,0,1-1.58,7.45l.5-.72-1.09.95c-.06.06-.78.78-.47.58a4.23,4.23,0,0,0,2-2.26,14.81,14.81,0,0,0,.56-9.47l-.86,1.07c1,1.55,2,3,2.11,4.94.07,1.58-.7,2.5-1.57,3.74C194.4,103.91,195.5,104.13,195.74,103.75Z"/><path class="cls-2" d="M196.11,104c.65-1.11,1.48-2.14,1.43-3.5-.09-2.35-1.54-4.3-2.86-6.12,0,0-.17,0-.15.06,1.21,3.82.72,10-3.07,12.27-.08,0-.06.19,0,.13a5.23,5.23,0,0,0,2.78-3.36,19.77,19.77,0,0,0,1-5.43c0-.4-.73-2.33.44-1.93a9.52,9.52,0,0,1,1.39,3.08,7.08,7.08,0,0,1-1.24,4.78C195.79,104.06,196.07,104,196.11,104Z"/><path class="cls-2" d="M203.75,44.49a102,102,0,0,1,9.75,4.17c-.38-.18-.42-1.39-.9-1.61q-4.75-2.34-9.7-4.19C203.26,43,203.28,44.3,203.75,44.49Z"/><path class="cls-2" d="M203.91,44.85A102,102,0,0,1,213.66,49c-.42-.19-.43-1.54-1-1.78Q208,44.9,203,43.05C203.39,43.21,203.39,44.64,203.91,44.85Z"/><path class="cls-2" d="M204,44.81A101.79,101.79,0,0,1,213.71,49c.14.06.06-.2,0-.23a104.51,104.51,0,0,0-9.76-4.13C203.8,44.53,203.89,44.78,204,44.81Z"/><path class="cls-2" d="M203.91,45.64a103.57,103.57,0,0,1,9.75,4.18c.07,0-.08-.57-.21-.63q-4.75-2.34-9.72-4.2C203.65,45,203.79,45.59,203.91,45.64Z"/><path class="cls-2" d="M203.81,45a103.61,103.61,0,0,1,9.76,4.16c-.48-.22-.42-1.88-1-2.15a104.69,104.69,0,0,0-9.68-4.19C203.32,42.94,203.24,44.72,203.81,45Z"/><path class="cls-2" d="M203.8,44.62a102,102,0,0,1,9.75,4.17c-.43-.2-.45-1.57-1-1.82q-4.74-2.34-9.69-4.2C203.27,42.94,203.27,44.41,203.8,44.62Z"/><path class="cls-2" d="M203.84,45.26a104.63,104.63,0,0,1,9.75,4.17c-.23-.11-.2-1.1-.55-1.27q-4.74-2.32-9.68-4.17C203.55,44.07,203.51,45.13,203.84,45.26Z"/><path class="cls-2" d="M204.09,45a105.26,105.26,0,0,1,9.78,4.18c.09,0-.05-.33-.14-.38q-4.8-2.34-9.8-4.19C203.84,44.56,204,45,204.09,45Z"/><path class="cls-2" d="M203.91,45.27a102,102,0,0,1,9.75,4.17c-.39-.18-.34-1.62-.85-1.86q-4.73-2.32-9.67-4.18C203.49,43.54,203.42,45.07,203.91,45.27Z"/><path class="cls-2" d="M203.78,44.77a102,102,0,0,1,9.75,4.17c-.44-.21-.42-1.73-1-2q-4.74-2.34-9.68-4.19C203.28,42.93,203.24,44.55,203.78,44.77Z"/><path class="cls-2" d="M204,45.12a102,102,0,0,1,9.75,4.17c-.36-.17-.37-1.4-.84-1.62q-4.74-2.34-9.68-4.19C203.53,43.61,203.51,44.94,204,45.12Z"/><path class="cls-2" d="M204,45.75a102.1,102.1,0,0,1,9.75,4.18c.07,0-.09-.55-.22-.61a101.72,101.72,0,0,0-9.72-4.2C203.75,45.08,203.89,45.7,204,45.75Z"/><path class="cls-2" d="M192.2,82.61a78.32,78.32,0,0,0,1.48-13,80.43,80.43,0,0,0,0-13.17c0,.49-1.6,1.12-1.59,1.74A80.44,80.44,0,0,1,192,71.24a71.65,71.65,0,0,1-1.59,12.87C190.5,83.61,192.11,83.24,192.2,82.61Z"/><path class="cls-2" d="M192.29,82.87a78,78,0,0,0,1.48-13,80.31,80.31,0,0,0,0-13.16c0,.34-1.53.84-1.52,1.33a80.58,80.58,0,0,1-.1,13.09A72.33,72.33,0,0,1,190.59,84C190.64,83.62,192.21,83.38,192.29,82.87Z"/><path class="cls-2" d="M192.47,82.18a76.27,76.27,0,0,0,1.49-13A80.44,80.44,0,0,0,194,56c0-.06-.52.39-.51.56a81.19,81.19,0,0,1,0,13.14,70.25,70.25,0,0,1-1.54,13S192.45,82.35,192.47,82.18Z"/><path class="cls-2" d="M192.59,83A87.83,87.83,0,0,0,194,70a78.39,78.39,0,0,0,0-13.18c0-.13-.24,0-.24.07a78.39,78.39,0,0,1,0,13.18,91.73,91.73,0,0,1-1.39,13C192.34,83.19,192.58,83.09,192.59,83Z"/><path class="cls-2" d="M192.12,83a78,78,0,0,0,1.48-13,80.31,80.31,0,0,0,0-13.16c0,.36-1.61.87-1.6,1.38a80.33,80.33,0,0,1-.11,13.07,72.13,72.13,0,0,1-1.59,12.83C190.38,83.77,192,83.53,192.12,83Z"/><path class="cls-2" d="M192.22,82.73a78,78,0,0,0,1.47-13,81.44,81.44,0,0,0,0-13.16c0,.46-1.69,1.07-1.68,1.67a80.33,80.33,0,0,1-.11,13.07,72.47,72.47,0,0,1-1.6,12.86C190.42,83.68,192.13,83.35,192.22,82.73Z"/><path class="cls-2" d="M192.32,83c.61-4.36,1.21-8.58,1.46-13,.42-7.28.29-3,0-13.19,0,.08-.68.34-.67.57l-1.59,26C191.57,83.34,192.28,83.2,192.32,83Z"/><path class="cls-2" d="M192.58,82.45a76.27,76.27,0,0,0,1.49-13,79.33,79.33,0,0,0,0-13.17c0-.07-.59.38-.59.54a81.32,81.32,0,0,1,0,13.15,70.92,70.92,0,0,1-1.56,13C191.89,83,192.55,82.62,192.58,82.45Z"/><path class="cls-2" d="M192.25,83.12a77.72,77.72,0,0,0,1.48-13,80.31,80.31,0,0,0,0-13.16c0,.18-1.14.52-1.13.86a82,82,0,0,1-.09,13.11A72,72,0,0,1,191,83.77C191,83.6,192.2,83.46,192.25,83.12Z"/><path class="cls-2" d="M192.13,82.89a77,77,0,0,0,1.48-13,81.44,81.44,0,0,0,0-13.16c0,.41-1.63,1-1.62,1.52a80.33,80.33,0,0,1-.11,13.07,71.21,71.21,0,0,1-1.59,12.84C190.39,83.74,192.05,83.45,192.13,82.89Z"/><path class="cls-2" d="M192.35,83a77.84,77.84,0,0,0,1.48-13,81.44,81.44,0,0,0,0-13.16c0,.21-1.17.58-1.17,1a79.58,79.58,0,0,1-.09,13.1A72.18,72.18,0,0,1,191,83.72C191.07,83.51,192.3,83.35,192.35,83Z"/><path class="cls-2" d="M192.68,83.09a86.39,86.39,0,0,0,1.41-13,79.46,79.46,0,0,0,0-13.18c0-.12-.21,0-.21,0a78.39,78.39,0,0,1,0,13.18,86.39,86.39,0,0,1-1.41,13C192.44,83.25,192.67,83.17,192.68,83.09Z"/><path class="cls-2" d="M15.29,146.06c-2.86-.33-5.4-.74-7.3-3.14l.93,1.85-1.34-2.93.66,2-.62-3c0,.15-.2-.81-.19-.55a7.29,7.29,0,0,0,1.13,4.09c1.73,2.72,5.22,3.26,8.15,3.65C16.24,148,15.9,146.14,15.29,146.06Z"/><path class="cls-2" d="M15.44,146.41a10.53,10.53,0,0,1-3.63-.77,4.9,4.9,0,0,1-3.69-2.39l.73,1.39-1.16-2.51.5,1.49-.49-2.56c0,.11-.17-.64-.16-.42a6.33,6.33,0,0,0,.91,3.52c1.69,2.8,5.17,3.31,8.13,3.7C16.23,147.82,15.93,146.47,15.44,146.41Z"/><path class="cls-2" d="M15.09,145.58c-3.22-.4-7.16-.71-7.52-5.14,0-.11-.22-.95-.22-.67A5.13,5.13,0,0,0,8,142.86c1.56,2.69,4.8,3.13,7.6,3.53C15.51,146.37,15.35,145.61,15.09,145.58Z"/><path class="cls-2" d="M15,146.36a16.43,16.43,0,0,1-2.8-.4q-3.79-.47-4.74-5.38c0-.07-.13-.16-.14-.07a4.87,4.87,0,0,0,1.22,3.85c1.66,1.8,4.26,1.94,6.54,2.2C15.22,146.58,15.07,146.37,15,146.36Z"/><path class="cls-2" d="M15.39,146.53a10.35,10.35,0,0,1-3.64-.76,4.89,4.89,0,0,1-3.68-2.36L9,144.9l-1.32-2.6.64,1.61-.41-1.75c-.06-.26-.41-1.3-.41-1.35A7.51,7.51,0,0,0,8.93,145c1.75,2.29,5.25,2.74,7.86,3.09C16.34,148,16,146.6,15.39,146.53Z"/><path class="cls-2" d="M15.36,146.23c-2.86-.34-5.23-.54-7.31-3.13L9,144.86,7.64,142l.64,1.88L7.67,141c0,.14-.2-.79-.2-.53a7.13,7.13,0,0,0,1.13,4c1.74,2.7,5.24,3.24,8.17,3.63C16.31,148.05,16,146.31,15.36,146.23Z"/><path class="cls-2" d="M15.18,146.43c-3.1-.38-7.07-.61-7.59-5.21,0-.09-.25-.83-.24-.56.05,4.71,4.31,5.89,8.41,6.43C15.79,147.1,15.38,146.45,15.18,146.43Z"/><path class="cls-2" d="M15.26,145.83c-3-.38-7.26-.66-7.58-5.26,0-.1-.19-.8-.19-.56a5,5,0,0,0,.67,3.08c1.54,2.59,4.73,3,7.45,3.37C15.7,146.47,15.4,145.85,15.26,145.83Z"/><path class="cls-2" d="M15.39,146.62c-3.26-.4-5.9-.59-7.77-4.34l.4,1-.28-1.6c0-.08-.27-1.08-.26-.7.13,4.75,4.55,6,8.74,6.59C16.19,147.54,15.67,146.65,15.39,146.62Z"/><path class="cls-2" d="M15.35,146.38c-2.88-.34-5.2-.54-7.31-3.13L9,144.89l-1.34-2.73.67,1.74-.53-2.28a8.12,8.12,0,0,0-.31-1,6.77,6.77,0,0,0,1.11,3.78c1.75,2.74,5.26,3.28,8.22,3.68C16.32,148.05,16,146.45,15.35,146.38Z"/><path class="cls-2" d="M15.39,146.48c-3.59-.44-6-.7-7.73-4.33l.36,1-.25-1.61c0-.09-.25-1.13-.24-.74A5.64,5.64,0,0,0,8.39,144c1.61,2.63,5,3.09,7.84,3.47C16,147.43,15.75,146.52,15.39,146.48Z"/><path class="cls-2" d="M15.19,146.51c-3.2-.41-7.74-.73-7.66-5.91,0-.08-.12-.09-.12,0a4.94,4.94,0,0,0,1.2,3.82c1.55,1.81,4.5,2,6.63,2.3C15.37,146.71,15.27,146.52,15.19,146.51Z"/><path class="cls-2" d="M189.49,133.34a50.79,50.79,0,0,1,14.58,2A49.17,49.17,0,0,1,213.2,139c-.19-.08-.76-1.13-1.2-1.33A60.74,60.74,0,0,0,197.9,133a53.8,53.8,0,0,0-9.88-.9C188.45,132.15,188.94,133.32,189.49,133.34Z"/><path class="cls-2" d="M189.68,133.66a55.29,55.29,0,0,1,23.7,5.63c-.2-.1-.77-1.29-1.24-1.49-4.16-1.86-4.83-2.34-9.25-3.55a65.2,65.2,0,0,0-14.71-2C188.62,132.29,189.11,133.64,189.68,133.66Z"/><path class="cls-2" d="M189.87,133.52A61.41,61.41,0,0,1,202.09,135a62.28,62.28,0,0,1,11.48,4.23c.13.06,0-.19-.07-.22A63.8,63.8,0,0,0,202,134.73a61.15,61.15,0,0,0-12.23-1.42C189.58,133.3,189.79,133.52,189.87,133.52Z"/><path class="cls-2" d="M189.81,134.39A62.11,62.11,0,0,1,202,135.85a62.08,62.08,0,0,1,11.49,4.22c.06,0-.14-.47-.27-.53a63.86,63.86,0,0,0-11.54-4.17,63.26,63.26,0,0,0-12.21-1.46C189.4,133.91,189.7,134.39,189.81,134.39Z"/><path class="cls-2" d="M189.57,133.74a63.13,63.13,0,0,1,12.24,1.44,61.17,61.17,0,0,1,11.52,4.21c-.58-.26-.79-1.56-1.46-1.86a60.61,60.61,0,0,0-11.67-4.05A69.58,69.58,0,0,0,188,132C188.44,132.06,189,133.72,189.57,133.74Z"/><path class="cls-2" d="M189.54,133.46a55.42,55.42,0,0,1,23.71,5.61c-.22-.1-.82-1.3-1.31-1.51-4.17-1.85-4.85-2.33-9.27-3.52a66.44,66.44,0,0,0-14.72-2C188.42,132.08,189,133.43,189.54,133.46Z"/><path class="cls-2" d="M189.66,134a50,50,0,0,1,14.58,2,49.48,49.48,0,0,1,9.11,3.64c-.07,0-.42-.92-.71-1a58.65,58.65,0,0,0-14-4.67,52.23,52.23,0,0,0-9.82-.9C189,133.06,189.33,134,189.66,134Z"/><path class="cls-2" d="M190,133.69a50,50,0,0,1,14.61,2,51.4,51.4,0,0,1,9.12,3.66c.17.08-.09-.29-.17-.33a61.09,61.09,0,0,0-14-4.81,52.38,52.38,0,0,0-9.92-.9C189.53,133.34,189.85,133.68,190,133.69Z"/><path class="cls-2" d="M189.7,134a50.85,50.85,0,0,1,23.74,5.67c-.47-.22-.64-1.35-1.2-1.6-3.79-1.71-5.11-2.5-9.18-3.55a70,70,0,0,0-14.63-2C188.78,132.58,189.2,134,189.7,134Z"/><path class="cls-2" d="M189.52,133.59a49.21,49.21,0,0,1,9.84.87,50.49,50.49,0,0,1,13.87,4.74c-.24-.11-.82-1.44-1.36-1.67-3.8-1.69-5.16-2.48-9.24-3.52A71.81,71.81,0,0,0,188,132C188.42,132.06,188.93,133.56,189.52,133.59Z"/><path class="cls-2" d="M189.76,133.9a50.72,50.72,0,0,1,9.84.87,49.53,49.53,0,0,1,13.85,4.77c-.15-.08-.65-1.18-1.06-1.37-4.15-1.87-4.79-2.34-9.21-3.56a64.88,64.88,0,0,0-14.67-2C188.86,132.63,189.28,133.88,189.76,133.9Z"/><path class="cls-2" d="M189.92,134.49A61.56,61.56,0,0,1,202.16,136a62.61,62.61,0,0,1,11.49,4.22c.06,0-.14-.46-.27-.52a64.19,64.19,0,0,0-11.52-4.18A62,62,0,0,0,189.62,134C189.51,134,189.81,134.49,189.92,134.49Z"/><path class="cls-2" d="M195.79,104.24q9.42-5.7,18.68-11.66c-.4.25-1.55-.46-2.05-.15q-9.21,6-18.66,11.55C194.15,103.75,195.29,104.54,195.79,104.24Z"/><path class="cls-2" d="M196,104.5q9.43-5.7,18.69-11.66c-.36.22-1.57-.67-2-.37q-9.21,6-18.65,11.54C194.31,103.81,195.51,104.79,196,104.5Z"/><path class="cls-2" d="M196.3,104.12q9.42-5.73,18.68-11.7c.08,0-.3-.12-.39-.06q-9.26,6-18.66,11.69C195.85,104.1,196.22,104.17,196.3,104.12Z"/><path class="cls-2" d="M196.28,105.06q9.41-5.75,18.67-11.7c.11-.07-.28-.26-.35-.22q-9.27,6-18.67,11.71C195.82,104.92,196.2,105.1,196.28,105.06Z"/><path class="cls-2" d="M195.82,104.58q9.42-5.7,18.68-11.66c-.37.23-1.7-.83-2.19-.52q-9.21,6-18.64,11.53C194,103.72,195.34,104.88,195.82,104.58Z"/><path class="cls-2" d="M195.84,104.35q9.42-5.7,18.68-11.67c-.41.27-1.67-.59-2.2-.26q-9.21,6-18.65,11.54C194.07,103.71,195.33,104.66,195.84,104.35Z"/><path class="cls-2" d="M196,104.77q9.42-5.7,18.67-11.67c-.12.08-.82-.46-1.07-.3q-9.21,6-18.64,11.59C195.07,104.32,195.76,104.92,196,104.77Z"/><path class="cls-2" d="M196.32,104.34q9.45-5.69,18.71-11.67c.05,0-.49-.17-.61-.09q-9.24,6-18.71,11.62C195.65,104.24,196.2,104.41,196.32,104.34Z"/><path class="cls-2" d="M196,104.8q9.42-5.7,18.68-11.66c-.25.16-1.32-.75-1.69-.51q-9.21,5.94-18.63,11.53C194.57,104,195.62,105,196,104.8Z"/><path class="cls-2" d="M195.79,104.46q9.44-5.7,18.69-11.66c-.39.24-1.67-.71-2.17-.39q-9.21,6-18.65,11.53C194,103.71,195.31,104.76,195.79,104.46Z"/><path class="cls-2" d="M196.07,104.68Q205.49,99,214.75,93c-.27.16-1.3-.65-1.68-.4q-9.21,6-18.64,11.54C194.68,104,195.7,104.91,196.07,104.68Z"/><path class="cls-2" d="M196.38,105.15q9.41-5.75,18.67-11.71c.11-.07-.28-.26-.35-.22q-9.27,6-18.65,11.71C195.94,105,196.31,105.19,196.38,105.15Z"/><path class="cls-2" d="M200.43,43c.61,2,2.56,2.27,4.43,2.45a11.57,11.57,0,0,0-.46-1.69L201.89,41c0-.05-.14.49-.12.35-.08.48-.55,1.68-.26,2.16.37.63,2.26,1.13,2.5,1.22-.2-.08-.15-1.34-.46-1.57-1.22-.9-1.17-.8-1.64-2.13l-.24,1.31a22.33,22.33,0,0,0,3.19,3.11l-.46-1.69c-1.24-.21-2.42-.6-2.47-2C201.94,42,200.32,42.59,200.43,43Z"/><path class="cls-2" d="M200.47,43.25c.6,2.08,2.59,2.32,4.5,2.53A16.44,16.44,0,0,0,204.4,44l-2.58-2.67a.12.12,0,0,0,0,.13,3.77,3.77,0,0,0-.18,2.51,11.19,11.19,0,0,0,2.5,1c-.2-.08-.29-1.31-.55-1.5-1.28-.92-1.28-.76-1.69-2.14l-.11,1.19a24.29,24.29,0,0,0,3.19,3.14L204.4,44c-1.33-.27-2.57-.68-2.64-2.15C201.77,42.2,200.34,42.82,200.47,43.25Z"/><path class="cls-2" d="M200,43.11c.86,2.29,2.86,2.51,5.1,2.69.07,0,.13-.12.07-.17a20.15,20.15,0,0,1-3.52-3.26s-.09-.08-.11,0c-.81,2.52,0,2,2.79,2.87.06,0,0-.09,0-.1l-3-1.62q2-.2,2.1,1.32.7,1.65-1.32-.2a2,2,0,0,1-1.83-1.68C200.2,42.86,199.93,43,200,43.11Z"/><path class="cls-2" d="M200,44c.73,2.27,2.85,2.53,5,2.76.09,0,.15-.44.1-.48a18.4,18.4,0,0,1-3.53-3.06s-.09,0-.11,0-.58,1.39-.36,1.8c.34.63,4.35,1.39,3.1,1.05.08,0,.13-.2.05-.23-1.75-1.26-1.51-1,.73.9l.1-.48c-2-.28-4-.47-4.66-2.71C200.42,43.39,200,43.86,200,44Z"/><path class="cls-2" d="M200.35,43.37c.65,2.09,2.63,2.31,4.56,2.49a17.44,17.44,0,0,0-.52-2.17A11,11,0,0,1,202,41s-.21.81-.21.8c-.09.5-.52,1.52-.28,2,.36.73,2,1.05,2.52,1.23-.27-.1-.23-1.64-.59-1.91a2.67,2.67,0,0,1-1.42-2.1l-.31,1.57a25.54,25.54,0,0,0,3.21,3.2l-.52-2.17c-1.27-.23-2.39-.64-2.41-2C202,42.07,200.2,42.86,200.35,43.37Z"/><path class="cls-2" d="M200.45,43.07c.62,2,2.57,2.28,4.46,2.46a15.09,15.09,0,0,0-.51-1.87l-2.47-2.73s-.14.54-.11.38c-.09.5-.57,1.76-.28,2.26.38.66,2.18,1.1,2.5,1.24-.23-.1-.2-1.47-.53-1.72A3.06,3.06,0,0,1,202,41l-.23,1.44a23,23,0,0,0,3.19,3.12l-.51-1.87c-1.24-.22-2.37-.62-2.41-2C202,42,200.33,42.65,200.45,43.07Z"/><path class="cls-2" d="M200.14,43.65c.63,2.13,2.74,2.38,4.69,2.61a8.42,8.42,0,0,0-.39-1.17A9.15,9.15,0,0,1,202,42.91c-.07-.08-.32.16-.33.22-.54,2.09-.18,1.7,2.14,2.4a2.41,2.41,0,0,0-.46-.82A1.42,1.42,0,0,1,202,42.94l-.33.22a20.86,20.86,0,0,0,3.09,3.07l-.39-1.16c-1.53-.34-3.14-.71-3.31-2.44C201.11,42.82,200.05,43.32,200.14,43.65Z"/><path class="cls-2" d="M200.12,43.31c.83,2.3,2.86,2.52,5.09,2.72.08,0,.12-.24.07-.28a19.17,19.17,0,0,1-3.53-3.2s-.1,0-.12,0c-.77,2.47-.18,1.95,2.75,2.82.06,0,.11-.07.05-.09-3.2-.82-3.57-1.11-1.1-.89.75,1.14.64,1.48-.33,1a3.42,3.42,0,0,1-2.57-2.3C200.38,43,200.09,43.24,200.12,43.31Z"/><path class="cls-2" d="M200.3,43.64c.62,2.12,2.67,2.36,4.61,2.56-.06,0-.42-1.58-.57-1.7L202,42.07a6.45,6.45,0,0,0-.26.81c-.43,2.13.07,1.81,2.27,2.58-.18-.07-.38-1.21-.62-1.38-1.15-.88-1.09-.64-1.37-2l-.26.89a24.11,24.11,0,0,0,3.13,3.18l-.57-1.71c-1.38-.31-2.72-.73-2.78-2.27C201.53,42.53,200.17,43.19,200.3,43.64Z"/><path class="cls-2" d="M200.38,43.22c.63,2.06,2.6,2.29,4.51,2.47a16.44,16.44,0,0,0-.5-2A11.79,11.79,0,0,1,202,41s-.29,1.08-.3,1.12C201.31,44.35,201.6,44,204,45c-.25-.1-.22-1.57-.55-1.83a2.78,2.78,0,0,1-1.39-2.1l-.35,1.51a24.35,24.35,0,0,0,3.18,3.16l-.5-2c-1.24-.22-2.37-.62-2.4-2C202,42,200.24,42.75,200.38,43.22Z"/><path class="cls-2" d="M200.38,43.5c.61,2.1,2.65,2.35,4.58,2.57-.06,0-.44-1.36-.58-1.47A10.13,10.13,0,0,1,202,42.21c-.09-.11-.19.47-.2.49-.41,2.21-.07,1.79,2.27,2.64-.16-.06-.39-1-.6-1.17-1.18-.9-1.17-.64-1.47-2l-.21.67A22.94,22.94,0,0,0,204.91,46l-.57-1.47c-1.41-.32-2.81-.72-2.9-2.31C201.46,42.54,200.26,43.1,200.38,43.5Z"/><path class="cls-2" d="M200.06,44.09c.77,2.25,2.87,2.53,5.07,2.73.09,0,.14-.4.09-.44a18.36,18.36,0,0,1-3.53-3.11s-.1,0-.11,0c-.78,2.46-.25,2,2.74,2.85.09,0,.12-.17,0-.19-2.92-.62-3.54-.88-1.86-.8a2.39,2.39,0,0,1,2.61,1.67l.08-.44c-2.07-.22-3.95-.41-4.78-2.64C200.36,43.6,200,44,200.06,44.09Z"/><path class="cls-2" d="M201.5,44.65a17.52,17.52,0,0,1-1.67,8.24c.14-.37,1.22-.81,1.49-1.18a17.53,17.53,0,0,0,1.93-3,24.1,24.1,0,0,0,1.5-5.23c0,.08-1.1.08-1.19.33-1.05,3-1.16,4.57-3.18,7.68.08-.11,1.13-.43,1.37-.76a15.94,15.94,0,0,0,2-3.29,24.15,24.15,0,0,0,1-4l-1.19.33a10.76,10.76,0,0,1-3.71,9l1.49-1.17a25.66,25.66,0,0,0,1.57-8.31C202.9,43.71,201.52,44.15,201.5,44.65Z"/><path class="cls-2" d="M201.54,44.94l-1.66,8.18c.06-.15,1-.89,1.28-1.24a15,15,0,0,0,1.91-3.53,8.39,8.39,0,0,0,.42-1.71c.31-1.76.32-1.11-.28-3.14,0,0-.17-.51-.2-.39a81,81,0,0,1-2.67,8.62c.07-.14.88-.6,1-1,.31-.85.62-1.7.91-2.55a24,24,0,0,0,1-4.29l-.29-.74.42,3.11.15-.8L200,53l1.19-1.12a26.64,26.64,0,0,0,1.59-8.37C202.74,43.92,201.56,44.41,201.54,44.94Z"/><path class="cls-2" d="M201.05,44.8,199.38,53c-.06.17.24,0,.27-.06,1.49-1.69,2.1-2.13,3-4.26,1-2.44.75-2.41.6-4.92,0-.07-.1-.06-.12,0a16.52,16.52,0,0,0-1.3,3.54,10.7,10.7,0,0,1-2,4.38c-.05.08.08.14.12.07a16.06,16.06,0,0,0,2.65-6.51q2.68,2.3-2,5.08c.49,2.28.77-7.82.68-5.6C201.31,44.55,201.05,44.72,201.05,44.8Z"/><path class="cls-2" d="M201.09,45.67a17.22,17.22,0,0,1-1.7,8.17c-.06.17.11,0,.15,0,1.57-1.74,2.22-2.18,3.14-4.39,1-2.42.73-2.4.54-4.9,0,0-.07.06-.07.06-1.27,2.62-1.84,5.3-3.37,7.91-.07.11.09.1.14,0,.47-.78.92-1.56,1.37-2.35.43-1.37.85-2.73,1.27-4.1q-2.48,7.26-1.75,4.73a18.49,18.49,0,0,0,.72-5.63A1.13,1.13,0,0,0,201.09,45.67Z"/><path class="cls-2" d="M201.42,45.07a17.17,17.17,0,0,1-1.64,8.16c.09-.23,1.28-1.09,1.59-1.56a13.33,13.33,0,0,0,1.66-3,7.18,7.18,0,0,0,.47-1.19,7.46,7.46,0,0,0,.06-4.76c0-.14-.1.12-.09.09-1,3.13-1.57,6-3.19,9,.11-.2,1.09-.76,1.28-1.22a20.94,20.94,0,0,0,1.73-6.66l-.35,1-.15,3.86.46-1-1.67,3.37.88-1.34-2.56,3.28,1.49-1.47A26.68,26.68,0,0,0,203,43.27C202.94,43.81,201.45,44.4,201.42,45.07Z"/><path class="cls-2" d="M201.52,44.76A17.33,17.33,0,0,1,199.86,53c.16-.43,1.23-.91,1.52-1.33a17.35,17.35,0,0,0,1.82-3.07,14.34,14.34,0,0,0,1.06-5.76,5.46,5.46,0,0,0-.79.92,20.82,20.82,0,0,0-1.09,3.38,9.43,9.43,0,0,1-2,4.44c.09-.16,1.12-.59,1.33-1a18.62,18.62,0,0,0,1.76-3.79c1-3.17-.27,1,.78-4l-.79.92a10.54,10.54,0,0,1-3.59,9.19l1.52-1.34A26,26,0,0,0,203,43.28C203,43.7,201.55,44.2,201.52,44.76Z"/><path class="cls-2" d="M201.23,45.36a23.32,23.32,0,0,1-1.68,8.16,7.84,7.84,0,0,0,.72-.67,10,10,0,0,0,2.37-3.6,10.53,10.53,0,0,0,.49-4.46c0-.18-.15.1-.16.12-1.05,2.57-1.4,4.52-3,7.23-.13.22.43-.27.49-.37a17.42,17.42,0,0,0,1.76-3.67,4.07,4.07,0,0,0,.43-1.7q.47-4.62-3,7l.87-.84a24.94,24.94,0,0,0,1.64-8.27C202.12,44.38,201.24,45,201.23,45.36Z"/><path class="cls-2" d="M201.2,45l-1.68,8.17c-.07.19.27-.08.3-.12,1.87-2.14,1.29-1.22,2.32-3.08.22-.38.44-.77.65-1.16a6.82,6.82,0,0,0,.58-4.87s-.08-.12-.11-.05c-1.18,2.69-1.77,5.3-3.33,8-.05.08.1.11.15,0a17,17,0,0,0,1.76-3.65c.15-.49.8-4.44,1.59-2,0,.12-2.7,4.08-2.61,4.09.58.09.68-5.63.68-5.59S201.21,44.93,201.2,45Z"/><path class="cls-2" d="M201.38,45.35a17.41,17.41,0,0,1-1.66,8.16c-.05.11.64-.63.64-.63a11.74,11.74,0,0,0,2.52-4.09,6.66,6.66,0,0,0,.24-4.28c0-.1-.43-.19-.45-.09a49.18,49.18,0,0,1-2.53,7.7c.07-.13.69-.58.83-.91a8.94,8.94,0,0,0,1-2.36,15.21,15.21,0,0,1,1.14-4.34l-.45-.06.62,2.24V46l-3.5,7.4,1.1-1.2a26.08,26.08,0,0,0,1.63-8.37C202.51,44.26,201.4,44.78,201.38,45.35Z"/><path class="cls-2" d="M201.45,44.91a17.33,17.33,0,0,1-1.67,8.23c.19-.48,1.28-1,1.6-1.48a12.15,12.15,0,0,0,2.19-4.07,11.16,11.16,0,0,0,.44-4.82s-.52.79-.59,1a9.44,9.44,0,0,0-.88,2.82,12.51,12.51,0,0,1-2.23,5.12c.11-.18,1.12-.67,1.34-1.09a15.39,15.39,0,0,0,2-5.26,25.18,25.18,0,0,1,.4-2.56l-.62,1.07A10.09,10.09,0,0,1,201.6,51l.74-1-2.54,3.07,1.6-1.48A26.11,26.11,0,0,0,203,43.27C203,43.75,201.47,44.29,201.45,44.91Z"/><path class="cls-2" d="M201.45,45.2a17.28,17.28,0,0,1-1.66,8.16s.71-.69.81-.81a10.53,10.53,0,0,0,2.24-3.63,7.92,7.92,0,0,0,.3-4.43c0-.07-.5.12-.52.19a30.72,30.72,0,0,1-2.38,7.24c-.14.26.6-.49.69-.67A13.71,13.71,0,0,0,202.16,48a15.58,15.58,0,0,1,1-3.45l-.52.2-2.77,8.53,1-1a25.9,25.9,0,0,0,1.63-8.34C202.44,44.26,201.47,44.71,201.45,45.2Z"/><path class="cls-2" d="M201.15,45.8a17.21,17.21,0,0,1-1.7,8.17c0,.14.1,0,.14,0,1.59-1.78,2.22-2.19,3.15-4.44,1-2.44.74-2.41.57-4.93,0,0-.08.07-.08.07C202,47.3,201.36,50,199.84,52.6c-.05.09.09.1.14,0a9.57,9.57,0,0,0,1.37-2.35c.44-1.37.88-2.75,1.3-4.13q-2.91,8.84-1.29,2.14a13.25,13.25,0,0,0,.13-2.89C201.5,45.33,201.16,45.67,201.15,45.8Z"/><ellipse class="cls-3" cx="114.09" cy="142.62" rx="111.99" ry="18.82"/><ellipse class="cls-4" cx="114.09" cy="142.23" rx="50.73" ry="8.45"/><path class="cls-5" d="M197.37,18.51s13.31,88.95-35.5,121.89a15.09,15.09,0,0,1-8.45,2.54H75.35a15,15,0,0,1-9.45-3.37C19.37,101.83,29.54,18.51,29.54,18.51"/><ellipse class="cls-6" cx="113.45" cy="18.51" rx="83.91" ry="17.23"/><path class="cls-2" d="M29.9,30.7a120.91,120.91,0,0,0,1.35,12.88,126.47,126.47,0,0,0,2.25,12.8c-.06-.31,1.28-1,1.19-1.49a128.3,128.3,0,0,1-2.18-12.76,108.73,108.73,0,0,1-1.23-12.75C31.31,29.69,29.86,30.24,29.9,30.7Z"/><path class="cls-2" d="M29.94,31a121.1,121.1,0,0,0,1.35,12.89A127.15,127.15,0,0,0,33.54,56.7c-.08-.37,1.12-1.1,1-1.6-.94-4.23-1.67-8.48-2.19-12.78a107.14,107.14,0,0,1-1.24-12.78C31.16,29.91,29.89,30.49,29.94,31Z"/><path class="cls-2" d="M29.46,30.87q.39,6.48,1.41,12.9a129.75,129.75,0,0,0,2.26,12.82c0,.12.27-.08.25-.15q-1.44-6.36-2.25-12.82-1-6.4-1.42-12.89C29.7,30.61,29.45,30.79,29.46,30.87Z"/><path class="cls-2" d="M29.5,31.73a118.93,118.93,0,0,0,1.36,12.91q.81,6.47,2.25,12.82c0,.07.41-.4.38-.55q-1.44-6.34-2.25-12.81a110.89,110.89,0,0,1-1.31-12.87C29.92,31.16,29.49,31.59,29.5,31.73Z"/><path class="cls-2" d="M29.83,31.12A121.11,121.11,0,0,0,31.19,44a129,129,0,0,0,2.24,12.81c-.09-.47,1.42-1.37,1.3-2q-1.41-6.35-2.18-12.77A107.14,107.14,0,0,1,31.33,29.3C31.36,29.78,29.77,30.5,29.83,31.12Z"/><path class="cls-2" d="M29.93,30.81a120.91,120.91,0,0,0,1.35,12.88A130,130,0,0,0,33.52,56.5c-.07-.38,1.32-1.15,1.23-1.67a128.53,128.53,0,0,1-2.19-12.77,106.61,106.61,0,0,1-1.22-12.75C31.37,29.68,29.88,30.29,29.93,30.81Z"/><path class="cls-2" d="M29.63,31.42A123.6,123.6,0,0,0,31,44.3a126.85,126.85,0,0,0,2.25,12.82c0-.25.83-.82.76-1.21a129,129,0,0,1-2.22-12.79,109.87,109.87,0,0,1-1.28-12.8C30.53,30.57,29.6,31,29.63,31.42Z"/><path class="cls-2" d="M29.61,31.08A129.59,129.59,0,0,0,31,44q.81,6.46,2.26,12.83c0,.12.3-.16.29-.24A126.85,126.85,0,0,1,31.3,43.76a129.41,129.41,0,0,1-1.4-12.9C29.89,30.74,29.6,31,29.61,31.08Z"/><path class="cls-2" d="M29.78,31.41a123.58,123.58,0,0,0,1.36,12.88q.81,6.47,2.25,12.82c-.08-.4,1.06-1.16,1-1.69q-1.41-6.35-2.2-12.78a107.5,107.5,0,0,1-1.24-12.79C30.94,30.25,29.73,30.87,29.78,31.41Z"/><path class="cls-2" d="M29.85,31a123.77,123.77,0,0,0,1.36,12.89,130,130,0,0,0,2.24,12.81c-.08-.43,1.4-1.27,1.3-1.84a125.46,125.46,0,0,1-2.18-12.76A105,105,0,0,1,31.34,29.3C31.37,29.72,29.8,30.39,29.85,31Z"/><path class="cls-2" d="M29.86,31.25a121.11,121.11,0,0,0,1.36,12.89A129,129,0,0,0,33.46,57c-.06-.33.92-1,.84-1.44a129,129,0,0,1-2.21-12.79,107.32,107.32,0,0,1-1.25-12.79C30.86,30.26,29.82,30.8,29.86,31.25Z"/><path class="cls-2" d="M29.56,31.86a127.17,127.17,0,0,0,1.38,12.92A126.39,126.39,0,0,0,33.2,57.6c0,.09.34-.31.32-.42a126.47,126.47,0,0,1-2.25-12.8A124.74,124.74,0,0,1,29.9,31.44C29.89,31.36,29.55,31.73,29.56,31.86Z"/><path class="cls-2" d="M69.9,138a74.32,74.32,0,0,1-10.71-10c-5.84-6.87-9.26-13.83-12.26-22.9.11.32-.42,1.78-.2,2.41.57,1.88,1.21,3.72,1.92,5.54A63.57,63.57,0,0,0,61.5,132.72a60.38,60.38,0,0,0,8.79,7.73C69.87,140.12,70.42,138.39,69.9,138Z"/><path class="cls-2" d="M70,138.35a74.18,74.18,0,0,1-10.7-10,30.49,30.49,0,0,1-6.18-9.82A37.44,37.44,0,0,1,47,105.46c.06.19-.44,1.36-.28,1.81a67,67,0,0,0,7.38,16c.73,1.08,2.68,3.79,3.48,4.84,3.62,4.72,8,8.48,12.65,12.17C70,140,70.41,138.67,70,138.35Z"/><path class="cls-2" d="M69.87,137.48a58.49,58.49,0,0,1-8.8-7.76,45.49,45.49,0,0,1-5.45-6.86,45.73,45.73,0,0,1-4.51-7.48A59.36,59.36,0,0,1,47,104.53a3.3,3.3,0,0,0-.1,1,58.09,58.09,0,0,0,4.24,10.86,46.28,46.28,0,0,0,4.58,7.5,47,47,0,0,0,5.51,6.86A61.3,61.3,0,0,0,70,138.5S70,137.62,69.87,137.48Z"/><path class="cls-2" d="M69.84,138.23a58.52,58.52,0,0,1-8.8-7.69,46.07,46.07,0,0,1-5.43-6.87,45.4,45.4,0,0,1-4.5-7.48A61.24,61.24,0,0,1,47,105.33c0-.11-.14.06-.11.14A60.46,60.46,0,0,0,51,116.35a45.91,45.91,0,0,0,4.51,7.5A46.29,46.29,0,0,0,61,130.73a59.17,59.17,0,0,0,8.81,7.69C69.89,138.5,69.9,138.27,69.84,138.23Z"/><path class="cls-2" d="M69.93,138.52a59.36,59.36,0,0,1-8.8-7.73,60.31,60.31,0,0,1-14.2-25.14c.07.21-.4,1.44-.23,1.93a68.4,68.4,0,0,0,4.45,10.89c.56,1,2.4,4.15,3,5.11s2.75,3.88,3.45,4.79c3.64,4.72,8.05,8.48,12.68,12.17C70,140.27,70.38,138.87,69.93,138.52Z"/><path class="cls-2" d="M69.94,138.16a73.62,73.62,0,0,1-10.7-10C53.39,121.33,50,114.36,47,105.3c.1.29-.45,1.71-.24,2.32q.87,2.8,1.93,5.53a62.67,62.67,0,0,0,5.52,10.43,64,64,0,0,0,7.34,9.23,60.38,60.38,0,0,0,8.79,7.73C69.9,140.23,70.45,138.56,69.94,138.16Z"/><path class="cls-2" d="M69.86,138.34a59.36,59.36,0,0,1-8.8-7.73,46,46,0,0,1-5.45-6.85,45.18,45.18,0,0,1-4.52-7.49,58.62,58.62,0,0,1-4.17-10.84,2.28,2.28,0,0,0-.11.77,58.53,58.53,0,0,0,4.27,10.85,45.87,45.87,0,0,0,4.6,7.49,46.07,46.07,0,0,0,5.52,6.86A60.16,60.16,0,0,0,70,139.12,1.39,1.39,0,0,0,69.86,138.34Z"/><path class="cls-2" d="M70,137.74a58.49,58.49,0,0,1-8.8-7.76,44.93,44.93,0,0,1-5.44-6.86,45.09,45.09,0,0,1-4.52-7.48,59.08,59.08,0,0,1-4.15-10.85,2.53,2.53,0,0,0-.13.82,58.47,58.47,0,0,0,4.23,10.83,45.5,45.5,0,0,0,4.58,7.49,46.83,46.83,0,0,0,5.49,6.85A60.63,60.63,0,0,0,70,138.57,1.33,1.33,0,0,0,70,137.74Z"/><path class="cls-2" d="M70,138.57a59.51,59.51,0,0,1-8.77-7.7A46.19,46.19,0,0,1,55.72,124a44.84,44.84,0,0,1-4.55-7.48A59.13,59.13,0,0,1,47,105.69c0,.07-.28.88-.18,1.18a57.33,57.33,0,0,0,4.34,10.84,47.25,47.25,0,0,0,4.66,7.48A48.68,48.68,0,0,0,61.36,132a61.2,61.2,0,0,0,8.81,7.74C70,139.64,70.22,138.78,70,138.57Z"/><path class="cls-2" d="M69.92,138.35a59,59,0,0,1-8.81-7.74,61.13,61.13,0,0,1-14.19-25.13c.08.24-.41,1.56-.23,2.09,2,5.62,4.1,11,7.45,16,.79,1.17,2.62,3.71,3.49,4.84a72.4,72.4,0,0,0,12.68,12.18C69.93,140.25,70.39,138.73,69.92,138.35Z"/><path class="cls-2" d="M70,138.41c-6.17-4.89-11.8-10.19-15.9-16.94l-2.87-5.09a57.52,57.52,0,0,1-4.18-10.85c0,.09-.32,1-.22,1.26a56.38,56.38,0,0,0,4.33,10.84,63.2,63.2,0,0,0,6.37,9.87,74.12,74.12,0,0,0,12.65,12.2C70,139.56,70.28,138.64,70,138.41Z"/><path class="cls-2" d="M69.94,138.37a60,60,0,0,1-8.82-7.8,45.41,45.41,0,0,1-5.43-6.85,45.53,45.53,0,0,1-4.49-7.47,61.24,61.24,0,0,1-4.15-10.86c0-.08-.14,0-.11.08a61.18,61.18,0,0,0,4.16,10.88,45.82,45.82,0,0,0,4.51,7.49A45.91,45.91,0,0,0,61,130.69a60.19,60.19,0,0,0,8.83,7.82C70,138.57,70,138.42,69.94,138.37Z"/><path class="cls-2" d="M89.52,146.19q21.86-.06,43.7-.16c-.43,0-1-1.14-1.53-1.14q-21.81.09-43.62.08C88.47,145,89,146.19,89.52,146.19Z"/><path class="cls-2" d="M89.71,146.51q21.86-.06,43.71-.16c-.44,0-1-1.33-1.57-1.33q-21.81.1-43.62.09C88.64,145.11,89.17,146.52,89.71,146.51Z"/><path class="cls-2" d="M89.9,146.37l43.7-.2c.17,0-.06-.22-.13-.22q-21.85.09-43.7.21C89.61,146.16,89.83,146.37,89.9,146.37Z"/><path class="cls-2" d="M89.85,147.24q21.86-.06,43.72-.16c.11,0-.21-.46-.32-.46q-21.85.1-43.71.14C89.43,146.76,89.74,147.24,89.85,147.24Z"/><path class="cls-2" d="M89.6,146.59q21.86-.06,43.71-.16c-.48,0-1.08-1.62-1.7-1.62-14.53.06-29.06.12-43.59.07C88.46,144.88,89,146.6,89.6,146.59Z"/><path class="cls-2" d="M89.58,146.31q21.86-.06,43.7-.17c-.47,0-1.07-1.31-1.66-1.31-14.54.06-29.08.11-43.62.07C88.45,144.9,89,146.31,89.58,146.31Z"/><path class="cls-2" d="M89.7,146.88q21.85-.07,43.7-.18c-.21,0-.55-.92-.9-.92-14.54.06-29.08.13-43.62.12C89.06,145.9,89.37,146.88,89.7,146.88Z"/><path class="cls-2" d="M90,146.54q21.85-.06,43.73-.17c.08,0-.25-.33-.36-.32q-21.86.1-43.72.14C89.56,146.19,89.88,146.54,90,146.54Z"/><path class="cls-2" d="M89.73,146.89l43.71-.17c-.37,0-.86-1.4-1.37-1.4-14.54.06-29.06.12-43.59.08C88.8,145.4,89.25,146.89,89.73,146.89Z"/><path class="cls-2" d="M89.56,146.44q21.85-.06,43.7-.17c-.47,0-1-1.46-1.65-1.46-14.54.06-29.07.12-43.6.07C88.44,144.88,89,146.44,89.56,146.44Z"/><path class="cls-2" d="M89.8,146.75q21.86-.06,43.7-.17c-.36,0-.84-1.22-1.34-1.22q-21.79.1-43.6.09C88.88,145.45,89.33,146.75,89.8,146.75Z"/><path class="cls-2" d="M90,147.34q21.87-.06,43.74-.17c.11,0-.2-.46-.31-.45q-21.85.09-43.73.15C89.54,146.87,89.85,147.34,90,147.34Z"/></g></g></svg>