<svg xmlns="http://www.w3.org/2000/svg" viewBox="0 0 285.37 112.78"><defs><style>.cls-1,.cls-4{fill:none;}.cls-1,.cls-7{stroke:#f7824d;}.cls-1,.cls-2,.cls-4,.cls-7{stroke-miterlimit:10;}.cls-1{stroke-width:1.84px;}.cls-2,.cls-5{fill:#6b3821;}.cls-2,.cls-4{stroke:#6b3821;}.cls-2{stroke-width:1.72px;}.cls-3{font-size:14px;font-family:MostraNuova, Mostra Nuova;}.cls-3,.cls-7{fill:#f7824d;}.cls-4{fill-rule:evenodd;}.cls-5{font-size:12px;font-family:MostraNuova-Bold, Mostra Nuova;font-weight:700;}.cls-6{letter-spacing:-0.03em;}.cls-8{letter-spacing:-0.01em;}.cls-9{letter-spacing:-0.02em;}</style></defs><g id="Layer_2" data-name="Layer 2"><g id="white_oolong" data-name="white&amp;oolong"><path class="cls-1" d="M140.38,63.18s-1.84,25.7-12.85,34.88h-25.7C90.82,88.88,89,63.18,89,63.18"/><ellipse class="cls-2" cx="114.68" cy="65.94" rx="22.95" ry="6.43"/><ellipse class="cls-1" cx="114.68" cy="63.18" rx="25.7" ry="11.01"/><path class="cls-1" d="M100,96.23s-3.67,1.83,0,2.75h29.58c3.67-.92,0-2.75,0-2.75"/><text class="cls-3" transform="translate(55.37 11.79)">LOWERS THE RISK OF:</text><polyline class="cls-4" points="150.87 78.86 183.03 78.86 183.03 88.41"/><text class="cls-5" transform="translate(153.52 38.58)"><tspan class="cls-6">A</tspan><tspan x="5.84" y="0">THEROSCLEROSIS</tspan></text><text class="cls-5" transform="translate(153.96 105.51)">NEURODEGENER<tspan class="cls-6" x="84.21" y="0">A</tspan><tspan x="90.06" y="0">TION</tspan></text><polyline class="cls-4" points="150.87 68.48 183.03 68.48 183.03 50.3"/><circle class="cls-7" cx="182.87" cy="50.48" r="2"/><circle class="cls-7" cx="182.87" cy="88.48" r="2"/><text class="cls-5" transform="translate(0.16 38.24)">RHEUM<tspan class="cls-6" x="34.69" y="0">A</tspan><tspan class="cls-8" x="40.54" y="0">T</tspan><tspan x="45.28" y="0">OID </tspan><tspan x="0" y="14.4">A</tspan><tspan class="cls-9" x="6.2" y="14.4">R</tspan><tspan x="12.65" y="14.4">THRITIS</tspan></text><text class="cls-5" transform="translate(20.28 106.05)">DIABETES</text><polyline class="cls-4" points="78.31 68.48 57.69 68.48 57.69 59.51"/><circle class="cls-7" cx="57.87" cy="59.48" r="2"/><polyline class="cls-4" points="78.31 78.86 57.69 78.86 57.69 89.54"/><circle class="cls-7" cx="57.87" cy="89.48" r="2"/></g></g></svg>