<svg xmlns="http://www.w3.org/2000/svg" viewBox="0 0 218.7 133.44"><defs><style>.cls-1,.cls-10,.cls-11,.cls-12,.cls-6,.cls-8,.cls-9{fill:none;stroke-miterlimit:10;}.cls-1{stroke:#331918;stroke-width:2.03px;}.cls-2,.cls-4,.cls-5{font-size:14px;font-family:MostraNuova, Mostra Nuova;}.cls-2,.cls-4{fill:#c05c59;}.cls-2{letter-spacing:-0.02em;}.cls-3{letter-spacing:0em;}.cls-5,.cls-7{fill:#411f1e;}.cls-6{stroke:#c05c59;}.cls-10,.cls-11,.cls-12,.cls-8,.cls-9{stroke:#411f1e;stroke-width:0.75px;}.cls-9{stroke-dasharray:15.56 3.46;}.cls-10{stroke-dasharray:16.91 4.23;}.cls-11{stroke-dasharray:10.03 3.65;}.cls-12{stroke-dasharray:8.05 2.48;}</style></defs><g id="Layer_2" data-name="Layer 2"><g id="black_green" data-name="black&amp;green"><polyline class="cls-1" points="167.02 0 167.02 100.46 0 100.46"/><text class="cls-2" transform="translate(206.92 14.69) rotate(90)">B<tspan class="cls-3" x="6.26" y="0">AD bacteria</tspan></text><text class="cls-4" transform="translate(45.66 130.64)">CUP of black tea</text><line class="cls-1" x1="170.56" y1="82.78" x2="163.49" y2="82.78"/><line class="cls-1" x1="150.75" y1="104" x2="150.75" y2="96.93"/><line class="cls-1" x1="125.28" y1="104" x2="125.28" y2="96.93"/><line class="cls-1" x1="99.81" y1="104" x2="99.81" y2="96.93"/><line class="cls-1" x1="74.34" y1="104" x2="74.34" y2="96.93"/><line class="cls-1" x1="50.29" y1="104" x2="50.29" y2="96.93"/><line class="cls-1" x1="170.56" y1="64.38" x2="163.49" y2="64.38"/><line class="cls-1" x1="170.56" y1="45.99" x2="163.49" y2="45.99"/><line class="cls-1" x1="170.56" y1="27.59" x2="163.49" y2="27.59"/><text class="cls-5" transform="translate(172.01 87.66)">10%</text><text class="cls-5" transform="translate(172.47 68.66)">20%</text><text class="cls-5" transform="translate(172.44 50.66)">30%</text><text class="cls-5" transform="translate(172.53 32.66)">40%</text><text class="cls-5" transform="translate(172.45 15.66)">50%</text><text class="cls-5" transform="translate(150.09 118.95)">1</text><text class="cls-5" transform="translate(122.55 118.95)">2</text><text class="cls-5" transform="translate(97.52 118.95)">3</text><text class="cls-5" transform="translate(70.28 118.95)">4</text><text class="cls-5" transform="translate(47.54 117.95)">5</text><text class="cls-5" transform="translate(20.71 118.95)">6</text><polyline class="cls-6" points="167.02 10.61 150.75 10.61 125.28 27.59 99.81 45.99 74.34 64.38 50.29 82.78 24.82 100.46"/><circle class="cls-7" cx="150.5" cy="11" r="2"/><circle class="cls-7" cx="125.5" cy="28" r="2"/><circle class="cls-7" cx="74.5" cy="64" r="2"/><circle class="cls-7" cx="50.5" cy="83" r="2"/><circle class="cls-7" cx="99.5" cy="46" r="2"/><line class="cls-8" x1="151" y1="16" x2="151" y2="25"/><line class="cls-9" x1="151" y1="28.46" x2="151" y2="83.77"/><line class="cls-8" x1="151" y1="85.5" x2="151" y2="94.5"/><line class="cls-8" x1="126" y1="32" x2="126" y2="40"/><line class="cls-10" x1="126" y1="44.23" x2="126" y2="84.39"/><line class="cls-8" x1="126" y1="86.5" x2="126" y2="94.5"/><line class="cls-8" x1="100" y1="52" x2="100" y2="57.5"/><line class="cls-11" x1="100" y1="61.15" x2="100" y2="86.68"/><line class="cls-8" x1="100" y1="88.5" x2="100" y2="94"/><line class="cls-8" x1="51" y1="86" x2="51" y2="89"/><line class="cls-8" x1="51" y1="92.5" x2="51" y2="95.5"/><line class="cls-8" x1="75" y1="68.5" x2="75" y2="75"/><line class="cls-12" x1="75" y1="77.48" x2="75" y2="86.76"/><line class="cls-8" x1="75" y1="88" x2="75" y2="94.5"/><line class="cls-1" x1="24.82" y1="104" x2="24.82" y2="96.93"/><line class="cls-1" x1="170.56" y1="10.61" x2="163.49" y2="10.61"/></g></g></svg>