<svg xmlns="http://www.w3.org/2000/svg" viewBox="0 0 86.18 97"><defs><style>.cls-1,.cls-11,.cls-3,.cls-4,.cls-6,.cls-8{fill:#70db7c;}.cls-2,.cls-9{fill:#284f2d;}.cls-3,.cls-4{stroke:#70db7c;}.cls-3,.cls-4,.cls-5,.cls-6,.cls-7,.cls-8{stroke-miterlimit:10;}.cls-3{stroke-width:0.35px;}.cls-4{stroke-width:0.37px;}.cls-5,.cls-7{fill:none;}.cls-5,.cls-6,.cls-7,.cls-8{stroke:#3c7643;}.cls-5,.cls-6{stroke-width:0.26px;}.cls-7,.cls-8{stroke-width:0.25px;}.cls-11,.cls-9{font-size:12px;font-family:MostraNuova-Bold, Mostra Nuova;font-weight:700;}.cls-10{letter-spacing:-0.02em;}.cls-12{letter-spacing:-0.05em;}</style></defs><g id="Layer_2" data-name="Layer 2"><g id="black_green" data-name="black&amp;green"><rect class="cls-1" x="16.1" width="24" height="83"/><rect class="cls-2" x="16.1" y="52" width="24" height="31"/><rect class="cls-1" x="47.1" width="24" height="83"/><rect class="cls-2" x="47.1" y="61" width="24" height="22"/><circle class="cls-3" cx="80.25" cy="47.32" r="3.31"/><path class="cls-4" d="M80.42,50.63h0A5.58,5.58,0,0,1,86,56.2v8.54a0,0,0,0,1,0,0H74.84a0,0,0,0,1,0,0V56.2A5.58,5.58,0,0,1,80.42,50.63Z"/><polyline class="cls-4" points="86 63.15 86 64.74 74.84 64.74 74.84 63.1"/><rect class="cls-3" x="77.11" y="65.09" width="2.79" height="10.11"/><rect class="cls-3" x="80.94" y="65.09" width="2.79" height="10.11"/><line class="cls-5" x1="84.43" y1="65.45" x2="84.43" y2="54.97"/><line class="cls-6" x1="76.41" y1="65.45" x2="76.41" y2="54.97"/><circle class="cls-3" cx="5.59" cy="46.93" r="3.31"/><path class="cls-4" d="M5.76,50.24h0a5.58,5.58,0,0,1,5.58,5.58v8.54a0,0,0,0,1,0,0H.18a0,0,0,0,1,0,0V55.81a5.58,5.58,0,0,1,5.58-5.58Z"/><polyline class="cls-4" points="11.34 62.76 11.34 64.35 0.18 64.35 0.18 62.71"/><rect class="cls-3" x="2.45" y="64.7" width="2.79" height="10.11"/><rect class="cls-3" x="6.28" y="64.7" width="2.79" height="10.11"/><line class="cls-7" x1="10.31" y1="65.03" x2="9.23" y2="54.61"/><line class="cls-8" x1="1.29" y1="65.04" x2="2.22" y2="54.6"/><text class="cls-9" transform="translate(31.67 93.82)">l<tspan class="cls-10" x="2.74" y="0">ow</tspan><tspan x="15.73" y="0">er</tspan></text><text class="cls-11" transform="translate(16.91 72.56)"><tspan xml:space="preserve"> 31%</tspan></text><text class="cls-11" transform="translate(47.91 75.56)"><tspan xml:space="preserve"> 2</tspan><tspan class="cls-12" x="7.82" y="0">2</tspan><tspan x="11.93" y="0">%</tspan></text></g></g></svg>