<svg xmlns="http://www.w3.org/2000/svg" viewBox="0 0 182.89 92.59"><defs><style>.cls-1,.cls-9{fill:#f2efee;}.cls-1{stroke:#f2efee;stroke-width:0.61px;}.cls-1,.cls-2,.cls-3{stroke-miterlimit:10;}.cls-2{fill:none;stroke-width:0.66px;}.cls-2,.cls-3{stroke:#998675;}.cls-12,.cls-13,.cls-3,.cls-4,.cls-7{fill:#998675;}.cls-3{stroke-width:3.81px;}.cls-4,.cls-8,.cls-9{font-size:10.15px;}.cls-4,.cls-7{font-family:MostraNuova-Bold, Mostra Nuova;font-weight:700;}.cls-5{letter-spacing:-0.04em;}.cls-6{letter-spacing:-0.01em;}.cls-7{font-size:26.65px;}.cls-8{fill:#c05c59;}.cls-10{letter-spacing:-0.02em;}.cls-11{fill:#000;}.cls-12,.cls-13,.cls-14{font-size:17.77px;}.cls-13{letter-spacing:-0.02em;}</style></defs><g id="Layer_2" data-name="Layer 2"><g id="white_oolong" data-name="white&amp;oolong"><ellipse class="cls-1" cx="9.53" cy="17.68" rx="8.22" ry="2.3"/><ellipse class="cls-2" cx="9.53" cy="16.69" rx="9.2" ry="3.94"/><path class="cls-2" d="M18.73,16.69s-.66,9.2-4.6,12.49H4.93C1,25.89.33,16.69.33,16.69"/><path class="cls-2" d="M4.27,28.52s-1.31.66,0,1H14.86c1.31-.33,0-1,0-1"/><ellipse class="cls-1" cx="20.83" cy="35.72" rx="8.22" ry="2.3"/><ellipse class="cls-2" cx="20.83" cy="34.73" rx="9.2" ry="3.94"/><path class="cls-2" d="M30,34.73s-.66,9.2-4.6,12.49H16.23c-3.94-3.29-4.6-12.49-4.6-12.49"/><path class="cls-2" d="M15.58,46.56s-1.32.66,0,1H26.17c1.31-.33,0-1,0-1"/><ellipse class="cls-1" cx="30.83" cy="17.72" rx="8.22" ry="2.3"/><ellipse class="cls-2" cx="30.83" cy="16.73" rx="9.2" ry="3.94"/><path class="cls-2" d="M40,16.73s-.66,9.2-4.6,12.49H26.23c-3.94-3.29-4.6-12.49-4.6-12.49"/><path class="cls-2" d="M25.58,28.56s-1.32.66,0,1H36.17c1.31-.33,0-1,0-1"/><line class="cls-3" x1="51.09" y1="26.71" x2="72.67" y2="26.71"/><line class="cls-3" x1="51.09" y1="35.59" x2="72.67" y2="35.59"/><text class="cls-4" transform="translate(2.82 59.2)"><tspan class="cls-5">P</tspan><tspan x="5.1" y="0">er </tspan><tspan class="cls-6" x="16.33" y="0">D</tspan><tspan x="22.63" y="0">ay</tspan></text><text class="cls-7" transform="translate(81.92 22.44)">21%<tspan class="cls-8" x="37.36" y="0"> </tspan><tspan class="cls-9"><tspan x="0" y="21.32">l</tspan><tspan class="cls-10" x="2.31" y="21.32">ow</tspan><tspan x="13.31" y="21.32">er risk of</tspan><tspan class="cls-11" x="48.29" y="21.32"> </tspan><tspan class="cls-12" x="50.93" y="21.32">HEA</tspan><tspan class="cls-13" x="79.4" y="21.32">R</tspan><tspan class="cls-12" x="88.94" y="21.32">T </tspan></tspan><tspan class="cls-14"><tspan x="0" y="42.64">DISEASE</tspan></tspan></text></g></g></svg>