<svg xmlns="http://www.w3.org/2000/svg" viewBox="0 0 226.82 60.91"><defs><style>.cls-1,.cls-10,.cls-11,.cls-12,.cls-13,.cls-4,.cls-6{fill:#411f1e;}.cls-1,.cls-17,.cls-3,.cls-5{stroke:#411f1e;}.cls-1,.cls-17,.cls-2,.cls-3,.cls-4,.cls-5{stroke-miterlimit:10;}.cls-1{stroke-width:0.61px;}.cls-17,.cls-2,.cls-3{fill:none;}.cls-2,.cls-4{stroke:#c05c59;}.cls-2{stroke-width:0.65px;}.cls-3{stroke-width:3.81px;}.cls-4,.cls-5{stroke-width:0.58px;}.cls-14,.cls-15,.cls-16,.cls-5,.cls-9{fill:#c05c59;}.cls-6{font-size:10.15px;}.cls-14,.cls-15,.cls-16,.cls-6,.cls-9{font-family:MostraNuova-Bold, Mostra Nuova;font-weight:700;}.cls-7{letter-spacing:-0.04em;}.cls-8{letter-spacing:-0.01em;}.cls-9{font-size:20px;}.cls-10{font-size:14px;}.cls-10,.cls-11,.cls-12,.cls-13{font-family:MostraNuova, Mostra Nuova;font-weight:400;}.cls-11,.cls-12,.cls-13{font-size:16px;}.cls-12{letter-spacing:-0.01em;}.cls-15{letter-spacing:-0.02em;}.cls-16{letter-spacing:0em;}.cls-17{stroke-linecap:round;stroke-width:0.5px;}</style></defs><g id="Layer_2" data-name="Layer 2"><g id="black_green" data-name="black&amp;green"><ellipse class="cls-1" cx="9.38" cy="15.7" rx="8.09" ry="2.26"/><ellipse class="cls-2" cx="9.38" cy="14.73" rx="9.06" ry="3.88"/><path class="cls-2" d="M18.44,14.73S17.79,23.79,13.91,27H4.85C1,23.79.32,14.73.32,14.73"/><path class="cls-2" d="M4.21,26.38s-1.3.64,0,1H14.63c1.29-.33,0-1,0-1"/><ellipse class="cls-1" cx="29.38" cy="15.7" rx="8.09" ry="2.26"/><ellipse class="cls-2" cx="29.38" cy="14.73" rx="9.06" ry="3.88"/><path class="cls-2" d="M38.44,14.73S37.79,23.79,33.91,27H24.85C21,23.79,20.32,14.73,20.32,14.73"/><path class="cls-2" d="M24.21,26.38s-1.3.64,0,1H34.63c1.29-.33,0-1,0-1"/><ellipse class="cls-1" cx="19.38" cy="34.7" rx="8.09" ry="2.26"/><ellipse class="cls-2" cx="19.38" cy="33.73" rx="9.06" ry="3.88"/><path class="cls-2" d="M28.44,33.73S27.79,42.79,23.91,46H14.85C11,42.79,10.32,33.73,10.32,33.73"/><path class="cls-2" d="M14.21,45.38s-1.3.64,0,1H24.63c1.29-.33,0-1,0-1"/><line class="cls-3" x1="46.09" y1="25.62" x2="67.66" y2="25.62"/><line class="cls-3" x1="46.09" y1="34.51" x2="67.66" y2="34.51"/><path class="cls-4" d="M100.8,29.3l15.61-9A18,18,0,1,1,91.79,13.7a17.19,17.19,0,0,1,9-2.42Z"/><path class="cls-5" d="M100.8,29.3v-18a17.58,17.58,0,0,1,15.61,9Z"/><text class="cls-6" transform="translate(2.96 58.5)"><tspan class="cls-7">P</tspan><tspan x="5.1" y="0">er </tspan><tspan class="cls-8" x="16.33" y="0">D</tspan><tspan x="22.63" y="0">ay</tspan></text><text class="cls-9" transform="translate(128.06 16.84)">11%<tspan class="cls-10" x="26.12" y="0"> </tspan><tspan class="cls-11" x="29.86" y="0">l</tspan><tspan class="cls-12" x="32.98" y="0">ow</tspan><tspan class="cls-11" x="50.56" y="0">er risk </tspan><tspan class="cls-13"><tspan x="0" y="19.2">of </tspan><tspan class="cls-14" x="16.69" y="19.2">HEA</tspan><tspan class="cls-15" x="42.32" y="19.2">R</tspan><tspan class="cls-16" x="50.91" y="19.2">T </tspan><tspan x="0" y="38.4">disease</tspan></tspan></text><polyline class="cls-17" points="112.32 12.85 112.32 7.96 124.99 7.96"/></g></g></svg>