<svg xmlns="http://www.w3.org/2000/svg" viewBox="0 0 252.89 81.78"><defs><style>.cls-1,.cls-2,.cls-4,.cls-7{fill:#70db7c;}.cls-1,.cls-14,.cls-2{stroke:#70db7c;}.cls-1,.cls-13,.cls-14,.cls-15,.cls-2,.cls-3,.cls-4{stroke-miterlimit:10;}.cls-1{stroke-width:0.35px;}.cls-2{stroke-width:0.37px;}.cls-13,.cls-14,.cls-3{fill:none;}.cls-3,.cls-4{stroke:#3c7643;stroke-width:0.26px;}.cls-5{font-size:19.39px;font-family:MostraNuova-Bold, Mostra Nuova;font-weight:700;}.cls-15,.cls-5,.cls-9{fill:#284f2d;}.cls-6{letter-spacing:0.02em;}.cls-7{font-size:13.22px;font-weight:400;}.cls-7,.cls-9{font-family:MostraNuova, Mostra Nuova;}.cls-8{letter-spacing:-0.02em;}.cls-9{font-size:14px;}.cls-10{letter-spacing:-0.02em;}.cls-11{letter-spacing:-0.01em;}.cls-12{letter-spacing:-0.02em;}.cls-13,.cls-15{stroke:#284f2d;}.cls-13{stroke-width:3.35px;}.cls-14{stroke-width:1.2px;}.cls-15{stroke-width:1.12px;}</style></defs><g id="Layer_2" data-name="Layer 2"><g id="black_green" data-name="black&amp;green"><circle class="cls-1" cx="5.59" cy="3.48" r="3.31"/><path class="cls-2" d="M5.76,6.8h0a5.58,5.58,0,0,1,5.58,5.58v8.54a0,0,0,0,1,0,0H.18a0,0,0,0,1,0,0V12.37A5.58,5.58,0,0,1,5.76,6.8Z"/><polyline class="cls-2" points="11.34 19.31 11.34 20.91 0.18 20.91 0.18 19.27"/><rect class="cls-1" x="2.45" y="21.26" width="2.79" height="10.11"/><rect class="cls-1" x="6.28" y="21.26" width="2.79" height="10.11"/><line class="cls-3" x1="9.77" y1="21.62" x2="9.77" y2="11.14"/><line class="cls-4" x1="1.75" y1="21.62" x2="1.75" y2="11.14"/><circle class="cls-1" cx="19.09" cy="3.48" r="3.31"/><path class="cls-2" d="M19.26,6.8h0a5.58,5.58,0,0,1,5.58,5.58v8.54a0,0,0,0,1,0,0H13.68a0,0,0,0,1,0,0V12.37A5.58,5.58,0,0,1,19.26,6.8Z"/><polyline class="cls-2" points="24.84 19.31 24.84 20.91 13.68 20.91 13.68 19.27"/><rect class="cls-1" x="15.95" y="21.26" width="2.79" height="10.11"/><rect class="cls-1" x="19.78" y="21.26" width="2.79" height="10.11"/><line class="cls-3" x1="23.27" y1="21.62" x2="23.27" y2="11.14"/><line class="cls-4" x1="15.25" y1="21.62" x2="15.25" y2="11.14"/><circle class="cls-1" cx="32.59" cy="3.48" r="3.31"/><path class="cls-2" d="M32.76,6.8h0a5.58,5.58,0,0,1,5.58,5.58v8.54a0,0,0,0,1,0,0H27.18a0,0,0,0,1,0,0V12.37A5.58,5.58,0,0,1,32.76,6.8Z"/><polyline class="cls-2" points="38.34 19.31 38.34 20.91 27.18 20.91 27.18 19.27"/><rect class="cls-1" x="29.45" y="21.26" width="2.79" height="10.11"/><rect class="cls-1" x="33.28" y="21.26" width="2.79" height="10.11"/><line class="cls-3" x1="36.77" y1="21.62" x2="36.77" y2="11.14"/><line class="cls-4" x1="28.75" y1="21.62" x2="28.75" y2="11.14"/><circle class="cls-1" cx="46.08" cy="3.48" r="3.31"/><path class="cls-2" d="M46.26,6.8h0a5.58,5.58,0,0,1,5.58,5.58v8.54a0,0,0,0,1,0,0H40.68a0,0,0,0,1,0,0V12.37A5.58,5.58,0,0,1,46.26,6.8Z"/><polyline class="cls-2" points="51.84 19.31 51.84 20.91 40.68 20.91 40.68 19.27"/><rect class="cls-1" x="42.95" y="21.26" width="2.79" height="10.11"/><rect class="cls-1" x="46.78" y="21.26" width="2.79" height="10.11"/><line class="cls-3" x1="50.27" y1="21.62" x2="50.27" y2="11.14"/><line class="cls-4" x1="42.25" y1="21.62" x2="42.25" y2="11.14"/><circle class="cls-1" cx="59.58" cy="3.48" r="3.31"/><path class="cls-2" d="M59.76,6.8h0a5.58,5.58,0,0,1,5.58,5.58v8.54a0,0,0,0,1,0,0H54.18a0,0,0,0,1,0,0V12.37A5.58,5.58,0,0,1,59.76,6.8Z"/><polyline class="cls-2" points="65.33 19.31 65.33 20.91 54.18 20.91 54.18 19.27"/><rect class="cls-1" x="56.45" y="21.26" width="2.79" height="10.11"/><rect class="cls-1" x="60.28" y="21.26" width="2.79" height="10.11"/><line class="cls-3" x1="63.77" y1="21.62" x2="63.77" y2="11.14"/><line class="cls-4" x1="55.75" y1="21.62" x2="55.75" y2="11.14"/><circle class="cls-1" cx="11.46" cy="32.25" r="3.31"/><path class="cls-2" d="M11.63,35.56h0a5.58,5.58,0,0,1,5.58,5.58v8.54a0,0,0,0,1,0,0H6.05a0,0,0,0,1,0,0V41.13A5.58,5.58,0,0,1,11.63,35.56Z"/><polyline class="cls-2" points="17.2 48.07 17.2 49.67 6.05 49.67 6.05 48.02"/><rect class="cls-1" x="8.32" y="50.02" width="2.79" height="10.11"/><rect class="cls-1" x="12.15" y="50.02" width="2.79" height="10.11"/><line class="cls-3" x1="15.64" y1="50.38" x2="15.64" y2="39.9"/><line class="cls-4" x1="7.62" y1="50.38" x2="7.62" y2="39.9"/><circle class="cls-1" cx="24.95" cy="32.25" r="3.31"/><path class="cls-2" d="M25.13,35.56h0a5.58,5.58,0,0,1,5.58,5.58v8.54a0,0,0,0,1,0,0H19.55a0,0,0,0,1,0,0V41.13A5.58,5.58,0,0,1,25.13,35.56Z"/><polyline class="cls-2" points="30.7 48.07 30.7 49.67 19.55 49.67 19.55 48.02"/><rect class="cls-1" x="21.82" y="50.02" width="2.79" height="10.11"/><rect class="cls-1" x="25.65" y="50.02" width="2.79" height="10.11"/><line class="cls-3" x1="29.14" y1="50.38" x2="29.14" y2="39.9"/><line class="cls-4" x1="21.12" y1="50.38" x2="21.12" y2="39.9"/><circle class="cls-1" cx="38.45" cy="32.25" r="3.31"/><path class="cls-2" d="M38.63,35.56h0a5.58,5.58,0,0,1,5.58,5.58v8.54a0,0,0,0,1,0,0H33.05a0,0,0,0,1,0,0V41.13A5.58,5.58,0,0,1,38.63,35.56Z"/><polyline class="cls-2" points="44.2 48.07 44.2 49.67 33.05 49.67 33.05 48.02"/><rect class="cls-1" x="35.32" y="50.02" width="2.79" height="10.11"/><rect class="cls-1" x="39.15" y="50.02" width="2.79" height="10.11"/><line class="cls-3" x1="42.64" y1="50.38" x2="42.64" y2="39.9"/><line class="cls-4" x1="34.62" y1="50.38" x2="34.62" y2="39.9"/><circle class="cls-1" cx="51.95" cy="32.25" r="3.31"/><path class="cls-2" d="M52.13,35.56h0a5.58,5.58,0,0,1,5.58,5.58v8.54a0,0,0,0,1,0,0H46.55a0,0,0,0,1,0,0V41.13A5.58,5.58,0,0,1,52.13,35.56Z"/><polyline class="cls-2" points="57.7 48.07 57.7 49.67 46.55 49.67 46.55 48.02"/><rect class="cls-1" x="48.82" y="50.02" width="2.79" height="10.11"/><rect class="cls-1" x="52.65" y="50.02" width="2.79" height="10.11"/><line class="cls-3" x1="56.14" y1="50.38" x2="56.14" y2="39.9"/><line class="cls-4" x1="48.12" y1="50.38" x2="48.12" y2="39.9"/><circle class="cls-1" cx="65.45" cy="32.25" r="3.31"/><path class="cls-2" d="M65.63,35.56h0a5.58,5.58,0,0,1,5.58,5.58v8.54a0,0,0,0,1,0,0H60.05a0,0,0,0,1,0,0V41.13A5.58,5.58,0,0,1,65.63,35.56Z"/><polyline class="cls-2" points="71.2 48.07 71.2 49.67 60.05 49.67 60.05 48.02"/><rect class="cls-1" x="62.32" y="50.02" width="2.79" height="10.11"/><rect class="cls-1" x="66.15" y="50.02" width="2.79" height="10.11"/><line class="cls-3" x1="69.64" y1="50.38" x2="69.64" y2="39.9"/><line class="cls-4" x1="61.62" y1="50.38" x2="61.62" y2="39.9"/><circle class="cls-1" cx="72.5" cy="3.48" r="3.31"/><path class="cls-2" d="M72.67,6.8h0a5.58,5.58,0,0,1,5.58,5.58v8.54a0,0,0,0,1,0,0H67.1a0,0,0,0,1,0,0V12.37A5.58,5.58,0,0,1,72.67,6.8Z"/><polyline class="cls-2" points="78.25 19.31 78.25 20.91 67.09 20.91 67.09 19.27"/><rect class="cls-1" x="69.36" y="21.26" width="2.79" height="10.11"/><rect class="cls-1" x="73.19" y="21.26" width="2.79" height="10.11"/><line class="cls-3" x1="76.68" y1="21.62" x2="76.68" y2="11.14"/><line class="cls-4" x1="68.66" y1="21.62" x2="68.66" y2="11.14"/><circle class="cls-1" cx="78.37" cy="32.25" r="3.31"/><path class="cls-2" d="M78.54,35.56h0a5.58,5.58,0,0,1,5.58,5.58v8.54a0,0,0,0,1,0,0H73a0,0,0,0,1,0,0V41.13A5.58,5.58,0,0,1,78.54,35.56Z"/><polyline class="cls-2" points="84.12 48.07 84.12 49.67 72.97 49.67 72.97 48.02"/><rect class="cls-1" x="75.23" y="50.02" width="2.79" height="10.11"/><rect class="cls-1" x="79.06" y="50.02" width="2.79" height="10.11"/><line class="cls-3" x1="82.55" y1="50.38" x2="82.55" y2="39.9"/><line class="cls-4" x1="74.53" y1="50.38" x2="74.53" y2="39.9"/><text class="cls-5" transform="translate(187.9 29.19)">1<tspan class="cls-6" x="5.74" y="0">7</tspan><tspan x="14.69" y="0">% </tspan><tspan class="cls-7"><tspan x="0" y="15.86">fat </tspan><tspan class="cls-8" x="16.68" y="15.86">o</tspan><tspan x="23.57" y="15.86">xidation</tspan></tspan></text><text class="cls-9" transform="translate(7.53 78.98)">12 <tspan class="cls-10" x="12.78" y="0">H</tspan><tspan x="20.38" y="0">ealt</tspan><tspan class="cls-11" x="41.47" y="0">h</tspan><tspan x="47.36" y="0">y </tspan><tspan class="cls-12" x="56.32" y="0">M</tspan><tspan x="64.95" y="0">en</tspan></text><line class="cls-13" x1="160.36" y1="28.01" x2="179.37" y2="28.01"/><line class="cls-13" x1="160.36" y1="35.84" x2="179.37" y2="35.84"/><text class="cls-5" transform="translate(93.08 35.22)">+</text><path class="cls-14" d="M149.84,20.92s-1.2,16.78-8.39,22.77H124.68c-7.19-6-8.39-22.77-8.39-22.77"/><ellipse class="cls-15" cx="133.06" cy="22.72" rx="14.98" ry="4.19"/><ellipse class="cls-14" cx="133.06" cy="20.92" rx="16.77" ry="7.19"/><path class="cls-14" d="M123.48,42.49s-2.4,1.2,0,1.8h19.3c2.4-.6,0-1.8,0-1.8"/></g></g></svg>