<svg xmlns="http://www.w3.org/2000/svg" viewBox="0 0 24.51 27.06"><defs><style>.cls-1{fill:#509c58;opacity:0.11;}</style></defs><g id="Layer_2" data-name="Layer 2"><g id="black_green" data-name="black&amp;green"><path class="cls-1" d="M4.13,24a8.41,8.41,0,0,1-1.37-3.64,7.49,7.49,0,0,1,.41-6.24,18.15,18.15,0,0,0,.58-3.41A10,10,0,0,0,2.62,5.93,17.22,17.22,0,0,1,1,.68c.08.71-.9,1.72-.88,2.5A12.91,12.91,0,0,0,1.49,8.35a6.65,6.65,0,0,1,.62,4.86,18.37,18.37,0,0,1-.44,5.43,14,14,0,0,0,1.83,8,11.92,11.92,0,0,1,.38-1.33C3.93,25.09,4.27,24.22,4.13,24Z"/><path class="cls-1" d="M4.21,24.35c-1.25-2.45-2.08-5-1.56-7.73.29-1.5.93-3,1.13-4.49A10.24,10.24,0,0,0,2.7,6.29,17.14,17.14,0,0,1,1.09,1.05c.06.54-.87,1.37-.86,2A4.08,4.08,0,0,0,.57,5.56a22.81,22.81,0,0,0,1,2.63L2.29,10A23.82,23.82,0,0,1,2,17.3a13.38,13.38,0,0,0,1.59,9.1C3.38,26,4.47,24.86,4.21,24.35Z"/><path class="cls-1" d="M4.21,23.42c-1.88-3.74-2-4.85-.87-9.89A18.37,18.37,0,0,0,4,10.11,10.21,10.21,0,0,0,2.82,5.36,17.57,17.57,0,0,1,1.16.11a3,3,0,0,0-.34.94A17.33,17.33,0,0,0,2.41,6.22,13.14,13.14,0,0,1,3.57,9.78a25.08,25.08,0,0,1-.88,5.47,12.06,12.06,0,0,0-.53,3.56,13.58,13.58,0,0,0,1.77,5.67S4.33,23.64,4.21,23.42Z"/><path class="cls-1" d="M4.26,24.27l-.91-1.78a5.72,5.72,0,0,1-.31-5,14.37,14.37,0,0,1,.65-4.23A7.39,7.39,0,0,0,4,9.88C3.52,6.73,1.57,4.23,1.16,1c0-.15-.2,0-.19.09A18,18,0,0,0,2.63,6.37l.74,1.78a9.12,9.12,0,0,1-.16,6.31,15.16,15.16,0,0,0-.93,4.36,12.41,12.41,0,0,0,1.83,5.6C4.18,24.56,4.3,24.34,4.26,24.27Z"/><path class="cls-1" d="M4.08,24.55c-1.25-2.45-2.08-5-1.57-7.73.28-1.5.91-3,1.12-4.5A10.42,10.42,0,0,0,2.55,6.48,16.75,16.75,0,0,1,.94,1.26C1,1.83.06,2.7.07,3.35A4.11,4.11,0,0,0,.39,5.87a20.86,20.86,0,0,0,1,2.61l.67,1.76a25.18,25.18,0,0,1-.29,7.36,13.72,13.72,0,0,0,1.66,9.13C3.26,26.32,4.37,25.09,4.08,24.55Z"/><path class="cls-1" d="M4.16,24.15c-1.26-2.44-2.1-4.94-1.57-7.7.29-1.5.93-3,1.13-4.49A10.46,10.46,0,0,0,2.64,6.11,17.13,17.13,0,0,1,1,.86C1.09,1.54.07,2.54.08,3.3A5.52,5.52,0,0,0,.71,6.72l.73,1.73A13.85,13.85,0,0,1,2.53,12c-.15,1.87-.39,3.72-.71,5.57-.58,3.54.06,6,1.65,9.15,0-.06.4-1.23.41-1.27C3.93,25.26,4.28,24.4,4.16,24.15Z"/><path class="cls-1" d="M4.15,24.36a14.89,14.89,0,0,1-1.56-3.62l0-4C3,14,4.35,11.86,3.67,9.1a10.84,10.84,0,0,0-1-2.74A16.77,16.77,0,0,1,1.09,1.18a3.24,3.24,0,0,0-.34.89A14.57,14.57,0,0,0,2.24,7.15a9.93,9.93,0,0,1,1,5.74c-.33,2.24-1.36,4.46-1.18,6.78a14.74,14.74,0,0,0,1.8,5.49A1.33,1.33,0,0,0,4.15,24.36Z"/><path class="cls-1" d="M4.36,23.72C3,21,2.26,19.29,2.86,16c.41-2.18,1.67-4.43,1.3-6.72A14,14,0,0,0,3,5.67,17.84,17.84,0,0,1,1.31.42s-.41.64-.38.87A17.61,17.61,0,0,0,2.51,6.46a13.3,13.3,0,0,1,1.16,3.6,10.06,10.06,0,0,1-.36,3.28,23.24,23.24,0,0,0-1,5.65A13.4,13.4,0,0,0,4,24.62S4.45,23.9,4.36,23.72Z"/><path class="cls-1" d="M4.16,24.6,2.61,21a6.6,6.6,0,0,1,.17-4.12c.38-1.95,1.37-4.64,1.08-6.64C3.41,7.13,1.41,4.65,1.09,1.43c0,.09-.6,1-.59,1.32a8.31,8.31,0,0,0,.67,3.34c.51,1.17,1,2.36,1.43,3.56a10.7,10.7,0,0,1,0,5c-.4,2.25-1,4.39-.62,6.68a15,15,0,0,0,1.7,4.59C3.62,25.72,4.33,24.94,4.16,24.6Z"/><path class="cls-1" d="M4.09,24.36C2.84,21.92,2,19.41,2.52,16.65c.29-1.5.92-3,1.12-4.5A10.42,10.42,0,0,0,2.56,6.31,17.06,17.06,0,0,1,1,1.07C1,1.7.06,2.62.07,3.33A13,13,0,0,0,1.43,8.47l.67,1.76a25.26,25.26,0,0,1-.29,7.37,13.75,13.75,0,0,0,1.66,9.14,12.27,12.27,0,0,1,.38-1.17C3.9,25.37,4.22,24.6,4.09,24.36Z"/><path class="cls-1" d="M4.24,24.43,2.69,20.85a6.53,6.53,0,0,1,.18-4.12c.38-2,1.38-4.64,1.09-6.65C3.5,7,1.49,4.47,1.17,1.25c0,.11-.63,1-.62,1.41A8.18,8.18,0,0,0,1.21,6c.52,1.17,1,2.35,1.44,3.55a10.61,10.61,0,0,1,0,5c-.41,2.25-1,4.39-.63,6.68a15.16,15.16,0,0,0,1.69,4.6C3.64,25.63,4.42,24.79,4.24,24.43Z"/><path class="cls-1" d="M4.33,24.43l-.9-1.8a5.86,5.86,0,0,1-.29-5,14.18,14.18,0,0,1,.65-4.25A7.36,7.36,0,0,0,4.14,10C3.62,6.81,1.67,4.3,1.27,1.07c0-.13-.19-.05-.18,0A18,18,0,0,0,2.76,6.4L3.5,8.18a9.06,9.06,0,0,1-.17,6.31,15.26,15.26,0,0,0-1,4.37,12.86,12.86,0,0,0,1.8,5.67C4.24,24.64,4.37,24.51,4.33,24.43Z"/><path class="cls-1" d="M11.53,23a5.54,5.54,0,0,1-1.3-4.49L9.8,20.8c.13-.56,2.56-6.07,2.71-8.19a7.57,7.57,0,0,0-.95-4.14,4.61,4.61,0,0,1-1-3.94L9.66,6.6c.87-1.37,1.78-2.73,2.7-4.06l0-.07a4.13,4.13,0,0,0-.49.46C10.62,4.32,9.2,6.2,9.46,8.17a10.68,10.68,0,0,0,.82,2.55c1.13,2.91.61,4.14-.17,8-.11.55-.24,1.1-.34,1.66-.34,2,.52,3.75,1.64,5.4a9,9,0,0,1,.13-1.38C11.55,24.1,11.71,23.25,11.53,23Z"/><path class="cls-1" d="M11.63,23.39a5.58,5.58,0,0,1-1.31-4.52L10,20.32c.46-1.68,2.47-5.06,2.63-7.39a7.5,7.5,0,0,0-.94-4.12,4.6,4.6,0,0,1-1-3.94L9.78,6.51c.93-1.53,4.07-5.1,1.86-3.06A5.84,5.84,0,0,0,9.57,8.06c.17,1.61,1.2,2.9,1.53,4.47.69,3.26-.43,3.91-1.07,6.53a7.42,7.42,0,0,0,1.39,6.44C11.17,25.13,12,23.89,11.63,23.39Z"/><path class="cls-1" d="M11.56,22.44,10.68,21a8.43,8.43,0,0,1,1.06-6,5.75,5.75,0,0,0,1-3,8.79,8.79,0,0,0-.93-4.12c-1-2-2.51-2.36.56-5.58,0,0,.42-.6.22-.43a6.58,6.58,0,0,0-2,2.35C9.42,6.94,12,9,12.16,11.65a5,5,0,0,1-.7,3.54,11,11,0,0,0-.71,1.11,6.38,6.38,0,0,0-.57,1.91,7.55,7.55,0,0,0,1.28,5.34S11.7,22.66,11.56,22.44Z"/><path class="cls-1" d="M11.57,23.27l0-7.1L12.32,15a4.47,4.47,0,0,0,.45-2,8.2,8.2,0,0,0-.56-3.14,5.2,5.2,0,0,0-.82-1.71C10.17,6.55,10.6,4.85,12.68,3c.12-.09,0-.2-.08-.11a7,7,0,0,0-2,2,2.08,2.08,0,0,0-.06,2,6.13,6.13,0,0,0,1.1,2.08,4.54,4.54,0,0,1,.31,4.6c-.81,4.58.11,1-1.19,3.72a9.72,9.72,0,0,0-.51,1.63,6.58,6.58,0,0,0,1.23,4.59C11.53,23.58,11.62,23.34,11.57,23.27Z"/><path class="cls-1" d="M11.52,23.58a5.67,5.67,0,0,1-1.33-4.51l-.32,1.55c.36-1.44,2.41-5.26,2.56-7.5A7.51,7.51,0,0,0,11.48,9a4.62,4.62,0,0,1-1-3.93l-.9,1.72c1-1.73,4.09-5.23,1.84-3.11a5.75,5.75,0,0,0-2,4.69c.17,1.6,1.16,2.88,1.49,4.45.67,3.14-.4,4-1,6.57a7.56,7.56,0,0,0,1.49,6.46C11.11,25.43,11.88,24.12,11.52,23.58Z"/><path class="cls-1" d="M11.57,23.18a5.52,5.52,0,0,1-1.31-4.49l-.48,2.23c.17-.68,2.6-6,2.74-8.15a7.55,7.55,0,0,0-.94-4.13,4.6,4.6,0,0,1-1-3.93l-1,2c.24-.42,2.59-4,2.72-4.07a8.28,8.28,0,0,0-1.24,1.27,6,6,0,0,0-1.67,4.4,6.9,6.9,0,0,0,.54,1.9,11.64,11.64,0,0,1,.6,1.58,4.11,4.11,0,0,1,.26,3,11.19,11.19,0,0,1-.66,3.72,7.69,7.69,0,0,0,1.24,7.29,11.59,11.59,0,0,1,.15-1.32C11.57,24.27,11.74,23.45,11.57,23.18Z"/><path class="cls-1" d="M11.52,23.38c-2.09-3.3,1.23-7.84,1-11.4-.21-3-3-5.91-.06-9,.19-.2-.54.27-.63.38a7.56,7.56,0,0,0-1.41,1.91c-.81,1.8.37,4.05.83,5.72a5.54,5.54,0,0,1-.57,6.34,1.75,1.75,0,0,0-.12.32A11.61,11.61,0,0,0,10.12,19a6.84,6.84,0,0,0,1.31,5.21A1.72,1.72,0,0,0,11.52,23.38Z"/><path class="cls-1" d="M11.71,22.73l-.88-1.4,1.55-6.94a7.44,7.44,0,0,0,.41-3.1c-.21-2.77-3-5.93-.25-8.75.13-.13.41-.55,0-.23a6.56,6.56,0,0,0-2,2.42,3.44,3.44,0,0,0-.27,1.48,2.19,2.19,0,0,0,.45,1.4q2.85,3.69.86,7.17c-1.29,3.33-2.08,5.54,0,8.88C11.58,23.69,11.82,22.91,11.71,22.73Z"/><path class="cls-1" d="M11.59,23.67a5.56,5.56,0,0,1-1.31-4.56l-.22,1c.64-2.32,2.31-4.38,2.48-6.86a7.54,7.54,0,0,0-.92-4.13,4.59,4.59,0,0,1-1-3.93l-.58,1.11,2.28-3.07c.21-.22,0-.09-.16,0a3.4,3.4,0,0,0-.92.76A5.43,5.43,0,0,0,9.86,7.71a16.5,16.5,0,0,0,1.22,3.52,4,4,0,0,1,.22,3,4.86,4.86,0,0,1-.57,3.14,7.17,7.17,0,0,0,.7,7.55S11.75,23.92,11.59,23.67Z"/><path class="cls-1" d="M11.52,23.39a5.61,5.61,0,0,1-1.32-4.5L9.77,21c.2-.79,2.53-5.85,2.68-8a7.63,7.63,0,0,0-.95-4.13,4.63,4.63,0,0,1-1-3.93L9.59,6.76c.22-.38,2.55-3.87,2.66-3.94A6.65,6.65,0,0,0,11.05,4,6,6,0,0,0,9.41,8.35a7.47,7.47,0,0,0,.53,1.9,10.76,10.76,0,0,1,.61,1.58,4.11,4.11,0,0,1,.26,3,8.9,8.9,0,0,1-.5,3.24c-.11.33-.23.66-.32,1a7.64,7.64,0,0,0,1.41,6.77,9.85,9.85,0,0,1,.13-1.23C11.54,24.38,11.68,23.64,11.52,23.39Z"/><path class="cls-1" d="M11.66,23.5c-2.78-4.31.72-6.86,1-10.45a7.61,7.61,0,0,0-.93-4.13,4.57,4.57,0,0,1-1-3.95L10.1,6.16,12.43,3c.22-.24,0-.1-.17,0a3.87,3.87,0,0,0-.94.81A5.66,5.66,0,0,0,9.9,7.62c.07,1.62,1.36,2.92,1.57,4.51l-.23,4.09a8,8,0,0,1-.5,1.16,9.46,9.46,0,0,0-.64,2,7,7,0,0,0,1.38,5.56C11.34,24.69,11.87,23.82,11.66,23.5Z"/><path class="cls-1" d="M11.66,23.43l0-7.21.74-1.15a4.57,4.57,0,0,0,.44-2,8.11,8.11,0,0,0-.56-3.13,5.15,5.15,0,0,0-.82-1.72Q9.65,5.83,12.83,3c.1-.08-.07-.12-.15-.06a5.08,5.08,0,0,0-2.14,2.54,2.61,2.61,0,0,0,.37,2.06A7,7,0,0,1,12.13,10a6.22,6.22,0,0,1-.54,6.18c-1.56,2.63-1.68,4.7-.05,7.42C11.6,23.66,11.71,23.51,11.66,23.43Z"/><path class="cls-1" d="M20.19,24.76a11.3,11.3,0,0,1,2.48-8A5.3,5.3,0,0,0,24,14a5.89,5.89,0,0,0-.82-2.79L22,7.63a16.26,16.26,0,0,1,0-7.08C22,1.26,20.77,2,20.68,2.77a15,15,0,0,0,.06,7.11l1.12,3.53a5.16,5.16,0,0,1-.37,4,36.73,36.73,0,0,0-2.28,4.57c-.69,2.15-.52,2.82-.51,5a9.42,9.42,0,0,1,.8-1.08C19.65,25.67,20.19,25.09,20.19,24.76Z"/><path class="cls-1" d="M20.26,25.09l2.51-8a3.88,3.88,0,0,0,.75-1.05,3.74,3.74,0,0,0,.58-2.45,7.85,7.85,0,0,0-.85-2.11,13.62,13.62,0,0,1-1.31-5.33A12.09,12.09,0,0,1,22.16.88c-.07.55-1.25,1.09-1.33,1.76a10.7,10.7,0,0,0-.18,5.27A15.24,15.24,0,0,0,22,13.31a5.35,5.35,0,0,1,.2,2.83c-.55,2-2.18,3.64-2.84,5.61s-.54,2.85-.53,5C18.84,26.31,20.26,25.71,20.26,25.09Z"/><path class="cls-1" d="M20.38,24.25c.07-7.25,1.35-5.86,3.33-9a3.57,3.57,0,0,0,.62-2.5,5.61,5.61,0,0,0-.64-1.68,14.93,14.93,0,0,1-1.39-4,16.32,16.32,0,0,1,0-7.06s-.47.51-.49.74a15.92,15.92,0,0,0,.06,7.07L23,11.3c1.1,4,.71,2.86-1.2,6.24a18,18,0,0,0-1.3,2.51c-.78,2.11-.63,2.78-.68,5C19.83,25.05,20.38,24.49,20.38,24.25Z"/><path class="cls-1" d="M20.48,25.15a11.39,11.39,0,0,1,2.55-8,8,8,0,0,0,1-1.58,3.35,3.35,0,0,0,.34-1.87L24,12.56A17.06,17.06,0,0,1,22.34.93c0-.16-.21,0-.22,0-.37,3.23-.7,3.84,0,7.09a20,20,0,0,0,1.1,3.5c.17.39.35.77.55,1.14L24,15.07a13.15,13.15,0,0,1-2,3.1,12.26,12.26,0,0,0-1.76,7.06C20.26,25.39,20.48,25.23,20.48,25.15Z"/><path class="cls-1" d="M20.09,25.28c0-7.47,1.15-5.43,3.23-9a3.21,3.21,0,0,0,.56-1.84,5.75,5.75,0,0,0-.8-2.73L22,8.15a16.26,16.26,0,0,1,0-7.08c-.07.58-1.3,1.15-1.38,1.84a11.08,11.08,0,0,0-.19,5.27,15.26,15.26,0,0,0,1.33,5.38,5.3,5.3,0,0,1,.17,2.79c-.53,2-2.13,3.67-2.78,5.65s-.54,2.86-.52,5.05C18.62,26.55,20.09,25.92,20.09,25.28Z"/><path class="cls-1" d="M20.2,24.92l2.49-8a3.59,3.59,0,0,0,.74-1A3.7,3.7,0,0,0,24,13.45a10.08,10.08,0,0,0-.85-2.13A13.44,13.44,0,0,1,21.87,6,12.09,12.09,0,0,1,22.09.71a7.39,7.39,0,0,1-.79,1.05c-.19.27-.64.75-.68,1.12a11.2,11.2,0,0,0-.18,5.27,15.16,15.16,0,0,0,1.34,5.36,5.51,5.51,0,0,1,.16,2.82c-.53,2-2.14,3.68-2.79,5.65-.69,2.12-.53,2.9-.51,5.07a10.25,10.25,0,0,1,.83-1C19.62,25.82,20.2,25.24,20.2,24.92Z"/><path class="cls-1" d="M20.26,25.17A6.5,6.5,0,0,1,21.51,20a7.11,7.11,0,0,1,1.29-2.78A5.9,5.9,0,0,0,24.05,15a4.42,4.42,0,0,0-.26-2.38L22.18,8.09a15.67,15.67,0,0,1,0-7.08s-.57.48-.59.7A11,11,0,0,0,21.43,7a15.57,15.57,0,0,0,1.41,5.49,3.18,3.18,0,0,1,.18,3,3.75,3.75,0,0,1-1,2.22,13.05,13.05,0,0,0-1.78,3.19c-.76,2.07-.61,2.78-.62,4.94C19.64,25.86,20.26,25.37,20.26,25.17Z"/><path class="cls-1" d="M20.52,24.54a6.47,6.47,0,0,1,1.29-5.22,10.66,10.66,0,0,1,2-3.72,3.17,3.17,0,0,0,.59-1.83c.06-1,.1-.54-.32-1.82L22.44,7.37a16.17,16.17,0,0,1,0-7.06s-.52.5-.55.73a15.78,15.78,0,0,0,.06,7l1.13,3.52c.68,1.81.86,3.26-.26,4.9a24.12,24.12,0,0,0-1.67,2.65,13,13,0,0,0-1.25,6.12S20.51,24.76,20.52,24.54Z"/><path class="cls-1" d="M20.21,25.36l.59-4.84a7.56,7.56,0,0,1,1.54-2.67A6.79,6.79,0,0,0,24,15.18a4.21,4.21,0,0,0-.27-2.33,11.45,11.45,0,0,1-1.05-2.79,14.54,14.54,0,0,1-.56-8.82c0,.07-.91.74-.95,1.09a20.13,20.13,0,0,0,.08,7.18c.41,2.14,1.58,3.71,1.41,5.84-.15,1.8-1.63,3.38-2.4,5a12.64,12.64,0,0,0-1.07,6.08C19.19,26.17,20.21,25.76,20.21,25.36Z"/><path class="cls-1" d="M20.11,25.11l2.49-8a3.88,3.88,0,0,0,.75-1.05,3.88,3.88,0,0,0,.58-2.45,7.69,7.69,0,0,0-.84-2.11,13.61,13.61,0,0,1-1.3-5.33A12.09,12.09,0,0,1,22,.9c-.08.64-1.31,1.26-1.4,2a11.24,11.24,0,0,0-.18,5.28,14.94,14.94,0,0,0,1.33,5.36,5.58,5.58,0,0,1,.17,2.81c-.54,2-2.14,3.67-2.79,5.65s-.53,2.88-.51,5.06a10,10,0,0,1,.79-.93C19.56,25.94,20.11,25.4,20.11,25.11Z"/><path class="cls-1" d="M20.31,25.19l.59-4.84a28.69,28.69,0,0,1,2.31-3.64A5.13,5.13,0,0,0,24.1,15a3.87,3.87,0,0,0-.27-2.35,11.7,11.7,0,0,1-1.06-2.8,14.46,14.46,0,0,1-.55-8.82c0,.1-.95.8-1,1.18a23.57,23.57,0,0,0-.41,3.44A20.92,20.92,0,0,0,22.47,13a5.41,5.41,0,0,1,.2,2.85,12.76,12.76,0,0,1-1.82,3.26,12.79,12.79,0,0,0-1.62,7.21C19.23,26.07,20.31,25.63,20.31,25.19Z"/><path class="cls-1" d="M20.48,25.32a11.69,11.69,0,0,1,2.65-8,8.81,8.81,0,0,0,1-1.58,3.47,3.47,0,0,0,.35-1.88l-.41-1.17A16.91,16.91,0,0,1,22.45,1c0-.13-.19-.07-.2,0-.37,3.21-.7,3.83,0,7.08a26.8,26.8,0,0,0,1.1,3.5,10.09,10.09,0,0,0,.55,1.15l.28,2.38a12.63,12.63,0,0,1-2,3.09,12.66,12.66,0,0,0-1.88,7.16C20.26,25.53,20.48,25.4,20.48,25.32Z"/></g></g></svg>