<svg xmlns="http://www.w3.org/2000/svg" viewBox="0 0 89.88 98.21"><defs><style>.cls-1{fill:#f2efee;opacity:0.11;}</style></defs><g id="Layer_2" data-name="Layer 2"><g id="white_oolong" data-name="white&amp;oolong"><path class="cls-1" d="M15.73,87c-2-3.67-4.27-7.68-5.23-11.78L9.44,67.36l.39-3.91c.54-3.91,2.1-7.74,3.21-11.5.61-2.07,1.16-4.1,1.6-6.2a28.14,28.14,0,0,0,.57-10.5A44.17,44.17,0,0,0,11.77,24.7C10.23,21.3,8.47,18,7,14.52l-1.51-4A23.33,23.33,0,0,1,4.27,2.58a1.72,1.72,0,0,0-.6.84Q2.82,5.15,2,6.9C1.48,8.06,1,9.23.47,10.41a1.76,1.76,0,0,0-.26,1,31.09,31.09,0,0,0,1.63,8.09L3.19,23.4C4.61,27.27,6.38,31,7.7,34.91a35.73,35.73,0,0,1,1.87,12c0,4.85-1.3,9.68-2.14,14.43a53.19,53.19,0,0,0-.88,15.1c.73,7.27,3.65,13.74,6.89,20.24a1.79,1.79,0,0,0,.43-1c.34-1.27.66-2.54,1-3.82s.59-2.56.85-3.84A1.76,1.76,0,0,0,15.73,87Z"/><path class="cls-1" d="M16,88.41c-1.94-3.67-4.24-7.7-5.2-11.79L9.74,68.69l.37-4c.82-6.1,3.56-11.83,4.84-17.83a28.14,28.14,0,0,0,.57-10.5,43.62,43.62,0,0,0-3.46-10.47c-1.54-3.39-3.3-6.68-4.73-10.12l-1.51-4A23.38,23.38,0,0,1,4.56,3.87,1.14,1.14,0,0,0,4,4.49c-.55.88-1.09,1.78-1.6,2.69C2,7.87.5,9.76.63,10.73a30.16,30.16,0,0,0,1.59,8.08l1.37,3.91C5,26.62,6.89,30.35,8.2,34.3a34.79,34.79,0,0,1,1.94,12.05A76.73,76.73,0,0,1,8.28,58.87c-1.08,5.63-2,11-1.41,16.75A37.88,37.88,0,0,0,8,82.06a74.22,74.22,0,0,0,5.69,13.75,1.11,1.11,0,0,0,.42-.72c.35-1,.68-1.93,1-2.91C15.25,91.61,16.4,89.14,16,88.41Z"/><path class="cls-1" d="M16.05,84.93c-2-3.73-4.13-7.63-5.18-11.76a27.74,27.74,0,0,1,0-13.64c1.47-5.94,4.37-11.61,5.22-17.71a28.38,28.38,0,0,0-.38-10.63,37.76,37.76,0,0,0-2.17-6.52c-1.75-4.14-4.07-8-5.79-12.19l-1.55-4A22.9,22.9,0,0,1,4.91.57c0-.61-.73.9-.64.7a6.1,6.1,0,0,0-.86,2.45,20.31,20.31,0,0,0,.9,6,25.48,25.48,0,0,0,2.05,5.92C7.82,19,9.49,22.25,11,25.58a42.09,42.09,0,0,1,3.3,10.24c.66,4-.06,8.57-1.06,12.44C11.49,54.93,8.78,61.34,8.7,68.35c-.08,7.24,3.16,13.94,6.35,20.25.26.52.55-.95.53-.87C15.72,87.16,16.35,85.51,16.05,84.93Z"/><path class="cls-1" d="M16.31,87.75a50.89,50.89,0,0,1-4.68-9.33A27.49,27.49,0,0,1,10,68.3l1.6-7.61q.91-2.84,1.93-5.64a49.67,49.67,0,0,0,2.73-9.76c.16-1.18.33-3.11.37-4.3A27.41,27.41,0,0,0,14.41,30.2c-1.37-3.6-3.15-7-4.81-10.45l-1.87-4A25.39,25.39,0,0,1,5,3.92c0-.54-.73,0-.71.33a33.48,33.48,0,0,0,1.2,8,63.61,63.61,0,0,0,3.37,8c1.91,4.08,4.24,8.12,5.49,12.48L15.46,37a20.49,20.49,0,0,1-.34,8.36,22.85,22.85,0,0,1-1.17,6,59.21,59.21,0,0,1-1.88,5.79,54.73,54.73,0,0,0-2.49,9.59,24.88,24.88,0,0,0,.8,10.15c1.13,4.08,3.24,7.6,5.42,11.19C16,88.51,16.47,88,16.31,87.75Z"/><path class="cls-1" d="M15.55,89.12c-2-3.67-4.23-7.68-5.21-11.76L9.25,69.43l.34-4c.77-6.12,3.47-11.88,4.72-17.9a28.57,28.57,0,0,0,.57-10.5,43.3,43.3,0,0,0-3.42-10.44C9.94,23.24,8.2,20,6.78,16.53l-1.5-4A23.67,23.67,0,0,1,4,4.58a1.32,1.32,0,0,0-.58.67c-.56.93-1.1,1.88-1.62,2.84C1.39,8.82-.12,10.81,0,11.83a31.48,31.48,0,0,0,1.61,8.09L3,23.81c1.39,3.85,3.13,7.57,4.43,11.47a36.36,36.36,0,0,1,1.86,12c0,4.91-1.31,9.8-2.1,14.62a53.36,53.36,0,0,0-.88,12.86A43.69,43.69,0,0,0,7.6,83.25,77.69,77.69,0,0,0,13.32,97a1.29,1.29,0,0,0,.41-.78c.34-1,.65-2.06.94-3.1C14.84,92.51,16,89.91,15.55,89.12Z"/><path class="cls-1" d="M15.81,87.7c-2-3.67-4.26-7.68-5.23-11.77L9.51,68.05l.37-3.94c.83-6.08,3.54-11.79,4.81-17.79a28.57,28.57,0,0,0,.57-10.5,43.67,43.67,0,0,0-3.45-10.5c-1.53-3.4-3.28-6.71-4.72-10.15l-1.5-4A23.29,23.29,0,0,1,4.33,3.23a1.55,1.55,0,0,0-.62.8Q2.81,5.69,2,7.39C1.4,8.51.85,9.64.32,10.79a1.65,1.65,0,0,0-.28,1,30.68,30.68,0,0,0,1.63,8.09,60.15,60.15,0,0,0,2.11,5.81A112,112,0,0,1,8,37.15a35,35,0,0,1,.93,14.22c-.52,4.17-1.45,8.26-2.07,12.41a52.08,52.08,0,0,0-.43,12.9C7.13,84,10.09,90.5,13.33,97a1.64,1.64,0,0,0,.45-.92c.36-1.22.7-2.44,1-3.67s.65-2.46.93-3.7A1.63,1.63,0,0,0,15.81,87.7Z"/><path class="cls-1" d="M15.78,88.45a68.55,68.55,0,0,1-4.47-9.69,17.73,17.73,0,0,1-1.14-4,14.1,14.1,0,0,1,.75-9.86,34.41,34.41,0,0,1,2.46-11.63l1.16-3.91A33.56,33.56,0,0,0,15.7,39c-.3-5.31-2.34-10.16-4.6-14.94-1.25-2.67-2.61-5.3-3.79-8a26.13,26.13,0,0,1-2-6A17.54,17.54,0,0,1,4.5,4.13c0-.55-.75.64-.69.54-.29.46-1.09,1.52-1,2.11a20.68,20.68,0,0,0,1,6,28.57,28.57,0,0,0,2,5.95c.86,2.05,1.8,4.08,2.71,6.1A72.69,72.69,0,0,1,12.37,35c1.53,5.48,1.08,11-.19,16.43S9,62,8.45,67.49A30.31,30.31,0,0,0,9.66,79.76a80.91,80.91,0,0,0,5.09,11.61c.24.46.54-.68.54-.67C15.44,90.28,16,88.9,15.78,88.45Z"/><path class="cls-1" d="M16.59,86a68.81,68.81,0,0,1-4.47-9.72,25.78,25.78,0,0,1-1.55-6.07L11.8,58.65c1.76-6.58,5.16-12.94,5.11-19.91A30.67,30.67,0,0,0,14.8,27.87c-1.84-4.93-4.55-9.45-6.56-14.3l-1.55-4A22.87,22.87,0,0,1,5.44,1.65c0-.58-.75.75-.68.61-.29.53-1,1.59-1,2.25a19.86,19.86,0,0,0,.91,6,27.35,27.35,0,0,0,2,5.95c2.69,6.43,7.2,13.41,7.78,20.33a35.53,35.53,0,0,1-.61,10.39c-.71,3.34-1.72,6.56-2.67,9.84A43.8,43.8,0,0,0,9.14,69.08c0,7.2,3.12,13.72,6.33,20,.24.46.56-.73.56-.72C16.18,87.91,16.85,86.45,16.59,86Z"/><path class="cls-1" d="M15.83,89.25C12.51,83.07,9.64,76.81,9.6,69.66c0-7.42,3.63-14.42,5.16-21.56a26.47,26.47,0,0,0,.86-6.36,30.87,30.87,0,0,0-2-10.62c-1.29-3.54-3-6.88-4.57-10.29l-1.84-4A30.1,30.1,0,0,1,4.42,5.06c0-.68-1,1-.95.9C3,6.65,2.6,7.35,2.19,8.05A4.54,4.54,0,0,0,1.63,9.2C2.1,13,2,13.71,3.23,17.42c1.1,3.35,2.52,6.58,3.89,9.84a72.15,72.15,0,0,1,3.53,9.88,32.05,32.05,0,0,1,.47,12.38C10.11,56.38,7.81,63,7.48,70A34.7,34.7,0,0,0,9.1,82.35,87.19,87.19,0,0,0,14.26,94a24,24,0,0,0,1-2.31C15.43,91.23,16.13,89.81,15.83,89.25Z"/><path class="cls-1" d="M15.58,88.45c-1.95-3.67-4.24-7.68-5.22-11.77l-1.08-7.9.35-4C10.42,58.73,13.12,53,14.38,47A28.53,28.53,0,0,0,15,36.49,43.89,43.89,0,0,0,11.53,26C10,22.63,8.26,19.33,6.83,15.89l-1.5-4A23.15,23.15,0,0,1,4.06,4a1.42,1.42,0,0,0-.6.74c-.56,1-1.11,2.05-1.64,3.09-.42.82-1.95,3-1.81,4.05a31.07,31.07,0,0,0,1.62,8.09L3,23.81c1.4,3.85,3.14,7.58,4.44,11.47a36.41,36.41,0,0,1,1.85,12c0,4.91-1.31,9.79-2.1,14.61a53.69,53.69,0,0,0-.72,15c.76,7.25,3.65,13.68,6.89,20.17a1.49,1.49,0,0,0,.42-.86c.33-1.12.65-2.25.94-3.38C14.87,92.13,16,89.29,15.58,88.45Z"/><path class="cls-1" d="M16.12,88.64c-2.29-4.26-4.54-8.78-5.57-13.53a27,27,0,0,1-.27-10c1.05-6.69,4.32-12.84,5.27-19.56.2-1.36.38-3,.44-4.36a27.66,27.66,0,0,0-2-10.63c-1.3-3.54-3-6.88-4.61-10.28l-1.85-4A29.91,29.91,0,0,1,4.75,4.45C4.7,3.89,3.51,5.82,3.4,6,3,6.73,1.68,8.17,1.8,9.1a46.56,46.56,0,0,0,1.56,8C4.57,21.19,6.52,25,8.11,29a45.17,45.17,0,0,1,3.45,12,40.4,40.4,0,0,1-.92,12.25c-1.7,8.15-4.24,16.33-2.5,24.75,1.15,5.58,3.66,10.79,6.23,15.83.05.09,1.12-2.53,1.1-2.48C15.64,90.81,16.43,89.22,16.12,88.64Z"/><path class="cls-1" d="M16.69,88A52,52,0,0,1,12,78.66a27.81,27.81,0,0,1-1.6-8.06c-.33-7.93,4-15.44,5.73-23a29.29,29.29,0,0,0,.68-8.45A32.84,32.84,0,0,0,14,28.34c-1.2-2.84-2.67-5.56-4-8.32a32.6,32.6,0,0,1-3.09-8A16.79,16.79,0,0,1,5.41,4.18c0-.45-.65-.16-.63.16a35.46,35.46,0,0,0,1.2,8c1.2,4.19,3.56,8.21,5.4,12.12A57.05,57.05,0,0,1,15.4,35a27.15,27.15,0,0,1,0,12.58c-1.3,5.9-3.95,11.42-5.14,17.33a24.6,24.6,0,0,0,.5,12,50,50,0,0,0,5.41,11.3C16.37,88.56,16.85,88.32,16.69,88Z"/><path class="cls-1" d="M42.49,83.44a11.71,11.71,0,0,1-3.05-5.75,15.65,15.65,0,0,1-.32-12.58l-2.21,6.47A147.46,147.46,0,0,1,44.5,55.5a14.52,14.52,0,0,0,2-5.93,27.66,27.66,0,0,0-.81-11.69A15.44,15.44,0,0,0,44,33.3a18.61,18.61,0,0,0-2.84-4.9l-1.71-2.63a8.78,8.78,0,0,1-1.41-7.09l-1.67,4.21,2.38-5.52-3.63,6.5,5-8.32-4.33,6,6-7.54-4.8,5.25L45.57,11c1.33-1.14-.07-.42-.82.08-1,.71-2.09,1.44-3.12,2.17a10.47,10.47,0,0,0-2.5,1.92c-2.94,4.39-4.82,7.4-4.83,12A17.31,17.31,0,0,0,36,34.61a40.07,40.07,0,0,1,3.08,6.65A34.91,34.91,0,0,1,40.57,54.1c-.64,7.86-5.57,15-4.74,23.07a33.26,33.26,0,0,0,1.45,7.22A36.39,36.39,0,0,0,42,93.46a1.78,1.78,0,0,0,.24-1c.1-1.32.17-2.64.23-4s.1-2.64.12-4A1.81,1.81,0,0,0,42.49,83.44Z"/><path class="cls-1" d="M42.84,84.93a17.63,17.63,0,0,1-4.11-8.8,20.53,20.53,0,0,1,2-12.72l-.86,1.68c1.79-3.16,4.26-6.65,5.83-10.12a23.52,23.52,0,0,0,1.07-13.61l-1.34-4.67a25.47,25.47,0,0,0-3.88-7c-2.56-3.86-4.55-6.53-2.13-11.79l-2,3.1a33,33,0,0,1,9.11-9.46c.73-.56-2.29.81-1.83.58-1.08.56-2.15,1.13-3.22,1.71a9.79,9.79,0,0,0-1.61,1c-2,2.73-4.26,5.6-4.84,9a17.54,17.54,0,0,0,0,5.46,6,6,0,0,0,.81,3.48,25.28,25.28,0,0,0,1.86,3.67,30.53,30.53,0,0,1,3.54,12.67A24.31,24.31,0,0,1,41,55.88q-1.41,5.31-3.29,10.47a27.69,27.69,0,0,0-1.6,10.09,32.4,32.4,0,0,0,1.32,7.12,32.57,32.57,0,0,0,4.68,9,1.14,1.14,0,0,0,.26-.79c.14-1,.26-2,.35-3C42.78,88.07,43.36,85.65,42.84,84.93Z"/><path class="cls-1" d="M42.59,81.36a23.13,23.13,0,0,1-3.3-5.8c-.22-.64,5.16-20.3,5.38-20.69.54-1,1.24-1.94,1.68-3a21.71,21.71,0,0,0,1.38-11.21,29.51,29.51,0,0,0-3.85-11.63C43,27.64,42,26.32,41.07,25c-1.85-2.74-2.93-4.67-2.3-8.31l-.93,2.7c2.21-5.12,4.63-6.78,8.59-9.67.35-.26,1-.65,1.2-1.07.09-.22-.05-.36-.29-.21-2.85,1.81-6,3.5-8,6.33a13.87,13.87,0,0,0-1.74,3.93c-.88,3-.16,5.59,1.46,8.18l1.81,2.7,4.66,11,.53,4.61a14.6,14.6,0,0,1-2.21,8.54,15.34,15.34,0,0,1-2.53,5.16,8.44,8.44,0,0,0-.91,1.38c-.31.56-.59,1.15-.85,1.74a26.93,26.93,0,0,0-1.24,3.39,22,22,0,0,0-.82,7.43A29.76,29.76,0,0,0,38,76.21a24.66,24.66,0,0,0,4.2,9.05c.33.5.38-1.1.37-1C42.65,83.65,43,81.93,42.59,81.36Z"/><path class="cls-1" d="M42.64,84.11l-2-2.53q-3.77-5.37.48-11.79A12.49,12.49,0,0,1,44,59.51a10.55,10.55,0,0,0,1-1.31c2.84-4.1,3.5-9.34,2.88-14.17a28.73,28.73,0,0,0-4.07-11.85c-1.15-1.8-2.52-3.47-3.61-5.31q-4.61-5.62,1.77-9.17a13,13,0,0,1,5.7-5.33c.56-.33-.23-.48-.59-.26-2.62,1.62-5.75,3.32-7.66,5.85a7.71,7.71,0,0,0-1.78,4.16,16.54,16.54,0,0,0,.53,2.61l1.4,2.63A30.3,30.3,0,0,1,44,36a15.25,15.25,0,0,1,3,8.36,11.48,11.48,0,0,1-.45,6.75,9.65,9.65,0,0,1-2.44,7q-1.18,2-2.55,3.87A20.53,20.53,0,0,0,38,74.52a11.1,11.1,0,0,0,.47,3.32c.63,2.77,2,4.56,3.77,6.77C42.51,84.94,42.84,84.37,42.64,84.11Z"/><path class="cls-1" d="M42.46,85.63c-5.19-7.25-5.53-13.32-2.33-21.49l-.87,1.78C41,62.69,43.45,59.14,45,55.62A23.7,23.7,0,0,0,46.07,42l-1.32-4.66a25.71,25.71,0,0,0-3.81-7c-2.55-3.87-4.47-6.52-2.15-11.78l-2,3.28,3.51-5.15-3.76,4.43,9.31-9.06c.2-.16.12-.25-.11-.2A10.89,10.89,0,0,0,43,13.12c-1.06.54-2.11,1.08-3.15,1.66a3.36,3.36,0,0,0-1.27.89c-2.35,3.77-4.51,7.46-4.5,12,.23,1.65.43,3.3.59,4.95a25.37,25.37,0,0,0,1.65,3.64c.62,1.19,1.24,2.39,1.84,3.59a54.83,54.83,0,0,1,2,7.89,35.37,35.37,0,0,1-.1,9L38,64.12c-1.3,4.45-2.78,8.81-2.24,13.53a36,36,0,0,0,1.5,7.14,34.17,34.17,0,0,0,4.78,9,1.32,1.32,0,0,0,.23-.85c.1-1.08.18-2.15.23-3.23C42.52,89,43,86.42,42.46,85.63Z"/><path class="cls-1" d="M42.62,84.19a17.46,17.46,0,0,1-4.12-8.73,20.86,20.86,0,0,1,.68-9.69L37.66,70l2.79-7.16-3,6a99.44,99.44,0,0,1,6.29-11.34l1.5-2.78a21.83,21.83,0,0,0,1.42-11.52,28,28,0,0,0-4.56-12.8q-1.34-2-2.6-3.94a8.81,8.81,0,0,1-1.42-7.09l-.86,2.1,1.86-4.13L35.8,23l4.41-6.87-4.55,5.78L46.15,11q.33-.35-.12-.18a12.62,12.62,0,0,0-1.9,1.06Q42.35,13,40.59,14.14a13,13,0,0,0-1.77,1.27C36.41,19.16,34,23,34.13,27.57c.24,1.65.44,3.31.61,5A33.2,33.2,0,0,0,37,37.36,30.42,30.42,0,0,1,40.35,49.9a26.13,26.13,0,0,1-.23,6.78Q38.71,62,37,67.28a27.58,27.58,0,0,0-1.26,10.4,39,39,0,0,0,1.39,6.81A33.11,33.11,0,0,0,42,93.81a1.72,1.72,0,0,0,.25-1c.12-1.26.22-2.53.29-3.8s.15-2.53.19-3.8A1.69,1.69,0,0,0,42.62,84.19Z"/><path class="cls-1" d="M42.43,84.89A17.87,17.87,0,0,1,38.12,73,29.72,29.72,0,0,1,44,58.35a20.86,20.86,0,0,0,3.33-11.82A31,31,0,0,0,45.45,37a26.25,26.25,0,0,0-3.92-7.11A10.72,10.72,0,0,1,38.37,20l-.56,1.49A23.15,23.15,0,0,1,46.5,12.1c.6-.4-.07-.35-.41-.26A6.72,6.72,0,0,0,43.66,13c-3,2.6-6.25,5.3-6.8,9.48a12.28,12.28,0,0,0,.28,4.87,21,21,0,0,0,1.41,2.8,31.59,31.59,0,0,1,3.17,6A24.57,24.57,0,0,1,44.33,53a23.68,23.68,0,0,1-4,9.75,24.32,24.32,0,0,0-3,9.32,23.71,23.71,0,0,0,.49,6.73A24.5,24.5,0,0,0,42.11,88c.31.45.37-.86.37-.78C42.53,86.71,42.76,85.36,42.43,84.89Z"/><path class="cls-1" d="M43.14,82.38a16.7,16.7,0,0,1-3.27-5.75,44.51,44.51,0,0,1,6.82-23.37,22.61,22.61,0,0,0,1.23-13.88,31.08,31.08,0,0,0-3.48-9.17,13.55,13.55,0,0,0-2-2.87q-5.19-5-2.13-11.6L39,18l2.87-4-1.64,1.93,7.25-5.81s.87-.55.41-.66-1.47.76-1.79,1c-2.76,2-5.8,4-7.3,7.13a11.15,11.15,0,0,0-1.12,5c0,3.14,2.17,5.29,3.58,7.87l5,15.75-.47,4.54c-.66,4-2.34,6.4-4.22,9.49a33,33,0,0,0-1.79,3.17,21.14,21.14,0,0,0-1.82,10,28.57,28.57,0,0,0,.48,3.34,23.88,23.88,0,0,0,4.17,8.87c.3.44.42-.84.42-.79C43.12,84.31,43.46,82.84,43.14,82.38Z"/><path class="cls-1" d="M42.72,85.87a17,17,0,0,1-3.32-5.68q-3.74-10.72,4.51-21.28a16.52,16.52,0,0,0,2.77-7,7,7,0,0,0,.23-2.47,27.38,27.38,0,0,0-3.67-16c-1.2-1.76-2.38-3.54-3.52-5.33a8.13,8.13,0,0,1-.47-9.23l-.67,1.08L40.7,17l-.86,1a35.43,35.43,0,0,1,6.55-5.47c.62-.46-1.78.32-1.4.18-.82.31-1.64.63-2.45,1a5.07,5.07,0,0,0-1.23.62c-1.86,2.22-3.92,4.44-4.85,7.23a15.37,15.37,0,0,0-.4,7.38c.33,2.36,1.66,4.32,2.79,6.38a31.44,31.44,0,0,1,3.61,10.7,28.64,28.64,0,0,1-1.18,13.38c-1.13,3.07-2.71,6-3.69,9.09a23.12,23.12,0,0,0-.63,10,26.52,26.52,0,0,0,5.18,12.16c.36.51.43-1.24.43-1.16.07-.76.13-1.53.18-2.29A4,4,0,0,0,42.72,85.87Z"/><path class="cls-1" d="M42.44,84.94a17.61,17.61,0,0,1-4.12-8.75,21.2,21.2,0,0,1,.62-9.71l-.67,2,1.92-5-1.82,3.73c2-3.68,4.88-8.07,6.7-12.19a23.73,23.73,0,0,0,1.07-13.62l-1.32-4.67a26,26,0,0,0-3.83-7c-2.55-3.87-4.47-6.5-2.14-11.75L35.7,23.23A34.25,34.25,0,0,1,45.85,11.57c.21-.17.11-.24-.12-.19A10.5,10.5,0,0,0,43,12.82c-1.06.61-2.12,1.23-3.16,1.88a3.83,3.83,0,0,0-1.27,1c-2.37,3.75-4.52,7.43-4.5,12,.24,1.65.44,3.3.6,5a25.3,25.3,0,0,0,1.66,3.63c.62,1.19,1.24,2.39,1.84,3.59a58,58,0,0,1,2,7.92,34.77,34.77,0,0,1-.11,9L38,64.1c-1.31,4.45-2.79,8.8-2.25,13.53a35.66,35.66,0,0,0,1.5,7.18,34.23,34.23,0,0,0,4.78,9,1.47,1.47,0,0,0,.24-.92c.09-1.17.16-2.35.21-3.52C42.51,88.59,43.05,85.78,42.44,84.94Z"/><path class="cls-1" d="M42.88,85.13a18.1,18.1,0,0,1-4.06-8.73,28,28,0,0,1,5.45-18.07,21,21,0,0,0,3-9.53,27.27,27.27,0,0,0-3.72-16C42.36,31,41.17,29.24,40,27.44a8,8,0,0,1-.43-9.22l-1.48,2.21a31.34,31.34,0,0,1,8.68-8.5c.63-.46-1.83.42-1.44.26-.85.35-1.68.72-2.51,1.11a5.48,5.48,0,0,0-1.26.68C39.45,16.47,37,19,36.24,22.35a15.36,15.36,0,0,0,.11,7.26A28.87,28.87,0,0,0,39,34.94a18.25,18.25,0,0,1,2.65,6.33,21.86,21.86,0,0,1,1.16,6.64,21.47,21.47,0,0,1-.25,6.83,20.85,20.85,0,0,1-2.34,7.06A38.64,38.64,0,0,0,37,71.21a26,26,0,0,0,.74,10.2,26.81,26.81,0,0,0,4.56,9c0,.05.52-2.61.52-2.6C42.9,87.21,43.29,85.7,42.88,85.13Z"/><path class="cls-1" d="M43,84.38a9.52,9.52,0,0,1-3.11-7.1,8.61,8.61,0,0,1-.9-6.13A17.55,17.55,0,0,1,43.39,61l1.92-2.49a20,20,0,0,0,3.22-11.79,32.1,32.1,0,0,0-4.35-14.21c-1.08-1.86-2.62-3.49-3.65-5.37l-1.86-5.07A21.83,21.83,0,0,1,48,12.65c.49-.29-.18-.52-.53-.31-3,1.81-7.53,4.11-8.87,7.65a6.24,6.24,0,0,0-.07,4.73A10.19,10.19,0,0,0,40,27.45a50.87,50.87,0,0,1,7.17,14.64,22.91,22.91,0,0,1-.92,13.51q-2.39,4-5.13,7.74a20.27,20.27,0,0,0-1.49,3.12,19.67,19.67,0,0,0-1.14,9.78c.5,3.5,1.93,5.7,4.12,8.47C42.8,85,43.22,84.64,43,84.38Z"/><path class="cls-1" d="M73.8,89.88l-.23-4.52a31.44,31.44,0,0,1,3.55-14.54,39.23,39.23,0,0,1,5.7-8.36c2.34-2.73,4.36-5.69,5-9.32.8-4.78-1.64-8.64-3.57-12.84a65,65,0,0,1-4.13-12.92c-1.88-8.46-1.12-16.81.45-25.3a1.72,1.72,0,0,0-.73.71c-.75,1-1.48,2-2.19,3.05s-2.37,2.74-2.52,4a67.28,67.28,0,0,0-1,12.91l.45,6.5a81.85,81.85,0,0,0,4.66,18.86c.71,2,1.93,4.69,1.77,6.91-.25,1-.5,2.09-.74,3.13A12.39,12.39,0,0,1,79,61.83c-1.15,2.36-2.52,4.61-3.83,6.87a50.15,50.15,0,0,0-4.82,10.94,56.27,56.27,0,0,0-1.94,18.27,1.66,1.66,0,0,0,.73-.73q1.11-1.56,2.16-3.15c.71-1.06,1.4-2.12,2.08-3.2A1.71,1.71,0,0,0,73.8,89.88Z"/><path class="cls-1" d="M74.05,91.1a21.68,21.68,0,0,1,1.11-10.87,18.15,18.15,0,0,1,2.27-8.31,32.73,32.73,0,0,1,4.95-7.5c2.21-2.53,4.81-5.51,5.61-8.9a14.57,14.57,0,0,0,.22-5.58c-.37-2.43-1.88-4.93-3-7.1a56.41,56.41,0,0,1-4.84-14.23l-.95-6.46a57.78,57.78,0,0,1,1.4-18.88,1.21,1.21,0,0,0-.69.51c-.71.76-1.41,1.55-2.09,2.35s-2.29,2.14-2.42,3.18a66.91,66.91,0,0,0-1,12.87l.42,6.5a78.87,78.87,0,0,0,4.69,18.94c.81,2.26,1.93,4.67,1.94,7.13-.3,1.45-.62,2.9-1,4.34a18.46,18.46,0,0,1-1.6,3.57c-2.57,4.8-5.6,9.2-7.43,14.38a43.3,43.3,0,0,0-1.9,6.62A56.31,56.31,0,0,0,69,97.19a1.2,1.2,0,0,0,.68-.52c.7-.77,1.39-1.57,2.05-2.37C72.11,93.79,74.1,92,74.05,91.1Z"/><path class="cls-1" d="M74.58,87.92c-.28-6-.11-11.36,2.52-17a38.07,38.07,0,0,1,6.85-10c2.7-2.92,5.42-6.55,5.45-10.75,0-3.39-1.3-6.13-2.74-9.12-3.39-7-6.18-14.22-6.74-22.08l-.22-6.38A55.61,55.61,0,0,1,81.4.15c.12-.58-.86.71-.72.52a6.08,6.08,0,0,0-1.15,2.1,42.91,42.91,0,0,0-1.29,9.42,43.32,43.32,0,0,0,.11,9.59,59.64,59.64,0,0,0,5.3,19c1.81,3.8,1.27,2.13,2.53,6.8a7.59,7.59,0,0,1,.6,6.58,12.09,12.09,0,0,1-2.34,4.53c-1.37,2.07-3,3.83-4.51,5.74A35.83,35.83,0,0,0,73.8,77.37l-.88,4.45a36,36,0,0,0-.25,8.86c0,.58.8-.67.73-.56C73.73,89.62,74.61,88.57,74.58,87.92Z"/><path class="cls-1" d="M75.18,91c-.45-4.57-.62-8.32.71-12.78,1.13-3.81,3.23-8.46,5.93-11.44s5.38-5.3,6.81-9.15a13,13,0,0,0-.48-10.32c-2.73-6.14-6.06-12-7.23-18.69L79.83,15.9A54.73,54.73,0,0,1,81.57,3.56c.11-.54-.74-.12-.8.19C79.55,10,78.59,16.08,79.26,22.5c.18,1.66.63,4.85.94,6.51a50,50,0,0,0,2.91,9.61c.37,1.11.78,2.19,1.24,3.25l1.51,2.88A10.81,10.81,0,0,1,87.62,52a6.71,6.71,0,0,1-.1,5.57,13.93,13.93,0,0,1-3.23,5.5,63.45,63.45,0,0,0-4.57,5.5,35.28,35.28,0,0,0-4.65,9.8l-1,4.28a31.54,31.54,0,0,0,.43,8.4C74.59,91.54,75.21,91.28,75.18,91Z"/><path class="cls-1" d="M73.45,91.76a24.79,24.79,0,0,1,0-6.72,18.11,18.11,0,0,1,1.31-6.36,24.68,24.68,0,0,1,3-8.09l2.34-3.71c2.62-3.36,6.21-6.48,7.23-10.82a14.4,14.4,0,0,0,.23-5.55c-.36-2.39-1.84-4.86-2.92-7A57.08,57.08,0,0,1,79.8,29.31l-1-6.46A58.24,58.24,0,0,1,80.21,3.94a1.3,1.3,0,0,0-.71.54C78.76,5.29,78,6.11,77.33,7s-2.4,2.26-2.52,3.32a68.55,68.55,0,0,0-.93,13l.44,6.51a84.23,84.23,0,0,0,4.53,18.83c.75,2.18,1.74,4.48,1.7,6.83-.33,1.42-.65,2.84-1,4.27A19.13,19.13,0,0,1,78,63.24c-2.18,4.13-4.75,8.1-6.46,12.46a45.87,45.87,0,0,0-2.06,6.77,55.49,55.49,0,0,0-1.32,15.68,1.24,1.24,0,0,0,.71-.55q1.09-1.21,2.13-2.49C71.42,94.58,73.49,92.68,73.45,91.76Z"/><path class="cls-1" d="M73.84,90.48c-.31-6-.13-11.34,2.38-17.15a38.07,38.07,0,0,1,4.22-7.59c1.51-2,3.36-3.68,4.78-5.8a18.75,18.75,0,0,0,1.94-3.71,11.94,11.94,0,0,0,.72-6.86A32.67,32.67,0,0,0,85,42.26,57.66,57.66,0,0,1,80.13,28l-.94-6.46A58,58,0,0,1,80.58,2.67a1.59,1.59,0,0,0-.75.68c-.79,1-1.56,1.94-2.3,2.94S75,9,74.86,10.2a68.39,68.39,0,0,0-.93,12.94l.45,6.5A83.9,83.9,0,0,0,79,48.48c.75,2.17,1.75,4.48,1.7,6.83q-.53,2.16-1,4.32a18,18,0,0,1-1.59,3.59c-2.19,4.12-4.76,8.07-6.48,12.43a47.41,47.41,0,0,0-2.07,6.79A55.91,55.91,0,0,0,68.2,98.18a1.7,1.7,0,0,0,.74-.69c.78-1,1.53-2,2.27-3s1.48-2,2.19-3.07A1.65,1.65,0,0,0,73.84,90.48Z"/><path class="cls-1" d="M74.06,91.4c-.22-4.49-.24-8.79,1.08-13.15a40.87,40.87,0,0,1,3.36-8c2.69-4.88,8.2-8.42,9.58-14.07a12.51,12.51,0,0,0,.29-5.54,33.35,33.35,0,0,0-3-7.49,59,59,0,0,1-5.88-20.65l-.24-6.39A56.46,56.46,0,0,1,80.84,3.68c.11-.56-.91.51-.79.4-.42.41-1.39,1.26-1.49,1.89-1,6.36-1.8,12.55-1,19a72.36,72.36,0,0,0,2.75,12.86c1,3.16,2.41,6.19,3.55,9.3l1,2.89a9.89,9.89,0,0,1-.33,7.34,21.83,21.83,0,0,1-3.47,6.81,69,69,0,0,0-4.14,6A38.31,38.31,0,0,0,72.8,80.5a48.59,48.59,0,0,0-1,13.18c0,.52.79-.4.78-.39C72.92,93,74.08,91.93,74.06,91.4Z"/><path class="cls-1" d="M75.08,89c-.21-4.43-.29-8.89,1.13-13.17l5.72-11.34c.87-.88,1.71-1.78,2.54-2.69,2.71-3,5.12-6.41,5.32-10.58.17-3.35-1.26-6.13-2.65-9.09C83.81,35,81,27.9,80.44,20l-.22-6.38A55,55,0,0,1,81.9,1.24c.11-.58-.9.62-.76.46a5.35,5.35,0,0,0-1.34,2,43.37,43.37,0,0,0-1.25,9.4,43.75,43.75,0,0,0,.12,9.57,65,65,0,0,0,5.25,19.14c.65,1.47,1.34,2.87,2,4.35a13,13,0,0,1,.81,9.14,14.82,14.82,0,0,1-1.6,3.56c-1.45,2.6-3.57,4.66-5.33,7a33.62,33.62,0,0,0-2.48,4.06,35.89,35.89,0,0,0-3.22,8.35l-.84,4.41A35.84,35.84,0,0,0,73,91.48c0,.54.81-.52.77-.47C74.07,90.61,75.11,89.55,75.08,89Z"/><path class="cls-1" d="M73.92,92c-.29-5.55,0-10,1.72-15.06a32.37,32.37,0,0,1,5-9.69c2.14-2.68,4.86-5,6.3-8.22a15.74,15.74,0,0,0,1.39-5.17c.2-2.47-.79-4.94-1.8-7.14A102.41,102.41,0,0,1,82,36.1l-1.71-6.46a57.48,57.48,0,0,1,.38-25.15c.13-.69-1.29.85-1.15.72-.6.6-1.18,1.21-1.75,1.84a4.58,4.58,0,0,0-.83,1C76.2,13.27,75.73,15.74,75.8,21a73.3,73.3,0,0,0,3.1,19.34c1.11,3.85,2.91,7.5,3.89,11.39a12.85,12.85,0,0,1-1,8.13,40.34,40.34,0,0,1-3.74,6.7,49.32,49.32,0,0,0-5,9.45,45.61,45.61,0,0,0-2.69,11.06,41.36,41.36,0,0,0-.14,8.76c0,.11,2.06-1.79,2-1.75C72.6,93.73,74,92.66,73.92,92Z"/><path class="cls-1" d="M73.53,91.17a21.59,21.59,0,0,1,1.08-10.85A18.16,18.16,0,0,1,76.85,72a33.1,33.1,0,0,1,4.89-7.51c2.2-2.55,4.78-5.56,5.58-8.94A14.58,14.58,0,0,0,87.57,50c-.36-2.41-1.83-4.9-2.92-7.06A57.71,57.71,0,0,1,79.86,28.7l-1-6.46A58.12,58.12,0,0,1,80.28,3.35a1.45,1.45,0,0,0-.73.61q-1.12,1.32-2.19,2.7c-.63.79-2.41,2.45-2.55,3.61a69.22,69.22,0,0,0-.92,12.94l.45,6.5a84.36,84.36,0,0,0,4.55,18.84c.74,2.17,1.74,4.47,1.69,6.82-.34,1.43-.68,2.86-1,4.3A18.26,18.26,0,0,1,78,63.26c-2.18,4.12-4.74,8.08-6.46,12.44a47.34,47.34,0,0,0-2.06,6.79,56.11,56.11,0,0,0-1.31,15.72,1.42,1.42,0,0,0,.72-.63c.74-.9,1.46-1.82,2.16-2.75C71.5,94.22,73.58,92.16,73.53,91.17Z"/><path class="cls-1" d="M74.28,91.42a22.13,22.13,0,0,1,.39-8.73,23.55,23.55,0,0,1,2-8.41A37.78,37.78,0,0,1,81,66.69c2.43-3.2,5.3-5.59,6.79-9.43a11.7,11.7,0,0,0,.7-6.74,32.82,32.82,0,0,0-3-7.23A58.26,58.26,0,0,1,80.6,29l-1-6.46A56.88,56.88,0,0,1,81,3.89c.13-.71-1.35,1-1.2.8-.62.65-1.24,1.32-1.83,2a5.75,5.75,0,0,0-.87,1.11A93.06,93.06,0,0,0,76,20.55a67.3,67.3,0,0,0,1.44,13.11c1,5.27,3,10.18,4.82,15.21a20,20,0,0,1,1.26,5.29q-.28,1.53-.66,3.06c-1.24,5.38-5.24,9.61-7.72,14.42a42.21,42.21,0,0,0-4.2,12.86,55.17,55.17,0,0,0-.51,11.13c0,.07,2.14-2,2.12-1.94C72.88,93.3,74.32,92.11,74.28,91.42Z"/><path class="cls-1" d="M75.48,91.34a33.19,33.19,0,0,1-.15-8.68l1-4.23A31.19,31.19,0,0,1,82.19,67c2.83-3.27,6.26-5.92,7.27-10.38a13.21,13.21,0,0,0,.17-5.87C89.14,48.41,88,46.7,87,44.55l-4-9.19a42.26,42.26,0,0,1-2.19-9.66,42.82,42.82,0,0,1-.64-9.53A55.32,55.32,0,0,1,81.94,3.83c.1-.47-.64-.25-.7.06a42,42,0,0,0-1.46,9.24,28.34,28.34,0,0,0-.16,6.31,58.53,58.53,0,0,0,2.77,16.17,50.54,50.54,0,0,0,3.19,7.86c2.08,4,4.33,8.28,2.87,13.12a21.16,21.16,0,0,1-3.7,6.74c-1.49,1.93-3.19,3.42-4.56,5.46a34.12,34.12,0,0,0-4.62,9.73c-1.23,4.32-1.11,8.42-.7,12.87C74.91,91.8,75.51,91.65,75.48,91.34Z"/></g></g></svg>