<svg xmlns="http://www.w3.org/2000/svg" viewBox="0 0 24.9 27.48"><defs><style>.cls-1{fill:#998675;opacity:0.11;}</style></defs><g id="Layer_2" data-name="Layer 2"><g id="white_oolong" data-name="white&amp;oolong"><path class="cls-1" d="M4.2,24.33a8.47,8.47,0,0,1-1.39-3.69,7.64,7.64,0,0,1,.41-6.34,18.81,18.81,0,0,0,.6-3.47A10.37,10.37,0,0,0,2.66,6,17.65,17.65,0,0,1,1,.69c0,.2-.33.76-.41,1A5.24,5.24,0,0,0,.12,3.23,13.18,13.18,0,0,0,1.51,8.48a6.68,6.68,0,0,1,.63,4.93,18.64,18.64,0,0,1-.44,5.52,14.22,14.22,0,0,0,1.86,8.12A10.28,10.28,0,0,1,4,25.71C4,25.48,4.34,24.6,4.2,24.33Z"/><path class="cls-1" d="M4.28,24.73c-1.27-2.49-2.12-5-1.58-7.85.29-1.52.94-3,1.15-4.56a10.5,10.5,0,0,0-1.1-5.94A17.07,17.07,0,0,1,1.11,1.07c.06.54-.88,1.39-.87,2A4.1,4.1,0,0,0,.58,5.65,21.05,21.05,0,0,0,1.64,8.31l.69,1.79A23.9,23.9,0,0,1,2,17.56a13.58,13.58,0,0,0,1.62,9.25C3.43,26.43,4.55,25.25,4.28,24.73Z"/><path class="cls-1" d="M4.28,23.79c-1.91-3.8-2.06-4.93-.88-10A18.88,18.88,0,0,0,4,10.27,10.12,10.12,0,0,0,2.86,5.45,18.37,18.37,0,0,1,1.18.11s-.38.7-.35,1A17.79,17.79,0,0,0,2.45,6.31,13.2,13.2,0,0,1,3.63,9.94a25.91,25.91,0,0,1-.89,5.55,12.07,12.07,0,0,0-.55,3.61A13.84,13.84,0,0,0,4,24.86S4.4,24,4.28,23.79Z"/><path class="cls-1" d="M4.33,24.65l-.92-1.81a5.79,5.79,0,0,1-.31-5.06,14.44,14.44,0,0,1,.65-4.29A7.51,7.51,0,0,0,4.11,10C3.58,6.84,1.59,4.29,1.19,1,1.17.86,1,1,1,1.1A18.24,18.24,0,0,0,2.68,6.47l.75,1.8a9.23,9.23,0,0,1-.17,6.41,15.71,15.71,0,0,0-.94,4.44A12.67,12.67,0,0,0,4.17,24.8C4.24,24.94,4.37,24.72,4.33,24.65Z"/><path class="cls-1" d="M4.15,24.93c-1.27-2.49-2.12-5-1.6-7.85.29-1.52.93-3,1.13-4.57A10.55,10.55,0,0,0,2.59,6.58,17.15,17.15,0,0,1,1,1.27C1,1.85.06,2.74.07,3.4A4.16,4.16,0,0,0,.4,6a21.47,21.47,0,0,0,1,2.65,10.51,10.51,0,0,1,.89,2.71A8.07,8.07,0,0,1,2,16.7a16.1,16.1,0,0,0-.12,6.7,17.5,17.5,0,0,0,1.6,3.75C3.31,26.73,4.44,25.48,4.15,24.93Z"/><path class="cls-1" d="M4.22,24.53c-1.27-2.48-2.12-5-1.59-7.82.29-1.52.94-3,1.15-4.56A10.62,10.62,0,0,0,2.68,6.2,17.4,17.4,0,0,1,1,.88c0,.18-.35.74-.43,1A4.75,4.75,0,0,0,.08,3.35,13.08,13.08,0,0,0,1.46,8.58a10.37,10.37,0,0,1,.89,2.69,8.13,8.13,0,0,1-.3,5.4,18.12,18.12,0,0,0-.44,4.82,16.65,16.65,0,0,0,1.92,5.66c0-.06.4-1.25.41-1.29C4,25.65,4.36,24.78,4.22,24.53Z"/><path class="cls-1" d="M4.22,24.74a15.4,15.4,0,0,1-1.59-3.68l0-4.11C3,14.25,4.42,12,3.73,9.24a10.82,10.82,0,0,0-1-2.78A17,17,0,0,1,1.11,1.19a3.93,3.93,0,0,0-.35.91A14.82,14.82,0,0,0,2.28,7.26a10,10,0,0,1,1,5.83C3,15.37,1.91,17.62,2.09,20a14.92,14.92,0,0,0,1.84,5.59A1.43,1.43,0,0,0,4.22,24.74Z"/><path class="cls-1" d="M4.43,24.09c-1.37-2.73-2.13-4.51-1.52-7.84C3.32,14,4.6,11.76,4.23,9.43A14.94,14.94,0,0,0,3,5.76,18.08,18.08,0,0,1,1.34.43s-.42.64-.39.88a17.75,17.75,0,0,0,1.6,5.25,13.44,13.44,0,0,1,1.18,3.65,10.15,10.15,0,0,1-.37,3.34,23.79,23.79,0,0,0-1,5.74A13.5,13.5,0,0,0,4.11,25C4.13,25.05,4.53,24.27,4.43,24.09Z"/><path class="cls-1" d="M4.22,25,2.65,21.35a6.68,6.68,0,0,1,.18-4.19c.38-2,1.39-4.71,1.1-6.74-.46-3.18-2.5-5.7-2.83-9,0,.09-.6,1-.59,1.34a8.55,8.55,0,0,0,.67,3.39c.53,1.19,1,2.4,1.47,3.62a10.86,10.86,0,0,1,0,5.07c-.4,2.29-1,4.46-.62,6.79a15.12,15.12,0,0,0,1.72,4.66C3.68,26.12,4.4,25.33,4.22,25Z"/><path class="cls-1" d="M4.16,24.74c-1.27-2.48-2.12-5-1.59-7.83.28-1.53.93-3,1.13-4.57A10.47,10.47,0,0,0,2.6,6.41,17.38,17.38,0,0,1,1,1.09C1,1.72.06,2.66.07,3.38A4.19,4.19,0,0,0,.4,6a20.86,20.86,0,0,0,1,2.65l.68,1.78a25.37,25.37,0,0,1-.29,7.49,14,14,0,0,0,1.69,9.29A11.78,11.78,0,0,1,3.91,26C4,25.77,4.29,25,4.16,24.74Z"/><path class="cls-1" d="M4.31,24.81,2.73,21.18A6.64,6.64,0,0,1,2.92,17c.38-2,1.4-4.7,1.1-6.74-.46-3.19-2.51-5.7-2.83-9,0,.11-.64,1-.63,1.44a8.42,8.42,0,0,0,.67,3.4c.53,1.19,1,2.39,1.47,3.61a10.78,10.78,0,0,1,0,5.08c-.41,2.28-1,4.46-.64,6.79a15.29,15.29,0,0,0,1.73,4.67C3.7,26,4.49,25.18,4.31,24.81Z"/><path class="cls-1" d="M4.4,24.81,3.49,23a5.93,5.93,0,0,1-.3-5.11,15,15,0,0,1,.66-4.31,7.46,7.46,0,0,0,.36-3.45c-.53-3.2-2.52-5.74-2.92-9,0-.12-.19,0-.18,0A18.56,18.56,0,0,0,2.81,6.5l.75,1.81a9.17,9.17,0,0,1-.18,6.41,15.32,15.32,0,0,0-.95,4.43,12.91,12.91,0,0,0,1.82,5.76C4.31,25,4.44,24.89,4.4,24.81Z"/><path class="cls-1" d="M11.71,23.33a5.6,5.6,0,0,1-1.31-4.55L10,21.13c.75-3.17,2.93-6,2.66-9.39-.19-2.29-1.69-3.85-2.21-6l0,.28.32-1.48L9.81,6.68l2.61-4c-.09.12.27-.39.07-.21A8.62,8.62,0,0,0,9.71,6.64c-.39,1.53.18,2.86.73,4.25,1.16,2.93.61,4.25-.17,8.09-.11.56-.25,1.12-.34,1.68-.35,2.07.52,3.81,1.66,5.49a11,11,0,0,1,.13-1.41C11.73,24.47,11.9,23.61,11.71,23.33Z"/><path class="cls-1" d="M11.81,23.75l-1.34-2.94a17.05,17.05,0,0,1,1.82-5.5,15,15,0,0,0,.5-2.18,8.38,8.38,0,0,0-1-4.19c-.83-1.66-1.51-1.78-1.06-4L9.93,6.59a35.51,35.51,0,0,1,2.7-3.74c0-.07,0-.08-.05-.05a7.49,7.49,0,0,0-1.14,1A6,6,0,0,0,9.73,8.13a8.2,8.2,0,0,0,.84,2.59,8.31,8.31,0,0,1,.52,6.15c-.31.8-.6,1.6-.88,2.4A7.56,7.56,0,0,0,11.6,25.9C11.35,25.52,12.14,24.26,11.81,23.75Z"/><path class="cls-1" d="M11.74,22.78a3.26,3.26,0,0,1-.58-4,6.15,6.15,0,0,1,1.22-4.32,7.34,7.34,0,0,0,.39-4.34,11.71,11.71,0,0,0-1.4-3l-.54-1a4.07,4.07,0,0,1,1.7-3.77s.42-.62.22-.44a5.89,5.89,0,0,0-2.16,2.59c-.56,2,.26,3,1.06,4.86a5.4,5.4,0,0,1,.77,3.52A7.26,7.26,0,0,1,11,16.52a6.38,6.38,0,0,0-.59,1.84,7.65,7.65,0,0,0,1.28,5.56S11.89,23,11.74,22.78Z"/><path class="cls-1" d="M11.75,23.63l0-7.21.75-1.18A4.64,4.64,0,0,0,13,13.16,8.27,8.27,0,0,0,12.4,10c-.88-2.32-3.15-4.11.46-7,.12-.09,0-.2-.08-.11a7.8,7.8,0,0,0-2.08,2c-1.06,1.8.91,3.6,1.49,5.17a6.34,6.34,0,0,1-.53,6.26,5,5,0,0,0-.74,1.14,5.88,5.88,0,0,0-.52,1.65,6.45,6.45,0,0,0,1.24,4.69C11.72,24,11.8,23.71,11.75,23.63Z"/><path class="cls-1" d="M11.71,24a5.74,5.74,0,0,1-1.35-4.58L10,20.94c.76-3,2.78-5.51,2.52-8.68a9,9,0,0,0-1.16-3.59c-.73-1.36-1.14-1.61-.76-3.56L9.75,6.88A32.29,32.29,0,0,1,12.45,3c.05-.08,0-.09,0,0A7.83,7.83,0,0,0,11.22,4.1,6,6,0,0,0,9.56,8.48a8.68,8.68,0,0,0,.8,2.53,8.54,8.54,0,0,1,.54,6.18c-.28.8-.55,1.6-.81,2.41a7.7,7.7,0,0,0,1.49,6.65C11.29,25.82,12.07,24.5,11.71,24Z"/><path class="cls-1" d="M11.75,23.54A5.64,5.64,0,0,1,10.42,19l-.48,2.26c.78-3.14,3-6,2.7-9.34a8.93,8.93,0,0,0-1.17-3.6C10.74,7,10.3,6.68,10.7,4.74L9.77,6.8a33.11,33.11,0,0,1,2.78-4.1c.1-.06-.06,0-.12,0a9.73,9.73,0,0,0-1.31,1.41A5.93,5.93,0,0,0,9.58,8.43,14.66,14.66,0,0,0,10.73,12a10.44,10.44,0,0,1-.32,6.55,8,8,0,0,0,1.17,7.71,11.86,11.86,0,0,1,.15-1.35C11.75,24.64,11.92,23.81,11.75,23.54Z"/><path class="cls-1" d="M11.7,23.74c-2.2-3.47,1.74-8.78.91-12.65-.76-3.6-3.9-4,0-8.11.2-.2-.54.29-.63.39a6.91,6.91,0,0,0-1.44,1.92,3.57,3.57,0,0,0-.3,1.7,2.83,2.83,0,0,0,.21,1,8.86,8.86,0,0,1,1.06,3.37,5.63,5.63,0,0,1-.68,6.24,3.05,3.05,0,0,0-.13.32,14.28,14.28,0,0,0-.4,1.42,6.91,6.91,0,0,0,1.32,5.29A1.69,1.69,0,0,0,11.7,23.74Z"/><path class="cls-1" d="M11.89,23.08c-2-3.23-.92-1.61.7-8.5a7.79,7.79,0,0,0,.32-4.18c-.08-.3-.64-1.78-.78-2.07C11,6,9.44,5.89,12.71,2.55c0,0,.38-.52.15-.32a6.4,6.4,0,0,0-2.22,2.68c-1,3,2.51,5,1.86,8.23-.38,2-1.7,3.71-2,5.71A7.2,7.2,0,0,0,11.74,24S12,23.27,11.89,23.08Z"/><path class="cls-1" d="M11.78,24a5.67,5.67,0,0,1-1.34-4.63l-.22,1c.65-2.34,2.34-4.45,2.52-7a7.68,7.68,0,0,0-.94-4.2,5.29,5.29,0,0,1-1-4L10.2,6.33l2.31-3.11c.21-.23,0-.1-.17,0a3.59,3.59,0,0,0-.92.77c-1,1.36-1.69,2.49-1.33,4.26.62,3.06,2.62,4.65,1.27,8.33-.27.72-.65,1.4-.9,2.13a7.17,7.17,0,0,0,1.15,6.64S11.94,24.29,11.78,24Z"/><path class="cls-1" d="M11.7,23.75a5.69,5.69,0,0,1-1.34-4.57l-.43,2.1c.77-3.11,2.9-5.89,2.63-9.19A8.84,8.84,0,0,0,11.39,8.5c-.73-1.36-1.15-1.62-.76-3.56L9.75,6.85a34.28,34.28,0,0,1,2.72-4c.09,0-.06,0-.12,0a8.54,8.54,0,0,0-1.26,1.29A6,6,0,0,0,9.57,8.46,15,15,0,0,0,10.71,12a10,10,0,0,1-.15,6.11c-.12.35-.25.71-.36,1.08a7.74,7.74,0,0,0,1.38,7.06c0-.07.13-1.19.13-1.25C11.72,24.76,11.87,24,11.7,23.75Z"/><path class="cls-1" d="M11.85,23.87c-2.83-4.38.73-7,1-10.62a7.64,7.64,0,0,0-.95-4.19,5.3,5.3,0,0,1-1-4.05l-.6,1.22,2.36-3.17c.22-.24,0-.09-.18,0a3.72,3.72,0,0,0-.94.83c-.88,1.22-1.58,2.24-1.44,3.81a4.46,4.46,0,0,0,.52,1.78c1,2.26,1.83,4.34.84,7-.29.79-.73,1.54-1,2.35a7.27,7.27,0,0,0,1.24,6.48C11.52,25.08,12.06,24.19,11.85,23.87Z"/><path class="cls-1" d="M11.85,23.8l0-7.33a4.21,4.21,0,0,0,.75-1.18c0-.11.44-1.95.44-2.07a8.53,8.53,0,0,0-1-4.2c-1.32-2.63-2.66-3.2.86-5.94.1-.08,0-.2-.08-.12a7.2,7.2,0,0,0-2.06,2C9.66,7.17,12.46,9,12.71,11.14l-.94,5.25A12.76,12.76,0,0,0,11,17.55a6,6,0,0,0-.52,1.62,6.51,6.51,0,0,0,1.23,4.76C11.78,24,11.89,23.88,11.85,23.8Z"/><path class="cls-1" d="M20.5,25.14A11.5,11.5,0,0,1,23,17.07a5.39,5.39,0,0,0,1.31-2.9,6.08,6.08,0,0,0-.82-2.84L22.38,7.75a16.65,16.65,0,0,1,0-7.2C22.33,1.28,21.1,2,21,2.81A15.33,15.33,0,0,0,21.06,10l1.14,3.58a5.2,5.2,0,0,1-.38,4,39.31,39.31,0,0,0-2.31,4.64c-.7,2.18-.53,2.86-.51,5.12a8.8,8.8,0,0,1,.81-1.09C20,26.07,20.5,25.48,20.5,25.14Z"/><path class="cls-1" d="M20.58,25.48l2.55-8.12a4,4,0,0,0,.76-1.06,3.71,3.71,0,0,0,.59-2.49,9.88,9.88,0,0,0-.86-2.14,13.7,13.7,0,0,1-1.34-5.42A12.3,12.3,0,0,1,22.51.89c-.07.56-1.28,1.11-1.36,1.79A11,11,0,0,0,21,8a15.42,15.42,0,0,0,1.38,5.48,5.42,5.42,0,0,1,.2,2.88c-.55,2-2.2,3.69-2.87,5.69-.72,2.15-.55,2.9-.54,5.12C19.14,26.72,20.57,26.11,20.58,25.48Z"/><path class="cls-1" d="M20.7,24.62c.08-7.35,1.37-5.95,3.38-9.09A3.54,3.54,0,0,0,24.71,13a5.79,5.79,0,0,0-.64-1.71,15.05,15.05,0,0,1-1.42-4.11,16.52,16.52,0,0,1,0-7.17s-.48.52-.5.75A12.09,12.09,0,0,0,22,6.1a14.38,14.38,0,0,0,1.36,5.37c1.13,1.78,1.06,3.35-.19,4.7a11,11,0,0,1-1,1.56,13.76,13.76,0,0,0-2.06,7.71S20.7,24.87,20.7,24.62Z"/><path class="cls-1" d="M20.8,25.54a11.51,11.51,0,0,1,2.6-8.09,9.62,9.62,0,0,0,1-1.6,3.55,3.55,0,0,0,.35-1.9l-.42-1.19A17.31,17.31,0,0,1,22.69.94c0-.15-.21,0-.22.05-.38,3.27-.71,3.89,0,7.19a19.9,19.9,0,0,0,1.12,3.56,12.12,12.12,0,0,0,.55,1.15l.29,2.41a13.09,13.09,0,0,1-2,3.15,12.55,12.55,0,0,0-1.78,7.17C20.58,25.78,20.8,25.62,20.8,25.54Z"/><path class="cls-1" d="M20.41,25.67c0-7.58,1.16-5.51,3.27-9.17a3.25,3.25,0,0,0,.58-1.86,5.82,5.82,0,0,0-.82-2.78L22.3,8.28a16.61,16.61,0,0,1,0-7.19C22.27,1.68,21,2.25,20.93,3a11.27,11.27,0,0,0-.19,5.35,15.33,15.33,0,0,0,1.35,5.46,5.56,5.56,0,0,1,.18,2.83c-.55,2-2.17,3.73-2.83,5.74s-.54,2.91-.52,5.13C18.91,27,20.41,26.32,20.41,25.67Z"/><path class="cls-1" d="M20.52,25.31,23,17.22a3.61,3.61,0,0,0,.76-1.07,3.79,3.79,0,0,0,.6-2.49,10.7,10.7,0,0,0-.87-2.17,13.75,13.75,0,0,1-1.32-5.4A12.49,12.49,0,0,1,22.43.72a7.55,7.55,0,0,1-.8,1.06c-.19.28-.65.77-.69,1.14a11.31,11.31,0,0,0-.18,5.36,15.45,15.45,0,0,0,1.36,5.44,5.67,5.67,0,0,1,.17,2.86c-.55,2-2.17,3.73-2.83,5.75s-.55,2.93-.53,5.14a12,12,0,0,1,.85-1C19.93,26.22,20.52,25.63,20.52,25.31Z"/><path class="cls-1" d="M20.58,25.57a6.58,6.58,0,0,1,1.27-5.29,7.21,7.21,0,0,1,1.31-2.83,5.83,5.83,0,0,0,1.26-2.18,4.42,4.42,0,0,0-.25-2.41L22.52,8.22a16.2,16.2,0,0,1,0-7.2s-.57.49-.59.71A15.16,15.16,0,0,0,22,9l1.19,3.68a5,5,0,0,1-.46,4.75,25.24,25.24,0,0,0-1.62,2.69A12.85,12.85,0,0,0,20,26.2C20,26.26,20.58,25.76,20.58,25.57Z"/><path class="cls-1" d="M20.84,24.92a6.56,6.56,0,0,1,1.32-5.3,10.67,10.67,0,0,1,2-3.78A3.25,3.25,0,0,0,24.8,14c.06-1,.1-.55-.34-1.84L22.79,7.48a16.47,16.47,0,0,1,0-7.16s-.53.51-.55.74a15.7,15.7,0,0,0,.06,7.15l1.14,3.57c.69,1.84.87,3.31-.26,5a24.25,24.25,0,0,0-1.69,2.69,13.19,13.19,0,0,0-1.28,6.22S20.84,25.15,20.84,24.92Z"/><path class="cls-1" d="M20.53,25.75l.6-4.92a7.59,7.59,0,0,1,1.56-2.7,6.82,6.82,0,0,0,1.68-2.71,4.18,4.18,0,0,0-.27-2.37A11.43,11.43,0,0,1,23,10.21a14.65,14.65,0,0,1-.57-9c0,.07-.93.74-1,1.1a20.53,20.53,0,0,0-.42,3.49l.5,3.8c.42,2.18,1.61,3.77,1.43,5.94-.15,1.83-1.65,3.43-2.43,5.07a12.87,12.87,0,0,0-1.09,6.17C19.49,26.58,20.53,26.16,20.53,25.75Z"/><path class="cls-1" d="M20.43,25.5,23,17.39a3.76,3.76,0,0,0,.75-1.07,3.72,3.72,0,0,0,.6-2.49,10.73,10.73,0,0,0-.85-2.14,13.68,13.68,0,0,1-1.33-5.41A12.45,12.45,0,0,1,22.35.92c-.07.64-1.33,1.27-1.42,2a11.45,11.45,0,0,0-.19,5.36,15.45,15.45,0,0,0,1.36,5.45,5.63,5.63,0,0,1,.17,2.85c-.54,2-2.17,3.73-2.83,5.74s-.54,2.93-.52,5.14c0-.07.78-.9.81-.95S20.43,25.8,20.43,25.5Z"/><path class="cls-1" d="M20.63,25.59l.6-4.92A28.87,28.87,0,0,1,23.57,17a5.13,5.13,0,0,0,.91-1.71,4,4,0,0,0-.27-2.39A11,11,0,0,1,23.13,10a14.65,14.65,0,0,1-.56-8.95c0,.09-1,.81-1,1.19a25.91,25.91,0,0,0-.42,3.5,21.61,21.61,0,0,0,1.69,7.47A5.46,5.46,0,0,1,23,16.13a12.82,12.82,0,0,1-1.85,3.31c-1.46,2.47-1.64,4.59-1.64,7.33C19.54,26.48,20.63,26,20.63,25.59Z"/><path class="cls-1" d="M20.8,25.71a11.92,11.92,0,0,1,2.69-8.17,9.15,9.15,0,0,0,1-1.61,3.37,3.37,0,0,0,.35-1.9l-.42-1.19A17.25,17.25,0,0,1,22.8,1c0-.14-.19-.07-.2,0-.38,3.27-.71,3.89,0,7.19a27.73,27.73,0,0,0,1.12,3.56,7.28,7.28,0,0,0,.56,1.16l.28,2.42a12.41,12.41,0,0,1-2.05,3.14,13,13,0,0,0-1.9,7.27C20.58,25.93,20.8,25.8,20.8,25.71Z"/></g></g></svg>