<svg xmlns="http://www.w3.org/2000/svg" viewBox="0 0 84.73 97"><defs><style>.cls-1,.cls-11,.cls-3,.cls-4,.cls-6,.cls-8{fill:#70db7c;}.cls-2,.cls-9{fill:#284f2d;}.cls-3,.cls-4{stroke:#70db7c;}.cls-3,.cls-4,.cls-5,.cls-6,.cls-7,.cls-8{stroke-miterlimit:10;}.cls-3{stroke-width:0.35px;}.cls-4{stroke-width:0.37px;}.cls-5,.cls-7{fill:none;}.cls-5,.cls-6,.cls-7,.cls-8{stroke:#3c7643;}.cls-5,.cls-6{stroke-width:0.26px;}.cls-7,.cls-8{stroke-width:0.25px;}.cls-11,.cls-9{font-size:12px;font-family:MostraNuova-Bold, Mostra Nuova;font-weight:700;}.cls-10{letter-spacing:-0.02em;}.cls-12{letter-spacing:-0.05em;}.cls-13{letter-spacing:-0.01em;}</style></defs><g id="Layer_2" data-name="Layer 2"><g id="black_green" data-name="black&amp;green"><rect class="cls-1" x="15.65" width="24" height="83"/><rect class="cls-2" x="15.65" y="41" width="24" height="42"/><rect class="cls-1" x="45.65" width="24" height="83"/><rect class="cls-2" x="45.65" y="48" width="24" height="35"/><circle class="cls-3" cx="78.8" cy="49.32" r="3.31"/><path class="cls-4" d="M79,52.63h0a5.58,5.58,0,0,1,5.58,5.58v8.54a0,0,0,0,1,0,0H73.4a0,0,0,0,1,0,0V58.2A5.58,5.58,0,0,1,79,52.63Z"/><polyline class="cls-4" points="84.55 65.15 84.55 66.74 73.4 66.74 73.4 65.1"/><rect class="cls-3" x="75.66" y="67.09" width="2.79" height="10.11"/><rect class="cls-3" x="79.5" y="67.09" width="2.79" height="10.11"/><line class="cls-5" x1="82.98" y1="67.45" x2="82.98" y2="56.97"/><line class="cls-6" x1="74.96" y1="67.45" x2="74.96" y2="56.97"/><circle class="cls-3" cx="5.59" cy="48.59" r="3.31"/><path class="cls-4" d="M5.76,51.9h0a5.58,5.58,0,0,1,5.58,5.58V66a0,0,0,0,1,0,0H.18a0,0,0,0,1,0,0V57.48A5.58,5.58,0,0,1,5.76,51.9Z"/><polyline class="cls-4" points="11.34 64.42 11.34 66.01 0.18 66.01 0.18 64.37"/><rect class="cls-3" x="2.45" y="66.36" width="2.79" height="10.11"/><rect class="cls-3" x="6.28" y="66.36" width="2.79" height="10.11"/><line class="cls-7" x1="10.31" y1="66.69" x2="9.23" y2="56.27"/><line class="cls-8" x1="1.29" y1="66.7" x2="2.22" y2="56.26"/><text class="cls-9" transform="translate(30.22 93.82)">l<tspan class="cls-10" x="2.74" y="0">ow</tspan><tspan x="15.73" y="0">er</tspan></text><text class="cls-11" transform="translate(16.46 68.56)"><tspan xml:space="preserve"> 4</tspan><tspan class="cls-12" x="9.2" y="0">2</tspan><tspan x="13.31" y="0">%</tspan></text><text class="cls-11" transform="translate(46.46 71.56)"> <tspan class="cls-13" x="3.12" y="0">3</tspan><tspan x="7.68" y="0">5%</tspan></text></g></g></svg>