<svg xmlns="http://www.w3.org/2000/svg" viewBox="0 0 174.83 61.61"><defs><style>.cls-1,.cls-4,.cls-7{fill:#411f1e;}.cls-1,.cls-3{stroke:#411f1e;}.cls-1,.cls-2,.cls-3{stroke-miterlimit:10;}.cls-1{stroke-width:0.61px;}.cls-2,.cls-3{fill:none;}.cls-2{stroke:#c05c59;stroke-width:0.66px;}.cls-3{stroke-width:3.81px;}.cls-10,.cls-4,.cls-9{font-size:10.15px;}.cls-4,.cls-7{font-family:MostraNuova-Bold, Mostra Nuova;font-weight:700;}.cls-5{letter-spacing:-0.04em;}.cls-6{letter-spacing:-0.01em;}.cls-7{font-size:26.65px;}.cls-8{letter-spacing:-0.05em;}.cls-10,.cls-9{fill:#c05c59;}.cls-11{letter-spacing:-0.02em;}.cls-12{fill:#000;}.cls-13{font-size:17.77px;}</style></defs><g id="Layer_2" data-name="Layer 2"><g id="black_green" data-name="black&amp;green"><ellipse class="cls-1" cx="9.53" cy="17.68" rx="8.22" ry="2.3"/><ellipse class="cls-2" cx="9.53" cy="16.69" rx="9.2" ry="3.94"/><path class="cls-2" d="M18.73,16.69s-.66,9.2-4.6,12.49H4.93C1,25.89.33,16.69.33,16.69"/><path class="cls-2" d="M4.27,28.52s-1.31.66,0,1H14.86c1.31-.33,0-1,0-1"/><ellipse class="cls-1" cx="29.83" cy="17.68" rx="8.22" ry="2.3"/><ellipse class="cls-2" cx="29.83" cy="16.69" rx="9.2" ry="3.94"/><path class="cls-2" d="M39,16.69s-.66,9.2-4.6,12.49H25.23c-3.94-3.29-4.6-12.49-4.6-12.49"/><path class="cls-2" d="M24.58,28.52s-1.32.66,0,1H35.17c1.31-.33,0-1,0-1"/><ellipse class="cls-1" cx="29.83" cy="36.72" rx="8.22" ry="2.3"/><ellipse class="cls-2" cx="29.83" cy="35.73" rx="9.2" ry="3.94"/><path class="cls-2" d="M39,35.73s-.66,9.2-4.6,12.49H25.23c-3.94-3.29-4.6-12.49-4.6-12.49"/><path class="cls-2" d="M24.58,47.56s-1.32.66,0,1H35.17c1.31-.33,0-1,0-1"/><ellipse class="cls-1" cx="9.53" cy="36.72" rx="8.22" ry="2.3"/><ellipse class="cls-2" cx="9.53" cy="35.73" rx="9.2" ry="3.94"/><path class="cls-2" d="M18.73,35.73s-.66,9.2-4.6,12.49H4.93C1,44.93.33,35.73.33,35.73"/><path class="cls-2" d="M4.27,47.56s-1.31.66,0,1H14.86c1.31-.33,0-1,0-1"/><line class="cls-3" x1="51.09" y1="26.71" x2="72.67" y2="26.71"/><line class="cls-3" x1="51.09" y1="35.59" x2="72.67" y2="35.59"/><text class="cls-4" transform="translate(2.82 59.2)"><tspan class="cls-5">P</tspan><tspan x="5.1" y="0">er </tspan><tspan class="cls-6" x="16.33" y="0">D</tspan><tspan x="22.63" y="0">ay</tspan></text><text class="cls-7" transform="translate(81.92 22.44)">3<tspan class="cls-8" x="10.39" y="0">2</tspan><tspan x="19.51" y="0">%</tspan><tspan class="cls-9" x="38.54" y="0"> </tspan><tspan class="cls-10"><tspan x="0" y="12.18">l</tspan><tspan class="cls-11" x="2.31" y="12.18">ow</tspan><tspan x="13.31" y="12.18">er risk of</tspan><tspan class="cls-12" x="48.29" y="12.18"> </tspan></tspan><tspan class="cls-13"><tspan x="0" y="33.5">STROKE</tspan></tspan></text></g></g></svg>