<svg xmlns="http://www.w3.org/2000/svg" viewBox="0 0 201.96 54.98"><defs><style>.cls-1,.cls-10,.cls-5{fill:#6b3821;}.cls-1,.cls-9{stroke:#f7824d;}.cls-1,.cls-10,.cls-11,.cls-2,.cls-3,.cls-9{stroke-miterlimit:10;}.cls-1,.cls-2{stroke-width:0.58px;}.cls-2,.cls-4{fill:#f7824d;}.cls-10,.cls-11,.cls-2,.cls-3{stroke:#6b3821;}.cls-11,.cls-3,.cls-9{fill:none;}.cls-3{stroke-linecap:round;stroke-width:0.5px;}.cls-4{font-size:16px;font-family:MostraNuova-Bold, Mostra Nuova;font-weight:700;}.cls-5,.cls-8{font-size:14px;}.cls-5{font-family:MostraNuova, Mostra Nuova;font-weight:400;}.cls-6{letter-spacing:-0.01em;}.cls-7{fill:#70db7c;}.cls-9{stroke-width:1.27px;}.cls-10{stroke-width:1.19px;}.cls-11{stroke-width:3.35px;}</style></defs><g id="Layer_2" data-name="Layer 2"><g id="white_oolong" data-name="white&amp;oolong"><path class="cls-1" d="M82.46,29.48l15.61-9a18,18,0,1,1-24.62-6.6,17.18,17.18,0,0,1,9-2.41Z"/><path class="cls-2" d="M82.46,29.48v-18a17.58,17.58,0,0,1,15.61,9Z"/><polyline class="cls-3" points="93.76 13.86 93.76 8.97 106.43 8.97"/><text class="cls-4" transform="translate(112.79 13.47)">30%<tspan class="cls-5"><tspan x="0" y="16.8">l</tspan><tspan class="cls-6" x="2.73" y="16.8">ow</tspan><tspan x="18.12" y="16.8">e</tspan><tspan class="cls-6" x="25.76" y="16.8">r</tspan><tspan x="29.06" y="16.8">ed </tspan><tspan class="cls-7" x="47.79" y="16.8"> </tspan></tspan><tspan class="cls-8"><tspan x="0" y="33.6">blood sugar</tspan></tspan></text><path class="cls-9" d="M36.31,19.79S35,37.63,27.39,44H9.56C1.91,37.63.64,19.79.64,19.79"/><ellipse class="cls-10" cx="18.48" cy="21.7" rx="15.93" ry="4.46"/><ellipse class="cls-9" cx="18.48" cy="19.79" rx="17.84" ry="7.64"/><path class="cls-9" d="M8.28,42.73s-2.55,1.27,0,1.91H28.81c2.55-.64,0-1.91,0-1.91"/><line class="cls-11" x1="40.73" y1="28.44" x2="59.74" y2="28.44"/><line class="cls-11" x1="40.73" y1="36.27" x2="59.74" y2="36.27"/></g></g></svg>