<?xml version="1.0" encoding="UTF-8" standalone="no"?>
<!DOCTYPE svg PUBLIC "-//W3C//DTD SVG 1.1//EN" "http://www.w3.org/Graphics/SVG/1.1/DTD/svg11.dtd">
<!-- Created with Vectornator (http://vectornator.io/) -->
<svg height="100%" stroke-miterlimit="10" style="fill-rule:nonzero;clip-rule:evenodd;stroke-linecap:round;stroke-linejoin:round;" version="1.1" viewBox="0 0 450 450" width="100%" xml:space="preserve" xmlns="http://www.w3.org/2000/svg" xmlns:vectornator="http://vectornator.io" xmlns:xlink="http://www.w3.org/1999/xlink">
<defs/>
<g id="Layer-1" vectornator:layerName="Layer 1">
<g opacity="1" vectornator:layerName="Group 1">
<path d="M336.881 450L113.119 450C50.9062 450 0 399.094 0 336.881L0 113.112C0 50.8992 50.9062 0 113.119 0L336.881 0C399.101 0 450 50.8992 450 113.112L450 336.881C450 399.094 399.101 450 336.881 450" fill="#b7c6bc" fill-rule="nonzero" opacity="1" stroke="none" vectornator:layerName="path"/>
<path d="M173.089 276.958L121.768 276.958L121.768 227.556L175.578 227.556C175.578 227.556 195.055 227.31 195.055 252.939C195.055 274.328 180.802 276.733 173.089 276.958M121.768 157.799L175.578 157.799C175.578 157.799 188.642 157.799 188.642 177.044C188.642 196.26 180.95 199.045 172.238 199.066L121.768 199.066L121.768 157.799ZM199.674 209.353C199.674 209.353 227.877 207.25 227.877 174.175C227.877 141.086 204.807 124.942 175.578 124.942L79.3765 124.942L79.3765 309.815L175.578 309.815C175.578 309.815 234.282 311.671 234.282 255.239C234.282 255.239 236.848 209.353 199.674 209.353" fill="#265f2b" fill-rule="nonzero" opacity="1" stroke="none" vectornator:layerName="path 1"/>
<path d="M349.132 135.838L272.843 135.838L272.843 158.598L349.132 158.598L349.132 135.838Z" fill="#265f2b" fill-rule="nonzero" opacity="1" stroke="none" vectornator:layerName="path 2"/>
<path d="M280.803 227.555C280.803 227.555 284.768 199.05 313.336 199.05C341.897 199.05 341.539 227.555 341.539 227.555L280.803 227.555ZM312.598 171.98C241.512 171.98 241.589 243.009 241.589 243.009C241.589 243.009 236.71 313.666 312.619 313.666C312.619 313.666 375.872 317.301 375.872 264.504L343.353 264.504C343.353 264.504 344.421 284.388 313.709 284.388C313.709 284.388 281.168 286.568 281.168 252.227L376.962 252.227C376.962 252.227 387.439 171.98 312.598 171.98" fill="#265f2b" fill-rule="nonzero" opacity="1" stroke="none" vectornator:layerName="path 3"/>
</g>
</g>
</svg>
