<svg xmlns="http://www.w3.org/2000/svg" viewBox="0 0 460.7 170.54">
  <defs>
    <style>
      .cls-1 {
        fill: #d6d1ca;
      }

      .cls-2 {
        fill: #4b858e;
      }

      .cls-3 {
        fill: #323e48;
      }

      .cls-4 {
        fill: #456c75;
      }

      .cls-5 {
        fill: #374953;
      }
    </style>
  </defs>
  <g id="Layer_2" data-name="Layer 2">
    <g id="Layer_1-2" data-name="Layer 1">
      <rect class="cls-1" width="460.7" height="170.54"/>
      <g>
        <path class="cls-2" d="M153.54,94.81a26,26,0,0,1-3.68-.3,11.36,11.36,0,0,1-4-1.38,8.29,8.29,0,0,1-3.15-3.25,12.23,12.23,0,0,1-1.24-6V56.22a13.31,13.31,0,0,1,1-5.5,8.88,8.88,0,0,1,2.68-3.48,10.54,10.54,0,0,1,3.68-1.81,15.22,15.22,0,0,1,4-.54q5,0,8.87.14t6.94.3c2,.11,3.93.26,5.63.43v8.31H155.76a4.71,4.71,0,0,0-3.22,1,3.9,3.9,0,0,0-1.14,3.08v7.17l19.63.53V73.7l-19.63.54v6.83a5.4,5.4,0,0,0,.57,2.72,3,3,0,0,0,1.54,1.34,5.85,5.85,0,0,0,2,.37h18.7v8.3q-3,.35-6.53.54t-7.24.34C158,94.76,155.73,94.81,153.54,94.81Z"/>
        <path class="cls-2" d="M180.14,94.47l5.76-49.58h9.52l11.39,38,11.32-38h9.45l5.83,49.58h-9.58L219.54,58l1.54.13-9.72,36.38h-9.31L192.2,58.09l1.68-.06-4.16,36.44Z"/>
        <path class="cls-2" d="M251.36,94.81a26,26,0,0,1-3.68-.3,11.43,11.43,0,0,1-4-1.38,8.29,8.29,0,0,1-3.15-3.25,12.23,12.23,0,0,1-1.24-6V56.22a13.31,13.31,0,0,1,1-5.5A8.88,8.88,0,0,1,243,47.24a10.63,10.63,0,0,1,3.68-1.81,15.22,15.22,0,0,1,4-.54q5,0,8.88.14t6.93.3c2.05.11,3.93.26,5.63.43v8.31H253.58a4.71,4.71,0,0,0-3.22,1,3.9,3.9,0,0,0-1.14,3.08v7.17l19.63.53V73.7l-19.63.54v6.83a5.4,5.4,0,0,0,.57,2.72,3,3,0,0,0,1.54,1.34,5.86,5.86,0,0,0,2,.37h18.69v8.3q-3,.35-6.53.54c-2.39.13-4.81.24-7.24.34S253.55,94.81,251.36,94.81Z"/>
        <path class="cls-2" d="M279.3,94.47V44.89h20.5a20.55,20.55,0,0,1,5.5.71A11.07,11.07,0,0,1,309.79,48a11.64,11.64,0,0,1,3,4.83,24,24,0,0,1,1.1,7.9,21.89,21.89,0,0,1-.67,5.83,12.6,12.6,0,0,1-1.77,4A9.71,9.71,0,0,1,309,73a15.42,15.42,0,0,1-2.88,1.54l9.25,19.9H305.23l-8-18.35c-.54,0-1.15,0-1.84,0s-1.4,0-2.11,0h-2.15c-.71,0-1.36,0-1.94-.07V94.47Zm9.92-26.33h8.84a8.12,8.12,0,0,0,2.41-.33,4.52,4.52,0,0,0,1.88-1.17,5.52,5.52,0,0,0,1.24-2.25,12.49,12.49,0,0,0,.44-3.62,11.63,11.63,0,0,0-.44-3.45,5,5,0,0,0-1.24-2.14,4.42,4.42,0,0,0-1.88-1.07,8.86,8.86,0,0,0-2.41-.31h-8.84Z"/>
        <path class="cls-2" d="M318.16,94.47l15.55-49.58h12.53l15.54,49.58H351.46l-3.15-10.38H331.43l-3.08,10.38Zm15.61-19.29H346l-6.1-21.78Z"/>
        <path class="cls-2" d="M378.93,94.47a15.91,15.91,0,0,1-6.46-1.17,7.86,7.86,0,0,1-4-3.75,15.14,15.14,0,0,1-1.3-6.8V44.89h9.91V81.14a5.26,5.26,0,0,0,.57,2.61,3,3,0,0,0,1.58,1.38,6.71,6.71,0,0,0,2.27.37h15.68v9Z"/>
        <path class="cls-2" d="M403.05,94.47V44.89h21a17.83,17.83,0,0,1,8.38,1.78,13.42,13.42,0,0,1,5.32,5.09,23,23,0,0,1,2.78,7.87,57.63,57.63,0,0,1,.81,10.05,42.87,42.87,0,0,1-1.91,13.87A14.86,14.86,0,0,1,424,94.47ZM413,85.56h10a6.7,6.7,0,0,0,4.89-1.77,10.86,10.86,0,0,0,2.64-5.33,38.85,38.85,0,0,0,.84-8.78,48,48,0,0,0-.54-7.94,14.28,14.28,0,0,0-1.57-4.85,5.65,5.65,0,0,0-2.61-2.42A9.39,9.39,0,0,0,423,53.8H413Z"/>
      </g>
      <g>
        <path class="cls-3" d="M194.41,132.6a18.62,18.62,0,0,1-4.55-.5,6.78,6.78,0,0,1-3.28-1.88,8.59,8.59,0,0,1-2-4,30.55,30.55,0,0,1-.65-7,30.86,30.86,0,0,1,.65-7,9,9,0,0,1,2-4.11,6.91,6.91,0,0,1,3.27-1.94,17.55,17.55,0,0,1,4.54-.52,18.07,18.07,0,0,1,4.63.52,6.73,6.73,0,0,1,3.26,1.94,9.27,9.27,0,0,1,1.94,4.11,30.86,30.86,0,0,1,.65,7,30.55,30.55,0,0,1-.65,7,8.69,8.69,0,0,1-2,4A6.78,6.78,0,0,1,199,132.1,18.9,18.9,0,0,1,194.41,132.6Zm0-3.24a11.35,11.35,0,0,0,3.19-.39,4.12,4.12,0,0,0,2.12-1.46,7.14,7.14,0,0,0,1.17-3.06,30.75,30.75,0,0,0,.36-5.24,31.66,31.66,0,0,0-.38-5.47,7.33,7.33,0,0,0-1.17-3.1,3.88,3.88,0,0,0-2.1-1.4,12.25,12.25,0,0,0-3.19-.36,11.52,11.52,0,0,0-3.06.36,4,4,0,0,0-2.12,1.4,7.18,7.18,0,0,0-1.24,3.1,28.4,28.4,0,0,0-.42,5.47,32.15,32.15,0,0,0,.34,5.24,7,7,0,0,0,1.16,3.06,4,4,0,0,0,2.12,1.46A11.43,11.43,0,0,0,194.41,129.36Z"/>
        <path class="cls-3" d="M222.45,132.6a18.79,18.79,0,0,1-4-.4,8.49,8.49,0,0,1-3.17-1.34,6.09,6.09,0,0,1-2-2.62,10.68,10.68,0,0,1-.7-4.17V105.85h3.63V124a5.86,5.86,0,0,0,.74,3.19,4.08,4.08,0,0,0,2.16,1.62,10.68,10.68,0,0,0,3.4.48,10.81,10.81,0,0,0,3.44-.48,4.08,4.08,0,0,0,2.16-1.62,5.86,5.86,0,0,0,.74-3.19V105.85h3.63v18.22a10.66,10.66,0,0,1-.71,4.17,6.19,6.19,0,0,1-2,2.62,8.19,8.19,0,0,1-3.15,1.34A18.91,18.91,0,0,1,222.45,132.6Z"/>
        <path class="cls-3" d="M246.61,132.38V109.09h-7.92v-3.24h19.48v3.24h-7.92v23.29Z"/>
        <path class="cls-3" d="M264.79,132.38V105.85h10.73a8.81,8.81,0,0,1,4.17.9,7.07,7.07,0,0,1,2.74,2.61,12.33,12.33,0,0,1,1.51,4.18,30.35,30.35,0,0,1,.47,5.6,22.84,22.84,0,0,1-1,7.2,9.24,9.24,0,0,1-3,4.5,7.78,7.78,0,0,1-4.93,1.54Zm3.63-3.24h6.77a4.4,4.4,0,0,0,3.21-1.2,7.42,7.42,0,0,0,1.8-3.46,22,22,0,0,0,.57-5.34,29,29,0,0,0-.32-4.77,9.17,9.17,0,0,0-1-3.1,4,4,0,0,0-1.74-1.67,5.77,5.77,0,0,0-2.51-.51h-6.77Z"/>
        <path class="cls-3" d="M302.23,132.6a18.76,18.76,0,0,1-4.56-.5,6.75,6.75,0,0,1-3.27-1.88,8.59,8.59,0,0,1-2-4,30.55,30.55,0,0,1-.65-7,30.86,30.86,0,0,1,.65-7,9,9,0,0,1,2-4.11,6.86,6.86,0,0,1,3.27-1.94,17.55,17.55,0,0,1,4.54-.52,17.93,17.93,0,0,1,4.62.52,6.64,6.64,0,0,1,3.26,1.94,9.17,9.17,0,0,1,1.95,4.11,30.86,30.86,0,0,1,.65,7,30.55,30.55,0,0,1-.65,7,8.6,8.6,0,0,1-2,4,6.7,6.7,0,0,1-3.27,1.88A18.9,18.9,0,0,1,302.23,132.6Zm0-3.24a11.35,11.35,0,0,0,3.19-.39,4.12,4.12,0,0,0,2.12-1.46,7.14,7.14,0,0,0,1.17-3.06,30.75,30.75,0,0,0,.36-5.24,31.66,31.66,0,0,0-.38-5.47,7.33,7.33,0,0,0-1.17-3.1,3.88,3.88,0,0,0-2.1-1.4,12.25,12.25,0,0,0-3.19-.36,11.47,11.47,0,0,0-3.06.36,4,4,0,0,0-2.12,1.4,7.3,7.3,0,0,0-1.25,3.1,29.37,29.37,0,0,0-.41,5.47,32.15,32.15,0,0,0,.34,5.24,7,7,0,0,0,1.15,3.06A4.11,4.11,0,0,0,299,129,11.43,11.43,0,0,0,302.23,129.36Z"/>
        <path class="cls-3" d="M330.49,132.6a18.76,18.76,0,0,1-4.56-.5,6.75,6.75,0,0,1-3.27-1.88,8.59,8.59,0,0,1-2-4,30,30,0,0,1-.65-7,30.29,30.29,0,0,1,.65-7,9,9,0,0,1,2-4.11,6.86,6.86,0,0,1,3.27-1.94,17.55,17.55,0,0,1,4.54-.52,18,18,0,0,1,4.62.52,6.64,6.64,0,0,1,3.26,1.94,9.28,9.28,0,0,1,1.95,4.11,30.86,30.86,0,0,1,.65,7,30.55,30.55,0,0,1-.65,7,8.69,8.69,0,0,1-2,4,6.7,6.7,0,0,1-3.27,1.88A18.9,18.9,0,0,1,330.49,132.6Zm0-3.24a11.23,11.23,0,0,0,3.18-.39,4.11,4.11,0,0,0,2.13-1.46,7.14,7.14,0,0,0,1.17-3.06,30.75,30.75,0,0,0,.36-5.24,31.66,31.66,0,0,0-.38-5.47,7.33,7.33,0,0,0-1.17-3.1,3.87,3.87,0,0,0-2.11-1.4,12.11,12.11,0,0,0-3.18-.36,11.47,11.47,0,0,0-3.06.36,4.07,4.07,0,0,0-2.13,1.4,7.43,7.43,0,0,0-1.24,3.1,29.37,29.37,0,0,0-.41,5.47,32.15,32.15,0,0,0,.34,5.24,7,7,0,0,0,1.15,3.06,4.11,4.11,0,0,0,2.13,1.46A11.43,11.43,0,0,0,330.49,129.36Z"/>
        <path class="cls-3" d="M349,132.38V105.85h10.62a10.49,10.49,0,0,1,2.64.33,5.57,5.57,0,0,1,2.29,1.18,5.72,5.72,0,0,1,1.58,2.44,14.25,14.25,0,0,1,.15,7.5,6.12,6.12,0,0,1-1.14,2.18,4.78,4.78,0,0,1-1.55,1.22,8.35,8.35,0,0,1-1.67.63l5.29,11H363.5l-4.9-10.54-1.31,0-1.62,0c-.56,0-1.12,0-1.66,0l-1.42,0v10.65Zm3.63-13.46H359a5.6,5.6,0,0,0,1.58-.2,2.84,2.84,0,0,0,1.28-.75,3.85,3.85,0,0,0,.88-1.55,8.2,8.2,0,0,0,.33-2.54,7.55,7.55,0,0,0-.33-2.45,3.11,3.11,0,0,0-2.19-2.14,5.93,5.93,0,0,0-1.55-.2h-6.41Z"/>
        <path class="cls-3" d="M382.15,132.6c-.58,0-1.23,0-2,0s-1.48-.09-2.24-.17l-2.15-.21a12.46,12.46,0,0,1-1.75-.29v-2.81l2.25.15c.87.05,1.81.08,2.81.1s2,0,2.9,0a11.49,11.49,0,0,0,2.75-.29,3.58,3.58,0,0,0,1.91-1.08,3.27,3.27,0,0,0,.7-2.23v-1.55a3.33,3.33,0,0,0-.88-2.48,3.7,3.7,0,0,0-2.69-.87h-2.7a8.34,8.34,0,0,1-5.34-1.51c-1.26-1-1.89-2.73-1.89-5.18v-1.44q0-3.81,2.07-5.45a9.23,9.23,0,0,1,5.88-1.64q1.26,0,2.7.12c1,.09,1.9.19,2.81.31s1.67.24,2.27.36v2.81L386,109c-1.33-.08-2.58-.12-3.76-.12a8.75,8.75,0,0,0-2.61.34,3.07,3.07,0,0,0-1.69,1.21,4.23,4.23,0,0,0-.6,2.44V114a3.1,3.1,0,0,0,1.05,2.7,4.84,4.84,0,0,0,2.91.76h2.92a7.54,7.54,0,0,1,3.73.83,5.28,5.28,0,0,1,2.17,2.27,7.21,7.21,0,0,1,.72,3.27v1.87a7,7,0,0,1-1.15,4.32,5.77,5.77,0,0,1-3.09,2.07A16.21,16.21,0,0,1,382.15,132.6Z"/>
      </g>
      <g>
        <polygon class="cls-3" points="32.84 17.2 111.75 17.2 101.38 33.53 43.75 33.25 32.84 17.2"/>
        <polygon class="cls-3" points="33.41 152.85 112.05 152.59 101.63 136.58 43.83 136.76 33.41 152.85"/>
        <polygon class="cls-4" points="111.75 17.2 101.38 33.53 111.75 45.8 126.48 33.35 111.75 17.2"/>
        <polygon class="cls-4" points="32.84 17.2 43.78 33.25 33.41 45.8 18.71 33.35 32.84 17.2"/>
        <polygon class="cls-4" points="112.05 152.59 101.63 136.58 111.78 124.26 126.48 136.94 112.05 152.59"/>
        <polygon class="cls-4" points="33.46 152.82 43.83 136.77 33.46 124.22 19.05 136.77 33.46 152.82"/>
        <polygon class="cls-4" points="43.75 33.25 101.38 33.53 72.3 44.99 43.75 33.25"/>
        <polygon class="cls-4" points="43.83 136.76 101.63 136.58 72.3 125.12 43.83 136.76"/>
        <polygon class="cls-5" points="33.42 45.81 43.76 33.26 72.3 45.01 101.39 33.55 111.75 45.83 100.4 85.16 111.79 124.27 101.64 136.6 72.3 125.14 43.84 136.78 33.42 124.27 44.69 85.16 33.42 45.81"/>
        <polygon class="cls-3" points="18.71 33.35 33.41 45.8 33.41 124.26 19.06 136.72 18.71 33.35"/>
        <polygon class="cls-3" points="126.48 33.35 111.75 45.8 111.78 124.26 126.48 136.94 126.48 33.35"/>
        <polygon class="cls-2" points="33.41 45.8 33.41 124.26 44.69 85.14 33.41 45.8"/>
        <polygon class="cls-2" points="111.75 45.8 111.78 124.26 100.4 85.14 111.75 45.8"/>
      </g>
    </g>
  </g>
</svg>
