<?xml version="1.0" encoding="UTF-8" standalone="no"?>
<!-- Created with Inkscape (http://www.inkscape.org/) -->

<svg
   width="12.5in"
   height="1.7707289in"
   viewBox="0 0 317.5 44.976515"
   version="1.1"
   id="svg1"
   xmlns="http://www.w3.org/2000/svg"
   xmlns:svg="http://www.w3.org/2000/svg">
  <defs
     id="defs1" />
  <g
     id="logo"
     transform="translate(-558.40771,640.90302)">
    <path
       id="path56"
       style="font-weight:500;font-size:14.1111px;line-height:14.1111px;font-family:SAINTROSE;-inkscape-font-specification:'SAINTROSE Medium';text-align:center;letter-spacing:0px;word-spacing:0px;text-anchor:middle;fill-rule:evenodd;stroke-width:1.48028;stroke-linejoin:round;paint-order:markers fill stroke"
       d="m 573.68637,-640.90301 -9.65665,28.6843 c -0.0191,0.0143 -0.04,0.0276 -0.0591,0.0419 -1.19621,0.95244 -2.2245,2.05835 -3.0531,3.24511 -0.83801,1.2002 -1.45702,2.46177 -1.84909,3.70804 -0.3108,0.98438 -0.4799,1.98838 -0.56876,2.89307 -0.0992,1.00996 -0.10278,1.93844 -0.0812,2.64931 0.0338,1.12093 0.14079,1.9613 0.17481,2.2061 0.0659,0.47455 0.0783,0.49976 0.0788,0.50229 l 0.0689,0.37178 -0.007,0.0195 0.98733,-0.002 0.33976,-0.98241 c -10e-4,5e-5 1.67593,-4.94546 1.80724,-5.25182 l 3.0654,-9.26762 c 1.0376,-0.74189 2.16796,-1.35562 3.3781,-1.8023 1.54509,-0.57028 3.15753,-0.86077 4.7914,-0.8815 2.68689,-0.0286 5.44327,0.39165 8.07345,1.13755 0.0801,0.23442 0.164,0.46741 0.24376,0.70173 0.0894,0.26301 0.18182,0.52482 0.27082,0.78787 l 3.74743,10.63659 1.63489,4.92435 h 3.55784 c 0,0 -1.91076,-4.92688 -1.91065,-4.92435 l -3.92717,-10.86062 c 0.0631,0.0286 0.12983,0.0521 0.19207,0.0788 1.07784,0.46407 2.01055,0.94415 2.77732,1.39855 2.28004,1.25518 4.10394,2.70781 5.53251,4.08716 1.60786,1.55245 2.78162,3.07469 3.58739,4.2596 1.05179,1.54678 1.68015,2.82097 1.94265,3.36333 0.24624,0.50872 0.35225,0.74347 0.43334,0.92328 -1.07287,1.87958 -2.59267,1.4825 -2.59267,1.67184 h 9.32425 c 0,-0.26729 -4.07296,0.77297 -4.74953,-5.25429 l 1.25817,-34.48767 16.54581,39.7887 h 0.78789 l 16.28482,-41.10102 1.32218,36.12746 c -0.3702,5.5529 -3.28207,4.49125 -3.28207,4.92435 h 9.91271 c 0,-0.39326 -2.93986,0.66747 -3.66864,-5.25429 h -0.007 l -1.44514,-32.82815 c 0.0438,-2.84517 1.62879,-5.2469 1.74076,-5.2469 l -4.75938,-0.005 -15.50431,39.83794 0.008,0.0195 h -0.0148 l 0.008,-0.0195 -16.40546,-39.83551 h -4.23001 c 0.11077,-0.006 1.53804,2.29806 1.66935,4.92436 l -1.24832,33.15811 c -0.009,0.0964 -0.0243,0.17553 -0.0343,0.26838 -0.38913,-0.62806 -0.8944,-1.39045 -1.53395,-2.23812 -0.92969,-1.23231 -2.26475,-2.80963 -4.05273,-4.39744 -1.59079,-1.41253 -3.59521,-2.88249 -6.06436,-4.13153 -0.8665,-0.4069 -1.8942,-0.82871 -3.04817,-1.22861 -0.40676,-0.14104 -0.83184,-0.27825 -1.26556,-0.41119 l -9.73778,-26.92625 z m 91.81446,0 -9.65665,28.6843 c -0.0191,0.0143 -0.04,0.0276 -0.0591,0.0419 -1.19622,0.95244 -2.2245,2.05835 -3.0531,3.24511 -0.83801,1.2002 -1.45703,2.46177 -1.84909,3.70804 -0.3108,0.98438 -0.4799,1.98838 -0.56876,2.89307 -0.0992,1.00996 -0.10278,1.93844 -0.0812,2.64931 0.0338,1.12093 0.14079,1.9613 0.17481,2.2061 0.0659,0.47455 0.0783,0.49976 0.0788,0.50229 l 0.0689,0.37178 c -2.2e-4,5.6e-4 -0.008,0.0195 -0.008,0.0195 l 0.98733,-0.002 0.33977,-0.98241 c -5.7e-4,5e-5 1.67592,-4.94546 1.80723,-5.25182 l 3.06541,-9.26762 c 1.03761,-0.74189 2.16797,-1.35562 3.3781,-1.8023 1.54509,-0.57028 3.15753,-0.86077 4.7914,-0.8815 2.68689,-0.0286 5.44327,0.39165 8.07346,1.13755 0.0799,0.2337 0.16423,0.46812 0.24376,0.70173 0.0894,0.26301 0.18181,0.52482 0.27082,0.78787 l 3.74742,10.63659 1.63489,4.92435 h 3.55784 c 0,0 -1.91076,-4.92688 -1.91065,-4.92435 l -3.92717,-10.86062 c 0.063,0.0286 0.12985,0.0521 0.19207,0.0788 1.07784,0.46407 2.01056,0.94415 2.77733,1.39855 2.28004,1.25518 4.10393,2.70781 5.5325,4.08716 1.60787,1.55245 2.78162,3.07469 3.58739,4.2596 1.05179,1.54678 1.68016,2.82097 1.94266,3.36333 0.2135,0.44116 0.29173,0.6144 0.37668,0.80017 -1.03841,2.03628 -2.69115,1.59637 -2.69115,1.79495 h 9.97918 c 10e-6,-0.26919 -3.47904,0.70164 -3.47904,-5.25181 v -15.56093 h 6.8276 l 11.81844,13.61579 c 2.71387,3.23917 4.75982,4.98651 5.72278,5.68681 0.96299,0.70034 2.49571,1.32234 2.78026,1.39576 0.28455,0.0734 0.79655,0.24519 2.06396,0.24214 1.26741,-0.003 1.7623,-0.30622 1.98211,-0.38822 0.2198,-0.082 0.94412,-0.43472 1.84475,-1.28594 0.91831,-0.86796 1.64709,-1.75337 1.87125,-2.60252 0.22407,-0.84914 -0.25582,-1.1608 -0.78542,-1.30498 -0.5296,-0.14388 -1.16003,-0.14722 -1.70384,1.14985 -0.54378,1.29682 -0.86127,2.52642 -1.67834,3.18307 -0.70908,0.56989 -1.06437,0.58599 -1.49455,0.58599 -0.85382,-0.0238 -1.48454,-0.35539 -2.08054,-0.85433 -0.61282,-0.61283 -2.04336,-2.54676 -4.3195,-5.21684 l -12.40931,-14.33979 c 3.7206,-0.48151 6.65251,-1.70629 8.79734,-3.67603 2.18858,-1.96972 3.28208,-4.48738 3.28208,-7.55145 0,-3.37048 -1.18186,-6.06251 -3.54553,-8.07594 -2.31991,-2.05726 -5.42611,-3.08512 -9.32178,-3.08512 l -15.26549,-0.005 c 0.23476,0 1.32445,1.34199 1.7383,2.17165 0.47155,0.84362 0.85437,1.8157 0.85437,3.08507 v 32.80358 c -0.36268,-0.5697 -0.80246,-1.22107 -1.34686,-1.94262 -0.9297,-1.23232 -2.26476,-2.80964 -4.05273,-4.39744 -1.59077,-1.41257 -3.59519,-2.88253 -6.06434,-4.13157 -0.8665,-0.40689 -1.89419,-0.82871 -3.04817,-1.2286 -0.40675,-0.14104 -0.83184,-0.27825 -1.26556,-0.41119 l -9.73789,-26.92628 z m 160.89812,0 -9.65663,28.6843 c -0.0191,0.0143 -0.0382,0.0276 -0.0591,0.0419 -1.19616,0.95244 -2.22445,2.05835 -3.05307,3.24511 -0.83798,1.2002 -1.45701,2.46177 -1.84907,3.70804 -0.31066,0.98438 -0.47995,1.98838 -0.5688,2.89307 -0.099,1.00996 -0.10317,1.93844 -0.0812,2.64931 0.0334,1.12093 0.14049,1.9613 0.17481,2.2061 0.0657,0.47455 0.0784,0.49976 0.0787,0.50229 l 0.069,0.37178 c -2.4e-4,5.6e-4 -0.005,0.0195 -0.005,0.0195 l 0.98735,-0.002 0.33976,-0.98241 c -5.6e-4,5e-5 1.6759,-4.94546 1.80722,-5.25182 l 3.06545,-9.26762 c 1.03757,-0.74189 2.16793,-1.35562 3.37809,-1.8023 1.54507,-0.57028 3.1575,-0.86077 4.79137,-0.8815 2.6869,-0.0286 5.44327,0.39165 8.07347,1.13755 0.0272,0.0798 0.0559,0.15918 0.0837,0.23885 l 0.15752,0.4604 h 0.002 v 0.002 c 0.0896,0.263 0.18219,0.52482 0.27082,0.78787 l 3.74744,10.63658 1.63489,4.92434 h 3.55787 c 0,0 -1.91075,-4.92686 -1.91066,-4.92434 l -3.92717,-10.86061 c 0.0629,0.0286 0.12966,0.0521 0.19206,0.0788 1.07779,0.46407 2.01057,0.94415 2.77733,1.39856 2.28001,1.25517 4.10388,2.7078 5.53245,4.08715 1.60788,1.55245 2.78165,3.07469 3.58741,4.25961 1.05178,1.54678 1.68014,2.82098 1.94268,3.36333 0.57004,1.17791 0.58023,1.25828 0.57365,1.24094 l 0.42105,1.10794 0.19207,-0.0738 c 1.15621,-0.36188 1.74841,-0.38103 2.63205,-0.27087 2.67009,0.61286 5.14239,0.91842 7.41851,0.91842 4.15837,0 7.37561,-0.98489 9.65175,-2.95462 2.31993,-1.96973 3.47902,-4.41936 3.47902,-7.35206 0,-2.9765 -1.13641,-5.58258 -3.41254,-7.81494 -2.27616,-2.27615 -5.38481,-4.0035 -9.32427,-5.18535 -3.50174,-1.0505 -6.34774,-2.5404 -8.53635,-4.46638 -2.14483,-1.96973 -3.21558,-4.24503 -3.21558,-6.82758 0,-2.31993 0.93943,-4.33263 2.82165,-6.03974 1.88215,-1.75089 4.53122,-2.62711 7.94542,-2.62711 2.27615,0 4.0919,0.41667 5.4488,1.24833 1.35692,0.78792 3.08669,2.5817 3.612,3.28205 0.52526,0.70039 1.09814,1.10028 1.79983,0.75342 0.70183,-0.34711 2.40583,-1.85561 0.26101,-2.97182 -2.14484,-1.11615 -7.9701,-3.03343 -11.90955,-3.03343 -3.58931,0 -6.50095,1.02782 -8.73331,3.08513 -2.23235,2.05725 -3.34857,4.575 -3.34857,7.55149 0,2.93271 1.09591,5.49335 3.28454,7.68196 2.23235,2.18863 5.22995,3.85033 8.99431,4.9884 3.63306,1.09429 6.565,2.67003 8.79736,4.72734 2.23234,2.01347 3.34856,4.31152 3.34856,6.89408 0,2.2761 -0.96212,4.22563 -2.88811,5.84521 -1.926,1.61954 -4.64067,2.4277 -8.14242,2.4277 -3.45423,0 -6.45674,-0.7871 -8.6447,-2.40307 -0.0977,-0.20469 -0.22564,-0.45921 -0.41365,-0.81007 -0.31971,-0.59796 -1.07786,-1.93505 -2.29473,-3.54796 -0.92968,-1.23232 -2.2648,-2.80964 -4.05277,-4.39744 -1.59076,-1.41256 -3.59517,-2.88253 -6.06433,-4.13157 -0.86648,-0.4069 -1.8942,-0.82871 -3.04814,-1.2286 -0.40691,-0.14104 -0.83185,-0.27826 -1.26557,-0.41118 l -9.73796,-26.92632 z m -76.94786,0.98484 c -0.0196,0.26873 3.41503,-0.1063 3.41503,5.25182 v 24.95167 c 0,4.77113 -0.48232,8.16266 -1.44529,10.17619 -0.91921,2.01346 -2.44959,3.02108 -4.59441,3.02108 -2.18861,0 -3.6558,-1.1162 -4.3999,-3.34856 -0.30642,-0.83156 -0.74331,-1.24832 -1.31234,-1.24832 -1.00675,0 -1.42343,0.41667 -1.24833,1.24832 0.3064,1.18186 1.00594,2.14403 2.10025,2.88811 1.13806,0.70035 2.49663,1.05135 4.07242,1.05135 3.54553,0 6.08348,-1.24751 7.6155,-3.74249 1.53202,-2.53877 2.29722,-6.74086 2.29722,-12.60631 v -22.39104 c -0.007,-5.35364 3.42694,-4.97118 3.41502,-5.25182 z m 13.72416,0 c 0,0.2884 3.41258,-0.1063 3.41258,5.25182 v 32.83065 c -0.0648,5.29551 -3.41258,4.97262 -3.41258,5.25182 h 9.91272 c 0,-0.28697 -3.41259,0.0238 -3.41259,-5.25182 v -17.13673 h 29.08568 v 17.13673 c 0,5.29551 -3.41502,4.85922 -3.41502,5.25182 h 9.91517 c 0,-0.39031 -3.41507,0.0238 -3.41507,-5.25182 v -32.83065 c 0.0452,-5.35364 3.41507,-4.99215 3.41507,-5.25182 h -9.91517 c 0,0.26873 3.41502,-0.10635 3.41502,5.25182 v 14.906 h -29.08568 v -14.906 c -0.0138,-5.37317 3.41259,-4.97261 3.41259,-5.25182 z m -68.34994,0.78793 h 9.65172 c 2.88895,0 5.20723,0.96211 6.95811,2.8881 1.79464,1.8822 2.69361,4.37724 2.69361,7.48504 0,3.19538 -1.05054,5.75597 -3.15158,7.68195 -2.10105,1.926 -4.90411,2.8906 -8.40585,2.8906 h -7.74601 z m -121.72986,2.43018 c 2.5107,7.29545 5.14881,14.54935 7.65981,21.84439 -2.5396,-0.51658 -5.1326,-0.76458 -7.66966,-0.6722 -1.71497,0.0591 -3.39951,0.38927 -5.01053,1.00457 -0.99023,0.37832 -1.92591,0.8654 -2.80688,1.43053 z m 91.81445,0 c 2.51071,7.29545 5.14882,14.54935 7.65982,21.84439 -2.5396,-0.51658 -5.1326,-0.76458 -7.66966,-0.6722 -1.71497,0.0591 -3.39951,0.38927 -5.01053,1.00457 -0.99023,0.37832 -1.92591,0.8654 -2.80687,1.43053 z m 160.89809,0 c 2.51076,7.29545 5.14883,14.54935 7.65987,21.84439 -2.53963,-0.51658 -5.13262,-0.76458 -7.66967,-0.6722 -1.71496,0.0591 -3.39954,0.38927 -5.01054,1.00457 -0.99024,0.37832 -1.9259,0.8654 -2.80688,1.43053 z m -262.17221,25.65092 -3.21314,9.54091 c -0.009,-5.6e-4 -0.8737,2.55774 -1.14984,3.37315 -0.0476,-0.39308 -0.10129,-0.90065 -0.13293,-1.57332 -0.0324,-0.68972 -0.0415,-1.58675 0.0419,-2.56064 0.0745,-0.87273 0.22428,-1.8287 0.50967,-2.76013 0.3635,-1.18177 0.94741,-2.38697 1.74815,-3.53815 0.61708,-0.88716 1.3569,-1.72429 2.19625,-2.48182 z m 91.81445,0 -3.21314,9.54091 c -0.009,-5.6e-4 -0.8737,2.55774 -1.14983,3.37315 -0.0476,-0.39308 -0.1013,-0.90065 -0.13297,-1.57332 -0.0324,-0.68972 -0.0415,-1.58675 0.0419,-2.56064 0.0745,-0.87273 0.22428,-1.8287 0.50968,-2.76013 0.36348,-1.18177 0.9474,-2.38697 1.74814,-3.53815 0.61709,-0.88716 1.3569,-1.72429 2.19626,-2.48182 z m 160.8981,0 -3.2131,9.54091 c -0.0103,-5.6e-4 -0.87374,2.55774 -1.14985,3.37315 -0.0476,-0.39308 -0.10144,-0.90065 -0.13291,-1.57332 -0.0334,-0.68972 -0.0439,-1.58675 0.0419,-2.56064 0.0743,-0.87273 0.22439,-1.8287 0.50965,-2.76013 0.36355,-1.18177 0.94741,-2.38697 1.74815,-3.53815 0.6171,-0.88716 1.3569,-1.72429 2.19623,-2.48182 z" />
  </g>
</svg>
