<?xml version="1.0" encoding="UTF-8" standalone="no"?>
<!DOCTYPE svg PUBLIC "-//W3C//DTD SVG 1.1//EN" "http://www.w3.org/Graphics/SVG/1.1/DTD/svg11.dtd">
<!-- Created with Vectornator (http://vectornator.io/) -->
<svg height="100%" stroke-miterlimit="10" style="fill-rule:nonzero;clip-rule:evenodd;stroke-linecap:round;stroke-linejoin:round;" 
version="1.1" viewBox="0 0 1080 1080" width="100%" xml:space="preserve" xmlns="http://www.w3.org/2000/svg" 
xmlns:vectornator="http://vectornator.io" xmlns:xlink="http://www.w3.org/1999/xlink">
<defs/>
<clipPath id="ArtboardFrame">
<rect height="1080" width="1080" x="0" y="0"/>
</clipPath>
<g clip-path="url(#ArtboardFrame)" id="Layer-1" vectornator:layerName="Layer 1">
<g opacity="1" vectornator:layerName="Group 3">
<path d="M540 1027.13L217.181 909.621L45.4119 612.074L105.067 273.716L368.231 52.8687L711.769 52.8687L974.933 273.716L1034.59 612.074L862.819 909.621L540 1027.13Z" 
fill="#b7c6bc" fill-rule="nonzero" opacity="1" stroke="#b7c6bc" stroke-linecap="butt" stroke-linejoin="round" stroke-width="5.17879" vectornator:layerName="Polygon 1"/>
<path d="M629.43 257.548C497.626 257.548 393.192 316.934 324.089 385.385C305.653 366.387 295.732 344.913 295.734 322.514C295.734 314.779 298.38 310.416 301.97 305.345C305.337 300.591 311.187 294.144 311.186 284.312C311.186 274.926 303.903 265.797 293.638 265.804C284.537 265.804 277.077 271.218 272.252 278.177C267.37 285.217 264.601 294.388 264.601 304.31C264.601 340.879 281.506 373.661 309.571 400.257C258.54 455.466 229.988 514.812 229.984 554.607C229.984 565.485 233.206 575.455 239.63 582.836C246.095 590.264 255.535 594.551 266.318 594.551C292.895 594.551 327.471 577.884 364.639 554.152C398.195 532.727 433.98 504.942 467.329 476.283C445.382 511.354 430.232 548.36 430.237 587.406C430.237 610.719 437.771 632.479 450.184 651.817C392.42 669.987 344.592 696.232 310.58 722.49C292.557 736.405 278.351 750.294 268.439 763.192C258.632 775.953 252.456 788.107 252.456 799.4C252.456 808.204 259.18 813.916 265.536 817.15C272.309 820.596 280.85 822.45 290.128 822.452C346.15 822.452 386.041 808.646 431.222 785.134C460.428 769.99 503.285 735.158 526.387 716.127C526.716 715.856 526.973 715.547 527.245 715.243C556.84 728.561 591.203 736.557 628.117 736.554C681.922 736.554 730.761 721.645 766.534 697.089C802.238 672.581 825.415 637.916 825.415 598.793C825.415 554.793 797.897 517.17 757.646 494.286C766.228 485.961 786.619 465.875 807.059 441.035C818.255 427.429 829.046 412.868 837.055 398.768C844.999 384.782 850.653 370.914 849.958 358.015C848.712 334.893 834.963 314.312 814.912 299.739C794.798 285.122 767.915 276.128 738.734 276.131C732.459 276.131 726.482 277.189 721.06 277.924C719.308 278.161 717.87 278.92 716.742 279.944C715.542 279.243 714.368 278.47 713.207 277.798C713.177 277.78 713.163 277.765 713.131 277.747C690.969 265.294 661.803 257.548 629.43 257.548ZM660.815 287.367C666.887 287.367 672.706 287.98 678.338 288.882C651.861 299.062 626.55 314.516 606.276 329.382L604.559 330.771C604.108 331.013 603.694 331.281 603.297 331.604C578.79 351.552 545.438 375.806 469.273 448.66C429.034 443.206 392.541 431.364 363.958 415.154C445.03 347.36 558.297 287.364 660.815 287.367ZM738.734 296.861C788.786 296.861 825.249 327.224 828.445 358.318C829.058 364.282 825.609 375.024 818.194 387.759C810.909 400.27 800.455 414.205 789.435 427.451C767.376 453.966 743.098 477.713 736.841 483.757C736.654 483.937 736.526 484.146 736.361 484.338C714.719 475.561 690.549 470.12 664.501 470.122C588.05 470.122 502.893 506.852 461.9 575.488C459.536 579.446 460.942 584.572 465.006 586.749C465.669 587.105 467.019 587.833 467.682 588.188C471.447 590.205 476.12 588.945 478.363 585.31C516.116 524.123 593.528 489.387 664.501 489.388C684.617 489.388 703.418 493.093 720.706 499.109C664.502 553.217 618.891 594.689 576.356 628.158C549.357 629.634 523.582 633.185 498.714 638.485C498.676 638.493 493.321 639.517 492.856 639.621C484.577 641.438 477.082 643.709 469.702 645.883C469.68 645.851 469.674 645.814 469.652 645.782C456.921 627.825 449.604 607.949 449.604 586.926C449.604 548.37 467.511 508.395 494.295 470.097C501.025 470.468 507.887 470.831 515.202 470.829C575.837 470.829 634.524 453.996 678.489 428.789C722.017 403.833 753.076 369.638 753.076 333.043C753.076 323.773 750.148 315.16 745.602 307.491C745.561 307.422 745.519 307.357 745.476 307.289C745.379 307.137 744.959 306.188 743.936 304.663C743.928 304.651 743.918 304.624 743.91 304.613C742.076 301.875 739.981 299.361 737.775 296.937C738.052 296.93 738.468 296.861 738.734 296.861ZM709.647 299.664C725.246 308.67 733.784 320.917 733.785 333.043C733.785 359.471 709.804 389.302 668.743 412.629C628.119 435.709 572.69 451.44 515.202 451.438C512.915 451.438 510.739 451.401 508.536 451.387C546.33 404.192 595.319 365.788 617.234 348.016C617.257 347.999 617.287 347.983 617.31 347.966C617.349 347.934 617.422 347.871 617.462 347.84C638.114 332.303 675.11 310.089 705.834 301.987C707.435 301.565 708.674 300.708 709.647 299.664ZM347.899 429.016C376.988 446.29 411.697 458.661 450.109 465.35C416.796 493.832 382.174 519.993 351.055 539.482C333.419 550.528 316.932 559.47 302.652 565.565C288.335 571.676 276.326 574.781 268.136 574.781C261.93 574.781 259.252 573.234 257.91 571.802C256.513 570.31 255.261 567.422 255.259 561.904C255.259 547.482 264.087 526.163 281.089 501.937C297.16 479.036 320.233 453.814 347.899 429.016ZM743.254 508.577C781.713 528.629 806.126 561.914 806.125 598.793C806.125 630.165 787.391 659.411 755.197 681.207C723.079 702.952 678.096 716.706 628.117 716.708C597.953 716.708 569.704 710.988 544.819 701.255C546.426 699.957 549.086 697.796 549.086 697.796C549.159 697.737 549.243 697.655 549.313 697.594C550.214 696.812 552.024 695.245 552.924 694.463C552.948 694.443 552.951 694.434 552.975 694.413C553.286 694.136 584.127 665.708 603.17 647.247C603.493 647.247 603.891 647.247 604.13 647.247C635.375 647.247 666.817 650.833 697.224 660.528C701.469 661.881 706.012 659.542 707.375 655.301C707.588 654.638 708.02 653.314 708.233 652.65C709.601 648.395 707.24 643.832 702.981 642.475C676.896 634.158 649.997 629.537 623.168 628.057C657.722 594.049 697.279 554.422 742.724 509.234C742.93 509.028 743.075 508.796 743.254 508.577ZM547.293 650.58C534.86 659.797 523.534 668.052 523.534 668.052C522.491 668.763 520.41 670.169 519.368 670.88C519.137 671.027 512.196 675.442 506.465 679.111C506.015 679.399 505.772 679.824 505.405 680.172C497.561 674.706 490.44 668.764 484.044 662.396C488.998 660.969 493.94 659.634 498.991 658.533C499.535 658.435 504.063 657.638 504.698 657.498C518.379 654.502 532.65 652.241 547.293 650.58ZM463.036 668.507C463.282 668.902 463.519 669.304 463.844 669.668C470.773 677.424 478.564 684.717 487.2 691.408C464.665 705.91 434.264 725.301 407.563 740.518C378.338 757.056 349.926 772.214 326.841 783.164C315.302 788.638 305.081 793.055 296.895 796.041C288.706 799.029 282.463 800.409 280.079 800.41C277.301 800.41 274.868 799.665 273.59 798.92C273.455 798.841 273.434 798.884 273.338 798.844C273.739 793.805 277.308 785.124 285.609 774.428C294.283 763.251 307.385 750.393 324.341 737.362C357.434 711.93 405.112 685.921 463.036 668.507Z"
fill="#b7c6bc" fill-rule="nonzero" opacity="1" stroke="none" vectornator:layerName="WhiteOS"/>
<path d="M629.43 264.82C496.659 264.82 392.003 326.103 324.064 395.611C301.34 374.446 288.46 349.308 288.462 322.514C288.462 312.73 292.201 306.571 296.037 301.153C299.851 295.768 303.915 291.031 303.915 284.312C303.915 278.459 299.17 273.072 293.638 273.076C287.609 273.076 282.153 276.668 278.236 282.317C274.313 287.975 271.873 295.741 271.873 304.31C271.873 340.742 289.56 373.516 319.797 399.929C266.38 455.826 237.26 516.623 237.256 554.607C237.256 564.091 240.055 572.257 245.109 578.063C250.167 583.875 257.458 587.279 266.318 587.279C290.068 587.279 323.835 571.597 360.726 548.042C397.546 524.532 437.508 493.081 473.641 461.285C476.659 461.589 481.751 462.129 485.155 462.472C457.314 502.238 437.503 543.875 437.509 587.406C437.509 610.772 445.515 632.637 458.971 652.044C459.174 652.337 459.541 652.457 459.88 652.347C461.114 651.946 462.077 651.612 463.289 651.236C463.814 651.073 464.036 650.422 463.718 649.974C450.286 631.026 442.332 609.685 442.332 586.926C442.332 544.985 462.073 502.503 490.558 462.623C498.605 463.072 506.669 463.56 515.202 463.557C574.508 463.557 632.086 447.011 674.879 422.477C717.628 397.967 745.804 365.372 745.804 333.043C745.804 325.329 743.381 318.019 739.34 311.203C739.336 311.196 739.345 311.184 739.34 311.177C738.868 310.432 738.45 309.515 737.901 308.703C735.93 305.756 733.584 302.983 730.983 300.27C730.218 299.443 729.338 298.677 728.584 297.947C725.672 295.171 722.583 292.35 719.015 289.816C716.297 287.943 712.862 285.991 709.571 284.085C688.648 272.328 660.655 264.82 629.43 264.82ZM660.815 280.095C677.236 280.095 692.502 283.406 705.228 289.034C705.267 289.055 705.572 289.214 706.062 289.463C706.598 289.736 707.331 290.117 708.082 290.498C709.567 291.253 711.21 292.115 711.465 292.291C711.488 292.307 711.516 292.303 711.541 292.316C729.488 302.099 741.056 316.777 741.057 333.043C741.057 363.741 714.178 395.192 672.328 418.967C630.522 442.718 573.988 458.711 515.202 458.71C507.99 458.71 501.148 458.65 494.017 458.28C533.476 404.815 589.38 361.262 612.866 342.209C634.038 326.242 671.549 303.491 703.966 294.942C704.687 294.752 704.786 293.784 704.117 293.452C701.315 292.064 698.924 291.381 696.214 290.549C696.063 290.502 695.912 290.504 695.76 290.549C665.057 299.615 634.292 317.844 610.568 335.24C610.565 335.242 607.993 337.159 607.993 337.159C607.948 337.183 607.906 337.228 607.867 337.26C582.842 357.63 549.713 381.573 471.697 456.387C425.071 450.513 382.984 436.226 351.434 416.19C433.686 345.098 552.27 280.092 660.815 280.095ZM738.734 283.403C733.307 283.403 727.618 284.365 722.044 285.12C721.322 285.218 721.1 286.157 721.691 286.585C723.448 287.854 724.841 288.991 726.488 290.347C726.654 290.483 726.855 290.545 727.069 290.523C731.029 290.129 734.998 289.586 738.734 289.589C791.249 289.589 831.977 321.448 835.692 357.586C836.598 366.4 832.105 378.327 824.481 391.42C816.87 404.491 806.193 418.661 795.015 432.097C772.658 458.971 748.242 482.849 741.89 488.984C741.481 489.379 741.6 490.06 742.118 490.297C743.987 491.149 746.674 491.991 748.127 492.746C748.435 492.906 748.812 492.86 749.061 492.62C755.47 486.453 779.398 463.218 801.454 436.414C812.483 423.011 823.056 408.717 830.743 395.182C838.424 381.659 843.275 368.88 842.711 358.419C841.614 338.047 829.421 319.268 810.645 305.623C791.862 291.973 766.43 283.4 738.734 283.403ZM346.914 420.028C379.748 440.594 420.962 454.503 466.975 460.528C429.837 493.279 390.239 523.522 354.918 545.643C337.052 556.833 320.278 565.951 305.505 572.256C290.729 578.563 277.966 582.053 268.136 582.053C260.758 582.053 255.766 580.149 252.608 576.776C249.444 573.397 247.99 568.394 247.987 561.904C247.987 544.898 257.769 522.51 275.13 497.77C292.399 473.164 317.116 446.264 346.914 420.028ZM513.813 424.598C504.802 435.403 496.173 446.527 487.983 457.725C485.066 457.705 481.779 457.387 478.489 457.043C491.052 446.099 502.811 435.147 513.813 424.598ZM664.501 477.394C590.098 477.394 507.46 513.385 468.137 579.225C467.9 579.621 468.033 580.118 468.44 580.336C469.103 580.691 470.452 581.42 471.116 581.775C471.493 581.977 471.952 581.836 472.177 581.472C511.584 517.605 591.467 482.116 664.501 482.116C690.337 482.116 714.238 487.793 735.401 496.861C735.417 496.868 735.436 496.856 735.452 496.861C735.527 496.888 737.062 497.543 738.507 498.174C739.237 498.493 739.954 498.815 740.502 499.058C740.775 499.18 740.996 499.287 741.158 499.361C741.336 499.442 741.382 499.472 741.411 499.487C741.417 499.491 741.429 499.484 741.436 499.487C784.504 520.027 813.399 556.759 813.397 598.793C813.397 633.262 792.785 664.521 759.262 687.217C725.747 709.907 679.395 723.978 628.117 723.98C591.897 723.98 558.278 716.015 529.669 702.72C529.662 702.716 529.652 702.698 529.644 702.694C528.264 702.104 522.29 698.816 516.666 695.625C513.848 694.025 511.092 692.447 509.015 691.231C507.977 690.624 507.117 690.097 506.49 689.716C505.887 689.349 505.531 689.135 505.531 689.135C505.493 689.099 505.449 689.063 505.405 689.034C493.562 681.275 483.191 672.463 474.272 662.8C474.068 662.579 473.755 662.495 473.464 662.573C472.267 662.896 470.99 663.134 469.652 663.533C469.084 663.702 468.878 664.379 469.273 664.82C478.375 675.009 488.987 684.372 501.188 692.544C512.224 700.04 526.204 706.838 526.412 706.936C555.896 720.874 590.666 729.285 628.117 729.282C680.597 729.282 728.039 714.679 762.418 691.08C796.791 667.485 818.144 634.856 818.144 598.793C818.144 555.158 788.9 517.517 745.653 496.154C745.649 496.153 745.631 496.131 745.627 496.129C743.18 494.968 739.633 493.574 736.79 492.342C715.136 483.115 690.799 477.391 664.501 477.394ZM730.907 500.093C730.609 499.968 730.255 500.046 730.023 500.27C670.938 557.286 623.641 600.423 579.183 635.253C551.676 636.62 525.505 640.194 500.229 645.58C500.057 645.617 494.581 646.686 494.447 646.717C484.506 648.896 475.421 651.864 466.041 654.519C466.011 654.527 465.994 654.532 465.965 654.544C465.877 654.58 462.808 655.467 462.506 655.529C462.484 655.533 462.477 655.548 462.456 655.554C400.916 673.485 350.281 701.027 315.024 728.247C297.395 741.857 283.601 755.372 274.196 767.611C264.801 779.836 259.728 790.826 259.728 799.4C259.728 803.966 263.37 807.889 268.818 810.661C274.308 813.454 281.828 815.178 290.128 815.18C344.878 815.18 383.209 801.934 427.864 778.695C455.842 764.188 498.781 729.456 521.766 710.522C522.223 710.146 522.148 709.413 521.615 709.158C518.22 707.54 501.715 698.022 496.795 694.539C496.525 694.348 496.163 694.335 495.886 694.514C473.088 709.208 439.797 730.519 411.174 746.83C381.834 763.434 353.293 778.655 329.947 789.729C318.275 795.266 307.911 799.777 299.395 802.884C290.879 805.991 284.209 807.681 280.079 807.681C276.115 807.681 272.505 806.685 269.929 805.182C267.338 803.669 265.928 801.723 265.914 799.879C265.914 799.879 265.914 799.854 265.914 799.854C265.924 792.216 270.669 781.791 279.852 769.959C289.031 758.132 302.576 744.936 319.923 731.605C354.618 704.942 404.539 677.806 465.359 660.149C465.564 660.091 468.786 659.265 469.046 659.19C478.477 656.531 487.568 653.587 497.426 651.438C497.438 651.436 502.954 650.417 503.132 650.378C524.897 645.612 547.984 642.57 571.861 641.136C556.024 653.555 527.676 674.026 527.624 674.062C526.581 674.773 524.501 676.179 523.458 676.89C523.428 676.908 516.201 681.511 510.404 685.222C509.906 685.541 509.905 686.269 510.404 686.585C517.148 690.86 524.828 694.953 534.669 699.538C534.949 699.669 535.287 699.632 535.527 699.437C539.566 696.158 544.516 692.14 544.516 692.14C544.523 692.134 544.534 692.121 544.541 692.115C545.442 691.333 547.251 689.766 548.152 688.984C548.266 688.882 581.683 658.125 600.292 639.975C601.394 639.975 603.175 639.975 604.13 639.975C635.924 639.975 668.146 643.605 699.446 653.584C699.871 653.72 700.32 653.503 700.456 653.079C700.67 652.416 701.101 651.092 701.315 650.428C701.451 650.003 701.21 649.529 700.784 649.393C669.92 639.552 637.811 634.948 606.049 634.774C642.889 598.733 687.123 554.273 737.598 504.083C737.999 503.684 737.887 503.003 737.371 502.77C735.589 501.966 732.848 500.908 730.907 500.093Z"
fill="#434343" fill-rule="nonzero" opacity="0" stroke="none" vectornator:layerName="BlackOS"/>
<path d="M629.434 265.636C496.554 265.636 391.87 327.127 324.065 396.753C300.856 375.364 287.657 349.817 287.66 322.52C287.66 302.497 303.113 297.058 303.113 284.313C303.113 278.852 298.638 273.881 293.632 273.884C282.256 273.884 272.68 287.479 272.68 304.317C272.68 340.722 290.447 373.487 320.936 399.881C267.238 455.855 238.079 516.83 238.076 554.604C238.076 573.262 249.036 586.459 266.328 586.459C313.2 586.459 401.025 524.172 473.384 460.462L486.562 461.789C458.348 501.835 438.3 543.717 438.306 587.407C438.306 610.584 446.256 632.292 459.637 651.59C460.851 651.196 461.813 650.836 463.05 650.453C449.54 631.395 441.529 609.885 441.529 586.933C441.529 544.612 461.495 501.839 490.165 461.789C498.356 462.244 506.541 462.74 515.193 462.737C633.511 462.737 745.002 396.752 745.002 333.043C745.002 325.502 742.635 318.339 738.65 311.617C738.136 310.806 737.72 309.879 737.228 309.152C735.287 306.25 732.985 303.502 730.402 300.809C729.682 300.031 728.811 299.288 728.032 298.534C725.129 295.766 722.068 292.973 718.552 290.475C715.879 288.633 712.46 286.696 709.166 284.787C688.38 273.108 660.531 265.636 629.434 265.636ZM660.815 279.288C677.344 279.288 692.727 282.618 705.563 288.295C705.497 288.31 711.171 291.102 711.915 291.613C730.006 301.474 741.872 316.364 741.874 333.043C741.874 395.387 633.055 459.518 515.193 459.514C507.457 459.514 500.173 459.495 492.44 459.04C532.031 404.887 588.706 360.773 612.369 341.576C633.603 325.561 671.169 302.768 703.762 294.173C701.033 292.82 698.712 292.166 695.988 291.329C665.422 300.354 634.715 318.528 611.042 335.887C611.021 335.903 608.413 337.865 608.387 337.878C583.304 358.296 550.194 382.196 471.962 457.239C424.635 451.323 381.899 436.764 350.042 416.283C432.409 344.837 551.599 279.285 660.815 279.288ZM738.745 284.218C733.412 284.218 727.745 285.167 722.154 285.925C723.933 287.21 725.341 288.36 726.989 289.717C730.928 289.325 734.93 288.766 738.745 288.769C791.533 288.769 832.718 320.805 836.49 357.503C840.243 394.029 755.166 477.277 742.443 489.567C744.24 490.387 746.944 491.218 748.51 492.032C761.307 479.72 844.09 399.211 841.894 358.451C839.732 318.318 793.807 284.213 738.745 284.218ZM346.818 419.032C380.038 439.965 421.958 454.075 468.833 459.988C393.747 526.428 308.176 582.856 268.13 582.856C253.112 582.856 247.183 575.101 247.177 561.904C247.177 527.319 286.75 471.819 346.818 419.032ZM514.719 422.635L515.667 423.583C506.111 434.959 497.007 446.735 488.363 458.566C484.723 458.566 480.611 458.167 476.513 457.713C490.165 445.881 502.888 434.009 514.719 422.635ZM664.512 478.191C590.336 478.191 507.971 514.103 468.833 579.633L471.488 581.055C511.079 516.89 591.249 481.319 664.512 481.319C690.467 481.319 714.458 487.002 735.711 496.109C736.03 496.222 741.654 498.672 741.779 498.764C785.041 519.396 814.212 556.352 814.211 598.784C814.211 668.409 730.952 724.778 628.107 724.781C591.769 724.781 558.035 716.794 529.319 703.449C526.346 702.177 505.576 690.312 504.954 689.702C493.058 681.908 482.633 673.058 473.668 663.346C472.427 663.681 471.16 663.912 469.876 664.294C478.934 674.434 489.492 683.749 501.636 691.883C512.6 699.33 526.582 706.115 526.76 706.199C556.136 720.085 590.777 728.481 628.107 728.478C732.772 728.478 817.339 670.229 817.339 598.784C817.339 555.537 788.342 518.135 745.287 496.867C742.879 495.725 739.328 494.314 736.47 493.075C714.906 483.887 690.692 478.188 664.512 478.191ZM730.592 500.849C671.412 557.957 624.023 601.157 579.472 636.042C551.915 637.398 525.718 640.981 500.404 646.376C500.218 646.416 494.719 647.492 494.62 647.514C484.73 649.683 475.674 652.628 466.274 655.288C466.037 655.385 463.098 656.244 462.671 656.331C339.79 692.136 260.543 766.304 260.545 799.393C260.545 807.584 273.742 814.368 290.124 814.372C344.733 814.372 382.902 801.175 427.498 777.967C455.34 763.53 498.289 728.82 521.261 709.896C517.772 708.233 501.334 698.746 496.327 695.201C473.526 709.898 440.221 731.207 411.571 747.534C352.867 780.754 297.371 808.49 280.075 808.494C271.884 808.494 265.1 804.417 265.096 799.867C265.096 768.063 343.297 694.737 465.136 659.365C465.368 659.299 468.664 658.467 468.833 658.416C478.251 655.761 487.358 652.803 497.275 650.642C497.275 650.642 502.839 649.627 502.963 649.6C525.608 644.641 549.646 641.477 574.542 640.119C559.161 652.333 528.181 674.659 528.087 674.723L523.915 677.567C523.906 677.574 516.635 682.195 510.832 685.91C517.537 690.161 525.187 694.228 535.008 698.804C539.047 695.524 544.016 691.502 544.014 691.504L547.617 688.375C547.709 688.294 581.401 657.275 599.95 639.171L604.121 639.171C635.976 639.171 668.285 642.811 699.685 652.823L700.539 650.168C669.139 640.157 636.431 635.564 604.121 635.568C641.2 599.323 685.99 554.265 737.039 503.504C735.295 502.717 732.551 501.671 730.592 500.849Z" 
fill="#265f2b" fill-rule="nonzero" opacity="1" stroke="none" vectornator:layerName="Colour"/>
</g>
</g>
</svg>
