<svg xmlns="http://www.w3.org/2000/svg" viewBox="0 0 365 365">
  <defs>
    <style>
      .cls-1, .cls-3 {
        fill: none;
      }

      .cls-1, .cls-2, .cls-3 {
        stroke: #265F2B;
        stroke-linecap: round;
        stroke-miterlimit: 10;
      }

      .cls-1 {
        stroke-width: 8px;
      }

      .cls-2 {
        fill: #B7C6BC;
      }

      .cls-2, .cls-3 {
        stroke-width: 4.92px;
      }
    </style>
  </defs>
  <g id="Layer_2" data-name="Layer 2">
    <g id="Layer_1-2" data-name="Layer 1">
      <g>
        <rect class="cls-1" x="4" y="4" width="357" height="357" rx="12"/>
        <rect class="cls-1" x="118" y="118" width="130" height="130" rx="12"/>
        <rect class="cls-2" x="143" y="143" width="80" height="80" rx="12"/>
        <line class="cls-3" x1="137.5" y1="72.5" x2="137.5" y2="103.5"/>
        <line class="cls-3" x1="182.5" y1="72.5" x2="182.5" y2="103.5"/>
        <line class="cls-3" x1="223.5" y1="72.5" x2="223.5" y2="103.5"/>
        <line class="cls-3" x1="139.5" y1="262.5" x2="139.5" y2="293.5"/>
        <line class="cls-3" x1="184.5" y1="262.5" x2="184.5" y2="293.5"/>
        <line class="cls-3" x1="225.5" y1="262.5" x2="225.5" y2="293.5"/>
        <line class="cls-3" x1="292" y1="139" x2="261" y2="139"/>
        <line class="cls-3" x1="292" y1="184" x2="261" y2="184"/>
        <line class="cls-3" x1="292" y1="225" x2="261" y2="225"/>
        <line class="cls-3" x1="102" y1="141" x2="71" y2="141"/>
        <line class="cls-3" x1="102" y1="186" x2="71" y2="186"/>
        <line class="cls-3" x1="102" y1="227" x2="71" y2="227"/>
      </g>
    </g>
  </g>
</svg>
