<?xml version="1.0" encoding="UTF-8" standalone="no"?>
<!-- Created with Inkscape (http://www.inkscape.org/) -->

<svg
   width="6.3072853in"
   height="5.7329173in"
   viewBox="0 0 160.20505 145.6161"
   version="1.1"
   id="svg1"
   xmlns="http://www.w3.org/2000/svg"
   xmlns:svg="http://www.w3.org/2000/svg"
   xmlns:vectornator="http://vectornator.io">
  <defs
     id="defs1" />
  <g
     id="layer1"
     transform="translate(-22.379652,-345.54327)">
    <g
       opacity="1"
       vectornator:layerName="Group 4"
       id="g78"
       style="clip-rule:evenodd;display:inline;fill-rule:nonzero;stroke-linecap:round;stroke-linejoin:round"
       transform="matrix(0.26458333,0,0,0.26458333,-40.394331,275.47634)">
      <path
         d="M 540,1027.13 217.181,909.621 45.4119,612.074 105.067,273.716 368.231,52.8687 H 711.769 L 974.933,273.716 1034.59,612.074 862.819,909.621 Z"
         fill="#ffc2d1"
         fill-rule="nonzero"
         opacity="1"
         stroke="#ffc2d1"
         stroke-linecap="butt"
         stroke-linejoin="round"
         stroke-width="5.17879"
         vectornator:layerName="Polygon 1"
         id="path75"
         style="display:none" />
      <path
         d="m 629.43,257.548 c -131.804,0 -236.238,59.386 -305.341,127.837 -18.436,-18.998 -28.357,-40.472 -28.355,-62.871 0,-7.735 2.646,-12.098 6.236,-17.169 3.367,-4.754 9.217,-11.201 9.216,-21.033 0,-9.386 -7.283,-18.515 -17.548,-18.508 -9.101,0 -16.561,5.414 -21.386,12.373 -4.882,7.04 -7.651,16.211 -7.651,26.133 0,36.569 16.905,69.351 44.97,95.947 -51.031,55.209 -79.583,114.555 -79.587,154.35 0,10.878 3.222,20.848 9.646,28.229 6.465,7.428 15.905,11.715 26.688,11.715 26.577,0 61.153,-16.667 98.321,-40.399 33.556,-21.425 69.341,-49.21 102.69,-77.869 -21.947,35.071 -37.097,72.077 -37.092,111.123 0,23.313 7.534,45.073 19.947,64.411 -57.764,18.17 -105.592,44.415 -139.604,70.673 -18.023,13.915 -32.229,27.804 -42.141,40.702 -9.807,12.761 -15.983,24.915 -15.983,36.208 0,8.804 6.724,14.516 13.08,17.75 6.773,3.446 15.314,5.3 24.592,5.302 56.022,0 95.913,-13.806 141.094,-37.318 29.206,-15.144 72.063,-49.976 95.165,-69.007 0.329,-0.271 0.586,-0.58 0.858,-0.884 29.595,13.318 63.958,21.314 100.872,21.311 53.805,0 102.644,-14.909 138.417,-39.465 35.704,-24.508 58.881,-59.173 58.881,-98.296 0,-44 -27.518,-81.623 -67.769,-104.507 8.582,-8.325 28.973,-28.411 49.413,-53.251 11.196,-13.606 21.987,-28.167 29.996,-42.267 7.944,-13.986 13.598,-27.854 12.903,-40.753 -1.246,-23.122 -14.995,-43.703 -35.046,-58.276 -20.114,-14.617 -46.997,-23.611 -76.178,-23.608 -6.275,0 -12.252,1.058 -17.674,1.793 -1.752,0.237 -3.19,0.996 -4.318,2.02 -1.2,-0.701 -2.374,-1.474 -3.535,-2.146 -0.03,-0.018 -0.044,-0.033 -0.076,-0.051 -22.162,-12.453 -51.328,-20.199 -83.701,-20.199 z m 31.385,29.819 c 6.072,0 11.891,0.613 17.523,1.515 -26.477,10.18 -51.788,25.634 -72.062,40.5 l -1.717,1.389 c -0.451,0.242 -0.865,0.51 -1.262,0.833 C 578.79,351.552 545.438,375.806 469.273,448.66 429.034,443.206 392.541,431.364 363.958,415.154 445.03,347.36 558.297,287.364 660.815,287.367 Z m 77.919,9.494 c 50.052,0 86.515,30.363 89.711,61.457 0.613,5.964 -2.836,16.706 -10.251,29.441 -7.285,12.511 -17.739,26.446 -28.759,39.692 -22.059,26.515 -46.337,50.262 -52.594,56.306 -0.187,0.18 -0.315,0.389 -0.48,0.581 -21.642,-8.777 -45.812,-14.218 -71.86,-14.216 -76.451,0 -161.608,36.73 -202.601,105.366 -2.364,3.958 -0.958,9.084 3.106,11.261 0.663,0.356 2.013,1.084 2.676,1.439 3.765,2.017 8.438,0.757 10.681,-2.878 37.753,-61.187 115.165,-95.923 186.138,-95.922 20.116,0 38.917,3.705 56.205,9.721 -56.204,54.108 -101.815,95.58 -144.35,129.049 -26.999,1.476 -52.774,5.027 -77.642,10.327 -0.038,0.008 -5.393,1.032 -5.858,1.136 -8.279,1.817 -15.774,4.088 -23.154,6.262 -0.022,-0.032 -0.028,-0.069 -0.05,-0.101 -12.731,-17.957 -20.048,-37.833 -20.048,-58.856 0,-38.556 17.907,-78.531 44.691,-116.829 6.73,0.371 13.592,0.734 20.907,0.732 60.635,0 119.322,-16.833 163.287,-42.04 43.528,-24.956 74.587,-59.151 74.587,-95.746 0,-9.27 -2.928,-17.883 -7.474,-25.552 -0.041,-0.069 -0.083,-0.134 -0.126,-0.202 -0.097,-0.152 -0.517,-1.101 -1.54,-2.626 -0.008,-0.012 -0.018,-0.039 -0.026,-0.05 -1.834,-2.738 -3.929,-5.252 -6.135,-7.676 0.277,-0.007 0.693,-0.076 0.959,-0.076 z m -29.087,2.803 c 15.599,9.006 24.137,21.253 24.138,33.379 0,26.428 -23.981,56.259 -65.042,79.586 -40.624,23.08 -96.053,38.811 -153.541,38.809 -2.287,0 -4.463,-0.037 -6.666,-0.051 37.794,-47.195 86.783,-85.599 108.698,-103.371 0.023,-0.017 0.053,-0.033 0.076,-0.05 0.039,-0.032 0.112,-0.095 0.152,-0.126 20.652,-15.537 57.648,-37.751 88.372,-45.853 1.601,-0.422 2.84,-1.279 3.813,-2.323 z M 347.899,429.016 c 29.089,17.274 63.798,29.645 102.21,36.334 -33.313,28.482 -67.935,54.643 -99.054,74.132 -17.636,11.046 -34.123,19.988 -48.403,26.083 -14.317,6.111 -26.326,9.216 -34.516,9.216 -6.206,0 -8.884,-1.547 -10.226,-2.979 -1.397,-1.492 -2.649,-4.38 -2.651,-9.898 0,-14.422 8.828,-35.741 25.83,-59.967 16.071,-22.901 39.144,-48.123 66.81,-72.921 z m 395.355,79.561 c 38.459,20.052 62.872,53.337 62.871,90.216 0,31.372 -18.734,60.618 -50.928,82.414 -32.118,21.745 -77.101,35.499 -127.08,35.501 -30.164,0 -58.413,-5.72 -83.298,-15.453 1.607,-1.298 4.267,-3.459 4.267,-3.459 0.073,-0.059 0.157,-0.141 0.227,-0.202 0.901,-0.782 2.711,-2.349 3.611,-3.131 0.024,-0.02 0.027,-0.029 0.051,-0.05 0.311,-0.277 31.152,-28.705 50.195,-47.166 0.323,0 0.721,0 0.96,0 31.245,0 62.687,3.586 93.094,13.281 4.245,1.353 8.788,-0.986 10.151,-5.227 0.213,-0.663 0.645,-1.987 0.858,-2.651 1.368,-4.255 -0.993,-8.818 -5.252,-10.175 -26.085,-8.317 -52.984,-12.938 -79.813,-14.418 34.554,-34.008 74.111,-73.635 119.556,-118.823 0.206,-0.206 0.351,-0.438 0.53,-0.657 z M 547.293,650.58 c -12.433,9.217 -23.759,17.472 -23.759,17.472 -1.043,0.711 -3.124,2.117 -4.166,2.828 -0.231,0.147 -7.172,4.562 -12.903,8.231 -0.45,0.288 -0.693,0.713 -1.06,1.061 -7.844,-5.466 -14.965,-11.408 -21.361,-17.776 4.954,-1.427 9.896,-2.762 14.947,-3.863 0.544,-0.098 5.072,-0.895 5.707,-1.035 13.681,-2.996 27.952,-5.257 42.595,-6.918 z m -84.257,17.927 c 0.246,0.395 0.483,0.797 0.808,1.161 6.929,7.756 14.72,15.049 23.356,21.74 -22.535,14.502 -52.936,33.893 -79.637,49.11 -29.225,16.538 -57.637,31.696 -80.722,42.646 -11.539,5.474 -21.76,9.891 -29.946,12.877 -8.189,2.988 -14.432,4.368 -16.816,4.369 -2.778,0 -5.211,-0.745 -6.489,-1.49 -0.135,-0.079 -0.156,-0.036 -0.252,-0.076 0.401,-5.039 3.97,-13.72 12.271,-24.416 8.674,-11.177 21.776,-24.035 38.732,-37.066 33.093,-25.432 80.771,-51.441 138.695,-68.855 z"
         fill="#ffc2d1"
         fill-rule="nonzero"
         opacity="1"
         stroke="none"
         vectornator:layerName="WhiteOS"
         id="path76"
         style="display:none;fill:#cccccc" />
      <path
         d="m 629.43,264.82 c -132.771,0 -237.427,61.283 -305.366,130.791 -22.724,-21.165 -35.604,-46.303 -35.602,-73.097 0,-9.784 3.739,-15.943 7.575,-21.361 3.814,-5.385 7.878,-10.122 7.878,-16.841 0,-5.853 -4.745,-11.24 -10.277,-11.236 -6.029,0 -11.485,3.592 -15.402,9.241 -3.923,5.658 -6.363,13.424 -6.363,21.993 0,36.432 17.687,69.206 47.924,95.619 -53.417,55.897 -82.537,116.694 -82.541,154.678 0,9.484 2.799,17.65 7.853,23.456 5.058,5.812 12.349,9.216 21.209,9.216 23.75,0 57.517,-15.682 94.408,-39.237 36.82,-23.51 76.782,-54.961 112.915,-86.757 3.018,0.304 8.11,0.844 11.514,1.187 -27.841,39.766 -47.652,81.403 -47.646,124.934 0,23.366 8.006,45.231 21.462,64.638 0.203,0.293 0.57,0.413 0.909,0.303 1.234,-0.401 2.197,-0.735 3.409,-1.111 0.525,-0.163 0.747,-0.814 0.429,-1.262 -13.432,-18.948 -21.386,-40.289 -21.386,-63.048 0,-41.941 19.741,-84.423 48.226,-124.303 8.047,0.449 16.111,0.937 24.644,0.934 59.306,0 116.884,-16.546 159.677,-41.08 42.749,-24.51 70.925,-57.105 70.925,-89.434 0,-7.714 -2.423,-15.024 -6.464,-21.84 -0.004,-0.007 0.005,-0.019 0,-0.026 -0.472,-0.745 -0.89,-1.662 -1.439,-2.474 -1.971,-2.947 -4.317,-5.72 -6.918,-8.433 -0.765,-0.827 -1.645,-1.593 -2.399,-2.323 -2.912,-2.776 -6.001,-5.597 -9.569,-8.131 -2.718,-1.873 -6.153,-3.825 -9.444,-5.731 C 688.648,272.328 660.655,264.82 629.43,264.82 Z m 31.385,15.275 c 16.421,0 31.687,3.311 44.413,8.939 0.039,0.021 0.344,0.18 0.834,0.429 0.536,0.273 1.269,0.654 2.02,1.035 1.485,0.755 3.128,1.617 3.383,1.793 0.023,0.016 0.051,0.012 0.076,0.025 17.947,9.783 29.515,24.461 29.516,40.727 0,30.698 -26.879,62.149 -68.729,85.924 -41.806,23.751 -98.34,39.744 -157.126,39.743 -7.212,0 -14.054,-0.06 -21.185,-0.43 39.459,-53.465 95.363,-97.018 118.849,-116.071 21.172,-15.967 58.683,-38.718 91.1,-47.267 0.721,-0.19 0.82,-1.158 0.151,-1.49 -2.802,-1.388 -5.193,-2.071 -7.903,-2.903 -0.151,-0.047 -0.302,-0.045 -0.454,0 -30.703,9.066 -61.468,27.295 -85.192,44.691 -0.003,0.002 -2.575,1.919 -2.575,1.919 -0.045,0.024 -0.087,0.069 -0.126,0.101 -25.025,20.37 -58.154,44.313 -136.17,119.127 C 425.071,450.513 382.984,436.226 351.434,416.19 433.686,345.098 552.27,280.092 660.815,280.095 Z m 77.919,3.308 c -5.427,0 -11.116,0.962 -16.69,1.717 -0.722,0.098 -0.944,1.037 -0.353,1.465 1.757,1.269 3.15,2.406 4.797,3.762 0.166,0.136 0.367,0.198 0.581,0.176 3.96,-0.394 7.929,-0.937 11.665,-0.934 52.515,0 93.243,31.859 96.958,67.997 0.906,8.814 -3.587,20.741 -11.211,33.834 -7.611,13.071 -18.288,27.241 -29.466,40.677 -22.357,26.874 -46.773,50.752 -53.125,56.887 -0.409,0.395 -0.29,1.076 0.228,1.313 1.869,0.852 4.556,1.694 6.009,2.449 0.308,0.16 0.685,0.114 0.934,-0.126 6.409,-6.167 30.337,-29.402 52.393,-56.206 11.029,-13.403 21.602,-27.697 29.289,-41.232 7.681,-13.523 12.532,-26.302 11.968,-36.763 -1.097,-20.372 -13.29,-39.151 -32.066,-52.796 -18.783,-13.65 -44.215,-22.223 -71.911,-22.22 z m -391.82,136.625 c 32.834,20.566 74.048,34.475 120.061,40.5 -37.138,32.751 -76.736,62.994 -112.057,85.115 -17.866,11.19 -34.64,20.308 -49.413,26.613 -14.776,6.307 -27.539,9.797 -37.369,9.797 -7.378,0 -12.37,-1.904 -15.528,-5.277 -3.164,-3.379 -4.618,-8.382 -4.621,-14.872 0,-17.006 9.782,-39.394 27.143,-64.134 17.269,-24.606 41.986,-51.506 71.784,-77.742 z m 166.899,4.57 c -9.011,10.805 -17.64,21.929 -25.83,33.127 -2.917,-0.02 -6.204,-0.338 -9.494,-0.682 12.563,-10.944 24.322,-21.896 35.324,-32.445 z m 150.688,52.796 c -74.403,0 -157.041,35.991 -196.364,101.831 -0.237,0.396 -0.104,0.893 0.303,1.111 0.663,0.355 2.012,1.084 2.676,1.439 0.377,0.202 0.836,0.061 1.061,-0.303 39.407,-63.867 119.29,-99.356 192.324,-99.356 25.836,0 49.737,5.677 70.9,14.745 0.016,0.007 0.035,-0.005 0.051,0 0.075,0.027 1.61,0.682 3.055,1.313 0.73,0.319 1.447,0.641 1.995,0.884 0.273,0.122 0.494,0.229 0.656,0.303 0.178,0.081 0.224,0.111 0.253,0.126 0.006,0.004 0.018,-0.003 0.025,0 43.068,20.54 71.963,57.272 71.961,99.306 0,34.469 -20.612,65.728 -54.135,88.424 -33.515,22.69 -79.867,36.761 -131.145,36.763 -36.22,0 -69.839,-7.965 -98.448,-21.26 -0.007,-0.004 -0.017,-0.022 -0.025,-0.026 -1.38,-0.59 -7.354,-3.878 -12.978,-7.069 -2.818,-1.6 -5.574,-3.178 -7.651,-4.394 -1.038,-0.607 -1.898,-1.134 -2.525,-1.515 -0.603,-0.367 -0.959,-0.581 -0.959,-0.581 -0.038,-0.036 -0.082,-0.072 -0.126,-0.101 -11.843,-7.759 -22.214,-16.571 -31.133,-26.234 -0.204,-0.221 -0.517,-0.305 -0.808,-0.227 -1.197,0.323 -2.474,0.561 -3.812,0.96 -0.568,0.169 -0.774,0.846 -0.379,1.287 9.102,10.189 19.714,19.552 31.915,27.724 11.036,7.496 25.016,14.294 25.224,14.392 29.484,13.938 64.254,22.349 101.705,22.346 52.48,0 99.922,-14.603 134.301,-38.202 34.373,-23.595 55.726,-56.224 55.726,-92.287 0,-43.635 -29.244,-81.276 -72.491,-102.639 -0.004,-10e-4 -0.022,-0.023 -0.026,-0.025 -2.447,-1.161 -5.994,-2.555 -8.837,-3.787 -21.654,-9.227 -45.991,-14.951 -72.289,-14.948 z m 66.406,22.699 c -0.298,-0.125 -0.652,-0.047 -0.884,0.177 -59.085,57.016 -106.382,100.153 -150.84,134.983 -27.507,1.367 -53.678,4.941 -78.954,10.327 -0.172,0.037 -5.648,1.106 -5.782,1.137 -9.941,2.179 -19.026,5.147 -28.406,7.802 -0.03,0.008 -0.047,0.013 -0.076,0.025 -0.088,0.036 -3.157,0.923 -3.459,0.985 -0.022,0.004 -0.029,0.019 -0.05,0.025 -61.54,17.931 -112.175,45.473 -147.432,72.693 -17.629,13.61 -31.423,27.125 -40.828,39.364 -9.395,12.225 -14.468,23.215 -14.468,31.789 0,4.566 3.642,8.489 9.09,11.261 5.49,2.793 13.01,4.517 21.31,4.519 54.75,0 93.081,-13.246 137.736,-36.485 27.978,-14.507 70.917,-49.239 93.902,-68.173 0.457,-0.376 0.382,-1.109 -0.151,-1.364 -3.395,-1.618 -19.9,-11.136 -24.82,-14.619 -0.27,-0.191 -0.632,-0.204 -0.909,-0.025 -22.798,14.694 -56.089,36.005 -84.712,52.316 -29.34,16.604 -57.881,31.825 -81.227,42.899 -11.672,5.537 -22.036,10.048 -30.552,13.155 -8.516,3.107 -15.186,4.797 -19.316,4.797 -3.964,0 -7.574,-0.996 -10.15,-2.499 -2.591,-1.513 -4.001,-3.459 -4.015,-5.303 0,0 0,-0.025 0,-0.025 0.01,-7.638 4.755,-18.063 13.938,-29.895 9.179,-11.827 22.724,-25.023 40.071,-38.354 34.695,-26.663 84.616,-53.799 145.436,-71.456 0.205,-0.058 3.427,-0.884 3.687,-0.959 9.431,-2.659 18.522,-5.603 28.38,-7.752 0.012,-0.002 5.528,-1.021 5.706,-1.06 21.765,-4.766 44.852,-7.808 68.729,-9.242 -15.837,12.419 -44.185,32.89 -44.237,32.926 -1.043,0.711 -3.123,2.117 -4.166,2.828 -0.03,0.018 -7.257,4.621 -13.054,8.332 -0.498,0.319 -0.499,1.047 0,1.363 6.744,4.275 14.424,8.368 24.265,12.953 0.28,0.131 0.618,0.094 0.858,-0.101 4.039,-3.279 8.989,-7.297 8.989,-7.297 0.007,-0.006 0.018,-0.019 0.025,-0.025 0.901,-0.782 2.71,-2.349 3.611,-3.131 0.114,-0.102 33.531,-30.859 52.14,-49.009 1.102,0 2.883,0 3.838,0 31.794,0 64.016,3.63 95.316,13.609 0.425,0.136 0.874,-0.081 1.01,-0.505 0.214,-0.663 0.645,-1.987 0.859,-2.651 0.136,-0.425 -0.105,-0.899 -0.531,-1.035 -30.864,-9.841 -62.973,-14.445 -94.735,-14.619 36.84,-36.041 81.074,-80.501 131.549,-130.691 0.401,-0.399 0.289,-1.08 -0.227,-1.313 -1.782,-0.804 -4.523,-1.862 -6.464,-2.677 z"
         fill="#434343"
         fill-rule="nonzero"
         opacity="0"
         stroke="none"
         vectornator:layerName="BlackOS"
         id="path77"
         style="display:inline;opacity:1;fill:#000000" />
      <path
         d="m 629.434,265.636 c -132.88,0 -237.564,61.491 -305.369,131.117 -23.209,-21.389 -36.408,-46.936 -36.405,-74.233 0,-20.023 15.453,-25.462 15.453,-38.207 0,-5.461 -4.475,-10.432 -9.481,-10.429 -11.376,0 -20.952,13.595 -20.952,30.433 0,36.405 17.767,69.17 48.256,95.564 -53.698,55.974 -82.857,116.949 -82.86,154.723 0,18.658 10.96,31.855 28.252,31.855 46.872,0 134.697,-62.287 207.056,-125.997 l 13.178,1.327 c -28.214,40.046 -48.262,81.928 -48.256,125.618 0,23.177 7.95,44.885 21.331,64.183 1.214,-0.394 2.176,-0.754 3.413,-1.137 -13.51,-19.058 -21.521,-40.568 -21.521,-63.52 0,-42.321 19.966,-85.094 48.636,-125.144 8.191,0.455 16.376,0.951 25.028,0.948 118.318,0 229.809,-65.985 229.809,-129.694 0,-7.541 -2.367,-14.704 -6.352,-21.426 -0.514,-0.811 -0.93,-1.738 -1.422,-2.465 -1.941,-2.902 -4.243,-5.65 -6.826,-8.343 -0.72,-0.778 -1.591,-1.521 -2.37,-2.275 -2.903,-2.768 -5.964,-5.561 -9.48,-8.059 -2.673,-1.842 -6.092,-3.779 -9.386,-5.688 -20.786,-11.679 -48.635,-19.151 -79.732,-19.151 z m 31.381,13.652 c 16.529,0 31.912,3.33 44.748,9.007 -0.066,0.015 5.608,2.807 6.352,3.318 18.091,9.861 29.957,24.751 29.959,41.43 0,62.344 -108.819,126.475 -226.681,126.471 -7.736,0 -15.02,-0.019 -22.753,-0.474 39.591,-54.153 96.266,-98.267 119.929,-117.464 21.234,-16.015 58.8,-38.808 91.393,-47.403 -2.729,-1.353 -5.05,-2.007 -7.774,-2.844 -30.566,9.025 -61.273,27.199 -84.946,44.558 -0.021,0.016 -2.629,1.978 -2.655,1.991 -25.083,20.418 -58.193,44.318 -136.425,119.361 -47.327,-5.916 -90.063,-20.475 -121.92,-40.956 82.367,-71.446 201.557,-136.998 310.773,-136.995 z m 77.93,4.93 c -5.333,0 -11,0.949 -16.591,1.707 1.779,1.285 3.187,2.435 4.835,3.792 3.939,-0.392 7.941,-0.951 11.756,-0.948 52.788,0 93.973,32.036 97.745,68.734 3.753,36.526 -81.324,119.774 -94.047,132.064 1.797,0.82 4.501,1.651 6.067,2.465 12.797,-12.312 95.58,-92.821 93.384,-133.581 -2.162,-40.133 -48.087,-74.238 -103.149,-74.233 z M 346.818,419.032 c 33.22,20.933 75.14,35.043 122.015,40.956 -75.086,66.44 -160.657,122.868 -200.703,122.868 -15.018,0 -20.947,-7.755 -20.953,-20.952 0,-34.585 39.573,-90.085 99.641,-142.872 z m 167.901,3.603 0.948,0.948 c -9.556,11.376 -18.66,23.152 -27.304,34.983 -3.64,0 -7.752,-0.399 -11.85,-0.853 13.652,-11.832 26.375,-23.704 38.206,-35.078 z m 149.793,55.556 c -74.176,0 -156.541,35.912 -195.679,101.442 l 2.655,1.422 c 39.591,-64.165 119.761,-99.736 193.024,-99.736 25.955,0 49.946,5.683 71.199,14.79 0.319,0.113 5.943,2.563 6.068,2.655 43.262,20.632 72.433,57.588 72.432,100.02 0,69.625 -83.259,125.994 -186.104,125.997 -36.338,0 -70.072,-7.987 -98.788,-21.332 -2.973,-1.272 -23.743,-13.137 -24.365,-13.747 -11.896,-7.794 -22.321,-16.644 -31.286,-26.356 -1.241,0.335 -2.508,0.566 -3.792,0.948 9.058,10.14 19.616,19.455 31.76,27.589 10.964,7.447 24.946,14.232 25.124,14.316 29.376,13.886 64.017,22.282 101.347,22.279 104.665,0 189.232,-58.249 189.232,-129.694 0,-43.247 -28.997,-80.649 -72.052,-101.917 -2.408,-1.142 -5.959,-2.553 -8.817,-3.792 -21.564,-9.188 -45.778,-14.887 -71.958,-14.884 z m 66.08,22.658 c -59.18,57.108 -106.569,100.308 -151.12,135.193 -27.557,1.356 -53.754,4.939 -79.068,10.334 -0.186,0.04 -5.685,1.116 -5.784,1.138 -9.89,2.169 -18.946,5.114 -28.346,7.774 -0.237,0.097 -3.176,0.956 -3.603,1.043 -122.881,35.805 -202.128,109.973 -202.126,143.062 0,8.191 13.197,14.975 29.579,14.979 54.609,0 92.778,-13.197 137.374,-36.405 27.842,-14.437 70.791,-49.147 93.763,-68.071 -3.489,-1.663 -19.927,-11.15 -24.934,-14.695 -22.801,14.697 -56.106,36.006 -84.756,52.333 -58.704,33.22 -114.2,60.956 -131.496,60.96 -8.191,0 -14.975,-4.077 -14.979,-8.627 0,-31.804 78.201,-105.13 200.04,-140.502 0.232,-0.066 3.528,-0.898 3.697,-0.949 9.418,-2.655 18.525,-5.613 28.442,-7.774 0,0 5.564,-1.015 5.688,-1.042 22.645,-4.959 46.683,-8.123 71.579,-9.481 -15.381,12.214 -46.361,34.54 -46.455,34.604 l -4.172,2.844 c -0.009,0.007 -7.28,4.628 -13.083,8.343 6.705,4.251 14.355,8.318 24.176,12.894 4.039,-3.28 9.008,-7.302 9.006,-7.3 l 3.603,-3.129 c 0.092,-0.081 33.784,-31.1 52.333,-49.204 h 4.171 c 31.855,0 64.164,3.64 95.564,13.652 l 0.854,-2.655 c -31.4,-10.011 -64.108,-14.604 -96.418,-14.6 37.079,-36.245 81.869,-81.303 132.918,-132.064 -1.744,-0.787 -4.488,-1.833 -6.447,-2.655 z"
         fill="#9e2141"
         fill-rule="nonzero"
         opacity="1"
         stroke="none"
         vectornator:layerName="Colour"
         id="path78"
         style="display:inline;fill:#000000" />
    </g>
  </g>
</svg>
