<?xml version="1.0" encoding="UTF-8" standalone="no"?>
<!DOCTYPE svg PUBLIC "-//W3C//DTD SVG 1.1//EN" "http://www.w3.org/Graphics/SVG/1.1/DTD/svg11.dtd">
<!-- Created with Vectornator (http://vectornator.io/) -->
<svg height="100%" stroke-miterlimit="10" style="fill-rule:nonzero;clip-rule:evenodd;stroke-linecap:round;stroke-linejoin:round;" version="1.1" viewBox="0 0 450 450" width="100%" xml:space="preserve" xmlns="http://www.w3.org/2000/svg" xmlns:vectornator="http://vectornator.io" xmlns:xlink="http://www.w3.org/1999/xlink">
<defs/>
<g id="Layer-1" vectornator:layerName="Layer 1">
<g opacity="1" vectornator:layerName="Group 1">
<path d="M336.881 450L113.112 450C50.8992 450 0 399.101 0 336.881L0 113.119C0 50.8992 50.8992 0 113.112 0L336.881 0C399.094 0 450 50.8992 450 113.119L450 336.881C450 399.101 399.094 450 336.881 450" fill="#b7c6bc" fill-rule="nonzero" opacity="1" stroke="none" vectornator:layerName="path"/>
<path d="M154.723 128.025C154.723 143.719 141.996 156.438 126.302 156.438C110.609 156.438 97.8891 143.719 97.8891 128.025C97.8891 112.331 110.609 99.6047 126.302 99.6047C141.996 99.6047 154.723 112.331 154.723 128.025M97.8891 350.395L153.077 350.395L153.077 184.359L97.8891 184.359L97.8891 350.395ZM352.111 255.178L352.111 350.395L296.916 350.395L296.916 261.563C296.916 239.252 288.942 224.023 268.952 224.023C253.702 224.023 244.638 234.281 240.637 244.209C239.182 247.753 238.809 252.682 238.809 257.66L238.809 350.395L183.6 350.395C183.6 350.395 184.338 199.941 183.6 184.359L238.809 184.359L238.809 207.886C238.697 208.076 238.542 208.252 238.444 208.434L238.809 208.434L238.809 207.886C246.143 196.601 259.228 180.457 288.562 180.457C324.886 180.457 352.111 204.188 352.111 255.178" fill="#265f2b" fill-rule="nonzero" opacity="1" stroke="none" vectornator:layerName="path 1"/>
</g>
</g>
</svg>
