<?xml version="1.0" encoding="UTF-8" standalone="no"?>
<!-- Created with Inkscape (http://www.inkscape.org/) -->

<svg
   width="8.5321093in"
   height="8.9942207in"
   viewBox="0 0 216.71558 228.45321"
   version="1.1"
   id="svg1"
   xmlns:xlink="http://www.w3.org/1999/xlink"
   xmlns="http://www.w3.org/2000/svg"
   xmlns:svg="http://www.w3.org/2000/svg">
   <g class="purpleflower">
  <defs
     id="defs1">
    <linearGradient
       id="linearGradient85">
      <stop
         style="stop-color:#f0a202;stop-opacity:1;"
         offset="0"
         id="stop85" />
      <stop
         style="stop-color:#f0a202;stop-opacity:0;"
         offset="1"
         id="stop86" />
    </linearGradient>
    <linearGradient
       id="linearGradient69">
      <stop
         style="stop-color:#f1a202;stop-opacity:1;"
         offset="0"
         id="stop69" />
      <stop
         style="stop-color:#f1a202;stop-opacity:0;"
         offset="1"
         id="stop70" />
    </linearGradient>
    <linearGradient
       id="linearGradient67">
      <stop
         style="stop-color:#f0a202;stop-opacity:1;"
         offset="0"
         id="stop67" />
      <stop
         style="stop-color:#f0a202;stop-opacity:0;"
         offset="1"
         id="stop68" />
    </linearGradient>
    <linearGradient
       id="linearGradient65">
      <stop
         style="stop-color:#f0a202;stop-opacity:1;"
         offset="0"
         id="stop65" />
      <stop
         style="stop-color:#f0a202;stop-opacity:0;"
         offset="1"
         id="stop66" />
    </linearGradient>
    <linearGradient
       id="linearGradient63">
      <stop
         style="stop-color:#f0a202;stop-opacity:1;"
         offset="0"
         id="stop63" />
      <stop
         style="stop-color:#f0a202;stop-opacity:0;"
         offset="1"
         id="stop64" />
    </linearGradient>
    <linearGradient
       xlink:href="#linearGradient63"
       id="linearGradient64"
       x1="517.18872"
       y1="440.7399"
       x2="521.55475"
       y2="359.9176"
       gradientUnits="userSpaceOnUse" />
    <linearGradient
       xlink:href="#linearGradient65"
       id="linearGradient66"
       x1="523.71613"
       y1="437.41898"
       x2="588.62274"
       y2="421.70352"
       gradientUnits="userSpaceOnUse" />
    <linearGradient
       xlink:href="#linearGradient67"
       id="linearGradient68"
       x1="530.93744"
       y1="452.27277"
       x2="574.94464"
       y2="504.66028"
       gradientUnits="userSpaceOnUse" />
    <linearGradient
       xlink:href="#linearGradient69"
       id="linearGradient70"
       x1="516.21844"
       y1="441.69818"
       x2="485.7912"
       y2="501.75858"
       gradientUnits="userSpaceOnUse" />
    <linearGradient
       xlink:href="#linearGradient85"
       id="linearGradient86"
       x1="510.08133"
       y1="435.181"
       x2="450.43396"
       y2="420.55695"
       gradientUnits="userSpaceOnUse" />
  </defs>
  <g
     id="layer1"
     transform="translate(-574.36102,-509.55634)">
    <g
       id="g104"
       transform="translate(158.65119,191.57879)">
      <g
         id="g108">
        <path
           style="fill:#9792e3;fill-opacity:1;fill-rule:evenodd;stroke:#000000;stroke-width:1.85208;stroke-linejoin:round;stroke-dasharray:none;stroke-opacity:1;paint-order:markers fill stroke"
           d="m 519.89172,442.23523 c 0,0 56.54386,-2.64491 77.31877,26.11207 20.77491,28.757 -18.66211,41.31606 -18.66211,41.31606 0,0 -37.56301,41.3253 -53.33097,3.87299 -8.95016,-21.25858 -5.32569,-71.30112 -5.32569,-71.30112 z"
           id="path74" />
        <path
           style="fill:url(#linearGradient68);fill-opacity:1;fill-rule:evenodd;stroke:none;stroke-width:0.978508;stroke-linejoin:round;stroke-dasharray:none;stroke-opacity:1;paint-order:markers fill stroke"
           d="m 524.58747,440.06186 c 0,0 40.19248,16.85886 57.51845,27.28949 16.05772,9.66711 -21.03715,-3.92913 -36.05347,3.57219 -15.01631,7.50132 -2.48909,47.75348 -10.18459,27.71079 -10.81405,-28.16483 -11.28039,-58.57247 -11.28039,-58.57247 z"
           id="path66" />
      </g>
      <g
         id="g107">
        <path
           style="fill:#9792e3;fill-opacity:1;fill-rule:evenodd;stroke:#000000;stroke-width:1.85208;stroke-linejoin:round;stroke-dasharray:none;stroke-opacity:1;paint-order:markers fill stroke"
           d="m 524.09032,436.22514 c 0,0 26.68518,-57.54062 66.31837,-64.68697 63.90593,-11.52302 34.19131,63.30067 34.19131,63.30067 0,0 14.99111,39.32696 -12.05692,39.7692 -26.86912,0.43932 -88.45276,-38.3829 -88.45276,-38.3829 z"
           id="path71" />
        <path
           style="fill:url(#linearGradient66);fill-opacity:1;fill-rule:evenodd;stroke:none;stroke-width:1.07784;stroke-linejoin:round;stroke-dasharray:none;stroke-opacity:1;paint-order:markers fill stroke"
           d="m 525.96121,435.61983 c 0,0 14.03298,-27.87364 32.60775,-45.5029 27.41036,-26.0151 13.53693,38.70929 13.53693,38.70929 0,0 15.20523,33.45668 -0.28144,30.6276 -16.01091,-2.92485 -45.86324,-23.83399 -45.86324,-23.83399 z"
           id="path64" />
      </g>
      <g
         id="g110">
        <path
           style="fill:#9792e3;fill-opacity:1;fill-rule:evenodd;stroke:#000000;stroke-width:1.85208;stroke-linejoin:round;stroke-dasharray:none;stroke-opacity:1;paint-order:markers fill stroke"
           d="m 525.37659,441.74851 c 0,0 -52.06408,37.66256 -89.67384,23.26232 -37.60975,-14.40022 -7.99155,-41.74752 -7.99155,-41.74752 0,0 11.27695,-84.5219 39.90891,-58.72444 19.96437,17.98794 57.75648,77.20964 57.75648,77.20964 z"
           id="path73" />
        <path
           style="fill:url(#linearGradient86);fill-rule:evenodd;stroke:none;stroke-width:1.09054;stroke-linejoin:round;stroke-dasharray:none;stroke-opacity:1;paint-order:markers fill stroke"
           d="m 517.17451,436.56251 c 0,0 -44.41455,29.84928 -64.44315,31.15975 -23.66243,1.54824 36.57626,-21.11603 25.71051,-39.23554 -10.86576,-18.11952 -13.98643,-86.97237 6.84131,-38.97406 6.29863,14.51544 31.89133,47.04985 31.89133,47.04985 z"
           id="path85" />
      </g>
      <g
         id="g109">
        <path
           style="fill:#9792e3;fill-opacity:1;fill-rule:evenodd;stroke:#000000;stroke-width:1.85208;stroke-linejoin:round;stroke-dasharray:none;stroke-opacity:1;paint-order:markers fill stroke"
           d="m 523.07016,432.91294 c 0,0 -0.89761,45.07076 23.87348,89.51305 19.6069,35.17711 -67.85322,19.67748 -67.85322,19.67748 0,0 -29.54082,-23.53455 -32.83412,-50.90871 -3.99237,-33.18484 76.81386,-58.28182 76.81386,-58.28182 z"
           id="path72" />
        <path
           style="fill:url(#linearGradient70);fill-opacity:1;fill-rule:evenodd;stroke:none;stroke-width:1.17748;stroke-linejoin:round;stroke-dasharray:none;stroke-opacity:1;paint-order:markers fill stroke"
           d="m 518.32262,436.88169 c 0,0 6.66045,30.06954 15.17779,56.90878 3.8565,12.15234 -31.40237,7.67575 -43.93209,1.39765 -12.52972,-6.2781 -31.46388,-22.48164 -22.99127,-32.89487 10.52187,-12.93186 51.74557,-25.41156 51.74557,-25.41156 z"
           id="path68" />
      </g>
      <g
         id="g106">
        <path
           style="fill:#9792e3;fill-opacity:1;fill-rule:evenodd;stroke:#000000;stroke-width:1.85208;stroke-linejoin:round;stroke-dasharray:none;stroke-opacity:1;paint-order:markers fill stroke"
           d="m 532.94382,439.97636 c 0,0 -66.03947,-39.01436 -57.67916,-72.49583 9.75642,-39.07266 54.05288,-48.57696 54.05288,-48.57696 0,0 89.69883,27.14241 58.13045,46.98946 -57.8733,36.38495 -54.50417,74.08333 -54.50417,74.08333 z"
           id="path70" />
        <path
           style="fill:url(#linearGradient64);fill-opacity:1;fill-rule:evenodd;stroke:none;stroke-width:1.07391;stroke-linejoin:round;stroke-dasharray:none;stroke-opacity:1;paint-order:markers fill stroke"
           d="m 530.23174,439.45266 c 0,0 -41.47293,-29.54444 -50.65693,-51.39054 -9.04972,-21.52669 48.18008,-25.92187 48.18008,-25.92187 0,0 37.45507,13.72793 23.79076,32.29783 -24.82303,33.73467 -21.31391,45.01458 -21.31391,45.01458 z"
           id="path63" />
      </g>
      <path
         style="fill:#f0a202;fill-opacity:1;fill-rule:evenodd;stroke:none;stroke-width:1.11125;stroke-linejoin:round;paint-order:markers fill stroke"
         id="path69"
         d="m 545.25076,439.22409 a 26.192413,26.192413 0 0 1 -26.19107,26.19241 26.192413,26.192413 0 0 1 -26.19375,-26.18974 26.192413,26.192413 0 0 1 26.1884,-26.19508 26.192413,26.192413 0 0 1 26.19642,26.18706" />
    </g>
  </g>
  </g>
</svg>
