<?xml version="1.0" encoding="UTF-8" standalone="no"?>
<!-- Created with Vectornator (http://vectornator.io/) -->

<svg
   height="100%"
   stroke-miterlimit="10"
   style="fill-rule:nonzero;clip-rule:evenodd;stroke-linecap:round;stroke-linejoin:round;"
   version="1.1"
   viewBox="0 0 1080 1080"
   width="100%"
   xml:space="preserve"
   id="svg16"
   sodipodi:docname="redlogo.svg"
   inkscape:export-filename="../../../../inkscape/redlogo.png"
   inkscape:export-xdpi="96"
   inkscape:export-ydpi="96"
   inkscape:version="1.3.2 (091e20e, 2023-11-25)"
   xmlns:inkscape="http://www.inkscape.org/namespaces/inkscape"
   xmlns:sodipodi="http://sodipodi.sourceforge.net/DTD/sodipodi-0.dtd"
   xmlns="http://www.w3.org/2000/svg"
   xmlns:svg="http://www.w3.org/2000/svg"
   xmlns:vectornator="http://vectornator.io"><sodipodi:namedview
   id="namedview16"
   pagecolor="#ffffff"
   bordercolor="#cccccc"
   borderopacity="1"
   inkscape:showpageshadow="0"
   inkscape:pageopacity="1"
   inkscape:pagecheckerboard="0"
   inkscape:deskcolor="#d1d1d1"
   inkscape:zoom="0.21851852"
   inkscape:cx="540"
   inkscape:cy="540"
   inkscape:window-width="1312"
   inkscape:window-height="449"
   inkscape:window-x="0"
   inkscape:window-y="25"
   inkscape:window-maximized="0"
   inkscape:current-layer="svg16" />
<defs
   id="defs1" />
<clipPath
   id="ArtboardFrame">
<rect
   height="1080"
   width="1080"
   x="0"
   y="0"
   id="rect1" />
</clipPath>
<g
   clip-path="url(#ArtboardFrame)"
   id="Layer-1"
   vectornator:layerName="Layer 1">
<g
   opacity="0"
   vectornator:layerName="Group 1"
   id="g4"
   style="display:inline">
<path
   d="M 318.746,627.881 110.699,552.149 0,360.39 38.4455,142.329 208.047,0 H 429.445 L 599.046,142.329 637.492,360.39 526.793,552.149 Z"
   fill="#f8f6f3"
   fill-rule="nonzero"
   opacity="1"
   stroke="#c1a06a"
   stroke-linecap="butt"
   stroke-linejoin="round"
   stroke-width="3.33756"
   vectornator:layerName="Polygon 1"
   id="path1" />
<path
   d="m 376.381,131.909 c -84.944,0 -152.248,38.273 -196.783,82.387 -11.881,-12.243 -18.275,-26.083 -18.274,-40.518 0,-4.986 1.705,-7.797 4.02,-11.065 2.169,-3.064 5.939,-7.219 5.939,-13.555 0,-6.05 -4.694,-11.933 -11.309,-11.928 -5.866,0 -10.674,3.489 -13.783,7.974 -3.146,4.537 -4.931,10.447 -4.931,16.842 0,23.567 10.895,44.695 28.982,61.835 -32.888,35.58 -51.289,73.827 -51.291,99.473 0,7.011 2.076,13.436 6.216,18.192 4.167,4.788 10.251,7.551 17.2,7.551 17.128,0 39.411,-10.741 63.365,-26.036 21.625,-13.808 44.687,-31.714 66.18,-50.184 -14.145,22.602 -23.908,46.451 -23.905,71.615 0,15.024 4.856,29.048 12.856,41.511 -37.228,11.71 -68.051,28.624 -89.97,45.546 -11.616,8.968 -20.771,17.919 -27.159,26.231 -6.32,8.225 -10.301,16.057 -10.301,23.335 0,5.674 4.334,9.355 8.43,11.439 4.365,2.221 9.869,3.416 15.849,3.418 36.104,0 61.813,-8.898 90.93,-24.051 18.822,-9.76 46.442,-32.208 61.331,-44.472 0.212,-0.175 0.378,-0.375 0.553,-0.57 19.073,8.583 41.219,13.736 65.008,13.734 34.676,0 66.151,-9.608 89.206,-25.434 23.01,-15.795 37.947,-38.135 37.947,-63.348 0,-28.357 -17.735,-52.604 -43.675,-67.352 5.53,-5.365 18.672,-18.31 31.845,-34.318 7.215,-8.769 14.17,-18.153 19.332,-27.24 5.119,-9.014 8.762,-17.951 8.315,-26.264 -0.803,-14.902 -9.664,-28.165 -22.586,-37.557 -12.963,-9.42 -30.288,-15.216 -49.094,-15.214 -4.045,0 -7.897,0.681 -11.391,1.155 -1.129,0.153 -2.056,0.642 -2.782,1.302 -0.774,-0.452 -1.531,-0.95 -2.279,-1.384 -0.019,-0.011 -0.028,-0.021 -0.048,-0.032 -14.283,-8.026 -33.08,-13.018 -53.943,-13.018 z m 20.226,19.218 c 3.914,0 7.664,0.395 11.293,0.976 -17.063,6.56 -33.375,16.52 -46.441,26.101 l -1.107,0.895 c -0.291,0.156 -0.557,0.329 -0.813,0.537 -15.794,12.856 -37.288,28.486 -86.374,75.439 -25.933,-3.515 -49.452,-11.147 -67.873,-21.594 52.249,-43.691 125.246,-82.356 191.315,-82.354 z m 50.217,6.118 c 32.256,0 55.756,19.568 57.816,39.607 0.395,3.843 -1.828,10.766 -6.607,18.974 -4.695,8.063 -11.432,17.043 -18.534,25.58 -14.216,17.088 -29.863,32.393 -33.896,36.288 -0.12,0.116 -0.202,0.25 -0.309,0.374 -13.947,-5.656 -29.524,-9.163 -46.311,-9.162 -49.27,0 -104.151,23.672 -130.57,67.905 -1.523,2.551 -0.617,5.855 2.002,7.258 0.427,0.229 1.297,0.698 1.724,0.927 2.427,1.3 5.438,0.488 6.884,-1.855 24.331,-39.433 74.22,-61.819 119.96,-61.819 12.964,0 25.081,2.389 36.222,6.265 -36.221,34.871 -65.616,61.598 -93.029,83.168 -17.4,0.951 -34.011,3.24 -50.038,6.656 -0.024,0.005 -3.475,0.665 -3.775,0.732 -5.335,1.171 -10.166,2.635 -14.922,4.036 -0.014,-0.021 -0.018,-0.045 -0.032,-0.065 -8.205,-11.573 -12.921,-24.382 -12.921,-37.931 0,-24.849 11.541,-50.611 28.803,-75.293 4.337,0.239 8.759,0.473 13.473,0.472 39.078,0 76.9,-10.849 105.234,-27.094 28.052,-16.083 48.068,-38.12 48.069,-61.704 0,-5.975 -1.888,-11.526 -4.817,-16.468 -0.027,-0.045 -0.054,-0.086 -0.081,-0.13 -0.063,-0.098 -0.334,-0.71 -0.993,-1.693 -0.005,-0.007 -0.011,-0.025 -0.016,-0.032 -1.183,-1.764 -2.533,-3.385 -3.955,-4.947 0.179,-0.004 0.447,-0.049 0.619,-0.049 z m -18.746,1.806 c 10.053,5.804 15.556,13.697 15.556,21.513 0,17.031 -15.455,36.256 -41.917,51.29 -26.181,14.874 -61.903,25.012 -98.953,25.011 -1.474,0 -2.876,-0.024 -4.296,-0.033 24.358,-30.415 55.929,-55.166 70.053,-66.619 0.014,-0.011 0.034,-0.022 0.049,-0.032 0.025,-0.021 0.072,-0.061 0.097,-0.082 13.31,-10.013 37.153,-24.329 56.954,-29.551 1.031,-0.272 1.83,-0.824 2.457,-1.497 z m -233.135,83.364 c 18.747,11.132 41.116,19.105 65.871,23.416 -21.469,18.355 -43.782,35.215 -63.837,47.776 -11.366,7.118 -21.991,12.881 -31.194,16.809 -9.227,3.938 -16.967,5.94 -22.244,5.94 -4,0 -5.726,-0.997 -6.591,-1.921 -0.9,-0.961 -1.707,-2.822 -1.708,-6.378 0,-9.295 5.689,-23.034 16.646,-38.647 10.358,-14.759 25.227,-31.013 43.057,-46.995 z m 254.794,51.274 c 24.785,12.923 40.519,34.374 40.518,58.142 0,20.217 -12.074,39.066 -32.822,53.113 -20.699,14.014 -49.689,22.878 -81.899,22.879 -19.439,0 -37.645,-3.687 -53.682,-9.959 1.035,-0.837 2.75,-2.229 2.75,-2.229 0.046,-0.038 0.101,-0.091 0.146,-0.13 0.581,-0.504 1.747,-1.514 2.327,-2.018 0.015,-0.013 0.018,-0.019 0.033,-0.033 0.2,-0.178 20.076,-18.499 32.349,-30.397 0.208,0 0.465,0 0.619,0 20.136,0 40.399,2.312 59.996,8.56 2.735,0.872 5.663,-0.636 6.541,-3.369 0.138,-0.427 0.416,-1.281 0.554,-1.708 0.881,-2.743 -0.641,-5.683 -3.385,-6.558 -16.811,-5.36 -34.146,-8.338 -51.437,-9.292 22.269,-21.917 47.762,-47.455 77.05,-76.578 0.133,-0.132 0.226,-0.281 0.342,-0.423 z m -126.291,91.516 c -8.013,5.941 -15.312,11.261 -15.312,11.261 -0.672,0.458 -2.013,1.364 -2.685,1.822 -0.148,0.095 -4.622,2.941 -8.315,5.305 -0.29,0.186 -0.447,0.459 -0.684,0.684 -5.055,-3.523 -9.644,-7.352 -13.766,-11.456 3.193,-0.92 6.378,-1.781 9.633,-2.49 0.351,-0.063 3.268,-0.577 3.678,-0.667 8.817,-1.931 18.014,-3.388 27.451,-4.459 z m -54.301,11.554 c 0.159,0.254 0.311,0.513 0.521,0.748 4.465,4.999 9.486,9.698 15.052,14.011 -14.523,9.346 -34.115,21.843 -51.323,31.65 -18.835,10.658 -37.145,20.427 -52.023,27.484 -7.437,3.527 -14.024,6.374 -19.299,8.299 -5.278,1.925 -9.301,2.814 -10.838,2.815 -1.79,0 -3.358,-0.48 -4.182,-0.96 -0.087,-0.051 -0.1,-0.023 -0.162,-0.049 0.258,-3.247 2.558,-8.842 7.908,-15.735 5.591,-7.204 14.034,-15.491 24.962,-23.888 21.327,-16.39 52.054,-33.152 89.384,-44.375 z"
   fill="#f8f6f3"
   fill-rule="nonzero"
   opacity="1"
   stroke="none"
   vectornator:layerName="WhiteOS"
   id="path2" />
<path
   d="m 376.381,136.595 c -85.567,0 -153.014,39.496 -196.799,84.292 -14.644,-13.641 -22.946,-29.842 -22.944,-47.109 0,-6.305 2.409,-10.275 4.882,-13.767 2.457,-3.47 5.077,-6.523 5.077,-10.853 0,-3.773 -3.058,-7.244 -6.623,-7.241 -3.886,0 -7.402,2.315 -9.926,5.955 -2.528,3.646 -4.101,8.651 -4.101,14.174 0,23.479 11.399,44.601 30.885,61.623 -34.425,36.024 -53.192,75.206 -53.195,99.685 0,6.112 1.804,11.375 5.061,15.117 3.26,3.745 7.959,5.939 13.669,5.939 15.306,0 37.068,-10.106 60.843,-25.287 23.729,-15.151 49.483,-35.421 72.77,-55.912 1.945,0.196 5.227,0.544 7.42,0.765 -17.943,25.628 -30.71,52.461 -30.706,80.516 0,15.058 5.159,29.15 13.831,41.657 0.131,0.189 0.368,0.266 0.586,0.195 0.796,-0.258 1.416,-0.473 2.197,-0.716 0.338,-0.104 0.481,-0.524 0.277,-0.813 -8.657,-12.211 -13.783,-25.965 -13.783,-40.632 0,-27.03 12.723,-54.408 31.08,-80.109 5.186,0.288 10.383,0.603 15.882,0.602 38.221,0 75.328,-10.664 102.907,-26.476 27.55,-15.795 45.709,-36.802 45.709,-57.636 0,-4.972 -1.562,-9.683 -4.166,-14.076 -0.002,-0.005 0.003,-0.012 0,-0.016 -0.304,-0.481 -0.573,-1.072 -0.927,-1.595 -1.27,-1.899 -2.782,-3.686 -4.459,-5.435 -0.493,-0.533 -1.06,-1.027 -1.546,-1.497 -1.876,-1.789 -3.867,-3.607 -6.167,-5.24 -1.751,-1.207 -3.965,-2.465 -6.086,-3.694 -13.484,-7.576 -31.525,-12.416 -51.648,-12.416 z m 20.226,9.845 c 10.583,0 20.422,2.134 28.623,5.761 0.025,0.013 0.222,0.116 0.537,0.276 0.346,0.176 0.818,0.422 1.302,0.668 0.958,0.486 2.016,1.042 2.181,1.155 0.014,0.01 0.033,0.008 0.048,0.016 11.567,6.305 19.022,15.765 19.023,26.248 0,19.783 -17.323,40.052 -44.294,55.375 -26.942,15.306 -63.377,25.613 -101.263,25.612 -4.647,0 -9.057,-0.038 -13.652,-0.276 25.43,-34.457 61.458,-62.525 76.594,-74.805 13.644,-10.29 37.819,-24.952 58.711,-30.462 0.465,-0.122 0.528,-0.746 0.097,-0.96 -1.805,-0.895 -3.347,-1.334 -5.093,-1.871 -0.098,-0.03 -0.195,-0.029 -0.293,0 -19.787,5.843 -39.614,17.591 -54.903,28.802 -0.002,0.002 -1.66,1.237 -1.66,1.237 -0.029,0.016 -0.055,0.044 -0.081,0.065 -16.128,13.127 -37.478,28.558 -87.757,76.773 -30.049,-3.785 -57.173,-12.993 -77.506,-25.905 53.009,-45.817 129.433,-87.711 199.386,-87.709 z m 50.217,2.132 c -3.498,0 -7.164,0.62 -10.756,1.106 -0.466,0.064 -0.609,0.669 -0.228,0.944 1.132,0.819 2.03,1.551 3.092,2.425 0.107,0.088 0.236,0.128 0.374,0.114 2.552,-0.254 5.11,-0.604 7.518,-0.602 33.843,0 60.092,20.532 62.486,43.821 0.584,5.681 -2.312,13.367 -7.225,21.805 -4.905,8.424 -11.786,17.556 -18.99,26.215 -14.409,17.32 -30.144,32.708 -34.237,36.662 -0.264,0.255 -0.188,0.694 0.146,0.846 1.205,0.549 2.937,1.092 3.873,1.579 0.198,0.103 0.441,0.073 0.602,-0.082 4.13,-3.974 19.551,-18.948 33.765,-36.222 7.108,-8.638 13.922,-17.85 18.876,-26.573 4.951,-8.715 8.077,-16.951 7.714,-23.693 -0.708,-13.129 -8.566,-25.231 -20.666,-34.025 -12.105,-8.797 -28.495,-14.322 -46.344,-14.32 z m -252.515,88.05 c 21.16,13.254 47.721,22.218 77.375,26.101 -23.935,21.107 -49.454,40.598 -72.217,54.854 -11.515,7.212 -22.325,13.088 -31.845,17.151 -9.523,4.065 -17.749,6.314 -24.083,6.314 -4.755,0 -7.973,-1.227 -10.008,-3.401 -2.039,-2.177 -2.976,-5.401 -2.978,-9.584 0,-10.96 6.304,-25.388 17.493,-41.332 11.129,-15.858 27.059,-33.194 46.263,-50.103 z m 107.56,2.945 c -5.807,6.964 -11.368,14.133 -16.647,21.35 -1.879,-0.013 -3.998,-0.218 -6.118,-0.44 8.097,-7.053 15.675,-14.111 22.765,-20.91 z m 97.114,34.026 c -47.951,0 -101.208,23.195 -126.551,65.627 -0.152,0.255 -0.066,0.575 0.196,0.716 0.427,0.229 1.297,0.698 1.725,0.927 0.242,0.13 0.538,0.039 0.683,-0.195 25.397,-41.16 76.879,-64.032 123.947,-64.032 16.65,0 32.054,3.658 45.693,9.503 0.01,0.004 0.022,-0.004 0.032,0 0.049,0.017 1.038,0.439 1.969,0.846 0.47,0.205 0.933,0.413 1.286,0.57 0.176,0.078 0.319,0.147 0.423,0.195 0.115,0.052 0.144,0.072 0.163,0.081 0.004,0.002 0.012,-0.002 0.016,0 27.756,13.237 46.378,36.91 46.376,64 0,22.213 -13.284,42.359 -34.888,56.986 -21.599,14.623 -51.471,23.691 -84.519,23.692 -23.342,0 -45.008,-5.133 -63.446,-13.701 -0.005,-0.002 -0.011,-0.014 -0.016,-0.016 -0.89,-0.381 -4.74,-2.5 -8.364,-4.557 -1.816,-1.03 -3.592,-2.048 -4.931,-2.831 -0.669,-0.392 -1.223,-0.731 -1.627,-0.976 -0.389,-0.237 -0.618,-0.375 -0.618,-0.375 -0.024,-0.023 -0.053,-0.046 -0.082,-0.065 -7.632,-5 -14.316,-10.68 -20.063,-16.907 -0.132,-0.142 -0.334,-0.197 -0.521,-0.146 -0.772,0.208 -1.594,0.361 -2.457,0.618 -0.366,0.109 -0.499,0.545 -0.244,0.83 5.866,6.566 12.705,12.601 20.568,17.867 7.112,4.831 16.122,9.212 16.256,9.275 19.001,8.982 41.41,14.403 65.545,14.401 33.822,0 64.397,-9.411 86.553,-24.62 22.152,-15.206 35.914,-36.234 35.914,-59.475 0,-28.122 -18.847,-52.38 -46.719,-66.148 -0.002,-10e-4 -0.013,-0.015 -0.016,-0.016 -1.577,-0.748 -3.863,-1.647 -5.695,-2.441 -13.955,-5.946 -29.64,-9.635 -46.588,-9.633 z m 42.796,14.629 c -0.192,-0.081 -0.42,-0.031 -0.569,0.114 -38.079,36.745 -68.56,64.545 -97.212,86.992 -17.727,0.881 -34.594,3.184 -50.883,6.655 -0.111,0.024 -3.64,0.713 -3.727,0.733 -6.406,1.405 -12.261,3.317 -18.306,5.028 -0.019,0.005 -0.031,0.009 -0.049,0.016 -0.057,0.024 -2.035,0.595 -2.229,0.635 -0.014,0.003 -0.019,0.012 -0.033,0.016 -39.66,11.556 -72.293,29.306 -95.015,46.848 -11.361,8.772 -20.251,17.481 -26.312,25.369 -6.055,7.879 -9.324,14.961 -9.324,20.487 0,2.943 2.347,5.471 5.858,7.257 3.538,1.8 8.385,2.912 13.734,2.913 35.284,0 59.987,-8.537 88.766,-23.513 18.031,-9.35 45.704,-31.733 60.517,-43.936 0.294,-0.242 0.246,-0.715 -0.098,-0.879 -2.188,-1.043 -12.824,-7.176 -15.995,-9.421 -0.174,-0.123 -0.407,-0.132 -0.586,-0.017 -14.692,9.471 -36.148,23.205 -54.594,33.717 -18.909,10.7 -37.303,20.51 -52.349,27.647 -7.522,3.568 -14.201,6.476 -19.689,8.478 -5.488,2.002 -9.787,3.091 -12.449,3.091 -2.554,0 -4.881,-0.642 -6.541,-1.611 -1.67,-0.974 -2.578,-2.228 -2.587,-3.417 0,0 0,-0.016 0,-0.016 0.006,-4.923 3.064,-11.641 8.982,-19.267 5.916,-7.622 14.645,-16.126 25.824,-24.717 22.36,-17.184 54.533,-34.672 93.729,-46.051 0.132,-0.038 2.209,-0.57 2.376,-0.619 6.078,-1.713 11.937,-3.61 18.29,-4.995 0.008,-0.002 3.563,-0.659 3.678,-0.684 14.026,-3.071 28.905,-5.032 44.293,-5.956 -10.206,8.004 -28.475,21.197 -28.509,21.22 -0.672,0.458 -2.013,1.364 -2.685,1.822 -0.019,0.012 -4.677,2.978 -8.413,5.37 -0.32,0.205 -0.321,0.675 0,0.879 4.346,2.755 9.296,5.392 15.638,8.348 0.181,0.084 0.399,0.06 0.553,-0.066 2.603,-2.113 5.793,-4.702 5.793,-4.702 0.005,-0.004 0.012,-0.013 0.017,-0.017 0.58,-0.504 1.746,-1.513 2.327,-2.017 0.073,-0.066 21.609,-19.888 33.602,-31.585 0.711,0 1.858,0 2.474,0 20.49,0 41.256,2.339 61.428,8.771 0.273,0.087 0.563,-0.052 0.651,-0.326 0.137,-0.427 0.416,-1.281 0.553,-1.708 0.088,-0.275 -0.067,-0.58 -0.342,-0.667 -19.891,-6.343 -40.584,-9.31 -61.054,-9.422 23.743,-23.227 52.25,-51.88 84.78,-84.226 0.258,-0.257 0.186,-0.696 -0.147,-0.846 -1.148,-0.519 -2.914,-1.2 -4.166,-1.725 z"
   fill="#434343"
   fill-rule="nonzero"
   opacity="0"
   stroke="none"
   vectornator:layerName="BlackOS"
   id="path3" />
<path
   d="m 376.383,137.122 c -85.636,0 -153.102,39.629 -196.8,84.5 -14.957,-13.784 -23.464,-30.248 -23.462,-47.841 0,-12.904 9.959,-16.409 9.959,-24.623 0,-3.519 -2.884,-6.723 -6.11,-6.721 -7.332,0 -13.503,8.762 -13.503,19.613 0,23.462 11.45,44.578 31.1,61.588 -34.607,36.073 -53.399,75.37 -53.401,99.714 0,12.025 7.063,20.53 18.207,20.53 30.208,0 86.808,-40.143 133.441,-81.201 l 8.493,0.855 c -18.183,25.808 -31.103,52.8 -31.1,80.957 0,14.936 5.124,28.927 13.748,41.364 0.782,-0.254 1.402,-0.486 2.199,-0.733 -8.706,-12.282 -13.869,-26.145 -13.869,-40.937 0,-27.275 12.867,-54.84 31.344,-80.651 5.279,0.293 10.554,0.613 16.13,0.611 76.252,0 148.104,-42.525 148.104,-83.584 0,-4.86 -1.525,-9.476 -4.093,-13.808 -0.332,-0.523 -0.6,-1.12 -0.917,-1.589 -1.251,-1.87 -2.734,-3.641 -4.399,-5.376 -0.464,-0.502 -1.025,-0.981 -1.527,-1.467 -1.871,-1.784 -3.844,-3.584 -6.11,-5.193 -1.723,-1.188 -3.926,-2.436 -6.049,-3.666 -13.396,-7.527 -31.344,-12.342 -51.385,-12.342 z m 20.224,8.798 c 10.653,0 20.566,2.146 28.839,5.805 -0.043,0.009 3.614,1.809 4.094,2.138 11.659,6.355 19.306,15.951 19.307,26.7 0,40.179 -70.13,81.509 -146.088,81.507 -4.986,0 -9.68,-0.012 -14.664,-0.306 25.515,-34.9 62.041,-63.33 77.291,-75.702 13.684,-10.321 37.894,-25.01 58.899,-30.549 -1.758,-0.872 -3.254,-1.294 -5.01,-1.833 -19.699,5.816 -39.488,17.529 -54.745,28.716 -0.014,0.01 -1.694,1.275 -1.711,1.283 -16.165,13.159 -37.503,28.562 -87.921,76.924 -30.501,-3.812 -58.043,-13.195 -78.574,-26.395 53.083,-46.044 129.897,-88.29 200.283,-88.288 z m 50.224,3.177 c -3.437,0 -7.089,0.612 -10.693,1.1 1.147,0.829 2.054,1.57 3.117,2.444 2.538,-0.253 5.117,-0.613 7.576,-0.611 34.02,0 60.562,20.646 62.993,44.297 2.419,23.539 -52.41,77.19 -60.61,85.111 1.158,0.528 2.9,1.064 3.91,1.589 8.247,-7.935 61.598,-59.821 60.183,-86.089 -1.393,-25.865 -30.991,-47.844 -66.476,-47.841 z M 194.247,235.98 c 21.409,13.491 48.425,22.584 78.634,26.395 -48.39,42.819 -103.538,79.185 -129.347,79.185 -9.678,0 -13.499,-4.998 -13.503,-13.503 0,-22.289 25.503,-58.057 64.216,-92.077 z m 108.206,2.322 0.611,0.611 c -6.158,7.332 -12.026,14.921 -17.596,22.546 -2.346,0 -4.996,-0.257 -7.638,-0.55 8.799,-7.625 16.998,-15.277 24.623,-22.607 z m 96.537,35.804 c -47.804,0 -100.886,23.145 -126.109,65.376 l 1.711,0.917 c 25.515,-41.352 77.183,-64.276 124.398,-64.276 16.727,0 32.188,3.662 45.886,9.531 0.205,0.073 3.829,1.652 3.91,1.711 27.881,13.296 46.681,37.113 46.68,64.459 0,44.872 -53.657,81.199 -119.938,81.201 -23.419,0 -45.159,-5.147 -63.665,-13.747 -1.917,-0.82 -15.302,-8.466 -15.703,-8.859 -7.667,-5.024 -14.385,-10.727 -20.163,-16.986 -0.8,0.216 -1.616,0.364 -2.444,0.611 5.838,6.535 12.642,12.538 20.469,17.78 7.066,4.799 16.077,9.172 16.191,9.226 18.932,8.949 41.257,14.36 65.315,14.358 67.454,0 121.954,-37.539 121.954,-83.584 0,-27.87 -18.688,-51.975 -46.435,-65.681 -1.552,-0.736 -3.841,-1.646 -5.683,-2.444 -13.897,-5.922 -29.502,-9.595 -46.374,-9.593 z m 42.586,14.603 c -38.139,36.804 -68.68,64.645 -97.392,87.127 -17.759,0.874 -34.642,3.183 -50.957,6.66 -0.119,0.026 -3.663,0.719 -3.727,0.733 -6.374,1.398 -12.21,3.296 -18.268,5.011 -0.152,0.062 -2.047,0.616 -2.322,0.672 -79.193,23.075 -130.265,70.874 -130.264,92.198 0,5.279 8.505,9.651 19.063,9.654 35.193,0 59.792,-8.505 88.533,-23.462 17.943,-9.304 45.623,-31.674 60.427,-43.869 -2.248,-1.072 -12.842,-7.186 -16.069,-9.471 -14.694,9.472 -36.159,23.205 -54.623,33.727 -37.832,21.409 -73.598,39.284 -84.744,39.287 -5.279,0 -9.651,-2.627 -9.654,-5.56 0,-20.496 50.398,-67.753 128.919,-90.549 0.15,-0.042 2.274,-0.579 2.383,-0.611 6.07,-1.711 11.939,-3.618 18.33,-5.01 0,0 3.586,-0.655 3.666,-0.672 14.594,-3.196 30.085,-5.235 46.13,-6.11 -9.913,7.872 -29.878,22.26 -29.939,22.301 l -2.688,1.833 c -0.006,0.004 -4.692,2.982 -8.432,5.377 4.321,2.739 9.252,5.36 15.581,8.309 2.603,-2.113 5.805,-4.706 5.804,-4.704 l 2.322,-2.017 c 0.059,-0.052 21.772,-20.043 33.727,-31.71 h 2.688 c 20.529,0 41.352,2.346 61.588,8.798 l 0.55,-1.711 c -20.236,-6.452 -41.315,-9.412 -62.138,-9.409 23.896,-23.359 52.762,-52.398 85.661,-85.111 -1.124,-0.507 -2.892,-1.181 -4.155,-1.711 z"
   fill="#c1a06a"
   fill-rule="nonzero"
   opacity="1"
   stroke="none"
   vectornator:layerName="Colour"
   id="path4" />
</g>
<g
   opacity="0"
   vectornator:layerName="Group 2"
   id="g8"
   style="display:inline">
<path
   d="M 761.254,627.881 553.207,552.149 442.508,360.39 480.954,142.329 650.555,0 H 871.953 L 1041.55,142.329 1080,360.39 969.301,552.149 Z"
   fill="#b7c6bc"
   fill-rule="nonzero"
   opacity="1"
   stroke="#434343"
   stroke-linecap="butt"
   stroke-linejoin="round"
   stroke-width="3.33756"
   vectornator:layerName="Polygon 1"
   id="path5" />
<path
   d="m 818.889,131.909 c -84.944,0 -152.248,38.273 -196.783,82.387 -11.881,-12.243 -18.275,-26.083 -18.274,-40.518 0,-4.986 1.706,-7.797 4.02,-11.065 2.169,-3.064 5.939,-7.219 5.939,-13.555 0,-6.05 -4.694,-11.933 -11.309,-11.928 -5.866,0 -10.673,3.489 -13.783,7.974 -3.146,4.537 -4.931,10.447 -4.93,16.842 0,23.567 10.894,44.695 28.981,61.835 -32.888,35.58 -51.289,73.827 -51.291,99.473 0,7.011 2.076,13.436 6.216,18.192 4.167,4.788 10.251,7.551 17.2,7.551 17.128,0 39.411,-10.741 63.365,-26.036 21.625,-13.808 44.687,-31.714 66.18,-50.184 -14.145,22.602 -23.908,46.451 -23.904,71.615 0,15.024 4.855,29.048 12.855,41.511 -37.228,11.71 -68.051,28.624 -89.97,45.546 -11.616,8.968 -20.771,17.919 -27.159,26.231 -6.32,8.225 -10.301,16.057 -10.3,23.335 0,5.674 4.333,9.355 8.429,11.439 4.365,2.221 9.869,3.416 15.849,3.418 36.104,0 61.813,-8.898 90.93,-24.051 18.822,-9.76 46.442,-32.208 61.331,-44.472 0.212,-0.175 0.378,-0.375 0.553,-0.57 19.073,8.583 41.219,13.736 65.008,13.734 34.676,0 66.151,-9.608 89.206,-25.434 23.01,-15.795 37.947,-38.135 37.947,-63.348 0,-28.357 -17.735,-52.604 -43.675,-67.352 5.53,-5.365 18.672,-18.31 31.845,-34.318 7.215,-8.769 14.17,-18.153 19.332,-27.24 5.119,-9.014 8.763,-17.951 8.315,-26.264 -0.803,-14.902 -9.664,-28.165 -22.586,-37.557 -12.963,-9.42 -30.288,-15.216 -49.094,-15.214 -4.045,0 -7.896,0.681 -11.391,1.155 -1.129,0.153 -2.056,0.642 -2.782,1.302 -0.774,-0.452 -1.531,-0.95 -2.279,-1.384 -0.019,-0.011 -0.028,-0.021 -0.048,-0.032 -14.283,-8.026 -33.08,-13.018 -53.943,-13.018 z m 20.226,19.218 c 3.914,0 7.664,0.395 11.293,0.976 -17.063,6.56 -33.375,16.52 -46.441,26.101 l -1.107,0.895 c -0.291,0.156 -0.557,0.329 -0.813,0.537 -15.794,12.856 -37.288,28.486 -86.374,75.439 C 689.74,251.56 666.221,243.928 647.8,233.481 700.049,189.79 773.046,151.125 839.115,151.127 Z m 50.217,6.118 c 32.256,0 55.756,19.568 57.816,39.607 0.395,3.843 -1.828,10.766 -6.607,18.974 -4.695,8.063 -11.432,17.043 -18.534,25.58 -14.216,17.088 -29.863,32.393 -33.896,36.288 -0.12,0.116 -0.202,0.25 -0.309,0.374 -13.947,-5.656 -29.524,-9.163 -46.311,-9.162 -49.27,0 -104.151,23.672 -130.57,67.905 -1.523,2.551 -0.617,5.855 2.002,7.258 0.427,0.229 1.297,0.698 1.725,0.927 2.426,1.3 5.437,0.488 6.883,-1.855 24.331,-39.433 74.22,-61.819 119.96,-61.819 12.964,0 25.081,2.389 36.222,6.265 -36.221,34.871 -65.616,61.598 -93.029,83.168 -17.4,0.951 -34.011,3.24 -50.038,6.656 -0.024,0.005 -3.475,0.665 -3.775,0.732 -5.335,1.171 -10.166,2.635 -14.922,4.036 -0.014,-0.021 -0.018,-0.045 -0.032,-0.065 -8.204,-11.573 -12.921,-24.382 -12.921,-37.931 0,-24.849 11.541,-50.611 28.803,-75.293 4.337,0.239 8.759,0.473 13.473,0.472 39.078,0 76.9,-10.849 105.234,-27.094 28.052,-16.083 48.068,-38.12 48.069,-61.704 0,-5.975 -1.888,-11.526 -4.817,-16.468 -0.027,-0.045 -0.054,-0.086 -0.081,-0.13 -0.063,-0.098 -0.334,-0.71 -0.993,-1.693 -0.005,-0.007 -0.011,-0.025 -0.016,-0.032 -1.183,-1.764 -2.533,-3.385 -3.955,-4.947 0.179,-0.004 0.447,-0.049 0.619,-0.049 z m -18.746,1.806 c 10.053,5.804 15.556,13.697 15.556,21.513 0,17.031 -15.455,36.256 -41.917,51.29 -26.181,14.874 -61.903,25.012 -98.953,25.011 -1.474,0 -2.876,-0.024 -4.296,-0.033 24.358,-30.415 55.929,-55.166 70.053,-66.619 0.014,-0.011 0.034,-0.022 0.049,-0.032 0.025,-0.021 0.072,-0.061 0.097,-0.082 13.31,-10.013 37.153,-24.329 56.954,-29.551 1.031,-0.272 1.83,-0.824 2.457,-1.497 z m -233.135,83.364 c 18.747,11.132 41.116,19.105 65.871,23.416 -21.469,18.355 -43.782,35.215 -63.837,47.776 -11.366,7.118 -21.991,12.881 -31.194,16.809 -9.227,3.938 -16.967,5.94 -22.244,5.94 -4,0 -5.726,-0.997 -6.591,-1.921 -0.9,-0.961 -1.707,-2.822 -1.708,-6.378 0,-9.295 5.689,-23.034 16.646,-38.647 10.358,-14.759 25.228,-31.013 43.057,-46.995 z m 254.794,51.274 c 24.785,12.923 40.519,34.374 40.518,58.142 0,20.217 -12.074,39.066 -32.822,53.113 -20.699,14.014 -49.689,22.878 -81.899,22.879 -19.439,0 -37.645,-3.687 -53.682,-9.959 1.035,-0.837 2.75,-2.229 2.75,-2.229 0.047,-0.038 0.101,-0.091 0.146,-0.13 0.581,-0.504 1.747,-1.514 2.327,-2.018 0.015,-0.013 0.018,-0.019 0.033,-0.033 0.2,-0.178 20.076,-18.499 32.349,-30.397 0.208,0 0.465,0 0.619,0 20.136,0 40.4,2.312 59.996,8.56 2.735,0.872 5.663,-0.636 6.542,-3.369 0.137,-0.427 0.415,-1.281 0.553,-1.708 0.881,-2.743 -0.64,-5.683 -3.385,-6.558 -16.811,-5.36 -34.146,-8.338 -51.437,-9.292 22.269,-21.917 47.763,-47.455 77.05,-76.578 0.133,-0.132 0.226,-0.281 0.342,-0.423 z m -126.291,91.516 c -8.013,5.941 -15.312,11.261 -15.312,11.261 -0.672,0.458 -2.013,1.364 -2.685,1.822 -0.148,0.095 -4.622,2.941 -8.315,5.305 -0.29,0.186 -0.447,0.459 -0.683,0.684 -5.056,-3.523 -9.645,-7.352 -13.767,-11.456 3.193,-0.92 6.378,-1.781 9.633,-2.49 0.351,-0.063 3.268,-0.577 3.678,-0.667 8.817,-1.931 18.014,-3.388 27.451,-4.459 z m -54.301,11.554 c 0.159,0.254 0.311,0.513 0.521,0.748 4.465,4.999 9.486,9.698 15.052,14.011 -14.523,9.346 -34.115,21.843 -51.323,31.65 -18.835,10.658 -37.145,20.427 -52.023,27.484 -7.437,3.527 -14.024,6.374 -19.299,8.299 -5.278,1.925 -9.301,2.814 -10.837,2.815 -1.791,0 -3.359,-0.48 -4.182,-0.96 -0.087,-0.051 -0.101,-0.023 -0.163,-0.049 0.258,-3.247 2.558,-8.842 7.908,-15.735 5.591,-7.204 14.034,-15.491 24.962,-23.888 21.327,-16.39 52.054,-33.152 89.384,-44.375 z"
   fill="#b7c6bc"
   fill-rule="nonzero"
   opacity="1"
   stroke="none"
   vectornator:layerName="WhiteOS"
   id="path6" />
<path
   d="m 818.889,136.595 c -85.567,0 -153.014,39.496 -196.799,84.292 -14.644,-13.641 -22.946,-29.842 -22.944,-47.109 0,-6.305 2.409,-10.275 4.882,-13.767 2.457,-3.47 5.077,-6.523 5.077,-10.853 0,-3.773 -3.058,-7.244 -6.623,-7.241 -3.886,0 -7.402,2.315 -9.926,5.955 -2.528,3.646 -4.101,8.651 -4.101,14.174 0,23.479 11.399,44.601 30.885,61.623 -34.425,36.024 -53.192,75.206 -53.194,99.685 0,6.112 1.803,11.375 5.06,15.117 3.26,3.745 7.959,5.939 13.669,5.939 15.306,0 37.068,-10.106 60.843,-25.287 23.729,-15.151 49.483,-35.421 72.77,-55.912 1.945,0.196 5.227,0.544 7.42,0.765 -17.943,25.628 -30.71,52.461 -30.706,80.516 0,15.058 5.159,29.15 13.832,41.657 0.131,0.189 0.367,0.266 0.585,0.195 0.796,-0.258 1.416,-0.473 2.197,-0.716 0.338,-0.104 0.482,-0.524 0.277,-0.813 -8.657,-12.211 -13.783,-25.965 -13.783,-40.632 0,-27.03 12.723,-54.408 31.08,-80.109 5.186,0.288 10.383,0.603 15.882,0.602 38.221,0 75.328,-10.664 102.907,-26.476 27.55,-15.795 45.709,-36.802 45.709,-57.636 0,-4.972 -1.562,-9.683 -4.166,-14.076 -0.002,-0.005 0.003,-0.012 0,-0.016 -0.304,-0.481 -0.573,-1.072 -0.927,-1.595 -1.27,-1.899 -2.782,-3.686 -4.459,-5.435 -0.493,-0.533 -1.06,-1.027 -1.546,-1.497 -1.876,-1.789 -3.867,-3.607 -6.167,-5.24 -1.751,-1.207 -3.965,-2.465 -6.086,-3.694 -13.484,-7.576 -31.525,-12.416 -51.648,-12.416 z m 20.226,9.845 c 10.583,0 20.422,2.134 28.623,5.761 0.025,0.013 0.222,0.116 0.537,0.276 0.346,0.176 0.819,0.422 1.302,0.668 0.958,0.486 2.016,1.042 2.181,1.155 0.014,0.01 0.033,0.008 0.048,0.016 11.567,6.305 19.022,15.765 19.023,26.248 0,19.783 -17.323,40.052 -44.294,55.375 -26.942,15.306 -63.377,25.613 -101.263,25.612 -4.647,0 -9.057,-0.038 -13.652,-0.276 25.43,-34.457 61.458,-62.525 76.594,-74.805 13.644,-10.29 37.819,-24.952 58.711,-30.462 0.465,-0.122 0.528,-0.746 0.097,-0.96 -1.805,-0.895 -3.347,-1.334 -5.093,-1.871 -0.098,-0.03 -0.195,-0.029 -0.293,0 -19.787,5.843 -39.614,17.591 -54.903,28.802 -0.002,0.002 -1.66,1.237 -1.66,1.237 -0.029,0.016 -0.055,0.044 -0.081,0.065 -16.128,13.127 -37.478,28.558 -87.757,76.773 -30.049,-3.785 -57.173,-12.993 -77.506,-25.905 53.009,-45.817 129.433,-87.711 199.386,-87.709 z m 50.217,2.132 c -3.498,0 -7.164,0.62 -10.756,1.106 -0.466,0.064 -0.609,0.669 -0.228,0.944 1.132,0.819 2.03,1.551 3.092,2.425 0.107,0.088 0.236,0.128 0.374,0.114 2.552,-0.254 5.11,-0.604 7.518,-0.602 33.844,0 60.092,20.532 62.486,43.821 0.584,5.681 -2.312,13.367 -7.225,21.805 -4.905,8.424 -11.786,17.556 -18.99,26.215 -14.409,17.32 -30.144,32.708 -34.237,36.662 -0.264,0.255 -0.188,0.694 0.146,0.846 1.205,0.549 2.937,1.092 3.873,1.579 0.198,0.103 0.441,0.073 0.602,-0.082 4.131,-3.974 19.551,-18.948 33.766,-36.222 7.107,-8.638 13.921,-17.85 18.876,-26.573 4.95,-8.715 8.076,-16.951 7.713,-23.693 -0.708,-13.129 -8.566,-25.231 -20.666,-34.025 -12.105,-8.797 -28.495,-14.322 -46.344,-14.32 z m -252.515,88.05 c 21.16,13.254 47.721,22.218 77.375,26.101 -23.935,21.107 -49.454,40.598 -72.217,54.854 -11.515,7.212 -22.325,13.088 -31.845,17.151 -9.523,4.065 -17.749,6.314 -24.083,6.314 -4.755,0 -7.972,-1.227 -10.008,-3.401 -2.039,-2.177 -2.976,-5.401 -2.978,-9.584 0,-10.96 6.304,-25.388 17.493,-41.332 11.129,-15.858 27.059,-33.194 46.263,-50.103 z m 107.56,2.945 c -5.807,6.964 -11.368,14.133 -16.646,21.35 -1.88,-0.013 -3.999,-0.218 -6.119,-0.44 8.097,-7.053 15.675,-14.111 22.765,-20.91 z m 97.114,34.026 c -47.951,0 -101.208,23.195 -126.551,65.627 -0.152,0.255 -0.066,0.575 0.196,0.716 0.427,0.229 1.297,0.698 1.725,0.927 0.242,0.13 0.538,0.039 0.683,-0.195 25.397,-41.16 76.879,-64.032 123.947,-64.032 16.65,0 32.054,3.658 45.693,9.503 0.01,0.004 0.022,-0.004 0.032,0 0.049,0.017 1.038,0.439 1.969,0.846 0.471,0.205 0.933,0.413 1.286,0.57 0.176,0.078 0.319,0.147 0.423,0.195 0.115,0.052 0.144,0.072 0.163,0.081 0.004,0.002 0.012,-0.002 0.016,0 27.756,13.237 46.378,36.91 46.376,64 0,22.213 -13.283,42.359 -34.888,56.986 -21.599,14.623 -51.471,23.691 -84.519,23.692 -23.342,0 -45.008,-5.133 -63.446,-13.701 -0.005,-0.002 -0.011,-0.014 -0.016,-0.016 -0.89,-0.381 -4.74,-2.5 -8.364,-4.557 -1.816,-1.03 -3.592,-2.048 -4.931,-2.831 -0.669,-0.392 -1.223,-0.731 -1.627,-0.976 -0.389,-0.237 -0.618,-0.375 -0.618,-0.375 -0.024,-0.023 -0.053,-0.046 -0.081,-0.065 -7.633,-5 -14.317,-10.68 -20.064,-16.907 -0.132,-0.142 -0.334,-0.197 -0.521,-0.146 -0.772,0.208 -1.594,0.361 -2.457,0.618 -0.366,0.109 -0.499,0.545 -0.244,0.83 5.866,6.566 12.705,12.601 20.568,17.867 7.112,4.831 16.122,9.212 16.256,9.275 19.001,8.982 41.41,14.403 65.545,14.401 33.822,0 64.397,-9.411 86.553,-24.62 22.153,-15.206 35.914,-36.234 35.914,-59.475 0,-28.122 -18.847,-52.38 -46.719,-66.148 -0.002,-10e-4 -0.013,-0.015 -0.016,-0.016 -1.577,-0.748 -3.863,-1.647 -5.695,-2.441 -13.955,-5.946 -29.64,-9.635 -46.588,-9.633 z m 42.796,14.629 c -0.191,-0.081 -0.42,-0.031 -0.569,0.114 -38.079,36.745 -68.56,64.545 -97.212,86.992 -17.727,0.881 -34.594,3.184 -50.883,6.655 -0.111,0.024 -3.64,0.713 -3.727,0.733 -6.406,1.405 -12.261,3.317 -18.306,5.028 -0.019,0.005 -0.031,0.009 -0.049,0.016 -0.057,0.024 -2.035,0.595 -2.229,0.635 -0.014,0.003 -0.019,0.012 -0.033,0.016 -39.66,11.556 -72.293,29.306 -95.014,46.848 -11.362,8.772 -20.252,17.481 -26.313,25.369 -6.055,7.879 -9.324,14.961 -9.324,20.487 0,2.943 2.347,5.471 5.858,7.257 3.538,1.8 8.385,2.912 13.734,2.913 35.284,0 59.987,-8.537 88.766,-23.513 18.031,-9.35 45.704,-31.733 60.517,-43.936 0.294,-0.242 0.246,-0.715 -0.098,-0.879 -2.188,-1.043 -12.824,-7.176 -15.995,-9.421 -0.174,-0.123 -0.407,-0.132 -0.586,-0.017 -14.692,9.471 -36.148,23.205 -54.594,33.717 -18.909,10.7 -37.303,20.51 -52.348,27.647 -7.523,3.568 -14.202,6.476 -19.69,8.478 -5.488,2.002 -9.787,3.091 -12.448,3.091 -2.555,0 -4.882,-0.642 -6.542,-1.611 -1.67,-0.974 -2.578,-2.228 -2.587,-3.417 0,0 0,-0.016 0,-0.016 0.006,-4.923 3.064,-11.641 8.982,-19.267 5.916,-7.622 14.645,-16.126 25.824,-24.717 22.36,-17.184 54.533,-34.672 93.729,-46.051 0.133,-0.038 2.209,-0.57 2.376,-0.619 6.078,-1.713 11.937,-3.61 18.29,-4.995 0.008,-0.002 3.563,-0.659 3.678,-0.684 14.026,-3.071 28.905,-5.032 44.293,-5.956 -10.206,8.004 -28.475,21.197 -28.509,21.22 -0.672,0.458 -2.013,1.364 -2.685,1.822 -0.019,0.012 -4.677,2.978 -8.413,5.37 -0.32,0.205 -0.321,0.675 0,0.879 4.346,2.755 9.296,5.392 15.638,8.348 0.181,0.084 0.399,0.06 0.553,-0.066 2.603,-2.113 5.793,-4.702 5.793,-4.702 0.005,-0.004 0.012,-0.013 0.017,-0.017 0.58,-0.504 1.746,-1.513 2.327,-2.017 0.073,-0.066 21.609,-19.888 33.602,-31.585 0.711,0 1.858,0 2.474,0 20.49,0 41.256,2.339 61.428,8.771 0.274,0.087 0.563,-0.052 0.651,-0.326 0.137,-0.427 0.416,-1.281 0.553,-1.708 0.088,-0.275 -0.067,-0.58 -0.342,-0.667 -19.891,-6.343 -40.584,-9.31 -61.054,-9.422 23.743,-23.227 52.25,-51.88 84.78,-84.226 0.258,-0.257 0.186,-0.696 -0.147,-0.846 -1.148,-0.519 -2.914,-1.2 -4.166,-1.725 z"
   fill="#434343"
   fill-rule="nonzero"
   opacity="0"
   stroke="none"
   vectornator:layerName="BlackOS"
   id="path7" />
<path
   d="m 818.891,137.122 c -85.636,0 -153.102,39.629 -196.8,84.5 -14.957,-13.784 -23.464,-30.248 -23.462,-47.841 0,-12.904 9.959,-16.409 9.959,-24.623 0,-3.519 -2.884,-6.723 -6.11,-6.721 -7.332,0 -13.503,8.762 -13.503,19.613 0,23.462 11.45,44.578 31.1,61.588 -34.607,36.073 -53.399,75.37 -53.401,99.714 0,12.025 7.063,20.53 18.207,20.53 30.208,0 86.808,-40.143 133.441,-81.201 l 8.493,0.855 c -18.183,25.808 -31.103,52.8 -31.1,80.957 0,14.936 5.124,28.927 13.748,41.364 0.782,-0.254 1.402,-0.486 2.199,-0.733 -8.706,-12.282 -13.869,-26.145 -13.869,-40.937 0,-27.275 12.867,-54.84 31.344,-80.651 5.279,0.293 10.554,0.613 16.13,0.611 76.252,0 148.104,-42.525 148.104,-83.584 0,-4.86 -1.525,-9.476 -4.093,-13.808 -0.331,-0.523 -0.6,-1.12 -0.917,-1.589 -1.251,-1.87 -2.734,-3.641 -4.399,-5.376 -0.464,-0.502 -1.025,-0.981 -1.527,-1.467 -1.871,-1.784 -3.844,-3.584 -6.11,-5.193 -1.723,-1.188 -3.926,-2.436 -6.049,-3.666 -13.396,-7.527 -31.343,-12.342 -51.385,-12.342 z m 20.224,8.798 c 10.653,0 20.566,2.146 28.839,5.805 -0.043,0.009 3.614,1.809 4.094,2.138 11.659,6.355 19.306,15.951 19.307,26.7 0,40.179 -70.13,81.509 -146.088,81.507 -4.986,0 -9.68,-0.012 -14.664,-0.306 25.515,-34.9 62.041,-63.33 77.291,-75.702 13.684,-10.321 37.894,-25.01 58.899,-30.549 -1.758,-0.872 -3.254,-1.294 -5.01,-1.833 -19.699,5.816 -39.488,17.529 -54.745,28.716 -0.014,0.01 -1.694,1.275 -1.711,1.283 -16.165,13.159 -37.503,28.562 -87.921,76.924 -30.501,-3.812 -58.043,-13.195 -78.574,-26.395 53.083,-46.044 129.897,-88.29 200.283,-88.288 z m 50.224,3.177 c -3.437,0 -7.089,0.612 -10.692,1.1 1.146,0.829 2.054,1.57 3.116,2.444 2.538,-0.253 5.117,-0.613 7.576,-0.611 34.02,0 60.562,20.646 62.993,44.297 2.419,23.539 -52.41,77.19 -60.61,85.111 1.158,0.528 2.9,1.064 3.91,1.589 8.247,-7.935 61.598,-59.821 60.183,-86.089 -1.393,-25.865 -30.991,-47.844 -66.476,-47.841 z M 636.755,235.98 c 21.409,13.491 48.425,22.584 78.634,26.395 -48.39,42.819 -103.538,79.185 -129.347,79.185 -9.678,0 -13.499,-4.998 -13.503,-13.503 0,-22.289 25.503,-58.057 64.216,-92.077 z m 108.206,2.322 0.611,0.611 c -6.158,7.332 -12.026,14.921 -17.596,22.546 -2.346,0 -4.996,-0.257 -7.638,-0.55 8.799,-7.625 16.999,-15.277 24.623,-22.607 z m 96.537,35.804 c -47.804,0 -100.885,23.145 -126.109,65.376 l 1.711,0.917 c 25.515,-41.352 77.183,-64.276 124.398,-64.276 16.727,0 32.188,3.662 45.886,9.531 0.205,0.073 3.829,1.652 3.91,1.711 27.881,13.296 46.681,37.113 46.68,64.459 0,44.872 -53.657,81.199 -119.938,81.201 -23.419,0 -45.159,-5.147 -63.665,-13.747 -1.917,-0.82 -15.302,-8.466 -15.703,-8.859 -7.667,-5.024 -14.385,-10.727 -20.163,-16.986 -0.8,0.216 -1.616,0.364 -2.444,0.611 5.838,6.535 12.642,12.538 20.469,17.78 7.066,4.799 16.077,9.172 16.191,9.226 18.932,8.949 41.257,14.36 65.315,14.358 67.454,0 121.954,-37.539 121.954,-83.584 0,-27.87 -18.688,-51.975 -46.435,-65.681 -1.552,-0.736 -3.841,-1.646 -5.682,-2.444 -13.898,-5.922 -29.503,-9.595 -46.375,-9.593 z m 42.586,14.603 c -38.139,36.804 -68.68,64.645 -97.392,87.127 -17.759,0.874 -34.642,3.183 -50.957,6.66 -0.119,0.026 -3.663,0.719 -3.727,0.733 -6.374,1.398 -12.21,3.296 -18.268,5.011 -0.152,0.062 -2.047,0.616 -2.322,0.672 -79.193,23.075 -130.265,70.874 -130.264,92.198 0,5.279 8.505,9.651 19.063,9.654 35.194,0 59.792,-8.505 88.533,-23.462 17.943,-9.304 45.623,-31.674 60.427,-43.869 -2.248,-1.072 -12.842,-7.186 -16.069,-9.471 -14.694,9.472 -36.159,23.205 -54.623,33.727 -37.832,21.409 -73.598,39.284 -84.744,39.287 -5.279,0 -9.651,-2.627 -9.654,-5.56 0,-20.496 50.399,-67.753 128.92,-90.549 0.149,-0.042 2.274,-0.579 2.382,-0.611 6.07,-1.711 11.939,-3.618 18.33,-5.01 0,0 3.586,-0.655 3.666,-0.672 14.594,-3.196 30.086,-5.235 46.13,-6.11 -9.913,7.872 -29.878,22.26 -29.939,22.301 l -2.688,1.833 c -0.006,0.004 -4.692,2.982 -8.432,5.377 4.322,2.739 9.252,5.36 15.581,8.309 2.603,-2.113 5.805,-4.706 5.804,-4.704 l 2.322,-2.017 c 0.059,-0.052 21.772,-20.043 33.727,-31.71 h 2.688 c 20.529,0 41.352,2.346 61.588,8.798 l 0.55,-1.711 c -20.236,-6.452 -41.315,-9.412 -62.138,-9.409 23.896,-23.359 52.762,-52.398 85.661,-85.111 -1.124,-0.507 -2.892,-1.181 -4.155,-1.711 z"
   fill="#434343"
   fill-rule="nonzero"
   opacity="1"
   stroke="none"
   vectornator:layerName="Colour"
   id="path8" />
</g>
<g
   opacity="0"
   vectornator:layerName="Group 3"
   id="g12"
   style="display:inline">
<path
   d="M 540,1027.13 217.181,909.621 45.4119,612.074 105.067,273.716 368.231,52.8687 H 711.769 L 974.933,273.716 1034.59,612.074 862.819,909.621 Z"
   fill="#b7c6bc"
   fill-rule="nonzero"
   opacity="1"
   stroke="#b7c6bc"
   stroke-linecap="butt"
   stroke-linejoin="round"
   stroke-width="5.17879"
   vectornator:layerName="Polygon 1"
   id="path9"
   style="display:inline" />
<path
   d="m 629.43,257.548 c -131.804,0 -236.238,59.386 -305.341,127.837 -18.436,-18.998 -28.357,-40.472 -28.355,-62.871 0,-7.735 2.646,-12.098 6.236,-17.169 3.367,-4.754 9.217,-11.201 9.216,-21.033 0,-9.386 -7.283,-18.515 -17.548,-18.508 -9.101,0 -16.561,5.414 -21.386,12.373 -4.882,7.04 -7.651,16.211 -7.651,26.133 0,36.569 16.905,69.351 44.97,95.947 -51.031,55.209 -79.583,114.555 -79.587,154.35 0,10.878 3.222,20.848 9.646,28.229 6.465,7.428 15.905,11.715 26.688,11.715 26.577,0 61.153,-16.667 98.321,-40.399 33.556,-21.425 69.341,-49.21 102.69,-77.869 -21.947,35.071 -37.097,72.077 -37.092,111.123 0,23.313 7.534,45.073 19.947,64.411 -57.764,18.17 -105.592,44.415 -139.604,70.673 -18.023,13.915 -32.229,27.804 -42.141,40.702 -9.807,12.761 -15.983,24.915 -15.983,36.208 0,8.804 6.724,14.516 13.08,17.75 6.773,3.446 15.314,5.3 24.592,5.302 56.022,0 95.913,-13.806 141.094,-37.318 29.206,-15.144 72.063,-49.976 95.165,-69.007 0.329,-0.271 0.586,-0.58 0.858,-0.884 29.595,13.318 63.958,21.314 100.872,21.311 53.805,0 102.644,-14.909 138.417,-39.465 35.704,-24.508 58.881,-59.173 58.881,-98.296 0,-44 -27.518,-81.623 -67.769,-104.507 8.582,-8.325 28.973,-28.411 49.413,-53.251 11.196,-13.606 21.987,-28.167 29.996,-42.267 7.944,-13.986 13.598,-27.854 12.903,-40.753 -1.246,-23.122 -14.995,-43.703 -35.046,-58.276 -20.114,-14.617 -46.997,-23.611 -76.178,-23.608 -6.275,0 -12.252,1.058 -17.674,1.793 -1.752,0.237 -3.19,0.996 -4.318,2.02 -1.2,-0.701 -2.374,-1.474 -3.535,-2.146 -0.03,-0.018 -0.044,-0.033 -0.076,-0.051 -22.162,-12.453 -51.328,-20.199 -83.701,-20.199 z m 31.385,29.819 c 6.072,0 11.891,0.613 17.523,1.515 -26.477,10.18 -51.788,25.634 -72.062,40.5 l -1.717,1.389 c -0.451,0.242 -0.865,0.51 -1.262,0.833 C 578.79,351.552 545.438,375.806 469.273,448.66 429.034,443.206 392.541,431.364 363.958,415.154 445.03,347.36 558.297,287.364 660.815,287.367 Z m 77.919,9.494 c 50.052,0 86.515,30.363 89.711,61.457 0.613,5.964 -2.836,16.706 -10.251,29.441 -7.285,12.511 -17.739,26.446 -28.759,39.692 -22.059,26.515 -46.337,50.262 -52.594,56.306 -0.187,0.18 -0.315,0.389 -0.48,0.581 -21.642,-8.777 -45.812,-14.218 -71.86,-14.216 -76.451,0 -161.608,36.73 -202.601,105.366 -2.364,3.958 -0.958,9.084 3.106,11.261 0.663,0.356 2.013,1.084 2.676,1.439 3.765,2.017 8.438,0.757 10.681,-2.878 37.753,-61.187 115.165,-95.923 186.138,-95.922 20.116,0 38.917,3.705 56.205,9.721 -56.204,54.108 -101.815,95.58 -144.35,129.049 -26.999,1.476 -52.774,5.027 -77.642,10.327 -0.038,0.008 -5.393,1.032 -5.858,1.136 -8.279,1.817 -15.774,4.088 -23.154,6.262 -0.022,-0.032 -0.028,-0.069 -0.05,-0.101 -12.731,-17.957 -20.048,-37.833 -20.048,-58.856 0,-38.556 17.907,-78.531 44.691,-116.829 6.73,0.371 13.592,0.734 20.907,0.732 60.635,0 119.322,-16.833 163.287,-42.04 43.528,-24.956 74.587,-59.151 74.587,-95.746 0,-9.27 -2.928,-17.883 -7.474,-25.552 -0.041,-0.069 -0.083,-0.134 -0.126,-0.202 -0.097,-0.152 -0.517,-1.101 -1.54,-2.626 -0.008,-0.012 -0.018,-0.039 -0.026,-0.05 -1.834,-2.738 -3.929,-5.252 -6.135,-7.676 0.277,-0.007 0.693,-0.076 0.959,-0.076 z m -29.087,2.803 c 15.599,9.006 24.137,21.253 24.138,33.379 0,26.428 -23.981,56.259 -65.042,79.586 -40.624,23.08 -96.053,38.811 -153.541,38.809 -2.287,0 -4.463,-0.037 -6.666,-0.051 37.794,-47.195 86.783,-85.599 108.698,-103.371 0.023,-0.017 0.053,-0.033 0.076,-0.05 0.039,-0.032 0.112,-0.095 0.152,-0.126 20.652,-15.537 57.648,-37.751 88.372,-45.853 1.601,-0.422 2.84,-1.279 3.813,-2.323 z M 347.899,429.016 c 29.089,17.274 63.798,29.645 102.21,36.334 -33.313,28.482 -67.935,54.643 -99.054,74.132 -17.636,11.046 -34.123,19.988 -48.403,26.083 -14.317,6.111 -26.326,9.216 -34.516,9.216 -6.206,0 -8.884,-1.547 -10.226,-2.979 -1.397,-1.492 -2.649,-4.38 -2.651,-9.898 0,-14.422 8.828,-35.741 25.83,-59.967 16.071,-22.901 39.144,-48.123 66.81,-72.921 z m 395.355,79.561 c 38.459,20.052 62.872,53.337 62.871,90.216 0,31.372 -18.734,60.618 -50.928,82.414 -32.118,21.745 -77.101,35.499 -127.08,35.501 -30.164,0 -58.413,-5.72 -83.298,-15.453 1.607,-1.298 4.267,-3.459 4.267,-3.459 0.073,-0.059 0.157,-0.141 0.227,-0.202 0.901,-0.782 2.711,-2.349 3.611,-3.131 0.024,-0.02 0.027,-0.029 0.051,-0.05 0.311,-0.277 31.152,-28.705 50.195,-47.166 0.323,0 0.721,0 0.96,0 31.245,0 62.687,3.586 93.094,13.281 4.245,1.353 8.788,-0.986 10.151,-5.227 0.213,-0.663 0.645,-1.987 0.858,-2.651 1.368,-4.255 -0.993,-8.818 -5.252,-10.175 -26.085,-8.317 -52.984,-12.938 -79.813,-14.418 34.554,-34.008 74.111,-73.635 119.556,-118.823 0.206,-0.206 0.351,-0.438 0.53,-0.657 z M 547.293,650.58 c -12.433,9.217 -23.759,17.472 -23.759,17.472 -1.043,0.711 -3.124,2.117 -4.166,2.828 -0.231,0.147 -7.172,4.562 -12.903,8.231 -0.45,0.288 -0.693,0.713 -1.06,1.061 -7.844,-5.466 -14.965,-11.408 -21.361,-17.776 4.954,-1.427 9.896,-2.762 14.947,-3.863 0.544,-0.098 5.072,-0.895 5.707,-1.035 13.681,-2.996 27.952,-5.257 42.595,-6.918 z m -84.257,17.927 c 0.246,0.395 0.483,0.797 0.808,1.161 6.929,7.756 14.72,15.049 23.356,21.74 -22.535,14.502 -52.936,33.893 -79.637,49.11 -29.225,16.538 -57.637,31.696 -80.722,42.646 -11.539,5.474 -21.76,9.891 -29.946,12.877 -8.189,2.988 -14.432,4.368 -16.816,4.369 -2.778,0 -5.211,-0.745 -6.489,-1.49 -0.135,-0.079 -0.156,-0.036 -0.252,-0.076 0.401,-5.039 3.97,-13.72 12.271,-24.416 8.674,-11.177 21.776,-24.035 38.732,-37.066 33.093,-25.432 80.771,-51.441 138.695,-68.855 z"
   fill="#b7c6bc"
   fill-rule="nonzero"
   opacity="1"
   stroke="none"
   vectornator:layerName="WhiteOS"
   id="path10"
   style="display:inline" />
<path
   d="m 629.43,264.82 c -132.771,0 -237.427,61.283 -305.366,130.791 -22.724,-21.165 -35.604,-46.303 -35.602,-73.097 0,-9.784 3.739,-15.943 7.575,-21.361 3.814,-5.385 7.878,-10.122 7.878,-16.841 0,-5.853 -4.745,-11.24 -10.277,-11.236 -6.029,0 -11.485,3.592 -15.402,9.241 -3.923,5.658 -6.363,13.424 -6.363,21.993 0,36.432 17.687,69.206 47.924,95.619 -53.417,55.897 -82.537,116.694 -82.541,154.678 0,9.484 2.799,17.65 7.853,23.456 5.058,5.812 12.349,9.216 21.209,9.216 23.75,0 57.517,-15.682 94.408,-39.237 36.82,-23.51 76.782,-54.961 112.915,-86.757 3.018,0.304 8.11,0.844 11.514,1.187 -27.841,39.766 -47.652,81.403 -47.646,124.934 0,23.366 8.006,45.231 21.462,64.638 0.203,0.293 0.57,0.413 0.909,0.303 1.234,-0.401 2.197,-0.735 3.409,-1.111 0.525,-0.163 0.747,-0.814 0.429,-1.262 -13.432,-18.948 -21.386,-40.289 -21.386,-63.048 0,-41.941 19.741,-84.423 48.226,-124.303 8.047,0.449 16.111,0.937 24.644,0.934 59.306,0 116.884,-16.546 159.677,-41.08 42.749,-24.51 70.925,-57.105 70.925,-89.434 0,-7.714 -2.423,-15.024 -6.464,-21.84 -0.004,-0.007 0.005,-0.019 0,-0.026 -0.472,-0.745 -0.89,-1.662 -1.439,-2.474 -1.971,-2.947 -4.317,-5.72 -6.918,-8.433 -0.765,-0.827 -1.645,-1.593 -2.399,-2.323 -2.912,-2.776 -6.001,-5.597 -9.569,-8.131 -2.718,-1.873 -6.153,-3.825 -9.444,-5.731 C 688.648,272.328 660.655,264.82 629.43,264.82 Z m 31.385,15.275 c 16.421,0 31.687,3.311 44.413,8.939 0.039,0.021 0.344,0.18 0.834,0.429 0.536,0.273 1.269,0.654 2.02,1.035 1.485,0.755 3.128,1.617 3.383,1.793 0.023,0.016 0.051,0.012 0.076,0.025 17.947,9.783 29.515,24.461 29.516,40.727 0,30.698 -26.879,62.149 -68.729,85.924 -41.806,23.751 -98.34,39.744 -157.126,39.743 -7.212,0 -14.054,-0.06 -21.185,-0.43 39.459,-53.465 95.363,-97.018 118.849,-116.071 21.172,-15.967 58.683,-38.718 91.1,-47.267 0.721,-0.19 0.82,-1.158 0.151,-1.49 -2.802,-1.388 -5.193,-2.071 -7.903,-2.903 -0.151,-0.047 -0.302,-0.045 -0.454,0 -30.703,9.066 -61.468,27.295 -85.192,44.691 -0.003,0.002 -2.575,1.919 -2.575,1.919 -0.045,0.024 -0.087,0.069 -0.126,0.101 -25.025,20.37 -58.154,44.313 -136.17,119.127 C 425.071,450.513 382.984,436.226 351.434,416.19 433.686,345.098 552.27,280.092 660.815,280.095 Z m 77.919,3.308 c -5.427,0 -11.116,0.962 -16.69,1.717 -0.722,0.098 -0.944,1.037 -0.353,1.465 1.757,1.269 3.15,2.406 4.797,3.762 0.166,0.136 0.367,0.198 0.581,0.176 3.96,-0.394 7.929,-0.937 11.665,-0.934 52.515,0 93.243,31.859 96.958,67.997 0.906,8.814 -3.587,20.741 -11.211,33.834 -7.611,13.071 -18.288,27.241 -29.466,40.677 -22.357,26.874 -46.773,50.752 -53.125,56.887 -0.409,0.395 -0.29,1.076 0.228,1.313 1.869,0.852 4.556,1.694 6.009,2.449 0.308,0.16 0.685,0.114 0.934,-0.126 6.409,-6.167 30.337,-29.402 52.393,-56.206 11.029,-13.403 21.602,-27.697 29.289,-41.232 7.681,-13.523 12.532,-26.302 11.968,-36.763 -1.097,-20.372 -13.29,-39.151 -32.066,-52.796 -18.783,-13.65 -44.215,-22.223 -71.911,-22.22 z m -391.82,136.625 c 32.834,20.566 74.048,34.475 120.061,40.5 -37.138,32.751 -76.736,62.994 -112.057,85.115 -17.866,11.19 -34.64,20.308 -49.413,26.613 -14.776,6.307 -27.539,9.797 -37.369,9.797 -7.378,0 -12.37,-1.904 -15.528,-5.277 -3.164,-3.379 -4.618,-8.382 -4.621,-14.872 0,-17.006 9.782,-39.394 27.143,-64.134 17.269,-24.606 41.986,-51.506 71.784,-77.742 z m 166.899,4.57 c -9.011,10.805 -17.64,21.929 -25.83,33.127 -2.917,-0.02 -6.204,-0.338 -9.494,-0.682 12.563,-10.944 24.322,-21.896 35.324,-32.445 z m 150.688,52.796 c -74.403,0 -157.041,35.991 -196.364,101.831 -0.237,0.396 -0.104,0.893 0.303,1.111 0.663,0.355 2.012,1.084 2.676,1.439 0.377,0.202 0.836,0.061 1.061,-0.303 39.407,-63.867 119.29,-99.356 192.324,-99.356 25.836,0 49.737,5.677 70.9,14.745 0.016,0.007 0.035,-0.005 0.051,0 0.075,0.027 1.61,0.682 3.055,1.313 0.73,0.319 1.447,0.641 1.995,0.884 0.273,0.122 0.494,0.229 0.656,0.303 0.178,0.081 0.224,0.111 0.253,0.126 0.006,0.004 0.018,-0.003 0.025,0 43.068,20.54 71.963,57.272 71.961,99.306 0,34.469 -20.612,65.728 -54.135,88.424 -33.515,22.69 -79.867,36.761 -131.145,36.763 -36.22,0 -69.839,-7.965 -98.448,-21.26 -0.007,-0.004 -0.017,-0.022 -0.025,-0.026 -1.38,-0.59 -7.354,-3.878 -12.978,-7.069 -2.818,-1.6 -5.574,-3.178 -7.651,-4.394 -1.038,-0.607 -1.898,-1.134 -2.525,-1.515 -0.603,-0.367 -0.959,-0.581 -0.959,-0.581 -0.038,-0.036 -0.082,-0.072 -0.126,-0.101 -11.843,-7.759 -22.214,-16.571 -31.133,-26.234 -0.204,-0.221 -0.517,-0.305 -0.808,-0.227 -1.197,0.323 -2.474,0.561 -3.812,0.96 -0.568,0.169 -0.774,0.846 -0.379,1.287 9.102,10.189 19.714,19.552 31.915,27.724 11.036,7.496 25.016,14.294 25.224,14.392 29.484,13.938 64.254,22.349 101.705,22.346 52.48,0 99.922,-14.603 134.301,-38.202 34.373,-23.595 55.726,-56.224 55.726,-92.287 0,-43.635 -29.244,-81.276 -72.491,-102.639 -0.004,-10e-4 -0.022,-0.023 -0.026,-0.025 -2.447,-1.161 -5.994,-2.555 -8.837,-3.787 -21.654,-9.227 -45.991,-14.951 -72.289,-14.948 z m 66.406,22.699 c -0.298,-0.125 -0.652,-0.047 -0.884,0.177 -59.085,57.016 -106.382,100.153 -150.84,134.983 -27.507,1.367 -53.678,4.941 -78.954,10.327 -0.172,0.037 -5.648,1.106 -5.782,1.137 -9.941,2.179 -19.026,5.147 -28.406,7.802 -0.03,0.008 -0.047,0.013 -0.076,0.025 -0.088,0.036 -3.157,0.923 -3.459,0.985 -0.022,0.004 -0.029,0.019 -0.05,0.025 -61.54,17.931 -112.175,45.473 -147.432,72.693 -17.629,13.61 -31.423,27.125 -40.828,39.364 -9.395,12.225 -14.468,23.215 -14.468,31.789 0,4.566 3.642,8.489 9.09,11.261 5.49,2.793 13.01,4.517 21.31,4.519 54.75,0 93.081,-13.246 137.736,-36.485 27.978,-14.507 70.917,-49.239 93.902,-68.173 0.457,-0.376 0.382,-1.109 -0.151,-1.364 -3.395,-1.618 -19.9,-11.136 -24.82,-14.619 -0.27,-0.191 -0.632,-0.204 -0.909,-0.025 -22.798,14.694 -56.089,36.005 -84.712,52.316 -29.34,16.604 -57.881,31.825 -81.227,42.899 -11.672,5.537 -22.036,10.048 -30.552,13.155 -8.516,3.107 -15.186,4.797 -19.316,4.797 -3.964,0 -7.574,-0.996 -10.15,-2.499 -2.591,-1.513 -4.001,-3.459 -4.015,-5.303 0,0 0,-0.025 0,-0.025 0.01,-7.638 4.755,-18.063 13.938,-29.895 9.179,-11.827 22.724,-25.023 40.071,-38.354 34.695,-26.663 84.616,-53.799 145.436,-71.456 0.205,-0.058 3.427,-0.884 3.687,-0.959 9.431,-2.659 18.522,-5.603 28.38,-7.752 0.012,-0.002 5.528,-1.021 5.706,-1.06 21.765,-4.766 44.852,-7.808 68.729,-9.242 -15.837,12.419 -44.185,32.89 -44.237,32.926 -1.043,0.711 -3.123,2.117 -4.166,2.828 -0.03,0.018 -7.257,4.621 -13.054,8.332 -0.498,0.319 -0.499,1.047 0,1.363 6.744,4.275 14.424,8.368 24.265,12.953 0.28,0.131 0.618,0.094 0.858,-0.101 4.039,-3.279 8.989,-7.297 8.989,-7.297 0.007,-0.006 0.018,-0.019 0.025,-0.025 0.901,-0.782 2.71,-2.349 3.611,-3.131 0.114,-0.102 33.531,-30.859 52.14,-49.009 1.102,0 2.883,0 3.838,0 31.794,0 64.016,3.63 95.316,13.609 0.425,0.136 0.874,-0.081 1.01,-0.505 0.214,-0.663 0.645,-1.987 0.859,-2.651 0.136,-0.425 -0.105,-0.899 -0.531,-1.035 -30.864,-9.841 -62.973,-14.445 -94.735,-14.619 36.84,-36.041 81.074,-80.501 131.549,-130.691 0.401,-0.399 0.289,-1.08 -0.227,-1.313 -1.782,-0.804 -4.523,-1.862 -6.464,-2.677 z"
   fill="#434343"
   fill-rule="nonzero"
   opacity="0"
   stroke="none"
   vectornator:layerName="BlackOS"
   id="path11"
   style="display:inline" />
<path
   d="m 629.434,265.636 c -132.88,0 -237.564,61.491 -305.369,131.117 -23.209,-21.389 -36.408,-46.936 -36.405,-74.233 0,-20.023 15.453,-25.462 15.453,-38.207 0,-5.461 -4.475,-10.432 -9.481,-10.429 -11.376,0 -20.952,13.595 -20.952,30.433 0,36.405 17.767,69.17 48.256,95.564 -53.698,55.974 -82.857,116.949 -82.86,154.723 0,18.658 10.96,31.855 28.252,31.855 46.872,0 134.697,-62.287 207.056,-125.997 l 13.178,1.327 c -28.214,40.046 -48.262,81.928 -48.256,125.618 0,23.177 7.95,44.885 21.331,64.183 1.214,-0.394 2.176,-0.754 3.413,-1.137 -13.51,-19.058 -21.521,-40.568 -21.521,-63.52 0,-42.321 19.966,-85.094 48.636,-125.144 8.191,0.455 16.376,0.951 25.028,0.948 118.318,0 229.809,-65.985 229.809,-129.694 0,-7.541 -2.367,-14.704 -6.352,-21.426 -0.514,-0.811 -0.93,-1.738 -1.422,-2.465 -1.941,-2.902 -4.243,-5.65 -6.826,-8.343 -0.72,-0.778 -1.591,-1.521 -2.37,-2.275 -2.903,-2.768 -5.964,-5.561 -9.48,-8.059 -2.673,-1.842 -6.092,-3.779 -9.386,-5.688 -20.786,-11.679 -48.635,-19.151 -79.732,-19.151 z m 31.381,13.652 c 16.529,0 31.912,3.33 44.748,9.007 -0.066,0.015 5.608,2.807 6.352,3.318 18.091,9.861 29.957,24.751 29.959,41.43 0,62.344 -108.819,126.475 -226.681,126.471 -7.736,0 -15.02,-0.019 -22.753,-0.474 39.591,-54.153 96.266,-98.267 119.929,-117.464 21.234,-16.015 58.8,-38.808 91.393,-47.403 -2.729,-1.353 -5.05,-2.007 -7.774,-2.844 -30.566,9.025 -61.273,27.199 -84.946,44.558 -0.021,0.016 -2.629,1.978 -2.655,1.991 -25.083,20.418 -58.193,44.318 -136.425,119.361 -47.327,-5.916 -90.063,-20.475 -121.92,-40.956 82.367,-71.446 201.557,-136.998 310.773,-136.995 z m 77.93,4.93 c -5.333,0 -11,0.949 -16.591,1.707 1.779,1.285 3.187,2.435 4.835,3.792 3.939,-0.392 7.941,-0.951 11.756,-0.948 52.788,0 93.973,32.036 97.745,68.734 3.753,36.526 -81.324,119.774 -94.047,132.064 1.797,0.82 4.501,1.651 6.067,2.465 12.797,-12.312 95.58,-92.821 93.384,-133.581 -2.162,-40.133 -48.087,-74.238 -103.149,-74.233 z M 346.818,419.032 c 33.22,20.933 75.14,35.043 122.015,40.956 -75.086,66.44 -160.657,122.868 -200.703,122.868 -15.018,0 -20.947,-7.755 -20.953,-20.952 0,-34.585 39.573,-90.085 99.641,-142.872 z m 167.901,3.603 0.948,0.948 c -9.556,11.376 -18.66,23.152 -27.304,34.983 -3.64,0 -7.752,-0.399 -11.85,-0.853 13.652,-11.832 26.375,-23.704 38.206,-35.078 z m 149.793,55.556 c -74.176,0 -156.541,35.912 -195.679,101.442 l 2.655,1.422 c 39.591,-64.165 119.761,-99.736 193.024,-99.736 25.955,0 49.946,5.683 71.199,14.79 0.319,0.113 5.943,2.563 6.068,2.655 43.262,20.632 72.433,57.588 72.432,100.02 0,69.625 -83.259,125.994 -186.104,125.997 -36.338,0 -70.072,-7.987 -98.788,-21.332 -2.973,-1.272 -23.743,-13.137 -24.365,-13.747 -11.896,-7.794 -22.321,-16.644 -31.286,-26.356 -1.241,0.335 -2.508,0.566 -3.792,0.948 9.058,10.14 19.616,19.455 31.76,27.589 10.964,7.447 24.946,14.232 25.124,14.316 29.376,13.886 64.017,22.282 101.347,22.279 104.665,0 189.232,-58.249 189.232,-129.694 0,-43.247 -28.997,-80.649 -72.052,-101.917 -2.408,-1.142 -5.959,-2.553 -8.817,-3.792 -21.564,-9.188 -45.778,-14.887 -71.958,-14.884 z m 66.08,22.658 c -59.18,57.108 -106.569,100.308 -151.12,135.193 -27.557,1.356 -53.754,4.939 -79.068,10.334 -0.186,0.04 -5.685,1.116 -5.784,1.138 -9.89,2.169 -18.946,5.114 -28.346,7.774 -0.237,0.097 -3.176,0.956 -3.603,1.043 -122.881,35.805 -202.128,109.973 -202.126,143.062 0,8.191 13.197,14.975 29.579,14.979 54.609,0 92.778,-13.197 137.374,-36.405 27.842,-14.437 70.791,-49.147 93.763,-68.071 -3.489,-1.663 -19.927,-11.15 -24.934,-14.695 -22.801,14.697 -56.106,36.006 -84.756,52.333 -58.704,33.22 -114.2,60.956 -131.496,60.96 -8.191,0 -14.975,-4.077 -14.979,-8.627 0,-31.804 78.201,-105.13 200.04,-140.502 0.232,-0.066 3.528,-0.898 3.697,-0.949 9.418,-2.655 18.525,-5.613 28.442,-7.774 0,0 5.564,-1.015 5.688,-1.042 22.645,-4.959 46.683,-8.123 71.579,-9.481 -15.381,12.214 -46.361,34.54 -46.455,34.604 l -4.172,2.844 c -0.009,0.007 -7.28,4.628 -13.083,8.343 6.705,4.251 14.355,8.318 24.176,12.894 4.039,-3.28 9.008,-7.302 9.006,-7.3 l 3.603,-3.129 c 0.092,-0.081 33.784,-31.1 52.333,-49.204 h 4.171 c 31.855,0 64.164,3.64 95.564,13.652 l 0.854,-2.655 c -31.4,-10.011 -64.108,-14.604 -96.418,-14.6 37.079,-36.245 81.869,-81.303 132.918,-132.064 -1.744,-0.787 -4.488,-1.833 -6.447,-2.655 z"
   fill="#265f2b"
   fill-rule="nonzero"
   opacity="1"
   stroke="none"
   vectornator:layerName="Colour"
   id="path12"
   style="display:inline" />
</g>
<g
   opacity="1"
   vectornator:layerName="Group 4"
   id="g16"
   style="display:inline">
<path
   d="M 540,1027.13 217.181,909.621 45.4119,612.074 105.067,273.716 368.231,52.8687 H 711.769 L 974.933,273.716 1034.59,612.074 862.819,909.621 Z"
   fill="#ffc2d1"
   fill-rule="nonzero"
   opacity="1"
   stroke="#ffc2d1"
   stroke-linecap="butt"
   stroke-linejoin="round"
   stroke-width="5.17879"
   vectornator:layerName="Polygon 1"
   id="path13"
   style="display:inline" />
<path
   d="m 629.43,257.548 c -131.804,0 -236.238,59.386 -305.341,127.837 -18.436,-18.998 -28.357,-40.472 -28.355,-62.871 0,-7.735 2.646,-12.098 6.236,-17.169 3.367,-4.754 9.217,-11.201 9.216,-21.033 0,-9.386 -7.283,-18.515 -17.548,-18.508 -9.101,0 -16.561,5.414 -21.386,12.373 -4.882,7.04 -7.651,16.211 -7.651,26.133 0,36.569 16.905,69.351 44.97,95.947 -51.031,55.209 -79.583,114.555 -79.587,154.35 0,10.878 3.222,20.848 9.646,28.229 6.465,7.428 15.905,11.715 26.688,11.715 26.577,0 61.153,-16.667 98.321,-40.399 33.556,-21.425 69.341,-49.21 102.69,-77.869 -21.947,35.071 -37.097,72.077 -37.092,111.123 0,23.313 7.534,45.073 19.947,64.411 -57.764,18.17 -105.592,44.415 -139.604,70.673 -18.023,13.915 -32.229,27.804 -42.141,40.702 -9.807,12.761 -15.983,24.915 -15.983,36.208 0,8.804 6.724,14.516 13.08,17.75 6.773,3.446 15.314,5.3 24.592,5.302 56.022,0 95.913,-13.806 141.094,-37.318 29.206,-15.144 72.063,-49.976 95.165,-69.007 0.329,-0.271 0.586,-0.58 0.858,-0.884 29.595,13.318 63.958,21.314 100.872,21.311 53.805,0 102.644,-14.909 138.417,-39.465 35.704,-24.508 58.881,-59.173 58.881,-98.296 0,-44 -27.518,-81.623 -67.769,-104.507 8.582,-8.325 28.973,-28.411 49.413,-53.251 11.196,-13.606 21.987,-28.167 29.996,-42.267 7.944,-13.986 13.598,-27.854 12.903,-40.753 -1.246,-23.122 -14.995,-43.703 -35.046,-58.276 -20.114,-14.617 -46.997,-23.611 -76.178,-23.608 -6.275,0 -12.252,1.058 -17.674,1.793 -1.752,0.237 -3.19,0.996 -4.318,2.02 -1.2,-0.701 -2.374,-1.474 -3.535,-2.146 -0.03,-0.018 -0.044,-0.033 -0.076,-0.051 -22.162,-12.453 -51.328,-20.199 -83.701,-20.199 z m 31.385,29.819 c 6.072,0 11.891,0.613 17.523,1.515 -26.477,10.18 -51.788,25.634 -72.062,40.5 l -1.717,1.389 c -0.451,0.242 -0.865,0.51 -1.262,0.833 C 578.79,351.552 545.438,375.806 469.273,448.66 429.034,443.206 392.541,431.364 363.958,415.154 445.03,347.36 558.297,287.364 660.815,287.367 Z m 77.919,9.494 c 50.052,0 86.515,30.363 89.711,61.457 0.613,5.964 -2.836,16.706 -10.251,29.441 -7.285,12.511 -17.739,26.446 -28.759,39.692 -22.059,26.515 -46.337,50.262 -52.594,56.306 -0.187,0.18 -0.315,0.389 -0.48,0.581 -21.642,-8.777 -45.812,-14.218 -71.86,-14.216 -76.451,0 -161.608,36.73 -202.601,105.366 -2.364,3.958 -0.958,9.084 3.106,11.261 0.663,0.356 2.013,1.084 2.676,1.439 3.765,2.017 8.438,0.757 10.681,-2.878 37.753,-61.187 115.165,-95.923 186.138,-95.922 20.116,0 38.917,3.705 56.205,9.721 -56.204,54.108 -101.815,95.58 -144.35,129.049 -26.999,1.476 -52.774,5.027 -77.642,10.327 -0.038,0.008 -5.393,1.032 -5.858,1.136 -8.279,1.817 -15.774,4.088 -23.154,6.262 -0.022,-0.032 -0.028,-0.069 -0.05,-0.101 -12.731,-17.957 -20.048,-37.833 -20.048,-58.856 0,-38.556 17.907,-78.531 44.691,-116.829 6.73,0.371 13.592,0.734 20.907,0.732 60.635,0 119.322,-16.833 163.287,-42.04 43.528,-24.956 74.587,-59.151 74.587,-95.746 0,-9.27 -2.928,-17.883 -7.474,-25.552 -0.041,-0.069 -0.083,-0.134 -0.126,-0.202 -0.097,-0.152 -0.517,-1.101 -1.54,-2.626 -0.008,-0.012 -0.018,-0.039 -0.026,-0.05 -1.834,-2.738 -3.929,-5.252 -6.135,-7.676 0.277,-0.007 0.693,-0.076 0.959,-0.076 z m -29.087,2.803 c 15.599,9.006 24.137,21.253 24.138,33.379 0,26.428 -23.981,56.259 -65.042,79.586 -40.624,23.08 -96.053,38.811 -153.541,38.809 -2.287,0 -4.463,-0.037 -6.666,-0.051 37.794,-47.195 86.783,-85.599 108.698,-103.371 0.023,-0.017 0.053,-0.033 0.076,-0.05 0.039,-0.032 0.112,-0.095 0.152,-0.126 20.652,-15.537 57.648,-37.751 88.372,-45.853 1.601,-0.422 2.84,-1.279 3.813,-2.323 z M 347.899,429.016 c 29.089,17.274 63.798,29.645 102.21,36.334 -33.313,28.482 -67.935,54.643 -99.054,74.132 -17.636,11.046 -34.123,19.988 -48.403,26.083 -14.317,6.111 -26.326,9.216 -34.516,9.216 -6.206,0 -8.884,-1.547 -10.226,-2.979 -1.397,-1.492 -2.649,-4.38 -2.651,-9.898 0,-14.422 8.828,-35.741 25.83,-59.967 16.071,-22.901 39.144,-48.123 66.81,-72.921 z m 395.355,79.561 c 38.459,20.052 62.872,53.337 62.871,90.216 0,31.372 -18.734,60.618 -50.928,82.414 -32.118,21.745 -77.101,35.499 -127.08,35.501 -30.164,0 -58.413,-5.72 -83.298,-15.453 1.607,-1.298 4.267,-3.459 4.267,-3.459 0.073,-0.059 0.157,-0.141 0.227,-0.202 0.901,-0.782 2.711,-2.349 3.611,-3.131 0.024,-0.02 0.027,-0.029 0.051,-0.05 0.311,-0.277 31.152,-28.705 50.195,-47.166 0.323,0 0.721,0 0.96,0 31.245,0 62.687,3.586 93.094,13.281 4.245,1.353 8.788,-0.986 10.151,-5.227 0.213,-0.663 0.645,-1.987 0.858,-2.651 1.368,-4.255 -0.993,-8.818 -5.252,-10.175 -26.085,-8.317 -52.984,-12.938 -79.813,-14.418 34.554,-34.008 74.111,-73.635 119.556,-118.823 0.206,-0.206 0.351,-0.438 0.53,-0.657 z M 547.293,650.58 c -12.433,9.217 -23.759,17.472 -23.759,17.472 -1.043,0.711 -3.124,2.117 -4.166,2.828 -0.231,0.147 -7.172,4.562 -12.903,8.231 -0.45,0.288 -0.693,0.713 -1.06,1.061 -7.844,-5.466 -14.965,-11.408 -21.361,-17.776 4.954,-1.427 9.896,-2.762 14.947,-3.863 0.544,-0.098 5.072,-0.895 5.707,-1.035 13.681,-2.996 27.952,-5.257 42.595,-6.918 z m -84.257,17.927 c 0.246,0.395 0.483,0.797 0.808,1.161 6.929,7.756 14.72,15.049 23.356,21.74 -22.535,14.502 -52.936,33.893 -79.637,49.11 -29.225,16.538 -57.637,31.696 -80.722,42.646 -11.539,5.474 -21.76,9.891 -29.946,12.877 -8.189,2.988 -14.432,4.368 -16.816,4.369 -2.778,0 -5.211,-0.745 -6.489,-1.49 -0.135,-0.079 -0.156,-0.036 -0.252,-0.076 0.401,-5.039 3.97,-13.72 12.271,-24.416 8.674,-11.177 21.776,-24.035 38.732,-37.066 33.093,-25.432 80.771,-51.441 138.695,-68.855 z"
   fill="#ffc2d1"
   fill-rule="nonzero"
   opacity="1"
   stroke="none"
   vectornator:layerName="WhiteOS"
   id="path14"
   style="display:inline" />
<path
   d="m 629.43,264.82 c -132.771,0 -237.427,61.283 -305.366,130.791 -22.724,-21.165 -35.604,-46.303 -35.602,-73.097 0,-9.784 3.739,-15.943 7.575,-21.361 3.814,-5.385 7.878,-10.122 7.878,-16.841 0,-5.853 -4.745,-11.24 -10.277,-11.236 -6.029,0 -11.485,3.592 -15.402,9.241 -3.923,5.658 -6.363,13.424 -6.363,21.993 0,36.432 17.687,69.206 47.924,95.619 -53.417,55.897 -82.537,116.694 -82.541,154.678 0,9.484 2.799,17.65 7.853,23.456 5.058,5.812 12.349,9.216 21.209,9.216 23.75,0 57.517,-15.682 94.408,-39.237 36.82,-23.51 76.782,-54.961 112.915,-86.757 3.018,0.304 8.11,0.844 11.514,1.187 -27.841,39.766 -47.652,81.403 -47.646,124.934 0,23.366 8.006,45.231 21.462,64.638 0.203,0.293 0.57,0.413 0.909,0.303 1.234,-0.401 2.197,-0.735 3.409,-1.111 0.525,-0.163 0.747,-0.814 0.429,-1.262 -13.432,-18.948 -21.386,-40.289 -21.386,-63.048 0,-41.941 19.741,-84.423 48.226,-124.303 8.047,0.449 16.111,0.937 24.644,0.934 59.306,0 116.884,-16.546 159.677,-41.08 42.749,-24.51 70.925,-57.105 70.925,-89.434 0,-7.714 -2.423,-15.024 -6.464,-21.84 -0.004,-0.007 0.005,-0.019 0,-0.026 -0.472,-0.745 -0.89,-1.662 -1.439,-2.474 -1.971,-2.947 -4.317,-5.72 -6.918,-8.433 -0.765,-0.827 -1.645,-1.593 -2.399,-2.323 -2.912,-2.776 -6.001,-5.597 -9.569,-8.131 -2.718,-1.873 -6.153,-3.825 -9.444,-5.731 C 688.648,272.328 660.655,264.82 629.43,264.82 Z m 31.385,15.275 c 16.421,0 31.687,3.311 44.413,8.939 0.039,0.021 0.344,0.18 0.834,0.429 0.536,0.273 1.269,0.654 2.02,1.035 1.485,0.755 3.128,1.617 3.383,1.793 0.023,0.016 0.051,0.012 0.076,0.025 17.947,9.783 29.515,24.461 29.516,40.727 0,30.698 -26.879,62.149 -68.729,85.924 -41.806,23.751 -98.34,39.744 -157.126,39.743 -7.212,0 -14.054,-0.06 -21.185,-0.43 39.459,-53.465 95.363,-97.018 118.849,-116.071 21.172,-15.967 58.683,-38.718 91.1,-47.267 0.721,-0.19 0.82,-1.158 0.151,-1.49 -2.802,-1.388 -5.193,-2.071 -7.903,-2.903 -0.151,-0.047 -0.302,-0.045 -0.454,0 -30.703,9.066 -61.468,27.295 -85.192,44.691 -0.003,0.002 -2.575,1.919 -2.575,1.919 -0.045,0.024 -0.087,0.069 -0.126,0.101 -25.025,20.37 -58.154,44.313 -136.17,119.127 C 425.071,450.513 382.984,436.226 351.434,416.19 433.686,345.098 552.27,280.092 660.815,280.095 Z m 77.919,3.308 c -5.427,0 -11.116,0.962 -16.69,1.717 -0.722,0.098 -0.944,1.037 -0.353,1.465 1.757,1.269 3.15,2.406 4.797,3.762 0.166,0.136 0.367,0.198 0.581,0.176 3.96,-0.394 7.929,-0.937 11.665,-0.934 52.515,0 93.243,31.859 96.958,67.997 0.906,8.814 -3.587,20.741 -11.211,33.834 -7.611,13.071 -18.288,27.241 -29.466,40.677 -22.357,26.874 -46.773,50.752 -53.125,56.887 -0.409,0.395 -0.29,1.076 0.228,1.313 1.869,0.852 4.556,1.694 6.009,2.449 0.308,0.16 0.685,0.114 0.934,-0.126 6.409,-6.167 30.337,-29.402 52.393,-56.206 11.029,-13.403 21.602,-27.697 29.289,-41.232 7.681,-13.523 12.532,-26.302 11.968,-36.763 -1.097,-20.372 -13.29,-39.151 -32.066,-52.796 -18.783,-13.65 -44.215,-22.223 -71.911,-22.22 z m -391.82,136.625 c 32.834,20.566 74.048,34.475 120.061,40.5 -37.138,32.751 -76.736,62.994 -112.057,85.115 -17.866,11.19 -34.64,20.308 -49.413,26.613 -14.776,6.307 -27.539,9.797 -37.369,9.797 -7.378,0 -12.37,-1.904 -15.528,-5.277 -3.164,-3.379 -4.618,-8.382 -4.621,-14.872 0,-17.006 9.782,-39.394 27.143,-64.134 17.269,-24.606 41.986,-51.506 71.784,-77.742 z m 166.899,4.57 c -9.011,10.805 -17.64,21.929 -25.83,33.127 -2.917,-0.02 -6.204,-0.338 -9.494,-0.682 12.563,-10.944 24.322,-21.896 35.324,-32.445 z m 150.688,52.796 c -74.403,0 -157.041,35.991 -196.364,101.831 -0.237,0.396 -0.104,0.893 0.303,1.111 0.663,0.355 2.012,1.084 2.676,1.439 0.377,0.202 0.836,0.061 1.061,-0.303 39.407,-63.867 119.29,-99.356 192.324,-99.356 25.836,0 49.737,5.677 70.9,14.745 0.016,0.007 0.035,-0.005 0.051,0 0.075,0.027 1.61,0.682 3.055,1.313 0.73,0.319 1.447,0.641 1.995,0.884 0.273,0.122 0.494,0.229 0.656,0.303 0.178,0.081 0.224,0.111 0.253,0.126 0.006,0.004 0.018,-0.003 0.025,0 43.068,20.54 71.963,57.272 71.961,99.306 0,34.469 -20.612,65.728 -54.135,88.424 -33.515,22.69 -79.867,36.761 -131.145,36.763 -36.22,0 -69.839,-7.965 -98.448,-21.26 -0.007,-0.004 -0.017,-0.022 -0.025,-0.026 -1.38,-0.59 -7.354,-3.878 -12.978,-7.069 -2.818,-1.6 -5.574,-3.178 -7.651,-4.394 -1.038,-0.607 -1.898,-1.134 -2.525,-1.515 -0.603,-0.367 -0.959,-0.581 -0.959,-0.581 -0.038,-0.036 -0.082,-0.072 -0.126,-0.101 -11.843,-7.759 -22.214,-16.571 -31.133,-26.234 -0.204,-0.221 -0.517,-0.305 -0.808,-0.227 -1.197,0.323 -2.474,0.561 -3.812,0.96 -0.568,0.169 -0.774,0.846 -0.379,1.287 9.102,10.189 19.714,19.552 31.915,27.724 11.036,7.496 25.016,14.294 25.224,14.392 29.484,13.938 64.254,22.349 101.705,22.346 52.48,0 99.922,-14.603 134.301,-38.202 34.373,-23.595 55.726,-56.224 55.726,-92.287 0,-43.635 -29.244,-81.276 -72.491,-102.639 -0.004,-10e-4 -0.022,-0.023 -0.026,-0.025 -2.447,-1.161 -5.994,-2.555 -8.837,-3.787 -21.654,-9.227 -45.991,-14.951 -72.289,-14.948 z m 66.406,22.699 c -0.298,-0.125 -0.652,-0.047 -0.884,0.177 -59.085,57.016 -106.382,100.153 -150.84,134.983 -27.507,1.367 -53.678,4.941 -78.954,10.327 -0.172,0.037 -5.648,1.106 -5.782,1.137 -9.941,2.179 -19.026,5.147 -28.406,7.802 -0.03,0.008 -0.047,0.013 -0.076,0.025 -0.088,0.036 -3.157,0.923 -3.459,0.985 -0.022,0.004 -0.029,0.019 -0.05,0.025 -61.54,17.931 -112.175,45.473 -147.432,72.693 -17.629,13.61 -31.423,27.125 -40.828,39.364 -9.395,12.225 -14.468,23.215 -14.468,31.789 0,4.566 3.642,8.489 9.09,11.261 5.49,2.793 13.01,4.517 21.31,4.519 54.75,0 93.081,-13.246 137.736,-36.485 27.978,-14.507 70.917,-49.239 93.902,-68.173 0.457,-0.376 0.382,-1.109 -0.151,-1.364 -3.395,-1.618 -19.9,-11.136 -24.82,-14.619 -0.27,-0.191 -0.632,-0.204 -0.909,-0.025 -22.798,14.694 -56.089,36.005 -84.712,52.316 -29.34,16.604 -57.881,31.825 -81.227,42.899 -11.672,5.537 -22.036,10.048 -30.552,13.155 -8.516,3.107 -15.186,4.797 -19.316,4.797 -3.964,0 -7.574,-0.996 -10.15,-2.499 -2.591,-1.513 -4.001,-3.459 -4.015,-5.303 0,0 0,-0.025 0,-0.025 0.01,-7.638 4.755,-18.063 13.938,-29.895 9.179,-11.827 22.724,-25.023 40.071,-38.354 34.695,-26.663 84.616,-53.799 145.436,-71.456 0.205,-0.058 3.427,-0.884 3.687,-0.959 9.431,-2.659 18.522,-5.603 28.38,-7.752 0.012,-0.002 5.528,-1.021 5.706,-1.06 21.765,-4.766 44.852,-7.808 68.729,-9.242 -15.837,12.419 -44.185,32.89 -44.237,32.926 -1.043,0.711 -3.123,2.117 -4.166,2.828 -0.03,0.018 -7.257,4.621 -13.054,8.332 -0.498,0.319 -0.499,1.047 0,1.363 6.744,4.275 14.424,8.368 24.265,12.953 0.28,0.131 0.618,0.094 0.858,-0.101 4.039,-3.279 8.989,-7.297 8.989,-7.297 0.007,-0.006 0.018,-0.019 0.025,-0.025 0.901,-0.782 2.71,-2.349 3.611,-3.131 0.114,-0.102 33.531,-30.859 52.14,-49.009 1.102,0 2.883,0 3.838,0 31.794,0 64.016,3.63 95.316,13.609 0.425,0.136 0.874,-0.081 1.01,-0.505 0.214,-0.663 0.645,-1.987 0.859,-2.651 0.136,-0.425 -0.105,-0.899 -0.531,-1.035 -30.864,-9.841 -62.973,-14.445 -94.735,-14.619 36.84,-36.041 81.074,-80.501 131.549,-130.691 0.401,-0.399 0.289,-1.08 -0.227,-1.313 -1.782,-0.804 -4.523,-1.862 -6.464,-2.677 z"
   fill="#434343"
   fill-rule="nonzero"
   opacity="0"
   stroke="none"
   vectornator:layerName="BlackOS"
   id="path15"
   style="display:inline" />
<path
   d="m 629.434,265.636 c -132.88,0 -237.564,61.491 -305.369,131.117 -23.209,-21.389 -36.408,-46.936 -36.405,-74.233 0,-20.023 15.453,-25.462 15.453,-38.207 0,-5.461 -4.475,-10.432 -9.481,-10.429 -11.376,0 -20.952,13.595 -20.952,30.433 0,36.405 17.767,69.17 48.256,95.564 -53.698,55.974 -82.857,116.949 -82.86,154.723 0,18.658 10.96,31.855 28.252,31.855 46.872,0 134.697,-62.287 207.056,-125.997 l 13.178,1.327 c -28.214,40.046 -48.262,81.928 -48.256,125.618 0,23.177 7.95,44.885 21.331,64.183 1.214,-0.394 2.176,-0.754 3.413,-1.137 -13.51,-19.058 -21.521,-40.568 -21.521,-63.52 0,-42.321 19.966,-85.094 48.636,-125.144 8.191,0.455 16.376,0.951 25.028,0.948 118.318,0 229.809,-65.985 229.809,-129.694 0,-7.541 -2.367,-14.704 -6.352,-21.426 -0.514,-0.811 -0.93,-1.738 -1.422,-2.465 -1.941,-2.902 -4.243,-5.65 -6.826,-8.343 -0.72,-0.778 -1.591,-1.521 -2.37,-2.275 -2.903,-2.768 -5.964,-5.561 -9.48,-8.059 -2.673,-1.842 -6.092,-3.779 -9.386,-5.688 -20.786,-11.679 -48.635,-19.151 -79.732,-19.151 z m 31.381,13.652 c 16.529,0 31.912,3.33 44.748,9.007 -0.066,0.015 5.608,2.807 6.352,3.318 18.091,9.861 29.957,24.751 29.959,41.43 0,62.344 -108.819,126.475 -226.681,126.471 -7.736,0 -15.02,-0.019 -22.753,-0.474 39.591,-54.153 96.266,-98.267 119.929,-117.464 21.234,-16.015 58.8,-38.808 91.393,-47.403 -2.729,-1.353 -5.05,-2.007 -7.774,-2.844 -30.566,9.025 -61.273,27.199 -84.946,44.558 -0.021,0.016 -2.629,1.978 -2.655,1.991 -25.083,20.418 -58.193,44.318 -136.425,119.361 -47.327,-5.916 -90.063,-20.475 -121.92,-40.956 82.367,-71.446 201.557,-136.998 310.773,-136.995 z m 77.93,4.93 c -5.333,0 -11,0.949 -16.591,1.707 1.779,1.285 3.187,2.435 4.835,3.792 3.939,-0.392 7.941,-0.951 11.756,-0.948 52.788,0 93.973,32.036 97.745,68.734 3.753,36.526 -81.324,119.774 -94.047,132.064 1.797,0.82 4.501,1.651 6.067,2.465 12.797,-12.312 95.58,-92.821 93.384,-133.581 -2.162,-40.133 -48.087,-74.238 -103.149,-74.233 z M 346.818,419.032 c 33.22,20.933 75.14,35.043 122.015,40.956 -75.086,66.44 -160.657,122.868 -200.703,122.868 -15.018,0 -20.947,-7.755 -20.953,-20.952 0,-34.585 39.573,-90.085 99.641,-142.872 z m 167.901,3.603 0.948,0.948 c -9.556,11.376 -18.66,23.152 -27.304,34.983 -3.64,0 -7.752,-0.399 -11.85,-0.853 13.652,-11.832 26.375,-23.704 38.206,-35.078 z m 149.793,55.556 c -74.176,0 -156.541,35.912 -195.679,101.442 l 2.655,1.422 c 39.591,-64.165 119.761,-99.736 193.024,-99.736 25.955,0 49.946,5.683 71.199,14.79 0.319,0.113 5.943,2.563 6.068,2.655 43.262,20.632 72.433,57.588 72.432,100.02 0,69.625 -83.259,125.994 -186.104,125.997 -36.338,0 -70.072,-7.987 -98.788,-21.332 -2.973,-1.272 -23.743,-13.137 -24.365,-13.747 -11.896,-7.794 -22.321,-16.644 -31.286,-26.356 -1.241,0.335 -2.508,0.566 -3.792,0.948 9.058,10.14 19.616,19.455 31.76,27.589 10.964,7.447 24.946,14.232 25.124,14.316 29.376,13.886 64.017,22.282 101.347,22.279 104.665,0 189.232,-58.249 189.232,-129.694 0,-43.247 -28.997,-80.649 -72.052,-101.917 -2.408,-1.142 -5.959,-2.553 -8.817,-3.792 -21.564,-9.188 -45.778,-14.887 -71.958,-14.884 z m 66.08,22.658 c -59.18,57.108 -106.569,100.308 -151.12,135.193 -27.557,1.356 -53.754,4.939 -79.068,10.334 -0.186,0.04 -5.685,1.116 -5.784,1.138 -9.89,2.169 -18.946,5.114 -28.346,7.774 -0.237,0.097 -3.176,0.956 -3.603,1.043 -122.881,35.805 -202.128,109.973 -202.126,143.062 0,8.191 13.197,14.975 29.579,14.979 54.609,0 92.778,-13.197 137.374,-36.405 27.842,-14.437 70.791,-49.147 93.763,-68.071 -3.489,-1.663 -19.927,-11.15 -24.934,-14.695 -22.801,14.697 -56.106,36.006 -84.756,52.333 -58.704,33.22 -114.2,60.956 -131.496,60.96 -8.191,0 -14.975,-4.077 -14.979,-8.627 0,-31.804 78.201,-105.13 200.04,-140.502 0.232,-0.066 3.528,-0.898 3.697,-0.949 9.418,-2.655 18.525,-5.613 28.442,-7.774 0,0 5.564,-1.015 5.688,-1.042 22.645,-4.959 46.683,-8.123 71.579,-9.481 -15.381,12.214 -46.361,34.54 -46.455,34.604 l -4.172,2.844 c -0.009,0.007 -7.28,4.628 -13.083,8.343 6.705,4.251 14.355,8.318 24.176,12.894 4.039,-3.28 9.008,-7.302 9.006,-7.3 l 3.603,-3.129 c 0.092,-0.081 33.784,-31.1 52.333,-49.204 h 4.171 c 31.855,0 64.164,3.64 95.564,13.652 l 0.854,-2.655 c -31.4,-10.011 -64.108,-14.604 -96.418,-14.6 37.079,-36.245 81.869,-81.303 132.918,-132.064 -1.744,-0.787 -4.488,-1.833 -6.447,-2.655 z"
   fill="#9e2141"
   fill-rule="nonzero"
   opacity="1"
   stroke="none"
   vectornator:layerName="Colour"
   id="path16"
   style="display:inline" />
</g>
</g>
</svg>
