<?xml version="1.0" encoding="UTF-8" standalone="no"?>
<!DOCTYPE svg PUBLIC "-//W3C//DTD SVG 1.1//EN" "http://www.w3.org/Graphics/SVG/1.1/DTD/svg11.dtd">
<!-- Created with Vectornator (http://vectornator.io/) -->
<svg height="100%" stroke-miterlimit="10" style="fill-rule:nonzero;clip-rule:evenodd;stroke-linecap:round;stroke-linejoin:round;" version="1.1" viewBox="0 0 1080 1080" width="100%" xml:space="preserve" xmlns="http://www.w3.org/2000/svg" xmlns:vectornator="http://vectornator.io" xmlns:xlink="http://www.w3.org/1999/xlink">
<defs/>
<clipPath id="ArtboardFrame">
<rect height="1080" width="1080" x="0" y="0"/>
</clipPath>
<g clip-path="url(#ArtboardFrame)" id="Layer-1" vectornator:layerName="Layer 1">
<g opacity="0" vectornator:layerName="Group 1">
<path d="M318.746 627.881L110.699 552.149L0 360.39L38.4455 142.329L208.047 0L429.445 0L599.046 142.329L637.492 360.39L526.793 552.149L318.746 627.881Z" fill="#f8f6f3" fill-rule="nonzero" opacity="1" stroke="#c1a06a" stroke-linecap="butt" stroke-linejoin="round" stroke-width="3.33756" vectornator:layerName="Polygon 1"/>
<path d="M376.381 131.909C291.437 131.909 224.133 170.182 179.598 214.296C167.717 202.053 161.323 188.213 161.324 173.778C161.324 168.792 163.029 165.981 165.344 162.713C167.513 159.649 171.283 155.494 171.283 149.158C171.283 143.108 166.589 137.225 159.974 137.23C154.108 137.23 149.3 140.719 146.191 145.204C143.045 149.741 141.26 155.651 141.26 162.046C141.26 185.613 152.155 206.741 170.242 223.881C137.354 259.461 118.953 297.708 118.951 323.354C118.951 330.365 121.027 336.79 125.167 341.546C129.334 346.334 135.418 349.097 142.367 349.097C159.495 349.097 181.778 338.356 205.732 323.061C227.357 309.253 250.419 291.347 271.912 272.877C257.767 295.479 248.004 319.328 248.007 344.492C248.007 359.516 252.863 373.54 260.863 386.003C223.635 397.713 192.812 414.627 170.893 431.549C159.277 440.517 150.122 449.468 143.734 457.78C137.414 466.005 133.433 473.837 133.433 481.115C133.433 486.789 137.767 490.47 141.863 492.554C146.228 494.775 151.732 495.97 157.712 495.972C193.816 495.972 219.525 487.074 248.642 471.921C267.464 462.161 295.084 439.713 309.973 427.449C310.185 427.274 310.351 427.074 310.526 426.879C329.599 435.462 351.745 440.615 375.534 440.613C410.21 440.613 441.685 431.005 464.74 415.179C487.75 399.384 502.687 377.044 502.687 351.831C502.687 323.474 484.952 299.227 459.012 284.479C464.542 279.114 477.684 266.169 490.857 250.161C498.072 241.392 505.027 232.008 510.189 222.921C515.308 213.907 518.951 204.97 518.504 196.657C517.701 181.755 508.84 168.492 495.918 159.1C482.955 149.68 465.63 143.884 446.824 143.886C442.779 143.886 438.927 144.567 435.433 145.041C434.304 145.194 433.377 145.683 432.651 146.343C431.877 145.891 431.12 145.393 430.372 144.959C430.353 144.948 430.344 144.938 430.324 144.927C416.041 136.901 397.244 131.909 376.381 131.909ZM396.607 151.127C400.521 151.127 404.271 151.522 407.9 152.103C390.837 158.663 374.525 168.623 361.459 178.204L360.352 179.099C360.061 179.255 359.795 179.428 359.539 179.636C343.745 192.492 322.251 208.122 273.165 255.075C247.232 251.56 223.713 243.928 205.292 233.481C257.541 189.79 330.538 151.125 396.607 151.127ZM446.824 157.245C479.08 157.245 502.58 176.813 504.64 196.852C505.035 200.695 502.812 207.618 498.033 215.826C493.338 223.889 486.601 232.869 479.499 241.406C465.283 258.494 449.636 273.799 445.603 277.694C445.483 277.81 445.401 277.944 445.294 278.068C431.347 272.412 415.77 268.905 398.983 268.906C349.713 268.906 294.832 292.578 268.413 336.811C266.89 339.362 267.796 342.666 270.415 344.069C270.842 344.298 271.712 344.767 272.139 344.996C274.566 346.296 277.577 345.484 279.023 343.141C303.354 303.708 353.243 281.322 398.983 281.322C411.947 281.322 424.064 283.711 435.205 287.587C398.984 322.458 369.589 349.185 342.176 370.755C324.776 371.706 308.165 373.995 292.138 377.411C292.114 377.416 288.663 378.076 288.363 378.143C283.028 379.314 278.197 380.778 273.441 382.179C273.427 382.158 273.423 382.134 273.409 382.114C265.204 370.541 260.488 357.732 260.488 344.183C260.488 319.334 272.029 293.572 289.291 268.89C293.628 269.129 298.05 269.363 302.764 269.362C341.842 269.362 379.664 258.513 407.998 242.268C436.05 226.185 456.066 204.148 456.067 180.564C456.067 174.589 454.179 169.038 451.25 164.096C451.223 164.051 451.196 164.01 451.169 163.966C451.106 163.868 450.835 163.256 450.176 162.273C450.171 162.266 450.165 162.248 450.16 162.241C448.977 160.477 447.627 158.856 446.205 157.294C446.384 157.29 446.652 157.245 446.824 157.245ZM428.078 159.051C438.131 164.855 443.634 172.748 443.634 180.564C443.634 197.595 428.179 216.82 401.717 231.854C375.536 246.728 339.814 256.866 302.764 256.865C301.29 256.865 299.888 256.841 298.468 256.832C322.826 226.417 354.397 201.666 368.521 190.213C368.535 190.202 368.555 190.191 368.57 190.181C368.595 190.16 368.642 190.12 368.667 190.099C381.977 180.086 405.82 165.77 425.621 160.548C426.652 160.276 427.451 159.724 428.078 159.051ZM194.943 242.415C213.69 253.547 236.059 261.52 260.814 265.831C239.345 284.186 217.032 301.046 196.977 313.607C185.611 320.725 174.986 326.488 165.783 330.416C156.556 334.354 148.816 336.356 143.539 336.356C139.539 336.356 137.813 335.359 136.948 334.435C136.048 333.474 135.241 331.613 135.24 328.057C135.24 318.762 140.929 305.023 151.886 289.41C162.244 274.651 177.113 258.397 194.943 242.415ZM449.737 293.689C474.522 306.612 490.256 328.063 490.255 351.831C490.255 372.048 478.181 390.897 457.433 404.944C436.734 418.958 407.744 427.822 375.534 427.823C356.095 427.823 337.889 424.136 321.852 417.864C322.887 417.027 324.602 415.635 324.602 415.635C324.648 415.597 324.703 415.544 324.748 415.505C325.329 415.001 326.495 413.991 327.075 413.487C327.09 413.474 327.093 413.468 327.108 413.454C327.308 413.276 347.184 394.955 359.457 383.057C359.665 383.057 359.922 383.057 360.076 383.057C380.212 383.057 400.475 385.369 420.072 391.617C422.807 392.489 425.735 390.981 426.613 388.248C426.751 387.821 427.029 386.967 427.167 386.54C428.048 383.797 426.526 380.857 423.782 379.982C406.971 374.622 389.636 371.644 372.345 370.69C394.614 348.773 420.107 323.235 449.395 294.112C449.528 293.98 449.621 293.831 449.737 293.689ZM323.446 385.205C315.433 391.146 308.134 396.466 308.134 396.466C307.462 396.924 306.121 397.83 305.449 398.288C305.301 398.383 300.827 401.229 297.134 403.593C296.844 403.779 296.687 404.052 296.45 404.277C291.395 400.754 286.806 396.925 282.684 392.821C285.877 391.901 289.062 391.04 292.317 390.331C292.668 390.268 295.585 389.754 295.995 389.664C304.812 387.733 314.009 386.276 323.446 385.205ZM269.145 396.759C269.304 397.013 269.456 397.272 269.666 397.507C274.131 402.506 279.152 407.205 284.718 411.518C270.195 420.864 250.603 433.361 233.395 443.168C214.56 453.826 196.25 463.595 181.372 470.652C173.935 474.179 167.348 477.026 162.073 478.951C156.795 480.876 152.772 481.765 151.235 481.766C149.445 481.766 147.877 481.286 147.053 480.806C146.966 480.755 146.953 480.783 146.891 480.757C147.149 477.51 149.449 471.915 154.799 465.022C160.39 457.818 168.833 449.531 179.761 441.134C201.088 424.744 231.815 407.982 269.145 396.759Z" fill="#f8f6f3" fill-rule="nonzero" opacity="1" stroke="none" vectornator:layerName="WhiteOS"/>
<path d="M376.381 136.595C290.814 136.595 223.367 176.091 179.582 220.887C164.938 207.246 156.636 191.045 156.638 173.778C156.638 167.473 159.047 163.503 161.52 160.011C163.977 156.541 166.597 153.488 166.597 149.158C166.597 145.385 163.539 141.914 159.974 141.917C156.088 141.917 152.572 144.232 150.048 147.872C147.52 151.518 145.947 156.523 145.947 162.046C145.947 185.525 157.346 206.647 176.832 223.669C142.407 259.693 123.64 298.875 123.637 323.354C123.637 329.466 125.441 334.729 128.698 338.471C131.958 342.216 136.657 344.41 142.367 344.41C157.673 344.41 179.435 334.304 203.21 319.123C226.939 303.972 252.693 283.702 275.98 263.211C277.925 263.407 281.207 263.755 283.4 263.976C265.457 289.604 252.69 316.437 252.694 344.492C252.694 359.55 257.853 373.642 266.525 386.149C266.656 386.338 266.893 386.415 267.111 386.344C267.907 386.086 268.527 385.871 269.308 385.628C269.646 385.524 269.789 385.104 269.585 384.815C260.928 372.604 255.802 358.85 255.802 344.183C255.802 317.153 268.525 289.775 286.882 264.074C292.068 264.362 297.265 264.677 302.764 264.676C340.985 264.676 378.092 254.012 405.671 238.2C433.221 222.405 451.38 201.398 451.38 180.564C451.38 175.592 449.818 170.881 447.214 166.488C447.212 166.483 447.217 166.476 447.214 166.472C446.91 165.991 446.641 165.4 446.287 164.877C445.017 162.978 443.505 161.191 441.828 159.442C441.335 158.909 440.768 158.415 440.282 157.945C438.406 156.156 436.415 154.338 434.115 152.705C432.364 151.498 430.15 150.24 428.029 149.011C414.545 141.435 396.504 136.595 376.381 136.595ZM396.607 146.44C407.19 146.44 417.029 148.574 425.23 152.201C425.255 152.214 425.452 152.317 425.767 152.477C426.113 152.653 426.585 152.899 427.069 153.145C428.027 153.631 429.085 154.187 429.25 154.3C429.264 154.31 429.283 154.308 429.298 154.316C440.865 160.621 448.32 170.081 448.321 180.564C448.321 200.347 430.998 220.616 404.027 235.939C377.085 251.245 340.65 261.552 302.764 261.551C298.117 261.551 293.707 261.513 289.112 261.275C314.542 226.818 350.57 198.75 365.706 186.47C379.35 176.18 403.525 161.518 424.417 156.008C424.882 155.886 424.945 155.262 424.514 155.048C422.709 154.153 421.167 153.714 419.421 153.177C419.323 153.147 419.226 153.148 419.128 153.177C399.341 159.02 379.514 170.768 364.225 181.979C364.223 181.981 362.565 183.216 362.565 183.216C362.536 183.232 362.51 183.26 362.484 183.281C346.356 196.408 325.006 211.839 274.727 260.054C244.678 256.269 217.554 247.061 197.221 234.149C250.23 188.332 326.654 146.438 396.607 146.44ZM446.824 148.572C443.326 148.572 439.66 149.192 436.068 149.678C435.602 149.742 435.459 150.347 435.84 150.622C436.972 151.441 437.87 152.173 438.932 153.047C439.039 153.135 439.168 153.175 439.306 153.161C441.858 152.907 444.416 152.557 446.824 152.559C480.667 152.559 506.916 173.091 509.31 196.38C509.894 202.061 506.998 209.747 502.085 218.185C497.18 226.609 490.299 235.741 483.095 244.4C468.686 261.72 452.951 277.108 448.858 281.062C448.594 281.317 448.67 281.756 449.004 281.908C450.209 282.457 451.941 283 452.877 283.487C453.075 283.59 453.318 283.56 453.479 283.405C457.609 279.431 473.03 264.457 487.244 247.183C494.352 238.545 501.166 229.333 506.12 220.61C511.071 211.895 514.197 203.659 513.834 196.917C513.126 183.788 505.268 171.686 493.168 162.892C481.063 154.095 464.673 148.57 446.824 148.572ZM194.309 236.622C215.469 249.876 242.03 258.84 271.684 262.723C247.749 283.83 222.23 303.321 199.467 317.577C187.952 324.789 177.142 330.665 167.622 334.728C158.099 338.793 149.873 341.042 143.539 341.042C138.784 341.042 135.566 339.815 133.531 337.641C131.492 335.464 130.555 332.24 130.553 328.057C130.553 317.097 136.857 302.669 148.046 286.725C159.175 270.867 175.105 253.531 194.309 236.622ZM301.869 239.567C296.062 246.531 290.501 253.7 285.222 260.917C283.343 260.904 281.224 260.699 279.104 260.477C287.201 253.424 294.779 246.366 301.869 239.567ZM398.983 273.593C351.032 273.593 297.775 296.788 272.432 339.22C272.28 339.475 272.366 339.795 272.628 339.936C273.055 340.165 273.925 340.634 274.353 340.863C274.595 340.993 274.891 340.902 275.036 340.668C300.433 299.508 351.915 276.636 398.983 276.636C415.633 276.636 431.037 280.294 444.676 286.139C444.686 286.143 444.698 286.135 444.708 286.139C444.757 286.156 445.746 286.578 446.677 286.985C447.147 287.19 447.61 287.398 447.963 287.555C448.139 287.633 448.282 287.702 448.386 287.75C448.501 287.802 448.53 287.822 448.549 287.831C448.553 287.833 448.561 287.829 448.565 287.831C476.321 301.068 494.943 324.741 494.941 351.831C494.941 374.044 481.657 394.19 460.053 408.817C438.454 423.44 408.582 432.508 375.534 432.509C352.192 432.509 330.526 427.376 312.088 418.808C312.083 418.806 312.077 418.794 312.072 418.792C311.182 418.411 307.332 416.292 303.708 414.235C301.892 413.205 300.116 412.187 298.777 411.404C298.108 411.012 297.554 410.673 297.15 410.428C296.761 410.191 296.532 410.053 296.532 410.053C296.508 410.03 296.479 410.007 296.45 409.988C288.818 404.988 282.134 399.308 276.387 393.081C276.255 392.939 276.053 392.884 275.866 392.935C275.094 393.143 274.272 393.296 273.409 393.553C273.043 393.662 272.91 394.098 273.165 394.383C279.031 400.949 285.87 406.984 293.733 412.25C300.845 417.081 309.855 421.462 309.989 421.525C328.99 430.507 351.399 435.928 375.534 435.926C409.356 435.926 439.931 426.515 462.087 411.306C484.239 396.1 498.001 375.072 498.001 351.831C498.001 323.709 479.154 299.451 451.282 285.683C451.28 285.682 451.269 285.668 451.266 285.667C449.689 284.919 447.403 284.02 445.571 283.226C431.616 277.28 415.931 273.591 398.983 273.593ZM441.779 288.222C441.587 288.141 441.359 288.191 441.21 288.336C403.131 325.081 372.65 352.881 343.998 375.328C326.271 376.209 309.404 378.512 293.115 381.983C293.004 382.007 289.475 382.696 289.388 382.716C282.982 384.121 277.127 386.033 271.082 387.744C271.063 387.749 271.051 387.753 271.033 387.76C270.976 387.784 268.998 388.355 268.804 388.395C268.79 388.398 268.785 388.407 268.771 388.411C229.111 399.967 196.478 417.717 173.756 435.259C162.395 444.031 153.505 452.74 147.444 460.628C141.389 468.507 138.12 475.589 138.12 481.115C138.12 484.058 140.467 486.586 143.978 488.372C147.516 490.172 152.363 491.284 157.712 491.285C192.996 491.285 217.699 482.748 246.478 467.772C264.509 458.422 292.182 436.039 306.995 423.836C307.289 423.594 307.241 423.121 306.897 422.957C304.709 421.914 294.073 415.781 290.902 413.536C290.728 413.413 290.495 413.404 290.316 413.519C275.624 422.99 254.168 436.724 235.722 447.236C216.813 457.936 198.419 467.746 183.373 474.883C175.851 478.451 169.172 481.359 163.684 483.361C158.196 485.363 153.897 486.452 151.235 486.452C148.681 486.452 146.354 485.81 144.694 484.841C143.024 483.867 142.116 482.613 142.107 481.424C142.107 481.424 142.107 481.408 142.107 481.408C142.113 476.485 145.171 469.767 151.089 462.141C157.005 454.519 165.734 446.015 176.913 437.424C199.273 420.24 231.446 402.752 270.642 391.373C270.774 391.335 272.851 390.803 273.018 390.754C279.096 389.041 284.955 387.144 291.308 385.759C291.316 385.757 294.871 385.1 294.986 385.075C309.012 382.004 323.891 380.043 339.279 379.119C329.073 387.123 310.804 400.316 310.77 400.339C310.098 400.797 308.757 401.703 308.085 402.161C308.066 402.173 303.408 405.139 299.672 407.531C299.352 407.736 299.351 408.206 299.672 408.41C304.018 411.165 308.968 413.802 315.31 416.758C315.491 416.842 315.709 416.818 315.863 416.692C318.466 414.579 321.656 411.99 321.656 411.99C321.661 411.986 321.668 411.977 321.673 411.973C322.253 411.469 323.419 410.46 324 409.956C324.073 409.89 345.609 390.068 357.602 378.371C358.313 378.371 359.46 378.371 360.076 378.371C380.566 378.371 401.332 380.71 421.504 387.142C421.777 387.229 422.067 387.09 422.155 386.816C422.292 386.389 422.571 385.535 422.708 385.108C422.796 384.833 422.641 384.528 422.366 384.441C402.475 378.098 381.782 375.131 361.312 375.019C385.055 351.792 413.562 323.139 446.092 290.793C446.35 290.536 446.278 290.097 445.945 289.947C444.797 289.428 443.031 288.747 441.779 288.222Z" fill="#434343" fill-rule="nonzero" opacity="0" stroke="none" vectornator:layerName="BlackOS"/>
<path d="M376.383 137.122C290.747 137.122 223.281 176.751 179.583 221.622C164.626 207.838 156.119 191.374 156.121 173.781C156.121 160.877 166.08 157.372 166.08 149.158C166.08 145.639 163.196 142.435 159.97 142.437C152.638 142.437 146.467 151.199 146.467 162.05C146.467 185.512 157.917 206.628 177.567 223.638C142.96 259.711 124.168 299.008 124.166 323.352C124.166 335.377 131.229 343.882 142.373 343.882C172.581 343.882 229.181 303.739 275.814 262.681L284.307 263.536C266.124 289.344 253.204 316.336 253.207 344.493C253.207 359.429 258.331 373.42 266.955 385.857C267.737 385.603 268.357 385.371 269.154 385.124C260.448 372.842 255.285 358.979 255.285 344.187C255.285 316.912 268.152 289.347 286.629 263.536C291.908 263.829 297.183 264.149 302.759 264.147C379.011 264.147 450.863 221.622 450.863 180.563C450.863 175.703 449.338 171.087 446.77 166.755C446.438 166.232 446.17 165.635 445.853 165.166C444.602 163.296 443.119 161.525 441.454 159.79C440.99 159.288 440.429 158.809 439.927 158.323C438.056 156.539 436.083 154.739 433.817 153.13C432.094 151.942 429.891 150.694 427.768 149.464C414.372 141.937 396.424 137.122 376.383 137.122ZM396.607 145.92C407.26 145.92 417.173 148.066 425.446 151.725C425.403 151.734 429.06 153.534 429.54 153.863C441.199 160.218 448.846 169.814 448.847 180.563C448.847 220.742 378.717 262.072 302.759 262.07C297.773 262.07 293.079 262.058 288.095 261.764C313.61 226.864 350.136 198.434 365.386 186.062C379.07 175.741 403.28 161.052 424.285 155.513C422.527 154.641 421.031 154.219 419.275 153.68C399.576 159.496 379.787 171.209 364.53 182.396C364.516 182.406 362.836 183.671 362.819 183.679C346.654 196.838 325.316 212.241 274.898 260.603C244.397 256.791 216.855 247.408 196.324 234.208C249.407 188.164 326.221 145.918 396.607 145.92ZM446.831 149.097C443.394 149.097 439.742 149.709 436.138 150.197C437.285 151.026 438.192 151.767 439.255 152.641C441.793 152.388 444.372 152.028 446.831 152.03C480.851 152.03 507.393 172.676 509.824 196.327C512.243 219.866 457.414 273.517 449.214 281.438C450.372 281.966 452.114 282.502 453.124 283.027C461.371 275.092 514.722 223.206 513.307 196.938C511.914 171.073 482.316 149.094 446.831 149.097ZM194.247 235.98C215.656 249.471 242.672 258.564 272.881 262.375C224.491 305.194 169.343 341.56 143.534 341.56C133.856 341.56 130.035 336.562 130.031 328.057C130.031 305.768 155.534 270 194.247 235.98ZM302.453 238.302L303.064 238.913C296.906 246.245 291.038 253.834 285.468 261.459C283.122 261.459 280.472 261.202 277.83 260.909C286.629 253.284 294.828 245.632 302.453 238.302ZM398.99 274.106C351.186 274.106 298.104 297.251 272.881 339.482L274.592 340.399C300.107 299.047 351.775 276.123 398.99 276.123C415.717 276.123 431.178 279.785 444.876 285.654C445.081 285.727 448.705 287.306 448.786 287.365C476.667 300.661 495.467 324.478 495.466 351.824C495.466 396.696 441.809 433.023 375.528 433.025C352.109 433.025 330.369 427.878 311.863 419.278C309.946 418.458 296.561 410.812 296.16 410.419C288.493 405.395 281.775 399.692 275.997 393.433C275.197 393.649 274.381 393.797 273.553 394.044C279.391 400.579 286.195 406.582 294.022 411.824C301.088 416.623 310.099 420.996 310.213 421.05C329.145 429.999 351.47 435.41 375.528 435.408C442.982 435.408 497.482 397.869 497.482 351.824C497.482 323.954 478.794 299.849 451.047 286.143C449.495 285.407 447.206 284.497 445.364 283.699C431.467 277.777 415.862 274.104 398.99 274.106ZM441.576 288.709C403.437 325.513 372.896 353.354 344.184 375.836C326.425 376.71 309.542 379.019 293.227 382.496C293.108 382.522 289.564 383.215 289.5 383.229C283.126 384.627 277.29 386.525 271.232 388.24C271.08 388.302 269.185 388.856 268.91 388.912C189.717 411.987 138.645 459.786 138.646 481.11C138.646 486.389 147.151 490.761 157.709 490.764C192.902 490.764 217.501 482.259 246.242 467.302C264.185 457.998 291.865 435.628 306.669 423.433C304.421 422.361 293.827 416.247 290.6 413.962C275.906 423.434 254.441 437.167 235.977 447.689C198.145 469.098 162.379 486.973 151.233 486.976C145.954 486.976 141.582 484.349 141.579 481.416C141.579 460.92 191.977 413.663 270.498 390.867C270.648 390.825 272.772 390.288 272.881 390.256C278.951 388.545 284.82 386.638 291.211 385.246C291.211 385.246 294.797 384.591 294.877 384.574C309.471 381.378 324.962 379.339 341.007 378.464C331.094 386.336 311.129 400.724 311.068 400.765L308.38 402.598C308.374 402.602 303.688 405.58 299.948 407.975C304.269 410.714 309.2 413.335 315.529 416.284C318.132 414.171 321.334 411.578 321.333 411.58L323.655 409.563C323.714 409.511 345.427 389.52 357.382 377.853L360.07 377.853C380.599 377.853 401.422 380.199 421.658 386.651L422.208 384.94C401.972 378.488 380.893 375.528 360.07 375.531C383.966 352.172 412.832 323.133 445.731 290.42C444.607 289.913 442.839 289.239 441.576 288.709Z" fill="#c1a06a" fill-rule="nonzero" opacity="1" stroke="none" vectornator:layerName="Colour"/>
</g>
<g opacity="0" vectornator:layerName="Group 2">
<path d="M761.254 627.881L553.207 552.149L442.508 360.39L480.954 142.329L650.555 0L871.953 0L1041.55 142.329L1080 360.39L969.301 552.149L761.254 627.881Z" fill="#b7c6bc" fill-rule="nonzero" opacity="1" stroke="#434343" stroke-linecap="butt" stroke-linejoin="round" stroke-width="3.33756" vectornator:layerName="Polygon 1"/>
<path d="M818.889 131.909C733.945 131.909 666.641 170.182 622.106 214.296C610.225 202.053 603.831 188.213 603.832 173.778C603.832 168.792 605.538 165.981 607.852 162.713C610.021 159.649 613.791 155.494 613.791 149.158C613.791 143.108 609.097 137.225 602.482 137.23C596.616 137.23 591.809 140.719 588.699 145.204C585.553 149.741 583.768 155.651 583.769 162.046C583.769 185.613 594.663 206.741 612.75 223.881C579.862 259.461 561.461 297.708 561.459 323.354C561.459 330.365 563.535 336.79 567.675 341.546C571.842 346.334 577.926 349.097 584.875 349.097C602.003 349.097 624.286 338.356 648.24 323.061C669.865 309.253 692.927 291.347 714.42 272.877C700.275 295.479 690.512 319.328 690.516 344.492C690.516 359.516 695.371 373.54 703.371 386.003C666.143 397.713 635.32 414.627 613.401 431.549C601.785 440.517 592.63 449.468 586.242 457.78C579.922 466.005 575.941 473.837 575.942 481.115C575.942 486.789 580.275 490.47 584.371 492.554C588.736 494.775 594.24 495.97 600.22 495.972C636.324 495.972 662.033 487.074 691.15 471.921C709.972 462.161 737.592 439.713 752.481 427.449C752.693 427.274 752.859 427.074 753.034 426.879C772.107 435.462 794.253 440.615 818.042 440.613C852.718 440.613 884.193 431.005 907.248 415.179C930.258 399.384 945.195 377.044 945.195 351.831C945.195 323.474 927.46 299.227 901.52 284.479C907.05 279.114 920.192 266.169 933.365 250.161C940.58 241.392 947.535 232.008 952.697 222.921C957.816 213.907 961.46 204.97 961.012 196.657C960.209 181.755 951.348 168.492 938.426 159.1C925.463 149.68 908.138 143.884 889.332 143.886C885.287 143.886 881.436 144.567 877.941 145.041C876.812 145.194 875.885 145.683 875.159 146.343C874.385 145.891 873.628 145.393 872.88 144.959C872.861 144.948 872.852 144.938 872.832 144.927C858.549 136.901 839.752 131.909 818.889 131.909ZM839.115 151.127C843.029 151.127 846.779 151.522 850.408 152.103C833.345 158.663 817.033 168.623 803.967 178.204L802.86 179.099C802.569 179.255 802.303 179.428 802.047 179.636C786.253 192.492 764.759 208.122 715.673 255.075C689.74 251.56 666.221 243.928 647.8 233.481C700.049 189.79 773.046 151.125 839.115 151.127ZM889.332 157.245C921.588 157.245 945.088 176.813 947.148 196.852C947.543 200.695 945.32 207.618 940.541 215.826C935.846 223.889 929.109 232.869 922.007 241.406C907.791 258.494 892.144 273.799 888.111 277.694C887.991 277.81 887.909 277.944 887.802 278.068C873.855 272.412 858.278 268.905 841.491 268.906C792.221 268.906 737.34 292.578 710.921 336.811C709.398 339.362 710.304 342.666 712.923 344.069C713.35 344.298 714.22 344.767 714.648 344.996C717.074 346.296 720.085 345.484 721.531 343.141C745.862 303.708 795.751 281.322 841.491 281.322C854.455 281.322 866.572 283.711 877.713 287.587C841.492 322.458 812.097 349.185 784.684 370.755C767.284 371.706 750.673 373.995 734.646 377.411C734.622 377.416 731.171 378.076 730.871 378.143C725.536 379.314 720.705 380.778 715.949 382.179C715.935 382.158 715.931 382.134 715.917 382.114C707.713 370.541 702.996 357.732 702.996 344.183C702.996 319.334 714.537 293.572 731.799 268.89C736.136 269.129 740.558 269.363 745.272 269.362C784.35 269.362 822.172 258.513 850.506 242.268C878.558 226.185 898.574 204.148 898.575 180.564C898.575 174.589 896.687 169.038 893.758 164.096C893.731 164.051 893.704 164.01 893.677 163.966C893.614 163.868 893.343 163.256 892.684 162.273C892.679 162.266 892.673 162.248 892.668 162.241C891.485 160.477 890.135 158.856 888.713 157.294C888.892 157.29 889.16 157.245 889.332 157.245ZM870.586 159.051C880.639 164.855 886.142 172.748 886.142 180.564C886.142 197.595 870.687 216.82 844.225 231.854C818.044 246.728 782.322 256.866 745.272 256.865C743.798 256.865 742.396 256.841 740.976 256.832C765.334 226.417 796.905 201.666 811.029 190.213C811.043 190.202 811.063 190.191 811.078 190.181C811.103 190.16 811.15 190.12 811.175 190.099C824.485 180.086 848.328 165.77 868.129 160.548C869.16 160.276 869.959 159.724 870.586 159.051ZM637.451 242.415C656.198 253.547 678.567 261.52 703.322 265.831C681.853 284.186 659.54 301.046 639.485 313.607C628.119 320.725 617.494 326.488 608.291 330.416C599.064 334.354 591.324 336.356 586.047 336.356C582.047 336.356 580.321 335.359 579.456 334.435C578.556 333.474 577.749 331.613 577.748 328.057C577.748 318.762 583.437 305.023 594.394 289.41C604.752 274.651 619.622 258.397 637.451 242.415ZM892.245 293.689C917.03 306.612 932.764 328.063 932.763 351.831C932.763 372.048 920.689 390.897 899.941 404.944C879.242 418.958 850.252 427.822 818.042 427.823C798.603 427.823 780.397 424.136 764.36 417.864C765.395 417.027 767.11 415.635 767.11 415.635C767.157 415.597 767.211 415.544 767.256 415.505C767.837 415.001 769.003 413.991 769.583 413.487C769.598 413.474 769.601 413.468 769.616 413.454C769.816 413.276 789.692 394.955 801.965 383.057C802.173 383.057 802.43 383.057 802.584 383.057C822.72 383.057 842.984 385.369 862.58 391.617C865.315 392.489 868.243 390.981 869.122 388.248C869.259 387.821 869.537 386.967 869.675 386.54C870.556 383.797 869.035 380.857 866.29 379.982C849.479 374.622 832.144 371.644 814.853 370.69C837.122 348.773 862.616 323.235 891.903 294.112C892.036 293.98 892.129 293.831 892.245 293.689ZM765.954 385.205C757.941 391.146 750.642 396.466 750.642 396.466C749.97 396.924 748.629 397.83 747.957 398.288C747.809 398.383 743.335 401.229 739.642 403.593C739.352 403.779 739.195 404.052 738.959 404.277C733.903 400.754 729.314 396.925 725.192 392.821C728.385 391.901 731.57 391.04 734.825 390.331C735.176 390.268 738.093 389.754 738.503 389.664C747.32 387.733 756.517 386.276 765.954 385.205ZM711.653 396.759C711.812 397.013 711.964 397.272 712.174 397.507C716.639 402.506 721.66 407.205 727.226 411.518C712.703 420.864 693.111 433.361 675.903 443.168C657.068 453.826 638.758 463.595 623.88 470.652C616.443 474.179 609.856 477.026 604.581 478.951C599.303 480.876 595.28 481.765 593.744 481.766C591.953 481.766 590.385 481.286 589.562 480.806C589.475 480.755 589.461 480.783 589.399 480.757C589.657 477.51 591.957 471.915 597.307 465.022C602.898 457.818 611.341 449.531 622.269 441.134C643.596 424.744 674.323 407.982 711.653 396.759Z" fill="#b7c6bc" fill-rule="nonzero" opacity="1" stroke="none" vectornator:layerName="WhiteOS"/>
<path d="M818.889 136.595C733.322 136.595 665.875 176.091 622.09 220.887C607.446 207.246 599.144 191.045 599.146 173.778C599.146 167.473 601.555 163.503 604.028 160.011C606.485 156.541 609.105 153.488 609.105 149.158C609.105 145.385 606.047 141.914 602.482 141.917C598.596 141.917 595.08 144.232 592.556 147.872C590.028 151.518 588.455 156.523 588.455 162.046C588.455 185.525 599.854 206.647 619.34 223.669C584.915 259.693 566.148 298.875 566.146 323.354C566.146 329.466 567.949 334.729 571.206 338.471C574.466 342.216 579.165 344.41 584.875 344.41C600.181 344.41 621.943 334.304 645.718 319.123C669.447 303.972 695.201 283.702 718.488 263.211C720.433 263.407 723.715 263.755 725.908 263.976C707.965 289.604 695.198 316.437 695.202 344.492C695.202 359.55 700.361 373.642 709.034 386.149C709.165 386.338 709.401 386.415 709.619 386.344C710.415 386.086 711.035 385.871 711.816 385.628C712.154 385.524 712.298 385.104 712.093 384.815C703.436 372.604 698.31 358.85 698.31 344.183C698.31 317.153 711.033 289.775 729.39 264.074C734.576 264.362 739.773 264.677 745.272 264.676C783.493 264.676 820.6 254.012 848.179 238.2C875.729 222.405 893.888 201.398 893.888 180.564C893.888 175.592 892.326 170.881 889.722 166.488C889.72 166.483 889.725 166.476 889.722 166.472C889.418 165.991 889.149 165.4 888.795 164.877C887.525 162.978 886.013 161.191 884.336 159.442C883.843 158.909 883.276 158.415 882.79 157.945C880.914 156.156 878.923 154.338 876.623 152.705C874.872 151.498 872.658 150.24 870.537 149.011C857.053 141.435 839.012 136.595 818.889 136.595ZM839.115 146.44C849.698 146.44 859.537 148.574 867.738 152.201C867.763 152.214 867.96 152.317 868.275 152.477C868.621 152.653 869.094 152.899 869.577 153.145C870.535 153.631 871.593 154.187 871.758 154.3C871.772 154.31 871.791 154.308 871.806 154.316C883.373 160.621 890.828 170.081 890.829 180.564C890.829 200.347 873.506 220.616 846.535 235.939C819.593 251.245 783.158 261.552 745.272 261.551C740.625 261.551 736.215 261.513 731.62 261.275C757.05 226.818 793.078 198.75 808.214 186.47C821.858 176.18 846.033 161.518 866.925 156.008C867.39 155.886 867.453 155.262 867.022 155.048C865.217 154.153 863.675 153.714 861.929 153.177C861.831 153.147 861.734 153.148 861.636 153.177C841.849 159.02 822.022 170.768 806.733 181.979C806.731 181.981 805.073 183.216 805.073 183.216C805.044 183.232 805.018 183.26 804.992 183.281C788.864 196.408 767.514 211.839 717.235 260.054C687.186 256.269 660.062 247.061 639.729 234.149C692.738 188.332 769.162 146.438 839.115 146.44ZM889.332 148.572C885.834 148.572 882.168 149.192 878.576 149.678C878.11 149.742 877.967 150.347 878.348 150.622C879.48 151.441 880.378 152.173 881.44 153.047C881.547 153.135 881.676 153.175 881.814 153.161C884.366 152.907 886.924 152.557 889.332 152.559C923.176 152.559 949.424 173.091 951.818 196.38C952.402 202.061 949.506 209.747 944.593 218.185C939.688 226.609 932.807 235.741 925.603 244.4C911.194 261.72 895.459 277.108 891.366 281.062C891.102 281.317 891.178 281.756 891.512 281.908C892.717 282.457 894.449 283 895.385 283.487C895.583 283.59 895.826 283.56 895.987 283.405C900.118 279.431 915.538 264.457 929.753 247.183C936.86 238.545 943.674 229.333 948.629 220.61C953.579 211.895 956.705 203.659 956.342 196.917C955.634 183.788 947.776 171.686 935.676 162.892C923.571 154.095 907.181 148.57 889.332 148.572ZM636.817 236.622C657.977 249.876 684.538 258.84 714.192 262.723C690.257 283.83 664.738 303.321 641.975 317.577C630.46 324.789 619.65 330.665 610.13 334.728C600.607 338.793 592.381 341.042 586.047 341.042C581.292 341.042 578.075 339.815 576.039 337.641C574 335.464 573.063 332.24 573.061 328.057C573.061 317.097 579.365 302.669 590.554 286.725C601.683 270.867 617.613 253.531 636.817 236.622ZM744.377 239.567C738.57 246.531 733.009 253.7 727.731 260.917C725.851 260.904 723.732 260.699 721.612 260.477C729.709 253.424 737.287 246.366 744.377 239.567ZM841.491 273.593C793.54 273.593 740.283 296.788 714.94 339.22C714.788 339.475 714.874 339.795 715.136 339.936C715.563 340.165 716.433 340.634 716.861 340.863C717.103 340.993 717.399 340.902 717.544 340.668C742.941 299.508 794.423 276.636 841.491 276.636C858.141 276.636 873.545 280.294 887.184 286.139C887.194 286.143 887.206 286.135 887.216 286.139C887.265 286.156 888.254 286.578 889.185 286.985C889.656 287.19 890.118 287.398 890.471 287.555C890.647 287.633 890.79 287.702 890.894 287.75C891.009 287.802 891.038 287.822 891.057 287.831C891.061 287.833 891.069 287.829 891.073 287.831C918.829 301.068 937.451 324.741 937.449 351.831C937.449 374.044 924.166 394.19 902.561 408.817C880.962 423.44 851.09 432.508 818.042 432.509C794.7 432.509 773.034 427.376 754.596 418.808C754.591 418.806 754.585 418.794 754.58 418.792C753.69 418.411 749.84 416.292 746.216 414.235C744.4 413.205 742.624 412.187 741.285 411.404C740.616 411.012 740.062 410.673 739.658 410.428C739.269 410.191 739.04 410.053 739.04 410.053C739.016 410.03 738.987 410.007 738.959 409.988C731.326 404.988 724.642 399.308 718.895 393.081C718.763 392.939 718.561 392.884 718.374 392.935C717.602 393.143 716.78 393.296 715.917 393.553C715.551 393.662 715.418 394.098 715.673 394.383C721.539 400.949 728.378 406.984 736.241 412.25C743.353 417.081 752.363 421.462 752.497 421.525C771.498 430.507 793.907 435.928 818.042 435.926C851.864 435.926 882.439 426.515 904.595 411.306C926.748 396.1 940.509 375.072 940.509 351.831C940.509 323.709 921.662 299.451 893.79 285.683C893.788 285.682 893.777 285.668 893.774 285.667C892.197 284.919 889.911 284.02 888.079 283.226C874.124 277.28 858.439 273.591 841.491 273.593ZM884.287 288.222C884.096 288.141 883.867 288.191 883.718 288.336C845.639 325.081 815.158 352.881 786.506 375.328C768.779 376.209 751.912 378.512 735.623 381.983C735.512 382.007 731.983 382.696 731.896 382.716C725.49 384.121 719.635 386.033 713.59 387.744C713.571 387.749 713.559 387.753 713.541 387.76C713.484 387.784 711.506 388.355 711.312 388.395C711.298 388.398 711.293 388.407 711.279 388.411C671.619 399.967 638.986 417.717 616.265 435.259C604.903 444.031 596.013 452.74 589.952 460.628C583.897 468.507 580.628 475.589 580.628 481.115C580.628 484.058 582.975 486.586 586.486 488.372C590.024 490.172 594.871 491.284 600.22 491.285C635.504 491.285 660.207 482.748 688.986 467.772C707.017 458.422 734.69 436.039 749.503 423.836C749.797 423.594 749.749 423.121 749.405 422.957C747.217 421.914 736.581 415.781 733.41 413.536C733.236 413.413 733.003 413.404 732.824 413.519C718.132 422.99 696.676 436.724 678.23 447.236C659.321 457.936 640.927 467.746 625.882 474.883C618.359 478.451 611.68 481.359 606.192 483.361C600.704 485.363 596.405 486.452 593.744 486.452C591.189 486.452 588.862 485.81 587.202 484.841C585.532 483.867 584.624 482.613 584.615 481.424C584.615 481.424 584.615 481.408 584.615 481.408C584.621 476.485 587.679 469.767 593.597 462.141C599.513 454.519 608.242 446.015 619.421 437.424C641.781 420.24 673.954 402.752 713.15 391.373C713.283 391.335 715.359 390.803 715.526 390.754C721.604 389.041 727.463 387.144 733.816 385.759C733.824 385.757 737.379 385.1 737.494 385.075C751.52 382.004 766.399 380.043 781.787 379.119C771.581 387.123 753.312 400.316 753.278 400.339C752.606 400.797 751.265 401.703 750.593 402.161C750.574 402.173 745.916 405.139 742.18 407.531C741.86 407.736 741.859 408.206 742.18 408.41C746.526 411.165 751.476 413.802 757.818 416.758C757.999 416.842 758.217 416.818 758.371 416.692C760.974 414.579 764.164 411.99 764.164 411.99C764.169 411.986 764.176 411.977 764.181 411.973C764.761 411.469 765.927 410.46 766.508 409.956C766.581 409.89 788.117 390.068 800.11 378.371C800.821 378.371 801.968 378.371 802.584 378.371C823.074 378.371 843.84 380.71 864.012 387.142C864.286 387.229 864.575 387.09 864.663 386.816C864.8 386.389 865.079 385.535 865.216 385.108C865.304 384.833 865.149 384.528 864.874 384.441C844.983 378.098 824.29 375.131 803.82 375.019C827.563 351.792 856.07 323.139 888.6 290.793C888.858 290.536 888.786 290.097 888.453 289.947C887.305 289.428 885.539 288.747 884.287 288.222Z" fill="#434343" fill-rule="nonzero" opacity="0" stroke="none" vectornator:layerName="BlackOS"/>
<path d="M818.891 137.122C733.255 137.122 665.789 176.751 622.091 221.622C607.134 207.838 598.627 191.374 598.629 173.781C598.629 160.877 608.588 157.372 608.588 149.158C608.588 145.639 605.704 142.435 602.478 142.437C595.146 142.437 588.975 151.199 588.975 162.05C588.975 185.512 600.425 206.628 620.075 223.638C585.468 259.711 566.676 299.008 566.674 323.352C566.674 335.377 573.737 343.882 584.881 343.882C615.089 343.882 671.689 303.739 718.322 262.681L726.815 263.536C708.632 289.344 695.712 316.336 695.715 344.493C695.715 359.429 700.839 373.42 709.463 385.857C710.245 385.603 710.865 385.371 711.662 385.124C702.956 372.842 697.793 358.979 697.793 344.187C697.793 316.912 710.66 289.347 729.137 263.536C734.416 263.829 739.691 264.149 745.267 264.147C821.519 264.147 893.371 221.622 893.371 180.563C893.371 175.703 891.846 171.087 889.278 166.755C888.947 166.232 888.678 165.635 888.361 165.166C887.11 163.296 885.627 161.525 883.962 159.79C883.498 159.288 882.937 158.809 882.435 158.323C880.564 156.539 878.591 154.739 876.325 153.13C874.602 151.942 872.399 150.694 870.276 149.464C856.88 141.937 838.933 137.122 818.891 137.122ZM839.115 145.92C849.768 145.92 859.681 148.066 867.954 151.725C867.911 151.734 871.568 153.534 872.048 153.863C883.707 160.218 891.354 169.814 891.355 180.563C891.355 220.742 821.225 262.072 745.267 262.07C740.281 262.07 735.587 262.058 730.603 261.764C756.118 226.864 792.644 198.434 807.894 186.062C821.578 175.741 845.788 161.052 866.793 155.513C865.035 154.641 863.539 154.219 861.783 153.68C842.084 159.496 822.295 171.209 807.038 182.396C807.024 182.406 805.344 183.671 805.327 183.679C789.162 196.838 767.824 212.241 717.406 260.603C686.905 256.791 659.363 247.408 638.832 234.208C691.915 188.164 768.729 145.918 839.115 145.92ZM889.339 149.097C885.902 149.097 882.25 149.709 878.647 150.197C879.793 151.026 880.701 151.767 881.763 152.641C884.301 152.388 886.88 152.028 889.339 152.03C923.359 152.03 949.901 172.676 952.332 196.327C954.751 219.866 899.922 273.517 891.722 281.438C892.88 281.966 894.622 282.502 895.632 283.027C903.879 275.092 957.23 223.206 955.815 196.938C954.422 171.073 924.824 149.094 889.339 149.097ZM636.755 235.98C658.164 249.471 685.18 258.564 715.389 262.375C666.999 305.194 611.851 341.56 586.042 341.56C576.364 341.56 572.543 336.562 572.539 328.057C572.539 305.768 598.042 270 636.755 235.98ZM744.961 238.302L745.572 238.913C739.414 246.245 733.546 253.834 727.976 261.459C725.63 261.459 722.98 261.202 720.338 260.909C729.137 253.284 737.337 245.632 744.961 238.302ZM841.498 274.106C793.694 274.106 740.613 297.251 715.389 339.482L717.1 340.399C742.615 299.047 794.283 276.123 841.498 276.123C858.225 276.123 873.686 279.785 887.384 285.654C887.589 285.727 891.213 287.306 891.294 287.365C919.175 300.661 937.975 324.478 937.974 351.824C937.974 396.696 884.317 433.023 818.036 433.025C794.617 433.025 772.877 427.878 754.371 419.278C752.454 418.458 739.069 410.812 738.668 410.419C731.001 405.395 724.283 399.692 718.505 393.433C717.705 393.649 716.889 393.797 716.061 394.044C721.899 400.579 728.703 406.582 736.53 411.824C743.596 416.623 752.607 420.996 752.721 421.05C771.653 429.999 793.978 435.41 818.036 435.408C885.49 435.408 939.99 397.869 939.99 351.824C939.99 323.954 921.302 299.849 893.555 286.143C892.003 285.407 889.714 284.497 887.873 283.699C873.975 277.777 858.37 274.104 841.498 274.106ZM884.084 288.709C845.945 325.513 815.404 353.354 786.692 375.836C768.933 376.71 752.05 379.019 735.735 382.496C735.616 382.522 732.072 383.215 732.008 383.229C725.634 384.627 719.798 386.525 713.74 388.24C713.588 388.302 711.693 388.856 711.418 388.912C632.225 411.987 581.153 459.786 581.154 481.11C581.154 486.389 589.659 490.761 600.217 490.764C635.411 490.764 660.009 482.259 688.75 467.302C706.693 457.998 734.373 435.628 749.177 423.433C746.929 422.361 736.335 416.247 733.108 413.962C718.414 423.434 696.949 437.167 678.485 447.689C640.653 469.098 604.887 486.973 593.741 486.976C588.462 486.976 584.09 484.349 584.087 481.416C584.087 460.92 634.486 413.663 713.007 390.867C713.156 390.825 715.281 390.288 715.389 390.256C721.459 388.545 727.328 386.638 733.719 385.246C733.719 385.246 737.305 384.591 737.385 384.574C751.979 381.378 767.471 379.339 783.515 378.464C773.602 386.336 753.637 400.724 753.576 400.765L750.888 402.598C750.882 402.602 746.196 405.58 742.456 407.975C746.778 410.714 751.708 413.335 758.037 416.284C760.64 414.171 763.842 411.578 763.841 411.58L766.163 409.563C766.222 409.511 787.935 389.52 799.89 377.853L802.578 377.853C823.107 377.853 843.93 380.199 864.166 386.651L864.716 384.94C844.48 378.488 823.401 375.528 802.578 375.531C826.474 352.172 855.34 323.133 888.239 290.42C887.115 289.913 885.347 289.239 884.084 288.709Z" fill="#434343" fill-rule="nonzero" opacity="1" stroke="none" vectornator:layerName="Colour"/>
</g>
<g opacity="0" vectornator:layerName="Group 3">
<path d="M540 1027.13L217.181 909.621L45.4119 612.074L105.067 273.716L368.231 52.8687L711.769 52.8687L974.933 273.716L1034.59 612.074L862.819 909.621L540 1027.13Z" fill="#b7c6bc" fill-rule="nonzero" opacity="1" stroke="#b7c6bc" stroke-linecap="butt" stroke-linejoin="round" stroke-width="5.17879" vectornator:layerName="Polygon 1"/>
<path d="M629.43 257.548C497.626 257.548 393.192 316.934 324.089 385.385C305.653 366.387 295.732 344.913 295.734 322.514C295.734 314.779 298.38 310.416 301.97 305.345C305.337 300.591 311.187 294.144 311.186 284.312C311.186 274.926 303.903 265.797 293.638 265.804C284.537 265.804 277.077 271.218 272.252 278.177C267.37 285.217 264.601 294.388 264.601 304.31C264.601 340.879 281.506 373.661 309.571 400.257C258.54 455.466 229.988 514.812 229.984 554.607C229.984 565.485 233.206 575.455 239.63 582.836C246.095 590.264 255.535 594.551 266.318 594.551C292.895 594.551 327.471 577.884 364.639 554.152C398.195 532.727 433.98 504.942 467.329 476.283C445.382 511.354 430.232 548.36 430.237 587.406C430.237 610.719 437.771 632.479 450.184 651.817C392.42 669.987 344.592 696.232 310.58 722.49C292.557 736.405 278.351 750.294 268.439 763.192C258.632 775.953 252.456 788.107 252.456 799.4C252.456 808.204 259.18 813.916 265.536 817.15C272.309 820.596 280.85 822.45 290.128 822.452C346.15 822.452 386.041 808.646 431.222 785.134C460.428 769.99 503.285 735.158 526.387 716.127C526.716 715.856 526.973 715.547 527.245 715.243C556.84 728.561 591.203 736.557 628.117 736.554C681.922 736.554 730.761 721.645 766.534 697.089C802.238 672.581 825.415 637.916 825.415 598.793C825.415 554.793 797.897 517.17 757.646 494.286C766.228 485.961 786.619 465.875 807.059 441.035C818.255 427.429 829.046 412.868 837.055 398.768C844.999 384.782 850.653 370.914 849.958 358.015C848.712 334.893 834.963 314.312 814.912 299.739C794.798 285.122 767.915 276.128 738.734 276.131C732.459 276.131 726.482 277.189 721.06 277.924C719.308 278.161 717.87 278.92 716.742 279.944C715.542 279.243 714.368 278.47 713.207 277.798C713.177 277.78 713.163 277.765 713.131 277.747C690.969 265.294 661.803 257.548 629.43 257.548ZM660.815 287.367C666.887 287.367 672.706 287.98 678.338 288.882C651.861 299.062 626.55 314.516 606.276 329.382L604.559 330.771C604.108 331.013 603.694 331.281 603.297 331.604C578.79 351.552 545.438 375.806 469.273 448.66C429.034 443.206 392.541 431.364 363.958 415.154C445.03 347.36 558.297 287.364 660.815 287.367ZM738.734 296.861C788.786 296.861 825.249 327.224 828.445 358.318C829.058 364.282 825.609 375.024 818.194 387.759C810.909 400.27 800.455 414.205 789.435 427.451C767.376 453.966 743.098 477.713 736.841 483.757C736.654 483.937 736.526 484.146 736.361 484.338C714.719 475.561 690.549 470.12 664.501 470.122C588.05 470.122 502.893 506.852 461.9 575.488C459.536 579.446 460.942 584.572 465.006 586.749C465.669 587.105 467.019 587.833 467.682 588.188C471.447 590.205 476.12 588.945 478.363 585.31C516.116 524.123 593.528 489.387 664.501 489.388C684.617 489.388 703.418 493.093 720.706 499.109C664.502 553.217 618.891 594.689 576.356 628.158C549.357 629.634 523.582 633.185 498.714 638.485C498.676 638.493 493.321 639.517 492.856 639.621C484.577 641.438 477.082 643.709 469.702 645.883C469.68 645.851 469.674 645.814 469.652 645.782C456.921 627.825 449.604 607.949 449.604 586.926C449.604 548.37 467.511 508.395 494.295 470.097C501.025 470.468 507.887 470.831 515.202 470.829C575.837 470.829 634.524 453.996 678.489 428.789C722.017 403.833 753.076 369.638 753.076 333.043C753.076 323.773 750.148 315.16 745.602 307.491C745.561 307.422 745.519 307.357 745.476 307.289C745.379 307.137 744.959 306.188 743.936 304.663C743.928 304.651 743.918 304.624 743.91 304.613C742.076 301.875 739.981 299.361 737.775 296.937C738.052 296.93 738.468 296.861 738.734 296.861ZM709.647 299.664C725.246 308.67 733.784 320.917 733.785 333.043C733.785 359.471 709.804 389.302 668.743 412.629C628.119 435.709 572.69 451.44 515.202 451.438C512.915 451.438 510.739 451.401 508.536 451.387C546.33 404.192 595.319 365.788 617.234 348.016C617.257 347.999 617.287 347.983 617.31 347.966C617.349 347.934 617.422 347.871 617.462 347.84C638.114 332.303 675.11 310.089 705.834 301.987C707.435 301.565 708.674 300.708 709.647 299.664ZM347.899 429.016C376.988 446.29 411.697 458.661 450.109 465.35C416.796 493.832 382.174 519.993 351.055 539.482C333.419 550.528 316.932 559.47 302.652 565.565C288.335 571.676 276.326 574.781 268.136 574.781C261.93 574.781 259.252 573.234 257.91 571.802C256.513 570.31 255.261 567.422 255.259 561.904C255.259 547.482 264.087 526.163 281.089 501.937C297.16 479.036 320.233 453.814 347.899 429.016ZM743.254 508.577C781.713 528.629 806.126 561.914 806.125 598.793C806.125 630.165 787.391 659.411 755.197 681.207C723.079 702.952 678.096 716.706 628.117 716.708C597.953 716.708 569.704 710.988 544.819 701.255C546.426 699.957 549.086 697.796 549.086 697.796C549.159 697.737 549.243 697.655 549.313 697.594C550.214 696.812 552.024 695.245 552.924 694.463C552.948 694.443 552.951 694.434 552.975 694.413C553.286 694.136 584.127 665.708 603.17 647.247C603.493 647.247 603.891 647.247 604.13 647.247C635.375 647.247 666.817 650.833 697.224 660.528C701.469 661.881 706.012 659.542 707.375 655.301C707.588 654.638 708.02 653.314 708.233 652.65C709.601 648.395 707.24 643.832 702.981 642.475C676.896 634.158 649.997 629.537 623.168 628.057C657.722 594.049 697.279 554.422 742.724 509.234C742.93 509.028 743.075 508.796 743.254 508.577ZM547.293 650.58C534.86 659.797 523.534 668.052 523.534 668.052C522.491 668.763 520.41 670.169 519.368 670.88C519.137 671.027 512.196 675.442 506.465 679.111C506.015 679.399 505.772 679.824 505.405 680.172C497.561 674.706 490.44 668.764 484.044 662.396C488.998 660.969 493.94 659.634 498.991 658.533C499.535 658.435 504.063 657.638 504.698 657.498C518.379 654.502 532.65 652.241 547.293 650.58ZM463.036 668.507C463.282 668.902 463.519 669.304 463.844 669.668C470.773 677.424 478.564 684.717 487.2 691.408C464.665 705.91 434.264 725.301 407.563 740.518C378.338 757.056 349.926 772.214 326.841 783.164C315.302 788.638 305.081 793.055 296.895 796.041C288.706 799.029 282.463 800.409 280.079 800.41C277.301 800.41 274.868 799.665 273.59 798.92C273.455 798.841 273.434 798.884 273.338 798.844C273.739 793.805 277.308 785.124 285.609 774.428C294.283 763.251 307.385 750.393 324.341 737.362C357.434 711.93 405.112 685.921 463.036 668.507Z" fill="#b7c6bc" fill-rule="nonzero" opacity="1" stroke="none" vectornator:layerName="WhiteOS"/>
<path d="M629.43 264.82C496.659 264.82 392.003 326.103 324.064 395.611C301.34 374.446 288.46 349.308 288.462 322.514C288.462 312.73 292.201 306.571 296.037 301.153C299.851 295.768 303.915 291.031 303.915 284.312C303.915 278.459 299.17 273.072 293.638 273.076C287.609 273.076 282.153 276.668 278.236 282.317C274.313 287.975 271.873 295.741 271.873 304.31C271.873 340.742 289.56 373.516 319.797 399.929C266.38 455.826 237.26 516.623 237.256 554.607C237.256 564.091 240.055 572.257 245.109 578.063C250.167 583.875 257.458 587.279 266.318 587.279C290.068 587.279 323.835 571.597 360.726 548.042C397.546 524.532 437.508 493.081 473.641 461.285C476.659 461.589 481.751 462.129 485.155 462.472C457.314 502.238 437.503 543.875 437.509 587.406C437.509 610.772 445.515 632.637 458.971 652.044C459.174 652.337 459.541 652.457 459.88 652.347C461.114 651.946 462.077 651.612 463.289 651.236C463.814 651.073 464.036 650.422 463.718 649.974C450.286 631.026 442.332 609.685 442.332 586.926C442.332 544.985 462.073 502.503 490.558 462.623C498.605 463.072 506.669 463.56 515.202 463.557C574.508 463.557 632.086 447.011 674.879 422.477C717.628 397.967 745.804 365.372 745.804 333.043C745.804 325.329 743.381 318.019 739.34 311.203C739.336 311.196 739.345 311.184 739.34 311.177C738.868 310.432 738.45 309.515 737.901 308.703C735.93 305.756 733.584 302.983 730.983 300.27C730.218 299.443 729.338 298.677 728.584 297.947C725.672 295.171 722.583 292.35 719.015 289.816C716.297 287.943 712.862 285.991 709.571 284.085C688.648 272.328 660.655 264.82 629.43 264.82ZM660.815 280.095C677.236 280.095 692.502 283.406 705.228 289.034C705.267 289.055 705.572 289.214 706.062 289.463C706.598 289.736 707.331 290.117 708.082 290.498C709.567 291.253 711.21 292.115 711.465 292.291C711.488 292.307 711.516 292.303 711.541 292.316C729.488 302.099 741.056 316.777 741.057 333.043C741.057 363.741 714.178 395.192 672.328 418.967C630.522 442.718 573.988 458.711 515.202 458.71C507.99 458.71 501.148 458.65 494.017 458.28C533.476 404.815 589.38 361.262 612.866 342.209C634.038 326.242 671.549 303.491 703.966 294.942C704.687 294.752 704.786 293.784 704.117 293.452C701.315 292.064 698.924 291.381 696.214 290.549C696.063 290.502 695.912 290.504 695.76 290.549C665.057 299.615 634.292 317.844 610.568 335.24C610.565 335.242 607.993 337.159 607.993 337.159C607.948 337.183 607.906 337.228 607.867 337.26C582.842 357.63 549.713 381.573 471.697 456.387C425.071 450.513 382.984 436.226 351.434 416.19C433.686 345.098 552.27 280.092 660.815 280.095ZM738.734 283.403C733.307 283.403 727.618 284.365 722.044 285.12C721.322 285.218 721.1 286.157 721.691 286.585C723.448 287.854 724.841 288.991 726.488 290.347C726.654 290.483 726.855 290.545 727.069 290.523C731.029 290.129 734.998 289.586 738.734 289.589C791.249 289.589 831.977 321.448 835.692 357.586C836.598 366.4 832.105 378.327 824.481 391.42C816.87 404.491 806.193 418.661 795.015 432.097C772.658 458.971 748.242 482.849 741.89 488.984C741.481 489.379 741.6 490.06 742.118 490.297C743.987 491.149 746.674 491.991 748.127 492.746C748.435 492.906 748.812 492.86 749.061 492.62C755.47 486.453 779.398 463.218 801.454 436.414C812.483 423.011 823.056 408.717 830.743 395.182C838.424 381.659 843.275 368.88 842.711 358.419C841.614 338.047 829.421 319.268 810.645 305.623C791.862 291.973 766.43 283.4 738.734 283.403ZM346.914 420.028C379.748 440.594 420.962 454.503 466.975 460.528C429.837 493.279 390.239 523.522 354.918 545.643C337.052 556.833 320.278 565.951 305.505 572.256C290.729 578.563 277.966 582.053 268.136 582.053C260.758 582.053 255.766 580.149 252.608 576.776C249.444 573.397 247.99 568.394 247.987 561.904C247.987 544.898 257.769 522.51 275.13 497.77C292.399 473.164 317.116 446.264 346.914 420.028ZM513.813 424.598C504.802 435.403 496.173 446.527 487.983 457.725C485.066 457.705 481.779 457.387 478.489 457.043C491.052 446.099 502.811 435.147 513.813 424.598ZM664.501 477.394C590.098 477.394 507.46 513.385 468.137 579.225C467.9 579.621 468.033 580.118 468.44 580.336C469.103 580.691 470.452 581.42 471.116 581.775C471.493 581.977 471.952 581.836 472.177 581.472C511.584 517.605 591.467 482.116 664.501 482.116C690.337 482.116 714.238 487.793 735.401 496.861C735.417 496.868 735.436 496.856 735.452 496.861C735.527 496.888 737.062 497.543 738.507 498.174C739.237 498.493 739.954 498.815 740.502 499.058C740.775 499.18 740.996 499.287 741.158 499.361C741.336 499.442 741.382 499.472 741.411 499.487C741.417 499.491 741.429 499.484 741.436 499.487C784.504 520.027 813.399 556.759 813.397 598.793C813.397 633.262 792.785 664.521 759.262 687.217C725.747 709.907 679.395 723.978 628.117 723.98C591.897 723.98 558.278 716.015 529.669 702.72C529.662 702.716 529.652 702.698 529.644 702.694C528.264 702.104 522.29 698.816 516.666 695.625C513.848 694.025 511.092 692.447 509.015 691.231C507.977 690.624 507.117 690.097 506.49 689.716C505.887 689.349 505.531 689.135 505.531 689.135C505.493 689.099 505.449 689.063 505.405 689.034C493.562 681.275 483.191 672.463 474.272 662.8C474.068 662.579 473.755 662.495 473.464 662.573C472.267 662.896 470.99 663.134 469.652 663.533C469.084 663.702 468.878 664.379 469.273 664.82C478.375 675.009 488.987 684.372 501.188 692.544C512.224 700.04 526.204 706.838 526.412 706.936C555.896 720.874 590.666 729.285 628.117 729.282C680.597 729.282 728.039 714.679 762.418 691.08C796.791 667.485 818.144 634.856 818.144 598.793C818.144 555.158 788.9 517.517 745.653 496.154C745.649 496.153 745.631 496.131 745.627 496.129C743.18 494.968 739.633 493.574 736.79 492.342C715.136 483.115 690.799 477.391 664.501 477.394ZM730.907 500.093C730.609 499.968 730.255 500.046 730.023 500.27C670.938 557.286 623.641 600.423 579.183 635.253C551.676 636.62 525.505 640.194 500.229 645.58C500.057 645.617 494.581 646.686 494.447 646.717C484.506 648.896 475.421 651.864 466.041 654.519C466.011 654.527 465.994 654.532 465.965 654.544C465.877 654.58 462.808 655.467 462.506 655.529C462.484 655.533 462.477 655.548 462.456 655.554C400.916 673.485 350.281 701.027 315.024 728.247C297.395 741.857 283.601 755.372 274.196 767.611C264.801 779.836 259.728 790.826 259.728 799.4C259.728 803.966 263.37 807.889 268.818 810.661C274.308 813.454 281.828 815.178 290.128 815.18C344.878 815.18 383.209 801.934 427.864 778.695C455.842 764.188 498.781 729.456 521.766 710.522C522.223 710.146 522.148 709.413 521.615 709.158C518.22 707.54 501.715 698.022 496.795 694.539C496.525 694.348 496.163 694.335 495.886 694.514C473.088 709.208 439.797 730.519 411.174 746.83C381.834 763.434 353.293 778.655 329.947 789.729C318.275 795.266 307.911 799.777 299.395 802.884C290.879 805.991 284.209 807.681 280.079 807.681C276.115 807.681 272.505 806.685 269.929 805.182C267.338 803.669 265.928 801.723 265.914 799.879C265.914 799.879 265.914 799.854 265.914 799.854C265.924 792.216 270.669 781.791 279.852 769.959C289.031 758.132 302.576 744.936 319.923 731.605C354.618 704.942 404.539 677.806 465.359 660.149C465.564 660.091 468.786 659.265 469.046 659.19C478.477 656.531 487.568 653.587 497.426 651.438C497.438 651.436 502.954 650.417 503.132 650.378C524.897 645.612 547.984 642.57 571.861 641.136C556.024 653.555 527.676 674.026 527.624 674.062C526.581 674.773 524.501 676.179 523.458 676.89C523.428 676.908 516.201 681.511 510.404 685.222C509.906 685.541 509.905 686.269 510.404 686.585C517.148 690.86 524.828 694.953 534.669 699.538C534.949 699.669 535.287 699.632 535.527 699.437C539.566 696.158 544.516 692.14 544.516 692.14C544.523 692.134 544.534 692.121 544.541 692.115C545.442 691.333 547.251 689.766 548.152 688.984C548.266 688.882 581.683 658.125 600.292 639.975C601.394 639.975 603.175 639.975 604.13 639.975C635.924 639.975 668.146 643.605 699.446 653.584C699.871 653.72 700.32 653.503 700.456 653.079C700.67 652.416 701.101 651.092 701.315 650.428C701.451 650.003 701.21 649.529 700.784 649.393C669.92 639.552 637.811 634.948 606.049 634.774C642.889 598.733 687.123 554.273 737.598 504.083C737.999 503.684 737.887 503.003 737.371 502.77C735.589 501.966 732.848 500.908 730.907 500.093Z" fill="#434343" fill-rule="nonzero" opacity="0" stroke="none" vectornator:layerName="BlackOS"/>
<path d="M629.434 265.636C496.554 265.636 391.87 327.127 324.065 396.753C300.856 375.364 287.657 349.817 287.66 322.52C287.66 302.497 303.113 297.058 303.113 284.313C303.113 278.852 298.638 273.881 293.632 273.884C282.256 273.884 272.68 287.479 272.68 304.317C272.68 340.722 290.447 373.487 320.936 399.881C267.238 455.855 238.079 516.83 238.076 554.604C238.076 573.262 249.036 586.459 266.328 586.459C313.2 586.459 401.025 524.172 473.384 460.462L486.562 461.789C458.348 501.835 438.3 543.717 438.306 587.407C438.306 610.584 446.256 632.292 459.637 651.59C460.851 651.196 461.813 650.836 463.05 650.453C449.54 631.395 441.529 609.885 441.529 586.933C441.529 544.612 461.495 501.839 490.165 461.789C498.356 462.244 506.541 462.74 515.193 462.737C633.511 462.737 745.002 396.752 745.002 333.043C745.002 325.502 742.635 318.339 738.65 311.617C738.136 310.806 737.72 309.879 737.228 309.152C735.287 306.25 732.985 303.502 730.402 300.809C729.682 300.031 728.811 299.288 728.032 298.534C725.129 295.766 722.068 292.973 718.552 290.475C715.879 288.633 712.46 286.696 709.166 284.787C688.38 273.108 660.531 265.636 629.434 265.636ZM660.815 279.288C677.344 279.288 692.727 282.618 705.563 288.295C705.497 288.31 711.171 291.102 711.915 291.613C730.006 301.474 741.872 316.364 741.874 333.043C741.874 395.387 633.055 459.518 515.193 459.514C507.457 459.514 500.173 459.495 492.44 459.04C532.031 404.887 588.706 360.773 612.369 341.576C633.603 325.561 671.169 302.768 703.762 294.173C701.033 292.82 698.712 292.166 695.988 291.329C665.422 300.354 634.715 318.528 611.042 335.887C611.021 335.903 608.413 337.865 608.387 337.878C583.304 358.296 550.194 382.196 471.962 457.239C424.635 451.323 381.899 436.764 350.042 416.283C432.409 344.837 551.599 279.285 660.815 279.288ZM738.745 284.218C733.412 284.218 727.745 285.167 722.154 285.925C723.933 287.21 725.341 288.36 726.989 289.717C730.928 289.325 734.93 288.766 738.745 288.769C791.533 288.769 832.718 320.805 836.49 357.503C840.243 394.029 755.166 477.277 742.443 489.567C744.24 490.387 746.944 491.218 748.51 492.032C761.307 479.72 844.09 399.211 841.894 358.451C839.732 318.318 793.807 284.213 738.745 284.218ZM346.818 419.032C380.038 439.965 421.958 454.075 468.833 459.988C393.747 526.428 308.176 582.856 268.13 582.856C253.112 582.856 247.183 575.101 247.177 561.904C247.177 527.319 286.75 471.819 346.818 419.032ZM514.719 422.635L515.667 423.583C506.111 434.959 497.007 446.735 488.363 458.566C484.723 458.566 480.611 458.167 476.513 457.713C490.165 445.881 502.888 434.009 514.719 422.635ZM664.512 478.191C590.336 478.191 507.971 514.103 468.833 579.633L471.488 581.055C511.079 516.89 591.249 481.319 664.512 481.319C690.467 481.319 714.458 487.002 735.711 496.109C736.03 496.222 741.654 498.672 741.779 498.764C785.041 519.396 814.212 556.352 814.211 598.784C814.211 668.409 730.952 724.778 628.107 724.781C591.769 724.781 558.035 716.794 529.319 703.449C526.346 702.177 505.576 690.312 504.954 689.702C493.058 681.908 482.633 673.058 473.668 663.346C472.427 663.681 471.16 663.912 469.876 664.294C478.934 674.434 489.492 683.749 501.636 691.883C512.6 699.33 526.582 706.115 526.76 706.199C556.136 720.085 590.777 728.481 628.107 728.478C732.772 728.478 817.339 670.229 817.339 598.784C817.339 555.537 788.342 518.135 745.287 496.867C742.879 495.725 739.328 494.314 736.47 493.075C714.906 483.887 690.692 478.188 664.512 478.191ZM730.592 500.849C671.412 557.957 624.023 601.157 579.472 636.042C551.915 637.398 525.718 640.981 500.404 646.376C500.218 646.416 494.719 647.492 494.62 647.514C484.73 649.683 475.674 652.628 466.274 655.288C466.037 655.385 463.098 656.244 462.671 656.331C339.79 692.136 260.543 766.304 260.545 799.393C260.545 807.584 273.742 814.368 290.124 814.372C344.733 814.372 382.902 801.175 427.498 777.967C455.34 763.53 498.289 728.82 521.261 709.896C517.772 708.233 501.334 698.746 496.327 695.201C473.526 709.898 440.221 731.207 411.571 747.534C352.867 780.754 297.371 808.49 280.075 808.494C271.884 808.494 265.1 804.417 265.096 799.867C265.096 768.063 343.297 694.737 465.136 659.365C465.368 659.299 468.664 658.467 468.833 658.416C478.251 655.761 487.358 652.803 497.275 650.642C497.275 650.642 502.839 649.627 502.963 649.6C525.608 644.641 549.646 641.477 574.542 640.119C559.161 652.333 528.181 674.659 528.087 674.723L523.915 677.567C523.906 677.574 516.635 682.195 510.832 685.91C517.537 690.161 525.187 694.228 535.008 698.804C539.047 695.524 544.016 691.502 544.014 691.504L547.617 688.375C547.709 688.294 581.401 657.275 599.95 639.171L604.121 639.171C635.976 639.171 668.285 642.811 699.685 652.823L700.539 650.168C669.139 640.157 636.431 635.564 604.121 635.568C641.2 599.323 685.99 554.265 737.039 503.504C735.295 502.717 732.551 501.671 730.592 500.849Z" fill="#265f2b" fill-rule="nonzero" opacity="1" stroke="none" vectornator:layerName="Colour"/>
</g>
<g opacity="1" vectornator:layerName="Group 4">
<path d="M540 1027.13L217.181 909.621L45.4119 612.074L105.067 273.716L368.231 52.8687L711.769 52.8687L974.933 273.716L1034.59 612.074L862.819 909.621L540 1027.13Z" fill="#ffc2d1" fill-rule="nonzero" opacity="1" stroke="#ffc2d1" stroke-linecap="butt" stroke-linejoin="round" stroke-width="5.17879" vectornator:layerName="Polygon 1"/>
<path d="M629.43 257.548C497.626 257.548 393.192 316.934 324.089 385.385C305.653 366.387 295.732 344.913 295.734 322.514C295.734 314.779 298.38 310.416 301.97 305.345C305.337 300.591 311.187 294.144 311.186 284.312C311.186 274.926 303.903 265.797 293.638 265.804C284.537 265.804 277.077 271.218 272.252 278.177C267.37 285.217 264.601 294.388 264.601 304.31C264.601 340.879 281.506 373.661 309.571 400.257C258.54 455.466 229.988 514.812 229.984 554.607C229.984 565.485 233.206 575.455 239.63 582.836C246.095 590.264 255.535 594.551 266.318 594.551C292.895 594.551 327.471 577.884 364.639 554.152C398.195 532.727 433.98 504.942 467.329 476.283C445.382 511.354 430.232 548.36 430.237 587.406C430.237 610.719 437.771 632.479 450.184 651.817C392.42 669.987 344.592 696.232 310.58 722.49C292.557 736.405 278.351 750.294 268.439 763.192C258.632 775.953 252.456 788.107 252.456 799.4C252.456 808.204 259.18 813.916 265.536 817.15C272.309 820.596 280.85 822.45 290.128 822.452C346.15 822.452 386.041 808.646 431.222 785.134C460.428 769.99 503.285 735.158 526.387 716.127C526.716 715.856 526.973 715.547 527.245 715.243C556.84 728.561 591.203 736.557 628.117 736.554C681.922 736.554 730.761 721.645 766.534 697.089C802.238 672.581 825.415 637.916 825.415 598.793C825.415 554.793 797.897 517.17 757.646 494.286C766.228 485.961 786.619 465.875 807.059 441.035C818.255 427.429 829.046 412.868 837.055 398.768C844.999 384.782 850.653 370.914 849.958 358.015C848.712 334.893 834.963 314.312 814.912 299.739C794.798 285.122 767.915 276.128 738.734 276.131C732.459 276.131 726.482 277.189 721.06 277.924C719.308 278.161 717.87 278.92 716.742 279.944C715.542 279.243 714.368 278.47 713.207 277.798C713.177 277.78 713.163 277.765 713.131 277.747C690.969 265.294 661.803 257.548 629.43 257.548ZM660.815 287.367C666.887 287.367 672.706 287.98 678.338 288.882C651.861 299.062 626.55 314.516 606.276 329.382L604.559 330.771C604.108 331.013 603.694 331.281 603.297 331.604C578.79 351.552 545.438 375.806 469.273 448.66C429.034 443.206 392.541 431.364 363.958 415.154C445.03 347.36 558.297 287.364 660.815 287.367ZM738.734 296.861C788.786 296.861 825.249 327.224 828.445 358.318C829.058 364.282 825.609 375.024 818.194 387.759C810.909 400.27 800.455 414.205 789.435 427.451C767.376 453.966 743.098 477.713 736.841 483.757C736.654 483.937 736.526 484.146 736.361 484.338C714.719 475.561 690.549 470.12 664.501 470.122C588.05 470.122 502.893 506.852 461.9 575.488C459.536 579.446 460.942 584.572 465.006 586.749C465.669 587.105 467.019 587.833 467.682 588.188C471.447 590.205 476.12 588.945 478.363 585.31C516.116 524.123 593.528 489.387 664.501 489.388C684.617 489.388 703.418 493.093 720.706 499.109C664.502 553.217 618.891 594.689 576.356 628.158C549.357 629.634 523.582 633.185 498.714 638.485C498.676 638.493 493.321 639.517 492.856 639.621C484.577 641.438 477.082 643.709 469.702 645.883C469.68 645.851 469.674 645.814 469.652 645.782C456.921 627.825 449.604 607.949 449.604 586.926C449.604 548.37 467.511 508.395 494.295 470.097C501.025 470.468 507.887 470.831 515.202 470.829C575.837 470.829 634.524 453.996 678.489 428.789C722.017 403.833 753.076 369.638 753.076 333.043C753.076 323.773 750.148 315.16 745.602 307.491C745.561 307.422 745.519 307.357 745.476 307.289C745.379 307.137 744.959 306.188 743.936 304.663C743.928 304.651 743.918 304.624 743.91 304.613C742.076 301.875 739.981 299.361 737.775 296.937C738.052 296.93 738.468 296.861 738.734 296.861ZM709.647 299.664C725.246 308.67 733.784 320.917 733.785 333.043C733.785 359.471 709.804 389.302 668.743 412.629C628.119 435.709 572.69 451.44 515.202 451.438C512.915 451.438 510.739 451.401 508.536 451.387C546.33 404.192 595.319 365.788 617.234 348.016C617.257 347.999 617.287 347.983 617.31 347.966C617.349 347.934 617.422 347.871 617.462 347.84C638.114 332.303 675.11 310.089 705.834 301.987C707.435 301.565 708.674 300.708 709.647 299.664ZM347.899 429.016C376.988 446.29 411.697 458.661 450.109 465.35C416.796 493.832 382.174 519.993 351.055 539.482C333.419 550.528 316.932 559.47 302.652 565.565C288.335 571.676 276.326 574.781 268.136 574.781C261.93 574.781 259.252 573.234 257.91 571.802C256.513 570.31 255.261 567.422 255.259 561.904C255.259 547.482 264.087 526.163 281.089 501.937C297.16 479.036 320.233 453.814 347.899 429.016ZM743.254 508.577C781.713 528.629 806.126 561.914 806.125 598.793C806.125 630.165 787.391 659.411 755.197 681.207C723.079 702.952 678.096 716.706 628.117 716.708C597.953 716.708 569.704 710.988 544.819 701.255C546.426 699.957 549.086 697.796 549.086 697.796C549.159 697.737 549.243 697.655 549.313 697.594C550.214 696.812 552.024 695.245 552.924 694.463C552.948 694.443 552.951 694.434 552.975 694.413C553.286 694.136 584.127 665.708 603.17 647.247C603.493 647.247 603.891 647.247 604.13 647.247C635.375 647.247 666.817 650.833 697.224 660.528C701.469 661.881 706.012 659.542 707.375 655.301C707.588 654.638 708.02 653.314 708.233 652.65C709.601 648.395 707.24 643.832 702.981 642.475C676.896 634.158 649.997 629.537 623.168 628.057C657.722 594.049 697.279 554.422 742.724 509.234C742.93 509.028 743.075 508.796 743.254 508.577ZM547.293 650.58C534.86 659.797 523.534 668.052 523.534 668.052C522.491 668.763 520.41 670.169 519.368 670.88C519.137 671.027 512.196 675.442 506.465 679.111C506.015 679.399 505.772 679.824 505.405 680.172C497.561 674.706 490.44 668.764 484.044 662.396C488.998 660.969 493.94 659.634 498.991 658.533C499.535 658.435 504.063 657.638 504.698 657.498C518.379 654.502 532.65 652.241 547.293 650.58ZM463.036 668.507C463.282 668.902 463.519 669.304 463.844 669.668C470.773 677.424 478.564 684.717 487.2 691.408C464.665 705.91 434.264 725.301 407.563 740.518C378.338 757.056 349.926 772.214 326.841 783.164C315.302 788.638 305.081 793.055 296.895 796.041C288.706 799.029 282.463 800.409 280.079 800.41C277.301 800.41 274.868 799.665 273.59 798.92C273.455 798.841 273.434 798.884 273.338 798.844C273.739 793.805 277.308 785.124 285.609 774.428C294.283 763.251 307.385 750.393 324.341 737.362C357.434 711.93 405.112 685.921 463.036 668.507Z" fill="#ffc2d1" fill-rule="nonzero" opacity="1" stroke="none" vectornator:layerName="WhiteOS"/>
<path d="M629.43 264.82C496.659 264.82 392.003 326.103 324.064 395.611C301.34 374.446 288.46 349.308 288.462 322.514C288.462 312.73 292.201 306.571 296.037 301.153C299.851 295.768 303.915 291.031 303.915 284.312C303.915 278.459 299.17 273.072 293.638 273.076C287.609 273.076 282.153 276.668 278.236 282.317C274.313 287.975 271.873 295.741 271.873 304.31C271.873 340.742 289.56 373.516 319.797 399.929C266.38 455.826 237.26 516.623 237.256 554.607C237.256 564.091 240.055 572.257 245.109 578.063C250.167 583.875 257.458 587.279 266.318 587.279C290.068 587.279 323.835 571.597 360.726 548.042C397.546 524.532 437.508 493.081 473.641 461.285C476.659 461.589 481.751 462.129 485.155 462.472C457.314 502.238 437.503 543.875 437.509 587.406C437.509 610.772 445.515 632.637 458.971 652.044C459.174 652.337 459.541 652.457 459.88 652.347C461.114 651.946 462.077 651.612 463.289 651.236C463.814 651.073 464.036 650.422 463.718 649.974C450.286 631.026 442.332 609.685 442.332 586.926C442.332 544.985 462.073 502.503 490.558 462.623C498.605 463.072 506.669 463.56 515.202 463.557C574.508 463.557 632.086 447.011 674.879 422.477C717.628 397.967 745.804 365.372 745.804 333.043C745.804 325.329 743.381 318.019 739.34 311.203C739.336 311.196 739.345 311.184 739.34 311.177C738.868 310.432 738.45 309.515 737.901 308.703C735.93 305.756 733.584 302.983 730.983 300.27C730.218 299.443 729.338 298.677 728.584 297.947C725.672 295.171 722.583 292.35 719.015 289.816C716.297 287.943 712.862 285.991 709.571 284.085C688.648 272.328 660.655 264.82 629.43 264.82ZM660.815 280.095C677.236 280.095 692.502 283.406 705.228 289.034C705.267 289.055 705.572 289.214 706.062 289.463C706.598 289.736 707.331 290.117 708.082 290.498C709.567 291.253 711.21 292.115 711.465 292.291C711.488 292.307 711.516 292.303 711.541 292.316C729.488 302.099 741.056 316.777 741.057 333.043C741.057 363.741 714.178 395.192 672.328 418.967C630.522 442.718 573.988 458.711 515.202 458.71C507.99 458.71 501.148 458.65 494.017 458.28C533.476 404.815 589.38 361.262 612.866 342.209C634.038 326.242 671.549 303.491 703.966 294.942C704.687 294.752 704.786 293.784 704.117 293.452C701.315 292.064 698.924 291.381 696.214 290.549C696.063 290.502 695.912 290.504 695.76 290.549C665.057 299.615 634.292 317.844 610.568 335.24C610.565 335.242 607.993 337.159 607.993 337.159C607.948 337.183 607.906 337.228 607.867 337.26C582.842 357.63 549.713 381.573 471.697 456.387C425.071 450.513 382.984 436.226 351.434 416.19C433.686 345.098 552.27 280.092 660.815 280.095ZM738.734 283.403C733.307 283.403 727.618 284.365 722.044 285.12C721.322 285.218 721.1 286.157 721.691 286.585C723.448 287.854 724.841 288.991 726.488 290.347C726.654 290.483 726.855 290.545 727.069 290.523C731.029 290.129 734.998 289.586 738.734 289.589C791.249 289.589 831.977 321.448 835.692 357.586C836.598 366.4 832.105 378.327 824.481 391.42C816.87 404.491 806.193 418.661 795.015 432.097C772.658 458.971 748.242 482.849 741.89 488.984C741.481 489.379 741.6 490.06 742.118 490.297C743.987 491.149 746.674 491.991 748.127 492.746C748.435 492.906 748.812 492.86 749.061 492.62C755.47 486.453 779.398 463.218 801.454 436.414C812.483 423.011 823.056 408.717 830.743 395.182C838.424 381.659 843.275 368.88 842.711 358.419C841.614 338.047 829.421 319.268 810.645 305.623C791.862 291.973 766.43 283.4 738.734 283.403ZM346.914 420.028C379.748 440.594 420.962 454.503 466.975 460.528C429.837 493.279 390.239 523.522 354.918 545.643C337.052 556.833 320.278 565.951 305.505 572.256C290.729 578.563 277.966 582.053 268.136 582.053C260.758 582.053 255.766 580.149 252.608 576.776C249.444 573.397 247.99 568.394 247.987 561.904C247.987 544.898 257.769 522.51 275.13 497.77C292.399 473.164 317.116 446.264 346.914 420.028ZM513.813 424.598C504.802 435.403 496.173 446.527 487.983 457.725C485.066 457.705 481.779 457.387 478.489 457.043C491.052 446.099 502.811 435.147 513.813 424.598ZM664.501 477.394C590.098 477.394 507.46 513.385 468.137 579.225C467.9 579.621 468.033 580.118 468.44 580.336C469.103 580.691 470.452 581.42 471.116 581.775C471.493 581.977 471.952 581.836 472.177 581.472C511.584 517.605 591.467 482.116 664.501 482.116C690.337 482.116 714.238 487.793 735.401 496.861C735.417 496.868 735.436 496.856 735.452 496.861C735.527 496.888 737.062 497.543 738.507 498.174C739.237 498.493 739.954 498.815 740.502 499.058C740.775 499.18 740.996 499.287 741.158 499.361C741.336 499.442 741.382 499.472 741.411 499.487C741.417 499.491 741.429 499.484 741.436 499.487C784.504 520.027 813.399 556.759 813.397 598.793C813.397 633.262 792.785 664.521 759.262 687.217C725.747 709.907 679.395 723.978 628.117 723.98C591.897 723.98 558.278 716.015 529.669 702.72C529.662 702.716 529.652 702.698 529.644 702.694C528.264 702.104 522.29 698.816 516.666 695.625C513.848 694.025 511.092 692.447 509.015 691.231C507.977 690.624 507.117 690.097 506.49 689.716C505.887 689.349 505.531 689.135 505.531 689.135C505.493 689.099 505.449 689.063 505.405 689.034C493.562 681.275 483.191 672.463 474.272 662.8C474.068 662.579 473.755 662.495 473.464 662.573C472.267 662.896 470.99 663.134 469.652 663.533C469.084 663.702 468.878 664.379 469.273 664.82C478.375 675.009 488.987 684.372 501.188 692.544C512.224 700.04 526.204 706.838 526.412 706.936C555.896 720.874 590.666 729.285 628.117 729.282C680.597 729.282 728.039 714.679 762.418 691.08C796.791 667.485 818.144 634.856 818.144 598.793C818.144 555.158 788.9 517.517 745.653 496.154C745.649 496.153 745.631 496.131 745.627 496.129C743.18 494.968 739.633 493.574 736.79 492.342C715.136 483.115 690.799 477.391 664.501 477.394ZM730.907 500.093C730.609 499.968 730.255 500.046 730.023 500.27C670.938 557.286 623.641 600.423 579.183 635.253C551.676 636.62 525.505 640.194 500.229 645.58C500.057 645.617 494.581 646.686 494.447 646.717C484.506 648.896 475.421 651.864 466.041 654.519C466.011 654.527 465.994 654.532 465.965 654.544C465.877 654.58 462.808 655.467 462.506 655.529C462.484 655.533 462.477 655.548 462.456 655.554C400.916 673.485 350.281 701.027 315.024 728.247C297.395 741.857 283.601 755.372 274.196 767.611C264.801 779.836 259.728 790.826 259.728 799.4C259.728 803.966 263.37 807.889 268.818 810.661C274.308 813.454 281.828 815.178 290.128 815.18C344.878 815.18 383.209 801.934 427.864 778.695C455.842 764.188 498.781 729.456 521.766 710.522C522.223 710.146 522.148 709.413 521.615 709.158C518.22 707.54 501.715 698.022 496.795 694.539C496.525 694.348 496.163 694.335 495.886 694.514C473.088 709.208 439.797 730.519 411.174 746.83C381.834 763.434 353.293 778.655 329.947 789.729C318.275 795.266 307.911 799.777 299.395 802.884C290.879 805.991 284.209 807.681 280.079 807.681C276.115 807.681 272.505 806.685 269.929 805.182C267.338 803.669 265.928 801.723 265.914 799.879C265.914 799.879 265.914 799.854 265.914 799.854C265.924 792.216 270.669 781.791 279.852 769.959C289.031 758.132 302.576 744.936 319.923 731.605C354.618 704.942 404.539 677.806 465.359 660.149C465.564 660.091 468.786 659.265 469.046 659.19C478.477 656.531 487.568 653.587 497.426 651.438C497.438 651.436 502.954 650.417 503.132 650.378C524.897 645.612 547.984 642.57 571.861 641.136C556.024 653.555 527.676 674.026 527.624 674.062C526.581 674.773 524.501 676.179 523.458 676.89C523.428 676.908 516.201 681.511 510.404 685.222C509.906 685.541 509.905 686.269 510.404 686.585C517.148 690.86 524.828 694.953 534.669 699.538C534.949 699.669 535.287 699.632 535.527 699.437C539.566 696.158 544.516 692.14 544.516 692.14C544.523 692.134 544.534 692.121 544.541 692.115C545.442 691.333 547.251 689.766 548.152 688.984C548.266 688.882 581.683 658.125 600.292 639.975C601.394 639.975 603.175 639.975 604.13 639.975C635.924 639.975 668.146 643.605 699.446 653.584C699.871 653.72 700.32 653.503 700.456 653.079C700.67 652.416 701.101 651.092 701.315 650.428C701.451 650.003 701.21 649.529 700.784 649.393C669.92 639.552 637.811 634.948 606.049 634.774C642.889 598.733 687.123 554.273 737.598 504.083C737.999 503.684 737.887 503.003 737.371 502.77C735.589 501.966 732.848 500.908 730.907 500.093Z" fill="#434343" fill-rule="nonzero" opacity="0" stroke="none" vectornator:layerName="BlackOS"/>
<path d="M629.434 265.636C496.554 265.636 391.87 327.127 324.065 396.753C300.856 375.364 287.657 349.817 287.66 322.52C287.66 302.497 303.113 297.058 303.113 284.313C303.113 278.852 298.638 273.881 293.632 273.884C282.256 273.884 272.68 287.479 272.68 304.317C272.68 340.722 290.447 373.487 320.936 399.881C267.238 455.855 238.079 516.83 238.076 554.604C238.076 573.262 249.036 586.459 266.328 586.459C313.2 586.459 401.025 524.172 473.384 460.462L486.562 461.789C458.348 501.835 438.3 543.717 438.306 587.407C438.306 610.584 446.256 632.292 459.637 651.59C460.851 651.196 461.813 650.836 463.05 650.453C449.54 631.395 441.529 609.885 441.529 586.933C441.529 544.612 461.495 501.839 490.165 461.789C498.356 462.244 506.541 462.74 515.193 462.737C633.511 462.737 745.002 396.752 745.002 333.043C745.002 325.502 742.635 318.339 738.65 311.617C738.136 310.806 737.72 309.879 737.228 309.152C735.287 306.25 732.985 303.502 730.402 300.809C729.682 300.031 728.811 299.288 728.032 298.534C725.129 295.766 722.068 292.973 718.552 290.475C715.879 288.633 712.46 286.696 709.166 284.787C688.38 273.108 660.531 265.636 629.434 265.636ZM660.815 279.288C677.344 279.288 692.727 282.618 705.563 288.295C705.497 288.31 711.171 291.102 711.915 291.613C730.006 301.474 741.872 316.364 741.874 333.043C741.874 395.387 633.055 459.518 515.193 459.514C507.457 459.514 500.173 459.495 492.44 459.04C532.031 404.887 588.706 360.773 612.369 341.576C633.603 325.561 671.169 302.768 703.762 294.173C701.033 292.82 698.712 292.166 695.988 291.329C665.422 300.354 634.715 318.528 611.042 335.887C611.021 335.903 608.413 337.865 608.387 337.878C583.304 358.296 550.194 382.196 471.962 457.239C424.635 451.323 381.899 436.764 350.042 416.283C432.409 344.837 551.599 279.285 660.815 279.288ZM738.745 284.218C733.412 284.218 727.745 285.167 722.154 285.925C723.933 287.21 725.341 288.36 726.989 289.717C730.928 289.325 734.93 288.766 738.745 288.769C791.533 288.769 832.718 320.805 836.49 357.503C840.243 394.029 755.166 477.277 742.443 489.567C744.24 490.387 746.944 491.218 748.51 492.032C761.307 479.72 844.09 399.211 841.894 358.451C839.732 318.318 793.807 284.213 738.745 284.218ZM346.818 419.032C380.038 439.965 421.958 454.075 468.833 459.988C393.747 526.428 308.176 582.856 268.13 582.856C253.112 582.856 247.183 575.101 247.177 561.904C247.177 527.319 286.75 471.819 346.818 419.032ZM514.719 422.635L515.667 423.583C506.111 434.959 497.007 446.735 488.363 458.566C484.723 458.566 480.611 458.167 476.513 457.713C490.165 445.881 502.888 434.009 514.719 422.635ZM664.512 478.191C590.336 478.191 507.971 514.103 468.833 579.633L471.488 581.055C511.079 516.89 591.249 481.319 664.512 481.319C690.467 481.319 714.458 487.002 735.711 496.109C736.03 496.222 741.654 498.672 741.779 498.764C785.041 519.396 814.212 556.352 814.211 598.784C814.211 668.409 730.952 724.778 628.107 724.781C591.769 724.781 558.035 716.794 529.319 703.449C526.346 702.177 505.576 690.312 504.954 689.702C493.058 681.908 482.633 673.058 473.668 663.346C472.427 663.681 471.16 663.912 469.876 664.294C478.934 674.434 489.492 683.749 501.636 691.883C512.6 699.33 526.582 706.115 526.76 706.199C556.136 720.085 590.777 728.481 628.107 728.478C732.772 728.478 817.339 670.229 817.339 598.784C817.339 555.537 788.342 518.135 745.287 496.867C742.879 495.725 739.328 494.314 736.47 493.075C714.906 483.887 690.692 478.188 664.512 478.191ZM730.592 500.849C671.412 557.957 624.023 601.157 579.472 636.042C551.915 637.398 525.718 640.981 500.404 646.376C500.218 646.416 494.719 647.492 494.62 647.514C484.73 649.683 475.674 652.628 466.274 655.288C466.037 655.385 463.098 656.244 462.671 656.331C339.79 692.136 260.543 766.304 260.545 799.393C260.545 807.584 273.742 814.368 290.124 814.372C344.733 814.372 382.902 801.175 427.498 777.967C455.34 763.53 498.289 728.82 521.261 709.896C517.772 708.233 501.334 698.746 496.327 695.201C473.526 709.898 440.221 731.207 411.571 747.534C352.867 780.754 297.371 808.49 280.075 808.494C271.884 808.494 265.1 804.417 265.096 799.867C265.096 768.063 343.297 694.737 465.136 659.365C465.368 659.299 468.664 658.467 468.833 658.416C478.251 655.761 487.358 652.803 497.275 650.642C497.275 650.642 502.839 649.627 502.963 649.6C525.608 644.641 549.646 641.477 574.542 640.119C559.161 652.333 528.181 674.659 528.087 674.723L523.915 677.567C523.906 677.574 516.635 682.195 510.832 685.91C517.537 690.161 525.187 694.228 535.008 698.804C539.047 695.524 544.016 691.502 544.014 691.504L547.617 688.375C547.709 688.294 581.401 657.275 599.95 639.171L604.121 639.171C635.976 639.171 668.285 642.811 699.685 652.823L700.539 650.168C669.139 640.157 636.431 635.564 604.121 635.568C641.2 599.323 685.99 554.265 737.039 503.504C735.295 502.717 732.551 501.671 730.592 500.849Z" fill="#9e2141" fill-rule="nonzero" opacity="1" stroke="none" vectornator:layerName="Colour"/>
</g>
</g>
</svg>
