<?xml version="1.0" encoding="UTF-8"?>
<svg xmlns="http://www.w3.org/2000/svg" xmlns:xlink="http://www.w3.org/1999/xlink" viewBox="0 0 819.59 522">
  <defs>
    <style>
      .cls-1, .cls-2 {
        fill: none;
      }

      .cls-3 {
        fill: url(#_0_lpi_10_);
      }

      .cls-4, .cls-5 {
        fill: url(#_0_lpi_80_);
      }

      .cls-6, .cls-7, .cls-8 {
        fill: #f4f5f0;
      }

      .cls-9 {
        fill: #fff;
      }

      .cls-10 {
        fill: #3049d9;
      }

      .cls-11 {
        fill: #3787f8;
      }

      .cls-12, .cls-13 {
        stroke-width: .4px;
      }

      .cls-12, .cls-13, .cls-14, .cls-15, .cls-16, .cls-17 {
        stroke: #f4f5f0;
      }

      .cls-12, .cls-15 {
        fill: #202020;
      }

      .cls-13, .cls-14, .cls-18, .cls-16, .cls-19 {
        fill: #231f20;
      }

      .cls-20 {
        fill: url(#Scotch_Rule_9);
      }

      .cls-20, .cls-21, .cls-7 {
        stroke: #3787f8;
        stroke-miterlimit: 10;
      }

      .cls-21 {
        fill: url(#Scotch_Rule_3);
      }

      .cls-14, .cls-15 {
        stroke-width: 9.6px;
      }

      .cls-8, .cls-18, .cls-16, .cls-17, .cls-19 {
        stroke-width: 5.76px;
      }

      .cls-8, .cls-19 {
        stroke: #cd212a;
      }

      .cls-18 {
        stroke: #008c45;
      }

      .cls-17 {
        fill: #cd212a;
      }

      .cls-5 {
        stroke: #3049d9;
      }

      .cls-2 {
        stroke: #231f20;
        stroke-width: .72px;
      }
    </style>
    <pattern id="_0_lpi_80_" data-name="10 lpi 80%" x="0" y="0" width="72" height="72" patternTransform="translate(-149.68 1528)" patternUnits="userSpaceOnUse" viewBox="0 0 72 72">
      <g>
        <rect class="cls-1" width="72" height="72"/>
        <g>
          <line class="cls-16" x1="71.75" y1="68.4" x2="144.25" y2="68.4"/>
          <line class="cls-16" x1="71.75" y1="39.6" x2="144.25" y2="39.6"/>
          <line class="cls-16" x1="71.75" y1="10.8" x2="144.25" y2="10.8"/>
          <line class="cls-18" x1="71.75" y1="61.2" x2="144.25" y2="61.2"/>
          <line class="cls-8" x1="71.75" y1="46.8" x2="144.25" y2="46.8"/>
          <line class="cls-17" x1="71.75" y1="53.8" x2="144.25" y2="53.8"/>
          <line class="cls-18" x1="71.75" y1="32.4" x2="144.25" y2="32.4"/>
          <line class="cls-19" x1="71.75" y1="18" x2="144.25" y2="18"/>
          <line class="cls-17" x1="71.75" y1="25" x2="144.25" y2="25"/>
          <line class="cls-18" x1="71.75" y1="3.6" x2="144.25" y2="3.6"/>
        </g>
        <g>
          <line class="cls-16" x1="-.25" y1="68.4" x2="72.25" y2="68.4"/>
          <line class="cls-16" x1="-.25" y1="39.6" x2="72.25" y2="39.6"/>
          <line class="cls-16" x1="-.25" y1="10.8" x2="72.25" y2="10.8"/>
          <line class="cls-18" x1="-.25" y1="61.2" x2="72.25" y2="61.2"/>
          <line class="cls-8" x1="-.25" y1="46.8" x2="72.25" y2="46.8"/>
          <line class="cls-17" x1="-.25" y1="53.8" x2="72.25" y2="53.8"/>
          <line class="cls-18" x1="-.25" y1="32.4" x2="72.25" y2="32.4"/>
          <line class="cls-19" x1="-.25" y1="18" x2="72.25" y2="18"/>
          <line class="cls-17" x1="-.25" y1="25" x2="72.25" y2="25"/>
          <line class="cls-18" x1="-.25" y1="3.6" x2="72.25" y2="3.6"/>
        </g>
        <g>
          <line class="cls-16" x1="-72.25" y1="68.4" x2=".25" y2="68.4"/>
          <line class="cls-16" x1="-72.25" y1="39.6" x2=".25" y2="39.6"/>
          <line class="cls-16" x1="-72.25" y1="10.8" x2=".25" y2="10.8"/>
          <line class="cls-18" x1="-72.25" y1="61.2" x2=".25" y2="61.2"/>
          <line class="cls-8" x1="-72.25" y1="46.8" x2=".25" y2="46.8"/>
          <line class="cls-17" x1="-72.25" y1="53.8" x2=".25" y2="53.8"/>
          <line class="cls-18" x1="-72.25" y1="32.4" x2=".25" y2="32.4"/>
          <line class="cls-19" x1="-72.25" y1="18" x2=".25" y2="18"/>
          <line class="cls-17" x1="-72.25" y1="25" x2=".25" y2="25"/>
          <line class="cls-18" x1="-72.25" y1="3.6" x2=".25" y2="3.6"/>
        </g>
      </g>
    </pattern>
    <pattern id="Scotch_Rule_9" data-name="Scotch Rule 9" x="0" y="0" width="82.8" height="72" patternTransform="translate(-149.68 1482)" patternUnits="userSpaceOnUse" viewBox="0 0 82.8 72">
      <g>
        <rect class="cls-1" width="82.8" height="72"/>
        <line class="cls-15" x1="41.4" y1="72" x2="41.4" y2="0"/>
        <line class="cls-15" x1="13.8" y1="72" x2="13.8" y2="0"/>
        <line class="cls-15" x1="69" y1="72" x2="69" y2="0"/>
        <line class="cls-12" x1="49.8" y1="72" x2="49.8" y2="0"/>
        <line class="cls-12" x1="22.2" y1="72" x2="22.2" y2="0"/>
        <line class="cls-12" x1="77.4" y1="72" x2="77.4" y2="0"/>
        <line class="cls-12" x1="5.4" y1="72" x2="5.4" y2="0"/>
        <line class="cls-12" x1="33" y1="72" x2="33" y2="0"/>
        <line class="cls-12" x1="60.6" y1="72" x2="60.6" y2="0"/>
      </g>
    </pattern>
    <pattern id="Scotch_Rule_3" data-name="Scotch Rule 3" x="0" y="0" width="82.8" height="72" patternTransform="translate(-149.68 1482)" patternUnits="userSpaceOnUse" viewBox="0 0 82.8 72">
      <g>
        <rect class="cls-1" width="82.8" height="72"/>
        <line class="cls-14" x1="41.4" y1="72" x2="41.4" y2="0"/>
        <line class="cls-14" x1="13.8" y1="72" x2="13.8" y2="0"/>
        <line class="cls-14" x1="69" y1="72" x2="69" y2="0"/>
        <line class="cls-13" x1="49.8" y1="72" x2="49.8" y2="0"/>
        <line class="cls-13" x1="22.2" y1="72" x2="22.2" y2="0"/>
        <line class="cls-13" x1="77.4" y1="72" x2="77.4" y2="0"/>
        <line class="cls-13" x1="5.4" y1="72" x2="5.4" y2="0"/>
        <line class="cls-13" x1="33" y1="72" x2="33" y2="0"/>
        <line class="cls-13" x1="60.6" y1="72" x2="60.6" y2="0"/>
      </g>
    </pattern>
    <pattern id="_0_lpi_10_" data-name="10 lpi 10%" x="0" y="0" width="72" height="72" patternTransform="translate(-149.68 1482)" patternUnits="userSpaceOnUse" viewBox="0 0 72 72">
      <g>
        <rect class="cls-1" width="72" height="72"/>
        <g>
          <line class="cls-2" x1="71.75" y1="68.4" x2="144.25" y2="68.4"/>
          <line class="cls-2" x1="71.75" y1="54" x2="144.25" y2="54"/>
          <line class="cls-2" x1="71.75" y1="39.6" x2="144.25" y2="39.6"/>
          <line class="cls-2" x1="71.75" y1="25.2" x2="144.25" y2="25.2"/>
          <line class="cls-2" x1="71.75" y1="10.8" x2="144.25" y2="10.8"/>
          <line class="cls-2" x1="71.75" y1="61.2" x2="144.25" y2="61.2"/>
          <line class="cls-2" x1="71.75" y1="46.8" x2="144.25" y2="46.8"/>
          <line class="cls-2" x1="71.75" y1="32.4" x2="144.25" y2="32.4"/>
          <line class="cls-2" x1="71.75" y1="18" x2="144.25" y2="18"/>
          <line class="cls-2" x1="71.75" y1="3.6" x2="144.25" y2="3.6"/>
        </g>
        <g>
          <line class="cls-2" x1="-.25" y1="68.4" x2="72.25" y2="68.4"/>
          <line class="cls-2" x1="-.25" y1="54" x2="72.25" y2="54"/>
          <line class="cls-2" x1="-.25" y1="39.6" x2="72.25" y2="39.6"/>
          <line class="cls-2" x1="-.25" y1="25.2" x2="72.25" y2="25.2"/>
          <line class="cls-2" x1="-.25" y1="10.8" x2="72.25" y2="10.8"/>
          <line class="cls-2" x1="-.25" y1="61.2" x2="72.25" y2="61.2"/>
          <line class="cls-2" x1="-.25" y1="46.8" x2="72.25" y2="46.8"/>
          <line class="cls-2" x1="-.25" y1="32.4" x2="72.25" y2="32.4"/>
          <line class="cls-2" x1="-.25" y1="18" x2="72.25" y2="18"/>
          <line class="cls-2" x1="-.25" y1="3.6" x2="72.25" y2="3.6"/>
        </g>
        <g>
          <line class="cls-2" x1="-72.25" y1="68.4" x2=".25" y2="68.4"/>
          <line class="cls-2" x1="-72.25" y1="54" x2=".25" y2="54"/>
          <line class="cls-2" x1="-72.25" y1="39.6" x2=".25" y2="39.6"/>
          <line class="cls-2" x1="-72.25" y1="25.2" x2=".25" y2="25.2"/>
          <line class="cls-2" x1="-72.25" y1="10.8" x2=".25" y2="10.8"/>
          <line class="cls-2" x1="-72.25" y1="61.2" x2=".25" y2="61.2"/>
          <line class="cls-2" x1="-72.25" y1="46.8" x2=".25" y2="46.8"/>
          <line class="cls-2" x1="-72.25" y1="32.4" x2=".25" y2="32.4"/>
          <line class="cls-2" x1="-72.25" y1="18" x2=".25" y2="18"/>
          <line class="cls-2" x1="-72.25" y1="3.6" x2=".25" y2="3.6"/>
        </g>
      </g>
    </pattern>
  </defs>
  <g id="Layer_1" data-name="Layer 1"/>
  <g id="Layer_2" data-name="Layer 2">
    <g id="Layer_2-2" data-name="Layer 2">
      <g>
        <path class="cls-11" d="M300.01,522c-55.71,0-108.25-9.82-147.92-27.65-42.22-18.98-65.47-45.17-65.47-73.77,0-13.23,5.1-26.18,14.89-38.1C40.8,363.59,1.15,322.29,1.15,276.15c0-25.25,11.86-49.62,33.64-69.61C12.55,183.92,0,154.08,0,123.06,0,55.2,58.82,0,131.13,0c33.08,0,64.2,11.37,88.4,32.15,24.62-11.14,52.29-17.01,80.49-17.01,49.14,0,95.04,17.48,127.17,48.19,34.63-15.98,74.84-24.39,116.8-24.39,55.89,0,108.56,14.97,148.32,42.15,40.92,27.97,63.46,65.55,63.46,105.8,0,7.03-.7,14.05-2.1,20.98,41.45,21.74,65.93,56.5,65.93,94.25,0,56.89-55.65,104.69-131.11,114.28,.13,1.75,.2,3.51,.2,5.27,0,25.73-13.82,49.69-38.92,67.45-24.05,17.02-55.85,26.4-89.55,26.4-36.35,0-70.34-10.92-94.58-30.17-39.96,23.04-101.1,36.66-165.61,36.66Z"/>
        <path class="cls-6" d="M684.99,407.51c1.11,4.6,1.69,9.33,1.69,14.15,0,46.31-53.03,83.85-118.47,83.85-38.06,0-71.94-12.7-93.61-32.46-36.8,23.55-97.7,38.95-166.59,38.95-112.33,0-203.4-40.93-203.4-91.42,0-15.66,8.75-30.39,24.17-43.27-63.83-14.55-109.64-54.35-109.64-101.17,0-26.4,14.57-50.58,38.73-69.24-24.49-20.69-39.88-50.59-39.88-83.85,0-62.44,54.22-113.06,121.13-113.06,33.96,0,64.66,13.05,86.65,34.06,24-12,52.14-18.91,82.23-18.91,50.77,0,95.99,19.66,125.1,50.28,33.34-16.65,74.42-26.47,118.87-26.47,111.44,0,201.77,61.75,201.77,137.94,0,9.02-1.27,17.85-3.69,26.4,40.66,18.92,67.52,51.64,67.52,88.82,0,54.66-58.04,99.66-132.6,105.4Z"/>
        <path class="cls-9" d="M479.04,134.54c-1.12-.1-2.24-.2-3.37-.3,.14-.87,.32-1.73,.54-2.57,.99,.91,1.94,1.87,2.83,2.87Z"/>
        <path class="cls-9" d="M479.04,134.54c-1.12-.1-2.24-.2-3.37-.3,.14-.87,.32-1.73,.54-2.57,.99,.91,1.94,1.87,2.83,2.87Z"/>
        <path class="cls-9" d="M682.72,201.96c-.18,.82-.38,1.64-.61,2.44-.38-.32-.77-.63-1.16-.94,.57-.52,1.16-1.02,1.77-1.5Z"/>
        <path class="cls-9" d="M682.72,201.96c-.18,.82-.38,1.64-.61,2.44-.38-.32-.77-.63-1.16-.94,.57-.52,1.16-1.02,1.77-1.5Z"/>
        <path class="cls-10" d="M262.72,409.6h-5.1c-1.78,0-2.84,1.07-2.84,2.73v19.31c0,5.57-3.44,9.36-9.24,9.36s-9.36-3.79-9.36-9.36v-59.47c0-7.11,4.26-11.25,11.37-11.25h15.16c21.44,0,30.68,10.43,30.68,24.29s-9.24,24.4-30.68,24.4Zm-2.37-35.66h-2.73c-1.78,0-2.84,.95-2.84,2.72v17.18c0,1.78,1.07,2.72,2.84,2.72h2.73c8.29,0,14.22-3.44,14.22-11.37s-5.92-11.25-14.22-11.25Z"/>
        <path class="cls-10" d="M353.82,440.29c-1.3,.47-2.61,.71-3.67,.71-4.03,0-7.11-2.61-8.77-6.52l-2.37-5.69c-.83-1.9-2.01-2.73-4.03-2.73h-26.66c-1.9,0-3.32,.83-4.03,2.73l-2.73,6.87c-1.3,3.32-3.91,5.21-7.11,5.21-.95,0-1.9-.12-2.84-.59-3.08-1.07-4.62-3.67-4.62-6.63,0-1.18,.24-2.37,.71-3.67l25.71-62.67c1.9-4.62,5.57-7.46,10.31-7.46s8.41,2.96,10.19,7.34l24.64,60.18c.59,1.54,.95,3.08,.95,4.62,0,3.55-1.9,6.87-5.69,8.29Zm-22.51-30.45l-8.06-20.97c-.36-.71-.95-1.07-1.54-1.07s-1.18,.35-1.42,1.07l-8.17,20.97c-.24,.47-.36,.95-.36,1.3,0,1.07,.71,1.66,2.13,1.66h15.64c1.3,0,2.01-.59,2.01-1.66,0-.36-.12-.83-.24-1.3Z"/>
        <path class="cls-10" d="M434.73,429.27c0,6.87-3.2,11.73-9.36,11.73-4.86,0-7.7-1.3-11.25-6.28l-29.03-41.11c-.24-.47-.71-.59-1.07-.59-.47,0-.95,.47-.95,1.3v39.1c0,4.5-2.84,7.46-7.46,7.46s-7.46-2.96-7.46-7.46v-61.49c0-6.87,3.08-11.73,9.36-11.73,4.86,0,7.82,1.54,11.37,6.52l29.03,41.35c.24,.36,.59,.59,.95,.59,.59,0,.95-.36,.95-1.18v-39.69c0-4.5,2.84-7.46,7.46-7.46s7.46,2.96,7.46,7.46v61.49Z"/>
        <path class="cls-5" d="M455.81,369.44c-5.45,0-9.72-4.27-9.72-9.6s4.27-9.72,9.72-9.72,9.6,4.38,9.6,9.72-4.38,9.6-9.6,9.6Zm8.65,62.67c0,5.21-3.32,8.65-8.65,8.65s-8.65-3.44-8.65-8.65v-48.57c0-5.21,3.2-8.77,8.65-8.77s8.65,3.55,8.65,8.77v48.57Z"/>
        <path class="cls-10" d="M543.36,429.27c0,6.87-3.2,11.73-9.36,11.73-4.86,0-7.7-1.3-11.25-6.28l-29.03-41.11c-.24-.47-.71-.59-1.07-.59-.47,0-.95,.47-.95,1.3v39.1c0,4.5-2.84,7.46-7.46,7.46s-7.46-2.96-7.46-7.46v-61.49c0-6.87,3.08-11.73,9.36-11.73,4.86,0,7.82,1.54,11.37,6.52l29.03,41.35c.24,.36,.59,.59,.95,.59,.59,0,.95-.36,.95-1.18v-39.69c0-4.5,2.84-7.46,7.46-7.46s7.46,2.96,7.46,7.46v61.49Z"/>
        <path class="cls-10" d="M575.46,431.52c0,5.57-3.44,9.36-9.36,9.36s-9.24-3.79-9.24-9.36v-61.84c0-5.69,3.44-9.36,9.24-9.36s9.36,3.67,9.36,9.36v61.84Z"/>
        <path class="cls-11" d="M250.53,138.04v21.55l-18.6,17.62v-39.16c0-5.69,3.44-9.36,9.24-9.36s9.36,3.67,9.36,9.36Z"/>
        <path class="cls-11" d="M287.14,129.16v80.09c-5.8,0-9.36-3.68-9.36-9.36v-53.55c0-2.49-1.42-4.03-3.91-4.03h-9.01c-4.03,0-6.63-2.37-6.63-6.52s2.6-6.63,6.63-6.63h22.27Z"/>
        <path class="cls-11" d="M334.52,178.2c-.23,.47-.35,.95-.35,1.3,0,1.07,.7,1.66,2.14,1.66h9.18v13.27h-14.75c-1.89,0-3.32,.83-4.03,2.72l-2.73,6.87c-1.3,3.32-3.91,5.22-7.1,5.22-.95,0-1.89-.12-2.84-.59-3.08-1.07-4.62-3.68-4.62-6.64,0-1.18,.23-2.37,.7-3.67l25.71-62.68c1.82-4.4,5.24-7.19,9.67-7.43v28.7c-.36-.52-.87-.77-1.37-.77-.59,0-1.19,.35-1.42,1.07l-8.18,20.97Z"/>
        <path class="cls-11" d="M406.04,130.65v77.93c-10.46-.64-15.49-6.33-15.49-17.47v-53.07c0-5.57,3.44-9.36,9.36-9.36,2.52,0,4.59,.72,6.13,1.97Z"/>
        <path class="cls-11" d="M462.23,151.9v11.92l-17.3,17.3v-29.22c0-5.22,3.19-8.77,8.64-8.77s8.65,3.56,8.65,8.77Z"/>
        <path class="cls-11" d="M495.04,178.2c-.23,.47-.35,.95-.35,1.3,0,1.07,.72,1.66,2.14,1.66h9.41v13.27h-14.98c-1.89,0-3.31,.83-4.03,2.72l-2.72,6.87c-1.31,3.32-3.91,5.22-7.11,5.22-.95,0-1.89-.12-2.84-.59-3.08-1.07-4.62-3.68-4.62-6.64,0-1.18,.24-2.37,.72-3.67l25.71-62.68c1.84-4.48,5.35-7.29,9.89-7.44v29.15l-.05-.14c-.35-.72-.95-1.07-1.54-1.07s-1.19,.35-1.42,1.07l-8.18,20.97Z"/>
        <path class="cls-11" d="M584.4,153.03v32.15l-16.39-23.21c-.23-.47-.7-.59-1.06-.59-.47,0-.95,.48-.95,1.31v39.1c0,4.5-2.85,7.46-7.46,7.46s-7.46-2.96-7.46-7.46v-61.49c0-6.87,3.07-11.73,9.36-11.73,4.86,0,7.82,1.54,11.37,6.52l12.6,17.95Z"/>
        <path class="cls-4" d="M463.17,128.21c0,5.33-4.38,9.59-9.6,9.59s-9.71-4.26-9.71-9.59,4.26-9.72,9.71-9.72,9.6,4.38,9.6,9.72Z"/>
        <path class="cls-10" d="M234.14,178.3v22.68c0,5.56,3.44,9.36,9.24,9.36s9.36-3.8,9.36-9.36v-40.3l-18.6,17.62Z"/>
        <path class="cls-10" d="M311.61,130.26h-22.27v80.09c5.8,0,9.24-3.68,9.24-9.36v-53.55c0-2.49,1.54-4.03,4.03-4.03h9.01c4.03,0,6.64-2.37,6.64-6.52s-2.61-6.63-6.64-6.63Z"/>
        <path class="cls-10" d="M383.16,196.83l-24.64-60.18c-1.77-4.38-5.57-7.34-10.18-7.34-.22,0-.44,.01-.65,.02v28.7c.07,.09,.12,.19,.18,.3l8.05,20.97c.12,.47,.24,.95,.24,1.3,0,1.07-.72,1.66-2.01,1.66h-6.45v13.27h11.9c2.01,0,3.19,.83,4.03,2.72l2.37,5.69c1.66,3.91,4.73,6.51,8.76,6.51,1.07,0,2.37-.23,3.68-.7,3.79-1.42,5.68-4.75,5.68-8.29,0-1.54-.35-3.08-.95-4.62Z"/>
        <path class="cls-10" d="M432.92,196.6h-17.65c-2.49,0-3.91-1.43-3.91-3.92v-53.54c0-3.16-1.1-5.74-3.12-7.39v77.93c.66,.04,1.34,.07,2.05,.07h22.63c3.91,0,6.52-2.49,6.52-6.52s-2.61-6.63-6.52-6.63Z"/>
        <path class="cls-10" d="M447.13,182.22v19.34c0,5.22,3.19,8.65,8.64,8.65s8.65-3.44,8.65-8.65v-36.64l-17.3,17.3Z"/>
        <path class="cls-10" d="M543.68,196.83l-24.64-60.18c-1.77-4.38-5.56-7.34-10.18-7.34-.14,0-.28,0-.42,.01v29.15l8,20.83c.11,.47,.23,.95,.23,1.3,0,1.07-.7,1.66-2.01,1.66h-6.22v13.27h11.67c2.01,0,3.2,.83,4.03,2.72l2.37,5.69c1.66,3.91,4.75,6.51,8.76,6.51,1.07,0,2.38-.23,3.68-.7,3.79-1.42,5.69-4.75,5.69-8.29,0-1.54-.36-3.08-.96-4.62Z"/>
        <path class="cls-10" d="M612.39,129.78c-4.61,0-7.46,2.96-7.46,7.45v39.69c0,.84-.35,1.19-.95,1.19-.35,0-.7-.24-.95-.59l-16.43-23.4v32.15l12.64,17.9c3.56,4.98,6.4,6.28,11.25,6.28,6.17,0,9.36-4.86,9.36-11.73v-61.49c0-4.49-2.84-7.45-7.46-7.45Z"/>
        <g>
          <path class="cls-20" d="M250.53,138.04v21.55l-18.6,17.62v-39.16c0-5.69,3.44-9.36,9.24-9.36s9.36,3.67,9.36,9.36Z"/>
          <path class="cls-21" d="M287.14,129.16v80.09c-5.8,0-9.36-3.68-9.36-9.36v-53.55c0-2.49-1.42-4.03-3.91-4.03h-9.01c-4.03,0-6.63-2.37-6.63-6.52s2.6-6.63,6.63-6.63h22.27Z"/>
          <path class="cls-21" d="M334.52,178.2c-.23,.47-.35,.95-.35,1.3,0,1.07,.7,1.66,2.14,1.66h9.18v13.27h-14.75c-1.89,0-3.32,.83-4.03,2.72l-2.73,6.87c-1.3,3.32-3.91,5.22-7.1,5.22-.95,0-1.89-.12-2.84-.59-3.08-1.07-4.62-3.68-4.62-6.64,0-1.18,.23-2.37,.7-3.67l25.71-62.68c1.82-4.4,5.24-7.19,9.67-7.43v28.7c-.36-.52-.87-.77-1.37-.77-.59,0-1.19,.35-1.42,1.07l-8.18,20.97Z"/>
          <path class="cls-21" d="M406.04,130.65v77.93c-10.46-.64-15.49-6.33-15.49-17.47v-53.07c0-5.57,3.44-9.36,9.36-9.36,2.52,0,4.59,.72,6.13,1.97Z"/>
          <path class="cls-21" d="M462.23,151.9v11.92l-17.3,17.3v-29.22c0-5.22,3.19-8.77,8.64-8.77s8.65,3.56,8.65,8.77Z"/>
          <path class="cls-21" d="M495.04,178.2c-.23,.47-.35,.95-.35,1.3,0,1.07,.72,1.66,2.14,1.66h9.41v13.27h-14.98c-1.89,0-3.31,.83-4.03,2.72l-2.72,6.87c-1.31,3.32-3.91,5.22-7.11,5.22-.95,0-1.89-.12-2.84-.59-3.08-1.07-4.62-3.68-4.62-6.64,0-1.18,.24-2.37,.72-3.67l25.71-62.68c1.84-4.48,5.35-7.29,9.89-7.44v29.15l-.05-.14c-.35-.72-.95-1.07-1.54-1.07s-1.19,.35-1.42,1.07l-8.18,20.97Z"/>
          <path class="cls-21" d="M584.4,153.03v32.15l-16.39-23.21c-.23-.47-.7-.59-1.06-.59-.47,0-.95,.48-.95,1.31v39.1c0,4.5-2.85,7.46-7.46,7.46s-7.46-2.96-7.46-7.46v-61.49c0-6.87,3.07-11.73,9.36-11.73,4.86,0,7.82,1.54,11.37,6.52l12.6,17.95Z"/>
          <path class="cls-21" d="M463.17,128.21c0,5.33-4.38,9.59-9.6,9.59s-9.71-4.26-9.71-9.59,4.26-9.72,9.71-9.72,9.6,4.38,9.6,9.72Z"/>
          <path class="cls-7" d="M231.93,177.2v22.68c0,5.56,3.44,9.36,9.24,9.36s9.36-3.8,9.36-9.36v-40.3l-18.6,17.62Z"/>
          <path class="cls-7" d="M309.41,129.16h-22.27v80.09c5.8,0,9.24-3.68,9.24-9.36v-53.55c0-2.49,1.54-4.03,4.03-4.03h9.01c4.03,0,6.64-2.37,6.64-6.52s-2.61-6.63-6.64-6.63Z"/>
          <path class="cls-7" d="M380.96,195.73l-24.64-60.18c-1.77-4.38-5.57-7.34-10.18-7.34-.22,0-.44,.01-.65,.02v28.7c.07,.09,.12,.19,.18,.3l8.05,20.97c.12,.47,.24,.95,.24,1.3,0,1.07-.72,1.66-2.01,1.66h-6.45v13.27h11.9c2.01,0,3.19,.83,4.03,2.72l2.37,5.69c1.66,3.91,4.73,6.51,8.76,6.51,1.07,0,2.37-.23,3.68-.7,3.79-1.42,5.68-4.75,5.68-8.29,0-1.54-.35-3.08-.95-4.62Z"/>
          <path class="cls-7" d="M430.72,195.5h-17.65c-2.49,0-3.91-1.43-3.91-3.92v-53.54c0-3.16-1.1-5.74-3.12-7.39v77.93c.66,.04,1.34,.07,2.05,.07h22.63c3.91,0,6.52-2.49,6.52-6.52s-2.61-6.63-6.52-6.63Z"/>
          <path class="cls-7" d="M444.93,181.12v19.34c0,5.22,3.19,8.65,8.64,8.65s8.65-3.44,8.65-8.65v-36.64l-17.3,17.3Z"/>
          <path class="cls-7" d="M541.48,195.73l-24.64-60.18c-1.77-4.38-5.56-7.34-10.18-7.34-.14,0-.28,0-.42,.01v29.15l8,20.83c.11,.47,.23,.95,.23,1.3,0,1.07-.7,1.66-2.01,1.66h-6.22v13.27h11.67c2.01,0,3.2,.83,4.03,2.72l2.37,5.69c1.66,3.91,4.75,6.51,8.76,6.51,1.07,0,2.38-.23,3.68-.7,3.79-1.42,5.69-4.75,5.69-8.29,0-1.54-.36-3.08-.96-4.62Z"/>
          <path class="cls-7" d="M610.19,128.68c-4.61,0-7.46,2.96-7.46,7.45v39.69c0,.84-.35,1.19-.95,1.19-.35,0-.7-.24-.95-.59l-16.43-23.4v32.15l12.64,17.9c3.56,4.98,6.4,6.28,11.25,6.28,6.17,0,9.36-4.86,9.36-11.73v-61.49c0-4.49-2.84-7.45-7.46-7.45Z"/>
        </g>
        <path class="cls-11" d="M94.82,329.51c-2.93,0-5.47-.74-7.55-2.19-.99-.69-1.5-1.89-1.3-3.08,.19-1.19,1.05-2.17,2.2-2.51l14.49-4.35c.3-.09,.6-.13,.9-.13,.83,0,1.63,.33,2.23,.93,.82,.83,1.11,2.03,.77,3.15-1.59,5.12-5.98,8.18-11.75,8.18Z"/>
        <path class="cls-6" d="M89.07,324.75c1.5,1.05,3.44,1.62,5.75,1.62,4.53,0,7.61-2.31,8.74-5.97l-14.49,4.35Z"/>
        <path class="cls-11" d="M161.5,329.51c-7.36,0-12.5-5.14-12.5-12.5v-11.16c0-1.39,.91-2.61,2.24-3.01l18.61-5.58c.3-.09,.6-.13,.9-.13,.67,0,1.33,.21,1.88,.62,.8,.59,1.27,1.53,1.27,2.52v16.75c0,7.48-4.98,12.5-12.39,12.5Zm42.3-.12c-4.3,0-8.35-2.31-10.83-6.18l-15.89-23.89c-.55-.83-.68-1.87-.34-2.81,.34-.94,1.1-1.66,2.06-1.94l17.11-5.12c.3-.09,.6-.13,.9-.13,1,0,1.95,.47,2.56,1.31l13.6,18.96c1.74,2.34,2.74,5.35,2.74,8.26,0,3.92-1.91,7.39-5.24,9.52-2.1,1.35-4.35,2.04-6.67,2.04Z"/>
        <path class="cls-6" d="M210.43,311.44l-13.62-18.98-17.11,5.12,15.92,23.94c1.89,2.96,4.98,4.73,8.18,4.73,1.65,0,3.31-.47,4.98-1.54,2.6-1.66,3.79-4.26,3.79-6.87,0-2.14-.72-4.5-2.14-6.4Zm-58.29,5.57c0,5.56,3.56,9.36,9.36,9.36s9.25-3.8,9.25-9.36v-16.75l-18.61,5.58v11.16Z"/>
        <path class="cls-11" d="M261.73,330.46c-12.53,0-23.84-4.44-31.85-12.5-8-8.05-12.41-19.42-12.41-32,0-.27,0-.53,.02-.81,.07-1.33,.96-2.47,2.24-2.85l19.85-5.95c.3-.09,.6-.13,.9-.13,.76,0,1.5,.28,2.09,.79,.82,.72,1.2,1.82,1.01,2.89-.33,1.93-.5,3.96-.5,6.06,0,14.19,7.67,24.1,18.65,24.1s18.65-9.91,18.65-24.1c0-6.32-1.53-11.94-4.43-16.26-.56-.83-.69-1.87-.35-2.81,.34-.94,1.1-1.66,2.06-1.95l17.92-5.37c.3-.09,.6-.13,.9-.13,1.05,0,2.06,.53,2.65,1.45,4.56,7.13,6.97,15.81,6.97,25.08,0,12.57-4.45,23.93-12.52,32.01-8.05,8.05-19.37,12.49-31.86,12.49Z"/>
        <path class="cls-6" d="M296.48,262.58l-17.92,5.37c3.15,4.69,4.97,10.9,4.97,18.01,0,16-9.01,27.25-21.8,27.25s-21.8-11.25-21.8-27.25c0-2.3,.19-4.5,.55-6.59l-19.85,5.95c-.01,.22-.01,.43-.01,.65,0,24.29,16.94,41.35,41.11,41.35s41.23-17.07,41.23-41.35c0-8.93-2.32-16.89-6.47-23.38Z"/>
        <path class="cls-11" d="M334.11,329.99c-9.67,0-16.8-2.5-22.43-7.86-2.54-2.38-4.06-5.94-4.06-9.51,0-6.15,4.61-10.96,10.49-10.96,3.2,0,6.07,1.32,8.1,3.73,2.69,3.25,5.41,4.68,8.85,4.68,2.59,0,5.62-1.19,5.62-4.55,0-3.52-1.5-5.27-12.06-10.85-8.55-4.54-19.92-12.2-19.92-26.35,0-4.68,1.06-8.95,3.15-12.69,.4-.71,1.06-1.24,1.84-1.48l34.81-10.44c.29-.09,.6-.13,.9-.13,.34,0,.67,.05,.99,.16,3.83,1.28,7,3.19,9.43,5.68,2.32,2.32,3.61,5.34,3.61,8.47,0,6.22-4.36,10.73-10.37,10.73-4.43,0-6.72-2.26-8.56-4.08-1.78-1.76-3.07-3.03-6.61-3.03s-5.27,1.82-5.27,3.62c0,2.68,1.82,4.16,12.14,9.93,10.44,5.87,20.09,13.19,20.09,26.91,0,16.5-12.64,28.03-30.75,28.03Z"/>
        <path class="cls-6" d="M343.23,277.79c-10.2-5.69-13.75-7.94-13.75-12.67,0-3.44,3.08-6.76,8.41-6.76,9.01,0,8.41,7.11,15.17,7.11,4.5,0,7.22-3.31,7.22-7.59,0-2.25-.95-4.5-2.72-6.28-2.09-2.15-4.87-3.79-8.17-4.89l-34.81,10.44c-1.76,3.15-2.75,6.88-2.75,11.15,0,11.62,8.65,18.49,18.24,23.57,10.55,5.57,13.74,8.06,13.74,13.63,0,4.62-3.67,7.7-8.76,7.7-4.15,0-7.82-1.65-11.25-5.8-1.3-1.54-3.2-2.61-5.69-2.61-4.38,0-7.34,3.68-7.34,7.82,0,2.61,1.07,5.34,3.08,7.23,5.1,4.86,11.62,6.99,20.26,6.99,15.52,0,27.6-9.25,27.6-24.88,0-12.32-9.01-18.84-18.47-24.17Z"/>
        <path class="cls-11" d="M410.4,330.46c-26.4,0-44.14-17.88-44.14-44.49s18.56-44.49,44.14-44.49c7.88,0,18.86,1.44,26.4,8.28,3.18,2.85,4.94,6.5,4.94,10.27,0,6.01-4.51,10.37-10.73,10.37-3.99,0-6.58-2.09-8.87-3.94-2.77-2.24-5.39-4.35-11.27-4.35-9.23,0-18.54,7.38-18.54,23.87,0,6.31,1.71,12.4,4.68,16.71,3.34,4.83,8,7.28,13.85,7.28s8.47-2.19,11.32-4.52c2.31-1.88,4.93-4.01,8.82-4.01,6.22,0,10.73,4.46,10.73,10.61,0,3.46-1.74,7.01-4.9,9.99-7.54,6.98-18.54,8.44-26.45,8.44Z"/>
        <path class="cls-6" d="M434.68,319.73c-6.4,5.92-15.99,7.58-24.29,7.58-24.88,0-40.99-16.47-40.99-41.35s16.94-41.35,40.99-41.35c8.29,0,17.89,1.66,24.29,7.46,2.25,2.01,3.91,4.74,3.91,7.94,0,4.38-3.2,7.23-7.58,7.23-6.75,0-7.94-8.29-20.14-8.29-14.93,0-21.68,13.86-21.68,27.01s6.75,27.13,21.68,27.13c11.97,0,13.62-8.53,20.14-8.53,4.5,0,7.58,3.08,7.58,7.46,0,2.96-1.78,5.69-3.91,7.7Z"/>
        <path class="cls-6" d="M455.77,329.27c-7.05,0-11.79-4.74-11.79-11.79v-48.57c0-5.82,3.16-10.08,8.17-11.45-5.39-1.51-9.24-6.35-9.24-12.25,0-7.09,5.77-12.86,12.86-12.86s12.74,5.77,12.74,12.86c0,5.8-3.9,10.71-9.21,12.24,5,1.37,8.26,5.7,8.26,11.45v48.57c0,7.05-4.74,11.79-11.79,11.79Z"/>
        <path class="cls-11" d="M455.77,254.81c-5.45,0-9.72-4.27-9.72-9.6s4.27-9.72,9.72-9.72,9.6,4.38,9.6,9.72-4.38,9.6-9.6,9.6Zm8.65,62.67c0,5.21-3.32,8.65-8.65,8.65s-8.65-3.44-8.65-8.65v-48.57c0-5.21,3.2-8.77,8.65-8.77s8.65,3.55,8.65,8.77v48.57Z"/>
        <path class="cls-11" d="M489.5,325.78c-.57,0-1.13-.15-1.63-.46-9.21-5.58-14.28-15.6-14.28-28.22v-42.06c0-7.48,5.02-12.5,12.5-12.5s12.38,5.02,12.38,12.5v43.36c0,7.94,3.99,12.14,11.54,12.14,9.55,0,11.55-6.6,11.55-12.14v-45.37c0-6.35,4.26-10.61,10.6-10.61s10.61,4.36,10.61,10.61v44.07c0,3.81-.47,7.42-1.39,10.71-.29,1.02-1.06,1.82-2.07,2.15l-48.86,15.67c-.31,.1-.64,.15-.96,.15Z"/>
        <path class="cls-6" d="M532.17,245.57c-4.61,0-7.45,2.96-7.45,7.46v45.37c0,9.72-5.34,15.28-14.7,15.28s-14.69-5.56-14.69-15.28v-43.36c0-5.57-3.44-9.36-9.24-9.36s-9.36,3.79-9.36,9.36v42.06c0,11.76,4.57,20.57,12.76,25.53l48.86-15.67c.84-2.98,1.28-6.28,1.28-9.86v-44.07c0-4.38-2.84-7.46-7.46-7.46Z"/>
        <path class="cls-1" d="M508.01,339.77c-7.85,0-14.63-1.69-20.13-5.01-1.06-.64-1.64-1.83-1.5-3.06,.14-1.22,.99-2.25,2.16-2.63l48.86-15.67c.32-.1,.64-.15,.96-.15,.8,0,1.59,.31,2.18,.88,.83,.8,1.16,2,.85,3.11-3.98,14.32-16.15,22.53-33.38,22.53Z"/>
        <path class="cls-1" d="M538.36,316.4c-3.66,13.15-15,20.23-30.35,20.23-7.34,0-13.59-1.59-18.51-4.56l48.86-15.67Z"/>
        <path class="cls-11" d="M566.64,301.05c-.66,0-1.31-.21-1.85-.6-.81-.59-1.29-1.54-1.29-2.54v-34.57c0-.88-.15-.88-.76-.88h-9.01c-5.85,0-9.77-3.88-9.77-9.65s3.93-9.78,9.77-9.78h44.55c5.85,0,9.78,3.93,9.78,9.78s-3.93,9.65-9.78,9.65h-9.01c-.74,0-.87,.13-.87,.88v28.6c0,1.37-.88,2.58-2.18,2.99l-18.61,5.97c-.31,.1-.64,.15-.96,.15Z"/>
        <path class="cls-6" d="M598.28,246.16h-44.55c-4.03,0-6.63,2.49-6.63,6.64s2.6,6.51,6.63,6.51h9.01c2.49,0,3.91,1.54,3.91,4.03v34.57l18.61-5.97v-28.6c0-2.49,1.53-4.03,4.02-4.03h9.01c4.03,0,6.64-2.37,6.64-6.51s-2.61-6.64-6.64-6.64Z"/>
        <path class="cls-1" d="M576,338.83c-7.48,0-12.5-5.02-12.5-12.5v-18.98c0-1.37,.88-2.58,2.18-2.99l18.61-5.97c.31-.1,.64-.15,.96-.15,.66,0,1.31,.21,1.85,.6,.81,.59,1.29,1.54,1.29,2.54v24.95c0,7.48-4.98,12.5-12.39,12.5Z"/>
        <path class="cls-1" d="M585.25,301.38v24.95c0,5.68-3.43,9.36-9.25,9.36s-9.36-3.68-9.36-9.36v-18.98l18.61-5.97Z"/>
        <path class="cls-11" d="M628.49,281.22c-.66,0-1.31-.21-1.85-.6-.81-.59-1.29-1.54-1.29-2.54v-14.74c0-.88-.15-.88-.76-.88h-9.01c-5.85,0-9.78-3.88-9.78-9.65s3.93-9.78,9.78-9.78h44.55c5.85,0,9.77,3.93,9.77,9.78s-3.93,9.65-9.77,9.65h-9.01c-.75,0-.88,.13-.88,.88v8.79c0,1.37-.88,2.58-2.19,3l-18.6,5.96c-.31,.1-.64,.15-.96,.15Z"/>
        <path class="cls-6" d="M660.12,246.16h-44.55c-4.03,0-6.64,2.49-6.64,6.64s2.61,6.51,6.64,6.51h9.01c2.49,0,3.91,1.54,3.91,4.03v14.74l18.6-5.96v-8.79c0-2.49,1.54-4.03,4.03-4.03h9.01c4.03,0,6.63-2.37,6.63-6.51s-2.6-6.64-6.63-6.64Z"/>
        <path class="cls-1" d="M637.84,338.83c-7.48,0-12.5-5.02-12.5-12.5v-38.81c0-1.37,.88-2.58,2.19-3l18.6-5.96c.31-.1,.64-.15,.96-.15,.66,0,1.31,.21,1.85,.6,.81,.59,1.29,1.54,1.29,2.54v44.77c0,7.48-4.98,12.5-12.38,12.5Z"/>
        <path class="cls-1" d="M647.08,281.56v44.77c0,5.68-3.44,9.36-9.24,9.36s-9.36-3.68-9.36-9.36v-38.81l18.6-5.96Z"/>
        <path class="cls-11" d="M670.69,267.7c-.92,0-1.82-.41-2.43-1.15-.82-1-.95-2.39-.32-3.52,7.56-13.7,21.64-21.56,38.62-21.56,6.37,0,12.37,1.12,17.85,3.32,1.23,.49,2.02,1.71,1.97,3.03-.05,1.32-.92,2.48-2.18,2.88l-52.55,16.84c-.32,.1-.64,.15-.96,.15Z"/>
        <path class="cls-6" d="M706.56,244.62c-16.15,0-29.08,7.63-35.87,19.94l52.55-16.85c-5.01-2.01-10.62-3.09-16.68-3.09Z"/>
        <path class="cls-1" d="M706.56,339.89c-12.53,0-23.84-4.44-31.85-12.5-8-8.05-12.41-19.42-12.41-32,0-8.46,1.89-16.17,5.62-22.92,.42-.76,1.12-1.3,1.93-1.52l52.42-16.8c.31-.1,.63-.15,.96-.15,.4,0,.81,.08,1.18,.22,16.6,6.63,26.51,22.02,26.51,41.17,0,12.57-4.44,23.93-12.51,32.01-8.05,8.05-19.36,12.49-31.85,12.49Zm0-68.59c-10.98,0-18.65,9.91-18.65,24.09s7.67,24.1,18.65,24.1,18.65-9.91,18.65-24.1-7.67-24.09-18.65-24.09Z"/>
        <path class="cls-1" d="M723.25,257.15h-.01l-52.55,16.85h-.01c-3.37,6.1-5.23,13.35-5.23,21.4,0,24.29,16.94,41.35,41.11,41.35s41.22-17.07,41.22-41.35c0-18.17-9.61-32.29-24.53-38.25Zm-16.69,65.5c-12.79,0-21.8-11.25-21.8-27.25s9.01-27.24,21.8-27.24,21.8,11.37,21.8,27.24-9.01,27.25-21.8,27.25Z"/>
        <path class="cls-11" d="M508.01,341.55c-7.86,0-14.63-1.69-20.13-5.01-1.06-.64-1.64-1.83-1.5-3.06,.14-1.22,.99-2.25,2.16-2.63l48.86-15.67c.32-.1,.64-.15,.96-.15,.8,0,1.59,.31,2.18,.88,.83,.8,1.16,2,.85,3.11-3.98,14.32-16.15,22.53-33.38,22.53Z"/>
        <path class="cls-3" d="M538.36,318.18c-3.66,13.15-15,20.23-30.35,20.23-7.34,0-13.59-1.59-18.51-4.56l48.86-15.67Z"/>
        <path class="cls-11" d="M576,340.61c-7.48,0-12.5-5.02-12.5-12.5v-18.98c0-1.37,.88-2.58,2.18-2.99l18.61-5.97c.31-.1,.64-.15,.96-.15,.66,0,1.31,.21,1.85,.6,.81,.59,1.29,1.54,1.29,2.54v24.95c0,7.48-4.98,12.5-12.39,12.5Z"/>
        <path class="cls-3" d="M585.25,303.15v24.95c0,5.68-3.43,9.36-9.25,9.36s-9.36-3.68-9.36-9.36v-18.98l18.61-5.97Z"/>
        <path class="cls-11" d="M637.84,340.61c-7.48,0-12.5-5.02-12.5-12.5v-38.81c0-1.37,.88-2.58,2.19-3l18.6-5.96c.31-.1,.64-.15,.96-.15,.66,0,1.31,.21,1.85,.6,.81,.59,1.29,1.54,1.29,2.54v44.77c0,7.48-4.98,12.5-12.38,12.5Z"/>
        <path class="cls-3" d="M647.08,283.34v44.77c0,5.68-3.44,9.36-9.24,9.36s-9.36-3.68-9.36-9.36v-38.81l18.6-5.96Z"/>
        <path class="cls-11" d="M706.56,341.67c-12.53,0-23.84-4.44-31.85-12.5-8-8.05-12.41-19.42-12.41-32,0-8.46,1.89-16.17,5.62-22.92,.42-.76,1.12-1.3,1.93-1.52l52.42-16.8c.31-.1,.63-.15,.96-.15,.4,0,.81,.08,1.18,.22,16.6,6.63,26.51,22.02,26.51,41.17,0,12.57-4.44,23.93-12.51,32.01-8.05,8.05-19.36,12.49-31.85,12.49Zm0-68.59c-10.98,0-18.65,9.91-18.65,24.09s7.67,24.1,18.65,24.1,18.65-9.91,18.65-24.1-7.67-24.09-18.65-24.09Z"/>
        <path class="cls-3" d="M723.25,258.93h-.01l-52.55,16.85h-.01c-3.37,6.1-5.23,13.35-5.23,21.4,0,24.29,16.94,41.35,41.11,41.35s41.22-17.07,41.22-41.35c0-18.17-9.61-32.29-24.53-38.25Zm-16.69,65.5c-12.79,0-21.8-11.25-21.8-27.25s9.01-27.24,21.8-27.24,21.8,11.37,21.8,27.24-9.01,27.25-21.8,27.25Z"/>
        <path class="cls-1" d="M89.07,317.2c-.63,0-1.26-.19-1.79-.56-3.21-2.22-4.98-5.88-4.98-10.33v-59.48c0-8.75,5.7-14.4,14.52-14.4h15.17c21.18,0,33.83,10.26,33.83,27.43,0,8.18-2.9,15.03-8.38,19.81-5.89,5.13-14.45,7.73-25.45,7.73h-4.79v18.9c0,1.56-.22,3.03-.65,4.36-.32,.98-1.1,1.75-2.09,2.05l-14.49,4.35c-.3,.09-.6,.13-.9,.13Zm20.56-49.1c7.34,0,11.07-2.77,11.07-8.23s-3.72-8.12-11.07-8.12h-2.43v16.35h2.43Z"/>
        <path class="cls-1" d="M111.99,235.59h-15.17c-7.1,0-11.37,4.14-11.37,11.25v59.48c0,3.39,1.28,6.12,3.62,7.74l14.49-4.35c.33-1.02,.5-2.17,.5-3.39v-19.31c0-1.66,1.07-2.73,2.84-2.73h5.1c21.44,0,30.68-10.43,30.68-24.4s-9.25-24.29-30.68-24.29Zm-2.37,35.66h-2.73c-1.77,0-2.84-.96-2.84-2.73v-17.18c0-1.78,1.07-2.73,2.84-2.73h2.73c8.29,0,14.21,3.44,14.21,11.26s-5.92,11.37-14.21,11.37Z"/>
        <path class="cls-1" d="M152.15,298.3c-.67,0-1.33-.21-1.88-.62-.8-.59-1.27-1.53-1.27-2.52v-48.31c0-8.75,5.7-14.4,14.52-14.4h16.23c30.43,0,33.72,18.51,33.72,26.47,0,10.11-4.75,17.49-13.79,21.55,.33,.72,.37,1.55,.11,2.31-.33,.96-1.1,1.7-2.07,1.99l-17.11,5.12c-.3,.09-.6,.13-.9,.13-1.03,0-2.02-.51-2.62-1.4l-3.19-4.79v5.74c0,1.39-.91,2.61-2.24,3.01l-18.61,5.58c-.3,.09-.6,.13-.9,.13Zm21.75-27.87c1.63-2.26,4.14-3.79,7.22-4.2,5.97-.74,7.22-4.38,7.22-7.31,0-7.16-7.96-7.16-10.96-7.16h-3.48v18.67Z"/>
        <path class="cls-1" d="M194.8,278.94l2.01,2.82-17.11,5.12-3.39-5.1c-.83-1.3-1.3-3.07-1.3-4.73,0-3.56,2.01-7.11,6.52-7.71,5.68-.7,9.95-4.14,9.95-10.43,0-7.45-5.92-10.31-14.1-10.31h-3.79c-1.78,0-2.84,.95-2.84,2.73v38.23l-18.61,5.58v-48.31c0-7.11,4.26-11.25,11.37-11.25h16.23c21.45,0,30.57,9.83,30.57,23.33,0,9.6-4.75,16.71-15.52,20.03Z"/>
        <path class="cls-1" d="M220.63,277.76c-.68,0-1.34-.22-1.89-.63-.8-.6-1.26-1.55-1.25-2.55,.32-25.79,18.51-43.8,44.24-43.8,15.9,0,29.53,7.07,37.41,19.41,.53,.83,.64,1.86,.3,2.79-.34,.92-1.1,1.63-2.05,1.92l-17.92,5.37c-.3,.09-.6,.13-.9,.13-1.03,0-2.02-.51-2.61-1.39-3.39-5.05-8.45-7.83-14.22-7.83-9.12,0-16.24,7.08-18.14,18.04-.22,1.25-1.15,2.22-2.34,2.52l-19.72,5.91c-.3,.09-.6,.13-.9,.13Z"/>
        <path class="cls-1" d="M296.48,251.88l-17.92,5.37c-3.88-5.77-9.78-9.23-16.83-9.23-10.93,0-19.1,8.31-21.24,20.64h-.01l-19.85,5.95c.3-23.94,17.15-40.69,41.1-40.69,15.19,0,27.65,6.82,34.76,17.96Z"/>
        <path class="cls-1" d="M314.59,249.61c-.94,0-1.84-.42-2.45-1.17-.8-1-.92-2.38-.3-3.5,4.77-8.57,14.64-13.68,26.42-13.68,4.46,0,8.54,.6,12.13,1.79,1.3,.43,2.18,1.66,2.16,3.03-.02,1.37-.93,2.57-2.24,2.97l-34.81,10.44c-.3,.09-.6,.13-.9,.13Z"/>
        <path class="cls-1" d="M349.4,236.03l-34.81,10.44c4.36-7.84,13.44-12.07,23.67-12.07,4.12,0,7.88,.55,11.14,1.63Z"/>
        <path class="cls-11" d="M89.07,317.2c-.63,0-1.26-.19-1.79-.56-3.21-2.22-4.98-5.88-4.98-10.33v-59.48c0-8.75,5.7-14.4,14.52-14.4h15.17c21.18,0,33.83,10.26,33.83,27.43,0,8.18-2.9,15.03-8.38,19.81-5.89,5.13-14.45,7.73-25.45,7.73h-4.79v18.9c0,1.56-.22,3.03-.65,4.36-.32,.98-1.1,1.75-2.09,2.05l-14.49,4.35c-.3,.09-.6,.13-.9,.13Zm20.56-49.1c7.34,0,11.07-2.77,11.07-8.23s-3.72-8.12-11.07-8.12h-2.43v16.35h2.43Z"/>
        <path class="cls-3" d="M111.99,235.59h-15.17c-7.1,0-11.37,4.14-11.37,11.25v59.48c0,3.39,1.28,6.12,3.62,7.74l14.49-4.35c.33-1.02,.5-2.17,.5-3.39v-19.31c0-1.66,1.07-2.73,2.84-2.73h5.1c21.44,0,30.68-10.43,30.68-24.4s-9.25-24.29-30.68-24.29Zm-2.37,35.66h-2.73c-1.77,0-2.84-.96-2.84-2.73v-17.18c0-1.78,1.07-2.73,2.84-2.73h2.73c8.29,0,14.21,3.44,14.21,11.26s-5.92,11.37-14.21,11.37Z"/>
        <path class="cls-11" d="M152.15,298.3c-.67,0-1.33-.21-1.88-.62-.8-.59-1.27-1.53-1.27-2.52v-48.31c0-8.75,5.7-14.4,14.52-14.4h16.23c30.43,0,33.72,18.51,33.72,26.47,0,10.11-4.75,17.49-13.79,21.55,.33,.72,.37,1.55,.11,2.31-.33,.96-1.1,1.7-2.07,1.99l-17.11,5.12c-.3,.09-.6,.13-.9,.13-1.03,0-2.02-.51-2.62-1.4l-3.19-4.79v5.74c0,1.39-.91,2.61-2.24,3.01l-18.61,5.58c-.3,.09-.6,.13-.9,.13Zm21.75-27.87c1.63-2.26,4.14-3.79,7.22-4.2,5.97-.74,7.22-4.38,7.22-7.31,0-7.16-7.96-7.16-10.96-7.16h-3.48v18.67Z"/>
        <path class="cls-3" d="M194.8,278.94l2.01,2.82-17.11,5.12-3.39-5.1c-.83-1.3-1.3-3.07-1.3-4.73,0-3.56,2.01-7.11,6.52-7.71,5.68-.7,9.95-4.14,9.95-10.43,0-7.45-5.92-10.31-14.1-10.31h-3.79c-1.78,0-2.84,.95-2.84,2.73v38.23l-18.61,5.58v-48.31c0-7.11,4.26-11.25,11.37-11.25h16.23c21.45,0,30.57,9.83,30.57,23.33,0,9.6-4.75,16.71-15.52,20.03Z"/>
        <path class="cls-11" d="M220.63,277.76c-.68,0-1.34-.22-1.89-.63-.8-.6-1.26-1.55-1.25-2.55,.32-25.79,18.51-43.8,44.24-43.8,15.9,0,29.53,7.07,37.41,19.41,.53,.83,.64,1.86,.3,2.79-.34,.92-1.1,1.63-2.05,1.92l-17.92,5.37c-.3,.09-.6,.13-.9,.13-1.03,0-2.02-.51-2.61-1.39-3.39-5.05-8.45-7.83-14.22-7.83-9.12,0-16.24,7.08-18.14,18.04-.22,1.25-1.15,2.22-2.34,2.52l-19.72,5.91c-.3,.09-.6,.13-.9,.13Z"/>
        <path class="cls-3" d="M296.48,251.88l-17.92,5.37c-3.88-5.77-9.78-9.23-16.83-9.23-10.93,0-19.1,8.31-21.24,20.64h-.01l-19.85,5.95c.3-23.94,17.15-40.69,41.1-40.69,15.19,0,27.65,6.82,34.76,17.96Z"/>
        <path class="cls-11" d="M314.59,249.61c-.94,0-1.84-.42-2.45-1.17-.8-1-.92-2.38-.3-3.5,4.77-8.57,14.64-13.68,26.42-13.68,4.46,0,8.54,.6,12.13,1.79,1.3,.43,2.18,1.66,2.16,3.03-.02,1.37-.93,2.57-2.24,2.97l-34.81,10.44c-.3,.09-.6,.13-.9,.13Z"/>
        <path class="cls-3" d="M349.4,236.03l-34.81,10.44c4.36-7.84,13.44-12.07,23.67-12.07,4.12,0,7.88,.55,11.14,1.63Z"/>
        <path class="cls-10" d="M125.01,98.21h-6.63c-1.16,0-1.88,.72-1.88,1.88v31.98c0,3.94-2.51,6.63-6.54,6.63s-6.54-2.69-6.54-6.63v-31.98c0-1.17-.72-1.88-1.97-1.88h-6.81c-2.78,0-4.57-1.7-4.57-4.48s1.79-4.57,4.57-4.57h30.36c2.78,0,4.57,1.7,4.57,4.57s-1.79,4.48-4.57,4.48Z"/>
        <path class="cls-10" d="M175.53,132.07c0,3.94-2.42,6.54-6.54,6.54s-6.45-2.6-6.45-6.54v-13.08c0-1.16-.72-1.88-1.97-1.88h-11.02c-1.16,0-1.88,.72-1.88,1.88v13.08c0,3.94-2.42,6.54-6.54,6.54s-6.54-2.6-6.54-6.54v-60.64c0-3.94,2.42-6.54,6.54-6.54s6.54,2.6,6.54,6.54v34.75c0,1.16,.72,1.88,1.88,1.88h11.02c1.25,0,1.97-.72,1.97-1.88v-10.84c0-3.94,2.42-6.63,6.45-6.63s6.54,2.69,6.54,6.63v36.72Z"/>
        <path class="cls-10" d="M212.52,138.25h-17.11c-8.06,0-12-3.94-12-12v-24.99c0-8.15,3.94-12.09,12-12.09h17.11c2.69,0,4.48,1.7,4.48,4.57s-1.79,4.48-4.48,4.48h-13.35c-1.7,0-2.69,.99-2.69,2.69v5.82c0,1.25,.72,1.97,1.88,1.97h13.08c2.69,0,4.48,1.61,4.48,4.48s-1.79,4.48-4.48,4.48h-13.08c-1.16,0-1.88,.72-1.88,1.88v6.99c0,1.7,.99,2.69,2.69,2.69h13.35c2.69,0,4.48,1.7,4.48,4.57s-1.79,4.48-4.48,4.48Z"/>
      </g>
    </g>
  </g>
</svg>