<?xml version="1.0" encoding="UTF-8" standalone="no"?>
<!DOCTYPE svg PUBLIC "-//W3C//DTD SVG 1.1//EN" "http://www.w3.org/Graphics/SVG/1.1/DTD/svg11.dtd">
<!-- Created with Vectornator (http://vectornator.io/) -->
<svg height="100%" stroke-miterlimit="10" style="fill-rule:nonzero;clip-rule:evenodd;stroke-linecap:round;stroke-linejoin:round;" version="1.1" viewBox="0 0 288 288" width="100%" xml:space="preserve" xmlns="http://www.w3.org/2000/svg" xmlns:vectornator="http://vectornator.io" xmlns:xlink="http://www.w3.org/1999/xlink">
<defs/>
<g id="Layer-1" vectornator:layerName="Layer 1">
<g opacity="1" vectornator:layerName="Group 1">
<g opacity="1" vectornator:layerName="Group 1">
<path d="M56.823 41.8195L70.9631 41.8195L70.9631 25.0972L26.0836 25.0972L26.0836 41.8195L40.1007 41.8195L40.1007 109.323L56.823 109.323L56.823 41.8195Z" fill="#fecc00" fill-rule="nonzero" opacity="1" stroke="none"/>
<path d="M83.2589 109.323L128.138 109.323L128.138 92.601L99.9811 92.601L99.9811 68.6243L121.007 76.6165L121.007 57.3121L99.9811 65.3044L99.9811 41.8195L128.138 41.8195L128.138 25.0972L83.2589 25.0972L83.2589 109.323Z" fill="#fecc00" fill-rule="nonzero" opacity="1" stroke="none"/>
<path d="M155.558 95.9209L166.132 109.2L176.461 96.1668L181.502 109.323L199.331 109.323L166.009 22.5151L132.688 109.323L150.517 109.323L155.558 95.9209ZM156.542 93.3388L166.009 68.5013L175.477 93.3388L156.542 93.3388Z" fill="#fecc00" fill-rule="nonzero" opacity="1" stroke="none"/>
<path d="M204.987 110.43C216.914 110.43 224.906 102.684 229.702 92.724C232.038 87.6827 234.62 81.1659 237.448 73.1737C240.03 65.6733 242.12 59.7713 243.965 55.4678C245.809 51.1643 248.268 47.5985 251.096 44.7705C254.047 41.8195 257.613 40.344 261.916 40.344L254.908 23.9906C248.883 23.9906 243.842 25.835 239.907 29.5237C235.972 33.0895 232.898 37.393 230.685 42.4343C228.595 47.3526 226.013 54.3612 223.062 63.3371C218.758 76.4935 215.93 83.994 210.151 89.4041C207.323 91.9862 204.003 93.3388 199.946 93.3388L204.987 110.43Z" fill="#fecc00" fill-rule="nonzero" opacity="1" stroke="none"/>
</g>
<path d="M179.661 167.687L169.579 167.687L160.972 182.811L132.568 133.874L159.004 133.874L159.004 125.513L118.059 125.513L134.167 153.424C119.781 155.145 108.346 167.81 108.346 182.319C107.977 197.935 121.994 211.829 137.61 211.46C146.094 211.46 154.701 207.648 160.972 199.656L166.874 209.739L176.587 209.739L166.013 191.541L179.661 167.687ZM156.176 191.295C151.504 199.041 145.356 202.853 137.61 202.853C126.421 202.853 117.076 193.508 117.076 182.319C117.076 171.13 126.421 161.785 137.61 161.785L139.085 161.785L156.176 191.295Z" fill="#fecc00" fill-rule="nonzero" opacity="1" stroke="none"/>
<g opacity="1" vectornator:layerName="Group 2">
<path d="M57.8542 264.434C63.732 264.434 68.6651 259.293 68.6651 253.045C68.6651 249.673 67.2481 246.798 64.5717 245.029C66.6184 243.315 67.668 240.883 67.668 237.842C67.668 231.705 62.8398 226.563 56.9621 226.563L48.093 226.563L48.093 264.434L57.8542 264.434ZM56.9621 234.082C58.9038 234.082 60.5832 235.796 60.5832 237.842C60.5832 239.887 59.0088 241.657 56.9621 241.657L55.2303 241.657L55.2303 234.082L56.9621 234.082ZM57.8542 249.12C59.901 249.12 61.5278 250.889 61.5278 253.045C61.5278 255.202 59.901 256.916 57.8542 256.916L55.2303 256.916L55.2303 249.12L57.8542 249.12Z" fill="#fecc00" fill-rule="nonzero" opacity="1" stroke="none"/>
<path d="M74.9627 264.434L94.1179 264.434L94.1179 256.916L82.1 256.916L82.1 246.135L91.074 249.728L91.074 241.048L82.1 244.642L82.1 234.082L94.1179 234.082L94.1179 226.563L74.9627 226.563L74.9627 264.434Z" fill="#fecc00" fill-rule="nonzero" opacity="1" stroke="none"/>
<path d="M108.078 246.798L123.297 265.485L123.297 226.563L116.159 226.563L116.159 244.255L100.94 225.513L100.94 264.434L108.078 264.434L108.078 246.798Z" fill="#fecc00" fill-rule="nonzero" opacity="1" stroke="none"/>
<path d="M131.693 264.434L150.849 264.434L150.849 256.916L138.831 256.916L138.831 246.135L147.805 249.728L147.805 241.048L138.831 244.642L138.831 234.082L150.849 234.082L150.849 226.563L131.693 226.563L131.693 264.434Z" fill="#fecc00" fill-rule="nonzero" opacity="1" stroke="none"/>
<path d="M164.808 246.135L173.782 249.728L173.782 241.048L164.808 244.642L164.808 234.082L176.826 234.082L176.826 226.563L157.671 226.563L157.671 264.434L164.808 264.434L164.808 246.135Z" fill="#fecc00" fill-rule="nonzero" opacity="1" stroke="none"/>
<path d="M183.649 264.434L190.786 264.434L190.786 226.563L183.649 226.563L183.649 264.434Z" fill="#fecc00" fill-rule="nonzero" opacity="1" stroke="none"/>
<path d="M209.154 234.082L215.189 234.082L215.189 226.563L196.034 226.563L196.034 234.082L202.017 234.082L202.017 264.434L209.154 264.434L209.154 234.082Z" fill="#fecc00" fill-rule="nonzero" opacity="1" stroke="none"/>
<path d="M215.609 264.932C220.699 264.932 224.111 261.449 226.157 256.971C227.154 254.704 228.256 251.774 229.464 248.18C230.566 244.808 231.458 242.154 232.245 240.219C233.032 238.284 234.082 236.681 235.289 235.409C236.548 234.082 238.07 233.419 239.907 233.419L236.916 226.066C234.344 226.066 232.192 226.895 230.513 228.554C228.834 230.157 227.522 232.092 226.577 234.359C225.685 236.57 224.583 239.722 223.323 243.757C221.487 249.673 220.28 253.045 217.813 255.478C216.606 256.639 215.189 257.247 213.457 257.247L215.609 264.932Z" fill="#fecc00" fill-rule="nonzero" opacity="1" stroke="none"/>
</g>
</g>
</g>
</svg>
